%TF.GenerationSoftware,KiCad,Pcbnew,(5.1.7)-1*%
%TF.CreationDate,2022-07-04T22:32:29-03:00*%
%TF.ProjectId,progshield,70726f67-7368-4696-956c-642e6b696361,rev?*%
%TF.SameCoordinates,Original*%
%TF.FileFunction,Legend,Bot*%
%TF.FilePolarity,Positive*%
%FSLAX46Y46*%
G04 Gerber Fmt 4.6, Leading zero omitted, Abs format (unit mm)*
G04 Created by KiCad (PCBNEW (5.1.7)-1) date 2022-07-04 22:32:29*
%MOMM*%
%LPD*%
G01*
G04 APERTURE LIST*
%ADD10C,0.150000*%
%ADD11C,0.120000*%
G04 APERTURE END LIST*
D10*
X47807619Y-56070476D02*
X47807619Y-56641904D01*
X47807619Y-56356190D02*
X48807619Y-56356190D01*
X48664761Y-56451428D01*
X48569523Y-56546666D01*
X48521904Y-56641904D01*
X48807619Y-55213333D02*
X48807619Y-55403809D01*
X48760000Y-55499047D01*
X48712380Y-55546666D01*
X48569523Y-55641904D01*
X48379047Y-55689523D01*
X47998095Y-55689523D01*
X47902857Y-55641904D01*
X47855238Y-55594285D01*
X47807619Y-55499047D01*
X47807619Y-55308571D01*
X47855238Y-55213333D01*
X47902857Y-55165714D01*
X47998095Y-55118095D01*
X48236190Y-55118095D01*
X48331428Y-55165714D01*
X48379047Y-55213333D01*
X48426666Y-55308571D01*
X48426666Y-55499047D01*
X48379047Y-55594285D01*
X48331428Y-55641904D01*
X48236190Y-55689523D01*
X47807619Y-71310476D02*
X47807619Y-71881904D01*
X47807619Y-71596190D02*
X48807619Y-71596190D01*
X48664761Y-71691428D01*
X48569523Y-71786666D01*
X48521904Y-71881904D01*
X48807619Y-70977142D02*
X48807619Y-70310476D01*
X47807619Y-70739047D01*
X91987619Y-71929523D02*
X91987619Y-71310476D01*
X91606666Y-71643809D01*
X91606666Y-71500952D01*
X91559047Y-71405714D01*
X91511428Y-71358095D01*
X91416190Y-71310476D01*
X91178095Y-71310476D01*
X91082857Y-71358095D01*
X91035238Y-71405714D01*
X90987619Y-71500952D01*
X90987619Y-71786666D01*
X91035238Y-71881904D01*
X91082857Y-71929523D01*
X91892380Y-70929523D02*
X91940000Y-70881904D01*
X91987619Y-70786666D01*
X91987619Y-70548571D01*
X91940000Y-70453333D01*
X91892380Y-70405714D01*
X91797142Y-70358095D01*
X91701904Y-70358095D01*
X91559047Y-70405714D01*
X90987619Y-70977142D01*
X90987619Y-70358095D01*
X90987619Y-55594285D02*
X90987619Y-56165714D01*
X90987619Y-55880000D02*
X91987619Y-55880000D01*
X91844761Y-55975238D01*
X91749523Y-56070476D01*
X91701904Y-56165714D01*
D11*
X45720000Y-48895000D02*
G75*
G02*
X43180000Y-46355000I0J2540000D01*
G01*
X43180000Y-45085000D02*
G75*
G02*
X45720000Y-42545000I2540000J0D01*
G01*
X50800000Y-42545000D02*
G75*
G02*
X53340000Y-45085000I0J-2540000D01*
G01*
X53340000Y-46355000D02*
G75*
G02*
X50800000Y-48895000I-2540000J0D01*
G01*
D10*
X144761904Y-86500000D02*
X144857142Y-86452380D01*
X145000000Y-86452380D01*
X145142857Y-86500000D01*
X145238095Y-86595238D01*
X145285714Y-86690476D01*
X145333333Y-86880952D01*
X145333333Y-87023809D01*
X145285714Y-87214285D01*
X145238095Y-87309523D01*
X145142857Y-87404761D01*
X145000000Y-87452380D01*
X144904761Y-87452380D01*
X144761904Y-87404761D01*
X144714285Y-87357142D01*
X144714285Y-87023809D01*
X144904761Y-87023809D01*
X144285714Y-87452380D02*
X144285714Y-86452380D01*
X143714285Y-87452380D01*
X143714285Y-86452380D01*
X143238095Y-87452380D02*
X143238095Y-86452380D01*
X143000000Y-86452380D01*
X142857142Y-86500000D01*
X142761904Y-86595238D01*
X142714285Y-86690476D01*
X142666666Y-86880952D01*
X142666666Y-87023809D01*
X142714285Y-87214285D01*
X142761904Y-87309523D01*
X142857142Y-87404761D01*
X143000000Y-87452380D01*
X143238095Y-87452380D01*
X138142857Y-84702380D02*
X137809523Y-85702380D01*
X137476190Y-84702380D01*
X137142857Y-85702380D02*
X137142857Y-84702380D01*
X136666666Y-85702380D02*
X136666666Y-84702380D01*
X136095238Y-85702380D01*
X136095238Y-84702380D01*
X134904761Y-84654761D02*
X135761904Y-85940476D01*
X134571428Y-85702380D02*
X134571428Y-84702380D01*
X134190476Y-84702380D01*
X134095238Y-84750000D01*
X134047619Y-84797619D01*
X134000000Y-84892857D01*
X134000000Y-85035714D01*
X134047619Y-85130952D01*
X134095238Y-85178571D01*
X134190476Y-85226190D01*
X134571428Y-85226190D01*
X133000000Y-85702380D02*
X133333333Y-85226190D01*
X133571428Y-85702380D02*
X133571428Y-84702380D01*
X133190476Y-84702380D01*
X133095238Y-84750000D01*
X133047619Y-84797619D01*
X133000000Y-84892857D01*
X133000000Y-85035714D01*
X133047619Y-85130952D01*
X133095238Y-85178571D01*
X133190476Y-85226190D01*
X133571428Y-85226190D01*
X132380952Y-84702380D02*
X132190476Y-84702380D01*
X132095238Y-84750000D01*
X132000000Y-84845238D01*
X131952380Y-85035714D01*
X131952380Y-85369047D01*
X132000000Y-85559523D01*
X132095238Y-85654761D01*
X132190476Y-85702380D01*
X132380952Y-85702380D01*
X132476190Y-85654761D01*
X132571428Y-85559523D01*
X132619047Y-85369047D01*
X132619047Y-85035714D01*
X132571428Y-84845238D01*
X132476190Y-84750000D01*
X132380952Y-84702380D01*
X131000000Y-84750000D02*
X131095238Y-84702380D01*
X131238095Y-84702380D01*
X131380952Y-84750000D01*
X131476190Y-84845238D01*
X131523809Y-84940476D01*
X131571428Y-85130952D01*
X131571428Y-85273809D01*
X131523809Y-85464285D01*
X131476190Y-85559523D01*
X131380952Y-85654761D01*
X131238095Y-85702380D01*
X131142857Y-85702380D01*
X131000000Y-85654761D01*
X130952380Y-85607142D01*
X130952380Y-85273809D01*
X131142857Y-85273809D01*
X144547619Y-84202380D02*
X144880952Y-83726190D01*
X145119047Y-84202380D02*
X145119047Y-83202380D01*
X144738095Y-83202380D01*
X144642857Y-83250000D01*
X144595238Y-83297619D01*
X144547619Y-83392857D01*
X144547619Y-83535714D01*
X144595238Y-83630952D01*
X144642857Y-83678571D01*
X144738095Y-83726190D01*
X145119047Y-83726190D01*
X144166666Y-84154761D02*
X144023809Y-84202380D01*
X143785714Y-84202380D01*
X143690476Y-84154761D01*
X143642857Y-84107142D01*
X143595238Y-84011904D01*
X143595238Y-83916666D01*
X143642857Y-83821428D01*
X143690476Y-83773809D01*
X143785714Y-83726190D01*
X143976190Y-83678571D01*
X144071428Y-83630952D01*
X144119047Y-83583333D01*
X144166666Y-83488095D01*
X144166666Y-83392857D01*
X144119047Y-83297619D01*
X144071428Y-83250000D01*
X143976190Y-83202380D01*
X143738095Y-83202380D01*
X143595238Y-83250000D01*
X143309523Y-83202380D02*
X142738095Y-83202380D01*
X143023809Y-84202380D02*
X143023809Y-83202380D01*
X137738095Y-82702380D02*
X137738095Y-81702380D01*
X137500000Y-81702380D01*
X137357142Y-81750000D01*
X137261904Y-81845238D01*
X137214285Y-81940476D01*
X137166666Y-82130952D01*
X137166666Y-82273809D01*
X137214285Y-82464285D01*
X137261904Y-82559523D01*
X137357142Y-82654761D01*
X137500000Y-82702380D01*
X137738095Y-82702380D01*
X136833333Y-81702380D02*
X136166666Y-81702380D01*
X136595238Y-82702380D01*
X144738095Y-81202380D02*
X144738095Y-80202380D01*
X144500000Y-80202380D01*
X144357142Y-80250000D01*
X144261904Y-80345238D01*
X144214285Y-80440476D01*
X144166666Y-80630952D01*
X144166666Y-80773809D01*
X144214285Y-80964285D01*
X144261904Y-81059523D01*
X144357142Y-81154761D01*
X144500000Y-81202380D01*
X144738095Y-81202380D01*
X143309523Y-80202380D02*
X143500000Y-80202380D01*
X143595238Y-80250000D01*
X143642857Y-80297619D01*
X143738095Y-80440476D01*
X143785714Y-80630952D01*
X143785714Y-81011904D01*
X143738095Y-81107142D01*
X143690476Y-81154761D01*
X143595238Y-81202380D01*
X143404761Y-81202380D01*
X143309523Y-81154761D01*
X143261904Y-81107142D01*
X143214285Y-81011904D01*
X143214285Y-80773809D01*
X143261904Y-80678571D01*
X143309523Y-80630952D01*
X143404761Y-80583333D01*
X143595238Y-80583333D01*
X143690476Y-80630952D01*
X143738095Y-80678571D01*
X143785714Y-80773809D01*
X137738095Y-79702380D02*
X137738095Y-78702380D01*
X137500000Y-78702380D01*
X137357142Y-78750000D01*
X137261904Y-78845238D01*
X137214285Y-78940476D01*
X137166666Y-79130952D01*
X137166666Y-79273809D01*
X137214285Y-79464285D01*
X137261904Y-79559523D01*
X137357142Y-79654761D01*
X137500000Y-79702380D01*
X137738095Y-79702380D01*
X136261904Y-78702380D02*
X136738095Y-78702380D01*
X136785714Y-79178571D01*
X136738095Y-79130952D01*
X136642857Y-79083333D01*
X136404761Y-79083333D01*
X136309523Y-79130952D01*
X136261904Y-79178571D01*
X136214285Y-79273809D01*
X136214285Y-79511904D01*
X136261904Y-79607142D01*
X136309523Y-79654761D01*
X136404761Y-79702380D01*
X136642857Y-79702380D01*
X136738095Y-79654761D01*
X136785714Y-79607142D01*
X144738095Y-78202380D02*
X144738095Y-77202380D01*
X144500000Y-77202380D01*
X144357142Y-77250000D01*
X144261904Y-77345238D01*
X144214285Y-77440476D01*
X144166666Y-77630952D01*
X144166666Y-77773809D01*
X144214285Y-77964285D01*
X144261904Y-78059523D01*
X144357142Y-78154761D01*
X144500000Y-78202380D01*
X144738095Y-78202380D01*
X143309523Y-77535714D02*
X143309523Y-78202380D01*
X143547619Y-77154761D02*
X143785714Y-77869047D01*
X143166666Y-77869047D01*
X137738095Y-76702380D02*
X137738095Y-75702380D01*
X137500000Y-75702380D01*
X137357142Y-75750000D01*
X137261904Y-75845238D01*
X137214285Y-75940476D01*
X137166666Y-76130952D01*
X137166666Y-76273809D01*
X137214285Y-76464285D01*
X137261904Y-76559523D01*
X137357142Y-76654761D01*
X137500000Y-76702380D01*
X137738095Y-76702380D01*
X136833333Y-75702380D02*
X136214285Y-75702380D01*
X136547619Y-76083333D01*
X136404761Y-76083333D01*
X136309523Y-76130952D01*
X136261904Y-76178571D01*
X136214285Y-76273809D01*
X136214285Y-76511904D01*
X136261904Y-76607142D01*
X136309523Y-76654761D01*
X136404761Y-76702380D01*
X136690476Y-76702380D01*
X136785714Y-76654761D01*
X136833333Y-76607142D01*
X144738095Y-75202380D02*
X144738095Y-74202380D01*
X144500000Y-74202380D01*
X144357142Y-74250000D01*
X144261904Y-74345238D01*
X144214285Y-74440476D01*
X144166666Y-74630952D01*
X144166666Y-74773809D01*
X144214285Y-74964285D01*
X144261904Y-75059523D01*
X144357142Y-75154761D01*
X144500000Y-75202380D01*
X144738095Y-75202380D01*
X143785714Y-74297619D02*
X143738095Y-74250000D01*
X143642857Y-74202380D01*
X143404761Y-74202380D01*
X143309523Y-74250000D01*
X143261904Y-74297619D01*
X143214285Y-74392857D01*
X143214285Y-74488095D01*
X143261904Y-74630952D01*
X143833333Y-75202380D01*
X143214285Y-75202380D01*
X137738095Y-73702380D02*
X137738095Y-72702380D01*
X137500000Y-72702380D01*
X137357142Y-72750000D01*
X137261904Y-72845238D01*
X137214285Y-72940476D01*
X137166666Y-73130952D01*
X137166666Y-73273809D01*
X137214285Y-73464285D01*
X137261904Y-73559523D01*
X137357142Y-73654761D01*
X137500000Y-73702380D01*
X137738095Y-73702380D01*
X136214285Y-73702380D02*
X136785714Y-73702380D01*
X136500000Y-73702380D02*
X136500000Y-72702380D01*
X136595238Y-72845238D01*
X136690476Y-72940476D01*
X136785714Y-72988095D01*
X144738095Y-72202380D02*
X144738095Y-71202380D01*
X144500000Y-71202380D01*
X144357142Y-71250000D01*
X144261904Y-71345238D01*
X144214285Y-71440476D01*
X144166666Y-71630952D01*
X144166666Y-71773809D01*
X144214285Y-71964285D01*
X144261904Y-72059523D01*
X144357142Y-72154761D01*
X144500000Y-72202380D01*
X144738095Y-72202380D01*
X143547619Y-71202380D02*
X143452380Y-71202380D01*
X143357142Y-71250000D01*
X143309523Y-71297619D01*
X143261904Y-71392857D01*
X143214285Y-71583333D01*
X143214285Y-71821428D01*
X143261904Y-72011904D01*
X143309523Y-72107142D01*
X143357142Y-72154761D01*
X143452380Y-72202380D01*
X143547619Y-72202380D01*
X143642857Y-72154761D01*
X143690476Y-72107142D01*
X143738095Y-72011904D01*
X143785714Y-71821428D01*
X143785714Y-71583333D01*
X143738095Y-71392857D01*
X143690476Y-71297619D01*
X143642857Y-71250000D01*
X143547619Y-71202380D01*
X137940476Y-70416666D02*
X137464285Y-70416666D01*
X138035714Y-70702380D02*
X137702380Y-69702380D01*
X137369047Y-70702380D01*
X136511904Y-70702380D02*
X137083333Y-70702380D01*
X136797619Y-70702380D02*
X136797619Y-69702380D01*
X136892857Y-69845238D01*
X136988095Y-69940476D01*
X137083333Y-69988095D01*
X135607142Y-69702380D02*
X136083333Y-69702380D01*
X136130952Y-70178571D01*
X136083333Y-70130952D01*
X135988095Y-70083333D01*
X135750000Y-70083333D01*
X135654761Y-70130952D01*
X135607142Y-70178571D01*
X135559523Y-70273809D01*
X135559523Y-70511904D01*
X135607142Y-70607142D01*
X135654761Y-70654761D01*
X135750000Y-70702380D01*
X135988095Y-70702380D01*
X136083333Y-70654761D01*
X136130952Y-70607142D01*
X145190476Y-68916666D02*
X144714285Y-68916666D01*
X145285714Y-69202380D02*
X144952380Y-68202380D01*
X144619047Y-69202380D01*
X143761904Y-69202380D02*
X144333333Y-69202380D01*
X144047619Y-69202380D02*
X144047619Y-68202380D01*
X144142857Y-68345238D01*
X144238095Y-68440476D01*
X144333333Y-68488095D01*
X142904761Y-68535714D02*
X142904761Y-69202380D01*
X143142857Y-68154761D02*
X143380952Y-68869047D01*
X142761904Y-68869047D01*
X137940476Y-67416666D02*
X137464285Y-67416666D01*
X138035714Y-67702380D02*
X137702380Y-66702380D01*
X137369047Y-67702380D01*
X136511904Y-67702380D02*
X137083333Y-67702380D01*
X136797619Y-67702380D02*
X136797619Y-66702380D01*
X136892857Y-66845238D01*
X136988095Y-66940476D01*
X137083333Y-66988095D01*
X136178571Y-66702380D02*
X135559523Y-66702380D01*
X135892857Y-67083333D01*
X135750000Y-67083333D01*
X135654761Y-67130952D01*
X135607142Y-67178571D01*
X135559523Y-67273809D01*
X135559523Y-67511904D01*
X135607142Y-67607142D01*
X135654761Y-67654761D01*
X135750000Y-67702380D01*
X136035714Y-67702380D01*
X136130952Y-67654761D01*
X136178571Y-67607142D01*
X145190476Y-65916666D02*
X144714285Y-65916666D01*
X145285714Y-66202380D02*
X144952380Y-65202380D01*
X144619047Y-66202380D01*
X143761904Y-66202380D02*
X144333333Y-66202380D01*
X144047619Y-66202380D02*
X144047619Y-65202380D01*
X144142857Y-65345238D01*
X144238095Y-65440476D01*
X144333333Y-65488095D01*
X143380952Y-65297619D02*
X143333333Y-65250000D01*
X143238095Y-65202380D01*
X143000000Y-65202380D01*
X142904761Y-65250000D01*
X142857142Y-65297619D01*
X142809523Y-65392857D01*
X142809523Y-65488095D01*
X142857142Y-65630952D01*
X143428571Y-66202380D01*
X142809523Y-66202380D01*
X137940476Y-64416666D02*
X137464285Y-64416666D01*
X138035714Y-64702380D02*
X137702380Y-63702380D01*
X137369047Y-64702380D01*
X136511904Y-64702380D02*
X137083333Y-64702380D01*
X136797619Y-64702380D02*
X136797619Y-63702380D01*
X136892857Y-63845238D01*
X136988095Y-63940476D01*
X137083333Y-63988095D01*
X135559523Y-64702380D02*
X136130952Y-64702380D01*
X135845238Y-64702380D02*
X135845238Y-63702380D01*
X135940476Y-63845238D01*
X136035714Y-63940476D01*
X136130952Y-63988095D01*
X145190476Y-62916666D02*
X144714285Y-62916666D01*
X145285714Y-63202380D02*
X144952380Y-62202380D01*
X144619047Y-63202380D01*
X143761904Y-63202380D02*
X144333333Y-63202380D01*
X144047619Y-63202380D02*
X144047619Y-62202380D01*
X144142857Y-62345238D01*
X144238095Y-62440476D01*
X144333333Y-62488095D01*
X143142857Y-62202380D02*
X143047619Y-62202380D01*
X142952380Y-62250000D01*
X142904761Y-62297619D01*
X142857142Y-62392857D01*
X142809523Y-62583333D01*
X142809523Y-62821428D01*
X142857142Y-63011904D01*
X142904761Y-63107142D01*
X142952380Y-63154761D01*
X143047619Y-63202380D01*
X143142857Y-63202380D01*
X143238095Y-63154761D01*
X143285714Y-63107142D01*
X143333333Y-63011904D01*
X143380952Y-62821428D01*
X143380952Y-62583333D01*
X143333333Y-62392857D01*
X143285714Y-62297619D01*
X143238095Y-62250000D01*
X143142857Y-62202380D01*
X137464285Y-61416666D02*
X136988095Y-61416666D01*
X137559523Y-61702380D02*
X137226190Y-60702380D01*
X136892857Y-61702380D01*
X136511904Y-61702380D02*
X136321428Y-61702380D01*
X136226190Y-61654761D01*
X136178571Y-61607142D01*
X136083333Y-61464285D01*
X136035714Y-61273809D01*
X136035714Y-60892857D01*
X136083333Y-60797619D01*
X136130952Y-60750000D01*
X136226190Y-60702380D01*
X136416666Y-60702380D01*
X136511904Y-60750000D01*
X136559523Y-60797619D01*
X136607142Y-60892857D01*
X136607142Y-61130952D01*
X136559523Y-61226190D01*
X136511904Y-61273809D01*
X136416666Y-61321428D01*
X136226190Y-61321428D01*
X136130952Y-61273809D01*
X136083333Y-61226190D01*
X136035714Y-61130952D01*
X144714285Y-59916666D02*
X144238095Y-59916666D01*
X144809523Y-60202380D02*
X144476190Y-59202380D01*
X144142857Y-60202380D01*
X143666666Y-59630952D02*
X143761904Y-59583333D01*
X143809523Y-59535714D01*
X143857142Y-59440476D01*
X143857142Y-59392857D01*
X143809523Y-59297619D01*
X143761904Y-59250000D01*
X143666666Y-59202380D01*
X143476190Y-59202380D01*
X143380952Y-59250000D01*
X143333333Y-59297619D01*
X143285714Y-59392857D01*
X143285714Y-59440476D01*
X143333333Y-59535714D01*
X143380952Y-59583333D01*
X143476190Y-59630952D01*
X143666666Y-59630952D01*
X143761904Y-59678571D01*
X143809523Y-59726190D01*
X143857142Y-59821428D01*
X143857142Y-60011904D01*
X143809523Y-60107142D01*
X143761904Y-60154761D01*
X143666666Y-60202380D01*
X143476190Y-60202380D01*
X143380952Y-60154761D01*
X143333333Y-60107142D01*
X143285714Y-60011904D01*
X143285714Y-59821428D01*
X143333333Y-59726190D01*
X143380952Y-59678571D01*
X143476190Y-59630952D01*
X137464285Y-58416666D02*
X136988095Y-58416666D01*
X137559523Y-58702380D02*
X137226190Y-57702380D01*
X136892857Y-58702380D01*
X136654761Y-57702380D02*
X135988095Y-57702380D01*
X136416666Y-58702380D01*
X144714285Y-56916666D02*
X144238095Y-56916666D01*
X144809523Y-57202380D02*
X144476190Y-56202380D01*
X144142857Y-57202380D01*
X143380952Y-56202380D02*
X143571428Y-56202380D01*
X143666666Y-56250000D01*
X143714285Y-56297619D01*
X143809523Y-56440476D01*
X143857142Y-56630952D01*
X143857142Y-57011904D01*
X143809523Y-57107142D01*
X143761904Y-57154761D01*
X143666666Y-57202380D01*
X143476190Y-57202380D01*
X143380952Y-57154761D01*
X143333333Y-57107142D01*
X143285714Y-57011904D01*
X143285714Y-56773809D01*
X143333333Y-56678571D01*
X143380952Y-56630952D01*
X143476190Y-56583333D01*
X143666666Y-56583333D01*
X143761904Y-56630952D01*
X143809523Y-56678571D01*
X143857142Y-56773809D01*
X137464285Y-55416666D02*
X136988095Y-55416666D01*
X137559523Y-55702380D02*
X137226190Y-54702380D01*
X136892857Y-55702380D01*
X136083333Y-54702380D02*
X136559523Y-54702380D01*
X136607142Y-55178571D01*
X136559523Y-55130952D01*
X136464285Y-55083333D01*
X136226190Y-55083333D01*
X136130952Y-55130952D01*
X136083333Y-55178571D01*
X136035714Y-55273809D01*
X136035714Y-55511904D01*
X136083333Y-55607142D01*
X136130952Y-55654761D01*
X136226190Y-55702380D01*
X136464285Y-55702380D01*
X136559523Y-55654761D01*
X136607142Y-55607142D01*
X144714285Y-53916666D02*
X144238095Y-53916666D01*
X144809523Y-54202380D02*
X144476190Y-53202380D01*
X144142857Y-54202380D01*
X143380952Y-53535714D02*
X143380952Y-54202380D01*
X143619047Y-53154761D02*
X143857142Y-53869047D01*
X143238095Y-53869047D01*
X137464285Y-52166666D02*
X136988095Y-52166666D01*
X137559523Y-52452380D02*
X137226190Y-51452380D01*
X136892857Y-52452380D01*
X136654761Y-51452380D02*
X136035714Y-51452380D01*
X136369047Y-51833333D01*
X136226190Y-51833333D01*
X136130952Y-51880952D01*
X136083333Y-51928571D01*
X136035714Y-52023809D01*
X136035714Y-52261904D01*
X136083333Y-52357142D01*
X136130952Y-52404761D01*
X136226190Y-52452380D01*
X136511904Y-52452380D01*
X136607142Y-52404761D01*
X136654761Y-52357142D01*
X144714285Y-50916666D02*
X144238095Y-50916666D01*
X144809523Y-51202380D02*
X144476190Y-50202380D01*
X144142857Y-51202380D01*
X143857142Y-50297619D02*
X143809523Y-50250000D01*
X143714285Y-50202380D01*
X143476190Y-50202380D01*
X143380952Y-50250000D01*
X143333333Y-50297619D01*
X143285714Y-50392857D01*
X143285714Y-50488095D01*
X143333333Y-50630952D01*
X143904761Y-51202380D01*
X143285714Y-51202380D01*
X137464285Y-49166666D02*
X136988095Y-49166666D01*
X137559523Y-49452380D02*
X137226190Y-48452380D01*
X136892857Y-49452380D01*
X136035714Y-49452380D02*
X136607142Y-49452380D01*
X136321428Y-49452380D02*
X136321428Y-48452380D01*
X136416666Y-48595238D01*
X136511904Y-48690476D01*
X136607142Y-48738095D01*
X144714285Y-47916666D02*
X144238095Y-47916666D01*
X144809523Y-48202380D02*
X144476190Y-47202380D01*
X144142857Y-48202380D01*
X143619047Y-47202380D02*
X143523809Y-47202380D01*
X143428571Y-47250000D01*
X143380952Y-47297619D01*
X143333333Y-47392857D01*
X143285714Y-47583333D01*
X143285714Y-47821428D01*
X143333333Y-48011904D01*
X143380952Y-48107142D01*
X143428571Y-48154761D01*
X143523809Y-48202380D01*
X143619047Y-48202380D01*
X143714285Y-48154761D01*
X143761904Y-48107142D01*
X143809523Y-48011904D01*
X143857142Y-47821428D01*
X143857142Y-47583333D01*
X143809523Y-47392857D01*
X143761904Y-47297619D01*
X143714285Y-47250000D01*
X143619047Y-47202380D01*
X136916666Y-46607142D02*
X136964285Y-46654761D01*
X137107142Y-46702380D01*
X137202380Y-46702380D01*
X137345238Y-46654761D01*
X137440476Y-46559523D01*
X137488095Y-46464285D01*
X137535714Y-46273809D01*
X137535714Y-46130952D01*
X137488095Y-45940476D01*
X137440476Y-45845238D01*
X137345238Y-45750000D01*
X137202380Y-45702380D01*
X137107142Y-45702380D01*
X136964285Y-45750000D01*
X136916666Y-45797619D01*
X136535714Y-46654761D02*
X136392857Y-46702380D01*
X136154761Y-46702380D01*
X136059523Y-46654761D01*
X136011904Y-46607142D01*
X135964285Y-46511904D01*
X135964285Y-46416666D01*
X136011904Y-46321428D01*
X136059523Y-46273809D01*
X136154761Y-46226190D01*
X136345238Y-46178571D01*
X136440476Y-46130952D01*
X136488095Y-46083333D01*
X136535714Y-45988095D01*
X136535714Y-45892857D01*
X136488095Y-45797619D01*
X136440476Y-45750000D01*
X136345238Y-45702380D01*
X136107142Y-45702380D01*
X135964285Y-45750000D01*
X144190476Y-45202380D02*
X144523809Y-44726190D01*
X144761904Y-45202380D02*
X144761904Y-44202380D01*
X144380952Y-44202380D01*
X144285714Y-44250000D01*
X144238095Y-44297619D01*
X144190476Y-44392857D01*
X144190476Y-44535714D01*
X144238095Y-44630952D01*
X144285714Y-44678571D01*
X144380952Y-44726190D01*
X144761904Y-44726190D01*
X143761904Y-45202380D02*
X143761904Y-44202380D01*
X143523809Y-44202380D01*
X143380952Y-44250000D01*
X143285714Y-44345238D01*
X143238095Y-44440476D01*
X143190476Y-44630952D01*
X143190476Y-44773809D01*
X143238095Y-44964285D01*
X143285714Y-45059523D01*
X143380952Y-45154761D01*
X143523809Y-45202380D01*
X143761904Y-45202380D01*
X137678571Y-42702380D02*
X137440476Y-43702380D01*
X137250000Y-42988095D01*
X137059523Y-43702380D01*
X136821428Y-42702380D01*
X135869047Y-43702380D02*
X136202380Y-43226190D01*
X136440476Y-43702380D02*
X136440476Y-42702380D01*
X136059523Y-42702380D01*
X135964285Y-42750000D01*
X135916666Y-42797619D01*
X135869047Y-42892857D01*
X135869047Y-43035714D01*
X135916666Y-43130952D01*
X135964285Y-43178571D01*
X136059523Y-43226190D01*
X136440476Y-43226190D01*
X144595238Y-42107142D02*
X144642857Y-42154761D01*
X144785714Y-42202380D01*
X144880952Y-42202380D01*
X145023809Y-42154761D01*
X145119047Y-42059523D01*
X145166666Y-41964285D01*
X145214285Y-41773809D01*
X145214285Y-41630952D01*
X145166666Y-41440476D01*
X145119047Y-41345238D01*
X145023809Y-41250000D01*
X144880952Y-41202380D01*
X144785714Y-41202380D01*
X144642857Y-41250000D01*
X144595238Y-41297619D01*
X143690476Y-42202380D02*
X144166666Y-42202380D01*
X144166666Y-41202380D01*
X143357142Y-42202380D02*
X143357142Y-41202380D01*
X142785714Y-42202380D02*
X143214285Y-41630952D01*
X142785714Y-41202380D02*
X143357142Y-41773809D01*
X138035714Y-40321428D02*
X137273809Y-40321428D01*
X137654761Y-40702380D02*
X137654761Y-39940476D01*
X136321428Y-39702380D02*
X136797619Y-39702380D01*
X136845238Y-40178571D01*
X136797619Y-40130952D01*
X136702380Y-40083333D01*
X136464285Y-40083333D01*
X136369047Y-40130952D01*
X136321428Y-40178571D01*
X136273809Y-40273809D01*
X136273809Y-40511904D01*
X136321428Y-40607142D01*
X136369047Y-40654761D01*
X136464285Y-40702380D01*
X136702380Y-40702380D01*
X136797619Y-40654761D01*
X136845238Y-40607142D01*
X135988095Y-39702380D02*
X135654761Y-40702380D01*
X135321428Y-39702380D01*
X139374285Y-38707380D02*
X139945714Y-38707380D01*
X139660000Y-38707380D02*
X139660000Y-37707380D01*
X139755238Y-37850238D01*
X139850476Y-37945476D01*
X139945714Y-37993095D01*
X142069523Y-88197380D02*
X141450476Y-88197380D01*
X141783809Y-88578333D01*
X141640952Y-88578333D01*
X141545714Y-88625952D01*
X141498095Y-88673571D01*
X141450476Y-88768809D01*
X141450476Y-89006904D01*
X141498095Y-89102142D01*
X141545714Y-89149761D01*
X141640952Y-89197380D01*
X141926666Y-89197380D01*
X142021904Y-89149761D01*
X142069523Y-89102142D01*
X141069523Y-88292619D02*
X141021904Y-88245000D01*
X140926666Y-88197380D01*
X140688571Y-88197380D01*
X140593333Y-88245000D01*
X140545714Y-88292619D01*
X140498095Y-88387857D01*
X140498095Y-88483095D01*
X140545714Y-88625952D01*
X141117142Y-89197380D01*
X140498095Y-89197380D01*
D11*
X93980000Y-68580000D02*
G75*
G02*
X91440000Y-66040000I0J2540000D01*
G01*
X99060000Y-66040000D02*
G75*
G02*
X96520000Y-68580000I-2540000J0D01*
G01*
X96520000Y-58420000D02*
G75*
G02*
X99060000Y-60960000I0J-2540000D01*
G01*
X91440000Y-60960000D02*
G75*
G02*
X93980000Y-58420000I2540000J0D01*
G01*
M02*
