%TF.GenerationSoftware,KiCad,Pcbnew,(5.1.7)-1*%
%TF.CreationDate,2022-07-04T22:32:28-03:00*%
%TF.ProjectId,progshield,70726f67-7368-4696-956c-642e6b696361,rev?*%
%TF.SameCoordinates,Original*%
%TF.FileFunction,Copper,L1,Top*%
%TF.FilePolarity,Positive*%
%FSLAX46Y46*%
G04 Gerber Fmt 4.6, Leading zero omitted, Abs format (unit mm)*
G04 Created by KiCad (PCBNEW (5.1.7)-1) date 2022-07-04 22:32:28*
%MOMM*%
%LPD*%
G01*
G04 APERTURE LIST*
%TA.AperFunction,ComponentPad*%
%ADD10O,1.727200X1.727200*%
%TD*%
%TA.AperFunction,ComponentPad*%
%ADD11O,1.740000X2.190000*%
%TD*%
%TA.AperFunction,ComponentPad*%
%ADD12C,1.600000*%
%TD*%
%TA.AperFunction,ComponentPad*%
%ADD13O,1.600000X1.600000*%
%TD*%
%TA.AperFunction,ComponentPad*%
%ADD14C,1.800000*%
%TD*%
%TA.AperFunction,ComponentPad*%
%ADD15R,1.800000X1.800000*%
%TD*%
%TA.AperFunction,ComponentPad*%
%ADD16O,1.440000X2.000000*%
%TD*%
%TA.AperFunction,ComponentPad*%
%ADD17R,1.440000X2.000000*%
%TD*%
%TA.AperFunction,ComponentPad*%
%ADD18C,2.000000*%
%TD*%
%TA.AperFunction,ComponentPad*%
%ADD19R,1.600000X1.600000*%
%TD*%
%TA.AperFunction,ViaPad*%
%ADD20C,0.800000*%
%TD*%
%TA.AperFunction,Conductor*%
%ADD21C,0.500000*%
%TD*%
%TA.AperFunction,Conductor*%
%ADD22C,0.250000*%
%TD*%
%TA.AperFunction,Conductor*%
%ADD23C,0.254000*%
%TD*%
%TA.AperFunction,Conductor*%
%ADD24C,0.100000*%
%TD*%
G04 APERTURE END LIST*
D10*
%TO.P,XA1,GND6*%
%TO.N,GND*%
X127000000Y-83820000D03*
%TO.P,XA1,GND5*%
X124460000Y-83820000D03*
%TO.P,XA1,D53*%
%TO.N,/CRT_CS_N*%
X127000000Y-81280000D03*
%TO.P,XA1,D52*%
%TO.N,/CRT_RD_N*%
X124460000Y-81280000D03*
%TO.P,XA1,D51*%
%TO.N,Net-(XA1-PadD51)*%
X127000000Y-78740000D03*
%TO.P,XA1,D50*%
%TO.N,/RST_N*%
X124460000Y-78740000D03*
%TO.P,XA1,D49*%
%TO.N,/D7*%
X127000000Y-76200000D03*
%TO.P,XA1,D48*%
%TO.N,/D6*%
X124460000Y-76200000D03*
%TO.P,XA1,D47*%
%TO.N,/D5*%
X127000000Y-73660000D03*
%TO.P,XA1,D46*%
%TO.N,/D4*%
X124460000Y-73660000D03*
%TO.P,XA1,D45*%
%TO.N,/D3*%
X127000000Y-71120000D03*
%TO.P,XA1,D44*%
%TO.N,/D2*%
X124460000Y-71120000D03*
%TO.P,XA1,D43*%
%TO.N,/D1*%
X127000000Y-68580000D03*
%TO.P,XA1,D42*%
%TO.N,/D0*%
X124460000Y-68580000D03*
%TO.P,XA1,D41*%
%TO.N,Net-(XA1-PadD41)*%
X127000000Y-66040000D03*
%TO.P,XA1,D40*%
%TO.N,Net-(XA1-PadD40)*%
X124460000Y-66040000D03*
%TO.P,XA1,D39*%
%TO.N,Net-(XA1-PadD39)*%
X127000000Y-63500000D03*
%TO.P,XA1,D38*%
%TO.N,Net-(XA1-PadD38)*%
X124460000Y-63500000D03*
%TO.P,XA1,D37*%
%TO.N,/A15*%
X127000000Y-60960000D03*
%TO.P,XA1,D36*%
%TO.N,/A14*%
X124460000Y-60960000D03*
%TO.P,XA1,D35*%
%TO.N,/A13*%
X127000000Y-58420000D03*
%TO.P,XA1,D34*%
%TO.N,/A12*%
X124460000Y-58420000D03*
%TO.P,XA1,D33*%
%TO.N,/A11*%
X127000000Y-55880000D03*
%TO.P,XA1,D32*%
%TO.N,/A10*%
X124460000Y-55880000D03*
%TO.P,XA1,D31*%
%TO.N,/A9*%
X127000000Y-53340000D03*
%TO.P,XA1,D30*%
%TO.N,/A8*%
X124460000Y-53340000D03*
%TO.P,XA1,D29*%
%TO.N,/A7*%
X127000000Y-50800000D03*
%TO.P,XA1,D28*%
%TO.N,/A6*%
X124460000Y-50800000D03*
%TO.P,XA1,D27*%
%TO.N,/A5*%
X127000000Y-48260000D03*
%TO.P,XA1,D26*%
%TO.N,/A4*%
X124460000Y-48260000D03*
%TO.P,XA1,D25*%
%TO.N,/A3*%
X127000000Y-45720000D03*
%TO.P,XA1,D24*%
%TO.N,/A2*%
X124460000Y-45720000D03*
%TO.P,XA1,D23*%
%TO.N,/A1*%
X127000000Y-43180000D03*
%TO.P,XA1,D22*%
%TO.N,/A0*%
X124460000Y-43180000D03*
%TO.P,XA1,5V4*%
%TO.N,+5V*%
X127000000Y-40640000D03*
%TO.P,XA1,5V3*%
X124460000Y-40640000D03*
%TO.P,XA1,A15*%
%TO.N,/CRT_WR_N*%
X121920000Y-88900000D03*
%TO.P,XA1,A14*%
%TO.N,/CLK*%
X119380000Y-88900000D03*
%TO.P,XA1,A13*%
%TO.N,/CRT_PG_N*%
X116840000Y-88900000D03*
%TO.P,XA1,A12*%
%TO.N,Net-(XA1-PadA12)*%
X114300000Y-88900000D03*
%TO.P,XA1,A11*%
%TO.N,Net-(XA1-PadA11)*%
X111760000Y-88900000D03*
%TO.P,XA1,A10*%
%TO.N,Net-(XA1-PadA10)*%
X109220000Y-88900000D03*
%TO.P,XA1,A9*%
%TO.N,Net-(XA1-PadA9)*%
X106680000Y-88900000D03*
%TO.P,XA1,A8*%
%TO.N,Net-(XA1-PadA8)*%
X104140000Y-88900000D03*
%TO.P,XA1,A7*%
%TO.N,Net-(XA1-PadA7)*%
X99060000Y-88900000D03*
%TO.P,XA1,A6*%
%TO.N,Net-(XA1-PadA6)*%
X96520000Y-88900000D03*
%TO.P,XA1,A5*%
%TO.N,Net-(XA1-PadA5)*%
X93980000Y-88900000D03*
%TO.P,XA1,A4*%
%TO.N,Net-(XA1-PadA4)*%
X91440000Y-88900000D03*
%TO.P,XA1,A3*%
%TO.N,Net-(XA1-PadA3)*%
X88900000Y-88900000D03*
%TO.P,XA1,A2*%
%TO.N,Net-(XA1-PadA2)*%
X86360000Y-88900000D03*
%TO.P,XA1,A1*%
%TO.N,Net-(XA1-PadA1)*%
X83820000Y-88900000D03*
%TO.P,XA1,*%
%TO.N,*%
X58420000Y-88900000D03*
%TO.P,XA1,D11*%
%TO.N,/DIP_OE_N*%
X64516000Y-40640000D03*
%TO.P,XA1,D12*%
%TO.N,/DIP_CE_N*%
X61976000Y-40640000D03*
%TO.P,XA1,D13*%
%TO.N,Net-(XA1-PadD13)*%
X59436000Y-40640000D03*
%TO.P,XA1,AREF*%
%TO.N,Net-(XA1-PadAREF)*%
X54356000Y-40640000D03*
%TO.P,XA1,SDA*%
%TO.N,Net-(XA1-PadSDA)*%
X51816000Y-40640000D03*
%TO.P,XA1,SCL*%
%TO.N,Net-(XA1-PadSCL)*%
X49276000Y-40640000D03*
%TO.P,XA1,D10*%
%TO.N,/DIP_WE_N*%
X67056000Y-40640000D03*
%TO.P,XA1,D9*%
%TO.N,/A17*%
X69596000Y-40640000D03*
%TO.P,XA1,D8*%
%TO.N,/A16*%
X72136000Y-40640000D03*
%TO.P,XA1,GND1*%
%TO.N,GND*%
X56896000Y-40640000D03*
%TO.P,XA1,D7*%
%TO.N,/A18*%
X76200000Y-40640000D03*
%TO.P,XA1,D6*%
%TO.N,Net-(XA1-PadD6)*%
X78740000Y-40640000D03*
%TO.P,XA1,D5*%
%TO.N,Net-(XA1-PadD5)*%
X81280000Y-40640000D03*
%TO.P,XA1,D4*%
%TO.N,Net-(XA1-PadD4)*%
X83820000Y-40640000D03*
%TO.P,XA1,D3*%
%TO.N,Net-(XA1-PadD3)*%
X86360000Y-40640000D03*
%TO.P,XA1,D2*%
%TO.N,Net-(XA1-PadD2)*%
X88900000Y-40640000D03*
%TO.P,XA1,D1*%
%TO.N,Net-(XA1-PadD1)*%
X91440000Y-40640000D03*
%TO.P,XA1,D0*%
%TO.N,Net-(XA1-PadD0)*%
X93980000Y-40640000D03*
%TO.P,XA1,D14*%
%TO.N,Net-(XA1-PadD14)*%
X99060000Y-40640000D03*
%TO.P,XA1,D15*%
%TO.N,Net-(XA1-PadD15)*%
X101600000Y-40640000D03*
%TO.P,XA1,D16*%
%TO.N,Net-(XA1-PadD16)*%
X104140000Y-40640000D03*
%TO.P,XA1,D17*%
%TO.N,Net-(XA1-PadD17)*%
X106680000Y-40640000D03*
%TO.P,XA1,D18*%
%TO.N,/LED_RY*%
X109220000Y-40640000D03*
%TO.P,XA1,D19*%
%TO.N,/LED_BY*%
X111760000Y-40640000D03*
%TO.P,XA1,D20*%
%TO.N,Net-(XA1-PadD20)*%
X114300000Y-40640000D03*
%TO.P,XA1,D21*%
%TO.N,Net-(XA1-PadD21)*%
X116840000Y-40640000D03*
%TO.P,XA1,IORF*%
%TO.N,Net-(XA1-PadIORF)*%
X60960000Y-88900000D03*
%TO.P,XA1,RST1*%
%TO.N,Net-(SW1-Pad1)*%
X63500000Y-88900000D03*
%TO.P,XA1,3V3*%
%TO.N,Net-(XA1-Pad3V3)*%
X66040000Y-88900000D03*
%TO.P,XA1,5V1*%
%TO.N,+5V*%
X68580000Y-88900000D03*
%TO.P,XA1,GND2*%
%TO.N,GND*%
X71120000Y-88900000D03*
%TO.P,XA1,GND3*%
X73660000Y-88900000D03*
%TO.P,XA1,VIN*%
%TO.N,Net-(XA1-PadVIN)*%
X76200000Y-88900000D03*
%TO.P,XA1,A0*%
%TO.N,Net-(XA1-PadA0)*%
X81280000Y-88900000D03*
%TD*%
D11*
%TO.P,J2,3*%
%TO.N,GND*%
X127000000Y-30480000D03*
%TO.P,J2,2*%
%TO.N,Net-(J2-Pad2)*%
X129540000Y-30480000D03*
%TO.P,J2,1*%
%TO.N,+5V*%
%TA.AperFunction,ComponentPad*%
G36*
G01*
X132950000Y-29634999D02*
X132950000Y-31325001D01*
G75*
G02*
X132700001Y-31575000I-249999J0D01*
G01*
X131459999Y-31575000D01*
G75*
G02*
X131210000Y-31325001I0J249999D01*
G01*
X131210000Y-29634999D01*
G75*
G02*
X131459999Y-29385000I249999J0D01*
G01*
X132700001Y-29385000D01*
G75*
G02*
X132950000Y-29634999I0J-249999D01*
G01*
G37*
%TD.AperFunction*%
%TD*%
D12*
%TO.P,J1,1*%
%TO.N,+5V*%
X139700000Y-40250000D03*
%TO.P,J1,2*%
%TO.N,/CLK*%
X141200000Y-41750000D03*
%TO.P,J1,3*%
%TO.N,/CRT_WR_N*%
X139700000Y-43250000D03*
%TO.P,J1,4*%
%TO.N,/CRT_RD_N*%
X141200000Y-44750000D03*
%TO.P,J1,5*%
%TO.N,/CRT_CS_N*%
X139700000Y-46250000D03*
%TO.P,J1,6*%
%TO.N,/A0*%
X141200000Y-47750000D03*
%TO.P,J1,7*%
%TO.N,/A1*%
X139700000Y-49250000D03*
%TO.P,J1,8*%
%TO.N,/A2*%
X141200000Y-50750000D03*
%TO.P,J1,9*%
%TO.N,/A3*%
X139700000Y-52250000D03*
%TO.P,J1,10*%
%TO.N,/A4*%
X141200000Y-53750000D03*
%TO.P,J1,11*%
%TO.N,/A5*%
X139700000Y-55250000D03*
%TO.P,J1,12*%
%TO.N,/A6*%
X141200000Y-56750000D03*
%TO.P,J1,13*%
%TO.N,/A7*%
X139700000Y-58250000D03*
%TO.P,J1,14*%
%TO.N,/A8*%
X141200000Y-59750000D03*
%TO.P,J1,15*%
%TO.N,/A9*%
X139700000Y-61250000D03*
%TO.P,J1,16*%
%TO.N,/A10*%
X141200000Y-62750000D03*
%TO.P,J1,17*%
%TO.N,/A11*%
X139700000Y-64250000D03*
%TO.P,J1,18*%
%TO.N,/A12*%
X141200000Y-65750000D03*
%TO.P,J1,19*%
%TO.N,/A13*%
X139700000Y-67250000D03*
%TO.P,J1,20*%
%TO.N,/A14*%
X141200000Y-68750000D03*
%TO.P,J1,21*%
%TO.N,/A15*%
X139700000Y-70250000D03*
%TO.P,J1,22*%
%TO.N,/D0*%
X141200000Y-71750000D03*
%TO.P,J1,23*%
%TO.N,/D1*%
X139700000Y-73250000D03*
%TO.P,J1,24*%
%TO.N,/D2*%
X141200000Y-74750000D03*
%TO.P,J1,25*%
%TO.N,/D3*%
X139700000Y-76250000D03*
%TO.P,J1,26*%
%TO.N,/D4*%
X141200000Y-77750000D03*
%TO.P,J1,27*%
%TO.N,/D5*%
X139700000Y-79250000D03*
%TO.P,J1,28*%
%TO.N,/D6*%
X141200000Y-80750000D03*
%TO.P,J1,29*%
%TO.N,/D7*%
X139700000Y-82250000D03*
%TO.P,J1,30*%
%TO.N,/RST_N*%
X141200000Y-83750000D03*
%TO.P,J1,31*%
%TO.N,/CRT_PG_N*%
X139700000Y-85250000D03*
%TO.P,J1,32*%
%TO.N,GND*%
X141200000Y-86750000D03*
%TD*%
D13*
%TO.P,R6,2*%
%TO.N,/RST_N*%
X116840000Y-81280000D03*
D12*
%TO.P,R6,1*%
%TO.N,+5V*%
X106680000Y-81280000D03*
%TD*%
D13*
%TO.P,R5,2*%
%TO.N,/DIP_WE_N*%
X82550000Y-81280000D03*
D12*
%TO.P,R5,1*%
%TO.N,+5V*%
X72390000Y-81280000D03*
%TD*%
D13*
%TO.P,R4,2*%
%TO.N,/DIP_CE_N*%
X59055000Y-85090000D03*
D12*
%TO.P,R4,1*%
%TO.N,+5V*%
X69215000Y-85090000D03*
%TD*%
D13*
%TO.P,R3,2*%
%TO.N,/DIP_OE_N*%
X82550000Y-85090000D03*
D12*
%TO.P,R3,1*%
%TO.N,+5V*%
X72390000Y-85090000D03*
%TD*%
D13*
%TO.P,R2,2*%
%TO.N,GND*%
X92710000Y-46990000D03*
D12*
%TO.P,R2,1*%
%TO.N,Net-(D2-Pad1)*%
X102870000Y-46990000D03*
%TD*%
D13*
%TO.P,R1,2*%
%TO.N,GND*%
X92710000Y-43815000D03*
D12*
%TO.P,R1,1*%
%TO.N,Net-(D1-Pad1)*%
X102870000Y-43815000D03*
%TD*%
D14*
%TO.P,D2,2*%
%TO.N,/LED_BY*%
X116840000Y-45720000D03*
D15*
%TO.P,D2,1*%
%TO.N,Net-(D2-Pad1)*%
X114300000Y-45720000D03*
%TD*%
D14*
%TO.P,D1,2*%
%TO.N,/LED_RY*%
X109220000Y-45720000D03*
D15*
%TO.P,D1,1*%
%TO.N,Net-(D1-Pad1)*%
X106680000Y-45720000D03*
%TD*%
D16*
%TO.P,U1,17*%
%TO.N,/D3*%
X50800000Y-71120000D03*
%TO.P,U1,16*%
%TO.N,GND*%
X50800000Y-55880000D03*
%TO.P,U1,18*%
%TO.N,/D4*%
X53340000Y-71120000D03*
%TO.P,U1,15*%
%TO.N,/D2*%
X53340000Y-55880000D03*
%TO.P,U1,19*%
%TO.N,/D5*%
X55880000Y-71120000D03*
%TO.P,U1,14*%
%TO.N,/D1*%
X55880000Y-55880000D03*
%TO.P,U1,20*%
%TO.N,/D6*%
X58420000Y-71120000D03*
%TO.P,U1,13*%
%TO.N,/D0*%
X58420000Y-55880000D03*
%TO.P,U1,21*%
%TO.N,/D7*%
X60960000Y-71120000D03*
%TO.P,U1,12*%
%TO.N,/A0*%
X60960000Y-55880000D03*
%TO.P,U1,22*%
%TO.N,/DIP_CE_N*%
X63500000Y-71120000D03*
%TO.P,U1,11*%
%TO.N,/A1*%
X63500000Y-55880000D03*
%TO.P,U1,23*%
%TO.N,/A10*%
X66040000Y-71120000D03*
%TO.P,U1,10*%
%TO.N,/A2*%
X66040000Y-55880000D03*
%TO.P,U1,24*%
%TO.N,/DIP_OE_N*%
X68580000Y-71120000D03*
%TO.P,U1,9*%
%TO.N,/A3*%
X68580000Y-55880000D03*
%TO.P,U1,25*%
%TO.N,/A11*%
X71120000Y-71120000D03*
%TO.P,U1,8*%
%TO.N,/A4*%
X71120000Y-55880000D03*
%TO.P,U1,26*%
%TO.N,/A9*%
X73660000Y-71120000D03*
%TO.P,U1,7*%
%TO.N,/A5*%
X73660000Y-55880000D03*
%TO.P,U1,27*%
%TO.N,/A8*%
X76200000Y-71120000D03*
%TO.P,U1,6*%
%TO.N,/A6*%
X76200000Y-55880000D03*
%TO.P,U1,28*%
%TO.N,/A13*%
X78740000Y-71120000D03*
%TO.P,U1,5*%
%TO.N,/A7*%
X78740000Y-55880000D03*
%TO.P,U1,29*%
%TO.N,/A14*%
X81280000Y-71120000D03*
%TO.P,U1,4*%
%TO.N,/A12*%
X81280000Y-55880000D03*
%TO.P,U1,30*%
%TO.N,/A17*%
X83820000Y-71120000D03*
%TO.P,U1,3*%
%TO.N,/A15*%
X83820000Y-55880000D03*
%TO.P,U1,31*%
%TO.N,/DIP_WE_N*%
X86360000Y-71120000D03*
%TO.P,U1,2*%
%TO.N,/A16*%
X86360000Y-55880000D03*
%TO.P,U1,32*%
%TO.N,+5V*%
X88900000Y-71120000D03*
D17*
%TO.P,U1,1*%
%TO.N,/A18*%
X88900000Y-55880000D03*
%TD*%
D18*
%TO.P,SW1,1*%
%TO.N,Net-(SW1-Pad1)*%
X55245000Y-88415000D03*
%TO.P,SW1,2*%
%TO.N,GND*%
X50745000Y-88415000D03*
%TO.P,SW1,1*%
%TO.N,Net-(SW1-Pad1)*%
X55245000Y-81915000D03*
%TO.P,SW1,2*%
%TO.N,GND*%
X50745000Y-81915000D03*
%TD*%
D12*
%TO.P,C1,2*%
%TO.N,+5V*%
X88900000Y-77510000D03*
D19*
%TO.P,C1,1*%
%TO.N,GND*%
X88900000Y-80010000D03*
%TD*%
D20*
%TO.N,+5V*%
X79375000Y-83185000D03*
%TO.N,GND*%
X43180000Y-36830000D03*
X45720000Y-36830000D03*
X48260000Y-36830000D03*
X50800000Y-36830000D03*
X53340000Y-36830000D03*
X83820000Y-36830000D03*
X86360000Y-36830000D03*
X88900000Y-36830000D03*
X91440000Y-36830000D03*
X93980000Y-36830000D03*
X96520000Y-36830000D03*
X99060000Y-36830000D03*
X101600000Y-36830000D03*
X104140000Y-36830000D03*
X106680000Y-36830000D03*
X109220000Y-36830000D03*
X111760000Y-36830000D03*
X114300000Y-36830000D03*
X116840000Y-36830000D03*
X119380000Y-36830000D03*
X121920000Y-36830000D03*
X48260000Y-92710000D03*
X50800000Y-92710000D03*
X53340000Y-92710000D03*
X55880000Y-92710000D03*
X58420000Y-92710000D03*
X60960000Y-92710000D03*
X63500000Y-92710000D03*
X66040000Y-92710000D03*
X68580000Y-92710000D03*
X71120000Y-92710000D03*
X73660000Y-92710000D03*
X76200000Y-92710000D03*
X78740000Y-92710000D03*
X81280000Y-92710000D03*
X83820000Y-92710000D03*
X86360000Y-92710000D03*
X88900000Y-92710000D03*
X91440000Y-92710000D03*
X93980000Y-92710000D03*
X96520000Y-92710000D03*
X99060000Y-92710000D03*
X99060000Y-92710000D03*
X101600000Y-92710000D03*
X104140000Y-92710000D03*
X106680000Y-92710000D03*
X109220000Y-92710000D03*
X111760000Y-92710000D03*
X114300000Y-92710000D03*
X116840000Y-92710000D03*
X119380000Y-92710000D03*
X121920000Y-92710000D03*
X158750000Y-102870000D03*
X156210000Y-102870000D03*
X153670000Y-102870000D03*
X161290000Y-100330000D03*
X161290000Y-97790000D03*
X161290000Y-95250000D03*
X161290000Y-92710000D03*
X161290000Y-90170000D03*
X161290000Y-87630000D03*
X161290000Y-85090000D03*
X161290000Y-82550000D03*
X161290000Y-80010000D03*
X161290000Y-77470000D03*
X161290000Y-74930000D03*
X161290000Y-72390000D03*
X161290000Y-69850000D03*
X161290000Y-67310000D03*
X161290000Y-64770000D03*
X161290000Y-62230000D03*
X161290000Y-59690000D03*
X161290000Y-57150000D03*
X161290000Y-54610000D03*
X161290000Y-52070000D03*
X161290000Y-49530000D03*
X161290000Y-46990000D03*
X161290000Y-44450000D03*
X161290000Y-41910000D03*
X161290000Y-39370000D03*
X161290000Y-36830000D03*
X161290000Y-34290000D03*
X161290000Y-31750000D03*
X161290000Y-29210000D03*
X161290000Y-26670000D03*
X158750000Y-24130000D03*
X156210000Y-24130000D03*
X153670000Y-24130000D03*
X123190000Y-34290000D03*
X123190000Y-31750000D03*
X123190000Y-29210000D03*
X123190000Y-26670000D03*
X125730000Y-24130000D03*
X128270000Y-24130000D03*
X130810000Y-24130000D03*
X133350000Y-24130000D03*
X135890000Y-24130000D03*
X138430000Y-24130000D03*
X140970000Y-24130000D03*
X143510000Y-24130000D03*
X41910000Y-39370000D03*
X41910000Y-41910000D03*
X41910000Y-44450000D03*
X41910000Y-46990000D03*
X41910000Y-49530000D03*
X41910000Y-52070000D03*
X41910000Y-54610000D03*
X41910000Y-57150000D03*
X41910000Y-59690000D03*
X41910000Y-62230000D03*
X41910000Y-64770000D03*
X41910000Y-67310000D03*
X41910000Y-69850000D03*
X41910000Y-72390000D03*
X41910000Y-74930000D03*
X55880000Y-36830000D03*
X58420000Y-36830000D03*
X60960000Y-36830000D03*
X63500000Y-36830000D03*
X66040000Y-36830000D03*
X68580000Y-36830000D03*
X71120000Y-36830000D03*
X73660000Y-36830000D03*
X76200000Y-36830000D03*
X78740000Y-36830000D03*
X81280000Y-36830000D03*
X123190000Y-95250000D03*
X123190000Y-97790000D03*
X123190000Y-100330000D03*
X125730000Y-102870000D03*
X128270000Y-102870000D03*
X130810000Y-102870000D03*
X133350000Y-102870000D03*
X135890000Y-102870000D03*
X138430000Y-102870000D03*
X140970000Y-102870000D03*
X143510000Y-102870000D03*
X146050000Y-102870000D03*
X151765000Y-67310000D03*
X151765000Y-69850000D03*
X151765000Y-72390000D03*
X151765000Y-74930000D03*
X151765000Y-77470000D03*
X151765000Y-80010000D03*
X151765000Y-82550000D03*
X151765000Y-85090000D03*
X151765000Y-87630000D03*
X151765000Y-64770000D03*
X151765000Y-62230000D03*
X151765000Y-59690000D03*
X151765000Y-57150000D03*
X151765000Y-54610000D03*
X151765000Y-52070000D03*
X151765000Y-49530000D03*
X151765000Y-46990000D03*
X151765000Y-44450000D03*
X151765000Y-41910000D03*
X151765000Y-39370000D03*
X44450000Y-76200000D03*
X48260000Y-78740000D03*
X48260000Y-85090000D03*
X48260000Y-90170000D03*
X48260000Y-81915000D03*
X48260000Y-87630000D03*
%TO.N,/A8*%
X76200000Y-63500000D03*
%TO.N,/A9*%
X73660000Y-62230000D03*
%TO.N,/A10*%
X66040000Y-67310000D03*
%TO.N,/A11*%
X71120000Y-67310000D03*
%TO.N,/A12*%
X81280000Y-63500000D03*
%TO.N,/A13*%
X78740000Y-67310000D03*
%TO.N,/A14*%
X81280000Y-67310000D03*
%TO.N,/A15*%
X83820000Y-67310000D03*
%TO.N,/D3*%
X50800000Y-76200000D03*
%TO.N,/D4*%
X53340000Y-77470000D03*
%TO.N,/D5*%
X55880000Y-78740000D03*
%TO.N,/D6*%
X58420000Y-80010000D03*
%TO.N,/D7*%
X60960000Y-81280000D03*
%TO.N,/A16*%
X86360000Y-46990000D03*
%TO.N,/A18*%
X88900000Y-46990000D03*
%TO.N,/DIP_OE_N*%
X69215000Y-81915000D03*
%TO.N,/DIP_CE_N*%
X62230000Y-85090000D03*
%TD*%
D21*
%TO.N,+5V*%
X124460000Y-40640000D02*
X127000000Y-40640000D01*
X139310000Y-40640000D02*
X139700000Y-40250000D01*
X127000000Y-40640000D02*
X139310000Y-40640000D01*
X72390000Y-85090000D02*
X72390000Y-81280000D01*
X69215000Y-85090000D02*
X72390000Y-85090000D01*
X77470000Y-81280000D02*
X79375000Y-83185000D01*
X72390000Y-81280000D02*
X77470000Y-81280000D01*
X79375000Y-83185000D02*
X79375000Y-83185000D01*
X84455000Y-86360000D02*
X98425000Y-86360000D01*
X83820000Y-86995000D02*
X84455000Y-86360000D01*
X80645000Y-86995000D02*
X83820000Y-86995000D01*
X79375000Y-85725000D02*
X80645000Y-86995000D01*
X79375000Y-83185000D02*
X79375000Y-85725000D01*
X68580000Y-85725000D02*
X69215000Y-85090000D01*
X68580000Y-88900000D02*
X68580000Y-85725000D01*
X127000000Y-40640000D02*
X127000000Y-38100000D01*
X132080000Y-33020000D02*
X132080000Y-30480000D01*
X127000000Y-38100000D02*
X132080000Y-33020000D01*
X100965000Y-83820000D02*
X100965000Y-81915000D01*
X101600000Y-81280000D02*
X106680000Y-81280000D01*
X100965000Y-81915000D02*
X101600000Y-81280000D01*
X100012500Y-84772500D02*
X100965000Y-83820000D01*
X98425000Y-86360000D02*
X100012500Y-84772500D01*
X104080010Y-91380010D02*
X122495010Y-91380010D01*
X144145000Y-90805000D02*
X147320000Y-93980000D01*
X131445000Y-93345000D02*
X133985000Y-90805000D01*
X133985000Y-90805000D02*
X144145000Y-90805000D01*
X124460000Y-93345000D02*
X131445000Y-93345000D01*
X147320000Y-93980000D02*
X149860000Y-93980000D01*
X151765000Y-92075000D02*
X151765000Y-90170000D01*
X151765000Y-90170000D02*
X149225000Y-87630000D01*
X149860000Y-93980000D02*
X151765000Y-92075000D01*
X149225000Y-41275000D02*
X148200000Y-40250000D01*
X148200000Y-40250000D02*
X139700000Y-40250000D01*
X122495010Y-91380010D02*
X124460000Y-93345000D01*
X149225000Y-87630000D02*
X149225000Y-41275000D01*
X102235000Y-89535000D02*
X104080010Y-91380010D01*
X102235000Y-86995000D02*
X102235000Y-89535000D01*
X100012500Y-84772500D02*
X102235000Y-86995000D01*
D22*
%TO.N,/CLK*%
X147320000Y-43180000D02*
X146050000Y-41910000D01*
X147320000Y-89535000D02*
X147320000Y-43180000D01*
X146685000Y-90170000D02*
X147320000Y-89535000D01*
X132080000Y-90170000D02*
X146685000Y-90170000D01*
X130175000Y-92075000D02*
X132080000Y-90170000D01*
X125730000Y-92075000D02*
X130175000Y-92075000D01*
X124460000Y-90805000D02*
X125730000Y-92075000D01*
X121285000Y-90805000D02*
X124460000Y-90805000D01*
X119380000Y-88900000D02*
X121285000Y-90805000D01*
X141360000Y-41910000D02*
X141200000Y-41750000D01*
X146050000Y-41910000D02*
X141360000Y-41910000D01*
%TO.N,/CRT_WR_N*%
X139770000Y-43180000D02*
X139700000Y-43250000D01*
X146050000Y-44450000D02*
X144780000Y-43180000D01*
X146050000Y-88900000D02*
X146050000Y-44450000D01*
X131445000Y-89535000D02*
X145415000Y-89535000D01*
X128270000Y-86360000D02*
X131445000Y-89535000D01*
X144780000Y-43180000D02*
X139770000Y-43180000D01*
X124460000Y-86360000D02*
X128270000Y-86360000D01*
X145415000Y-89535000D02*
X146050000Y-88900000D01*
X121920000Y-88900000D02*
X124460000Y-86360000D01*
%TO.N,/CRT_RD_N*%
X144780000Y-46355000D02*
X143175000Y-44750000D01*
X144780000Y-88265000D02*
X144780000Y-46355000D01*
X128270000Y-83185000D02*
X128270000Y-84455000D01*
X127635000Y-82550000D02*
X128270000Y-83185000D01*
X125730000Y-82550000D02*
X127635000Y-82550000D01*
X143175000Y-44750000D02*
X141200000Y-44750000D01*
X124460000Y-81280000D02*
X125730000Y-82550000D01*
X132715000Y-88900000D02*
X144145000Y-88900000D01*
X144145000Y-88900000D02*
X144780000Y-88265000D01*
X128270000Y-84455000D02*
X132715000Y-88900000D01*
%TO.N,/CRT_CS_N*%
X142770000Y-46250000D02*
X139700000Y-46250000D01*
X143510000Y-46990000D02*
X142770000Y-46250000D01*
X143510000Y-87630000D02*
X143510000Y-46990000D01*
X127000000Y-81280000D02*
X128270000Y-81280000D01*
X128270000Y-81280000D02*
X129540000Y-82550000D01*
X129540000Y-82550000D02*
X129540000Y-83820000D01*
X133985000Y-88265000D02*
X142875000Y-88265000D01*
X142875000Y-88265000D02*
X143510000Y-87630000D01*
X129540000Y-83820000D02*
X133985000Y-88265000D01*
%TO.N,/A0*%
X68580000Y-48260000D02*
X60960000Y-55880000D01*
X90805000Y-48260000D02*
X68580000Y-48260000D01*
X91440000Y-48895000D02*
X90805000Y-48260000D01*
X104140000Y-48895000D02*
X91440000Y-48895000D01*
X104775000Y-48260000D02*
X104140000Y-48895000D01*
X137795000Y-42545000D02*
X137160000Y-41910000D01*
X137795000Y-46990000D02*
X137795000Y-42545000D01*
X138555000Y-47750000D02*
X137795000Y-46990000D01*
X141200000Y-47750000D02*
X138555000Y-47750000D01*
X124460000Y-43180000D02*
X125095000Y-43180000D01*
X125095000Y-43180000D02*
X126365000Y-41910000D01*
X137160000Y-41910000D02*
X126365000Y-41910000D01*
X124460000Y-43180000D02*
X123190000Y-43180000D01*
X104775000Y-48260000D02*
X116840000Y-48260000D01*
X116840000Y-48260000D02*
X118110000Y-46990000D01*
X118110000Y-46990000D02*
X118110000Y-44450000D01*
X118110000Y-44450000D02*
X119380000Y-43180000D01*
X119380000Y-43180000D02*
X123190000Y-43180000D01*
%TO.N,/A1*%
X132080000Y-43180000D02*
X127000000Y-43180000D01*
X136525000Y-43180000D02*
X132080000Y-43180000D01*
X137160000Y-43815000D02*
X136525000Y-43180000D01*
X137160000Y-48260000D02*
X137160000Y-43815000D01*
X138150000Y-49250000D02*
X137160000Y-48260000D01*
X139700000Y-49250000D02*
X138150000Y-49250000D01*
X126365000Y-43180000D02*
X127000000Y-43180000D01*
X125095000Y-44450000D02*
X126365000Y-43180000D01*
X120015000Y-44450000D02*
X125095000Y-44450000D01*
X118745000Y-45720000D02*
X120015000Y-44450000D01*
X116206410Y-49530000D02*
X118745000Y-46991410D01*
X118745000Y-46991410D02*
X118745000Y-45720000D01*
X69850000Y-49530000D02*
X116206410Y-49530000D01*
X63500000Y-55880000D02*
X69850000Y-49530000D01*
%TO.N,/A2*%
X141150000Y-50800000D02*
X141200000Y-50750000D01*
X71755000Y-50165000D02*
X66040000Y-55880000D01*
X93345000Y-50165000D02*
X71755000Y-50165000D01*
X93980000Y-50800000D02*
X93345000Y-50165000D01*
X136525000Y-45085000D02*
X135890000Y-44450000D01*
X137745000Y-50750000D02*
X136525000Y-49530000D01*
X136525000Y-49530000D02*
X136525000Y-45085000D01*
X141200000Y-50750000D02*
X137745000Y-50750000D01*
X124460000Y-45720000D02*
X125095000Y-45720000D01*
X125095000Y-45720000D02*
X126365000Y-44450000D01*
X135890000Y-44450000D02*
X126365000Y-44450000D01*
X124460000Y-45720000D02*
X123190000Y-45720000D01*
X93980000Y-50800000D02*
X116205000Y-50800000D01*
X116205000Y-50800000D02*
X121285000Y-45720000D01*
X121285000Y-45720000D02*
X123190000Y-45720000D01*
%TO.N,/A3*%
X139685000Y-52235000D02*
X139700000Y-52250000D01*
X130810000Y-45720000D02*
X127000000Y-45720000D01*
X135255000Y-45720000D02*
X130810000Y-45720000D01*
X135890000Y-46355000D02*
X135255000Y-45720000D01*
X135890000Y-50800000D02*
X135890000Y-46355000D01*
X137340000Y-52250000D02*
X135890000Y-50800000D01*
X139700000Y-52250000D02*
X137340000Y-52250000D01*
X92710000Y-50800000D02*
X73660000Y-50800000D01*
X93980000Y-52070000D02*
X92710000Y-50800000D01*
X116205000Y-52070000D02*
X93980000Y-52070000D01*
X121285000Y-46990000D02*
X116205000Y-52070000D01*
X73660000Y-50800000D02*
X68580000Y-55880000D01*
X125095000Y-46990000D02*
X121285000Y-46990000D01*
X126365000Y-45720000D02*
X125095000Y-46990000D01*
X127000000Y-45720000D02*
X126365000Y-45720000D01*
%TO.N,/A4*%
X141195000Y-53745000D02*
X141200000Y-53750000D01*
X135255000Y-47625000D02*
X134620000Y-46990000D01*
X135255000Y-52070000D02*
X135255000Y-47625000D01*
X136935000Y-53750000D02*
X135255000Y-52070000D01*
X141200000Y-53750000D02*
X136935000Y-53750000D01*
X124460000Y-48260000D02*
X125095000Y-48260000D01*
X125095000Y-48260000D02*
X126365000Y-46990000D01*
X134620000Y-46990000D02*
X126365000Y-46990000D01*
X92075000Y-51435000D02*
X75565000Y-51435000D01*
X93980000Y-53340000D02*
X92075000Y-51435000D01*
X116205000Y-53340000D02*
X93980000Y-53340000D01*
X75565000Y-51435000D02*
X71120000Y-55880000D01*
X121285000Y-48260000D02*
X116205000Y-53340000D01*
X124460000Y-48260000D02*
X121285000Y-48260000D01*
%TO.N,/A5*%
X127000000Y-48260000D02*
X126365000Y-48260000D01*
X139695000Y-55255000D02*
X139700000Y-55250000D01*
X77470000Y-52070000D02*
X73660000Y-55880000D01*
X91440000Y-52070000D02*
X77470000Y-52070000D01*
X93980000Y-54610000D02*
X91440000Y-52070000D01*
X129540000Y-48260000D02*
X127000000Y-48260000D01*
X133985000Y-48260000D02*
X129540000Y-48260000D01*
X134620000Y-48895000D02*
X133985000Y-48260000D01*
X134620000Y-53340000D02*
X134620000Y-48895000D01*
X136530000Y-55250000D02*
X134620000Y-53340000D01*
X139700000Y-55250000D02*
X136530000Y-55250000D01*
X126365000Y-48260000D02*
X125095000Y-49530000D01*
X125095000Y-49530000D02*
X123190000Y-49530000D01*
X123190000Y-49530000D02*
X121285000Y-49530000D01*
X121285000Y-49530000D02*
X116205000Y-54610000D01*
X116205000Y-54610000D02*
X93980000Y-54610000D01*
%TO.N,/A6*%
X141185000Y-56765000D02*
X141200000Y-56750000D01*
X76200000Y-55880000D02*
X76200000Y-55245000D01*
X133985000Y-50165000D02*
X133985000Y-54610000D01*
X133350000Y-49530000D02*
X133985000Y-50165000D01*
X133985000Y-54610000D02*
X136125000Y-56750000D01*
X126365000Y-49530000D02*
X133350000Y-49530000D01*
X136125000Y-56750000D02*
X141200000Y-56750000D01*
X125095000Y-50800000D02*
X126365000Y-49530000D01*
X124460000Y-50800000D02*
X125095000Y-50800000D01*
X79375000Y-52705000D02*
X76200000Y-55880000D01*
X90805000Y-52705000D02*
X79375000Y-52705000D01*
X93980000Y-55880000D02*
X90805000Y-52705000D01*
X116205000Y-55880000D02*
X93980000Y-55880000D01*
X121285000Y-50800000D02*
X116205000Y-55880000D01*
X124460000Y-50800000D02*
X121285000Y-50800000D01*
%TO.N,/A7*%
X139665000Y-58285000D02*
X139700000Y-58250000D01*
X127000000Y-50800000D02*
X128270000Y-50800000D01*
X135720000Y-58250000D02*
X139700000Y-58250000D01*
X133350000Y-55880000D02*
X133350000Y-51435000D01*
X133350000Y-55880000D02*
X135720000Y-58250000D01*
X133350000Y-51435000D02*
X132715000Y-50800000D01*
X132715000Y-50800000D02*
X128270000Y-50800000D01*
X90170000Y-53340000D02*
X80645000Y-53340000D01*
X80645000Y-53340000D02*
X78740000Y-55245000D01*
X93980000Y-57150000D02*
X90170000Y-53340000D01*
X116205000Y-57150000D02*
X93980000Y-57150000D01*
X121285000Y-52070000D02*
X116205000Y-57150000D01*
X125093590Y-52070000D02*
X121285000Y-52070000D01*
X125543599Y-51619991D02*
X125093590Y-52070000D01*
X78740000Y-55245000D02*
X78740000Y-55880000D01*
X125545010Y-51619990D02*
X125543599Y-51619991D01*
X126365000Y-50800000D02*
X125545010Y-51619990D01*
X127000000Y-50800000D02*
X126365000Y-50800000D01*
%TO.N,/A8*%
X124460000Y-53340000D02*
X125095000Y-53340000D01*
X141140000Y-59690000D02*
X141200000Y-59750000D01*
X73025000Y-63500000D02*
X74930000Y-63500000D01*
X72390000Y-62865000D02*
X73025000Y-63500000D01*
X72390000Y-60325000D02*
X72390000Y-62865000D01*
X74295000Y-58420000D02*
X72390000Y-60325000D01*
X74930000Y-63500000D02*
X76200000Y-63500000D01*
X132715000Y-56515000D02*
X135950000Y-59750000D01*
X132715000Y-52705000D02*
X132715000Y-56515000D01*
X132080000Y-52070000D02*
X132715000Y-52705000D01*
X135950000Y-59750000D02*
X141200000Y-59750000D01*
X125095000Y-53340000D02*
X126365000Y-52070000D01*
X126365000Y-52070000D02*
X132080000Y-52070000D01*
X124460000Y-53340000D02*
X123190000Y-53340000D01*
X123190000Y-53340000D02*
X121285000Y-53340000D01*
X121285000Y-53340000D02*
X120650000Y-53975000D01*
X120650000Y-53975000D02*
X116205000Y-58420000D01*
X116205000Y-58420000D02*
X77470000Y-58420000D01*
X77470000Y-58420000D02*
X74295000Y-58420000D01*
%TO.N,/A9*%
X139625000Y-61325000D02*
X139700000Y-61250000D01*
X136180000Y-61250000D02*
X139700000Y-61250000D01*
X132080000Y-57150000D02*
X136180000Y-61250000D01*
X132080000Y-53975000D02*
X132080000Y-57150000D01*
X131445000Y-53340000D02*
X132080000Y-53975000D01*
X127000000Y-53340000D02*
X131445000Y-53340000D01*
X73660000Y-60325000D02*
X73660000Y-62230000D01*
X74295000Y-59690000D02*
X73660000Y-60325000D01*
X116205000Y-59690000D02*
X74295000Y-59690000D01*
X121285000Y-54610000D02*
X116205000Y-59690000D01*
X125095000Y-54610000D02*
X121285000Y-54610000D01*
X126365000Y-53340000D02*
X125095000Y-54610000D01*
X127000000Y-53340000D02*
X126365000Y-53340000D01*
%TO.N,/A10*%
X124460000Y-55880000D02*
X125095000Y-55880000D01*
X141115000Y-62835000D02*
X141200000Y-62750000D01*
X66040000Y-67310000D02*
X66040000Y-67310000D01*
X136410000Y-62750000D02*
X141200000Y-62750000D01*
X131445000Y-57785000D02*
X136410000Y-62750000D01*
X131445000Y-55245000D02*
X131445000Y-57785000D01*
X130810000Y-54610000D02*
X131445000Y-55245000D01*
X125095000Y-55880000D02*
X126365000Y-54610000D01*
X126365000Y-54610000D02*
X130810000Y-54610000D01*
X66040000Y-66040000D02*
X66040000Y-67310000D01*
X67310000Y-64770000D02*
X66040000Y-66040000D01*
X76835000Y-64770000D02*
X67310000Y-64770000D01*
X80645000Y-60960000D02*
X76835000Y-64770000D01*
X116205000Y-60960000D02*
X80645000Y-60960000D01*
X121285000Y-55880000D02*
X116205000Y-60960000D01*
X124460000Y-55880000D02*
X121285000Y-55880000D01*
%TO.N,/A11*%
X127000000Y-55880000D02*
X126365000Y-55880000D01*
X139670000Y-64220000D02*
X139700000Y-64250000D01*
X71120000Y-67310000D02*
X71120000Y-67310000D01*
X71755000Y-66040000D02*
X77470000Y-66040000D01*
X71120000Y-66675000D02*
X71755000Y-66040000D01*
X77470000Y-66040000D02*
X81280000Y-62230000D01*
X71120000Y-67310000D02*
X71120000Y-66675000D01*
X136640000Y-64250000D02*
X139700000Y-64250000D01*
X130810000Y-58420000D02*
X136640000Y-64250000D01*
X130810000Y-56515000D02*
X130810000Y-58420000D01*
X130175000Y-55880000D02*
X130810000Y-56515000D01*
X127000000Y-55880000D02*
X130175000Y-55880000D01*
X126365000Y-55880000D02*
X125095000Y-57150000D01*
X125095000Y-57150000D02*
X123190000Y-57150000D01*
X123190000Y-57150000D02*
X121285000Y-57150000D01*
X121285000Y-57150000D02*
X116205000Y-62230000D01*
X116205000Y-62230000D02*
X81280000Y-62230000D01*
%TO.N,/A12*%
X124460000Y-58420000D02*
X125095000Y-58420000D01*
X141180000Y-65730000D02*
X141200000Y-65750000D01*
X81280000Y-63500000D02*
X81280000Y-63500000D01*
X130175000Y-59055000D02*
X136870000Y-65750000D01*
X129540000Y-57150000D02*
X130175000Y-57785000D01*
X136870000Y-65750000D02*
X141200000Y-65750000D01*
X130175000Y-57785000D02*
X130175000Y-59055000D01*
X125095000Y-58420000D02*
X126365000Y-57150000D01*
X126365000Y-57150000D02*
X129540000Y-57150000D01*
X81280000Y-55880000D02*
X81280000Y-55245000D01*
X116205000Y-63500000D02*
X81280000Y-63500000D01*
X121285000Y-58420000D02*
X116205000Y-63500000D01*
X124460000Y-58420000D02*
X121285000Y-58420000D01*
%TO.N,/A13*%
X127000000Y-58420000D02*
X126365000Y-58420000D01*
X139640000Y-67310000D02*
X139700000Y-67250000D01*
X78740000Y-67310000D02*
X78740000Y-67310000D01*
X78740000Y-66040000D02*
X80010000Y-64770000D01*
X78740000Y-67310000D02*
X78740000Y-66040000D01*
X137100000Y-67250000D02*
X139700000Y-67250000D01*
X128270000Y-58420000D02*
X137100000Y-67250000D01*
X127000000Y-58420000D02*
X128270000Y-58420000D01*
X126365000Y-58420000D02*
X125730000Y-59055000D01*
X125730000Y-59055000D02*
X125095000Y-59690000D01*
X125095000Y-59690000D02*
X123190000Y-59690000D01*
X123190000Y-59690000D02*
X121285000Y-59690000D01*
X121285000Y-59690000D02*
X116205000Y-64770000D01*
X116205000Y-64770000D02*
X80010000Y-64770000D01*
%TO.N,/A14*%
X124460000Y-60960000D02*
X125095000Y-60960000D01*
X81280000Y-67310000D02*
X81280000Y-67310000D01*
X81280000Y-66675000D02*
X81915000Y-66040000D01*
X81280000Y-67310000D02*
X81280000Y-66675000D01*
X137330000Y-68750000D02*
X141200000Y-68750000D01*
X128270000Y-59690000D02*
X137330000Y-68750000D01*
X125095000Y-60960000D02*
X126365000Y-59690000D01*
X126365000Y-59690000D02*
X128270000Y-59690000D01*
X124460000Y-60960000D02*
X123190000Y-60960000D01*
X123190000Y-60960000D02*
X121285000Y-60960000D01*
X121285000Y-60960000D02*
X116205000Y-66040000D01*
X116205000Y-66040000D02*
X113665000Y-66040000D01*
X113665000Y-66040000D02*
X81915000Y-66040000D01*
%TO.N,/A15*%
X126365000Y-60960000D02*
X127000000Y-60960000D01*
X139690000Y-70260000D02*
X139700000Y-70250000D01*
X92710000Y-67310000D02*
X83820000Y-67310000D01*
X83820000Y-67310000D02*
X83820000Y-67310000D01*
X137560000Y-70250000D02*
X139700000Y-70250000D01*
X128270000Y-60960000D02*
X137560000Y-70250000D01*
X127000000Y-60960000D02*
X128270000Y-60960000D01*
X126365000Y-60960000D02*
X125730000Y-61595000D01*
X125730000Y-61595000D02*
X125095000Y-62230000D01*
X125095000Y-62230000D02*
X123190000Y-62230000D01*
X123190000Y-62230000D02*
X121285000Y-62230000D01*
X121285000Y-62230000D02*
X116205000Y-67310000D01*
X116205000Y-67310000D02*
X92710000Y-67310000D01*
%TO.N,/D0*%
X141180000Y-71770000D02*
X141200000Y-71750000D01*
X124460000Y-68580000D02*
X125095000Y-68580000D01*
X58420000Y-66675000D02*
X60325000Y-68580000D01*
X58420000Y-66675000D02*
X58420000Y-55880000D01*
X137155000Y-71750000D02*
X141200000Y-71750000D01*
X132715000Y-67310000D02*
X137155000Y-71750000D01*
X125095000Y-68580000D02*
X126365000Y-67310000D01*
X126365000Y-67310000D02*
X132715000Y-67310000D01*
X60325000Y-68580000D02*
X124460000Y-68580000D01*
%TO.N,/D1*%
X139480000Y-73030000D02*
X139700000Y-73250000D01*
X126365000Y-68580000D02*
X127000000Y-68580000D01*
X91440000Y-70485000D02*
X92075000Y-69850000D01*
X91440000Y-72390000D02*
X91440000Y-70485000D01*
X90170000Y-73660000D02*
X91440000Y-72390000D01*
X53975000Y-68580000D02*
X50165000Y-68580000D01*
X55880000Y-66675000D02*
X53975000Y-68580000D01*
X55880000Y-55880000D02*
X55880000Y-66675000D01*
X50165000Y-73660000D02*
X48895000Y-72390000D01*
X50165000Y-73660000D02*
X90170000Y-73660000D01*
X48895000Y-72390000D02*
X48895000Y-69850000D01*
X50165000Y-68580000D02*
X48895000Y-69850000D01*
X132080000Y-68580000D02*
X136750000Y-73250000D01*
X136750000Y-73250000D02*
X139700000Y-73250000D01*
X127000000Y-68580000D02*
X132080000Y-68580000D01*
X126365000Y-68580000D02*
X125095000Y-69850000D01*
X125095000Y-69850000D02*
X92075000Y-69850000D01*
%TO.N,/D2*%
X141160000Y-74790000D02*
X141200000Y-74750000D01*
X124460000Y-71120000D02*
X125095000Y-71120000D01*
X52070000Y-67310000D02*
X53340000Y-66040000D01*
X53340000Y-66040000D02*
X53340000Y-55880000D01*
X47625000Y-69850000D02*
X50165000Y-67310000D01*
X47625000Y-73025000D02*
X47625000Y-69850000D01*
X49530000Y-74930000D02*
X47625000Y-73025000D01*
X50165000Y-67310000D02*
X52070000Y-67310000D01*
X92710000Y-73025000D02*
X90805000Y-74930000D01*
X92710000Y-71755000D02*
X92710000Y-73025000D01*
X90805000Y-74930000D02*
X49530000Y-74930000D01*
X93345000Y-71120000D02*
X92710000Y-71755000D01*
X136345000Y-74750000D02*
X141200000Y-74750000D01*
X131445000Y-69850000D02*
X136345000Y-74750000D01*
X125095000Y-71120000D02*
X126365000Y-69850000D01*
X126365000Y-69850000D02*
X131445000Y-69850000D01*
X124460000Y-71120000D02*
X93345000Y-71120000D01*
%TO.N,/D3*%
X139650000Y-76200000D02*
X139700000Y-76250000D01*
X50800000Y-76200000D02*
X50800000Y-76200000D01*
X126365000Y-71120000D02*
X127000000Y-71120000D01*
X90805000Y-76200000D02*
X94615000Y-72390000D01*
X50800000Y-76200000D02*
X90805000Y-76200000D01*
X127000000Y-71120000D02*
X130810000Y-71120000D01*
X135940000Y-76250000D02*
X139700000Y-76250000D01*
X130810000Y-71120000D02*
X135940000Y-76250000D01*
X125095000Y-72390000D02*
X94615000Y-72390000D01*
X126365000Y-71120000D02*
X125095000Y-72390000D01*
%TO.N,/D4*%
X141140000Y-77810000D02*
X141200000Y-77750000D01*
X124460000Y-73660000D02*
X125095000Y-73660000D01*
X53340000Y-77470000D02*
X53340000Y-77470000D01*
X92075000Y-76835000D02*
X95250000Y-73660000D01*
X92075000Y-79375000D02*
X92075000Y-76835000D01*
X86995000Y-81280000D02*
X90170000Y-81280000D01*
X86360000Y-80645000D02*
X86995000Y-81280000D01*
X86360000Y-77470000D02*
X86360000Y-80645000D01*
X90170000Y-81280000D02*
X92075000Y-79375000D01*
X85725000Y-76835000D02*
X86360000Y-77470000D01*
X67310000Y-77470000D02*
X67945000Y-76835000D01*
X67945000Y-76835000D02*
X85725000Y-76835000D01*
X53340000Y-77470000D02*
X67310000Y-77470000D01*
X135535000Y-77750000D02*
X141200000Y-77750000D01*
X130175000Y-72390000D02*
X135535000Y-77750000D01*
X125095000Y-73660000D02*
X126365000Y-72390000D01*
X126365000Y-72390000D02*
X130175000Y-72390000D01*
X124460000Y-73660000D02*
X95250000Y-73660000D01*
%TO.N,/D5*%
X139669343Y-79219343D02*
X139700000Y-79250000D01*
X55880000Y-78740000D02*
X55880000Y-78740000D01*
X93345000Y-76835000D02*
X95250000Y-74930000D01*
X55880000Y-78740000D02*
X67310000Y-78740000D01*
X67310000Y-78740000D02*
X68580000Y-77470000D01*
X92710705Y-80009295D02*
X93345000Y-79375000D01*
X68580000Y-77470000D02*
X84455000Y-77470000D01*
X84455000Y-77470000D02*
X85725000Y-78740000D01*
X126365000Y-73660000D02*
X127000000Y-73660000D01*
X85725000Y-78740000D02*
X85725000Y-81280000D01*
X86995000Y-82550000D02*
X90170000Y-82550000D01*
X90170000Y-82550000D02*
X90354990Y-82365010D01*
X90354990Y-82365010D02*
X90356401Y-82365009D01*
X90356401Y-82365009D02*
X92710705Y-80010705D01*
X92710705Y-80010705D02*
X92710705Y-80009295D01*
X85725000Y-81280000D02*
X86995000Y-82550000D01*
X93345000Y-79375000D02*
X93345000Y-76835000D01*
X127000000Y-73660000D02*
X129540000Y-73660000D01*
X135130000Y-79250000D02*
X139700000Y-79250000D01*
X129540000Y-73660000D02*
X135130000Y-79250000D01*
X126365000Y-73660000D02*
X125730000Y-74295000D01*
X125730000Y-74295000D02*
X125095000Y-74930000D01*
X125095000Y-74930000D02*
X95250000Y-74930000D01*
%TO.N,/D6*%
X141120000Y-80830000D02*
X141200000Y-80750000D01*
X124460000Y-76200000D02*
X125095000Y-76200000D01*
X58420000Y-80010000D02*
X58420000Y-80010000D01*
X94615000Y-76835000D02*
X95250000Y-76200000D01*
X94615000Y-80010000D02*
X94615000Y-76835000D01*
X90805000Y-83820000D02*
X94615000Y-80010000D01*
X86995000Y-83820000D02*
X90805000Y-83820000D01*
X85090000Y-81915000D02*
X86995000Y-83820000D01*
X85090000Y-79375000D02*
X85090000Y-81915000D01*
X83820000Y-78105000D02*
X85090000Y-79375000D01*
X67310000Y-80010000D02*
X69215000Y-78105000D01*
X69215000Y-78105000D02*
X83820000Y-78105000D01*
X58420000Y-80010000D02*
X67310000Y-80010000D01*
X134725000Y-80750000D02*
X141200000Y-80750000D01*
X128905000Y-74930000D02*
X134725000Y-80750000D01*
X125095000Y-76200000D02*
X126365000Y-74930000D01*
X126365000Y-74930000D02*
X128905000Y-74930000D01*
X124460000Y-76200000D02*
X95250000Y-76200000D01*
%TO.N,/D7*%
X139665000Y-82215000D02*
X139700000Y-82250000D01*
X60960000Y-81280000D02*
X60960000Y-81280000D01*
X126365000Y-76200000D02*
X127000000Y-76200000D01*
X60960000Y-81280000D02*
X67310000Y-81280000D01*
X67310000Y-81280000D02*
X69850000Y-78740000D01*
X69850000Y-78740000D02*
X83185000Y-78740000D01*
X83185000Y-78740000D02*
X84455000Y-80010000D01*
X84455000Y-80010000D02*
X84455000Y-82550000D01*
X84455000Y-82550000D02*
X86995000Y-85090000D01*
X86995000Y-85090000D02*
X90805000Y-85090000D01*
X90805000Y-85090000D02*
X95885000Y-80010000D01*
X95885000Y-80010000D02*
X95885000Y-78105000D01*
X95885000Y-78105000D02*
X96520000Y-77470000D01*
X134320000Y-82250000D02*
X139700000Y-82250000D01*
X128270000Y-76200000D02*
X134320000Y-82250000D01*
X127000000Y-76200000D02*
X128270000Y-76200000D01*
X126365000Y-76200000D02*
X125095000Y-77470000D01*
X125095000Y-77470000D02*
X96520000Y-77470000D01*
%TO.N,/RST_N*%
X141130000Y-83820000D02*
X141200000Y-83750000D01*
X124460000Y-78740000D02*
X125095000Y-78740000D01*
X133769130Y-83750000D02*
X141200000Y-83750000D01*
X127489130Y-77470000D02*
X133769130Y-83750000D01*
X125095000Y-78740000D02*
X126365000Y-77470000D01*
X126365000Y-77470000D02*
X127489130Y-77470000D01*
X119380000Y-81280000D02*
X121920000Y-78740000D01*
X116840000Y-81280000D02*
X119380000Y-81280000D01*
X121920000Y-78740000D02*
X124460000Y-78740000D01*
%TO.N,/CRT_PG_N*%
X139540000Y-85090000D02*
X139700000Y-85250000D01*
X116840000Y-86360000D02*
X116840000Y-88900000D01*
X123190000Y-80010000D02*
X116840000Y-86360000D01*
X128270000Y-80010000D02*
X123190000Y-80010000D01*
X133510000Y-85250000D02*
X128270000Y-80010000D01*
X139700000Y-85250000D02*
X133510000Y-85250000D01*
%TO.N,Net-(SW1-Pad1)*%
X63500000Y-88900000D02*
X61595000Y-86995000D01*
X56665000Y-86995000D02*
X55245000Y-88415000D01*
X61595000Y-86995000D02*
X56665000Y-86995000D01*
%TO.N,/A17*%
X69850000Y-40894000D02*
X69596000Y-40640000D01*
X83820000Y-69850000D02*
X83820000Y-71120000D01*
X83185000Y-69215000D02*
X83820000Y-69850000D01*
X59055000Y-69215000D02*
X83185000Y-69215000D01*
X57150000Y-67310000D02*
X59055000Y-69215000D01*
X69596000Y-43434000D02*
X60325000Y-52705000D01*
X69596000Y-40640000D02*
X69596000Y-43434000D01*
X60325000Y-52705000D02*
X58420000Y-52705000D01*
X57150000Y-53975000D02*
X58420000Y-52705000D01*
X57150000Y-53975000D02*
X57150000Y-67310000D01*
%TO.N,/A16*%
X72390000Y-40894000D02*
X72136000Y-40640000D01*
X86360000Y-46990000D02*
X86360000Y-46355000D01*
X86360000Y-46355000D02*
X85725000Y-45720000D01*
X85725000Y-45720000D02*
X73025000Y-45720000D01*
X72136000Y-44831000D02*
X72136000Y-40640000D01*
X73025000Y-45720000D02*
X72136000Y-44831000D01*
%TO.N,/A18*%
X88900000Y-46990000D02*
X88900000Y-45720000D01*
X88900000Y-45720000D02*
X87630000Y-44450000D01*
X87630000Y-44450000D02*
X76835000Y-44450000D01*
X76200000Y-43815000D02*
X76200000Y-40640000D01*
X76835000Y-44450000D02*
X76200000Y-43815000D01*
%TO.N,/LED_RY*%
X109220000Y-45720000D02*
X109220000Y-40640000D01*
%TO.N,Net-(D1-Pad1)*%
X106680000Y-45720000D02*
X106680000Y-46355000D01*
X104775000Y-45720000D02*
X102870000Y-43815000D01*
X106680000Y-45720000D02*
X104775000Y-45720000D01*
%TO.N,/LED_BY*%
X116840000Y-43688000D02*
X116840000Y-45720000D01*
X116332000Y-43180000D02*
X116840000Y-43688000D01*
X112268000Y-43180000D02*
X116332000Y-43180000D01*
X111760000Y-42672000D02*
X112268000Y-43180000D01*
X111760000Y-40640000D02*
X111760000Y-42672000D01*
%TO.N,Net-(D2-Pad1)*%
X112395000Y-47625000D02*
X114300000Y-45720000D01*
X103505000Y-47625000D02*
X112395000Y-47625000D01*
X102870000Y-46990000D02*
X103505000Y-47625000D01*
%TO.N,/DIP_OE_N*%
X82550000Y-85090000D02*
X82550000Y-83820000D01*
X82550000Y-83820000D02*
X78740000Y-80010000D01*
X69850000Y-81280000D02*
X71120000Y-80010000D01*
X71120000Y-80010000D02*
X78740000Y-80010000D01*
X69850000Y-81280000D02*
X69215000Y-81915000D01*
X69215000Y-81915000D02*
X69215000Y-81915000D01*
X53975000Y-83820000D02*
X67310000Y-83820000D01*
X53340000Y-83185000D02*
X53975000Y-83820000D01*
X45085000Y-57150000D02*
X45085000Y-73025000D01*
X53340000Y-81280000D02*
X53340000Y-83185000D01*
X57785000Y-44450000D02*
X45085000Y-57150000D01*
X60960000Y-44450000D02*
X57785000Y-44450000D01*
X67310000Y-83820000D02*
X69215000Y-81915000D01*
X45085000Y-73025000D02*
X53340000Y-81280000D01*
X60960000Y-44450000D02*
X62230000Y-44450000D01*
X64516000Y-42164000D02*
X64516000Y-40640000D01*
X62230000Y-44450000D02*
X64516000Y-42164000D01*
%TO.N,/DIP_CE_N*%
X59055000Y-85090000D02*
X62230000Y-85090000D01*
X60325000Y-43180000D02*
X61976000Y-41529000D01*
X57150000Y-43180000D02*
X60325000Y-43180000D01*
X43815000Y-56515000D02*
X57150000Y-43180000D01*
X43815000Y-73025000D02*
X43815000Y-56515000D01*
X52705000Y-84455000D02*
X52705000Y-81915000D01*
X53340000Y-85090000D02*
X52705000Y-84455000D01*
X61976000Y-41529000D02*
X61976000Y-40640000D01*
X52705000Y-81915000D02*
X43815000Y-73025000D01*
X59055000Y-85090000D02*
X53340000Y-85090000D01*
%TO.N,/DIP_WE_N*%
X67056000Y-42164000D02*
X67056000Y-40640000D01*
X58420000Y-45720000D02*
X63500000Y-45720000D01*
X46355000Y-73025000D02*
X46355000Y-57785000D01*
X53340000Y-80010000D02*
X46355000Y-73025000D01*
X63500000Y-45720000D02*
X67056000Y-42164000D01*
X56515000Y-80010000D02*
X53340000Y-80010000D01*
X59055000Y-82550000D02*
X56515000Y-80010000D01*
X67310000Y-82550000D02*
X59055000Y-82550000D01*
X70485000Y-79375000D02*
X67310000Y-82550000D01*
X46355000Y-57785000D02*
X58420000Y-45720000D01*
X80645000Y-79375000D02*
X70485000Y-79375000D01*
X82550000Y-81280000D02*
X80645000Y-79375000D01*
%TO.N,Net-(XA1-PadD41)*%
X127000000Y-66040000D02*
X126365000Y-66040000D01*
%TO.N,Net-(XA1-PadD40)*%
X124460000Y-66040000D02*
X125095000Y-66040000D01*
%TO.N,Net-(XA1-PadD39)*%
X126365000Y-63500000D02*
X127000000Y-63500000D01*
%TO.N,Net-(XA1-PadD38)*%
X124460000Y-63500000D02*
X125095000Y-63500000D01*
%TD*%
D23*
%TO.N,GND*%
X160384545Y-23558909D02*
X160735208Y-23664780D01*
X161058625Y-23836744D01*
X161342484Y-24068254D01*
X161575965Y-24350486D01*
X161750183Y-24672695D01*
X161858502Y-25022614D01*
X161900001Y-25417452D01*
X161900000Y-101567721D01*
X161861091Y-101964545D01*
X161755220Y-102315206D01*
X161583257Y-102638623D01*
X161351748Y-102922482D01*
X161069514Y-103155965D01*
X160747304Y-103330184D01*
X160397385Y-103438502D01*
X160002557Y-103480000D01*
X124492279Y-103480000D01*
X124095455Y-103441091D01*
X123744794Y-103335220D01*
X123421377Y-103163257D01*
X123137518Y-102931748D01*
X122904035Y-102649514D01*
X122729816Y-102327304D01*
X122621498Y-101977385D01*
X122580000Y-101582557D01*
X122580000Y-100210928D01*
X146265000Y-100210928D01*
X146265000Y-100789072D01*
X146377791Y-101356108D01*
X146599037Y-101890244D01*
X146920237Y-102370953D01*
X147329047Y-102779763D01*
X147809756Y-103100963D01*
X148343892Y-103322209D01*
X148910928Y-103435000D01*
X149489072Y-103435000D01*
X150056108Y-103322209D01*
X150590244Y-103100963D01*
X151070953Y-102779763D01*
X151479763Y-102370953D01*
X151800963Y-101890244D01*
X152022209Y-101356108D01*
X152135000Y-100789072D01*
X152135000Y-100210928D01*
X152022209Y-99643892D01*
X151800963Y-99109756D01*
X151479763Y-98629047D01*
X151070953Y-98220237D01*
X150590244Y-97899037D01*
X150056108Y-97677791D01*
X149489072Y-97565000D01*
X148910928Y-97565000D01*
X148343892Y-97677791D01*
X147809756Y-97899037D01*
X147329047Y-98220237D01*
X146920237Y-98629047D01*
X146599037Y-99109756D01*
X146377791Y-99643892D01*
X146265000Y-100210928D01*
X122580000Y-100210928D01*
X122580000Y-96487581D01*
X122577112Y-96458254D01*
X122577222Y-96442451D01*
X122576322Y-96433280D01*
X122524505Y-95940273D01*
X122512490Y-95881742D01*
X122501269Y-95822917D01*
X122498605Y-95814095D01*
X122352016Y-95340542D01*
X122328847Y-95285427D01*
X122306427Y-95229934D01*
X122302100Y-95221798D01*
X122066323Y-94785738D01*
X122032890Y-94736171D01*
X122000119Y-94686092D01*
X121994294Y-94678951D01*
X121678310Y-94296991D01*
X121635874Y-94254850D01*
X121594011Y-94212101D01*
X121586911Y-94206227D01*
X121202754Y-93892917D01*
X121152946Y-93859824D01*
X121103572Y-93826017D01*
X121095466Y-93821634D01*
X120657770Y-93588908D01*
X120602488Y-93566122D01*
X120547483Y-93542547D01*
X120538680Y-93539822D01*
X120064116Y-93396543D01*
X120005428Y-93384923D01*
X119946925Y-93372487D01*
X119937760Y-93371524D01*
X119444405Y-93323150D01*
X119444402Y-93323150D01*
X119412419Y-93320000D01*
X49562279Y-93320000D01*
X49165455Y-93281091D01*
X48814794Y-93175220D01*
X48491377Y-93003257D01*
X48207518Y-92771748D01*
X47974035Y-92489514D01*
X47799816Y-92167304D01*
X47691498Y-91817385D01*
X47665182Y-91567000D01*
X103015421Y-91567000D01*
X103423480Y-91975059D01*
X103451193Y-92008827D01*
X103484961Y-92036540D01*
X103484963Y-92036542D01*
X103524276Y-92068805D01*
X103585951Y-92119421D01*
X103739697Y-92201599D01*
X103906520Y-92252205D01*
X104036533Y-92265010D01*
X104036543Y-92265010D01*
X104080009Y-92269291D01*
X104123475Y-92265010D01*
X122128432Y-92265010D01*
X123803470Y-93940049D01*
X123831183Y-93973817D01*
X123864951Y-94001530D01*
X123864953Y-94001532D01*
X123965941Y-94084411D01*
X124119686Y-94166589D01*
X124270934Y-94212470D01*
X124286510Y-94217195D01*
X124416523Y-94230000D01*
X124416531Y-94230000D01*
X124460000Y-94234281D01*
X124503469Y-94230000D01*
X131401531Y-94230000D01*
X131445000Y-94234281D01*
X131488469Y-94230000D01*
X131488477Y-94230000D01*
X131618490Y-94217195D01*
X131785313Y-94166589D01*
X131939059Y-94084411D01*
X132073817Y-93973817D01*
X132101534Y-93940044D01*
X134351579Y-91690000D01*
X141131573Y-91690000D01*
X141109756Y-91699037D01*
X140629047Y-92020237D01*
X140220237Y-92429047D01*
X139899037Y-92909756D01*
X139677791Y-93443892D01*
X139565000Y-94010928D01*
X139565000Y-94589072D01*
X139677791Y-95156108D01*
X139899037Y-95690244D01*
X140220237Y-96170953D01*
X140629047Y-96579763D01*
X141109756Y-96900963D01*
X141643892Y-97122209D01*
X142210928Y-97235000D01*
X142789072Y-97235000D01*
X143356108Y-97122209D01*
X143890244Y-96900963D01*
X144370953Y-96579763D01*
X144779763Y-96170953D01*
X145100963Y-95690244D01*
X145322209Y-95156108D01*
X145435000Y-94589072D01*
X145435000Y-94010928D01*
X145322209Y-93443892D01*
X145173643Y-93085222D01*
X146663470Y-94575049D01*
X146691183Y-94608817D01*
X146724951Y-94636530D01*
X146724953Y-94636532D01*
X146776641Y-94678951D01*
X146825941Y-94719411D01*
X146979687Y-94801589D01*
X147146510Y-94852195D01*
X147276523Y-94865000D01*
X147276533Y-94865000D01*
X147319999Y-94869281D01*
X147363466Y-94865000D01*
X149816531Y-94865000D01*
X149860000Y-94869281D01*
X149903469Y-94865000D01*
X149903477Y-94865000D01*
X150033490Y-94852195D01*
X150200313Y-94801589D01*
X150354059Y-94719411D01*
X150488817Y-94608817D01*
X150516534Y-94575044D01*
X150962461Y-94129117D01*
X154665000Y-94129117D01*
X154665000Y-94470883D01*
X154731675Y-94806081D01*
X154862463Y-95121831D01*
X155052337Y-95405998D01*
X155294002Y-95647663D01*
X155578169Y-95837537D01*
X155893919Y-95968325D01*
X156229117Y-96035000D01*
X156570883Y-96035000D01*
X156906081Y-95968325D01*
X157221831Y-95837537D01*
X157505998Y-95647663D01*
X157747663Y-95405998D01*
X157937537Y-95121831D01*
X158068325Y-94806081D01*
X158135000Y-94470883D01*
X158135000Y-94129117D01*
X158068325Y-93793919D01*
X157937537Y-93478169D01*
X157747663Y-93194002D01*
X157505998Y-92952337D01*
X157221831Y-92762463D01*
X156906081Y-92631675D01*
X156570883Y-92565000D01*
X156229117Y-92565000D01*
X155893919Y-92631675D01*
X155578169Y-92762463D01*
X155294002Y-92952337D01*
X155052337Y-93194002D01*
X154862463Y-93478169D01*
X154731675Y-93793919D01*
X154665000Y-94129117D01*
X150962461Y-94129117D01*
X152360050Y-92731529D01*
X152393817Y-92703817D01*
X152425525Y-92665182D01*
X152504411Y-92569059D01*
X152555859Y-92472805D01*
X152586589Y-92415313D01*
X152637195Y-92248490D01*
X152650000Y-92118477D01*
X152650000Y-92118469D01*
X152654281Y-92075000D01*
X152650000Y-92031531D01*
X152650000Y-90213465D01*
X152654281Y-90169999D01*
X152650000Y-90126533D01*
X152650000Y-90126523D01*
X152637195Y-89996510D01*
X152586589Y-89829687D01*
X152504411Y-89675941D01*
X152450174Y-89609853D01*
X152421532Y-89574953D01*
X152421530Y-89574951D01*
X152393817Y-89541183D01*
X152360049Y-89513470D01*
X151257000Y-88410421D01*
X151257000Y-40640000D01*
X151256768Y-40632332D01*
X151238249Y-40326169D01*
X151236401Y-40310944D01*
X151181112Y-40009245D01*
X151177442Y-39994355D01*
X151086191Y-39701521D01*
X151080752Y-39687182D01*
X150954869Y-39407481D01*
X150947742Y-39393901D01*
X150789063Y-39131414D01*
X150780351Y-39118793D01*
X150591189Y-38877345D01*
X150581020Y-38865865D01*
X150364135Y-38648980D01*
X150352655Y-38638811D01*
X150111207Y-38449649D01*
X150098586Y-38440937D01*
X149836099Y-38282258D01*
X149822519Y-38275131D01*
X149542818Y-38149248D01*
X149528479Y-38143809D01*
X149235645Y-38052558D01*
X149220755Y-38048888D01*
X148919056Y-37993599D01*
X148903831Y-37991751D01*
X148597668Y-37973232D01*
X148590000Y-37973000D01*
X128378578Y-37973000D01*
X132675051Y-33676528D01*
X132708817Y-33648817D01*
X132736571Y-33615000D01*
X132819411Y-33514059D01*
X132878759Y-33403025D01*
X132901589Y-33360313D01*
X132952195Y-33193490D01*
X132965000Y-33063477D01*
X132965000Y-33063469D01*
X132969281Y-33020000D01*
X132965000Y-32976531D01*
X132965000Y-32410928D01*
X139565000Y-32410928D01*
X139565000Y-32989072D01*
X139677791Y-33556108D01*
X139899037Y-34090244D01*
X140220237Y-34570953D01*
X140629047Y-34979763D01*
X141109756Y-35300963D01*
X141643892Y-35522209D01*
X142210928Y-35635000D01*
X142789072Y-35635000D01*
X143356108Y-35522209D01*
X143749118Y-35359419D01*
X147165000Y-35359419D01*
X147165000Y-35740581D01*
X147239361Y-36114419D01*
X147385225Y-36466566D01*
X147596987Y-36783491D01*
X147866509Y-37053013D01*
X148183434Y-37264775D01*
X148535581Y-37410639D01*
X148909419Y-37485000D01*
X149290581Y-37485000D01*
X149664419Y-37410639D01*
X150016566Y-37264775D01*
X150333491Y-37053013D01*
X150603013Y-36783491D01*
X150814775Y-36466566D01*
X150960639Y-36114419D01*
X151035000Y-35740581D01*
X151035000Y-35359419D01*
X150960639Y-34985581D01*
X150814775Y-34633434D01*
X150603013Y-34316509D01*
X150333491Y-34046987D01*
X150016566Y-33835225D01*
X149664419Y-33689361D01*
X149290581Y-33615000D01*
X148909419Y-33615000D01*
X148535581Y-33689361D01*
X148183434Y-33835225D01*
X147866509Y-34046987D01*
X147596987Y-34316509D01*
X147385225Y-34633434D01*
X147239361Y-34985581D01*
X147165000Y-35359419D01*
X143749118Y-35359419D01*
X143890244Y-35300963D01*
X144370953Y-34979763D01*
X144779763Y-34570953D01*
X145100963Y-34090244D01*
X145322209Y-33556108D01*
X145435000Y-32989072D01*
X145435000Y-32529117D01*
X154665000Y-32529117D01*
X154665000Y-32870883D01*
X154731675Y-33206081D01*
X154862463Y-33521831D01*
X155052337Y-33805998D01*
X155294002Y-34047663D01*
X155578169Y-34237537D01*
X155893919Y-34368325D01*
X156229117Y-34435000D01*
X156570883Y-34435000D01*
X156906081Y-34368325D01*
X157221831Y-34237537D01*
X157505998Y-34047663D01*
X157747663Y-33805998D01*
X157937537Y-33521831D01*
X158068325Y-33206081D01*
X158135000Y-32870883D01*
X158135000Y-32529117D01*
X158068325Y-32193919D01*
X157937537Y-31878169D01*
X157747663Y-31594002D01*
X157505998Y-31352337D01*
X157221831Y-31162463D01*
X156906081Y-31031675D01*
X156570883Y-30965000D01*
X156229117Y-30965000D01*
X155893919Y-31031675D01*
X155578169Y-31162463D01*
X155294002Y-31352337D01*
X155052337Y-31594002D01*
X154862463Y-31878169D01*
X154731675Y-32193919D01*
X154665000Y-32529117D01*
X145435000Y-32529117D01*
X145435000Y-32410928D01*
X145322209Y-31843892D01*
X145100963Y-31309756D01*
X144779763Y-30829047D01*
X144370953Y-30420237D01*
X143890244Y-30099037D01*
X143356108Y-29877791D01*
X142789072Y-29765000D01*
X142210928Y-29765000D01*
X141643892Y-29877791D01*
X141109756Y-30099037D01*
X140629047Y-30420237D01*
X140220237Y-30829047D01*
X139899037Y-31309756D01*
X139677791Y-31843892D01*
X139565000Y-32410928D01*
X132965000Y-32410928D01*
X132965000Y-32168178D01*
X133039851Y-32145472D01*
X133193387Y-32063405D01*
X133327962Y-31952962D01*
X133438405Y-31818387D01*
X133520472Y-31664851D01*
X133571008Y-31498255D01*
X133588072Y-31325001D01*
X133588072Y-29634999D01*
X133571008Y-29461745D01*
X133520472Y-29295149D01*
X133438405Y-29141613D01*
X133327962Y-29007038D01*
X133193387Y-28896595D01*
X133039851Y-28814528D01*
X132873255Y-28763992D01*
X132700001Y-28746928D01*
X131459999Y-28746928D01*
X131286745Y-28763992D01*
X131120149Y-28814528D01*
X130966613Y-28896595D01*
X130832038Y-29007038D01*
X130721595Y-29141613D01*
X130663066Y-29251114D01*
X130609345Y-29185655D01*
X130380179Y-28997583D01*
X130118725Y-28857834D01*
X129835032Y-28771776D01*
X129540000Y-28742718D01*
X129244969Y-28771776D01*
X128961276Y-28857834D01*
X128699822Y-28997583D01*
X128470655Y-29185655D01*
X128282583Y-29414821D01*
X128267440Y-29443152D01*
X128174708Y-29302567D01*
X127966326Y-29091694D01*
X127720809Y-28925526D01*
X127447591Y-28810449D01*
X127360031Y-28793698D01*
X127127000Y-28914754D01*
X127127000Y-30353000D01*
X127147000Y-30353000D01*
X127147000Y-30607000D01*
X127127000Y-30607000D01*
X127127000Y-32045246D01*
X127360031Y-32166302D01*
X127447591Y-32149551D01*
X127720809Y-32034474D01*
X127966326Y-31868306D01*
X128174708Y-31657433D01*
X128267440Y-31516848D01*
X128282583Y-31545178D01*
X128470655Y-31774345D01*
X128699821Y-31962417D01*
X128961275Y-32102166D01*
X129244968Y-32188224D01*
X129540000Y-32217282D01*
X129835031Y-32188224D01*
X130118724Y-32102166D01*
X130380178Y-31962417D01*
X130609345Y-31774345D01*
X130663066Y-31708886D01*
X130721595Y-31818387D01*
X130832038Y-31952962D01*
X130966613Y-32063405D01*
X131120149Y-32145472D01*
X131195000Y-32168178D01*
X131195000Y-32653421D01*
X126404952Y-37443470D01*
X126371184Y-37471183D01*
X126343471Y-37504951D01*
X126343468Y-37504954D01*
X126260590Y-37605941D01*
X126178412Y-37759687D01*
X126127805Y-37926510D01*
X126123226Y-37973000D01*
X43307000Y-37973000D01*
X43307000Y-36830000D01*
X43306517Y-36818931D01*
X43287223Y-36598398D01*
X43283379Y-36576597D01*
X43226083Y-36362764D01*
X43218511Y-36341961D01*
X43163312Y-36223587D01*
X43197443Y-36220000D01*
X119412419Y-36220000D01*
X119441746Y-36217112D01*
X119457550Y-36217222D01*
X119466721Y-36216322D01*
X119959727Y-36164505D01*
X120018320Y-36152478D01*
X120077084Y-36141268D01*
X120085906Y-36138605D01*
X120559458Y-35992016D01*
X120614584Y-35968842D01*
X120670066Y-35946427D01*
X120678202Y-35942100D01*
X121114262Y-35706323D01*
X121163829Y-35672890D01*
X121213908Y-35640119D01*
X121221049Y-35634294D01*
X121603009Y-35318310D01*
X121645131Y-35275893D01*
X121687900Y-35234011D01*
X121693773Y-35226910D01*
X122007084Y-34842754D01*
X122040188Y-34792927D01*
X122073983Y-34743572D01*
X122078364Y-34735469D01*
X122078368Y-34735461D01*
X122311092Y-34297770D01*
X122333888Y-34242464D01*
X122357453Y-34187483D01*
X122360178Y-34178680D01*
X122503457Y-33704115D01*
X122515074Y-33645442D01*
X122527513Y-33586925D01*
X122528476Y-33577760D01*
X122576850Y-33084405D01*
X122576850Y-33084402D01*
X122580000Y-33052419D01*
X122580000Y-30844286D01*
X125494123Y-30844286D01*
X125550231Y-31135392D01*
X125662053Y-31409958D01*
X125825292Y-31657433D01*
X126033674Y-31868306D01*
X126279191Y-32034474D01*
X126552409Y-32149551D01*
X126639969Y-32166302D01*
X126873000Y-32045246D01*
X126873000Y-30607000D01*
X125649624Y-30607000D01*
X125494123Y-30844286D01*
X122580000Y-30844286D01*
X122580000Y-30115714D01*
X125494123Y-30115714D01*
X125649624Y-30353000D01*
X126873000Y-30353000D01*
X126873000Y-28914754D01*
X126639969Y-28793698D01*
X126552409Y-28810449D01*
X126279191Y-28925526D01*
X126033674Y-29091694D01*
X125825292Y-29302567D01*
X125662053Y-29550042D01*
X125550231Y-29824608D01*
X125494123Y-30115714D01*
X122580000Y-30115714D01*
X122580000Y-26210928D01*
X146265000Y-26210928D01*
X146265000Y-26789072D01*
X146377791Y-27356108D01*
X146599037Y-27890244D01*
X146920237Y-28370953D01*
X147329047Y-28779763D01*
X147809756Y-29100963D01*
X148343892Y-29322209D01*
X148910928Y-29435000D01*
X149489072Y-29435000D01*
X150056108Y-29322209D01*
X150590244Y-29100963D01*
X151070953Y-28779763D01*
X151479763Y-28370953D01*
X151800963Y-27890244D01*
X152022209Y-27356108D01*
X152135000Y-26789072D01*
X152135000Y-26210928D01*
X152022209Y-25643892D01*
X151800963Y-25109756D01*
X151479763Y-24629047D01*
X151070953Y-24220237D01*
X150590244Y-23899037D01*
X150056108Y-23677791D01*
X149489072Y-23565000D01*
X148910928Y-23565000D01*
X148343892Y-23677791D01*
X147809756Y-23899037D01*
X147329047Y-24220237D01*
X146920237Y-24629047D01*
X146599037Y-25109756D01*
X146377791Y-25643892D01*
X146265000Y-26210928D01*
X122580000Y-26210928D01*
X122580000Y-25432279D01*
X122618909Y-25035455D01*
X122724780Y-24684792D01*
X122896744Y-24361375D01*
X123128254Y-24077516D01*
X123410486Y-23844035D01*
X123732695Y-23669817D01*
X124082614Y-23561498D01*
X124477443Y-23520000D01*
X159987721Y-23520000D01*
X160384545Y-23558909D01*
%TA.AperFunction,Conductor*%
D24*
G36*
X160384545Y-23558909D02*
G01*
X160735208Y-23664780D01*
X161058625Y-23836744D01*
X161342484Y-24068254D01*
X161575965Y-24350486D01*
X161750183Y-24672695D01*
X161858502Y-25022614D01*
X161900001Y-25417452D01*
X161900000Y-101567721D01*
X161861091Y-101964545D01*
X161755220Y-102315206D01*
X161583257Y-102638623D01*
X161351748Y-102922482D01*
X161069514Y-103155965D01*
X160747304Y-103330184D01*
X160397385Y-103438502D01*
X160002557Y-103480000D01*
X124492279Y-103480000D01*
X124095455Y-103441091D01*
X123744794Y-103335220D01*
X123421377Y-103163257D01*
X123137518Y-102931748D01*
X122904035Y-102649514D01*
X122729816Y-102327304D01*
X122621498Y-101977385D01*
X122580000Y-101582557D01*
X122580000Y-100210928D01*
X146265000Y-100210928D01*
X146265000Y-100789072D01*
X146377791Y-101356108D01*
X146599037Y-101890244D01*
X146920237Y-102370953D01*
X147329047Y-102779763D01*
X147809756Y-103100963D01*
X148343892Y-103322209D01*
X148910928Y-103435000D01*
X149489072Y-103435000D01*
X150056108Y-103322209D01*
X150590244Y-103100963D01*
X151070953Y-102779763D01*
X151479763Y-102370953D01*
X151800963Y-101890244D01*
X152022209Y-101356108D01*
X152135000Y-100789072D01*
X152135000Y-100210928D01*
X152022209Y-99643892D01*
X151800963Y-99109756D01*
X151479763Y-98629047D01*
X151070953Y-98220237D01*
X150590244Y-97899037D01*
X150056108Y-97677791D01*
X149489072Y-97565000D01*
X148910928Y-97565000D01*
X148343892Y-97677791D01*
X147809756Y-97899037D01*
X147329047Y-98220237D01*
X146920237Y-98629047D01*
X146599037Y-99109756D01*
X146377791Y-99643892D01*
X146265000Y-100210928D01*
X122580000Y-100210928D01*
X122580000Y-96487581D01*
X122577112Y-96458254D01*
X122577222Y-96442451D01*
X122576322Y-96433280D01*
X122524505Y-95940273D01*
X122512490Y-95881742D01*
X122501269Y-95822917D01*
X122498605Y-95814095D01*
X122352016Y-95340542D01*
X122328847Y-95285427D01*
X122306427Y-95229934D01*
X122302100Y-95221798D01*
X122066323Y-94785738D01*
X122032890Y-94736171D01*
X122000119Y-94686092D01*
X121994294Y-94678951D01*
X121678310Y-94296991D01*
X121635874Y-94254850D01*
X121594011Y-94212101D01*
X121586911Y-94206227D01*
X121202754Y-93892917D01*
X121152946Y-93859824D01*
X121103572Y-93826017D01*
X121095466Y-93821634D01*
X120657770Y-93588908D01*
X120602488Y-93566122D01*
X120547483Y-93542547D01*
X120538680Y-93539822D01*
X120064116Y-93396543D01*
X120005428Y-93384923D01*
X119946925Y-93372487D01*
X119937760Y-93371524D01*
X119444405Y-93323150D01*
X119444402Y-93323150D01*
X119412419Y-93320000D01*
X49562279Y-93320000D01*
X49165455Y-93281091D01*
X48814794Y-93175220D01*
X48491377Y-93003257D01*
X48207518Y-92771748D01*
X47974035Y-92489514D01*
X47799816Y-92167304D01*
X47691498Y-91817385D01*
X47665182Y-91567000D01*
X103015421Y-91567000D01*
X103423480Y-91975059D01*
X103451193Y-92008827D01*
X103484961Y-92036540D01*
X103484963Y-92036542D01*
X103524276Y-92068805D01*
X103585951Y-92119421D01*
X103739697Y-92201599D01*
X103906520Y-92252205D01*
X104036533Y-92265010D01*
X104036543Y-92265010D01*
X104080009Y-92269291D01*
X104123475Y-92265010D01*
X122128432Y-92265010D01*
X123803470Y-93940049D01*
X123831183Y-93973817D01*
X123864951Y-94001530D01*
X123864953Y-94001532D01*
X123965941Y-94084411D01*
X124119686Y-94166589D01*
X124270934Y-94212470D01*
X124286510Y-94217195D01*
X124416523Y-94230000D01*
X124416531Y-94230000D01*
X124460000Y-94234281D01*
X124503469Y-94230000D01*
X131401531Y-94230000D01*
X131445000Y-94234281D01*
X131488469Y-94230000D01*
X131488477Y-94230000D01*
X131618490Y-94217195D01*
X131785313Y-94166589D01*
X131939059Y-94084411D01*
X132073817Y-93973817D01*
X132101534Y-93940044D01*
X134351579Y-91690000D01*
X141131573Y-91690000D01*
X141109756Y-91699037D01*
X140629047Y-92020237D01*
X140220237Y-92429047D01*
X139899037Y-92909756D01*
X139677791Y-93443892D01*
X139565000Y-94010928D01*
X139565000Y-94589072D01*
X139677791Y-95156108D01*
X139899037Y-95690244D01*
X140220237Y-96170953D01*
X140629047Y-96579763D01*
X141109756Y-96900963D01*
X141643892Y-97122209D01*
X142210928Y-97235000D01*
X142789072Y-97235000D01*
X143356108Y-97122209D01*
X143890244Y-96900963D01*
X144370953Y-96579763D01*
X144779763Y-96170953D01*
X145100963Y-95690244D01*
X145322209Y-95156108D01*
X145435000Y-94589072D01*
X145435000Y-94010928D01*
X145322209Y-93443892D01*
X145173643Y-93085222D01*
X146663470Y-94575049D01*
X146691183Y-94608817D01*
X146724951Y-94636530D01*
X146724953Y-94636532D01*
X146776641Y-94678951D01*
X146825941Y-94719411D01*
X146979687Y-94801589D01*
X147146510Y-94852195D01*
X147276523Y-94865000D01*
X147276533Y-94865000D01*
X147319999Y-94869281D01*
X147363466Y-94865000D01*
X149816531Y-94865000D01*
X149860000Y-94869281D01*
X149903469Y-94865000D01*
X149903477Y-94865000D01*
X150033490Y-94852195D01*
X150200313Y-94801589D01*
X150354059Y-94719411D01*
X150488817Y-94608817D01*
X150516534Y-94575044D01*
X150962461Y-94129117D01*
X154665000Y-94129117D01*
X154665000Y-94470883D01*
X154731675Y-94806081D01*
X154862463Y-95121831D01*
X155052337Y-95405998D01*
X155294002Y-95647663D01*
X155578169Y-95837537D01*
X155893919Y-95968325D01*
X156229117Y-96035000D01*
X156570883Y-96035000D01*
X156906081Y-95968325D01*
X157221831Y-95837537D01*
X157505998Y-95647663D01*
X157747663Y-95405998D01*
X157937537Y-95121831D01*
X158068325Y-94806081D01*
X158135000Y-94470883D01*
X158135000Y-94129117D01*
X158068325Y-93793919D01*
X157937537Y-93478169D01*
X157747663Y-93194002D01*
X157505998Y-92952337D01*
X157221831Y-92762463D01*
X156906081Y-92631675D01*
X156570883Y-92565000D01*
X156229117Y-92565000D01*
X155893919Y-92631675D01*
X155578169Y-92762463D01*
X155294002Y-92952337D01*
X155052337Y-93194002D01*
X154862463Y-93478169D01*
X154731675Y-93793919D01*
X154665000Y-94129117D01*
X150962461Y-94129117D01*
X152360050Y-92731529D01*
X152393817Y-92703817D01*
X152425525Y-92665182D01*
X152504411Y-92569059D01*
X152555859Y-92472805D01*
X152586589Y-92415313D01*
X152637195Y-92248490D01*
X152650000Y-92118477D01*
X152650000Y-92118469D01*
X152654281Y-92075000D01*
X152650000Y-92031531D01*
X152650000Y-90213465D01*
X152654281Y-90169999D01*
X152650000Y-90126533D01*
X152650000Y-90126523D01*
X152637195Y-89996510D01*
X152586589Y-89829687D01*
X152504411Y-89675941D01*
X152450174Y-89609853D01*
X152421532Y-89574953D01*
X152421530Y-89574951D01*
X152393817Y-89541183D01*
X152360049Y-89513470D01*
X151257000Y-88410421D01*
X151257000Y-40640000D01*
X151256768Y-40632332D01*
X151238249Y-40326169D01*
X151236401Y-40310944D01*
X151181112Y-40009245D01*
X151177442Y-39994355D01*
X151086191Y-39701521D01*
X151080752Y-39687182D01*
X150954869Y-39407481D01*
X150947742Y-39393901D01*
X150789063Y-39131414D01*
X150780351Y-39118793D01*
X150591189Y-38877345D01*
X150581020Y-38865865D01*
X150364135Y-38648980D01*
X150352655Y-38638811D01*
X150111207Y-38449649D01*
X150098586Y-38440937D01*
X149836099Y-38282258D01*
X149822519Y-38275131D01*
X149542818Y-38149248D01*
X149528479Y-38143809D01*
X149235645Y-38052558D01*
X149220755Y-38048888D01*
X148919056Y-37993599D01*
X148903831Y-37991751D01*
X148597668Y-37973232D01*
X148590000Y-37973000D01*
X128378578Y-37973000D01*
X132675051Y-33676528D01*
X132708817Y-33648817D01*
X132736571Y-33615000D01*
X132819411Y-33514059D01*
X132878759Y-33403025D01*
X132901589Y-33360313D01*
X132952195Y-33193490D01*
X132965000Y-33063477D01*
X132965000Y-33063469D01*
X132969281Y-33020000D01*
X132965000Y-32976531D01*
X132965000Y-32410928D01*
X139565000Y-32410928D01*
X139565000Y-32989072D01*
X139677791Y-33556108D01*
X139899037Y-34090244D01*
X140220237Y-34570953D01*
X140629047Y-34979763D01*
X141109756Y-35300963D01*
X141643892Y-35522209D01*
X142210928Y-35635000D01*
X142789072Y-35635000D01*
X143356108Y-35522209D01*
X143749118Y-35359419D01*
X147165000Y-35359419D01*
X147165000Y-35740581D01*
X147239361Y-36114419D01*
X147385225Y-36466566D01*
X147596987Y-36783491D01*
X147866509Y-37053013D01*
X148183434Y-37264775D01*
X148535581Y-37410639D01*
X148909419Y-37485000D01*
X149290581Y-37485000D01*
X149664419Y-37410639D01*
X150016566Y-37264775D01*
X150333491Y-37053013D01*
X150603013Y-36783491D01*
X150814775Y-36466566D01*
X150960639Y-36114419D01*
X151035000Y-35740581D01*
X151035000Y-35359419D01*
X150960639Y-34985581D01*
X150814775Y-34633434D01*
X150603013Y-34316509D01*
X150333491Y-34046987D01*
X150016566Y-33835225D01*
X149664419Y-33689361D01*
X149290581Y-33615000D01*
X148909419Y-33615000D01*
X148535581Y-33689361D01*
X148183434Y-33835225D01*
X147866509Y-34046987D01*
X147596987Y-34316509D01*
X147385225Y-34633434D01*
X147239361Y-34985581D01*
X147165000Y-35359419D01*
X143749118Y-35359419D01*
X143890244Y-35300963D01*
X144370953Y-34979763D01*
X144779763Y-34570953D01*
X145100963Y-34090244D01*
X145322209Y-33556108D01*
X145435000Y-32989072D01*
X145435000Y-32529117D01*
X154665000Y-32529117D01*
X154665000Y-32870883D01*
X154731675Y-33206081D01*
X154862463Y-33521831D01*
X155052337Y-33805998D01*
X155294002Y-34047663D01*
X155578169Y-34237537D01*
X155893919Y-34368325D01*
X156229117Y-34435000D01*
X156570883Y-34435000D01*
X156906081Y-34368325D01*
X157221831Y-34237537D01*
X157505998Y-34047663D01*
X157747663Y-33805998D01*
X157937537Y-33521831D01*
X158068325Y-33206081D01*
X158135000Y-32870883D01*
X158135000Y-32529117D01*
X158068325Y-32193919D01*
X157937537Y-31878169D01*
X157747663Y-31594002D01*
X157505998Y-31352337D01*
X157221831Y-31162463D01*
X156906081Y-31031675D01*
X156570883Y-30965000D01*
X156229117Y-30965000D01*
X155893919Y-31031675D01*
X155578169Y-31162463D01*
X155294002Y-31352337D01*
X155052337Y-31594002D01*
X154862463Y-31878169D01*
X154731675Y-32193919D01*
X154665000Y-32529117D01*
X145435000Y-32529117D01*
X145435000Y-32410928D01*
X145322209Y-31843892D01*
X145100963Y-31309756D01*
X144779763Y-30829047D01*
X144370953Y-30420237D01*
X143890244Y-30099037D01*
X143356108Y-29877791D01*
X142789072Y-29765000D01*
X142210928Y-29765000D01*
X141643892Y-29877791D01*
X141109756Y-30099037D01*
X140629047Y-30420237D01*
X140220237Y-30829047D01*
X139899037Y-31309756D01*
X139677791Y-31843892D01*
X139565000Y-32410928D01*
X132965000Y-32410928D01*
X132965000Y-32168178D01*
X133039851Y-32145472D01*
X133193387Y-32063405D01*
X133327962Y-31952962D01*
X133438405Y-31818387D01*
X133520472Y-31664851D01*
X133571008Y-31498255D01*
X133588072Y-31325001D01*
X133588072Y-29634999D01*
X133571008Y-29461745D01*
X133520472Y-29295149D01*
X133438405Y-29141613D01*
X133327962Y-29007038D01*
X133193387Y-28896595D01*
X133039851Y-28814528D01*
X132873255Y-28763992D01*
X132700001Y-28746928D01*
X131459999Y-28746928D01*
X131286745Y-28763992D01*
X131120149Y-28814528D01*
X130966613Y-28896595D01*
X130832038Y-29007038D01*
X130721595Y-29141613D01*
X130663066Y-29251114D01*
X130609345Y-29185655D01*
X130380179Y-28997583D01*
X130118725Y-28857834D01*
X129835032Y-28771776D01*
X129540000Y-28742718D01*
X129244969Y-28771776D01*
X128961276Y-28857834D01*
X128699822Y-28997583D01*
X128470655Y-29185655D01*
X128282583Y-29414821D01*
X128267440Y-29443152D01*
X128174708Y-29302567D01*
X127966326Y-29091694D01*
X127720809Y-28925526D01*
X127447591Y-28810449D01*
X127360031Y-28793698D01*
X127127000Y-28914754D01*
X127127000Y-30353000D01*
X127147000Y-30353000D01*
X127147000Y-30607000D01*
X127127000Y-30607000D01*
X127127000Y-32045246D01*
X127360031Y-32166302D01*
X127447591Y-32149551D01*
X127720809Y-32034474D01*
X127966326Y-31868306D01*
X128174708Y-31657433D01*
X128267440Y-31516848D01*
X128282583Y-31545178D01*
X128470655Y-31774345D01*
X128699821Y-31962417D01*
X128961275Y-32102166D01*
X129244968Y-32188224D01*
X129540000Y-32217282D01*
X129835031Y-32188224D01*
X130118724Y-32102166D01*
X130380178Y-31962417D01*
X130609345Y-31774345D01*
X130663066Y-31708886D01*
X130721595Y-31818387D01*
X130832038Y-31952962D01*
X130966613Y-32063405D01*
X131120149Y-32145472D01*
X131195000Y-32168178D01*
X131195000Y-32653421D01*
X126404952Y-37443470D01*
X126371184Y-37471183D01*
X126343471Y-37504951D01*
X126343468Y-37504954D01*
X126260590Y-37605941D01*
X126178412Y-37759687D01*
X126127805Y-37926510D01*
X126123226Y-37973000D01*
X43307000Y-37973000D01*
X43307000Y-36830000D01*
X43306517Y-36818931D01*
X43287223Y-36598398D01*
X43283379Y-36576597D01*
X43226083Y-36362764D01*
X43218511Y-36341961D01*
X43163312Y-36223587D01*
X43197443Y-36220000D01*
X119412419Y-36220000D01*
X119441746Y-36217112D01*
X119457550Y-36217222D01*
X119466721Y-36216322D01*
X119959727Y-36164505D01*
X120018320Y-36152478D01*
X120077084Y-36141268D01*
X120085906Y-36138605D01*
X120559458Y-35992016D01*
X120614584Y-35968842D01*
X120670066Y-35946427D01*
X120678202Y-35942100D01*
X121114262Y-35706323D01*
X121163829Y-35672890D01*
X121213908Y-35640119D01*
X121221049Y-35634294D01*
X121603009Y-35318310D01*
X121645131Y-35275893D01*
X121687900Y-35234011D01*
X121693773Y-35226910D01*
X122007084Y-34842754D01*
X122040188Y-34792927D01*
X122073983Y-34743572D01*
X122078364Y-34735469D01*
X122078368Y-34735461D01*
X122311092Y-34297770D01*
X122333888Y-34242464D01*
X122357453Y-34187483D01*
X122360178Y-34178680D01*
X122503457Y-33704115D01*
X122515074Y-33645442D01*
X122527513Y-33586925D01*
X122528476Y-33577760D01*
X122576850Y-33084405D01*
X122576850Y-33084402D01*
X122580000Y-33052419D01*
X122580000Y-30844286D01*
X125494123Y-30844286D01*
X125550231Y-31135392D01*
X125662053Y-31409958D01*
X125825292Y-31657433D01*
X126033674Y-31868306D01*
X126279191Y-32034474D01*
X126552409Y-32149551D01*
X126639969Y-32166302D01*
X126873000Y-32045246D01*
X126873000Y-30607000D01*
X125649624Y-30607000D01*
X125494123Y-30844286D01*
X122580000Y-30844286D01*
X122580000Y-30115714D01*
X125494123Y-30115714D01*
X125649624Y-30353000D01*
X126873000Y-30353000D01*
X126873000Y-28914754D01*
X126639969Y-28793698D01*
X126552409Y-28810449D01*
X126279191Y-28925526D01*
X126033674Y-29091694D01*
X125825292Y-29302567D01*
X125662053Y-29550042D01*
X125550231Y-29824608D01*
X125494123Y-30115714D01*
X122580000Y-30115714D01*
X122580000Y-26210928D01*
X146265000Y-26210928D01*
X146265000Y-26789072D01*
X146377791Y-27356108D01*
X146599037Y-27890244D01*
X146920237Y-28370953D01*
X147329047Y-28779763D01*
X147809756Y-29100963D01*
X148343892Y-29322209D01*
X148910928Y-29435000D01*
X149489072Y-29435000D01*
X150056108Y-29322209D01*
X150590244Y-29100963D01*
X151070953Y-28779763D01*
X151479763Y-28370953D01*
X151800963Y-27890244D01*
X152022209Y-27356108D01*
X152135000Y-26789072D01*
X152135000Y-26210928D01*
X152022209Y-25643892D01*
X151800963Y-25109756D01*
X151479763Y-24629047D01*
X151070953Y-24220237D01*
X150590244Y-23899037D01*
X150056108Y-23677791D01*
X149489072Y-23565000D01*
X148910928Y-23565000D01*
X148343892Y-23677791D01*
X147809756Y-23899037D01*
X147329047Y-24220237D01*
X146920237Y-24629047D01*
X146599037Y-25109756D01*
X146377791Y-25643892D01*
X146265000Y-26210928D01*
X122580000Y-26210928D01*
X122580000Y-25432279D01*
X122618909Y-25035455D01*
X122724780Y-24684792D01*
X122896744Y-24361375D01*
X123128254Y-24077516D01*
X123410486Y-23844035D01*
X123732695Y-23669817D01*
X124082614Y-23561498D01*
X124477443Y-23520000D01*
X159987721Y-23520000D01*
X160384545Y-23558909D01*
G37*
%TD.AperFunction*%
%TD*%
D23*
%TO.N,GND*%
X42899445Y-36258740D02*
X42983612Y-36439235D01*
X43035157Y-36631605D01*
X43053000Y-36835548D01*
X43053000Y-56497984D01*
X43051324Y-56515000D01*
X43053000Y-56532017D01*
X43053000Y-73007984D01*
X43051324Y-73025000D01*
X43053000Y-73042016D01*
X43053000Y-76794383D01*
X42815455Y-76771091D01*
X42464794Y-76665220D01*
X42141377Y-76493257D01*
X41857518Y-76261748D01*
X41624035Y-75979514D01*
X41449816Y-75657304D01*
X41341498Y-75307385D01*
X41300000Y-74912557D01*
X41300000Y-38132279D01*
X41338909Y-37735455D01*
X41444780Y-37384792D01*
X41616744Y-37061375D01*
X41848254Y-36777516D01*
X42130486Y-36544035D01*
X42452695Y-36369817D01*
X42802614Y-36261498D01*
X42894606Y-36251829D01*
X42899445Y-36258740D01*
%TA.AperFunction,Conductor*%
D24*
G36*
X42899445Y-36258740D02*
G01*
X42983612Y-36439235D01*
X43035157Y-36631605D01*
X43053000Y-36835548D01*
X43053000Y-56497984D01*
X43051324Y-56515000D01*
X43053000Y-56532017D01*
X43053000Y-73007984D01*
X43051324Y-73025000D01*
X43053000Y-73042016D01*
X43053000Y-76794383D01*
X42815455Y-76771091D01*
X42464794Y-76665220D01*
X42141377Y-76493257D01*
X41857518Y-76261748D01*
X41624035Y-75979514D01*
X41449816Y-75657304D01*
X41341498Y-75307385D01*
X41300000Y-74912557D01*
X41300000Y-38132279D01*
X41338909Y-37735455D01*
X41444780Y-37384792D01*
X41616744Y-37061375D01*
X41848254Y-36777516D01*
X42130486Y-36544035D01*
X42452695Y-36369817D01*
X42802614Y-36261498D01*
X42894606Y-36251829D01*
X42899445Y-36258740D01*
G37*
%TD.AperFunction*%
%TD*%
D23*
%TO.N,GND*%
X48768000Y-79052802D02*
X48768000Y-91313000D01*
X47650000Y-91313000D01*
X47650000Y-79977581D01*
X47647112Y-79948254D01*
X47647222Y-79932451D01*
X47646322Y-79923280D01*
X47594505Y-79430273D01*
X47582490Y-79371742D01*
X47571269Y-79312917D01*
X47568605Y-79304095D01*
X47422016Y-78830542D01*
X47398847Y-78775427D01*
X47376427Y-78719934D01*
X47372100Y-78711798D01*
X47136323Y-78275738D01*
X47102890Y-78226171D01*
X47070119Y-78176092D01*
X47064294Y-78168951D01*
X46748310Y-77786991D01*
X46705874Y-77744850D01*
X46664011Y-77702101D01*
X46656911Y-77696227D01*
X46272754Y-77382917D01*
X46222946Y-77349824D01*
X46173572Y-77316017D01*
X46165466Y-77311634D01*
X45727770Y-77078908D01*
X45672488Y-77056122D01*
X45617483Y-77032547D01*
X45608680Y-77029822D01*
X45134116Y-76886543D01*
X45075428Y-76874923D01*
X45016925Y-76862487D01*
X45007760Y-76861524D01*
X44514405Y-76813150D01*
X44514402Y-76813150D01*
X44482419Y-76810000D01*
X43307000Y-76810000D01*
X43307000Y-75692000D01*
X45407199Y-75692000D01*
X48768000Y-79052802D01*
%TA.AperFunction,Conductor*%
D24*
G36*
X48768000Y-79052802D02*
G01*
X48768000Y-91313000D01*
X47650000Y-91313000D01*
X47650000Y-79977581D01*
X47647112Y-79948254D01*
X47647222Y-79932451D01*
X47646322Y-79923280D01*
X47594505Y-79430273D01*
X47582490Y-79371742D01*
X47571269Y-79312917D01*
X47568605Y-79304095D01*
X47422016Y-78830542D01*
X47398847Y-78775427D01*
X47376427Y-78719934D01*
X47372100Y-78711798D01*
X47136323Y-78275738D01*
X47102890Y-78226171D01*
X47070119Y-78176092D01*
X47064294Y-78168951D01*
X46748310Y-77786991D01*
X46705874Y-77744850D01*
X46664011Y-77702101D01*
X46656911Y-77696227D01*
X46272754Y-77382917D01*
X46222946Y-77349824D01*
X46173572Y-77316017D01*
X46165466Y-77311634D01*
X45727770Y-77078908D01*
X45672488Y-77056122D01*
X45617483Y-77032547D01*
X45608680Y-77029822D01*
X45134116Y-76886543D01*
X45075428Y-76874923D01*
X45016925Y-76862487D01*
X45007760Y-76861524D01*
X44514405Y-76813150D01*
X44514402Y-76813150D01*
X44482419Y-76810000D01*
X43307000Y-76810000D01*
X43307000Y-75692000D01*
X45407199Y-75692000D01*
X48768000Y-79052802D01*
G37*
%TD.AperFunction*%
%TD*%
M02*
