%TF.GenerationSoftware,KiCad,Pcbnew,(5.1.7)-1*%
%TF.CreationDate,2022-07-04T22:32:29-03:00*%
%TF.ProjectId,progshield,70726f67-7368-4696-956c-642e6b696361,rev?*%
%TF.SameCoordinates,Original*%
%TF.FileFunction,Profile,NP*%
%FSLAX46Y46*%
G04 Gerber Fmt 4.6, Leading zero omitted, Abs format (unit mm)*
G04 Created by KiCad (PCBNEW (5.1.7)-1) date 2022-07-04 22:32:29*
%MOMM*%
%LPD*%
G01*
G04 APERTURE LIST*
%TA.AperFunction,Profile*%
%ADD10C,0.050000*%
%TD*%
G04 APERTURE END LIST*
D10*
X44450000Y-77470000D02*
X43180000Y-77470000D01*
X46990000Y-91440000D02*
X46990000Y-80010000D01*
X44450000Y-77470000D02*
G75*
G02*
X46990000Y-80010000I0J-2540000D01*
G01*
X43180000Y-77470000D02*
G75*
G02*
X40640000Y-74930000I0J2540000D01*
G01*
X49530000Y-93980000D02*
G75*
G02*
X46990000Y-91440000I0J2540000D01*
G01*
X119380000Y-93980000D02*
X49530000Y-93980000D01*
X40640000Y-38100000D02*
G75*
G02*
X43180000Y-35560000I2540000J0D01*
G01*
X119380000Y-35560000D02*
X43180000Y-35560000D01*
X160020000Y-22860000D02*
X124460000Y-22860000D01*
X160020000Y-22860000D02*
G75*
G02*
X162560000Y-25400000I0J-2540000D01*
G01*
X162560000Y-101600000D02*
X162560000Y-25400000D01*
X162560000Y-101600000D02*
G75*
G02*
X160020000Y-104140000I-2540000J0D01*
G01*
X124460000Y-104140000D02*
X160020000Y-104140000D01*
X119380000Y-93980000D02*
G75*
G02*
X121920000Y-96520000I0J-2540000D01*
G01*
X121920000Y-33020000D02*
G75*
G02*
X119380000Y-35560000I-2540000J0D01*
G01*
X121920000Y-25400000D02*
G75*
G02*
X124460000Y-22860000I2540000J0D01*
G01*
X124460000Y-104140000D02*
G75*
G02*
X121920000Y-101600000I0J2540000D01*
G01*
X121920000Y-33020000D02*
X121920000Y-25400000D01*
X121920000Y-96520000D02*
X121920000Y-101600000D01*
X40640000Y-38100000D02*
X40640000Y-74930000D01*
M02*
