M48
; DRILL file {KiCad (5.1.7)-1} date 07/04/22 22:32:35
; FORMAT={-:-/ absolute / metric / decimal}
; #@! TF.CreationDate,2022-07-04T22:32:35-03:00
; #@! TF.GenerationSoftware,Kicad,Pcbnew,(5.1.7)-1
FMAT,2
METRIC
T1C0.400
T2C0.800
T3C0.900
T4C1.000
T5C1.016
T6C1.100
T7C1.190
T8C2.200
T9C2.600
T10C3.200
T11C4.600
%
G90
G05
T1
X41.91Y-39.37
X41.91Y-41.91
X41.91Y-44.45
X41.91Y-46.99
X41.91Y-49.53
X41.91Y-52.07
X41.91Y-54.61
X41.91Y-57.15
X41.91Y-59.69
X41.91Y-62.23
X41.91Y-64.77
X41.91Y-67.31
X41.91Y-69.85
X41.91Y-72.39
X41.91Y-74.93
X43.18Y-36.83
X44.45Y-76.2
X45.72Y-36.83
X48.26Y-36.83
X48.26Y-78.74
X48.26Y-81.915
X48.26Y-85.09
X48.26Y-87.63
X48.26Y-90.17
X48.26Y-92.71
X50.8Y-36.83
X50.8Y-76.2
X50.8Y-92.71
X53.34Y-36.83
X53.34Y-77.47
X53.34Y-92.71
X55.88Y-36.83
X55.88Y-78.74
X55.88Y-92.71
X58.42Y-36.83
X58.42Y-80.01
X58.42Y-92.71
X60.96Y-36.83
X60.96Y-81.28
X60.96Y-92.71
X62.23Y-85.09
X63.5Y-36.83
X63.5Y-92.71
X66.04Y-36.83
X66.04Y-67.31
X66.04Y-92.71
X68.58Y-36.83
X68.58Y-92.71
X69.215Y-81.915
X71.12Y-36.83
X71.12Y-67.31
X71.12Y-92.71
X73.66Y-36.83
X73.66Y-62.23
X73.66Y-92.71
X76.2Y-36.83
X76.2Y-63.5
X76.2Y-92.71
X78.74Y-36.83
X78.74Y-67.31
X78.74Y-92.71
X79.375Y-83.185
X81.28Y-36.83
X81.28Y-63.5
X81.28Y-67.31
X81.28Y-92.71
X83.82Y-36.83
X83.82Y-67.31
X83.82Y-92.71
X86.36Y-36.83
X86.36Y-46.99
X86.36Y-92.71
X88.9Y-36.83
X88.9Y-46.99
X88.9Y-92.71
X91.44Y-36.83
X91.44Y-92.71
X93.98Y-36.83
X93.98Y-92.71
X96.52Y-36.83
X96.52Y-92.71
X99.06Y-36.83
X99.06Y-92.71
X99.06Y-92.71
X101.6Y-36.83
X101.6Y-92.71
X104.14Y-36.83
X104.14Y-92.71
X106.68Y-36.83
X106.68Y-92.71
X109.22Y-36.83
X109.22Y-92.71
X111.76Y-36.83
X111.76Y-92.71
X114.3Y-36.83
X114.3Y-92.71
X116.84Y-36.83
X116.84Y-92.71
X119.38Y-36.83
X119.38Y-92.71
X121.92Y-36.83
X121.92Y-92.71
X123.19Y-26.67
X123.19Y-29.21
X123.19Y-31.75
X123.19Y-34.29
X123.19Y-95.25
X123.19Y-97.79
X123.19Y-100.33
X125.73Y-24.13
X125.73Y-102.87
X128.27Y-24.13
X128.27Y-102.87
X130.81Y-24.13
X130.81Y-102.87
X133.35Y-24.13
X133.35Y-102.87
X135.89Y-24.13
X135.89Y-102.87
X138.43Y-24.13
X138.43Y-102.87
X140.97Y-24.13
X140.97Y-102.87
X143.51Y-24.13
X143.51Y-102.87
X146.05Y-102.87
X151.765Y-39.37
X151.765Y-41.91
X151.765Y-44.45
X151.765Y-46.99
X151.765Y-49.53
X151.765Y-52.07
X151.765Y-54.61
X151.765Y-57.15
X151.765Y-59.69
X151.765Y-62.23
X151.765Y-64.77
X151.765Y-67.31
X151.765Y-69.85
X151.765Y-72.39
X151.765Y-74.93
X151.765Y-77.47
X151.765Y-80.01
X151.765Y-82.55
X151.765Y-85.09
X151.765Y-87.63
X153.67Y-24.13
X153.67Y-102.87
X156.21Y-24.13
X156.21Y-102.87
X158.75Y-24.13
X158.75Y-102.87
X161.29Y-26.67
X161.29Y-29.21
X161.29Y-31.75
X161.29Y-34.29
X161.29Y-36.83
X161.29Y-39.37
X161.29Y-41.91
X161.29Y-44.45
X161.29Y-46.99
X161.29Y-49.53
X161.29Y-52.07
X161.29Y-54.61
X161.29Y-57.15
X161.29Y-59.69
X161.29Y-62.23
X161.29Y-64.77
X161.29Y-67.31
X161.29Y-69.85
X161.29Y-72.39
X161.29Y-74.93
X161.29Y-77.47
X161.29Y-80.01
X161.29Y-82.55
X161.29Y-85.09
X161.29Y-87.63
X161.29Y-90.17
X161.29Y-92.71
X161.29Y-95.25
X161.29Y-97.79
X161.29Y-100.33
T2
X92.71Y-43.815
X102.87Y-43.815
X72.39Y-81.28
X82.55Y-81.28
X92.71Y-46.99
X102.87Y-46.99
X59.055Y-85.09
X69.215Y-85.09
X88.9Y-77.51
X88.9Y-80.01
X106.68Y-81.28
X116.84Y-81.28
X72.39Y-85.09
X82.55Y-85.09
T3
X106.68Y-45.72
X109.22Y-45.72
X114.3Y-45.72
X116.84Y-45.72
T4
X50.8Y-55.88
X50.8Y-71.12
X53.34Y-55.88
X53.34Y-71.12
X55.88Y-55.88
X55.88Y-71.12
X58.42Y-55.88
X58.42Y-71.12
X60.96Y-55.88
X60.96Y-71.12
X63.5Y-55.88
X63.5Y-71.12
X66.04Y-55.88
X66.04Y-71.12
X68.58Y-55.88
X68.58Y-71.12
X71.12Y-55.88
X71.12Y-71.12
X73.66Y-55.88
X73.66Y-71.12
X76.2Y-55.88
X76.2Y-71.12
X78.74Y-55.88
X78.74Y-71.12
X81.28Y-55.88
X81.28Y-71.12
X83.82Y-55.88
X83.82Y-71.12
X86.36Y-55.88
X86.36Y-71.12
X88.9Y-55.88
X88.9Y-71.12
X139.7Y-40.25
X139.7Y-43.25
X139.7Y-46.25
X139.7Y-49.25
X139.7Y-52.25
X139.7Y-55.25
X139.7Y-58.25
X139.7Y-61.25
X139.7Y-64.25
X139.7Y-67.25
X139.7Y-70.25
X139.7Y-73.25
X139.7Y-76.25
X139.7Y-79.25
X139.7Y-82.25
X139.7Y-85.25
X141.2Y-41.75
X141.2Y-44.75
X141.2Y-47.75
X141.2Y-50.75
X141.2Y-53.75
X141.2Y-56.75
X141.2Y-59.75
X141.2Y-62.75
X141.2Y-65.75
X141.2Y-68.75
X141.2Y-71.75
X141.2Y-74.75
X141.2Y-77.75
X141.2Y-80.75
X141.2Y-83.75
X141.2Y-86.75
T5
X49.276Y-40.64
X51.816Y-40.64
X54.356Y-40.64
X56.896Y-40.64
X58.42Y-88.9
X59.436Y-40.64
X60.96Y-88.9
X61.976Y-40.64
X63.5Y-88.9
X64.516Y-40.64
X66.04Y-88.9
X67.056Y-40.64
X68.58Y-88.9
X69.596Y-40.64
X71.12Y-88.9
X72.136Y-40.64
X73.66Y-88.9
X76.2Y-40.64
X76.2Y-88.9
X78.74Y-40.64
X81.28Y-40.64
X81.28Y-88.9
X83.82Y-40.64
X83.82Y-88.9
X86.36Y-40.64
X86.36Y-88.9
X88.9Y-40.64
X88.9Y-88.9
X91.44Y-40.64
X91.44Y-88.9
X93.98Y-40.64
X93.98Y-88.9
X96.52Y-88.9
X99.06Y-40.64
X99.06Y-88.9
X101.6Y-40.64
X104.14Y-40.64
X104.14Y-88.9
X106.68Y-40.64
X106.68Y-88.9
X109.22Y-40.64
X109.22Y-88.9
X111.76Y-40.64
X111.76Y-88.9
X114.3Y-40.64
X114.3Y-88.9
X116.84Y-40.64
X116.84Y-88.9
X119.38Y-88.9
X121.92Y-88.9
X124.46Y-40.64
X124.46Y-43.18
X124.46Y-45.72
X124.46Y-48.26
X124.46Y-50.8
X124.46Y-53.34
X124.46Y-55.88
X124.46Y-58.42
X124.46Y-60.96
X124.46Y-63.5
X124.46Y-66.04
X124.46Y-68.58
X124.46Y-71.12
X124.46Y-73.66
X124.46Y-76.2
X124.46Y-78.74
X124.46Y-81.28
X124.46Y-83.82
X127.0Y-40.64
X127.0Y-43.18
X127.0Y-45.72
X127.0Y-48.26
X127.0Y-50.8
X127.0Y-53.34
X127.0Y-55.88
X127.0Y-58.42
X127.0Y-60.96
X127.0Y-63.5
X127.0Y-66.04
X127.0Y-68.58
X127.0Y-71.12
X127.0Y-73.66
X127.0Y-76.2
X127.0Y-78.74
X127.0Y-81.28
X127.0Y-83.82
T6
X50.745Y-81.915
X50.745Y-88.415
X55.245Y-81.915
X55.245Y-88.415
T7
X127.0Y-30.48
X129.54Y-30.48
X132.08Y-30.48
T8
X156.4Y-32.7
X156.4Y-94.3
T9
X149.1Y-35.55
X149.1Y-91.45
T10
X45.72Y-40.64
X96.52Y-83.82
X120.65Y-40.64
X127.0Y-88.9
T11
X142.5Y-32.7
X142.5Y-94.3
X149.2Y-26.5
X149.2Y-100.5
T0
M30
