%TF.GenerationSoftware,KiCad,Pcbnew,(5.1.7)-1*%
%TF.CreationDate,2022-07-02T23:21:54-03:00*%
%TF.ProjectId,ROMboard,524f4d62-6f61-4726-942e-6b696361645f,rev?*%
%TF.SameCoordinates,Original*%
%TF.FileFunction,Copper,L1,Top*%
%TF.FilePolarity,Positive*%
%FSLAX46Y46*%
G04 Gerber Fmt 4.6, Leading zero omitted, Abs format (unit mm)*
G04 Created by KiCad (PCBNEW (5.1.7)-1) date 2022-07-02 23:21:54*
%MOMM*%
%LPD*%
G01*
G04 APERTURE LIST*
%TA.AperFunction,ComponentPad*%
%ADD10C,1.600000*%
%TD*%
%TA.AperFunction,ComponentPad*%
%ADD11R,1.600000X1.600000*%
%TD*%
%TA.AperFunction,SMDPad,CuDef*%
%ADD12R,0.250000X2.100000*%
%TD*%
%TA.AperFunction,ComponentPad*%
%ADD13O,1.600000X1.600000*%
%TD*%
%TA.AperFunction,ComponentPad*%
%ADD14O,1.700000X1.700000*%
%TD*%
%TA.AperFunction,ComponentPad*%
%ADD15R,1.700000X1.700000*%
%TD*%
%TA.AperFunction,ViaPad*%
%ADD16C,0.800000*%
%TD*%
%TA.AperFunction,Conductor*%
%ADD17C,0.250000*%
%TD*%
G04 APERTURE END LIST*
D10*
%TO.P,C1,2*%
%TO.N,+5V*%
X39370000Y-87670000D03*
D11*
%TO.P,C1,1*%
%TO.N,GND*%
X39370000Y-90170000D03*
%TD*%
D12*
%TO.P,U1,48*%
%TO.N,/RA17*%
X45480000Y-84470000D03*
%TO.P,U1,47*%
%TO.N,GND*%
X44980000Y-84470000D03*
%TO.P,U1,46*%
X44480000Y-84470000D03*
%TO.P,U1,45*%
%TO.N,/A0*%
X43980000Y-84470000D03*
%TO.P,U1,44*%
%TO.N,/D7*%
X43480000Y-84470000D03*
%TO.P,U1,43*%
%TO.N,Net-(U1-Pad43)*%
X42980000Y-84470000D03*
%TO.P,U1,42*%
%TO.N,/D6*%
X42480000Y-84470000D03*
%TO.P,U1,41*%
%TO.N,Net-(U1-Pad41)*%
X41980000Y-84470000D03*
%TO.P,U1,40*%
%TO.N,/D5*%
X41480000Y-84470000D03*
%TO.P,U1,39*%
%TO.N,Net-(U1-Pad39)*%
X40980000Y-84470000D03*
%TO.P,U1,38*%
%TO.N,/D4*%
X40480000Y-84470000D03*
%TO.P,U1,37*%
%TO.N,+5V*%
X39980000Y-84470000D03*
%TO.P,U1,36*%
%TO.N,Net-(U1-Pad36)*%
X39480000Y-84470000D03*
%TO.P,U1,35*%
%TO.N,/D3*%
X38980000Y-84470000D03*
%TO.P,U1,34*%
%TO.N,Net-(U1-Pad34)*%
X38480000Y-84470000D03*
%TO.P,U1,33*%
%TO.N,/D2*%
X37980000Y-84470000D03*
%TO.P,U1,32*%
%TO.N,Net-(U1-Pad32)*%
X37480000Y-84470000D03*
%TO.P,U1,31*%
%TO.N,/D1*%
X36980000Y-84470000D03*
%TO.P,U1,30*%
%TO.N,Net-(U1-Pad30)*%
X36480000Y-84470000D03*
%TO.P,U1,29*%
%TO.N,/D0*%
X35980000Y-84470000D03*
%TO.P,U1,28*%
%TO.N,/RD_N*%
X35480000Y-84470000D03*
%TO.P,U1,27*%
%TO.N,GND*%
X34980000Y-84470000D03*
%TO.P,U1,26*%
%TO.N,/CE_N*%
X34480000Y-84470000D03*
%TO.P,U1,24*%
%TO.N,/A2*%
X33980000Y-63970000D03*
%TO.P,U1,23*%
%TO.N,/A3*%
X34480000Y-63970000D03*
%TO.P,U1,22*%
%TO.N,/A4*%
X34980000Y-63970000D03*
%TO.P,U1,21*%
%TO.N,/A5*%
X35480000Y-63970000D03*
%TO.P,U1,20*%
%TO.N,/A6*%
X35980000Y-63970000D03*
%TO.P,U1,19*%
%TO.N,/A7*%
X36480000Y-63970000D03*
%TO.P,U1,18*%
%TO.N,/A8*%
X36980000Y-63970000D03*
%TO.P,U1,17*%
%TO.N,/RA18*%
X37480000Y-63970000D03*
%TO.P,U1,16*%
%TO.N,/RA19*%
X37980000Y-63970000D03*
%TO.P,U1,15*%
%TO.N,Net-(U1-Pad15)*%
X38480000Y-63970000D03*
%TO.P,U1,14*%
%TO.N,Net-(U1-Pad14)*%
X38980000Y-63970000D03*
%TO.P,U1,13*%
%TO.N,Net-(U1-Pad13)*%
X39480000Y-63970000D03*
%TO.P,U1,12*%
%TO.N,/RST_N*%
X39980000Y-63970000D03*
%TO.P,U1,11*%
%TO.N,/ROMWR_N*%
X40480000Y-63970000D03*
%TO.P,U1,10*%
%TO.N,Net-(U1-Pad10)*%
X40980000Y-63970000D03*
%TO.P,U1,9*%
%TO.N,/RA20*%
X41480000Y-63970000D03*
%TO.P,U1,8*%
%TO.N,/A9*%
X41980000Y-63970000D03*
%TO.P,U1,7*%
%TO.N,/A10*%
X42480000Y-63970000D03*
%TO.P,U1,6*%
%TO.N,/A11*%
X42980000Y-63970000D03*
%TO.P,U1,5*%
%TO.N,/A12*%
X43480000Y-63970000D03*
%TO.P,U1,4*%
%TO.N,/A13*%
X43980000Y-63970000D03*
%TO.P,U1,3*%
%TO.N,/RA14*%
X44480000Y-63970000D03*
%TO.P,U1,2*%
%TO.N,/RA15*%
X44980000Y-63970000D03*
%TO.P,U1,25*%
%TO.N,/A1*%
X33980000Y-84470000D03*
%TO.P,U1,1*%
%TO.N,/RA16*%
X45480000Y-63970000D03*
%TD*%
D13*
%TO.P,R1,2*%
%TO.N,/RST_N*%
X34290000Y-54610000D03*
D10*
%TO.P,R1,1*%
%TO.N,+5V*%
X44450000Y-54610000D03*
%TD*%
D14*
%TO.P,J2,4*%
%TO.N,/RA22*%
X30480000Y-50800000D03*
%TO.P,J2,3*%
%TO.N,/RA21*%
X33020000Y-50800000D03*
%TO.P,J2,2*%
%TO.N,/RA20*%
X35560000Y-50800000D03*
D15*
%TO.P,J2,1*%
%TO.N,/RA19*%
X38100000Y-50800000D03*
%TD*%
D14*
%TO.P,J1,16*%
%TO.N,+5V*%
X49530000Y-55880000D03*
%TO.P,J1,15*%
%TO.N,/ROMWR_N*%
X49530000Y-58420000D03*
%TO.P,J1,14*%
%TO.N,/RA17*%
X49530000Y-60960000D03*
%TO.P,J1,13*%
%TO.N,/RA14*%
X49530000Y-63500000D03*
%TO.P,J1,12*%
%TO.N,/A13*%
X49530000Y-66040000D03*
%TO.P,J1,11*%
%TO.N,/A8*%
X49530000Y-68580000D03*
%TO.P,J1,10*%
%TO.N,/A9*%
X49530000Y-71120000D03*
%TO.P,J1,9*%
%TO.N,/A11*%
X49530000Y-73660000D03*
%TO.P,J1,8*%
%TO.N,/RD_N*%
X49530000Y-76200000D03*
%TO.P,J1,7*%
%TO.N,/A10*%
X49530000Y-78740000D03*
%TO.P,J1,6*%
%TO.N,/CE_N*%
X49530000Y-81280000D03*
%TO.P,J1,5*%
%TO.N,/D7*%
X49530000Y-83820000D03*
%TO.P,J1,4*%
%TO.N,/D6*%
X49530000Y-86360000D03*
%TO.P,J1,3*%
%TO.N,/D5*%
X49530000Y-88900000D03*
%TO.P,J1,2*%
%TO.N,/D4*%
X49530000Y-91440000D03*
D15*
%TO.P,J1,1*%
%TO.N,/D3*%
X49530000Y-93980000D03*
%TD*%
D14*
%TO.P,J0,16*%
%TO.N,GND*%
X30480000Y-93980000D03*
%TO.P,J0,15*%
%TO.N,/D2*%
X30480000Y-91440000D03*
%TO.P,J0,14*%
%TO.N,/D1*%
X30480000Y-88900000D03*
%TO.P,J0,13*%
%TO.N,/D0*%
X30480000Y-86360000D03*
%TO.P,J0,12*%
%TO.N,/A0*%
X30480000Y-83820000D03*
%TO.P,J0,11*%
%TO.N,/A1*%
X30480000Y-81280000D03*
%TO.P,J0,10*%
%TO.N,/A2*%
X30480000Y-78740000D03*
%TO.P,J0,9*%
%TO.N,/A3*%
X30480000Y-76200000D03*
%TO.P,J0,8*%
%TO.N,/A4*%
X30480000Y-73660000D03*
%TO.P,J0,7*%
%TO.N,/A5*%
X30480000Y-71120000D03*
%TO.P,J0,6*%
%TO.N,/A6*%
X30480000Y-68580000D03*
%TO.P,J0,5*%
%TO.N,/A7*%
X30480000Y-66040000D03*
%TO.P,J0,4*%
%TO.N,/A12*%
X30480000Y-63500000D03*
%TO.P,J0,3*%
%TO.N,/RA15*%
X30480000Y-60960000D03*
%TO.P,J0,2*%
%TO.N,/RA16*%
X30480000Y-58420000D03*
D15*
%TO.P,J0,1*%
%TO.N,/RA18*%
X30480000Y-55880000D03*
%TD*%
D16*
%TO.N,+5V*%
X46480000Y-81720000D03*
X42980000Y-81720000D03*
%TO.N,GND*%
X33980000Y-86720000D03*
X44480000Y-82220000D03*
%TO.N,/A0*%
X44980000Y-87220000D03*
X32480000Y-86720000D03*
X32980000Y-90720000D03*
X44980000Y-93220000D03*
%TO.N,/A6*%
X34980000Y-66720000D03*
%TO.N,/A7*%
X36480000Y-66720000D03*
%TO.N,/RA18*%
X36490002Y-61230002D03*
X36490002Y-57209998D03*
%TO.N,/ROMWR_N*%
X40980000Y-61220000D03*
X40980000Y-57220000D03*
%TO.N,/RA17*%
X44980000Y-67720000D03*
X46480000Y-64720000D03*
%TO.N,/A8*%
X46480000Y-68720000D03*
X40980000Y-68720000D03*
%TO.N,/A9*%
X46480000Y-71220000D03*
X42480000Y-71220000D03*
%TO.N,/A11*%
X46480000Y-73220000D03*
X44480000Y-73220000D03*
%TO.N,/RD_N*%
X46500000Y-76200000D03*
X42500000Y-76200000D03*
%TO.N,/A10*%
X46480000Y-78720000D03*
X43980000Y-78720000D03*
%TO.N,/CE_N*%
X46480000Y-80220000D03*
X43980000Y-80220000D03*
%TO.N,/RA20*%
X42480000Y-61220000D03*
X41980000Y-55220000D03*
%TO.N,/RA19*%
X37980000Y-61220000D03*
X37980000Y-54720000D03*
%TO.N,/RST_N*%
X39480000Y-61220000D03*
X39480000Y-56720000D03*
%TD*%
D17*
%TO.N,+5V*%
X39370000Y-86830000D02*
X39370000Y-87670000D01*
X39980000Y-86220000D02*
X39370000Y-86830000D01*
X39980000Y-83970000D02*
X39980000Y-86220000D01*
X48260000Y-54610000D02*
X49530000Y-55880000D01*
X44450000Y-54610000D02*
X48260000Y-54610000D01*
X50800000Y-57150000D02*
X49530000Y-55880000D01*
X50800000Y-81915000D02*
X50800000Y-57150000D01*
X50165000Y-82550000D02*
X50800000Y-81915000D01*
X47310000Y-82550000D02*
X50165000Y-82550000D01*
X46480000Y-81720000D02*
X46480000Y-81720000D01*
X46480000Y-81720000D02*
X47310000Y-82550000D01*
X39980000Y-82720000D02*
X40980000Y-81720000D01*
X39980000Y-82720000D02*
X39980000Y-83970000D01*
X40980000Y-81720000D02*
X40980000Y-81720000D01*
X42980000Y-81720000D02*
X40980000Y-81720000D01*
%TO.N,GND*%
X34980000Y-83970000D02*
X34980000Y-86220000D01*
X34980000Y-86220000D02*
X34480000Y-86720000D01*
X34480000Y-86720000D02*
X33980000Y-86720000D01*
X33980000Y-86720000D02*
X33980000Y-86720000D01*
X44480000Y-83970000D02*
X44480000Y-82720000D01*
X44480000Y-82720000D02*
X44480000Y-82220000D01*
X44480000Y-82220000D02*
X44480000Y-82220000D01*
X44980000Y-82720000D02*
X44480000Y-82220000D01*
X44980000Y-83970000D02*
X44980000Y-82720000D01*
%TO.N,/D2*%
X30480000Y-91440000D02*
X32200000Y-89720000D01*
X34480000Y-89720000D02*
X37980000Y-86220000D01*
X37980000Y-86220000D02*
X37980000Y-83970000D01*
X32200000Y-89720000D02*
X34480000Y-89720000D01*
%TO.N,/D1*%
X36980000Y-86220000D02*
X36980000Y-83970000D01*
X34300000Y-88900000D02*
X36980000Y-86220000D01*
X30480000Y-88900000D02*
X34300000Y-88900000D01*
%TO.N,/D0*%
X35980000Y-86220000D02*
X35980000Y-83970000D01*
X34230000Y-87970000D02*
X35980000Y-86220000D01*
X32090000Y-87970000D02*
X34230000Y-87970000D01*
X30480000Y-86360000D02*
X32090000Y-87970000D01*
%TO.N,/A0*%
X30480000Y-83820000D02*
X29845000Y-83820000D01*
X31080000Y-83820000D02*
X30480000Y-83820000D01*
X43980000Y-83970000D02*
X43980000Y-86220000D01*
X43980000Y-86220000D02*
X44980000Y-87220000D01*
X44980000Y-87220000D02*
X44980000Y-87220000D01*
X30480000Y-83820000D02*
X31580000Y-83820000D01*
X31580000Y-83820000D02*
X32480000Y-84720000D01*
X32480000Y-84720000D02*
X32480000Y-86720000D01*
X32480000Y-86720000D02*
X32480000Y-86720000D01*
X32980000Y-90720000D02*
X34980000Y-90720000D01*
X34980000Y-90720000D02*
X37480000Y-93220000D01*
X37480000Y-93220000D02*
X44980000Y-93220000D01*
X44980000Y-93220000D02*
X44980000Y-93220000D01*
%TO.N,/A1*%
X33980000Y-83970000D02*
X33980000Y-81970000D01*
X33290000Y-81280000D02*
X30480000Y-81280000D01*
X33980000Y-81970000D02*
X33290000Y-81280000D01*
%TO.N,/A2*%
X33980000Y-75240000D02*
X30480000Y-78740000D01*
X33980000Y-64470000D02*
X33980000Y-75240000D01*
%TO.N,/A3*%
X30480000Y-76200000D02*
X33230000Y-73450000D01*
X33230000Y-73450000D02*
X33230000Y-62220000D01*
X33230000Y-62220000D02*
X33480000Y-61970000D01*
X33480000Y-61970000D02*
X34230000Y-61970000D01*
X34480000Y-62220000D02*
X34480000Y-64470000D01*
X34230000Y-61970000D02*
X34480000Y-62220000D01*
%TO.N,/A4*%
X30480000Y-73660000D02*
X32730000Y-71410000D01*
X32730000Y-71410000D02*
X32730000Y-61970000D01*
X32730000Y-61970000D02*
X33230000Y-61470000D01*
X33230000Y-61470000D02*
X34480000Y-61470000D01*
X34980000Y-61970000D02*
X34980000Y-64470000D01*
X34480000Y-61470000D02*
X34980000Y-61970000D01*
%TO.N,/A5*%
X35480000Y-61720000D02*
X35480000Y-64470000D01*
X34730000Y-60970000D02*
X35480000Y-61720000D01*
X32980000Y-60970000D02*
X34730000Y-60970000D01*
X32230000Y-61720000D02*
X32980000Y-60970000D01*
X32230000Y-69370000D02*
X32230000Y-61720000D01*
X30480000Y-71120000D02*
X32230000Y-69370000D01*
%TO.N,/A6*%
X35980000Y-65720000D02*
X35980000Y-64470000D01*
X34980000Y-66720000D02*
X35980000Y-65720000D01*
X34980000Y-66720000D02*
X34980000Y-66720000D01*
%TO.N,/A7*%
X36480000Y-65970000D02*
X36480000Y-64470000D01*
X36480000Y-66720000D02*
X36480000Y-65970000D01*
%TO.N,/A12*%
X42980000Y-60220000D02*
X43480000Y-60720000D01*
X32980000Y-60220000D02*
X42980000Y-60220000D01*
X31730000Y-62250000D02*
X31730000Y-61470000D01*
X43480000Y-60720000D02*
X43480000Y-64470000D01*
X31730000Y-61470000D02*
X32980000Y-60220000D01*
X30480000Y-63500000D02*
X31730000Y-62250000D01*
%TO.N,/RA15*%
X30480000Y-60960000D02*
X31970000Y-59470000D01*
X44980000Y-61970000D02*
X44980000Y-64470000D01*
X44480000Y-61470000D02*
X44980000Y-61970000D01*
X43730000Y-59470000D02*
X44480000Y-60220000D01*
X44480000Y-60220000D02*
X44480000Y-61470000D01*
X31970000Y-59470000D02*
X43730000Y-59470000D01*
%TO.N,/RA16*%
X45480000Y-60220000D02*
X45480000Y-64470000D01*
X43680000Y-58420000D02*
X45480000Y-60220000D01*
X30480000Y-58420000D02*
X43680000Y-58420000D01*
%TO.N,/RA18*%
X37480000Y-62709998D02*
X36490002Y-61720000D01*
X37480000Y-62720000D02*
X37480000Y-62709998D01*
X37480000Y-64470000D02*
X37480000Y-62720000D01*
X36490002Y-61720000D02*
X36490002Y-61230002D01*
X36490002Y-61230002D02*
X36490002Y-61230002D01*
X36490002Y-57209998D02*
X32969998Y-57209998D01*
X31640000Y-55880000D02*
X30480000Y-55880000D01*
X32969998Y-57209998D02*
X31640000Y-55880000D01*
%TO.N,/ROMWR_N*%
X40480000Y-61720000D02*
X40980000Y-61220000D01*
X40480000Y-64470000D02*
X40480000Y-61720000D01*
X40980000Y-61220000D02*
X40980000Y-61220000D01*
X48330000Y-57220000D02*
X49530000Y-58420000D01*
X40980000Y-57220000D02*
X48330000Y-57220000D01*
%TO.N,/RA17*%
X44980000Y-67720000D02*
X44980000Y-67720000D01*
X46480000Y-64720000D02*
X46480000Y-61720000D01*
X47240000Y-60960000D02*
X49530000Y-60960000D01*
X46480000Y-61720000D02*
X47240000Y-60960000D01*
X44980000Y-67720000D02*
X44980000Y-69220000D01*
X44980000Y-69220000D02*
X45480000Y-69720000D01*
X45480000Y-83970000D02*
X45480000Y-69720000D01*
%TO.N,/RA14*%
X44480000Y-65230002D02*
X44969998Y-65720000D01*
X44480000Y-64470000D02*
X44480000Y-65230002D01*
X47310000Y-65720000D02*
X49530000Y-63500000D01*
X44969998Y-65720000D02*
X47310000Y-65720000D01*
%TO.N,/A13*%
X48680001Y-66889999D02*
X49530000Y-66040000D01*
X45149999Y-66889999D02*
X48680001Y-66889999D01*
X43980000Y-65720000D02*
X45149999Y-66889999D01*
X43980000Y-64470000D02*
X43980000Y-65720000D01*
%TO.N,/A8*%
X49170000Y-68220000D02*
X49530000Y-68580000D01*
X40480000Y-68720000D02*
X40480000Y-68720000D01*
X49390000Y-68720000D02*
X49530000Y-68580000D01*
X46480000Y-68720000D02*
X49390000Y-68720000D01*
X40480000Y-68720000D02*
X40980000Y-68720000D01*
X37474999Y-67714999D02*
X38480000Y-68720000D01*
X37474999Y-65725001D02*
X37474999Y-67714999D01*
X38480000Y-68720000D02*
X40480000Y-68720000D01*
X36980000Y-65230002D02*
X37474999Y-65725001D01*
X36980000Y-64470000D02*
X36980000Y-65230002D01*
%TO.N,/A9*%
X41980000Y-64470000D02*
X41980000Y-65220000D01*
X49430000Y-71220000D02*
X49530000Y-71120000D01*
X46480000Y-71220000D02*
X49430000Y-71220000D01*
X41980000Y-69720000D02*
X41980000Y-65220000D01*
X42480000Y-71220000D02*
X41980000Y-70720000D01*
X41980000Y-70720000D02*
X41980000Y-69720000D01*
%TO.N,/A11*%
X49090000Y-73220000D02*
X49530000Y-73660000D01*
X46480000Y-73220000D02*
X49090000Y-73220000D01*
X42980000Y-65720000D02*
X43980000Y-66720000D01*
X42980000Y-64470000D02*
X42980000Y-65720000D01*
X43980000Y-69720000D02*
X44480000Y-70220000D01*
X43980000Y-66720000D02*
X43980000Y-69720000D01*
X44480000Y-70220000D02*
X44480000Y-73220000D01*
%TO.N,/RD_N*%
X49530000Y-76200000D02*
X46500000Y-76200000D01*
X46500000Y-76200000D02*
X46500000Y-76200000D01*
X41500000Y-76200000D02*
X42500000Y-76200000D01*
X35480000Y-82220000D02*
X41500000Y-76200000D01*
X35480000Y-83970000D02*
X35480000Y-82220000D01*
%TO.N,/A10*%
X49510000Y-78720000D02*
X49530000Y-78740000D01*
X46480000Y-78720000D02*
X49510000Y-78720000D01*
X42480000Y-66720000D02*
X42980000Y-67220000D01*
X42480000Y-64470000D02*
X42480000Y-66720000D01*
X43980000Y-78720000D02*
X43980000Y-75220000D01*
X42980000Y-70220000D02*
X43480000Y-70720000D01*
X42980000Y-67220000D02*
X42980000Y-70220000D01*
X43480000Y-70720000D02*
X43480000Y-74720000D01*
X43980000Y-75220000D02*
X43480000Y-74720000D01*
%TO.N,/CE_N*%
X49530000Y-81280000D02*
X47540000Y-81280000D01*
X47540000Y-81280000D02*
X46480000Y-80220000D01*
X46480000Y-80220000D02*
X46480000Y-80220000D01*
X43254999Y-75881997D02*
X42593002Y-75220000D01*
X43254999Y-79494999D02*
X43254999Y-75881997D01*
X43980000Y-80220000D02*
X43254999Y-79494999D01*
X42593002Y-75220000D02*
X40980000Y-75220000D01*
X34480000Y-81720000D02*
X34480000Y-83970000D01*
X40980000Y-75220000D02*
X34480000Y-81720000D01*
%TO.N,/D7*%
X47805000Y-86895000D02*
X47805000Y-85545000D01*
X45980000Y-88720000D02*
X47805000Y-86895000D01*
X43980000Y-88720000D02*
X45980000Y-88720000D01*
X43480000Y-88220000D02*
X43980000Y-88720000D01*
X47805000Y-85545000D02*
X49530000Y-83820000D01*
X43480000Y-83970000D02*
X43480000Y-88220000D01*
%TO.N,/D6*%
X47980000Y-87910000D02*
X48325000Y-87565000D01*
X47980000Y-89220000D02*
X47980000Y-87910000D01*
X47480000Y-89720000D02*
X47980000Y-89220000D01*
X43480000Y-89720000D02*
X47480000Y-89720000D01*
X42480000Y-88720000D02*
X43480000Y-89720000D01*
X48325000Y-87565000D02*
X49530000Y-86360000D01*
X42480000Y-83970000D02*
X42480000Y-88720000D01*
%TO.N,/D5*%
X47710000Y-90720000D02*
X49530000Y-88900000D01*
X43480000Y-90720000D02*
X47710000Y-90720000D01*
X41480000Y-88720000D02*
X43480000Y-90720000D01*
X41480000Y-83970000D02*
X41480000Y-88720000D01*
%TO.N,/D4*%
X40495001Y-83985001D02*
X40495001Y-88735001D01*
X40480000Y-83970000D02*
X40495001Y-83985001D01*
X43200000Y-91440000D02*
X49530000Y-91440000D01*
X40495001Y-88735001D02*
X43200000Y-91440000D01*
%TO.N,/D3*%
X37480000Y-87720000D02*
X37480000Y-91220000D01*
X38980000Y-86220000D02*
X37480000Y-87720000D01*
X38980000Y-83970000D02*
X38980000Y-86220000D01*
X37480000Y-91220000D02*
X38480000Y-92220000D01*
X46480000Y-92240000D02*
X48220000Y-93980000D01*
X46480000Y-92220000D02*
X46480000Y-92240000D01*
X48220000Y-93980000D02*
X49530000Y-93980000D01*
X38480000Y-92220000D02*
X46480000Y-92220000D01*
%TO.N,/RA20*%
X41480000Y-62220000D02*
X41480000Y-64470000D01*
X41480000Y-62220000D02*
X42480000Y-61220000D01*
X42480000Y-61220000D02*
X42480000Y-61220000D01*
X40480000Y-53720000D02*
X41980000Y-55220000D01*
X40480000Y-50060000D02*
X40480000Y-53720000D01*
X39810000Y-49390000D02*
X40480000Y-50060000D01*
X36970000Y-49390000D02*
X39810000Y-49390000D01*
X35560000Y-50800000D02*
X36970000Y-49390000D01*
%TO.N,/RA19*%
X37980000Y-64470000D02*
X37980000Y-62220000D01*
X37980000Y-62220000D02*
X37980000Y-61220000D01*
X37980000Y-61220000D02*
X37980000Y-61220000D01*
X37980000Y-50920000D02*
X38100000Y-50800000D01*
X37980000Y-54720000D02*
X37980000Y-54720000D01*
X37980000Y-54720000D02*
X37980000Y-50920000D01*
%TO.N,/RST_N*%
X39980000Y-64470000D02*
X39980000Y-62709998D01*
X39980000Y-62709998D02*
X39980000Y-62220000D01*
X39980000Y-62220000D02*
X39480000Y-61720000D01*
X39480000Y-61720000D02*
X39480000Y-61220000D01*
X39480000Y-61220000D02*
X39480000Y-61220000D01*
X35870000Y-54610000D02*
X34290000Y-54610000D01*
X37980000Y-56720000D02*
X35870000Y-54610000D01*
X39480000Y-56720000D02*
X37980000Y-56720000D01*
%TD*%
M02*
