%TF.GenerationSoftware,KiCad,Pcbnew,(5.1.7)-1*%
%TF.CreationDate,2022-07-02T23:21:54-03:00*%
%TF.ProjectId,ROMboard,524f4d62-6f61-4726-942e-6b696361645f,rev?*%
%TF.SameCoordinates,Original*%
%TF.FileFunction,Legend,Top*%
%TF.FilePolarity,Positive*%
%FSLAX46Y46*%
G04 Gerber Fmt 4.6, Leading zero omitted, Abs format (unit mm)*
G04 Created by KiCad (PCBNEW (5.1.7)-1) date 2022-07-02 23:21:54*
%MOMM*%
%LPD*%
G01*
G04 APERTURE LIST*
%ADD10C,0.150000*%
%ADD11C,0.120000*%
%ADD12C,0.100000*%
G04 APERTURE END LIST*
D10*
X38718095Y-54157619D02*
X38765714Y-54110000D01*
X38860952Y-54062380D01*
X39099047Y-54062380D01*
X39194285Y-54110000D01*
X39241904Y-54157619D01*
X39289523Y-54252857D01*
X39289523Y-54348095D01*
X39241904Y-54490952D01*
X38670476Y-55062380D01*
X39289523Y-55062380D01*
X39908571Y-54062380D02*
X40003809Y-54062380D01*
X40099047Y-54110000D01*
X40146666Y-54157619D01*
X40194285Y-54252857D01*
X40241904Y-54443333D01*
X40241904Y-54681428D01*
X40194285Y-54871904D01*
X40146666Y-54967142D01*
X40099047Y-55014761D01*
X40003809Y-55062380D01*
X39908571Y-55062380D01*
X39813333Y-55014761D01*
X39765714Y-54967142D01*
X39718095Y-54871904D01*
X39670476Y-54681428D01*
X39670476Y-54443333D01*
X39718095Y-54252857D01*
X39765714Y-54157619D01*
X39813333Y-54110000D01*
X39908571Y-54062380D01*
X40670476Y-55062380D02*
X40670476Y-54062380D01*
X41241904Y-55062380D02*
X40813333Y-54490952D01*
X41241904Y-54062380D02*
X40670476Y-54633809D01*
X35576428Y-95416666D02*
X36052619Y-95416666D01*
X35481190Y-95702380D02*
X35814523Y-94702380D01*
X36147857Y-95702380D01*
X36957380Y-95702380D02*
X36481190Y-95702380D01*
X36481190Y-94702380D01*
X37195476Y-94702380D02*
X37862142Y-95702380D01*
X37862142Y-94702380D02*
X37195476Y-95702380D01*
X38814523Y-95607142D02*
X38766904Y-95654761D01*
X38624047Y-95702380D01*
X38528809Y-95702380D01*
X38385952Y-95654761D01*
X38290714Y-95559523D01*
X38243095Y-95464285D01*
X38195476Y-95273809D01*
X38195476Y-95130952D01*
X38243095Y-94940476D01*
X38290714Y-94845238D01*
X38385952Y-94750000D01*
X38528809Y-94702380D01*
X38624047Y-94702380D01*
X38766904Y-94750000D01*
X38814523Y-94797619D01*
X39433571Y-94702380D02*
X39624047Y-94702380D01*
X39719285Y-94750000D01*
X39814523Y-94845238D01*
X39862142Y-95035714D01*
X39862142Y-95369047D01*
X39814523Y-95559523D01*
X39719285Y-95654761D01*
X39624047Y-95702380D01*
X39433571Y-95702380D01*
X39338333Y-95654761D01*
X39243095Y-95559523D01*
X39195476Y-95369047D01*
X39195476Y-95035714D01*
X39243095Y-94845238D01*
X39338333Y-94750000D01*
X39433571Y-94702380D01*
X41005000Y-94797619D02*
X41052619Y-94750000D01*
X41147857Y-94702380D01*
X41385952Y-94702380D01*
X41481190Y-94750000D01*
X41528809Y-94797619D01*
X41576428Y-94892857D01*
X41576428Y-94988095D01*
X41528809Y-95130952D01*
X40957380Y-95702380D01*
X41576428Y-95702380D01*
X42195476Y-94702380D02*
X42290714Y-94702380D01*
X42385952Y-94750000D01*
X42433571Y-94797619D01*
X42481190Y-94892857D01*
X42528809Y-95083333D01*
X42528809Y-95321428D01*
X42481190Y-95511904D01*
X42433571Y-95607142D01*
X42385952Y-95654761D01*
X42290714Y-95702380D01*
X42195476Y-95702380D01*
X42100238Y-95654761D01*
X42052619Y-95607142D01*
X42005000Y-95511904D01*
X41957380Y-95321428D01*
X41957380Y-95083333D01*
X42005000Y-94892857D01*
X42052619Y-94797619D01*
X42100238Y-94750000D01*
X42195476Y-94702380D01*
X42909761Y-94797619D02*
X42957380Y-94750000D01*
X43052619Y-94702380D01*
X43290714Y-94702380D01*
X43385952Y-94750000D01*
X43433571Y-94797619D01*
X43481190Y-94892857D01*
X43481190Y-94988095D01*
X43433571Y-95130952D01*
X42862142Y-95702380D01*
X43481190Y-95702380D01*
X43862142Y-94797619D02*
X43909761Y-94750000D01*
X44005000Y-94702380D01*
X44243095Y-94702380D01*
X44338333Y-94750000D01*
X44385952Y-94797619D01*
X44433571Y-94892857D01*
X44433571Y-94988095D01*
X44385952Y-95130952D01*
X43814523Y-95702380D01*
X44433571Y-95702380D01*
X46260000Y-52792380D02*
X46593333Y-53792380D01*
X46926666Y-52792380D01*
X47783809Y-53792380D02*
X47212380Y-53792380D01*
X47498095Y-53792380D02*
X47498095Y-52792380D01*
X47402857Y-52935238D01*
X47307619Y-53030476D01*
X47212380Y-53078095D01*
X48212380Y-53697142D02*
X48260000Y-53744761D01*
X48212380Y-53792380D01*
X48164761Y-53744761D01*
X48212380Y-53697142D01*
X48212380Y-53792380D01*
X48879047Y-52792380D02*
X48974285Y-52792380D01*
X49069523Y-52840000D01*
X49117142Y-52887619D01*
X49164761Y-52982857D01*
X49212380Y-53173333D01*
X49212380Y-53411428D01*
X49164761Y-53601904D01*
X49117142Y-53697142D01*
X49069523Y-53744761D01*
X48974285Y-53792380D01*
X48879047Y-53792380D01*
X48783809Y-53744761D01*
X48736190Y-53697142D01*
X48688571Y-53601904D01*
X48640952Y-53411428D01*
X48640952Y-53173333D01*
X48688571Y-52982857D01*
X48736190Y-52887619D01*
X48783809Y-52840000D01*
X48879047Y-52792380D01*
X50164761Y-53792380D02*
X49593333Y-53792380D01*
X49879047Y-53792380D02*
X49879047Y-52792380D01*
X49783809Y-52935238D01*
X49688571Y-53030476D01*
X49593333Y-53078095D01*
X36647857Y-92162380D02*
X37219285Y-92162380D01*
X36933571Y-93162380D02*
X36933571Y-92162380D01*
X37505000Y-93114761D02*
X37647857Y-93162380D01*
X37885952Y-93162380D01*
X37981190Y-93114761D01*
X38028809Y-93067142D01*
X38076428Y-92971904D01*
X38076428Y-92876666D01*
X38028809Y-92781428D01*
X37981190Y-92733809D01*
X37885952Y-92686190D01*
X37695476Y-92638571D01*
X37600238Y-92590952D01*
X37552619Y-92543333D01*
X37505000Y-92448095D01*
X37505000Y-92352857D01*
X37552619Y-92257619D01*
X37600238Y-92210000D01*
X37695476Y-92162380D01*
X37933571Y-92162380D01*
X38076428Y-92210000D01*
X38695476Y-92162380D02*
X38885952Y-92162380D01*
X38981190Y-92210000D01*
X39076428Y-92305238D01*
X39124047Y-92495714D01*
X39124047Y-92829047D01*
X39076428Y-93019523D01*
X38981190Y-93114761D01*
X38885952Y-93162380D01*
X38695476Y-93162380D01*
X38600238Y-93114761D01*
X38505000Y-93019523D01*
X38457380Y-92829047D01*
X38457380Y-92495714D01*
X38505000Y-92305238D01*
X38600238Y-92210000D01*
X38695476Y-92162380D01*
X39552619Y-93162380D02*
X39552619Y-92162380D01*
X39933571Y-92162380D01*
X40028809Y-92210000D01*
X40076428Y-92257619D01*
X40124047Y-92352857D01*
X40124047Y-92495714D01*
X40076428Y-92590952D01*
X40028809Y-92638571D01*
X39933571Y-92686190D01*
X39552619Y-92686190D01*
X40552619Y-92781428D02*
X41314523Y-92781428D01*
X42219285Y-92495714D02*
X42219285Y-93162380D01*
X41981190Y-92114761D02*
X41743095Y-92829047D01*
X42362142Y-92829047D01*
X42885952Y-92590952D02*
X42790714Y-92543333D01*
X42743095Y-92495714D01*
X42695476Y-92400476D01*
X42695476Y-92352857D01*
X42743095Y-92257619D01*
X42790714Y-92210000D01*
X42885952Y-92162380D01*
X43076428Y-92162380D01*
X43171666Y-92210000D01*
X43219285Y-92257619D01*
X43266904Y-92352857D01*
X43266904Y-92400476D01*
X43219285Y-92495714D01*
X43171666Y-92543333D01*
X43076428Y-92590952D01*
X42885952Y-92590952D01*
X42790714Y-92638571D01*
X42743095Y-92686190D01*
X42695476Y-92781428D01*
X42695476Y-92971904D01*
X42743095Y-93067142D01*
X42790714Y-93114761D01*
X42885952Y-93162380D01*
X43076428Y-93162380D01*
X43171666Y-93114761D01*
X43219285Y-93067142D01*
X43266904Y-92971904D01*
X43266904Y-92781428D01*
X43219285Y-92686190D01*
X43171666Y-92638571D01*
X43076428Y-92590952D01*
X40520952Y-51252380D02*
X40187619Y-50776190D01*
X39949523Y-51252380D02*
X39949523Y-50252380D01*
X40330476Y-50252380D01*
X40425714Y-50300000D01*
X40473333Y-50347619D01*
X40520952Y-50442857D01*
X40520952Y-50585714D01*
X40473333Y-50680952D01*
X40425714Y-50728571D01*
X40330476Y-50776190D01*
X39949523Y-50776190D01*
X40901904Y-50966666D02*
X41378095Y-50966666D01*
X40806666Y-51252380D02*
X41140000Y-50252380D01*
X41473333Y-51252380D01*
X29718095Y-52887619D02*
X29765714Y-52840000D01*
X29860952Y-52792380D01*
X30099047Y-52792380D01*
X30194285Y-52840000D01*
X30241904Y-52887619D01*
X30289523Y-52982857D01*
X30289523Y-53078095D01*
X30241904Y-53220952D01*
X29670476Y-53792380D01*
X30289523Y-53792380D01*
X30670476Y-52887619D02*
X30718095Y-52840000D01*
X30813333Y-52792380D01*
X31051428Y-52792380D01*
X31146666Y-52840000D01*
X31194285Y-52887619D01*
X31241904Y-52982857D01*
X31241904Y-53078095D01*
X31194285Y-53220952D01*
X30622857Y-53792380D01*
X31241904Y-53792380D01*
X46005714Y-62047380D02*
X45434285Y-62047380D01*
X45720000Y-62047380D02*
X45720000Y-61047380D01*
X45624761Y-61190238D01*
X45529523Y-61285476D01*
X45434285Y-61333095D01*
X46799523Y-95702380D02*
X46228095Y-95702380D01*
X46513809Y-95702380D02*
X46513809Y-94702380D01*
X46418571Y-94845238D01*
X46323333Y-94940476D01*
X46228095Y-94988095D01*
X47132857Y-94702380D02*
X47799523Y-94702380D01*
X47370952Y-95702380D01*
X32829523Y-95702380D02*
X32258095Y-95702380D01*
X32543809Y-95702380D02*
X32543809Y-94702380D01*
X32448571Y-94845238D01*
X32353333Y-94940476D01*
X32258095Y-94988095D01*
X33686666Y-94702380D02*
X33496190Y-94702380D01*
X33400952Y-94750000D01*
X33353333Y-94797619D01*
X33258095Y-94940476D01*
X33210476Y-95130952D01*
X33210476Y-95511904D01*
X33258095Y-95607142D01*
X33305714Y-95654761D01*
X33400952Y-95702380D01*
X33591428Y-95702380D01*
X33686666Y-95654761D01*
X33734285Y-95607142D01*
X33781904Y-95511904D01*
X33781904Y-95273809D01*
X33734285Y-95178571D01*
X33686666Y-95130952D01*
X33591428Y-95083333D01*
X33400952Y-95083333D01*
X33305714Y-95130952D01*
X33258095Y-95178571D01*
X33210476Y-95273809D01*
X46180476Y-55332380D02*
X46799523Y-55332380D01*
X46466190Y-55713333D01*
X46609047Y-55713333D01*
X46704285Y-55760952D01*
X46751904Y-55808571D01*
X46799523Y-55903809D01*
X46799523Y-56141904D01*
X46751904Y-56237142D01*
X46704285Y-56284761D01*
X46609047Y-56332380D01*
X46323333Y-56332380D01*
X46228095Y-56284761D01*
X46180476Y-56237142D01*
X47180476Y-55427619D02*
X47228095Y-55380000D01*
X47323333Y-55332380D01*
X47561428Y-55332380D01*
X47656666Y-55380000D01*
X47704285Y-55427619D01*
X47751904Y-55522857D01*
X47751904Y-55618095D01*
X47704285Y-55760952D01*
X47132857Y-56332380D01*
X47751904Y-56332380D01*
X33305714Y-56332380D02*
X32734285Y-56332380D01*
X33020000Y-56332380D02*
X33020000Y-55332380D01*
X32924761Y-55475238D01*
X32829523Y-55570476D01*
X32734285Y-55618095D01*
X42386666Y-50379761D02*
X42529523Y-50427380D01*
X42767619Y-50427380D01*
X42862857Y-50379761D01*
X42910476Y-50332142D01*
X42958095Y-50236904D01*
X42958095Y-50141666D01*
X42910476Y-50046428D01*
X42862857Y-49998809D01*
X42767619Y-49951190D01*
X42577142Y-49903571D01*
X42481904Y-49855952D01*
X42434285Y-49808333D01*
X42386666Y-49713095D01*
X42386666Y-49617857D01*
X42434285Y-49522619D01*
X42481904Y-49475000D01*
X42577142Y-49427380D01*
X42815238Y-49427380D01*
X42958095Y-49475000D01*
X43386666Y-50427380D02*
X43386666Y-49427380D01*
X43720000Y-50141666D01*
X44053333Y-49427380D01*
X44053333Y-50427380D01*
X44529523Y-50427380D02*
X44529523Y-49427380D01*
X44767619Y-49427380D01*
X44910476Y-49475000D01*
X45005714Y-49570238D01*
X45053333Y-49665476D01*
X45100952Y-49855952D01*
X45100952Y-49998809D01*
X45053333Y-50189285D01*
X45005714Y-50284523D01*
X44910476Y-50379761D01*
X44767619Y-50427380D01*
X44529523Y-50427380D01*
X46862857Y-50427380D02*
X46529523Y-49951190D01*
X46291428Y-50427380D02*
X46291428Y-49427380D01*
X46672380Y-49427380D01*
X46767619Y-49475000D01*
X46815238Y-49522619D01*
X46862857Y-49617857D01*
X46862857Y-49760714D01*
X46815238Y-49855952D01*
X46767619Y-49903571D01*
X46672380Y-49951190D01*
X46291428Y-49951190D01*
X47481904Y-49427380D02*
X47672380Y-49427380D01*
X47767619Y-49475000D01*
X47862857Y-49570238D01*
X47910476Y-49760714D01*
X47910476Y-50094047D01*
X47862857Y-50284523D01*
X47767619Y-50379761D01*
X47672380Y-50427380D01*
X47481904Y-50427380D01*
X47386666Y-50379761D01*
X47291428Y-50284523D01*
X47243809Y-50094047D01*
X47243809Y-49760714D01*
X47291428Y-49570238D01*
X47386666Y-49475000D01*
X47481904Y-49427380D01*
X48339047Y-50427380D02*
X48339047Y-49427380D01*
X48672380Y-50141666D01*
X49005714Y-49427380D01*
X49005714Y-50427380D01*
X42791428Y-51077380D02*
X42886666Y-51077380D01*
X42981904Y-51125000D01*
X43029523Y-51172619D01*
X43077142Y-51267857D01*
X43124761Y-51458333D01*
X43124761Y-51696428D01*
X43077142Y-51886904D01*
X43029523Y-51982142D01*
X42981904Y-52029761D01*
X42886666Y-52077380D01*
X42791428Y-52077380D01*
X42696190Y-52029761D01*
X42648571Y-51982142D01*
X42600952Y-51886904D01*
X42553333Y-51696428D01*
X42553333Y-51458333D01*
X42600952Y-51267857D01*
X42648571Y-51172619D01*
X42696190Y-51125000D01*
X42791428Y-51077380D01*
X43553333Y-51982142D02*
X43600952Y-52029761D01*
X43553333Y-52077380D01*
X43505714Y-52029761D01*
X43553333Y-51982142D01*
X43553333Y-52077380D01*
X44505714Y-51077380D02*
X44029523Y-51077380D01*
X43981904Y-51553571D01*
X44029523Y-51505952D01*
X44124761Y-51458333D01*
X44362857Y-51458333D01*
X44458095Y-51505952D01*
X44505714Y-51553571D01*
X44553333Y-51648809D01*
X44553333Y-51886904D01*
X44505714Y-51982142D01*
X44458095Y-52029761D01*
X44362857Y-52077380D01*
X44124761Y-52077380D01*
X44029523Y-52029761D01*
X43981904Y-51982142D01*
X44981904Y-51696428D02*
X45743809Y-51696428D01*
X46172380Y-51172619D02*
X46220000Y-51125000D01*
X46315238Y-51077380D01*
X46553333Y-51077380D01*
X46648571Y-51125000D01*
X46696190Y-51172619D01*
X46743809Y-51267857D01*
X46743809Y-51363095D01*
X46696190Y-51505952D01*
X46124761Y-52077380D01*
X46743809Y-52077380D01*
X47172380Y-52077380D02*
X47172380Y-51077380D01*
X47505714Y-51791666D01*
X47839047Y-51077380D01*
X47839047Y-52077380D01*
X48648571Y-51553571D02*
X48791428Y-51601190D01*
X48839047Y-51648809D01*
X48886666Y-51744047D01*
X48886666Y-51886904D01*
X48839047Y-51982142D01*
X48791428Y-52029761D01*
X48696190Y-52077380D01*
X48315238Y-52077380D01*
X48315238Y-51077380D01*
X48648571Y-51077380D01*
X48743809Y-51125000D01*
X48791428Y-51172619D01*
X48839047Y-51267857D01*
X48839047Y-51363095D01*
X48791428Y-51458333D01*
X48743809Y-51505952D01*
X48648571Y-51553571D01*
X48315238Y-51553571D01*
D11*
%TO.C,C1*%
X41990000Y-88920000D02*
G75*
G03*
X41990000Y-88920000I-2620000J0D01*
G01*
X36790000Y-88920000D02*
X41950000Y-88920000D01*
X36790000Y-88880000D02*
X41950000Y-88880000D01*
X36791000Y-88840000D02*
X41949000Y-88840000D01*
X36792000Y-88800000D02*
X41948000Y-88800000D01*
X36794000Y-88760000D02*
X41946000Y-88760000D01*
X36797000Y-88720000D02*
X41943000Y-88720000D01*
X36801000Y-88680000D02*
X38330000Y-88680000D01*
X40410000Y-88680000D02*
X41939000Y-88680000D01*
X36805000Y-88640000D02*
X38330000Y-88640000D01*
X40410000Y-88640000D02*
X41935000Y-88640000D01*
X36809000Y-88600000D02*
X38330000Y-88600000D01*
X40410000Y-88600000D02*
X41931000Y-88600000D01*
X36814000Y-88560000D02*
X38330000Y-88560000D01*
X40410000Y-88560000D02*
X41926000Y-88560000D01*
X36820000Y-88520000D02*
X38330000Y-88520000D01*
X40410000Y-88520000D02*
X41920000Y-88520000D01*
X36827000Y-88480000D02*
X38330000Y-88480000D01*
X40410000Y-88480000D02*
X41913000Y-88480000D01*
X36834000Y-88440000D02*
X38330000Y-88440000D01*
X40410000Y-88440000D02*
X41906000Y-88440000D01*
X36842000Y-88400000D02*
X38330000Y-88400000D01*
X40410000Y-88400000D02*
X41898000Y-88400000D01*
X36850000Y-88360000D02*
X38330000Y-88360000D01*
X40410000Y-88360000D02*
X41890000Y-88360000D01*
X36859000Y-88320000D02*
X38330000Y-88320000D01*
X40410000Y-88320000D02*
X41881000Y-88320000D01*
X36869000Y-88280000D02*
X38330000Y-88280000D01*
X40410000Y-88280000D02*
X41871000Y-88280000D01*
X36879000Y-88240000D02*
X38330000Y-88240000D01*
X40410000Y-88240000D02*
X41861000Y-88240000D01*
X36890000Y-88199000D02*
X38330000Y-88199000D01*
X40410000Y-88199000D02*
X41850000Y-88199000D01*
X36902000Y-88159000D02*
X38330000Y-88159000D01*
X40410000Y-88159000D02*
X41838000Y-88159000D01*
X36915000Y-88119000D02*
X38330000Y-88119000D01*
X40410000Y-88119000D02*
X41825000Y-88119000D01*
X36928000Y-88079000D02*
X38330000Y-88079000D01*
X40410000Y-88079000D02*
X41812000Y-88079000D01*
X36942000Y-88039000D02*
X38330000Y-88039000D01*
X40410000Y-88039000D02*
X41798000Y-88039000D01*
X36956000Y-87999000D02*
X38330000Y-87999000D01*
X40410000Y-87999000D02*
X41784000Y-87999000D01*
X36972000Y-87959000D02*
X38330000Y-87959000D01*
X40410000Y-87959000D02*
X41768000Y-87959000D01*
X36988000Y-87919000D02*
X38330000Y-87919000D01*
X40410000Y-87919000D02*
X41752000Y-87919000D01*
X37005000Y-87879000D02*
X38330000Y-87879000D01*
X40410000Y-87879000D02*
X41735000Y-87879000D01*
X37022000Y-87839000D02*
X38330000Y-87839000D01*
X40410000Y-87839000D02*
X41718000Y-87839000D01*
X37041000Y-87799000D02*
X38330000Y-87799000D01*
X40410000Y-87799000D02*
X41699000Y-87799000D01*
X37060000Y-87759000D02*
X38330000Y-87759000D01*
X40410000Y-87759000D02*
X41680000Y-87759000D01*
X37080000Y-87719000D02*
X38330000Y-87719000D01*
X40410000Y-87719000D02*
X41660000Y-87719000D01*
X37102000Y-87679000D02*
X38330000Y-87679000D01*
X40410000Y-87679000D02*
X41638000Y-87679000D01*
X37123000Y-87639000D02*
X38330000Y-87639000D01*
X40410000Y-87639000D02*
X41617000Y-87639000D01*
X37146000Y-87599000D02*
X38330000Y-87599000D01*
X40410000Y-87599000D02*
X41594000Y-87599000D01*
X37170000Y-87559000D02*
X38330000Y-87559000D01*
X40410000Y-87559000D02*
X41570000Y-87559000D01*
X37195000Y-87519000D02*
X38330000Y-87519000D01*
X40410000Y-87519000D02*
X41545000Y-87519000D01*
X37221000Y-87479000D02*
X38330000Y-87479000D01*
X40410000Y-87479000D02*
X41519000Y-87479000D01*
X37248000Y-87439000D02*
X38330000Y-87439000D01*
X40410000Y-87439000D02*
X41492000Y-87439000D01*
X37275000Y-87399000D02*
X38330000Y-87399000D01*
X40410000Y-87399000D02*
X41465000Y-87399000D01*
X37305000Y-87359000D02*
X38330000Y-87359000D01*
X40410000Y-87359000D02*
X41435000Y-87359000D01*
X37335000Y-87319000D02*
X38330000Y-87319000D01*
X40410000Y-87319000D02*
X41405000Y-87319000D01*
X37366000Y-87279000D02*
X38330000Y-87279000D01*
X40410000Y-87279000D02*
X41374000Y-87279000D01*
X37399000Y-87239000D02*
X38330000Y-87239000D01*
X40410000Y-87239000D02*
X41341000Y-87239000D01*
X37433000Y-87199000D02*
X38330000Y-87199000D01*
X40410000Y-87199000D02*
X41307000Y-87199000D01*
X37469000Y-87159000D02*
X38330000Y-87159000D01*
X40410000Y-87159000D02*
X41271000Y-87159000D01*
X37506000Y-87119000D02*
X38330000Y-87119000D01*
X40410000Y-87119000D02*
X41234000Y-87119000D01*
X37544000Y-87079000D02*
X38330000Y-87079000D01*
X40410000Y-87079000D02*
X41196000Y-87079000D01*
X37585000Y-87039000D02*
X38330000Y-87039000D01*
X40410000Y-87039000D02*
X41155000Y-87039000D01*
X37627000Y-86999000D02*
X38330000Y-86999000D01*
X40410000Y-86999000D02*
X41113000Y-86999000D01*
X37671000Y-86959000D02*
X38330000Y-86959000D01*
X40410000Y-86959000D02*
X41069000Y-86959000D01*
X37717000Y-86919000D02*
X38330000Y-86919000D01*
X40410000Y-86919000D02*
X41023000Y-86919000D01*
X37765000Y-86879000D02*
X38330000Y-86879000D01*
X40410000Y-86879000D02*
X40975000Y-86879000D01*
X37816000Y-86839000D02*
X38330000Y-86839000D01*
X40410000Y-86839000D02*
X40924000Y-86839000D01*
X37870000Y-86799000D02*
X38330000Y-86799000D01*
X40410000Y-86799000D02*
X40870000Y-86799000D01*
X37927000Y-86759000D02*
X38330000Y-86759000D01*
X40410000Y-86759000D02*
X40813000Y-86759000D01*
X37987000Y-86719000D02*
X38330000Y-86719000D01*
X40410000Y-86719000D02*
X40753000Y-86719000D01*
X38051000Y-86679000D02*
X38330000Y-86679000D01*
X40410000Y-86679000D02*
X40689000Y-86679000D01*
X38119000Y-86639000D02*
X38330000Y-86639000D01*
X40410000Y-86639000D02*
X40621000Y-86639000D01*
X38192000Y-86599000D02*
X40548000Y-86599000D01*
X38272000Y-86559000D02*
X40468000Y-86559000D01*
X38359000Y-86519000D02*
X40381000Y-86519000D01*
X38455000Y-86479000D02*
X40285000Y-86479000D01*
X38565000Y-86439000D02*
X40175000Y-86439000D01*
X38693000Y-86399000D02*
X40047000Y-86399000D01*
X38852000Y-86359000D02*
X39888000Y-86359000D01*
X39086000Y-86319000D02*
X39654000Y-86319000D01*
X37895000Y-91724775D02*
X37895000Y-91224775D01*
X37645000Y-91474775D02*
X38145000Y-91474775D01*
%TO.C,U1*%
X33610000Y-65020000D02*
X33610000Y-83420000D01*
D12*
X45850000Y-83420000D02*
X45850000Y-64020000D01*
D11*
%TO.C,R1*%
X42640000Y-55980000D02*
X42640000Y-53240000D01*
X42640000Y-53240000D02*
X36100000Y-53240000D01*
X36100000Y-53240000D02*
X36100000Y-55980000D01*
X36100000Y-55980000D02*
X42640000Y-55980000D01*
X43410000Y-54610000D02*
X42640000Y-54610000D01*
X35330000Y-54610000D02*
X36100000Y-54610000D01*
%TO.C,J2*%
X29150000Y-49470000D02*
X29150000Y-52130000D01*
X36830000Y-49470000D02*
X29150000Y-49470000D01*
X36830000Y-52130000D02*
X29150000Y-52130000D01*
X36830000Y-49470000D02*
X36830000Y-52130000D01*
X38100000Y-49470000D02*
X39430000Y-49470000D01*
X39430000Y-49470000D02*
X39430000Y-50800000D01*
%TO.C,J1*%
X50860000Y-54550000D02*
X48200000Y-54550000D01*
X50860000Y-92710000D02*
X50860000Y-54550000D01*
X48200000Y-92710000D02*
X48200000Y-54550000D01*
X50860000Y-92710000D02*
X48200000Y-92710000D01*
X50860000Y-93980000D02*
X50860000Y-95310000D01*
X50860000Y-95310000D02*
X49530000Y-95310000D01*
%TO.C,J0*%
X29150000Y-95310000D02*
X31810000Y-95310000D01*
X29150000Y-57150000D02*
X29150000Y-95310000D01*
X31810000Y-57150000D02*
X31810000Y-95310000D01*
X29150000Y-57150000D02*
X31810000Y-57150000D01*
X29150000Y-55880000D02*
X29150000Y-54550000D01*
X29150000Y-54550000D02*
X30480000Y-54550000D01*
%TO.C,C1*%
D10*
X43013333Y-91162142D02*
X42965714Y-91209761D01*
X42822857Y-91257380D01*
X42727619Y-91257380D01*
X42584761Y-91209761D01*
X42489523Y-91114523D01*
X42441904Y-91019285D01*
X42394285Y-90828809D01*
X42394285Y-90685952D01*
X42441904Y-90495476D01*
X42489523Y-90400238D01*
X42584761Y-90305000D01*
X42727619Y-90257380D01*
X42822857Y-90257380D01*
X42965714Y-90305000D01*
X43013333Y-90352619D01*
X43965714Y-91257380D02*
X43394285Y-91257380D01*
X43680000Y-91257380D02*
X43680000Y-90257380D01*
X43584761Y-90400238D01*
X43489523Y-90495476D01*
X43394285Y-90543095D01*
%TO.C,U1*%
X46182380Y-74981904D02*
X46991904Y-74981904D01*
X47087142Y-74934285D01*
X47134761Y-74886666D01*
X47182380Y-74791428D01*
X47182380Y-74600952D01*
X47134761Y-74505714D01*
X47087142Y-74458095D01*
X46991904Y-74410476D01*
X46182380Y-74410476D01*
X47182380Y-73410476D02*
X47182380Y-73981904D01*
X47182380Y-73696190D02*
X46182380Y-73696190D01*
X46325238Y-73791428D01*
X46420476Y-73886666D01*
X46468095Y-73981904D01*
%TD*%
M02*
