M48
; DRILL file {KiCad (5.1.7)-1} date 07/11/22 22:21:32
; FORMAT={-:-/ absolute / metric / decimal}
; #@! TF.CreationDate,2022-07-11T22:21:32-03:00
; #@! TF.GenerationSoftware,Kicad,Pcbnew,(5.1.7)-1
FMAT,2
METRIC
T1C0.400
T2C0.800
T3C1.000
%
G90
G05
T1
X32.48Y-86.72
X32.98Y-90.72
X33.98Y-86.72
X34.98Y-66.72
X35.56Y-48.26
X36.48Y-66.72
X36.49Y-57.21
X36.49Y-61.23
X37.98Y-54.72
X37.98Y-61.22
X39.48Y-56.72
X39.48Y-61.22
X39.624Y-68.72
X40.48Y-66.72
X40.98Y-57.22
X40.98Y-61.22
X41.98Y-55.22
X42.48Y-61.22
X42.48Y-71.22
X42.5Y-76.2
X42.98Y-81.72
X43.98Y-78.72
X43.98Y-80.22
X44.48Y-73.22
X44.48Y-82.22
X44.98Y-67.72
X44.98Y-87.22
X44.98Y-93.22
X46.48Y-58.72
X46.48Y-64.72
X46.48Y-68.72
X46.48Y-71.22
X46.48Y-73.22
X46.48Y-78.72
X46.48Y-80.22
X46.48Y-81.72
X46.5Y-76.2
T2
X45.085Y-46.355
X47.585Y-46.355
X34.29Y-54.61
X44.45Y-54.61
X39.37Y-88.305
X39.37Y-90.805
T3
X49.53Y-55.88
X49.53Y-58.42
X49.53Y-60.96
X49.53Y-63.5
X49.53Y-66.04
X49.53Y-68.58
X49.53Y-71.12
X49.53Y-73.66
X49.53Y-76.2
X49.53Y-78.74
X49.53Y-81.28
X49.53Y-83.82
X49.53Y-86.36
X49.53Y-88.9
X49.53Y-91.44
X49.53Y-93.98
X30.48Y-55.88
X30.48Y-58.42
X30.48Y-60.96
X30.48Y-63.5
X30.48Y-66.04
X30.48Y-68.58
X30.48Y-71.12
X30.48Y-73.66
X30.48Y-76.2
X30.48Y-78.74
X30.48Y-81.28
X30.48Y-83.82
X30.48Y-86.36
X30.48Y-88.9
X30.48Y-91.44
X30.48Y-93.98
X30.48Y-50.8
X33.02Y-50.8
X35.56Y-50.8
X38.1Y-50.8
T0
M30
