%TF.GenerationSoftware,KiCad,Pcbnew,(5.1.7)-1*%
%TF.CreationDate,2022-07-04T22:32:29-03:00*%
%TF.ProjectId,progshield,70726f67-7368-4696-956c-642e6b696361,rev?*%
%TF.SameCoordinates,Original*%
%TF.FileFunction,Soldermask,Top*%
%TF.FilePolarity,Negative*%
%FSLAX46Y46*%
G04 Gerber Fmt 4.6, Leading zero omitted, Abs format (unit mm)*
G04 Created by KiCad (PCBNEW (5.1.7)-1) date 2022-07-04 22:32:29*
%MOMM*%
%LPD*%
G01*
G04 APERTURE LIST*
%ADD10O,1.727200X1.727200*%
%ADD11C,3.200000*%
%ADD12O,1.740000X2.190000*%
%ADD13C,2.200000*%
%ADD14C,4.600000*%
%ADD15C,2.600000*%
%ADD16C,1.600000*%
%ADD17O,1.600000X1.600000*%
%ADD18C,1.800000*%
%ADD19R,1.800000X1.800000*%
%ADD20O,1.440000X2.000000*%
%ADD21R,1.440000X2.000000*%
%ADD22C,2.000000*%
%ADD23R,1.600000X1.600000*%
G04 APERTURE END LIST*
D10*
%TO.C,XA1*%
X127000000Y-83820000D03*
X124460000Y-83820000D03*
X127000000Y-81280000D03*
X124460000Y-81280000D03*
X127000000Y-78740000D03*
X124460000Y-78740000D03*
X127000000Y-76200000D03*
X124460000Y-76200000D03*
X127000000Y-73660000D03*
X124460000Y-73660000D03*
X127000000Y-71120000D03*
X124460000Y-71120000D03*
X127000000Y-68580000D03*
X124460000Y-68580000D03*
X127000000Y-66040000D03*
X124460000Y-66040000D03*
X127000000Y-63500000D03*
X124460000Y-63500000D03*
X127000000Y-60960000D03*
X124460000Y-60960000D03*
X127000000Y-58420000D03*
X124460000Y-58420000D03*
X127000000Y-55880000D03*
X124460000Y-55880000D03*
X127000000Y-53340000D03*
X124460000Y-53340000D03*
X127000000Y-50800000D03*
X124460000Y-50800000D03*
X127000000Y-48260000D03*
X124460000Y-48260000D03*
X127000000Y-45720000D03*
X124460000Y-45720000D03*
X127000000Y-43180000D03*
X124460000Y-43180000D03*
X127000000Y-40640000D03*
X124460000Y-40640000D03*
X121920000Y-88900000D03*
X119380000Y-88900000D03*
X116840000Y-88900000D03*
X114300000Y-88900000D03*
X111760000Y-88900000D03*
X109220000Y-88900000D03*
X106680000Y-88900000D03*
X104140000Y-88900000D03*
X99060000Y-88900000D03*
X96520000Y-88900000D03*
X93980000Y-88900000D03*
X91440000Y-88900000D03*
X88900000Y-88900000D03*
X86360000Y-88900000D03*
X83820000Y-88900000D03*
X58420000Y-88900000D03*
X64516000Y-40640000D03*
X61976000Y-40640000D03*
X59436000Y-40640000D03*
X54356000Y-40640000D03*
X51816000Y-40640000D03*
X49276000Y-40640000D03*
D11*
X127000000Y-88900000D03*
X45720000Y-40640000D03*
X120650000Y-40640000D03*
X96520000Y-83820000D03*
D10*
X67056000Y-40640000D03*
X69596000Y-40640000D03*
X72136000Y-40640000D03*
X56896000Y-40640000D03*
X76200000Y-40640000D03*
X78740000Y-40640000D03*
X81280000Y-40640000D03*
X83820000Y-40640000D03*
X86360000Y-40640000D03*
X88900000Y-40640000D03*
X91440000Y-40640000D03*
X93980000Y-40640000D03*
X99060000Y-40640000D03*
X101600000Y-40640000D03*
X104140000Y-40640000D03*
X106680000Y-40640000D03*
X109220000Y-40640000D03*
X111760000Y-40640000D03*
X114300000Y-40640000D03*
X116840000Y-40640000D03*
X60960000Y-88900000D03*
X63500000Y-88900000D03*
X66040000Y-88900000D03*
X68580000Y-88900000D03*
X71120000Y-88900000D03*
X73660000Y-88900000D03*
X76200000Y-88900000D03*
X81280000Y-88900000D03*
%TD*%
D12*
%TO.C,J2*%
X127000000Y-30480000D03*
X129540000Y-30480000D03*
G36*
G01*
X132950000Y-29634999D02*
X132950000Y-31325001D01*
G75*
G02*
X132700001Y-31575000I-249999J0D01*
G01*
X131459999Y-31575000D01*
G75*
G02*
X131210000Y-31325001I0J249999D01*
G01*
X131210000Y-29634999D01*
G75*
G02*
X131459999Y-29385000I249999J0D01*
G01*
X132700001Y-29385000D01*
G75*
G02*
X132950000Y-29634999I0J-249999D01*
G01*
G37*
%TD*%
D13*
%TO.C,J1*%
X156400000Y-94300000D03*
X156400000Y-32700000D03*
D14*
X149200000Y-100500000D03*
X149200000Y-26500000D03*
D15*
X149100000Y-35550000D03*
X149100000Y-91450000D03*
D14*
X142500000Y-32700000D03*
X142500000Y-94300000D03*
D16*
X139700000Y-40250000D03*
X141200000Y-41750000D03*
X139700000Y-43250000D03*
X141200000Y-44750000D03*
X139700000Y-46250000D03*
X141200000Y-47750000D03*
X139700000Y-49250000D03*
X141200000Y-50750000D03*
X139700000Y-52250000D03*
X141200000Y-53750000D03*
X139700000Y-55250000D03*
X141200000Y-56750000D03*
X139700000Y-58250000D03*
X141200000Y-59750000D03*
X139700000Y-61250000D03*
X141200000Y-62750000D03*
X139700000Y-64250000D03*
X141200000Y-65750000D03*
X139700000Y-67250000D03*
X141200000Y-68750000D03*
X139700000Y-70250000D03*
X141200000Y-71750000D03*
X139700000Y-73250000D03*
X141200000Y-74750000D03*
X139700000Y-76250000D03*
X141200000Y-77750000D03*
X139700000Y-79250000D03*
X141200000Y-80750000D03*
X139700000Y-82250000D03*
X141200000Y-83750000D03*
X139700000Y-85250000D03*
X141200000Y-86750000D03*
%TD*%
D17*
%TO.C,R6*%
X116840000Y-81280000D03*
D16*
X106680000Y-81280000D03*
%TD*%
D17*
%TO.C,R5*%
X82550000Y-81280000D03*
D16*
X72390000Y-81280000D03*
%TD*%
D17*
%TO.C,R4*%
X59055000Y-85090000D03*
D16*
X69215000Y-85090000D03*
%TD*%
D17*
%TO.C,R3*%
X82550000Y-85090000D03*
D16*
X72390000Y-85090000D03*
%TD*%
D17*
%TO.C,R2*%
X92710000Y-46990000D03*
D16*
X102870000Y-46990000D03*
%TD*%
D17*
%TO.C,R1*%
X92710000Y-43815000D03*
D16*
X102870000Y-43815000D03*
%TD*%
D18*
%TO.C,D2*%
X116840000Y-45720000D03*
D19*
X114300000Y-45720000D03*
%TD*%
D18*
%TO.C,D1*%
X109220000Y-45720000D03*
D19*
X106680000Y-45720000D03*
%TD*%
D20*
%TO.C,U1*%
X50800000Y-71120000D03*
X50800000Y-55880000D03*
X53340000Y-71120000D03*
X53340000Y-55880000D03*
X55880000Y-71120000D03*
X55880000Y-55880000D03*
X58420000Y-71120000D03*
X58420000Y-55880000D03*
X60960000Y-71120000D03*
X60960000Y-55880000D03*
X63500000Y-71120000D03*
X63500000Y-55880000D03*
X66040000Y-71120000D03*
X66040000Y-55880000D03*
X68580000Y-71120000D03*
X68580000Y-55880000D03*
X71120000Y-71120000D03*
X71120000Y-55880000D03*
X73660000Y-71120000D03*
X73660000Y-55880000D03*
X76200000Y-71120000D03*
X76200000Y-55880000D03*
X78740000Y-71120000D03*
X78740000Y-55880000D03*
X81280000Y-71120000D03*
X81280000Y-55880000D03*
X83820000Y-71120000D03*
X83820000Y-55880000D03*
X86360000Y-71120000D03*
X86360000Y-55880000D03*
X88900000Y-71120000D03*
D21*
X88900000Y-55880000D03*
%TD*%
D22*
%TO.C,SW1*%
X55245000Y-88415000D03*
X50745000Y-88415000D03*
X55245000Y-81915000D03*
X50745000Y-81915000D03*
%TD*%
D16*
%TO.C,C1*%
X88900000Y-77510000D03*
D23*
X88900000Y-80010000D03*
%TD*%
M02*
