%TF.GenerationSoftware,KiCad,Pcbnew,(5.1.7)-1*%
%TF.CreationDate,2022-07-11T22:21:29-03:00*%
%TF.ProjectId,ROMboard,524f4d62-6f61-4726-942e-6b696361645f,rev?*%
%TF.SameCoordinates,Original*%
%TF.FileFunction,Copper,L2,Bot*%
%TF.FilePolarity,Positive*%
%FSLAX46Y46*%
G04 Gerber Fmt 4.6, Leading zero omitted, Abs format (unit mm)*
G04 Created by KiCad (PCBNEW (5.1.7)-1) date 2022-07-11 22:21:29*
%MOMM*%
%LPD*%
G01*
G04 APERTURE LIST*
%TA.AperFunction,ComponentPad*%
%ADD10C,1.600000*%
%TD*%
%TA.AperFunction,ComponentPad*%
%ADD11R,1.600000X1.600000*%
%TD*%
%TA.AperFunction,ComponentPad*%
%ADD12O,1.600000X1.600000*%
%TD*%
%TA.AperFunction,ComponentPad*%
%ADD13O,1.700000X1.700000*%
%TD*%
%TA.AperFunction,ComponentPad*%
%ADD14R,1.700000X1.700000*%
%TD*%
%TA.AperFunction,ViaPad*%
%ADD15C,0.800000*%
%TD*%
%TA.AperFunction,Conductor*%
%ADD16C,0.250000*%
%TD*%
%TA.AperFunction,Conductor*%
%ADD17C,0.254000*%
%TD*%
%TA.AperFunction,Conductor*%
%ADD18C,0.100000*%
%TD*%
G04 APERTURE END LIST*
D10*
%TO.P,C2,2*%
%TO.N,GND*%
X47585000Y-46355000D03*
D11*
%TO.P,C2,1*%
%TO.N,+5V*%
X45085000Y-46355000D03*
%TD*%
D10*
%TO.P,C1,2*%
%TO.N,GND*%
X39370000Y-90805000D03*
D11*
%TO.P,C1,1*%
%TO.N,+5V*%
X39370000Y-88305000D03*
%TD*%
D12*
%TO.P,R1,2*%
%TO.N,/RST_N*%
X34290000Y-54610000D03*
D10*
%TO.P,R1,1*%
%TO.N,+5V*%
X44450000Y-54610000D03*
%TD*%
D13*
%TO.P,J2,4*%
%TO.N,/RA22*%
X30480000Y-50800000D03*
%TO.P,J2,3*%
%TO.N,/RA21*%
X33020000Y-50800000D03*
%TO.P,J2,2*%
%TO.N,/RA20*%
X35560000Y-50800000D03*
D14*
%TO.P,J2,1*%
%TO.N,/RA19*%
X38100000Y-50800000D03*
%TD*%
D13*
%TO.P,J1,16*%
%TO.N,+5V*%
X49530000Y-55880000D03*
%TO.P,J1,15*%
%TO.N,/ROMWR_N*%
X49530000Y-58420000D03*
%TO.P,J1,14*%
%TO.N,/RA17*%
X49530000Y-60960000D03*
%TO.P,J1,13*%
%TO.N,/RA14*%
X49530000Y-63500000D03*
%TO.P,J1,12*%
%TO.N,/A13*%
X49530000Y-66040000D03*
%TO.P,J1,11*%
%TO.N,/A8*%
X49530000Y-68580000D03*
%TO.P,J1,10*%
%TO.N,/A9*%
X49530000Y-71120000D03*
%TO.P,J1,9*%
%TO.N,/A11*%
X49530000Y-73660000D03*
%TO.P,J1,8*%
%TO.N,/RD_N*%
X49530000Y-76200000D03*
%TO.P,J1,7*%
%TO.N,/A10*%
X49530000Y-78740000D03*
%TO.P,J1,6*%
%TO.N,/CE_N*%
X49530000Y-81280000D03*
%TO.P,J1,5*%
%TO.N,/D7*%
X49530000Y-83820000D03*
%TO.P,J1,4*%
%TO.N,/D6*%
X49530000Y-86360000D03*
%TO.P,J1,3*%
%TO.N,/D5*%
X49530000Y-88900000D03*
%TO.P,J1,2*%
%TO.N,/D4*%
X49530000Y-91440000D03*
D14*
%TO.P,J1,1*%
%TO.N,/D3*%
X49530000Y-93980000D03*
%TD*%
D13*
%TO.P,J0,16*%
%TO.N,GND*%
X30480000Y-93980000D03*
%TO.P,J0,15*%
%TO.N,/D2*%
X30480000Y-91440000D03*
%TO.P,J0,14*%
%TO.N,/D1*%
X30480000Y-88900000D03*
%TO.P,J0,13*%
%TO.N,/D0*%
X30480000Y-86360000D03*
%TO.P,J0,12*%
%TO.N,/A0*%
X30480000Y-83820000D03*
%TO.P,J0,11*%
%TO.N,/A1*%
X30480000Y-81280000D03*
%TO.P,J0,10*%
%TO.N,/A2*%
X30480000Y-78740000D03*
%TO.P,J0,9*%
%TO.N,/A3*%
X30480000Y-76200000D03*
%TO.P,J0,8*%
%TO.N,/A4*%
X30480000Y-73660000D03*
%TO.P,J0,7*%
%TO.N,/A5*%
X30480000Y-71120000D03*
%TO.P,J0,6*%
%TO.N,/A6*%
X30480000Y-68580000D03*
%TO.P,J0,5*%
%TO.N,/A7*%
X30480000Y-66040000D03*
%TO.P,J0,4*%
%TO.N,/A12*%
X30480000Y-63500000D03*
%TO.P,J0,3*%
%TO.N,/RA15*%
X30480000Y-60960000D03*
%TO.P,J0,2*%
%TO.N,/RA16*%
X30480000Y-58420000D03*
D14*
%TO.P,J0,1*%
%TO.N,/RA18*%
X30480000Y-55880000D03*
%TD*%
D15*
%TO.N,+5V*%
X46480000Y-81720000D03*
X42980000Y-81720000D03*
%TO.N,GND*%
X33980000Y-86720000D03*
X44480000Y-82220000D03*
X35560000Y-48260000D03*
%TO.N,/A0*%
X44980000Y-87220000D03*
X32480000Y-86720000D03*
X32980000Y-90720000D03*
X44980000Y-93220000D03*
%TO.N,/A6*%
X34980000Y-66720000D03*
%TO.N,/A7*%
X36480000Y-66720000D03*
%TO.N,/RA18*%
X36490002Y-61230002D03*
X36490002Y-57209998D03*
%TO.N,/ROMWR_N*%
X40980000Y-61220000D03*
X40980000Y-57220000D03*
%TO.N,/RA17*%
X44980000Y-67720000D03*
X46480000Y-64720000D03*
%TO.N,/A8*%
X46480000Y-68720000D03*
X39624000Y-68720000D03*
%TO.N,/A9*%
X46480000Y-71220000D03*
X42480000Y-71220000D03*
%TO.N,/A11*%
X46480000Y-73220000D03*
X44480000Y-73220000D03*
%TO.N,/RD_N*%
X46500000Y-76200000D03*
X42500000Y-76200000D03*
%TO.N,/A10*%
X46480000Y-78720000D03*
X43980000Y-78720000D03*
%TO.N,/CE_N*%
X46480000Y-80220000D03*
X43980000Y-80220000D03*
X40480000Y-66720000D03*
X46480000Y-58720000D03*
%TO.N,/RA20*%
X42480000Y-61220000D03*
X41980000Y-55220000D03*
%TO.N,/RA19*%
X37980000Y-61220000D03*
X37980000Y-54720000D03*
%TO.N,/RST_N*%
X39480000Y-61220000D03*
X39480000Y-56720000D03*
%TD*%
D16*
%TO.N,+5V*%
X42980000Y-81720000D02*
X42980000Y-81720000D01*
X42980000Y-81720000D02*
X43480000Y-81220000D01*
X43480000Y-81220000D02*
X45980000Y-81220000D01*
X45980000Y-81220000D02*
X46480000Y-81720000D01*
%TO.N,/A0*%
X32480000Y-86720000D02*
X32480000Y-90220000D01*
X32480000Y-90220000D02*
X32980000Y-90720000D01*
X32980000Y-90720000D02*
X32980000Y-90720000D01*
X44980000Y-93220000D02*
X44980000Y-87220000D01*
%TO.N,/A6*%
X30480000Y-68580000D02*
X32340000Y-66720000D01*
X32340000Y-66720000D02*
X34980000Y-66720000D01*
%TO.N,/A7*%
X30525001Y-65994999D02*
X35754999Y-65994999D01*
X30480000Y-66040000D02*
X30525001Y-65994999D01*
X35754999Y-65994999D02*
X36480000Y-66720000D01*
%TO.N,/RA18*%
X36490002Y-61230002D02*
X36490002Y-57209998D01*
%TO.N,/ROMWR_N*%
X40980000Y-61220000D02*
X40980000Y-57220000D01*
X40980000Y-57220000D02*
X40980000Y-57220000D01*
%TO.N,/RA17*%
X44980000Y-67720000D02*
X46480000Y-66220000D01*
X46480000Y-66220000D02*
X46480000Y-64720000D01*
X46480000Y-64720000D02*
X46480000Y-64720000D01*
%TO.N,/A8*%
X46480000Y-68720000D02*
X46480000Y-68720000D01*
X46480000Y-68720000D02*
X40980000Y-68720000D01*
X40980000Y-68720000D02*
X39624000Y-68720000D01*
%TO.N,/A9*%
X46480000Y-71220000D02*
X46480000Y-71220000D01*
X46480000Y-71220000D02*
X42480000Y-71220000D01*
%TO.N,/A11*%
X46480000Y-73220000D02*
X46480000Y-73220000D01*
X44480000Y-73220000D02*
X46480000Y-73220000D01*
%TO.N,/RD_N*%
X46500000Y-76200000D02*
X42500000Y-76200000D01*
X42500000Y-76200000D02*
X42500000Y-76200000D01*
%TO.N,/A10*%
X46480000Y-78720000D02*
X46480000Y-78720000D01*
X43980000Y-78720000D02*
X46480000Y-78720000D01*
%TO.N,/CE_N*%
X46480000Y-80220000D02*
X43980000Y-80220000D01*
X43980000Y-80220000D02*
X43980000Y-80220000D01*
X46480000Y-58720000D02*
X46480000Y-58720000D01*
X46480000Y-59565000D02*
X46480000Y-58720000D01*
X46480000Y-60200000D02*
X46480000Y-59565000D01*
X40480000Y-66200000D02*
X46480000Y-60200000D01*
X40480000Y-66720000D02*
X40480000Y-66200000D01*
%TO.N,/RA20*%
X42480000Y-61220000D02*
X42480000Y-55720000D01*
X42480000Y-55720000D02*
X41980000Y-55220000D01*
X41980000Y-55220000D02*
X41980000Y-55220000D01*
%TO.N,/RA19*%
X37980000Y-61220000D02*
X37980000Y-55720000D01*
X37980000Y-55720000D02*
X37980000Y-55720000D01*
X37980000Y-55720000D02*
X37980000Y-54720000D01*
%TO.N,/RST_N*%
X39480000Y-61220000D02*
X39480000Y-57220000D01*
X39480000Y-57220000D02*
X39480000Y-56720000D01*
%TD*%
D17*
%TO.N,GND*%
X50774513Y-42570666D02*
X50775001Y-42575310D01*
X50775001Y-55070346D01*
X50683475Y-54933368D01*
X50476632Y-54726525D01*
X50233411Y-54564010D01*
X49963158Y-54452068D01*
X49676260Y-54395000D01*
X49383740Y-54395000D01*
X49096842Y-54452068D01*
X48826589Y-54564010D01*
X48583368Y-54726525D01*
X48376525Y-54933368D01*
X48214010Y-55176589D01*
X48102068Y-55446842D01*
X48045000Y-55733740D01*
X48045000Y-56026260D01*
X48102068Y-56313158D01*
X48214010Y-56583411D01*
X48376525Y-56826632D01*
X48583368Y-57033475D01*
X48757760Y-57150000D01*
X48583368Y-57266525D01*
X48376525Y-57473368D01*
X48214010Y-57716589D01*
X48102068Y-57986842D01*
X48045000Y-58273740D01*
X48045000Y-58566260D01*
X48102068Y-58853158D01*
X48214010Y-59123411D01*
X48376525Y-59366632D01*
X48583368Y-59573475D01*
X48757760Y-59690000D01*
X48583368Y-59806525D01*
X48376525Y-60013368D01*
X48214010Y-60256589D01*
X48102068Y-60526842D01*
X48045000Y-60813740D01*
X48045000Y-61106260D01*
X48102068Y-61393158D01*
X48214010Y-61663411D01*
X48376525Y-61906632D01*
X48583368Y-62113475D01*
X48757760Y-62230000D01*
X48583368Y-62346525D01*
X48376525Y-62553368D01*
X48214010Y-62796589D01*
X48102068Y-63066842D01*
X48045000Y-63353740D01*
X48045000Y-63646260D01*
X48102068Y-63933158D01*
X48214010Y-64203411D01*
X48376525Y-64446632D01*
X48583368Y-64653475D01*
X48757760Y-64770000D01*
X48583368Y-64886525D01*
X48376525Y-65093368D01*
X48214010Y-65336589D01*
X48102068Y-65606842D01*
X48045000Y-65893740D01*
X48045000Y-66186260D01*
X48102068Y-66473158D01*
X48214010Y-66743411D01*
X48376525Y-66986632D01*
X48583368Y-67193475D01*
X48757760Y-67310000D01*
X48583368Y-67426525D01*
X48376525Y-67633368D01*
X48214010Y-67876589D01*
X48102068Y-68146842D01*
X48045000Y-68433740D01*
X48045000Y-68726260D01*
X48102068Y-69013158D01*
X48214010Y-69283411D01*
X48376525Y-69526632D01*
X48583368Y-69733475D01*
X48757760Y-69850000D01*
X48583368Y-69966525D01*
X48376525Y-70173368D01*
X48214010Y-70416589D01*
X48102068Y-70686842D01*
X48045000Y-70973740D01*
X48045000Y-71266260D01*
X48102068Y-71553158D01*
X48214010Y-71823411D01*
X48376525Y-72066632D01*
X48583368Y-72273475D01*
X48757760Y-72390000D01*
X48583368Y-72506525D01*
X48376525Y-72713368D01*
X48214010Y-72956589D01*
X48102068Y-73226842D01*
X48045000Y-73513740D01*
X48045000Y-73806260D01*
X48102068Y-74093158D01*
X48214010Y-74363411D01*
X48376525Y-74606632D01*
X48583368Y-74813475D01*
X48757760Y-74930000D01*
X48583368Y-75046525D01*
X48376525Y-75253368D01*
X48214010Y-75496589D01*
X48102068Y-75766842D01*
X48045000Y-76053740D01*
X48045000Y-76346260D01*
X48102068Y-76633158D01*
X48214010Y-76903411D01*
X48376525Y-77146632D01*
X48583368Y-77353475D01*
X48757760Y-77470000D01*
X48583368Y-77586525D01*
X48376525Y-77793368D01*
X48214010Y-78036589D01*
X48102068Y-78306842D01*
X48045000Y-78593740D01*
X48045000Y-78886260D01*
X48102068Y-79173158D01*
X48214010Y-79443411D01*
X48376525Y-79686632D01*
X48583368Y-79893475D01*
X48757760Y-80010000D01*
X48583368Y-80126525D01*
X48376525Y-80333368D01*
X48214010Y-80576589D01*
X48102068Y-80846842D01*
X48045000Y-81133740D01*
X48045000Y-81426260D01*
X48102068Y-81713158D01*
X48214010Y-81983411D01*
X48376525Y-82226632D01*
X48583368Y-82433475D01*
X48757760Y-82550000D01*
X48583368Y-82666525D01*
X48376525Y-82873368D01*
X48214010Y-83116589D01*
X48102068Y-83386842D01*
X48045000Y-83673740D01*
X48045000Y-83966260D01*
X48102068Y-84253158D01*
X48214010Y-84523411D01*
X48376525Y-84766632D01*
X48583368Y-84973475D01*
X48757760Y-85090000D01*
X48583368Y-85206525D01*
X48376525Y-85413368D01*
X48214010Y-85656589D01*
X48102068Y-85926842D01*
X48045000Y-86213740D01*
X48045000Y-86506260D01*
X48102068Y-86793158D01*
X48214010Y-87063411D01*
X48376525Y-87306632D01*
X48583368Y-87513475D01*
X48757760Y-87630000D01*
X48583368Y-87746525D01*
X48376525Y-87953368D01*
X48214010Y-88196589D01*
X48102068Y-88466842D01*
X48045000Y-88753740D01*
X48045000Y-89046260D01*
X48102068Y-89333158D01*
X48214010Y-89603411D01*
X48376525Y-89846632D01*
X48583368Y-90053475D01*
X48757760Y-90170000D01*
X48583368Y-90286525D01*
X48376525Y-90493368D01*
X48214010Y-90736589D01*
X48102068Y-91006842D01*
X48045000Y-91293740D01*
X48045000Y-91586260D01*
X48102068Y-91873158D01*
X48214010Y-92143411D01*
X48376525Y-92386632D01*
X48508380Y-92518487D01*
X48435820Y-92540498D01*
X48325506Y-92599463D01*
X48228815Y-92678815D01*
X48149463Y-92775506D01*
X48090498Y-92885820D01*
X48054188Y-93005518D01*
X48041928Y-93130000D01*
X48041928Y-94830000D01*
X48054188Y-94954482D01*
X48090498Y-95074180D01*
X48149463Y-95184494D01*
X48228815Y-95281185D01*
X48325506Y-95360537D01*
X48435820Y-95419502D01*
X48555518Y-95455812D01*
X48680000Y-95468072D01*
X50380000Y-95468072D01*
X50504482Y-95455812D01*
X50624180Y-95419502D01*
X50734494Y-95360537D01*
X50775000Y-95327295D01*
X50775000Y-95852725D01*
X50774335Y-95859513D01*
X50769699Y-95860000D01*
X29242275Y-95860000D01*
X29235487Y-95859335D01*
X29235000Y-95854699D01*
X29235000Y-94782637D01*
X29382412Y-94980269D01*
X29598645Y-95175178D01*
X29848748Y-95324157D01*
X30123109Y-95421481D01*
X30353000Y-95300814D01*
X30353000Y-94107000D01*
X30607000Y-94107000D01*
X30607000Y-95300814D01*
X30836891Y-95421481D01*
X31111252Y-95324157D01*
X31361355Y-95175178D01*
X31577588Y-94980269D01*
X31751641Y-94746920D01*
X31876825Y-94484099D01*
X31921476Y-94336890D01*
X31800155Y-94107000D01*
X30607000Y-94107000D01*
X30353000Y-94107000D01*
X30333000Y-94107000D01*
X30333000Y-93853000D01*
X30353000Y-93853000D01*
X30353000Y-93833000D01*
X30607000Y-93833000D01*
X30607000Y-93853000D01*
X31800155Y-93853000D01*
X31921476Y-93623110D01*
X31876825Y-93475901D01*
X31751641Y-93213080D01*
X31577588Y-92979731D01*
X31361355Y-92784822D01*
X31244466Y-92715195D01*
X31426632Y-92593475D01*
X31633475Y-92386632D01*
X31795990Y-92143411D01*
X31907932Y-91873158D01*
X31922941Y-91797702D01*
X38556903Y-91797702D01*
X38628486Y-92041671D01*
X38883996Y-92162571D01*
X39158184Y-92231300D01*
X39440512Y-92245217D01*
X39720130Y-92203787D01*
X39986292Y-92108603D01*
X40111514Y-92041671D01*
X40183097Y-91797702D01*
X39370000Y-90984605D01*
X38556903Y-91797702D01*
X31922941Y-91797702D01*
X31965000Y-91586260D01*
X31965000Y-91293740D01*
X31907932Y-91006842D01*
X31795990Y-90736589D01*
X31633475Y-90493368D01*
X31426632Y-90286525D01*
X31252240Y-90170000D01*
X31426632Y-90053475D01*
X31633475Y-89846632D01*
X31720001Y-89717137D01*
X31720001Y-90182668D01*
X31716324Y-90220000D01*
X31720001Y-90257333D01*
X31726955Y-90327932D01*
X31730998Y-90368985D01*
X31774454Y-90512246D01*
X31845026Y-90644276D01*
X31907172Y-90720000D01*
X31940000Y-90760001D01*
X31945000Y-90764104D01*
X31945000Y-90821939D01*
X31984774Y-91021898D01*
X32062795Y-91210256D01*
X32176063Y-91379774D01*
X32320226Y-91523937D01*
X32489744Y-91637205D01*
X32678102Y-91715226D01*
X32878061Y-91755000D01*
X33081939Y-91755000D01*
X33281898Y-91715226D01*
X33470256Y-91637205D01*
X33639774Y-91523937D01*
X33783937Y-91379774D01*
X33897205Y-91210256D01*
X33975226Y-91021898D01*
X34004343Y-90875512D01*
X37929783Y-90875512D01*
X37971213Y-91155130D01*
X38066397Y-91421292D01*
X38133329Y-91546514D01*
X38377298Y-91618097D01*
X39190395Y-90805000D01*
X39549605Y-90805000D01*
X40362702Y-91618097D01*
X40606671Y-91546514D01*
X40727571Y-91291004D01*
X40796300Y-91016816D01*
X40810217Y-90734488D01*
X40768787Y-90454870D01*
X40673603Y-90188708D01*
X40606671Y-90063486D01*
X40362702Y-89991903D01*
X39549605Y-90805000D01*
X39190395Y-90805000D01*
X38377298Y-89991903D01*
X38133329Y-90063486D01*
X38012429Y-90318996D01*
X37943700Y-90593184D01*
X37929783Y-90875512D01*
X34004343Y-90875512D01*
X34015000Y-90821939D01*
X34015000Y-90618061D01*
X33975226Y-90418102D01*
X33897205Y-90229744D01*
X33783937Y-90060226D01*
X33639774Y-89916063D01*
X33470256Y-89802795D01*
X33281898Y-89724774D01*
X33240000Y-89716440D01*
X33240000Y-87505000D01*
X37931928Y-87505000D01*
X37931928Y-89105000D01*
X37944188Y-89229482D01*
X37980498Y-89349180D01*
X38039463Y-89459494D01*
X38118815Y-89556185D01*
X38215506Y-89635537D01*
X38325820Y-89694502D01*
X38445518Y-89730812D01*
X38570000Y-89743072D01*
X38577215Y-89743072D01*
X38556903Y-89812298D01*
X39370000Y-90625395D01*
X40183097Y-89812298D01*
X40162785Y-89743072D01*
X40170000Y-89743072D01*
X40294482Y-89730812D01*
X40414180Y-89694502D01*
X40524494Y-89635537D01*
X40621185Y-89556185D01*
X40700537Y-89459494D01*
X40759502Y-89349180D01*
X40795812Y-89229482D01*
X40808072Y-89105000D01*
X40808072Y-87505000D01*
X40795812Y-87380518D01*
X40759502Y-87260820D01*
X40700537Y-87150506D01*
X40673911Y-87118061D01*
X43945000Y-87118061D01*
X43945000Y-87321939D01*
X43984774Y-87521898D01*
X44062795Y-87710256D01*
X44176063Y-87879774D01*
X44220001Y-87923712D01*
X44220000Y-92516289D01*
X44176063Y-92560226D01*
X44062795Y-92729744D01*
X43984774Y-92918102D01*
X43945000Y-93118061D01*
X43945000Y-93321939D01*
X43984774Y-93521898D01*
X44062795Y-93710256D01*
X44176063Y-93879774D01*
X44320226Y-94023937D01*
X44489744Y-94137205D01*
X44678102Y-94215226D01*
X44878061Y-94255000D01*
X45081939Y-94255000D01*
X45281898Y-94215226D01*
X45470256Y-94137205D01*
X45639774Y-94023937D01*
X45783937Y-93879774D01*
X45897205Y-93710256D01*
X45975226Y-93521898D01*
X46015000Y-93321939D01*
X46015000Y-93118061D01*
X45975226Y-92918102D01*
X45897205Y-92729744D01*
X45783937Y-92560226D01*
X45740000Y-92516289D01*
X45740000Y-87923711D01*
X45783937Y-87879774D01*
X45897205Y-87710256D01*
X45975226Y-87521898D01*
X46015000Y-87321939D01*
X46015000Y-87118061D01*
X45975226Y-86918102D01*
X45897205Y-86729744D01*
X45783937Y-86560226D01*
X45639774Y-86416063D01*
X45470256Y-86302795D01*
X45281898Y-86224774D01*
X45081939Y-86185000D01*
X44878061Y-86185000D01*
X44678102Y-86224774D01*
X44489744Y-86302795D01*
X44320226Y-86416063D01*
X44176063Y-86560226D01*
X44062795Y-86729744D01*
X43984774Y-86918102D01*
X43945000Y-87118061D01*
X40673911Y-87118061D01*
X40621185Y-87053815D01*
X40524494Y-86974463D01*
X40414180Y-86915498D01*
X40294482Y-86879188D01*
X40170000Y-86866928D01*
X38570000Y-86866928D01*
X38445518Y-86879188D01*
X38325820Y-86915498D01*
X38215506Y-86974463D01*
X38118815Y-87053815D01*
X38039463Y-87150506D01*
X37980498Y-87260820D01*
X37944188Y-87380518D01*
X37931928Y-87505000D01*
X33240000Y-87505000D01*
X33240000Y-87423711D01*
X33283937Y-87379774D01*
X33397205Y-87210256D01*
X33475226Y-87021898D01*
X33515000Y-86821939D01*
X33515000Y-86618061D01*
X33475226Y-86418102D01*
X33397205Y-86229744D01*
X33283937Y-86060226D01*
X33139774Y-85916063D01*
X32970256Y-85802795D01*
X32781898Y-85724774D01*
X32581939Y-85685000D01*
X32378061Y-85685000D01*
X32178102Y-85724774D01*
X31989744Y-85802795D01*
X31885423Y-85872500D01*
X31795990Y-85656589D01*
X31633475Y-85413368D01*
X31426632Y-85206525D01*
X31252240Y-85090000D01*
X31426632Y-84973475D01*
X31633475Y-84766632D01*
X31795990Y-84523411D01*
X31907932Y-84253158D01*
X31965000Y-83966260D01*
X31965000Y-83673740D01*
X31907932Y-83386842D01*
X31795990Y-83116589D01*
X31633475Y-82873368D01*
X31426632Y-82666525D01*
X31252240Y-82550000D01*
X31426632Y-82433475D01*
X31633475Y-82226632D01*
X31795990Y-81983411D01*
X31907932Y-81713158D01*
X31926848Y-81618061D01*
X41945000Y-81618061D01*
X41945000Y-81821939D01*
X41984774Y-82021898D01*
X42062795Y-82210256D01*
X42176063Y-82379774D01*
X42320226Y-82523937D01*
X42489744Y-82637205D01*
X42678102Y-82715226D01*
X42878061Y-82755000D01*
X43081939Y-82755000D01*
X43281898Y-82715226D01*
X43470256Y-82637205D01*
X43639774Y-82523937D01*
X43783937Y-82379774D01*
X43897205Y-82210256D01*
X43975226Y-82021898D01*
X43983560Y-81980000D01*
X45476440Y-81980000D01*
X45484774Y-82021898D01*
X45562795Y-82210256D01*
X45676063Y-82379774D01*
X45820226Y-82523937D01*
X45989744Y-82637205D01*
X46178102Y-82715226D01*
X46378061Y-82755000D01*
X46581939Y-82755000D01*
X46781898Y-82715226D01*
X46970256Y-82637205D01*
X47139774Y-82523937D01*
X47283937Y-82379774D01*
X47397205Y-82210256D01*
X47475226Y-82021898D01*
X47515000Y-81821939D01*
X47515000Y-81618061D01*
X47475226Y-81418102D01*
X47397205Y-81229744D01*
X47283937Y-81060226D01*
X47193711Y-80970000D01*
X47283937Y-80879774D01*
X47397205Y-80710256D01*
X47475226Y-80521898D01*
X47515000Y-80321939D01*
X47515000Y-80118061D01*
X47475226Y-79918102D01*
X47397205Y-79729744D01*
X47283937Y-79560226D01*
X47193711Y-79470000D01*
X47283937Y-79379774D01*
X47397205Y-79210256D01*
X47475226Y-79021898D01*
X47515000Y-78821939D01*
X47515000Y-78618061D01*
X47475226Y-78418102D01*
X47397205Y-78229744D01*
X47283937Y-78060226D01*
X47139774Y-77916063D01*
X46970256Y-77802795D01*
X46781898Y-77724774D01*
X46581939Y-77685000D01*
X46378061Y-77685000D01*
X46178102Y-77724774D01*
X45989744Y-77802795D01*
X45820226Y-77916063D01*
X45776289Y-77960000D01*
X44683711Y-77960000D01*
X44639774Y-77916063D01*
X44470256Y-77802795D01*
X44281898Y-77724774D01*
X44081939Y-77685000D01*
X43878061Y-77685000D01*
X43678102Y-77724774D01*
X43489744Y-77802795D01*
X43320226Y-77916063D01*
X43176063Y-78060226D01*
X43062795Y-78229744D01*
X42984774Y-78418102D01*
X42945000Y-78618061D01*
X42945000Y-78821939D01*
X42984774Y-79021898D01*
X43062795Y-79210256D01*
X43176063Y-79379774D01*
X43266289Y-79470000D01*
X43176063Y-79560226D01*
X43062795Y-79729744D01*
X42984774Y-79918102D01*
X42945000Y-80118061D01*
X42945000Y-80321939D01*
X42984774Y-80521898D01*
X43022289Y-80612466D01*
X42939999Y-80679999D01*
X42935895Y-80685000D01*
X42878061Y-80685000D01*
X42678102Y-80724774D01*
X42489744Y-80802795D01*
X42320226Y-80916063D01*
X42176063Y-81060226D01*
X42062795Y-81229744D01*
X41984774Y-81418102D01*
X41945000Y-81618061D01*
X31926848Y-81618061D01*
X31965000Y-81426260D01*
X31965000Y-81133740D01*
X31907932Y-80846842D01*
X31795990Y-80576589D01*
X31633475Y-80333368D01*
X31426632Y-80126525D01*
X31252240Y-80010000D01*
X31426632Y-79893475D01*
X31633475Y-79686632D01*
X31795990Y-79443411D01*
X31907932Y-79173158D01*
X31965000Y-78886260D01*
X31965000Y-78593740D01*
X31907932Y-78306842D01*
X31795990Y-78036589D01*
X31633475Y-77793368D01*
X31426632Y-77586525D01*
X31252240Y-77470000D01*
X31426632Y-77353475D01*
X31633475Y-77146632D01*
X31795990Y-76903411D01*
X31907932Y-76633158D01*
X31965000Y-76346260D01*
X31965000Y-76098061D01*
X41465000Y-76098061D01*
X41465000Y-76301939D01*
X41504774Y-76501898D01*
X41582795Y-76690256D01*
X41696063Y-76859774D01*
X41840226Y-77003937D01*
X42009744Y-77117205D01*
X42198102Y-77195226D01*
X42398061Y-77235000D01*
X42601939Y-77235000D01*
X42801898Y-77195226D01*
X42990256Y-77117205D01*
X43159774Y-77003937D01*
X43203711Y-76960000D01*
X45796289Y-76960000D01*
X45840226Y-77003937D01*
X46009744Y-77117205D01*
X46198102Y-77195226D01*
X46398061Y-77235000D01*
X46601939Y-77235000D01*
X46801898Y-77195226D01*
X46990256Y-77117205D01*
X47159774Y-77003937D01*
X47303937Y-76859774D01*
X47417205Y-76690256D01*
X47495226Y-76501898D01*
X47535000Y-76301939D01*
X47535000Y-76098061D01*
X47495226Y-75898102D01*
X47417205Y-75709744D01*
X47303937Y-75540226D01*
X47159774Y-75396063D01*
X46990256Y-75282795D01*
X46801898Y-75204774D01*
X46601939Y-75165000D01*
X46398061Y-75165000D01*
X46198102Y-75204774D01*
X46009744Y-75282795D01*
X45840226Y-75396063D01*
X45796289Y-75440000D01*
X43203711Y-75440000D01*
X43159774Y-75396063D01*
X42990256Y-75282795D01*
X42801898Y-75204774D01*
X42601939Y-75165000D01*
X42398061Y-75165000D01*
X42198102Y-75204774D01*
X42009744Y-75282795D01*
X41840226Y-75396063D01*
X41696063Y-75540226D01*
X41582795Y-75709744D01*
X41504774Y-75898102D01*
X41465000Y-76098061D01*
X31965000Y-76098061D01*
X31965000Y-76053740D01*
X31907932Y-75766842D01*
X31795990Y-75496589D01*
X31633475Y-75253368D01*
X31426632Y-75046525D01*
X31252240Y-74930000D01*
X31426632Y-74813475D01*
X31633475Y-74606632D01*
X31795990Y-74363411D01*
X31907932Y-74093158D01*
X31965000Y-73806260D01*
X31965000Y-73513740D01*
X31907932Y-73226842D01*
X31795990Y-72956589D01*
X31633475Y-72713368D01*
X31426632Y-72506525D01*
X31252240Y-72390000D01*
X31426632Y-72273475D01*
X31633475Y-72066632D01*
X31795990Y-71823411D01*
X31907932Y-71553158D01*
X31965000Y-71266260D01*
X31965000Y-71118061D01*
X41445000Y-71118061D01*
X41445000Y-71321939D01*
X41484774Y-71521898D01*
X41562795Y-71710256D01*
X41676063Y-71879774D01*
X41820226Y-72023937D01*
X41989744Y-72137205D01*
X42178102Y-72215226D01*
X42378061Y-72255000D01*
X42581939Y-72255000D01*
X42781898Y-72215226D01*
X42970256Y-72137205D01*
X43139774Y-72023937D01*
X43183711Y-71980000D01*
X45776289Y-71980000D01*
X45820226Y-72023937D01*
X45989744Y-72137205D01*
X46178102Y-72215226D01*
X46202103Y-72220000D01*
X46178102Y-72224774D01*
X45989744Y-72302795D01*
X45820226Y-72416063D01*
X45776289Y-72460000D01*
X45183711Y-72460000D01*
X45139774Y-72416063D01*
X44970256Y-72302795D01*
X44781898Y-72224774D01*
X44581939Y-72185000D01*
X44378061Y-72185000D01*
X44178102Y-72224774D01*
X43989744Y-72302795D01*
X43820226Y-72416063D01*
X43676063Y-72560226D01*
X43562795Y-72729744D01*
X43484774Y-72918102D01*
X43445000Y-73118061D01*
X43445000Y-73321939D01*
X43484774Y-73521898D01*
X43562795Y-73710256D01*
X43676063Y-73879774D01*
X43820226Y-74023937D01*
X43989744Y-74137205D01*
X44178102Y-74215226D01*
X44378061Y-74255000D01*
X44581939Y-74255000D01*
X44781898Y-74215226D01*
X44970256Y-74137205D01*
X45139774Y-74023937D01*
X45183711Y-73980000D01*
X45776289Y-73980000D01*
X45820226Y-74023937D01*
X45989744Y-74137205D01*
X46178102Y-74215226D01*
X46378061Y-74255000D01*
X46581939Y-74255000D01*
X46781898Y-74215226D01*
X46970256Y-74137205D01*
X47139774Y-74023937D01*
X47283937Y-73879774D01*
X47397205Y-73710256D01*
X47475226Y-73521898D01*
X47515000Y-73321939D01*
X47515000Y-73118061D01*
X47475226Y-72918102D01*
X47397205Y-72729744D01*
X47283937Y-72560226D01*
X47139774Y-72416063D01*
X46970256Y-72302795D01*
X46781898Y-72224774D01*
X46757897Y-72220000D01*
X46781898Y-72215226D01*
X46970256Y-72137205D01*
X47139774Y-72023937D01*
X47283937Y-71879774D01*
X47397205Y-71710256D01*
X47475226Y-71521898D01*
X47515000Y-71321939D01*
X47515000Y-71118061D01*
X47475226Y-70918102D01*
X47397205Y-70729744D01*
X47283937Y-70560226D01*
X47139774Y-70416063D01*
X46970256Y-70302795D01*
X46781898Y-70224774D01*
X46581939Y-70185000D01*
X46378061Y-70185000D01*
X46178102Y-70224774D01*
X45989744Y-70302795D01*
X45820226Y-70416063D01*
X45776289Y-70460000D01*
X43183711Y-70460000D01*
X43139774Y-70416063D01*
X42970256Y-70302795D01*
X42781898Y-70224774D01*
X42581939Y-70185000D01*
X42378061Y-70185000D01*
X42178102Y-70224774D01*
X41989744Y-70302795D01*
X41820226Y-70416063D01*
X41676063Y-70560226D01*
X41562795Y-70729744D01*
X41484774Y-70918102D01*
X41445000Y-71118061D01*
X31965000Y-71118061D01*
X31965000Y-70973740D01*
X31907932Y-70686842D01*
X31795990Y-70416589D01*
X31633475Y-70173368D01*
X31426632Y-69966525D01*
X31252240Y-69850000D01*
X31426632Y-69733475D01*
X31633475Y-69526632D01*
X31795990Y-69283411D01*
X31907932Y-69013158D01*
X31965000Y-68726260D01*
X31965000Y-68618061D01*
X38589000Y-68618061D01*
X38589000Y-68821939D01*
X38628774Y-69021898D01*
X38706795Y-69210256D01*
X38820063Y-69379774D01*
X38964226Y-69523937D01*
X39133744Y-69637205D01*
X39322102Y-69715226D01*
X39522061Y-69755000D01*
X39725939Y-69755000D01*
X39925898Y-69715226D01*
X40114256Y-69637205D01*
X40283774Y-69523937D01*
X40327711Y-69480000D01*
X45776289Y-69480000D01*
X45820226Y-69523937D01*
X45989744Y-69637205D01*
X46178102Y-69715226D01*
X46378061Y-69755000D01*
X46581939Y-69755000D01*
X46781898Y-69715226D01*
X46970256Y-69637205D01*
X47139774Y-69523937D01*
X47283937Y-69379774D01*
X47397205Y-69210256D01*
X47475226Y-69021898D01*
X47515000Y-68821939D01*
X47515000Y-68618061D01*
X47475226Y-68418102D01*
X47397205Y-68229744D01*
X47283937Y-68060226D01*
X47139774Y-67916063D01*
X46970256Y-67802795D01*
X46781898Y-67724774D01*
X46581939Y-67685000D01*
X46378061Y-67685000D01*
X46178102Y-67724774D01*
X46015000Y-67792334D01*
X46015000Y-67759801D01*
X46991004Y-66783798D01*
X47020001Y-66760001D01*
X47114974Y-66644276D01*
X47185546Y-66512247D01*
X47229003Y-66368986D01*
X47240000Y-66257333D01*
X47240000Y-66257324D01*
X47243676Y-66220001D01*
X47240000Y-66182678D01*
X47240000Y-65423711D01*
X47283937Y-65379774D01*
X47397205Y-65210256D01*
X47475226Y-65021898D01*
X47515000Y-64821939D01*
X47515000Y-64618061D01*
X47475226Y-64418102D01*
X47397205Y-64229744D01*
X47283937Y-64060226D01*
X47139774Y-63916063D01*
X46970256Y-63802795D01*
X46781898Y-63724774D01*
X46581939Y-63685000D01*
X46378061Y-63685000D01*
X46178102Y-63724774D01*
X45989744Y-63802795D01*
X45820226Y-63916063D01*
X45676063Y-64060226D01*
X45562795Y-64229744D01*
X45484774Y-64418102D01*
X45445000Y-64618061D01*
X45445000Y-64821939D01*
X45484774Y-65021898D01*
X45562795Y-65210256D01*
X45676063Y-65379774D01*
X45720001Y-65423712D01*
X45720000Y-65905198D01*
X44940199Y-66685000D01*
X44878061Y-66685000D01*
X44678102Y-66724774D01*
X44489744Y-66802795D01*
X44320226Y-66916063D01*
X44176063Y-67060226D01*
X44062795Y-67229744D01*
X43984774Y-67418102D01*
X43945000Y-67618061D01*
X43945000Y-67821939D01*
X43972462Y-67960000D01*
X40327711Y-67960000D01*
X40283774Y-67916063D01*
X40114256Y-67802795D01*
X39925898Y-67724774D01*
X39725939Y-67685000D01*
X39522061Y-67685000D01*
X39322102Y-67724774D01*
X39133744Y-67802795D01*
X38964226Y-67916063D01*
X38820063Y-68060226D01*
X38706795Y-68229744D01*
X38628774Y-68418102D01*
X38589000Y-68618061D01*
X31965000Y-68618061D01*
X31965000Y-68433740D01*
X31921210Y-68213592D01*
X32654802Y-67480000D01*
X34276289Y-67480000D01*
X34320226Y-67523937D01*
X34489744Y-67637205D01*
X34678102Y-67715226D01*
X34878061Y-67755000D01*
X35081939Y-67755000D01*
X35281898Y-67715226D01*
X35470256Y-67637205D01*
X35639774Y-67523937D01*
X35730000Y-67433711D01*
X35820226Y-67523937D01*
X35989744Y-67637205D01*
X36178102Y-67715226D01*
X36378061Y-67755000D01*
X36581939Y-67755000D01*
X36781898Y-67715226D01*
X36970256Y-67637205D01*
X37139774Y-67523937D01*
X37283937Y-67379774D01*
X37397205Y-67210256D01*
X37475226Y-67021898D01*
X37515000Y-66821939D01*
X37515000Y-66618061D01*
X39445000Y-66618061D01*
X39445000Y-66821939D01*
X39484774Y-67021898D01*
X39562795Y-67210256D01*
X39676063Y-67379774D01*
X39820226Y-67523937D01*
X39989744Y-67637205D01*
X40178102Y-67715226D01*
X40378061Y-67755000D01*
X40581939Y-67755000D01*
X40781898Y-67715226D01*
X40970256Y-67637205D01*
X41139774Y-67523937D01*
X41283937Y-67379774D01*
X41397205Y-67210256D01*
X41475226Y-67021898D01*
X41515000Y-66821939D01*
X41515000Y-66618061D01*
X41475226Y-66418102D01*
X41434652Y-66320149D01*
X46991009Y-60763794D01*
X47020001Y-60740001D01*
X47043795Y-60711008D01*
X47043799Y-60711004D01*
X47114973Y-60624277D01*
X47114974Y-60624276D01*
X47185546Y-60492247D01*
X47229003Y-60348986D01*
X47240000Y-60237333D01*
X47240000Y-60237324D01*
X47243676Y-60200001D01*
X47240000Y-60162678D01*
X47240000Y-59423711D01*
X47283937Y-59379774D01*
X47397205Y-59210256D01*
X47475226Y-59021898D01*
X47515000Y-58821939D01*
X47515000Y-58618061D01*
X47475226Y-58418102D01*
X47397205Y-58229744D01*
X47283937Y-58060226D01*
X47139774Y-57916063D01*
X46970256Y-57802795D01*
X46781898Y-57724774D01*
X46581939Y-57685000D01*
X46378061Y-57685000D01*
X46178102Y-57724774D01*
X45989744Y-57802795D01*
X45820226Y-57916063D01*
X45676063Y-58060226D01*
X45562795Y-58229744D01*
X45484774Y-58418102D01*
X45445000Y-58618061D01*
X45445000Y-58821939D01*
X45484774Y-59021898D01*
X45562795Y-59210256D01*
X45676063Y-59379774D01*
X45720000Y-59423711D01*
X45720000Y-59885197D01*
X39968998Y-65636201D01*
X39940000Y-65659999D01*
X39845026Y-65775724D01*
X39774454Y-65907753D01*
X39750905Y-65985384D01*
X39676063Y-66060226D01*
X39562795Y-66229744D01*
X39484774Y-66418102D01*
X39445000Y-66618061D01*
X37515000Y-66618061D01*
X37475226Y-66418102D01*
X37397205Y-66229744D01*
X37283937Y-66060226D01*
X37139774Y-65916063D01*
X36970256Y-65802795D01*
X36781898Y-65724774D01*
X36581939Y-65685000D01*
X36519801Y-65685000D01*
X36318802Y-65484001D01*
X36295000Y-65454998D01*
X36179275Y-65360025D01*
X36047246Y-65289453D01*
X35903985Y-65245996D01*
X35792332Y-65234999D01*
X35792321Y-65234999D01*
X35754999Y-65231323D01*
X35717677Y-65234999D01*
X31728110Y-65234999D01*
X31633475Y-65093368D01*
X31426632Y-64886525D01*
X31252240Y-64770000D01*
X31426632Y-64653475D01*
X31633475Y-64446632D01*
X31795990Y-64203411D01*
X31907932Y-63933158D01*
X31965000Y-63646260D01*
X31965000Y-63353740D01*
X31907932Y-63066842D01*
X31795990Y-62796589D01*
X31633475Y-62553368D01*
X31426632Y-62346525D01*
X31252240Y-62230000D01*
X31426632Y-62113475D01*
X31633475Y-61906632D01*
X31795990Y-61663411D01*
X31907932Y-61393158D01*
X31965000Y-61106260D01*
X31965000Y-60813740D01*
X31907932Y-60526842D01*
X31795990Y-60256589D01*
X31633475Y-60013368D01*
X31426632Y-59806525D01*
X31252240Y-59690000D01*
X31426632Y-59573475D01*
X31633475Y-59366632D01*
X31795990Y-59123411D01*
X31907932Y-58853158D01*
X31965000Y-58566260D01*
X31965000Y-58273740D01*
X31907932Y-57986842D01*
X31795990Y-57716589D01*
X31633475Y-57473368D01*
X31501620Y-57341513D01*
X31574180Y-57319502D01*
X31684494Y-57260537D01*
X31781185Y-57181185D01*
X31841197Y-57108059D01*
X35455002Y-57108059D01*
X35455002Y-57311937D01*
X35494776Y-57511896D01*
X35572797Y-57700254D01*
X35686065Y-57869772D01*
X35730003Y-57913710D01*
X35730002Y-60526291D01*
X35686065Y-60570228D01*
X35572797Y-60739746D01*
X35494776Y-60928104D01*
X35455002Y-61128063D01*
X35455002Y-61331941D01*
X35494776Y-61531900D01*
X35572797Y-61720258D01*
X35686065Y-61889776D01*
X35830228Y-62033939D01*
X35999746Y-62147207D01*
X36188104Y-62225228D01*
X36388063Y-62265002D01*
X36591941Y-62265002D01*
X36791900Y-62225228D01*
X36980258Y-62147207D01*
X37149776Y-62033939D01*
X37240002Y-61943713D01*
X37320226Y-62023937D01*
X37489744Y-62137205D01*
X37678102Y-62215226D01*
X37878061Y-62255000D01*
X38081939Y-62255000D01*
X38281898Y-62215226D01*
X38470256Y-62137205D01*
X38639774Y-62023937D01*
X38730000Y-61933711D01*
X38820226Y-62023937D01*
X38989744Y-62137205D01*
X39178102Y-62215226D01*
X39378061Y-62255000D01*
X39581939Y-62255000D01*
X39781898Y-62215226D01*
X39970256Y-62137205D01*
X40139774Y-62023937D01*
X40230000Y-61933711D01*
X40320226Y-62023937D01*
X40489744Y-62137205D01*
X40678102Y-62215226D01*
X40878061Y-62255000D01*
X41081939Y-62255000D01*
X41281898Y-62215226D01*
X41470256Y-62137205D01*
X41639774Y-62023937D01*
X41730000Y-61933711D01*
X41820226Y-62023937D01*
X41989744Y-62137205D01*
X42178102Y-62215226D01*
X42378061Y-62255000D01*
X42581939Y-62255000D01*
X42781898Y-62215226D01*
X42970256Y-62137205D01*
X43139774Y-62023937D01*
X43283937Y-61879774D01*
X43397205Y-61710256D01*
X43475226Y-61521898D01*
X43515000Y-61321939D01*
X43515000Y-61118061D01*
X43475226Y-60918102D01*
X43397205Y-60729744D01*
X43283937Y-60560226D01*
X43240000Y-60516289D01*
X43240000Y-55757325D01*
X43243676Y-55720000D01*
X43240000Y-55682675D01*
X43240000Y-55682667D01*
X43229003Y-55571014D01*
X43185546Y-55427753D01*
X43114974Y-55295724D01*
X43020001Y-55179999D01*
X43015000Y-55175895D01*
X43015000Y-55118061D01*
X42975226Y-54918102D01*
X42897205Y-54729744D01*
X42783937Y-54560226D01*
X42692376Y-54468665D01*
X43015000Y-54468665D01*
X43015000Y-54751335D01*
X43070147Y-55028574D01*
X43178320Y-55289727D01*
X43335363Y-55524759D01*
X43535241Y-55724637D01*
X43770273Y-55881680D01*
X44031426Y-55989853D01*
X44308665Y-56045000D01*
X44591335Y-56045000D01*
X44868574Y-55989853D01*
X45129727Y-55881680D01*
X45364759Y-55724637D01*
X45564637Y-55524759D01*
X45721680Y-55289727D01*
X45829853Y-55028574D01*
X45885000Y-54751335D01*
X45885000Y-54468665D01*
X45829853Y-54191426D01*
X45721680Y-53930273D01*
X45564637Y-53695241D01*
X45364759Y-53495363D01*
X45129727Y-53338320D01*
X44868574Y-53230147D01*
X44591335Y-53175000D01*
X44308665Y-53175000D01*
X44031426Y-53230147D01*
X43770273Y-53338320D01*
X43535241Y-53495363D01*
X43335363Y-53695241D01*
X43178320Y-53930273D01*
X43070147Y-54191426D01*
X43015000Y-54468665D01*
X42692376Y-54468665D01*
X42639774Y-54416063D01*
X42470256Y-54302795D01*
X42281898Y-54224774D01*
X42081939Y-54185000D01*
X41878061Y-54185000D01*
X41678102Y-54224774D01*
X41489744Y-54302795D01*
X41320226Y-54416063D01*
X41176063Y-54560226D01*
X41062795Y-54729744D01*
X40984774Y-54918102D01*
X40945000Y-55118061D01*
X40945000Y-55321939D01*
X40984774Y-55521898D01*
X41062795Y-55710256D01*
X41176063Y-55879774D01*
X41320226Y-56023937D01*
X41489744Y-56137205D01*
X41678102Y-56215226D01*
X41720001Y-56223560D01*
X41720001Y-56496290D01*
X41639774Y-56416063D01*
X41470256Y-56302795D01*
X41281898Y-56224774D01*
X41081939Y-56185000D01*
X40878061Y-56185000D01*
X40678102Y-56224774D01*
X40489744Y-56302795D01*
X40440965Y-56335388D01*
X40397205Y-56229744D01*
X40283937Y-56060226D01*
X40139774Y-55916063D01*
X39970256Y-55802795D01*
X39781898Y-55724774D01*
X39581939Y-55685000D01*
X39378061Y-55685000D01*
X39178102Y-55724774D01*
X38989744Y-55802795D01*
X38820226Y-55916063D01*
X38740000Y-55996289D01*
X38740000Y-55757332D01*
X38743677Y-55720000D01*
X38740000Y-55682667D01*
X38740000Y-55423711D01*
X38783937Y-55379774D01*
X38897205Y-55210256D01*
X38975226Y-55021898D01*
X39015000Y-54821939D01*
X39015000Y-54618061D01*
X38975226Y-54418102D01*
X38897205Y-54229744D01*
X38783937Y-54060226D01*
X38639774Y-53916063D01*
X38470256Y-53802795D01*
X38281898Y-53724774D01*
X38081939Y-53685000D01*
X37878061Y-53685000D01*
X37678102Y-53724774D01*
X37489744Y-53802795D01*
X37320226Y-53916063D01*
X37176063Y-54060226D01*
X37062795Y-54229744D01*
X36984774Y-54418102D01*
X36945000Y-54618061D01*
X36945000Y-54821939D01*
X36984774Y-55021898D01*
X37062795Y-55210256D01*
X37176063Y-55379774D01*
X37220000Y-55423711D01*
X37220000Y-55682666D01*
X37216323Y-55720000D01*
X37220001Y-55757343D01*
X37220001Y-56476286D01*
X37149776Y-56406061D01*
X36980258Y-56292793D01*
X36791900Y-56214772D01*
X36591941Y-56174998D01*
X36388063Y-56174998D01*
X36188104Y-56214772D01*
X35999746Y-56292793D01*
X35830228Y-56406061D01*
X35686065Y-56550224D01*
X35572797Y-56719742D01*
X35494776Y-56908100D01*
X35455002Y-57108059D01*
X31841197Y-57108059D01*
X31860537Y-57084494D01*
X31919502Y-56974180D01*
X31955812Y-56854482D01*
X31968072Y-56730000D01*
X31968072Y-55030000D01*
X31955812Y-54905518D01*
X31919502Y-54785820D01*
X31860537Y-54675506D01*
X31781185Y-54578815D01*
X31684494Y-54499463D01*
X31626876Y-54468665D01*
X32855000Y-54468665D01*
X32855000Y-54751335D01*
X32910147Y-55028574D01*
X33018320Y-55289727D01*
X33175363Y-55524759D01*
X33375241Y-55724637D01*
X33610273Y-55881680D01*
X33871426Y-55989853D01*
X34148665Y-56045000D01*
X34431335Y-56045000D01*
X34708574Y-55989853D01*
X34969727Y-55881680D01*
X35204759Y-55724637D01*
X35404637Y-55524759D01*
X35561680Y-55289727D01*
X35669853Y-55028574D01*
X35725000Y-54751335D01*
X35725000Y-54468665D01*
X35669853Y-54191426D01*
X35561680Y-53930273D01*
X35404637Y-53695241D01*
X35204759Y-53495363D01*
X34969727Y-53338320D01*
X34708574Y-53230147D01*
X34431335Y-53175000D01*
X34148665Y-53175000D01*
X33871426Y-53230147D01*
X33610273Y-53338320D01*
X33375241Y-53495363D01*
X33175363Y-53695241D01*
X33018320Y-53930273D01*
X32910147Y-54191426D01*
X32855000Y-54468665D01*
X31626876Y-54468665D01*
X31574180Y-54440498D01*
X31454482Y-54404188D01*
X31330000Y-54391928D01*
X29630000Y-54391928D01*
X29505518Y-54404188D01*
X29385820Y-54440498D01*
X29275506Y-54499463D01*
X29235000Y-54532705D01*
X29235000Y-51609655D01*
X29326525Y-51746632D01*
X29533368Y-51953475D01*
X29776589Y-52115990D01*
X30046842Y-52227932D01*
X30333740Y-52285000D01*
X30626260Y-52285000D01*
X30913158Y-52227932D01*
X31183411Y-52115990D01*
X31426632Y-51953475D01*
X31633475Y-51746632D01*
X31750000Y-51572240D01*
X31866525Y-51746632D01*
X32073368Y-51953475D01*
X32316589Y-52115990D01*
X32586842Y-52227932D01*
X32873740Y-52285000D01*
X33166260Y-52285000D01*
X33453158Y-52227932D01*
X33723411Y-52115990D01*
X33966632Y-51953475D01*
X34173475Y-51746632D01*
X34290000Y-51572240D01*
X34406525Y-51746632D01*
X34613368Y-51953475D01*
X34856589Y-52115990D01*
X35126842Y-52227932D01*
X35413740Y-52285000D01*
X35706260Y-52285000D01*
X35993158Y-52227932D01*
X36263411Y-52115990D01*
X36506632Y-51953475D01*
X36638487Y-51821620D01*
X36660498Y-51894180D01*
X36719463Y-52004494D01*
X36798815Y-52101185D01*
X36895506Y-52180537D01*
X37005820Y-52239502D01*
X37125518Y-52275812D01*
X37250000Y-52288072D01*
X38950000Y-52288072D01*
X39074482Y-52275812D01*
X39194180Y-52239502D01*
X39304494Y-52180537D01*
X39401185Y-52101185D01*
X39480537Y-52004494D01*
X39539502Y-51894180D01*
X39575812Y-51774482D01*
X39588072Y-51650000D01*
X39588072Y-49950000D01*
X39575812Y-49825518D01*
X39539502Y-49705820D01*
X39480537Y-49595506D01*
X39401185Y-49498815D01*
X39304494Y-49419463D01*
X39194180Y-49360498D01*
X39074482Y-49324188D01*
X38950000Y-49311928D01*
X37250000Y-49311928D01*
X37125518Y-49324188D01*
X37005820Y-49360498D01*
X36895506Y-49419463D01*
X36798815Y-49498815D01*
X36719463Y-49595506D01*
X36660498Y-49705820D01*
X36638487Y-49778380D01*
X36506632Y-49646525D01*
X36263411Y-49484010D01*
X35993158Y-49372068D01*
X35706260Y-49315000D01*
X35413740Y-49315000D01*
X35126842Y-49372068D01*
X34856589Y-49484010D01*
X34613368Y-49646525D01*
X34406525Y-49853368D01*
X34290000Y-50027760D01*
X34173475Y-49853368D01*
X33966632Y-49646525D01*
X33723411Y-49484010D01*
X33453158Y-49372068D01*
X33166260Y-49315000D01*
X32873740Y-49315000D01*
X32586842Y-49372068D01*
X32316589Y-49484010D01*
X32073368Y-49646525D01*
X31866525Y-49853368D01*
X31750000Y-50027760D01*
X31633475Y-49853368D01*
X31426632Y-49646525D01*
X31183411Y-49484010D01*
X30913158Y-49372068D01*
X30626260Y-49315000D01*
X30333740Y-49315000D01*
X30046842Y-49372068D01*
X29776589Y-49484010D01*
X29533368Y-49646525D01*
X29326525Y-49853368D01*
X29235000Y-49990345D01*
X29235000Y-45555000D01*
X43646928Y-45555000D01*
X43646928Y-47155000D01*
X43659188Y-47279482D01*
X43695498Y-47399180D01*
X43754463Y-47509494D01*
X43833815Y-47606185D01*
X43930506Y-47685537D01*
X44040820Y-47744502D01*
X44160518Y-47780812D01*
X44285000Y-47793072D01*
X45885000Y-47793072D01*
X46009482Y-47780812D01*
X46129180Y-47744502D01*
X46239494Y-47685537D01*
X46336185Y-47606185D01*
X46415537Y-47509494D01*
X46474502Y-47399180D01*
X46490117Y-47347702D01*
X46771903Y-47347702D01*
X46843486Y-47591671D01*
X47098996Y-47712571D01*
X47373184Y-47781300D01*
X47655512Y-47795217D01*
X47935130Y-47753787D01*
X48201292Y-47658603D01*
X48326514Y-47591671D01*
X48398097Y-47347702D01*
X47585000Y-46534605D01*
X46771903Y-47347702D01*
X46490117Y-47347702D01*
X46510812Y-47279482D01*
X46523072Y-47155000D01*
X46523072Y-47147785D01*
X46592298Y-47168097D01*
X47405395Y-46355000D01*
X47764605Y-46355000D01*
X48577702Y-47168097D01*
X48821671Y-47096514D01*
X48942571Y-46841004D01*
X49011300Y-46566816D01*
X49025217Y-46284488D01*
X48983787Y-46004870D01*
X48888603Y-45738708D01*
X48821671Y-45613486D01*
X48577702Y-45541903D01*
X47764605Y-46355000D01*
X47405395Y-46355000D01*
X46592298Y-45541903D01*
X46523072Y-45562215D01*
X46523072Y-45555000D01*
X46510812Y-45430518D01*
X46490118Y-45362298D01*
X46771903Y-45362298D01*
X47585000Y-46175395D01*
X48398097Y-45362298D01*
X48326514Y-45118329D01*
X48071004Y-44997429D01*
X47796816Y-44928700D01*
X47514488Y-44914783D01*
X47234870Y-44956213D01*
X46968708Y-45051397D01*
X46843486Y-45118329D01*
X46771903Y-45362298D01*
X46490118Y-45362298D01*
X46474502Y-45310820D01*
X46415537Y-45200506D01*
X46336185Y-45103815D01*
X46239494Y-45024463D01*
X46129180Y-44965498D01*
X46009482Y-44929188D01*
X45885000Y-44916928D01*
X44285000Y-44916928D01*
X44160518Y-44929188D01*
X44040820Y-44965498D01*
X43930506Y-45024463D01*
X43833815Y-45103815D01*
X43754463Y-45200506D01*
X43695498Y-45310820D01*
X43659188Y-45430518D01*
X43646928Y-45555000D01*
X29235000Y-45555000D01*
X29235000Y-42577275D01*
X29235666Y-42570487D01*
X29240301Y-42570000D01*
X50767725Y-42570000D01*
X50774513Y-42570666D01*
%TA.AperFunction,Conductor*%
D18*
G36*
X50774513Y-42570666D02*
G01*
X50775001Y-42575310D01*
X50775001Y-55070346D01*
X50683475Y-54933368D01*
X50476632Y-54726525D01*
X50233411Y-54564010D01*
X49963158Y-54452068D01*
X49676260Y-54395000D01*
X49383740Y-54395000D01*
X49096842Y-54452068D01*
X48826589Y-54564010D01*
X48583368Y-54726525D01*
X48376525Y-54933368D01*
X48214010Y-55176589D01*
X48102068Y-55446842D01*
X48045000Y-55733740D01*
X48045000Y-56026260D01*
X48102068Y-56313158D01*
X48214010Y-56583411D01*
X48376525Y-56826632D01*
X48583368Y-57033475D01*
X48757760Y-57150000D01*
X48583368Y-57266525D01*
X48376525Y-57473368D01*
X48214010Y-57716589D01*
X48102068Y-57986842D01*
X48045000Y-58273740D01*
X48045000Y-58566260D01*
X48102068Y-58853158D01*
X48214010Y-59123411D01*
X48376525Y-59366632D01*
X48583368Y-59573475D01*
X48757760Y-59690000D01*
X48583368Y-59806525D01*
X48376525Y-60013368D01*
X48214010Y-60256589D01*
X48102068Y-60526842D01*
X48045000Y-60813740D01*
X48045000Y-61106260D01*
X48102068Y-61393158D01*
X48214010Y-61663411D01*
X48376525Y-61906632D01*
X48583368Y-62113475D01*
X48757760Y-62230000D01*
X48583368Y-62346525D01*
X48376525Y-62553368D01*
X48214010Y-62796589D01*
X48102068Y-63066842D01*
X48045000Y-63353740D01*
X48045000Y-63646260D01*
X48102068Y-63933158D01*
X48214010Y-64203411D01*
X48376525Y-64446632D01*
X48583368Y-64653475D01*
X48757760Y-64770000D01*
X48583368Y-64886525D01*
X48376525Y-65093368D01*
X48214010Y-65336589D01*
X48102068Y-65606842D01*
X48045000Y-65893740D01*
X48045000Y-66186260D01*
X48102068Y-66473158D01*
X48214010Y-66743411D01*
X48376525Y-66986632D01*
X48583368Y-67193475D01*
X48757760Y-67310000D01*
X48583368Y-67426525D01*
X48376525Y-67633368D01*
X48214010Y-67876589D01*
X48102068Y-68146842D01*
X48045000Y-68433740D01*
X48045000Y-68726260D01*
X48102068Y-69013158D01*
X48214010Y-69283411D01*
X48376525Y-69526632D01*
X48583368Y-69733475D01*
X48757760Y-69850000D01*
X48583368Y-69966525D01*
X48376525Y-70173368D01*
X48214010Y-70416589D01*
X48102068Y-70686842D01*
X48045000Y-70973740D01*
X48045000Y-71266260D01*
X48102068Y-71553158D01*
X48214010Y-71823411D01*
X48376525Y-72066632D01*
X48583368Y-72273475D01*
X48757760Y-72390000D01*
X48583368Y-72506525D01*
X48376525Y-72713368D01*
X48214010Y-72956589D01*
X48102068Y-73226842D01*
X48045000Y-73513740D01*
X48045000Y-73806260D01*
X48102068Y-74093158D01*
X48214010Y-74363411D01*
X48376525Y-74606632D01*
X48583368Y-74813475D01*
X48757760Y-74930000D01*
X48583368Y-75046525D01*
X48376525Y-75253368D01*
X48214010Y-75496589D01*
X48102068Y-75766842D01*
X48045000Y-76053740D01*
X48045000Y-76346260D01*
X48102068Y-76633158D01*
X48214010Y-76903411D01*
X48376525Y-77146632D01*
X48583368Y-77353475D01*
X48757760Y-77470000D01*
X48583368Y-77586525D01*
X48376525Y-77793368D01*
X48214010Y-78036589D01*
X48102068Y-78306842D01*
X48045000Y-78593740D01*
X48045000Y-78886260D01*
X48102068Y-79173158D01*
X48214010Y-79443411D01*
X48376525Y-79686632D01*
X48583368Y-79893475D01*
X48757760Y-80010000D01*
X48583368Y-80126525D01*
X48376525Y-80333368D01*
X48214010Y-80576589D01*
X48102068Y-80846842D01*
X48045000Y-81133740D01*
X48045000Y-81426260D01*
X48102068Y-81713158D01*
X48214010Y-81983411D01*
X48376525Y-82226632D01*
X48583368Y-82433475D01*
X48757760Y-82550000D01*
X48583368Y-82666525D01*
X48376525Y-82873368D01*
X48214010Y-83116589D01*
X48102068Y-83386842D01*
X48045000Y-83673740D01*
X48045000Y-83966260D01*
X48102068Y-84253158D01*
X48214010Y-84523411D01*
X48376525Y-84766632D01*
X48583368Y-84973475D01*
X48757760Y-85090000D01*
X48583368Y-85206525D01*
X48376525Y-85413368D01*
X48214010Y-85656589D01*
X48102068Y-85926842D01*
X48045000Y-86213740D01*
X48045000Y-86506260D01*
X48102068Y-86793158D01*
X48214010Y-87063411D01*
X48376525Y-87306632D01*
X48583368Y-87513475D01*
X48757760Y-87630000D01*
X48583368Y-87746525D01*
X48376525Y-87953368D01*
X48214010Y-88196589D01*
X48102068Y-88466842D01*
X48045000Y-88753740D01*
X48045000Y-89046260D01*
X48102068Y-89333158D01*
X48214010Y-89603411D01*
X48376525Y-89846632D01*
X48583368Y-90053475D01*
X48757760Y-90170000D01*
X48583368Y-90286525D01*
X48376525Y-90493368D01*
X48214010Y-90736589D01*
X48102068Y-91006842D01*
X48045000Y-91293740D01*
X48045000Y-91586260D01*
X48102068Y-91873158D01*
X48214010Y-92143411D01*
X48376525Y-92386632D01*
X48508380Y-92518487D01*
X48435820Y-92540498D01*
X48325506Y-92599463D01*
X48228815Y-92678815D01*
X48149463Y-92775506D01*
X48090498Y-92885820D01*
X48054188Y-93005518D01*
X48041928Y-93130000D01*
X48041928Y-94830000D01*
X48054188Y-94954482D01*
X48090498Y-95074180D01*
X48149463Y-95184494D01*
X48228815Y-95281185D01*
X48325506Y-95360537D01*
X48435820Y-95419502D01*
X48555518Y-95455812D01*
X48680000Y-95468072D01*
X50380000Y-95468072D01*
X50504482Y-95455812D01*
X50624180Y-95419502D01*
X50734494Y-95360537D01*
X50775000Y-95327295D01*
X50775000Y-95852725D01*
X50774335Y-95859513D01*
X50769699Y-95860000D01*
X29242275Y-95860000D01*
X29235487Y-95859335D01*
X29235000Y-95854699D01*
X29235000Y-94782637D01*
X29382412Y-94980269D01*
X29598645Y-95175178D01*
X29848748Y-95324157D01*
X30123109Y-95421481D01*
X30353000Y-95300814D01*
X30353000Y-94107000D01*
X30607000Y-94107000D01*
X30607000Y-95300814D01*
X30836891Y-95421481D01*
X31111252Y-95324157D01*
X31361355Y-95175178D01*
X31577588Y-94980269D01*
X31751641Y-94746920D01*
X31876825Y-94484099D01*
X31921476Y-94336890D01*
X31800155Y-94107000D01*
X30607000Y-94107000D01*
X30353000Y-94107000D01*
X30333000Y-94107000D01*
X30333000Y-93853000D01*
X30353000Y-93853000D01*
X30353000Y-93833000D01*
X30607000Y-93833000D01*
X30607000Y-93853000D01*
X31800155Y-93853000D01*
X31921476Y-93623110D01*
X31876825Y-93475901D01*
X31751641Y-93213080D01*
X31577588Y-92979731D01*
X31361355Y-92784822D01*
X31244466Y-92715195D01*
X31426632Y-92593475D01*
X31633475Y-92386632D01*
X31795990Y-92143411D01*
X31907932Y-91873158D01*
X31922941Y-91797702D01*
X38556903Y-91797702D01*
X38628486Y-92041671D01*
X38883996Y-92162571D01*
X39158184Y-92231300D01*
X39440512Y-92245217D01*
X39720130Y-92203787D01*
X39986292Y-92108603D01*
X40111514Y-92041671D01*
X40183097Y-91797702D01*
X39370000Y-90984605D01*
X38556903Y-91797702D01*
X31922941Y-91797702D01*
X31965000Y-91586260D01*
X31965000Y-91293740D01*
X31907932Y-91006842D01*
X31795990Y-90736589D01*
X31633475Y-90493368D01*
X31426632Y-90286525D01*
X31252240Y-90170000D01*
X31426632Y-90053475D01*
X31633475Y-89846632D01*
X31720001Y-89717137D01*
X31720001Y-90182668D01*
X31716324Y-90220000D01*
X31720001Y-90257333D01*
X31726955Y-90327932D01*
X31730998Y-90368985D01*
X31774454Y-90512246D01*
X31845026Y-90644276D01*
X31907172Y-90720000D01*
X31940000Y-90760001D01*
X31945000Y-90764104D01*
X31945000Y-90821939D01*
X31984774Y-91021898D01*
X32062795Y-91210256D01*
X32176063Y-91379774D01*
X32320226Y-91523937D01*
X32489744Y-91637205D01*
X32678102Y-91715226D01*
X32878061Y-91755000D01*
X33081939Y-91755000D01*
X33281898Y-91715226D01*
X33470256Y-91637205D01*
X33639774Y-91523937D01*
X33783937Y-91379774D01*
X33897205Y-91210256D01*
X33975226Y-91021898D01*
X34004343Y-90875512D01*
X37929783Y-90875512D01*
X37971213Y-91155130D01*
X38066397Y-91421292D01*
X38133329Y-91546514D01*
X38377298Y-91618097D01*
X39190395Y-90805000D01*
X39549605Y-90805000D01*
X40362702Y-91618097D01*
X40606671Y-91546514D01*
X40727571Y-91291004D01*
X40796300Y-91016816D01*
X40810217Y-90734488D01*
X40768787Y-90454870D01*
X40673603Y-90188708D01*
X40606671Y-90063486D01*
X40362702Y-89991903D01*
X39549605Y-90805000D01*
X39190395Y-90805000D01*
X38377298Y-89991903D01*
X38133329Y-90063486D01*
X38012429Y-90318996D01*
X37943700Y-90593184D01*
X37929783Y-90875512D01*
X34004343Y-90875512D01*
X34015000Y-90821939D01*
X34015000Y-90618061D01*
X33975226Y-90418102D01*
X33897205Y-90229744D01*
X33783937Y-90060226D01*
X33639774Y-89916063D01*
X33470256Y-89802795D01*
X33281898Y-89724774D01*
X33240000Y-89716440D01*
X33240000Y-87505000D01*
X37931928Y-87505000D01*
X37931928Y-89105000D01*
X37944188Y-89229482D01*
X37980498Y-89349180D01*
X38039463Y-89459494D01*
X38118815Y-89556185D01*
X38215506Y-89635537D01*
X38325820Y-89694502D01*
X38445518Y-89730812D01*
X38570000Y-89743072D01*
X38577215Y-89743072D01*
X38556903Y-89812298D01*
X39370000Y-90625395D01*
X40183097Y-89812298D01*
X40162785Y-89743072D01*
X40170000Y-89743072D01*
X40294482Y-89730812D01*
X40414180Y-89694502D01*
X40524494Y-89635537D01*
X40621185Y-89556185D01*
X40700537Y-89459494D01*
X40759502Y-89349180D01*
X40795812Y-89229482D01*
X40808072Y-89105000D01*
X40808072Y-87505000D01*
X40795812Y-87380518D01*
X40759502Y-87260820D01*
X40700537Y-87150506D01*
X40673911Y-87118061D01*
X43945000Y-87118061D01*
X43945000Y-87321939D01*
X43984774Y-87521898D01*
X44062795Y-87710256D01*
X44176063Y-87879774D01*
X44220001Y-87923712D01*
X44220000Y-92516289D01*
X44176063Y-92560226D01*
X44062795Y-92729744D01*
X43984774Y-92918102D01*
X43945000Y-93118061D01*
X43945000Y-93321939D01*
X43984774Y-93521898D01*
X44062795Y-93710256D01*
X44176063Y-93879774D01*
X44320226Y-94023937D01*
X44489744Y-94137205D01*
X44678102Y-94215226D01*
X44878061Y-94255000D01*
X45081939Y-94255000D01*
X45281898Y-94215226D01*
X45470256Y-94137205D01*
X45639774Y-94023937D01*
X45783937Y-93879774D01*
X45897205Y-93710256D01*
X45975226Y-93521898D01*
X46015000Y-93321939D01*
X46015000Y-93118061D01*
X45975226Y-92918102D01*
X45897205Y-92729744D01*
X45783937Y-92560226D01*
X45740000Y-92516289D01*
X45740000Y-87923711D01*
X45783937Y-87879774D01*
X45897205Y-87710256D01*
X45975226Y-87521898D01*
X46015000Y-87321939D01*
X46015000Y-87118061D01*
X45975226Y-86918102D01*
X45897205Y-86729744D01*
X45783937Y-86560226D01*
X45639774Y-86416063D01*
X45470256Y-86302795D01*
X45281898Y-86224774D01*
X45081939Y-86185000D01*
X44878061Y-86185000D01*
X44678102Y-86224774D01*
X44489744Y-86302795D01*
X44320226Y-86416063D01*
X44176063Y-86560226D01*
X44062795Y-86729744D01*
X43984774Y-86918102D01*
X43945000Y-87118061D01*
X40673911Y-87118061D01*
X40621185Y-87053815D01*
X40524494Y-86974463D01*
X40414180Y-86915498D01*
X40294482Y-86879188D01*
X40170000Y-86866928D01*
X38570000Y-86866928D01*
X38445518Y-86879188D01*
X38325820Y-86915498D01*
X38215506Y-86974463D01*
X38118815Y-87053815D01*
X38039463Y-87150506D01*
X37980498Y-87260820D01*
X37944188Y-87380518D01*
X37931928Y-87505000D01*
X33240000Y-87505000D01*
X33240000Y-87423711D01*
X33283937Y-87379774D01*
X33397205Y-87210256D01*
X33475226Y-87021898D01*
X33515000Y-86821939D01*
X33515000Y-86618061D01*
X33475226Y-86418102D01*
X33397205Y-86229744D01*
X33283937Y-86060226D01*
X33139774Y-85916063D01*
X32970256Y-85802795D01*
X32781898Y-85724774D01*
X32581939Y-85685000D01*
X32378061Y-85685000D01*
X32178102Y-85724774D01*
X31989744Y-85802795D01*
X31885423Y-85872500D01*
X31795990Y-85656589D01*
X31633475Y-85413368D01*
X31426632Y-85206525D01*
X31252240Y-85090000D01*
X31426632Y-84973475D01*
X31633475Y-84766632D01*
X31795990Y-84523411D01*
X31907932Y-84253158D01*
X31965000Y-83966260D01*
X31965000Y-83673740D01*
X31907932Y-83386842D01*
X31795990Y-83116589D01*
X31633475Y-82873368D01*
X31426632Y-82666525D01*
X31252240Y-82550000D01*
X31426632Y-82433475D01*
X31633475Y-82226632D01*
X31795990Y-81983411D01*
X31907932Y-81713158D01*
X31926848Y-81618061D01*
X41945000Y-81618061D01*
X41945000Y-81821939D01*
X41984774Y-82021898D01*
X42062795Y-82210256D01*
X42176063Y-82379774D01*
X42320226Y-82523937D01*
X42489744Y-82637205D01*
X42678102Y-82715226D01*
X42878061Y-82755000D01*
X43081939Y-82755000D01*
X43281898Y-82715226D01*
X43470256Y-82637205D01*
X43639774Y-82523937D01*
X43783937Y-82379774D01*
X43897205Y-82210256D01*
X43975226Y-82021898D01*
X43983560Y-81980000D01*
X45476440Y-81980000D01*
X45484774Y-82021898D01*
X45562795Y-82210256D01*
X45676063Y-82379774D01*
X45820226Y-82523937D01*
X45989744Y-82637205D01*
X46178102Y-82715226D01*
X46378061Y-82755000D01*
X46581939Y-82755000D01*
X46781898Y-82715226D01*
X46970256Y-82637205D01*
X47139774Y-82523937D01*
X47283937Y-82379774D01*
X47397205Y-82210256D01*
X47475226Y-82021898D01*
X47515000Y-81821939D01*
X47515000Y-81618061D01*
X47475226Y-81418102D01*
X47397205Y-81229744D01*
X47283937Y-81060226D01*
X47193711Y-80970000D01*
X47283937Y-80879774D01*
X47397205Y-80710256D01*
X47475226Y-80521898D01*
X47515000Y-80321939D01*
X47515000Y-80118061D01*
X47475226Y-79918102D01*
X47397205Y-79729744D01*
X47283937Y-79560226D01*
X47193711Y-79470000D01*
X47283937Y-79379774D01*
X47397205Y-79210256D01*
X47475226Y-79021898D01*
X47515000Y-78821939D01*
X47515000Y-78618061D01*
X47475226Y-78418102D01*
X47397205Y-78229744D01*
X47283937Y-78060226D01*
X47139774Y-77916063D01*
X46970256Y-77802795D01*
X46781898Y-77724774D01*
X46581939Y-77685000D01*
X46378061Y-77685000D01*
X46178102Y-77724774D01*
X45989744Y-77802795D01*
X45820226Y-77916063D01*
X45776289Y-77960000D01*
X44683711Y-77960000D01*
X44639774Y-77916063D01*
X44470256Y-77802795D01*
X44281898Y-77724774D01*
X44081939Y-77685000D01*
X43878061Y-77685000D01*
X43678102Y-77724774D01*
X43489744Y-77802795D01*
X43320226Y-77916063D01*
X43176063Y-78060226D01*
X43062795Y-78229744D01*
X42984774Y-78418102D01*
X42945000Y-78618061D01*
X42945000Y-78821939D01*
X42984774Y-79021898D01*
X43062795Y-79210256D01*
X43176063Y-79379774D01*
X43266289Y-79470000D01*
X43176063Y-79560226D01*
X43062795Y-79729744D01*
X42984774Y-79918102D01*
X42945000Y-80118061D01*
X42945000Y-80321939D01*
X42984774Y-80521898D01*
X43022289Y-80612466D01*
X42939999Y-80679999D01*
X42935895Y-80685000D01*
X42878061Y-80685000D01*
X42678102Y-80724774D01*
X42489744Y-80802795D01*
X42320226Y-80916063D01*
X42176063Y-81060226D01*
X42062795Y-81229744D01*
X41984774Y-81418102D01*
X41945000Y-81618061D01*
X31926848Y-81618061D01*
X31965000Y-81426260D01*
X31965000Y-81133740D01*
X31907932Y-80846842D01*
X31795990Y-80576589D01*
X31633475Y-80333368D01*
X31426632Y-80126525D01*
X31252240Y-80010000D01*
X31426632Y-79893475D01*
X31633475Y-79686632D01*
X31795990Y-79443411D01*
X31907932Y-79173158D01*
X31965000Y-78886260D01*
X31965000Y-78593740D01*
X31907932Y-78306842D01*
X31795990Y-78036589D01*
X31633475Y-77793368D01*
X31426632Y-77586525D01*
X31252240Y-77470000D01*
X31426632Y-77353475D01*
X31633475Y-77146632D01*
X31795990Y-76903411D01*
X31907932Y-76633158D01*
X31965000Y-76346260D01*
X31965000Y-76098061D01*
X41465000Y-76098061D01*
X41465000Y-76301939D01*
X41504774Y-76501898D01*
X41582795Y-76690256D01*
X41696063Y-76859774D01*
X41840226Y-77003937D01*
X42009744Y-77117205D01*
X42198102Y-77195226D01*
X42398061Y-77235000D01*
X42601939Y-77235000D01*
X42801898Y-77195226D01*
X42990256Y-77117205D01*
X43159774Y-77003937D01*
X43203711Y-76960000D01*
X45796289Y-76960000D01*
X45840226Y-77003937D01*
X46009744Y-77117205D01*
X46198102Y-77195226D01*
X46398061Y-77235000D01*
X46601939Y-77235000D01*
X46801898Y-77195226D01*
X46990256Y-77117205D01*
X47159774Y-77003937D01*
X47303937Y-76859774D01*
X47417205Y-76690256D01*
X47495226Y-76501898D01*
X47535000Y-76301939D01*
X47535000Y-76098061D01*
X47495226Y-75898102D01*
X47417205Y-75709744D01*
X47303937Y-75540226D01*
X47159774Y-75396063D01*
X46990256Y-75282795D01*
X46801898Y-75204774D01*
X46601939Y-75165000D01*
X46398061Y-75165000D01*
X46198102Y-75204774D01*
X46009744Y-75282795D01*
X45840226Y-75396063D01*
X45796289Y-75440000D01*
X43203711Y-75440000D01*
X43159774Y-75396063D01*
X42990256Y-75282795D01*
X42801898Y-75204774D01*
X42601939Y-75165000D01*
X42398061Y-75165000D01*
X42198102Y-75204774D01*
X42009744Y-75282795D01*
X41840226Y-75396063D01*
X41696063Y-75540226D01*
X41582795Y-75709744D01*
X41504774Y-75898102D01*
X41465000Y-76098061D01*
X31965000Y-76098061D01*
X31965000Y-76053740D01*
X31907932Y-75766842D01*
X31795990Y-75496589D01*
X31633475Y-75253368D01*
X31426632Y-75046525D01*
X31252240Y-74930000D01*
X31426632Y-74813475D01*
X31633475Y-74606632D01*
X31795990Y-74363411D01*
X31907932Y-74093158D01*
X31965000Y-73806260D01*
X31965000Y-73513740D01*
X31907932Y-73226842D01*
X31795990Y-72956589D01*
X31633475Y-72713368D01*
X31426632Y-72506525D01*
X31252240Y-72390000D01*
X31426632Y-72273475D01*
X31633475Y-72066632D01*
X31795990Y-71823411D01*
X31907932Y-71553158D01*
X31965000Y-71266260D01*
X31965000Y-71118061D01*
X41445000Y-71118061D01*
X41445000Y-71321939D01*
X41484774Y-71521898D01*
X41562795Y-71710256D01*
X41676063Y-71879774D01*
X41820226Y-72023937D01*
X41989744Y-72137205D01*
X42178102Y-72215226D01*
X42378061Y-72255000D01*
X42581939Y-72255000D01*
X42781898Y-72215226D01*
X42970256Y-72137205D01*
X43139774Y-72023937D01*
X43183711Y-71980000D01*
X45776289Y-71980000D01*
X45820226Y-72023937D01*
X45989744Y-72137205D01*
X46178102Y-72215226D01*
X46202103Y-72220000D01*
X46178102Y-72224774D01*
X45989744Y-72302795D01*
X45820226Y-72416063D01*
X45776289Y-72460000D01*
X45183711Y-72460000D01*
X45139774Y-72416063D01*
X44970256Y-72302795D01*
X44781898Y-72224774D01*
X44581939Y-72185000D01*
X44378061Y-72185000D01*
X44178102Y-72224774D01*
X43989744Y-72302795D01*
X43820226Y-72416063D01*
X43676063Y-72560226D01*
X43562795Y-72729744D01*
X43484774Y-72918102D01*
X43445000Y-73118061D01*
X43445000Y-73321939D01*
X43484774Y-73521898D01*
X43562795Y-73710256D01*
X43676063Y-73879774D01*
X43820226Y-74023937D01*
X43989744Y-74137205D01*
X44178102Y-74215226D01*
X44378061Y-74255000D01*
X44581939Y-74255000D01*
X44781898Y-74215226D01*
X44970256Y-74137205D01*
X45139774Y-74023937D01*
X45183711Y-73980000D01*
X45776289Y-73980000D01*
X45820226Y-74023937D01*
X45989744Y-74137205D01*
X46178102Y-74215226D01*
X46378061Y-74255000D01*
X46581939Y-74255000D01*
X46781898Y-74215226D01*
X46970256Y-74137205D01*
X47139774Y-74023937D01*
X47283937Y-73879774D01*
X47397205Y-73710256D01*
X47475226Y-73521898D01*
X47515000Y-73321939D01*
X47515000Y-73118061D01*
X47475226Y-72918102D01*
X47397205Y-72729744D01*
X47283937Y-72560226D01*
X47139774Y-72416063D01*
X46970256Y-72302795D01*
X46781898Y-72224774D01*
X46757897Y-72220000D01*
X46781898Y-72215226D01*
X46970256Y-72137205D01*
X47139774Y-72023937D01*
X47283937Y-71879774D01*
X47397205Y-71710256D01*
X47475226Y-71521898D01*
X47515000Y-71321939D01*
X47515000Y-71118061D01*
X47475226Y-70918102D01*
X47397205Y-70729744D01*
X47283937Y-70560226D01*
X47139774Y-70416063D01*
X46970256Y-70302795D01*
X46781898Y-70224774D01*
X46581939Y-70185000D01*
X46378061Y-70185000D01*
X46178102Y-70224774D01*
X45989744Y-70302795D01*
X45820226Y-70416063D01*
X45776289Y-70460000D01*
X43183711Y-70460000D01*
X43139774Y-70416063D01*
X42970256Y-70302795D01*
X42781898Y-70224774D01*
X42581939Y-70185000D01*
X42378061Y-70185000D01*
X42178102Y-70224774D01*
X41989744Y-70302795D01*
X41820226Y-70416063D01*
X41676063Y-70560226D01*
X41562795Y-70729744D01*
X41484774Y-70918102D01*
X41445000Y-71118061D01*
X31965000Y-71118061D01*
X31965000Y-70973740D01*
X31907932Y-70686842D01*
X31795990Y-70416589D01*
X31633475Y-70173368D01*
X31426632Y-69966525D01*
X31252240Y-69850000D01*
X31426632Y-69733475D01*
X31633475Y-69526632D01*
X31795990Y-69283411D01*
X31907932Y-69013158D01*
X31965000Y-68726260D01*
X31965000Y-68618061D01*
X38589000Y-68618061D01*
X38589000Y-68821939D01*
X38628774Y-69021898D01*
X38706795Y-69210256D01*
X38820063Y-69379774D01*
X38964226Y-69523937D01*
X39133744Y-69637205D01*
X39322102Y-69715226D01*
X39522061Y-69755000D01*
X39725939Y-69755000D01*
X39925898Y-69715226D01*
X40114256Y-69637205D01*
X40283774Y-69523937D01*
X40327711Y-69480000D01*
X45776289Y-69480000D01*
X45820226Y-69523937D01*
X45989744Y-69637205D01*
X46178102Y-69715226D01*
X46378061Y-69755000D01*
X46581939Y-69755000D01*
X46781898Y-69715226D01*
X46970256Y-69637205D01*
X47139774Y-69523937D01*
X47283937Y-69379774D01*
X47397205Y-69210256D01*
X47475226Y-69021898D01*
X47515000Y-68821939D01*
X47515000Y-68618061D01*
X47475226Y-68418102D01*
X47397205Y-68229744D01*
X47283937Y-68060226D01*
X47139774Y-67916063D01*
X46970256Y-67802795D01*
X46781898Y-67724774D01*
X46581939Y-67685000D01*
X46378061Y-67685000D01*
X46178102Y-67724774D01*
X46015000Y-67792334D01*
X46015000Y-67759801D01*
X46991004Y-66783798D01*
X47020001Y-66760001D01*
X47114974Y-66644276D01*
X47185546Y-66512247D01*
X47229003Y-66368986D01*
X47240000Y-66257333D01*
X47240000Y-66257324D01*
X47243676Y-66220001D01*
X47240000Y-66182678D01*
X47240000Y-65423711D01*
X47283937Y-65379774D01*
X47397205Y-65210256D01*
X47475226Y-65021898D01*
X47515000Y-64821939D01*
X47515000Y-64618061D01*
X47475226Y-64418102D01*
X47397205Y-64229744D01*
X47283937Y-64060226D01*
X47139774Y-63916063D01*
X46970256Y-63802795D01*
X46781898Y-63724774D01*
X46581939Y-63685000D01*
X46378061Y-63685000D01*
X46178102Y-63724774D01*
X45989744Y-63802795D01*
X45820226Y-63916063D01*
X45676063Y-64060226D01*
X45562795Y-64229744D01*
X45484774Y-64418102D01*
X45445000Y-64618061D01*
X45445000Y-64821939D01*
X45484774Y-65021898D01*
X45562795Y-65210256D01*
X45676063Y-65379774D01*
X45720001Y-65423712D01*
X45720000Y-65905198D01*
X44940199Y-66685000D01*
X44878061Y-66685000D01*
X44678102Y-66724774D01*
X44489744Y-66802795D01*
X44320226Y-66916063D01*
X44176063Y-67060226D01*
X44062795Y-67229744D01*
X43984774Y-67418102D01*
X43945000Y-67618061D01*
X43945000Y-67821939D01*
X43972462Y-67960000D01*
X40327711Y-67960000D01*
X40283774Y-67916063D01*
X40114256Y-67802795D01*
X39925898Y-67724774D01*
X39725939Y-67685000D01*
X39522061Y-67685000D01*
X39322102Y-67724774D01*
X39133744Y-67802795D01*
X38964226Y-67916063D01*
X38820063Y-68060226D01*
X38706795Y-68229744D01*
X38628774Y-68418102D01*
X38589000Y-68618061D01*
X31965000Y-68618061D01*
X31965000Y-68433740D01*
X31921210Y-68213592D01*
X32654802Y-67480000D01*
X34276289Y-67480000D01*
X34320226Y-67523937D01*
X34489744Y-67637205D01*
X34678102Y-67715226D01*
X34878061Y-67755000D01*
X35081939Y-67755000D01*
X35281898Y-67715226D01*
X35470256Y-67637205D01*
X35639774Y-67523937D01*
X35730000Y-67433711D01*
X35820226Y-67523937D01*
X35989744Y-67637205D01*
X36178102Y-67715226D01*
X36378061Y-67755000D01*
X36581939Y-67755000D01*
X36781898Y-67715226D01*
X36970256Y-67637205D01*
X37139774Y-67523937D01*
X37283937Y-67379774D01*
X37397205Y-67210256D01*
X37475226Y-67021898D01*
X37515000Y-66821939D01*
X37515000Y-66618061D01*
X39445000Y-66618061D01*
X39445000Y-66821939D01*
X39484774Y-67021898D01*
X39562795Y-67210256D01*
X39676063Y-67379774D01*
X39820226Y-67523937D01*
X39989744Y-67637205D01*
X40178102Y-67715226D01*
X40378061Y-67755000D01*
X40581939Y-67755000D01*
X40781898Y-67715226D01*
X40970256Y-67637205D01*
X41139774Y-67523937D01*
X41283937Y-67379774D01*
X41397205Y-67210256D01*
X41475226Y-67021898D01*
X41515000Y-66821939D01*
X41515000Y-66618061D01*
X41475226Y-66418102D01*
X41434652Y-66320149D01*
X46991009Y-60763794D01*
X47020001Y-60740001D01*
X47043795Y-60711008D01*
X47043799Y-60711004D01*
X47114973Y-60624277D01*
X47114974Y-60624276D01*
X47185546Y-60492247D01*
X47229003Y-60348986D01*
X47240000Y-60237333D01*
X47240000Y-60237324D01*
X47243676Y-60200001D01*
X47240000Y-60162678D01*
X47240000Y-59423711D01*
X47283937Y-59379774D01*
X47397205Y-59210256D01*
X47475226Y-59021898D01*
X47515000Y-58821939D01*
X47515000Y-58618061D01*
X47475226Y-58418102D01*
X47397205Y-58229744D01*
X47283937Y-58060226D01*
X47139774Y-57916063D01*
X46970256Y-57802795D01*
X46781898Y-57724774D01*
X46581939Y-57685000D01*
X46378061Y-57685000D01*
X46178102Y-57724774D01*
X45989744Y-57802795D01*
X45820226Y-57916063D01*
X45676063Y-58060226D01*
X45562795Y-58229744D01*
X45484774Y-58418102D01*
X45445000Y-58618061D01*
X45445000Y-58821939D01*
X45484774Y-59021898D01*
X45562795Y-59210256D01*
X45676063Y-59379774D01*
X45720000Y-59423711D01*
X45720000Y-59885197D01*
X39968998Y-65636201D01*
X39940000Y-65659999D01*
X39845026Y-65775724D01*
X39774454Y-65907753D01*
X39750905Y-65985384D01*
X39676063Y-66060226D01*
X39562795Y-66229744D01*
X39484774Y-66418102D01*
X39445000Y-66618061D01*
X37515000Y-66618061D01*
X37475226Y-66418102D01*
X37397205Y-66229744D01*
X37283937Y-66060226D01*
X37139774Y-65916063D01*
X36970256Y-65802795D01*
X36781898Y-65724774D01*
X36581939Y-65685000D01*
X36519801Y-65685000D01*
X36318802Y-65484001D01*
X36295000Y-65454998D01*
X36179275Y-65360025D01*
X36047246Y-65289453D01*
X35903985Y-65245996D01*
X35792332Y-65234999D01*
X35792321Y-65234999D01*
X35754999Y-65231323D01*
X35717677Y-65234999D01*
X31728110Y-65234999D01*
X31633475Y-65093368D01*
X31426632Y-64886525D01*
X31252240Y-64770000D01*
X31426632Y-64653475D01*
X31633475Y-64446632D01*
X31795990Y-64203411D01*
X31907932Y-63933158D01*
X31965000Y-63646260D01*
X31965000Y-63353740D01*
X31907932Y-63066842D01*
X31795990Y-62796589D01*
X31633475Y-62553368D01*
X31426632Y-62346525D01*
X31252240Y-62230000D01*
X31426632Y-62113475D01*
X31633475Y-61906632D01*
X31795990Y-61663411D01*
X31907932Y-61393158D01*
X31965000Y-61106260D01*
X31965000Y-60813740D01*
X31907932Y-60526842D01*
X31795990Y-60256589D01*
X31633475Y-60013368D01*
X31426632Y-59806525D01*
X31252240Y-59690000D01*
X31426632Y-59573475D01*
X31633475Y-59366632D01*
X31795990Y-59123411D01*
X31907932Y-58853158D01*
X31965000Y-58566260D01*
X31965000Y-58273740D01*
X31907932Y-57986842D01*
X31795990Y-57716589D01*
X31633475Y-57473368D01*
X31501620Y-57341513D01*
X31574180Y-57319502D01*
X31684494Y-57260537D01*
X31781185Y-57181185D01*
X31841197Y-57108059D01*
X35455002Y-57108059D01*
X35455002Y-57311937D01*
X35494776Y-57511896D01*
X35572797Y-57700254D01*
X35686065Y-57869772D01*
X35730003Y-57913710D01*
X35730002Y-60526291D01*
X35686065Y-60570228D01*
X35572797Y-60739746D01*
X35494776Y-60928104D01*
X35455002Y-61128063D01*
X35455002Y-61331941D01*
X35494776Y-61531900D01*
X35572797Y-61720258D01*
X35686065Y-61889776D01*
X35830228Y-62033939D01*
X35999746Y-62147207D01*
X36188104Y-62225228D01*
X36388063Y-62265002D01*
X36591941Y-62265002D01*
X36791900Y-62225228D01*
X36980258Y-62147207D01*
X37149776Y-62033939D01*
X37240002Y-61943713D01*
X37320226Y-62023937D01*
X37489744Y-62137205D01*
X37678102Y-62215226D01*
X37878061Y-62255000D01*
X38081939Y-62255000D01*
X38281898Y-62215226D01*
X38470256Y-62137205D01*
X38639774Y-62023937D01*
X38730000Y-61933711D01*
X38820226Y-62023937D01*
X38989744Y-62137205D01*
X39178102Y-62215226D01*
X39378061Y-62255000D01*
X39581939Y-62255000D01*
X39781898Y-62215226D01*
X39970256Y-62137205D01*
X40139774Y-62023937D01*
X40230000Y-61933711D01*
X40320226Y-62023937D01*
X40489744Y-62137205D01*
X40678102Y-62215226D01*
X40878061Y-62255000D01*
X41081939Y-62255000D01*
X41281898Y-62215226D01*
X41470256Y-62137205D01*
X41639774Y-62023937D01*
X41730000Y-61933711D01*
X41820226Y-62023937D01*
X41989744Y-62137205D01*
X42178102Y-62215226D01*
X42378061Y-62255000D01*
X42581939Y-62255000D01*
X42781898Y-62215226D01*
X42970256Y-62137205D01*
X43139774Y-62023937D01*
X43283937Y-61879774D01*
X43397205Y-61710256D01*
X43475226Y-61521898D01*
X43515000Y-61321939D01*
X43515000Y-61118061D01*
X43475226Y-60918102D01*
X43397205Y-60729744D01*
X43283937Y-60560226D01*
X43240000Y-60516289D01*
X43240000Y-55757325D01*
X43243676Y-55720000D01*
X43240000Y-55682675D01*
X43240000Y-55682667D01*
X43229003Y-55571014D01*
X43185546Y-55427753D01*
X43114974Y-55295724D01*
X43020001Y-55179999D01*
X43015000Y-55175895D01*
X43015000Y-55118061D01*
X42975226Y-54918102D01*
X42897205Y-54729744D01*
X42783937Y-54560226D01*
X42692376Y-54468665D01*
X43015000Y-54468665D01*
X43015000Y-54751335D01*
X43070147Y-55028574D01*
X43178320Y-55289727D01*
X43335363Y-55524759D01*
X43535241Y-55724637D01*
X43770273Y-55881680D01*
X44031426Y-55989853D01*
X44308665Y-56045000D01*
X44591335Y-56045000D01*
X44868574Y-55989853D01*
X45129727Y-55881680D01*
X45364759Y-55724637D01*
X45564637Y-55524759D01*
X45721680Y-55289727D01*
X45829853Y-55028574D01*
X45885000Y-54751335D01*
X45885000Y-54468665D01*
X45829853Y-54191426D01*
X45721680Y-53930273D01*
X45564637Y-53695241D01*
X45364759Y-53495363D01*
X45129727Y-53338320D01*
X44868574Y-53230147D01*
X44591335Y-53175000D01*
X44308665Y-53175000D01*
X44031426Y-53230147D01*
X43770273Y-53338320D01*
X43535241Y-53495363D01*
X43335363Y-53695241D01*
X43178320Y-53930273D01*
X43070147Y-54191426D01*
X43015000Y-54468665D01*
X42692376Y-54468665D01*
X42639774Y-54416063D01*
X42470256Y-54302795D01*
X42281898Y-54224774D01*
X42081939Y-54185000D01*
X41878061Y-54185000D01*
X41678102Y-54224774D01*
X41489744Y-54302795D01*
X41320226Y-54416063D01*
X41176063Y-54560226D01*
X41062795Y-54729744D01*
X40984774Y-54918102D01*
X40945000Y-55118061D01*
X40945000Y-55321939D01*
X40984774Y-55521898D01*
X41062795Y-55710256D01*
X41176063Y-55879774D01*
X41320226Y-56023937D01*
X41489744Y-56137205D01*
X41678102Y-56215226D01*
X41720001Y-56223560D01*
X41720001Y-56496290D01*
X41639774Y-56416063D01*
X41470256Y-56302795D01*
X41281898Y-56224774D01*
X41081939Y-56185000D01*
X40878061Y-56185000D01*
X40678102Y-56224774D01*
X40489744Y-56302795D01*
X40440965Y-56335388D01*
X40397205Y-56229744D01*
X40283937Y-56060226D01*
X40139774Y-55916063D01*
X39970256Y-55802795D01*
X39781898Y-55724774D01*
X39581939Y-55685000D01*
X39378061Y-55685000D01*
X39178102Y-55724774D01*
X38989744Y-55802795D01*
X38820226Y-55916063D01*
X38740000Y-55996289D01*
X38740000Y-55757332D01*
X38743677Y-55720000D01*
X38740000Y-55682667D01*
X38740000Y-55423711D01*
X38783937Y-55379774D01*
X38897205Y-55210256D01*
X38975226Y-55021898D01*
X39015000Y-54821939D01*
X39015000Y-54618061D01*
X38975226Y-54418102D01*
X38897205Y-54229744D01*
X38783937Y-54060226D01*
X38639774Y-53916063D01*
X38470256Y-53802795D01*
X38281898Y-53724774D01*
X38081939Y-53685000D01*
X37878061Y-53685000D01*
X37678102Y-53724774D01*
X37489744Y-53802795D01*
X37320226Y-53916063D01*
X37176063Y-54060226D01*
X37062795Y-54229744D01*
X36984774Y-54418102D01*
X36945000Y-54618061D01*
X36945000Y-54821939D01*
X36984774Y-55021898D01*
X37062795Y-55210256D01*
X37176063Y-55379774D01*
X37220000Y-55423711D01*
X37220000Y-55682666D01*
X37216323Y-55720000D01*
X37220001Y-55757343D01*
X37220001Y-56476286D01*
X37149776Y-56406061D01*
X36980258Y-56292793D01*
X36791900Y-56214772D01*
X36591941Y-56174998D01*
X36388063Y-56174998D01*
X36188104Y-56214772D01*
X35999746Y-56292793D01*
X35830228Y-56406061D01*
X35686065Y-56550224D01*
X35572797Y-56719742D01*
X35494776Y-56908100D01*
X35455002Y-57108059D01*
X31841197Y-57108059D01*
X31860537Y-57084494D01*
X31919502Y-56974180D01*
X31955812Y-56854482D01*
X31968072Y-56730000D01*
X31968072Y-55030000D01*
X31955812Y-54905518D01*
X31919502Y-54785820D01*
X31860537Y-54675506D01*
X31781185Y-54578815D01*
X31684494Y-54499463D01*
X31626876Y-54468665D01*
X32855000Y-54468665D01*
X32855000Y-54751335D01*
X32910147Y-55028574D01*
X33018320Y-55289727D01*
X33175363Y-55524759D01*
X33375241Y-55724637D01*
X33610273Y-55881680D01*
X33871426Y-55989853D01*
X34148665Y-56045000D01*
X34431335Y-56045000D01*
X34708574Y-55989853D01*
X34969727Y-55881680D01*
X35204759Y-55724637D01*
X35404637Y-55524759D01*
X35561680Y-55289727D01*
X35669853Y-55028574D01*
X35725000Y-54751335D01*
X35725000Y-54468665D01*
X35669853Y-54191426D01*
X35561680Y-53930273D01*
X35404637Y-53695241D01*
X35204759Y-53495363D01*
X34969727Y-53338320D01*
X34708574Y-53230147D01*
X34431335Y-53175000D01*
X34148665Y-53175000D01*
X33871426Y-53230147D01*
X33610273Y-53338320D01*
X33375241Y-53495363D01*
X33175363Y-53695241D01*
X33018320Y-53930273D01*
X32910147Y-54191426D01*
X32855000Y-54468665D01*
X31626876Y-54468665D01*
X31574180Y-54440498D01*
X31454482Y-54404188D01*
X31330000Y-54391928D01*
X29630000Y-54391928D01*
X29505518Y-54404188D01*
X29385820Y-54440498D01*
X29275506Y-54499463D01*
X29235000Y-54532705D01*
X29235000Y-51609655D01*
X29326525Y-51746632D01*
X29533368Y-51953475D01*
X29776589Y-52115990D01*
X30046842Y-52227932D01*
X30333740Y-52285000D01*
X30626260Y-52285000D01*
X30913158Y-52227932D01*
X31183411Y-52115990D01*
X31426632Y-51953475D01*
X31633475Y-51746632D01*
X31750000Y-51572240D01*
X31866525Y-51746632D01*
X32073368Y-51953475D01*
X32316589Y-52115990D01*
X32586842Y-52227932D01*
X32873740Y-52285000D01*
X33166260Y-52285000D01*
X33453158Y-52227932D01*
X33723411Y-52115990D01*
X33966632Y-51953475D01*
X34173475Y-51746632D01*
X34290000Y-51572240D01*
X34406525Y-51746632D01*
X34613368Y-51953475D01*
X34856589Y-52115990D01*
X35126842Y-52227932D01*
X35413740Y-52285000D01*
X35706260Y-52285000D01*
X35993158Y-52227932D01*
X36263411Y-52115990D01*
X36506632Y-51953475D01*
X36638487Y-51821620D01*
X36660498Y-51894180D01*
X36719463Y-52004494D01*
X36798815Y-52101185D01*
X36895506Y-52180537D01*
X37005820Y-52239502D01*
X37125518Y-52275812D01*
X37250000Y-52288072D01*
X38950000Y-52288072D01*
X39074482Y-52275812D01*
X39194180Y-52239502D01*
X39304494Y-52180537D01*
X39401185Y-52101185D01*
X39480537Y-52004494D01*
X39539502Y-51894180D01*
X39575812Y-51774482D01*
X39588072Y-51650000D01*
X39588072Y-49950000D01*
X39575812Y-49825518D01*
X39539502Y-49705820D01*
X39480537Y-49595506D01*
X39401185Y-49498815D01*
X39304494Y-49419463D01*
X39194180Y-49360498D01*
X39074482Y-49324188D01*
X38950000Y-49311928D01*
X37250000Y-49311928D01*
X37125518Y-49324188D01*
X37005820Y-49360498D01*
X36895506Y-49419463D01*
X36798815Y-49498815D01*
X36719463Y-49595506D01*
X36660498Y-49705820D01*
X36638487Y-49778380D01*
X36506632Y-49646525D01*
X36263411Y-49484010D01*
X35993158Y-49372068D01*
X35706260Y-49315000D01*
X35413740Y-49315000D01*
X35126842Y-49372068D01*
X34856589Y-49484010D01*
X34613368Y-49646525D01*
X34406525Y-49853368D01*
X34290000Y-50027760D01*
X34173475Y-49853368D01*
X33966632Y-49646525D01*
X33723411Y-49484010D01*
X33453158Y-49372068D01*
X33166260Y-49315000D01*
X32873740Y-49315000D01*
X32586842Y-49372068D01*
X32316589Y-49484010D01*
X32073368Y-49646525D01*
X31866525Y-49853368D01*
X31750000Y-50027760D01*
X31633475Y-49853368D01*
X31426632Y-49646525D01*
X31183411Y-49484010D01*
X30913158Y-49372068D01*
X30626260Y-49315000D01*
X30333740Y-49315000D01*
X30046842Y-49372068D01*
X29776589Y-49484010D01*
X29533368Y-49646525D01*
X29326525Y-49853368D01*
X29235000Y-49990345D01*
X29235000Y-45555000D01*
X43646928Y-45555000D01*
X43646928Y-47155000D01*
X43659188Y-47279482D01*
X43695498Y-47399180D01*
X43754463Y-47509494D01*
X43833815Y-47606185D01*
X43930506Y-47685537D01*
X44040820Y-47744502D01*
X44160518Y-47780812D01*
X44285000Y-47793072D01*
X45885000Y-47793072D01*
X46009482Y-47780812D01*
X46129180Y-47744502D01*
X46239494Y-47685537D01*
X46336185Y-47606185D01*
X46415537Y-47509494D01*
X46474502Y-47399180D01*
X46490117Y-47347702D01*
X46771903Y-47347702D01*
X46843486Y-47591671D01*
X47098996Y-47712571D01*
X47373184Y-47781300D01*
X47655512Y-47795217D01*
X47935130Y-47753787D01*
X48201292Y-47658603D01*
X48326514Y-47591671D01*
X48398097Y-47347702D01*
X47585000Y-46534605D01*
X46771903Y-47347702D01*
X46490117Y-47347702D01*
X46510812Y-47279482D01*
X46523072Y-47155000D01*
X46523072Y-47147785D01*
X46592298Y-47168097D01*
X47405395Y-46355000D01*
X47764605Y-46355000D01*
X48577702Y-47168097D01*
X48821671Y-47096514D01*
X48942571Y-46841004D01*
X49011300Y-46566816D01*
X49025217Y-46284488D01*
X48983787Y-46004870D01*
X48888603Y-45738708D01*
X48821671Y-45613486D01*
X48577702Y-45541903D01*
X47764605Y-46355000D01*
X47405395Y-46355000D01*
X46592298Y-45541903D01*
X46523072Y-45562215D01*
X46523072Y-45555000D01*
X46510812Y-45430518D01*
X46490118Y-45362298D01*
X46771903Y-45362298D01*
X47585000Y-46175395D01*
X48398097Y-45362298D01*
X48326514Y-45118329D01*
X48071004Y-44997429D01*
X47796816Y-44928700D01*
X47514488Y-44914783D01*
X47234870Y-44956213D01*
X46968708Y-45051397D01*
X46843486Y-45118329D01*
X46771903Y-45362298D01*
X46490118Y-45362298D01*
X46474502Y-45310820D01*
X46415537Y-45200506D01*
X46336185Y-45103815D01*
X46239494Y-45024463D01*
X46129180Y-44965498D01*
X46009482Y-44929188D01*
X45885000Y-44916928D01*
X44285000Y-44916928D01*
X44160518Y-44929188D01*
X44040820Y-44965498D01*
X43930506Y-45024463D01*
X43833815Y-45103815D01*
X43754463Y-45200506D01*
X43695498Y-45310820D01*
X43659188Y-45430518D01*
X43646928Y-45555000D01*
X29235000Y-45555000D01*
X29235000Y-42577275D01*
X29235666Y-42570487D01*
X29240301Y-42570000D01*
X50767725Y-42570000D01*
X50774513Y-42570666D01*
G37*
%TD.AperFunction*%
%TD*%
M02*
