M48
; DRILL file {KiCad (5.1.7)-1} date 03/21/22 18:16:12
; FORMAT={-:-/ absolute / metric / decimal}
; #@! TF.CreationDate,2022-03-21T18:16:12-03:00
; #@! TF.GenerationSoftware,Kicad,Pcbnew,(5.1.7)-1
FMAT,2
METRIC
T1C0.400
T2C0.800
T3C1.000
%
G90
G05
T1
X36.83Y-36.83
X36.83Y-45.72
X36.83Y-54.61
X36.83Y-63.5
X36.83Y-72.39
X39.37Y-36.83
X39.37Y-45.72
X39.37Y-54.61
X39.37Y-63.5
X39.37Y-72.39
T2
X27.94Y-35.56
X27.94Y-38.1
X27.94Y-40.64
X27.94Y-43.18
X27.94Y-45.72
X27.94Y-48.26
X27.94Y-50.8
X27.94Y-53.34
X27.94Y-55.88
X27.94Y-58.42
X27.94Y-60.96
X27.94Y-63.5
X27.94Y-66.04
X27.94Y-68.58
X27.94Y-71.12
X27.94Y-73.66
X43.18Y-35.56
X43.18Y-38.1
X43.18Y-40.64
X43.18Y-43.18
X43.18Y-45.72
X43.18Y-48.26
X43.18Y-50.8
X43.18Y-53.34
X43.18Y-55.88
X43.18Y-58.42
X43.18Y-60.96
X43.18Y-63.5
X43.18Y-66.04
X43.18Y-68.58
X43.18Y-71.12
X43.18Y-73.66
X46.99Y-35.56
X46.99Y-38.06
T3
X33.02Y-35.56
X33.02Y-38.1
X33.02Y-40.64
X33.02Y-43.18
X33.02Y-45.72
X33.02Y-48.26
X33.02Y-50.8
X33.02Y-53.34
X33.02Y-55.88
X33.02Y-58.42
X33.02Y-60.96
X33.02Y-63.5
X33.02Y-66.04
X33.02Y-68.58
X33.02Y-71.12
X33.02Y-73.66
X52.07Y-35.56
X52.07Y-38.1
X52.07Y-40.64
X52.07Y-43.18
X52.07Y-45.72
X52.07Y-48.26
X52.07Y-50.8
X52.07Y-53.34
X52.07Y-55.88
X52.07Y-58.42
X52.07Y-60.96
X52.07Y-63.5
X52.07Y-66.04
X52.07Y-68.58
X52.07Y-71.12
X52.07Y-73.66
T0
M30
