%TF.GenerationSoftware,KiCad,Pcbnew,(5.1.7)-1*%
%TF.CreationDate,2022-03-21T18:16:10-03:00*%
%TF.ProjectId,ROMAdaptor,524f4d41-6461-4707-946f-722e6b696361,rev?*%
%TF.SameCoordinates,Original*%
%TF.FileFunction,Soldermask,Top*%
%TF.FilePolarity,Negative*%
%FSLAX46Y46*%
G04 Gerber Fmt 4.6, Leading zero omitted, Abs format (unit mm)*
G04 Created by KiCad (PCBNEW (5.1.7)-1) date 2022-03-21 18:16:10*
%MOMM*%
%LPD*%
G01*
G04 APERTURE LIST*
%ADD10C,1.600000*%
%ADD11O,2.400000X1.600000*%
%ADD12R,2.400000X1.600000*%
%ADD13O,1.700000X1.700000*%
%ADD14R,1.700000X1.700000*%
G04 APERTURE END LIST*
D10*
%TO.C,C1*%
X46990000Y-38060000D03*
X46990000Y-35560000D03*
%TD*%
D11*
%TO.C,U1*%
X43180000Y-35560000D03*
X27940000Y-73660000D03*
X43180000Y-38100000D03*
X27940000Y-71120000D03*
X43180000Y-40640000D03*
X27940000Y-68580000D03*
X43180000Y-43180000D03*
X27940000Y-66040000D03*
X43180000Y-45720000D03*
X27940000Y-63500000D03*
X43180000Y-48260000D03*
X27940000Y-60960000D03*
X43180000Y-50800000D03*
X27940000Y-58420000D03*
X43180000Y-53340000D03*
X27940000Y-55880000D03*
X43180000Y-55880000D03*
X27940000Y-53340000D03*
X43180000Y-58420000D03*
X27940000Y-50800000D03*
X43180000Y-60960000D03*
X27940000Y-48260000D03*
X43180000Y-63500000D03*
X27940000Y-45720000D03*
X43180000Y-66040000D03*
X27940000Y-43180000D03*
X43180000Y-68580000D03*
X27940000Y-40640000D03*
X43180000Y-71120000D03*
X27940000Y-38100000D03*
X43180000Y-73660000D03*
D12*
X27940000Y-35560000D03*
%TD*%
D13*
%TO.C,J2*%
X52070000Y-35560000D03*
X52070000Y-38100000D03*
X52070000Y-40640000D03*
X52070000Y-43180000D03*
X52070000Y-45720000D03*
X52070000Y-48260000D03*
X52070000Y-50800000D03*
X52070000Y-53340000D03*
X52070000Y-55880000D03*
X52070000Y-58420000D03*
X52070000Y-60960000D03*
X52070000Y-63500000D03*
X52070000Y-66040000D03*
X52070000Y-68580000D03*
X52070000Y-71120000D03*
D14*
X52070000Y-73660000D03*
%TD*%
D13*
%TO.C,J1*%
X33020000Y-73660000D03*
X33020000Y-71120000D03*
X33020000Y-68580000D03*
X33020000Y-66040000D03*
X33020000Y-63500000D03*
X33020000Y-60960000D03*
X33020000Y-58420000D03*
X33020000Y-55880000D03*
X33020000Y-53340000D03*
X33020000Y-50800000D03*
X33020000Y-48260000D03*
X33020000Y-45720000D03*
X33020000Y-43180000D03*
X33020000Y-40640000D03*
X33020000Y-38100000D03*
D14*
X33020000Y-35560000D03*
%TD*%
M02*
