%TF.GenerationSoftware,KiCad,Pcbnew,(5.1.7)-1*%
%TF.CreationDate,2022-03-21T18:16:10-03:00*%
%TF.ProjectId,ROMAdaptor,524f4d41-6461-4707-946f-722e6b696361,rev?*%
%TF.SameCoordinates,Original*%
%TF.FileFunction,Legend,Top*%
%TF.FilePolarity,Positive*%
%FSLAX46Y46*%
G04 Gerber Fmt 4.6, Leading zero omitted, Abs format (unit mm)*
G04 Created by KiCad (PCBNEW (5.1.7)-1) date 2022-03-21 18:16:10*
%MOMM*%
%LPD*%
G01*
G04 APERTURE LIST*
%ADD10C,0.150000*%
%ADD11C,0.120000*%
G04 APERTURE END LIST*
D10*
X30289523Y-74112380D02*
X29718095Y-74112380D01*
X30003809Y-74112380D02*
X30003809Y-73112380D01*
X29908571Y-73255238D01*
X29813333Y-73350476D01*
X29718095Y-73398095D01*
X31146666Y-73112380D02*
X30956190Y-73112380D01*
X30860952Y-73160000D01*
X30813333Y-73207619D01*
X30718095Y-73350476D01*
X30670476Y-73540952D01*
X30670476Y-73921904D01*
X30718095Y-74017142D01*
X30765714Y-74064761D01*
X30860952Y-74112380D01*
X31051428Y-74112380D01*
X31146666Y-74064761D01*
X31194285Y-74017142D01*
X31241904Y-73921904D01*
X31241904Y-73683809D01*
X31194285Y-73588571D01*
X31146666Y-73540952D01*
X31051428Y-73493333D01*
X30860952Y-73493333D01*
X30765714Y-73540952D01*
X30718095Y-73588571D01*
X30670476Y-73683809D01*
X49339523Y-74112380D02*
X48768095Y-74112380D01*
X49053809Y-74112380D02*
X49053809Y-73112380D01*
X48958571Y-73255238D01*
X48863333Y-73350476D01*
X48768095Y-73398095D01*
X49672857Y-73112380D02*
X50339523Y-73112380D01*
X49910952Y-74112380D01*
X48720476Y-35012380D02*
X49339523Y-35012380D01*
X49006190Y-35393333D01*
X49149047Y-35393333D01*
X49244285Y-35440952D01*
X49291904Y-35488571D01*
X49339523Y-35583809D01*
X49339523Y-35821904D01*
X49291904Y-35917142D01*
X49244285Y-35964761D01*
X49149047Y-36012380D01*
X48863333Y-36012380D01*
X48768095Y-35964761D01*
X48720476Y-35917142D01*
X49720476Y-35107619D02*
X49768095Y-35060000D01*
X49863333Y-35012380D01*
X50101428Y-35012380D01*
X50196666Y-35060000D01*
X50244285Y-35107619D01*
X50291904Y-35202857D01*
X50291904Y-35298095D01*
X50244285Y-35440952D01*
X49672857Y-36012380D01*
X50291904Y-36012380D01*
X30765714Y-36012380D02*
X30194285Y-36012380D01*
X30480000Y-36012380D02*
X30480000Y-35012380D01*
X30384761Y-35155238D01*
X30289523Y-35250476D01*
X30194285Y-35298095D01*
X48712380Y-59863809D02*
X48236190Y-60197142D01*
X48712380Y-60435238D02*
X47712380Y-60435238D01*
X47712380Y-60054285D01*
X47760000Y-59959047D01*
X47807619Y-59911428D01*
X47902857Y-59863809D01*
X48045714Y-59863809D01*
X48140952Y-59911428D01*
X48188571Y-59959047D01*
X48236190Y-60054285D01*
X48236190Y-60435238D01*
X47712380Y-59244761D02*
X47712380Y-59054285D01*
X47760000Y-58959047D01*
X47855238Y-58863809D01*
X48045714Y-58816190D01*
X48379047Y-58816190D01*
X48569523Y-58863809D01*
X48664761Y-58959047D01*
X48712380Y-59054285D01*
X48712380Y-59244761D01*
X48664761Y-59340000D01*
X48569523Y-59435238D01*
X48379047Y-59482857D01*
X48045714Y-59482857D01*
X47855238Y-59435238D01*
X47760000Y-59340000D01*
X47712380Y-59244761D01*
X48712380Y-58387619D02*
X47712380Y-58387619D01*
X48426666Y-58054285D01*
X47712380Y-57720952D01*
X48712380Y-57720952D01*
X48426666Y-57292380D02*
X48426666Y-56816190D01*
X48712380Y-57387619D02*
X47712380Y-57054285D01*
X48712380Y-56720952D01*
X48712380Y-56387619D02*
X47712380Y-56387619D01*
X47712380Y-56149523D01*
X47760000Y-56006666D01*
X47855238Y-55911428D01*
X47950476Y-55863809D01*
X48140952Y-55816190D01*
X48283809Y-55816190D01*
X48474285Y-55863809D01*
X48569523Y-55911428D01*
X48664761Y-56006666D01*
X48712380Y-56149523D01*
X48712380Y-56387619D01*
X48426666Y-55435238D02*
X48426666Y-54959047D01*
X48712380Y-55530476D02*
X47712380Y-55197142D01*
X48712380Y-54863809D01*
X48712380Y-54530476D02*
X47712380Y-54530476D01*
X47712380Y-54149523D01*
X47760000Y-54054285D01*
X47807619Y-54006666D01*
X47902857Y-53959047D01*
X48045714Y-53959047D01*
X48140952Y-54006666D01*
X48188571Y-54054285D01*
X48236190Y-54149523D01*
X48236190Y-54530476D01*
X47712380Y-53673333D02*
X47712380Y-53101904D01*
X48712380Y-53387619D02*
X47712380Y-53387619D01*
X47712380Y-52578095D02*
X47712380Y-52387619D01*
X47760000Y-52292380D01*
X47855238Y-52197142D01*
X48045714Y-52149523D01*
X48379047Y-52149523D01*
X48569523Y-52197142D01*
X48664761Y-52292380D01*
X48712380Y-52387619D01*
X48712380Y-52578095D01*
X48664761Y-52673333D01*
X48569523Y-52768571D01*
X48379047Y-52816190D01*
X48045714Y-52816190D01*
X47855238Y-52768571D01*
X47760000Y-52673333D01*
X47712380Y-52578095D01*
X48712380Y-51149523D02*
X48236190Y-51482857D01*
X48712380Y-51720952D02*
X47712380Y-51720952D01*
X47712380Y-51340000D01*
X47760000Y-51244761D01*
X47807619Y-51197142D01*
X47902857Y-51149523D01*
X48045714Y-51149523D01*
X48140952Y-51197142D01*
X48188571Y-51244761D01*
X48236190Y-51340000D01*
X48236190Y-51720952D01*
X47712380Y-50101904D02*
X48712380Y-49768571D01*
X47712380Y-49435238D01*
X48712380Y-48578095D02*
X48712380Y-49149523D01*
X48712380Y-48863809D02*
X47712380Y-48863809D01*
X47855238Y-48959047D01*
X47950476Y-49054285D01*
X47998095Y-49149523D01*
X48617142Y-48149523D02*
X48664761Y-48101904D01*
X48712380Y-48149523D01*
X48664761Y-48197142D01*
X48617142Y-48149523D01*
X48712380Y-48149523D01*
X47712380Y-47482857D02*
X47712380Y-47387619D01*
X47760000Y-47292380D01*
X47807619Y-47244761D01*
X47902857Y-47197142D01*
X48093333Y-47149523D01*
X48331428Y-47149523D01*
X48521904Y-47197142D01*
X48617142Y-47244761D01*
X48664761Y-47292380D01*
X48712380Y-47387619D01*
X48712380Y-47482857D01*
X48664761Y-47578095D01*
X48617142Y-47625714D01*
X48521904Y-47673333D01*
X48331428Y-47720952D01*
X48093333Y-47720952D01*
X47902857Y-47673333D01*
X47807619Y-47625714D01*
X47760000Y-47578095D01*
X47712380Y-47482857D01*
X47712380Y-46530476D02*
X47712380Y-46435238D01*
X47760000Y-46340000D01*
X47807619Y-46292380D01*
X47902857Y-46244761D01*
X48093333Y-46197142D01*
X48331428Y-46197142D01*
X48521904Y-46244761D01*
X48617142Y-46292380D01*
X48664761Y-46340000D01*
X48712380Y-46435238D01*
X48712380Y-46530476D01*
X48664761Y-46625714D01*
X48617142Y-46673333D01*
X48521904Y-46720952D01*
X48331428Y-46768571D01*
X48093333Y-46768571D01*
X47902857Y-46720952D01*
X47807619Y-46673333D01*
X47760000Y-46625714D01*
X47712380Y-46530476D01*
D11*
%TO.C,C1*%
X48410000Y-34790000D02*
X48410000Y-38830000D01*
X45570000Y-34790000D02*
X45570000Y-38830000D01*
X48410000Y-34790000D02*
X47785000Y-34790000D01*
X46195000Y-34790000D02*
X45570000Y-34790000D01*
X48410000Y-38830000D02*
X47785000Y-38830000D01*
X46195000Y-38830000D02*
X45570000Y-38830000D01*
%TO.C,U1*%
X36560000Y-34230000D02*
G75*
G02*
X34560000Y-34230000I-1000000J0D01*
G01*
X34560000Y-34230000D02*
X29500000Y-34230000D01*
X29500000Y-34230000D02*
X29500000Y-74990000D01*
X29500000Y-74990000D02*
X41620000Y-74990000D01*
X41620000Y-74990000D02*
X41620000Y-34230000D01*
X41620000Y-34230000D02*
X36560000Y-34230000D01*
X26500000Y-34170000D02*
X26500000Y-75050000D01*
X26500000Y-75050000D02*
X44620000Y-75050000D01*
X44620000Y-75050000D02*
X44620000Y-34170000D01*
X44620000Y-34170000D02*
X26500000Y-34170000D01*
%TO.C,J2*%
X53400000Y-34230000D02*
X50740000Y-34230000D01*
X53400000Y-72390000D02*
X53400000Y-34230000D01*
X50740000Y-72390000D02*
X50740000Y-34230000D01*
X53400000Y-72390000D02*
X50740000Y-72390000D01*
X53400000Y-73660000D02*
X53400000Y-74990000D01*
X53400000Y-74990000D02*
X52070000Y-74990000D01*
%TO.C,J1*%
X31690000Y-74990000D02*
X34350000Y-74990000D01*
X31690000Y-36830000D02*
X31690000Y-74990000D01*
X34350000Y-36830000D02*
X34350000Y-74990000D01*
X31690000Y-36830000D02*
X34350000Y-36830000D01*
X31690000Y-35560000D02*
X31690000Y-34230000D01*
X31690000Y-34230000D02*
X33020000Y-34230000D01*
%TO.C,C1*%
D10*
X47347142Y-42076666D02*
X47394761Y-42124285D01*
X47442380Y-42267142D01*
X47442380Y-42362380D01*
X47394761Y-42505238D01*
X47299523Y-42600476D01*
X47204285Y-42648095D01*
X47013809Y-42695714D01*
X46870952Y-42695714D01*
X46680476Y-42648095D01*
X46585238Y-42600476D01*
X46490000Y-42505238D01*
X46442380Y-42362380D01*
X46442380Y-42267142D01*
X46490000Y-42124285D01*
X46537619Y-42076666D01*
X47442380Y-41124285D02*
X47442380Y-41695714D01*
X47442380Y-41410000D02*
X46442380Y-41410000D01*
X46585238Y-41505238D01*
X46680476Y-41600476D01*
X46728095Y-41695714D01*
%TO.C,U1*%
X37338095Y-37552380D02*
X37338095Y-38361904D01*
X37385714Y-38457142D01*
X37433333Y-38504761D01*
X37528571Y-38552380D01*
X37719047Y-38552380D01*
X37814285Y-38504761D01*
X37861904Y-38457142D01*
X37909523Y-38361904D01*
X37909523Y-37552380D01*
X38909523Y-38552380D02*
X38338095Y-38552380D01*
X38623809Y-38552380D02*
X38623809Y-37552380D01*
X38528571Y-37695238D01*
X38433333Y-37790476D01*
X38338095Y-37838095D01*
%TO.C,J2*%
X49196666Y-69302380D02*
X49196666Y-70016666D01*
X49149047Y-70159523D01*
X49053809Y-70254761D01*
X48910952Y-70302380D01*
X48815714Y-70302380D01*
X49625238Y-69397619D02*
X49672857Y-69350000D01*
X49768095Y-69302380D01*
X50006190Y-69302380D01*
X50101428Y-69350000D01*
X50149047Y-69397619D01*
X50196666Y-69492857D01*
X50196666Y-69588095D01*
X50149047Y-69730952D01*
X49577619Y-70302380D01*
X50196666Y-70302380D01*
%TO.C,J1*%
X30146666Y-70572380D02*
X30146666Y-71286666D01*
X30099047Y-71429523D01*
X30003809Y-71524761D01*
X29860952Y-71572380D01*
X29765714Y-71572380D01*
X31146666Y-71572380D02*
X30575238Y-71572380D01*
X30860952Y-71572380D02*
X30860952Y-70572380D01*
X30765714Y-70715238D01*
X30670476Y-70810476D01*
X30575238Y-70858095D01*
%TD*%
M02*
