%TF.GenerationSoftware,KiCad,Pcbnew,(5.1.7)-1*%
%TF.CreationDate,2022-07-11T22:21:29-03:00*%
%TF.ProjectId,ROMboard,524f4d62-6f61-4726-942e-6b696361645f,rev?*%
%TF.SameCoordinates,Original*%
%TF.FileFunction,Legend,Bot*%
%TF.FilePolarity,Positive*%
%FSLAX46Y46*%
G04 Gerber Fmt 4.6, Leading zero omitted, Abs format (unit mm)*
G04 Created by KiCad (PCBNEW (5.1.7)-1) date 2022-07-11 22:21:29*
%MOMM*%
%LPD*%
G01*
G04 APERTURE LIST*
%ADD10C,0.150000*%
G04 APERTURE END LIST*
D10*
X38290476Y-53792380D02*
X38861904Y-53792380D01*
X38576190Y-53792380D02*
X38576190Y-52792380D01*
X38671428Y-52935238D01*
X38766666Y-53030476D01*
X38861904Y-53078095D01*
X37814285Y-53792380D02*
X37623809Y-53792380D01*
X37528571Y-53744761D01*
X37480952Y-53697142D01*
X37385714Y-53554285D01*
X37338095Y-53363809D01*
X37338095Y-52982857D01*
X37385714Y-52887619D01*
X37433333Y-52840000D01*
X37528571Y-52792380D01*
X37719047Y-52792380D01*
X37814285Y-52840000D01*
X37861904Y-52887619D01*
X37909523Y-52982857D01*
X37909523Y-53220952D01*
X37861904Y-53316190D01*
X37814285Y-53363809D01*
X37719047Y-53411428D01*
X37528571Y-53411428D01*
X37433333Y-53363809D01*
X37385714Y-53316190D01*
X37338095Y-53220952D01*
X31241904Y-52887619D02*
X31194285Y-52840000D01*
X31099047Y-52792380D01*
X30860952Y-52792380D01*
X30765714Y-52840000D01*
X30718095Y-52887619D01*
X30670476Y-52982857D01*
X30670476Y-53078095D01*
X30718095Y-53220952D01*
X31289523Y-53792380D01*
X30670476Y-53792380D01*
X30289523Y-52887619D02*
X30241904Y-52840000D01*
X30146666Y-52792380D01*
X29908571Y-52792380D01*
X29813333Y-52840000D01*
X29765714Y-52887619D01*
X29718095Y-52982857D01*
X29718095Y-53078095D01*
X29765714Y-53220952D01*
X30337142Y-53792380D01*
X29718095Y-53792380D01*
X32734285Y-56332380D02*
X33305714Y-56332380D01*
X33020000Y-56332380D02*
X33020000Y-55332380D01*
X33115238Y-55475238D01*
X33210476Y-55570476D01*
X33305714Y-55618095D01*
X47799523Y-55332380D02*
X47180476Y-55332380D01*
X47513809Y-55713333D01*
X47370952Y-55713333D01*
X47275714Y-55760952D01*
X47228095Y-55808571D01*
X47180476Y-55903809D01*
X47180476Y-56141904D01*
X47228095Y-56237142D01*
X47275714Y-56284761D01*
X47370952Y-56332380D01*
X47656666Y-56332380D01*
X47751904Y-56284761D01*
X47799523Y-56237142D01*
X46799523Y-55427619D02*
X46751904Y-55380000D01*
X46656666Y-55332380D01*
X46418571Y-55332380D01*
X46323333Y-55380000D01*
X46275714Y-55427619D01*
X46228095Y-55522857D01*
X46228095Y-55618095D01*
X46275714Y-55760952D01*
X46847142Y-56332380D01*
X46228095Y-56332380D01*
X47180476Y-95702380D02*
X47751904Y-95702380D01*
X47466190Y-95702380D02*
X47466190Y-94702380D01*
X47561428Y-94845238D01*
X47656666Y-94940476D01*
X47751904Y-94988095D01*
X46847142Y-94702380D02*
X46180476Y-94702380D01*
X46609047Y-95702380D01*
X33210476Y-95702380D02*
X33781904Y-95702380D01*
X33496190Y-95702380D02*
X33496190Y-94702380D01*
X33591428Y-94845238D01*
X33686666Y-94940476D01*
X33781904Y-94988095D01*
X32353333Y-94702380D02*
X32543809Y-94702380D01*
X32639047Y-94750000D01*
X32686666Y-94797619D01*
X32781904Y-94940476D01*
X32829523Y-95130952D01*
X32829523Y-95511904D01*
X32781904Y-95607142D01*
X32734285Y-95654761D01*
X32639047Y-95702380D01*
X32448571Y-95702380D01*
X32353333Y-95654761D01*
X32305714Y-95607142D01*
X32258095Y-95511904D01*
X32258095Y-95273809D01*
X32305714Y-95178571D01*
X32353333Y-95130952D01*
X32448571Y-95083333D01*
X32639047Y-95083333D01*
X32734285Y-95130952D01*
X32781904Y-95178571D01*
X32829523Y-95273809D01*
M02*
