%TF.GenerationSoftware,KiCad,Pcbnew,(5.1.7)-1*%
%TF.CreationDate,2022-07-04T22:41:30-03:00*%
%TF.ProjectId,ATF1502BR,41544631-3530-4324-9252-2e6b69636164,rev?*%
%TF.SameCoordinates,Original*%
%TF.FileFunction,Legend,Top*%
%TF.FilePolarity,Positive*%
%FSLAX46Y46*%
G04 Gerber Fmt 4.6, Leading zero omitted, Abs format (unit mm)*
G04 Created by KiCad (PCBNEW (5.1.7)-1) date 2022-07-04 22:41:30*
%MOMM*%
%LPD*%
G01*
G04 APERTURE LIST*
%ADD10C,0.150000*%
%ADD11C,0.120000*%
G04 APERTURE END LIST*
D10*
X67728333Y-91842380D02*
X67728333Y-92556666D01*
X67680714Y-92699523D01*
X67585476Y-92794761D01*
X67442619Y-92842380D01*
X67347380Y-92842380D01*
X68061666Y-91842380D02*
X68633095Y-91842380D01*
X68347380Y-92842380D02*
X68347380Y-91842380D01*
X68918809Y-92556666D02*
X69395000Y-92556666D01*
X68823571Y-92842380D02*
X69156904Y-91842380D01*
X69490238Y-92842380D01*
X70347380Y-91890000D02*
X70252142Y-91842380D01*
X70109285Y-91842380D01*
X69966428Y-91890000D01*
X69871190Y-91985238D01*
X69823571Y-92080476D01*
X69775952Y-92270952D01*
X69775952Y-92413809D01*
X69823571Y-92604285D01*
X69871190Y-92699523D01*
X69966428Y-92794761D01*
X70109285Y-92842380D01*
X70204523Y-92842380D01*
X70347380Y-92794761D01*
X70395000Y-92747142D01*
X70395000Y-92413809D01*
X70204523Y-92413809D01*
D11*
X53655000Y-89215000D02*
X54290000Y-89850000D01*
D10*
X52893095Y-88080000D02*
X52797857Y-88032380D01*
X52655000Y-88032380D01*
X52512142Y-88080000D01*
X52416904Y-88175238D01*
X52369285Y-88270476D01*
X52321666Y-88460952D01*
X52321666Y-88603809D01*
X52369285Y-88794285D01*
X52416904Y-88889523D01*
X52512142Y-88984761D01*
X52655000Y-89032380D01*
X52750238Y-89032380D01*
X52893095Y-88984761D01*
X52940714Y-88937142D01*
X52940714Y-88603809D01*
X52750238Y-88603809D01*
X53369285Y-89032380D02*
X53369285Y-88032380D01*
X53940714Y-89032380D01*
X53940714Y-88032380D01*
X54416904Y-89032380D02*
X54416904Y-88032380D01*
X54655000Y-88032380D01*
X54797857Y-88080000D01*
X54893095Y-88175238D01*
X54940714Y-88270476D01*
X54988333Y-88460952D01*
X54988333Y-88603809D01*
X54940714Y-88794285D01*
X54893095Y-88889523D01*
X54797857Y-88984761D01*
X54655000Y-89032380D01*
X54416904Y-89032380D01*
X55544285Y-88651428D02*
X56306190Y-88651428D01*
X55925238Y-89032380D02*
X55925238Y-88270476D01*
X57258571Y-88032380D02*
X56782380Y-88032380D01*
X56734761Y-88508571D01*
X56782380Y-88460952D01*
X56877619Y-88413333D01*
X57115714Y-88413333D01*
X57210952Y-88460952D01*
X57258571Y-88508571D01*
X57306190Y-88603809D01*
X57306190Y-88841904D01*
X57258571Y-88937142D01*
X57210952Y-88984761D01*
X57115714Y-89032380D01*
X56877619Y-89032380D01*
X56782380Y-88984761D01*
X56734761Y-88937142D01*
X57591904Y-88032380D02*
X57925238Y-89032380D01*
X58258571Y-88032380D01*
X63688095Y-88080000D02*
X63592857Y-88032380D01*
X63450000Y-88032380D01*
X63307142Y-88080000D01*
X63211904Y-88175238D01*
X63164285Y-88270476D01*
X63116666Y-88460952D01*
X63116666Y-88603809D01*
X63164285Y-88794285D01*
X63211904Y-88889523D01*
X63307142Y-88984761D01*
X63450000Y-89032380D01*
X63545238Y-89032380D01*
X63688095Y-88984761D01*
X63735714Y-88937142D01*
X63735714Y-88603809D01*
X63545238Y-88603809D01*
X64164285Y-89032380D02*
X64164285Y-88032380D01*
X64735714Y-89032380D01*
X64735714Y-88032380D01*
X65211904Y-89032380D02*
X65211904Y-88032380D01*
X65450000Y-88032380D01*
X65592857Y-88080000D01*
X65688095Y-88175238D01*
X65735714Y-88270476D01*
X65783333Y-88460952D01*
X65783333Y-88603809D01*
X65735714Y-88794285D01*
X65688095Y-88889523D01*
X65592857Y-88984761D01*
X65450000Y-89032380D01*
X65211904Y-89032380D01*
X64997619Y-96446190D02*
X64997619Y-97017619D01*
X63997619Y-96731904D02*
X64997619Y-96731904D01*
X63997619Y-97350952D02*
X64997619Y-97350952D01*
X64997619Y-97589047D01*
X64950000Y-97731904D01*
X64854761Y-97827142D01*
X64759523Y-97874761D01*
X64569047Y-97922380D01*
X64426190Y-97922380D01*
X64235714Y-97874761D01*
X64140476Y-97827142D01*
X64045238Y-97731904D01*
X63997619Y-97589047D01*
X63997619Y-97350952D01*
X63997619Y-98350952D02*
X64997619Y-98350952D01*
X59917619Y-96136666D02*
X59917619Y-96708095D01*
X58917619Y-96422380D02*
X59917619Y-96422380D01*
X58917619Y-97041428D02*
X59917619Y-97041428D01*
X59203333Y-97374761D01*
X59917619Y-97708095D01*
X58917619Y-97708095D01*
X58965238Y-98136666D02*
X58917619Y-98279523D01*
X58917619Y-98517619D01*
X58965238Y-98612857D01*
X59012857Y-98660476D01*
X59108095Y-98708095D01*
X59203333Y-98708095D01*
X59298571Y-98660476D01*
X59346190Y-98612857D01*
X59393809Y-98517619D01*
X59441428Y-98327142D01*
X59489047Y-98231904D01*
X59536666Y-98184285D01*
X59631904Y-98136666D01*
X59727142Y-98136666D01*
X59822380Y-98184285D01*
X59870000Y-98231904D01*
X59917619Y-98327142D01*
X59917619Y-98565238D01*
X59870000Y-98708095D01*
X57377619Y-96160476D02*
X57377619Y-96731904D01*
X56377619Y-96446190D02*
X57377619Y-96446190D01*
X56377619Y-97065238D02*
X57377619Y-97065238D01*
X57377619Y-97303333D01*
X57330000Y-97446190D01*
X57234761Y-97541428D01*
X57139523Y-97589047D01*
X56949047Y-97636666D01*
X56806190Y-97636666D01*
X56615714Y-97589047D01*
X56520476Y-97541428D01*
X56425238Y-97446190D01*
X56377619Y-97303333D01*
X56377619Y-97065238D01*
X57377619Y-98255714D02*
X57377619Y-98446190D01*
X57330000Y-98541428D01*
X57234761Y-98636666D01*
X57044285Y-98684285D01*
X56710952Y-98684285D01*
X56520476Y-98636666D01*
X56425238Y-98541428D01*
X56377619Y-98446190D01*
X56377619Y-98255714D01*
X56425238Y-98160476D01*
X56520476Y-98065238D01*
X56710952Y-98017619D01*
X57044285Y-98017619D01*
X57234761Y-98065238D01*
X57330000Y-98160476D01*
X57377619Y-98255714D01*
X54837619Y-96184285D02*
X54837619Y-96755714D01*
X53837619Y-96470000D02*
X54837619Y-96470000D01*
X53932857Y-97660476D02*
X53885238Y-97612857D01*
X53837619Y-97470000D01*
X53837619Y-97374761D01*
X53885238Y-97231904D01*
X53980476Y-97136666D01*
X54075714Y-97089047D01*
X54266190Y-97041428D01*
X54409047Y-97041428D01*
X54599523Y-97089047D01*
X54694761Y-97136666D01*
X54790000Y-97231904D01*
X54837619Y-97374761D01*
X54837619Y-97470000D01*
X54790000Y-97612857D01*
X54742380Y-97660476D01*
X53837619Y-98089047D02*
X54837619Y-98089047D01*
X53837619Y-98660476D02*
X54409047Y-98231904D01*
X54837619Y-98660476D02*
X54266190Y-98089047D01*
X39867619Y-41820476D02*
X40867619Y-41820476D01*
X40867619Y-42201428D01*
X40820000Y-42296666D01*
X40772380Y-42344285D01*
X40677142Y-42391904D01*
X40534285Y-42391904D01*
X40439047Y-42344285D01*
X40391428Y-42296666D01*
X40343809Y-42201428D01*
X40343809Y-41820476D01*
X40867619Y-42820476D02*
X40058095Y-42820476D01*
X39962857Y-42868095D01*
X39915238Y-42915714D01*
X39867619Y-43010952D01*
X39867619Y-43201428D01*
X39915238Y-43296666D01*
X39962857Y-43344285D01*
X40058095Y-43391904D01*
X40867619Y-43391904D01*
X40915238Y-44582380D02*
X39629523Y-43725238D01*
X39867619Y-44915714D02*
X40867619Y-44915714D01*
X40867619Y-45296666D01*
X40820000Y-45391904D01*
X40772380Y-45439523D01*
X40677142Y-45487142D01*
X40534285Y-45487142D01*
X40439047Y-45439523D01*
X40391428Y-45391904D01*
X40343809Y-45296666D01*
X40343809Y-44915714D01*
X39867619Y-45915714D02*
X40867619Y-45915714D01*
X40867619Y-46153809D01*
X40820000Y-46296666D01*
X40724761Y-46391904D01*
X40629523Y-46439523D01*
X40439047Y-46487142D01*
X40296190Y-46487142D01*
X40105714Y-46439523D01*
X40010476Y-46391904D01*
X39915238Y-46296666D01*
X39867619Y-46153809D01*
X39867619Y-45915714D01*
X50988095Y-63362619D02*
X51035714Y-63315000D01*
X51130952Y-63267380D01*
X51369047Y-63267380D01*
X51464285Y-63315000D01*
X51511904Y-63362619D01*
X51559523Y-63457857D01*
X51559523Y-63553095D01*
X51511904Y-63695952D01*
X50940476Y-64267380D01*
X51559523Y-64267380D01*
X52464285Y-63267380D02*
X51988095Y-63267380D01*
X51940476Y-63743571D01*
X51988095Y-63695952D01*
X52083333Y-63648333D01*
X52321428Y-63648333D01*
X52416666Y-63695952D01*
X52464285Y-63743571D01*
X52511904Y-63838809D01*
X52511904Y-64076904D01*
X52464285Y-64172142D01*
X52416666Y-64219761D01*
X52321428Y-64267380D01*
X52083333Y-64267380D01*
X51988095Y-64219761D01*
X51940476Y-64172142D01*
X48448095Y-63362619D02*
X48495714Y-63315000D01*
X48590952Y-63267380D01*
X48829047Y-63267380D01*
X48924285Y-63315000D01*
X48971904Y-63362619D01*
X49019523Y-63457857D01*
X49019523Y-63553095D01*
X48971904Y-63695952D01*
X48400476Y-64267380D01*
X49019523Y-64267380D01*
X49352857Y-63267380D02*
X49971904Y-63267380D01*
X49638571Y-63648333D01*
X49781428Y-63648333D01*
X49876666Y-63695952D01*
X49924285Y-63743571D01*
X49971904Y-63838809D01*
X49971904Y-64076904D01*
X49924285Y-64172142D01*
X49876666Y-64219761D01*
X49781428Y-64267380D01*
X49495714Y-64267380D01*
X49400476Y-64219761D01*
X49352857Y-64172142D01*
X53480476Y-60092380D02*
X54099523Y-60092380D01*
X53766190Y-60473333D01*
X53909047Y-60473333D01*
X54004285Y-60520952D01*
X54051904Y-60568571D01*
X54099523Y-60663809D01*
X54099523Y-60901904D01*
X54051904Y-60997142D01*
X54004285Y-61044761D01*
X53909047Y-61092380D01*
X53623333Y-61092380D01*
X53528095Y-61044761D01*
X53480476Y-60997142D01*
X54956666Y-60425714D02*
X54956666Y-61092380D01*
X54718571Y-60044761D02*
X54480476Y-60759047D01*
X55099523Y-60759047D01*
X53480476Y-57552380D02*
X54099523Y-57552380D01*
X53766190Y-57933333D01*
X53909047Y-57933333D01*
X54004285Y-57980952D01*
X54051904Y-58028571D01*
X54099523Y-58123809D01*
X54099523Y-58361904D01*
X54051904Y-58457142D01*
X54004285Y-58504761D01*
X53909047Y-58552380D01*
X53623333Y-58552380D01*
X53528095Y-58504761D01*
X53480476Y-58457142D01*
X54956666Y-57552380D02*
X54766190Y-57552380D01*
X54670952Y-57600000D01*
X54623333Y-57647619D01*
X54528095Y-57790476D01*
X54480476Y-57980952D01*
X54480476Y-58361904D01*
X54528095Y-58457142D01*
X54575714Y-58504761D01*
X54670952Y-58552380D01*
X54861428Y-58552380D01*
X54956666Y-58504761D01*
X55004285Y-58457142D01*
X55051904Y-58361904D01*
X55051904Y-58123809D01*
X55004285Y-58028571D01*
X54956666Y-57980952D01*
X54861428Y-57933333D01*
X54670952Y-57933333D01*
X54575714Y-57980952D01*
X54528095Y-58028571D01*
X54480476Y-58123809D01*
X46479523Y-61092380D02*
X45908095Y-61092380D01*
X46193809Y-61092380D02*
X46193809Y-60092380D01*
X46098571Y-60235238D01*
X46003333Y-60330476D01*
X45908095Y-60378095D01*
X47336666Y-60425714D02*
X47336666Y-61092380D01*
X47098571Y-60044761D02*
X46860476Y-60759047D01*
X47479523Y-60759047D01*
X46479523Y-58552380D02*
X45908095Y-58552380D01*
X46193809Y-58552380D02*
X46193809Y-57552380D01*
X46098571Y-57695238D01*
X46003333Y-57790476D01*
X45908095Y-57838095D01*
X46860476Y-57647619D02*
X46908095Y-57600000D01*
X47003333Y-57552380D01*
X47241428Y-57552380D01*
X47336666Y-57600000D01*
X47384285Y-57647619D01*
X47431904Y-57742857D01*
X47431904Y-57838095D01*
X47384285Y-57980952D01*
X46812857Y-58552380D01*
X47431904Y-58552380D01*
X48876666Y-54377380D02*
X49495714Y-54377380D01*
X49162380Y-54758333D01*
X49305238Y-54758333D01*
X49400476Y-54805952D01*
X49448095Y-54853571D01*
X49495714Y-54948809D01*
X49495714Y-55186904D01*
X49448095Y-55282142D01*
X49400476Y-55329761D01*
X49305238Y-55377380D01*
X49019523Y-55377380D01*
X48924285Y-55329761D01*
X48876666Y-55282142D01*
X52035714Y-55377380D02*
X51464285Y-55377380D01*
X51750000Y-55377380D02*
X51750000Y-54377380D01*
X51654761Y-54520238D01*
X51559523Y-54615476D01*
X51464285Y-54663095D01*
X32357142Y-44691666D02*
X32833333Y-44691666D01*
X32261904Y-44977380D02*
X32595238Y-43977380D01*
X32928571Y-44977380D01*
X33738095Y-44977380D02*
X33261904Y-44977380D01*
X33261904Y-43977380D01*
X33976190Y-43977380D02*
X34642857Y-44977380D01*
X34642857Y-43977380D02*
X33976190Y-44977380D01*
X35595238Y-44882142D02*
X35547619Y-44929761D01*
X35404761Y-44977380D01*
X35309523Y-44977380D01*
X35166666Y-44929761D01*
X35071428Y-44834523D01*
X35023809Y-44739285D01*
X34976190Y-44548809D01*
X34976190Y-44405952D01*
X35023809Y-44215476D01*
X35071428Y-44120238D01*
X35166666Y-44025000D01*
X35309523Y-43977380D01*
X35404761Y-43977380D01*
X35547619Y-44025000D01*
X35595238Y-44072619D01*
X36214285Y-43977380D02*
X36404761Y-43977380D01*
X36500000Y-44025000D01*
X36595238Y-44120238D01*
X36642857Y-44310714D01*
X36642857Y-44644047D01*
X36595238Y-44834523D01*
X36500000Y-44929761D01*
X36404761Y-44977380D01*
X36214285Y-44977380D01*
X36119047Y-44929761D01*
X36023809Y-44834523D01*
X35976190Y-44644047D01*
X35976190Y-44310714D01*
X36023809Y-44120238D01*
X36119047Y-44025000D01*
X36214285Y-43977380D01*
X32785714Y-45722619D02*
X32833333Y-45675000D01*
X32928571Y-45627380D01*
X33166666Y-45627380D01*
X33261904Y-45675000D01*
X33309523Y-45722619D01*
X33357142Y-45817857D01*
X33357142Y-45913095D01*
X33309523Y-46055952D01*
X32738095Y-46627380D01*
X33357142Y-46627380D01*
X33976190Y-45627380D02*
X34071428Y-45627380D01*
X34166666Y-45675000D01*
X34214285Y-45722619D01*
X34261904Y-45817857D01*
X34309523Y-46008333D01*
X34309523Y-46246428D01*
X34261904Y-46436904D01*
X34214285Y-46532142D01*
X34166666Y-46579761D01*
X34071428Y-46627380D01*
X33976190Y-46627380D01*
X33880952Y-46579761D01*
X33833333Y-46532142D01*
X33785714Y-46436904D01*
X33738095Y-46246428D01*
X33738095Y-46008333D01*
X33785714Y-45817857D01*
X33833333Y-45722619D01*
X33880952Y-45675000D01*
X33976190Y-45627380D01*
X34690476Y-45722619D02*
X34738095Y-45675000D01*
X34833333Y-45627380D01*
X35071428Y-45627380D01*
X35166666Y-45675000D01*
X35214285Y-45722619D01*
X35261904Y-45817857D01*
X35261904Y-45913095D01*
X35214285Y-46055952D01*
X34642857Y-46627380D01*
X35261904Y-46627380D01*
X35642857Y-45722619D02*
X35690476Y-45675000D01*
X35785714Y-45627380D01*
X36023809Y-45627380D01*
X36119047Y-45675000D01*
X36166666Y-45722619D01*
X36214285Y-45817857D01*
X36214285Y-45913095D01*
X36166666Y-46055952D01*
X35595238Y-46627380D01*
X36214285Y-46627380D01*
X32500000Y-48927380D02*
X32833333Y-49927380D01*
X33166666Y-48927380D01*
X34023809Y-49927380D02*
X33452380Y-49927380D01*
X33738095Y-49927380D02*
X33738095Y-48927380D01*
X33642857Y-49070238D01*
X33547619Y-49165476D01*
X33452380Y-49213095D01*
X34452380Y-49832142D02*
X34500000Y-49879761D01*
X34452380Y-49927380D01*
X34404761Y-49879761D01*
X34452380Y-49832142D01*
X34452380Y-49927380D01*
X35119047Y-48927380D02*
X35214285Y-48927380D01*
X35309523Y-48975000D01*
X35357142Y-49022619D01*
X35404761Y-49117857D01*
X35452380Y-49308333D01*
X35452380Y-49546428D01*
X35404761Y-49736904D01*
X35357142Y-49832142D01*
X35309523Y-49879761D01*
X35214285Y-49927380D01*
X35119047Y-49927380D01*
X35023809Y-49879761D01*
X34976190Y-49832142D01*
X34928571Y-49736904D01*
X34880952Y-49546428D01*
X34880952Y-49308333D01*
X34928571Y-49117857D01*
X34976190Y-49022619D01*
X35023809Y-48975000D01*
X35119047Y-48927380D01*
X36404761Y-49927380D02*
X35833333Y-49927380D01*
X36119047Y-49927380D02*
X36119047Y-48927380D01*
X36023809Y-49070238D01*
X35928571Y-49165476D01*
X35833333Y-49213095D01*
X56738095Y-72841666D02*
X57214285Y-72841666D01*
X56642857Y-73127380D02*
X56976190Y-72127380D01*
X57309523Y-73127380D01*
X57500000Y-72127380D02*
X58071428Y-72127380D01*
X57785714Y-73127380D02*
X57785714Y-72127380D01*
X58738095Y-72603571D02*
X58404761Y-72603571D01*
X58404761Y-73127380D02*
X58404761Y-72127380D01*
X58880952Y-72127380D01*
X59785714Y-73127380D02*
X59214285Y-73127380D01*
X59500000Y-73127380D02*
X59500000Y-72127380D01*
X59404761Y-72270238D01*
X59309523Y-72365476D01*
X59214285Y-72413095D01*
X60690476Y-72127380D02*
X60214285Y-72127380D01*
X60166666Y-72603571D01*
X60214285Y-72555952D01*
X60309523Y-72508333D01*
X60547619Y-72508333D01*
X60642857Y-72555952D01*
X60690476Y-72603571D01*
X60738095Y-72698809D01*
X60738095Y-72936904D01*
X60690476Y-73032142D01*
X60642857Y-73079761D01*
X60547619Y-73127380D01*
X60309523Y-73127380D01*
X60214285Y-73079761D01*
X60166666Y-73032142D01*
X61357142Y-72127380D02*
X61452380Y-72127380D01*
X61547619Y-72175000D01*
X61595238Y-72222619D01*
X61642857Y-72317857D01*
X61690476Y-72508333D01*
X61690476Y-72746428D01*
X61642857Y-72936904D01*
X61595238Y-73032142D01*
X61547619Y-73079761D01*
X61452380Y-73127380D01*
X61357142Y-73127380D01*
X61261904Y-73079761D01*
X61214285Y-73032142D01*
X61166666Y-72936904D01*
X61119047Y-72746428D01*
X61119047Y-72508333D01*
X61166666Y-72317857D01*
X61214285Y-72222619D01*
X61261904Y-72175000D01*
X61357142Y-72127380D01*
X62071428Y-72222619D02*
X62119047Y-72175000D01*
X62214285Y-72127380D01*
X62452380Y-72127380D01*
X62547619Y-72175000D01*
X62595238Y-72222619D01*
X62642857Y-72317857D01*
X62642857Y-72413095D01*
X62595238Y-72555952D01*
X62023809Y-73127380D01*
X62642857Y-73127380D01*
X63023809Y-72841666D02*
X63500000Y-72841666D01*
X62928571Y-73127380D02*
X63261904Y-72127380D01*
X63595238Y-73127380D01*
X63880952Y-73079761D02*
X64023809Y-73127380D01*
X64261904Y-73127380D01*
X64357142Y-73079761D01*
X64404761Y-73032142D01*
X64452380Y-72936904D01*
X64452380Y-72841666D01*
X64404761Y-72746428D01*
X64357142Y-72698809D01*
X64261904Y-72651190D01*
X64071428Y-72603571D01*
X63976190Y-72555952D01*
X63928571Y-72508333D01*
X63880952Y-72413095D01*
X63880952Y-72317857D01*
X63928571Y-72222619D01*
X63976190Y-72175000D01*
X64071428Y-72127380D01*
X64309523Y-72127380D01*
X64452380Y-72175000D01*
X65357142Y-73127380D02*
X64880952Y-73127380D01*
X64880952Y-72127380D01*
X57761904Y-74253571D02*
X57904761Y-74301190D01*
X57952380Y-74348809D01*
X58000000Y-74444047D01*
X58000000Y-74586904D01*
X57952380Y-74682142D01*
X57904761Y-74729761D01*
X57809523Y-74777380D01*
X57428571Y-74777380D01*
X57428571Y-73777380D01*
X57761904Y-73777380D01*
X57857142Y-73825000D01*
X57904761Y-73872619D01*
X57952380Y-73967857D01*
X57952380Y-74063095D01*
X57904761Y-74158333D01*
X57857142Y-74205952D01*
X57761904Y-74253571D01*
X57428571Y-74253571D01*
X59000000Y-74777380D02*
X58666666Y-74301190D01*
X58428571Y-74777380D02*
X58428571Y-73777380D01*
X58809523Y-73777380D01*
X58904761Y-73825000D01*
X58952380Y-73872619D01*
X59000000Y-73967857D01*
X59000000Y-74110714D01*
X58952380Y-74205952D01*
X58904761Y-74253571D01*
X58809523Y-74301190D01*
X58428571Y-74301190D01*
X59428571Y-74253571D02*
X59761904Y-74253571D01*
X59904761Y-74777380D02*
X59428571Y-74777380D01*
X59428571Y-73777380D01*
X59904761Y-73777380D01*
X60285714Y-74491666D02*
X60761904Y-74491666D01*
X60190476Y-74777380D02*
X60523809Y-73777380D01*
X60857142Y-74777380D01*
X61190476Y-74777380D02*
X61190476Y-73777380D01*
X61761904Y-74777380D02*
X61333333Y-74205952D01*
X61761904Y-73777380D02*
X61190476Y-74348809D01*
X62380952Y-73777380D02*
X62571428Y-73777380D01*
X62666666Y-73825000D01*
X62761904Y-73920238D01*
X62809523Y-74110714D01*
X62809523Y-74444047D01*
X62761904Y-74634523D01*
X62666666Y-74729761D01*
X62571428Y-74777380D01*
X62380952Y-74777380D01*
X62285714Y-74729761D01*
X62190476Y-74634523D01*
X62142857Y-74444047D01*
X62142857Y-74110714D01*
X62190476Y-73920238D01*
X62285714Y-73825000D01*
X62380952Y-73777380D01*
X63238095Y-73777380D02*
X63238095Y-74586904D01*
X63285714Y-74682142D01*
X63333333Y-74729761D01*
X63428571Y-74777380D01*
X63619047Y-74777380D01*
X63714285Y-74729761D01*
X63761904Y-74682142D01*
X63809523Y-74586904D01*
X63809523Y-73777380D01*
X64142857Y-73777380D02*
X64714285Y-73777380D01*
X64428571Y-74777380D02*
X64428571Y-73777380D01*
D11*
X50500000Y-49000000D02*
X51480000Y-47520000D01*
X49480000Y-47520000D02*
X50500000Y-49000000D01*
X44130000Y-40955000D02*
X42225000Y-41590000D01*
X44130000Y-40320000D02*
X44130000Y-40955000D01*
X46670000Y-40955000D02*
X44130000Y-42225000D01*
X46670000Y-40320000D02*
X46670000Y-40955000D01*
D10*
X41772619Y-44415714D02*
X41772619Y-43844285D01*
X41772619Y-44130000D02*
X42772619Y-44130000D01*
X42629761Y-44034761D01*
X42534523Y-43939523D01*
X42486904Y-43844285D01*
X44582380Y-42368095D02*
X44630000Y-42415714D01*
X44677619Y-42510952D01*
X44677619Y-42749047D01*
X44630000Y-42844285D01*
X44582380Y-42891904D01*
X44487142Y-42939523D01*
X44391904Y-42939523D01*
X44249047Y-42891904D01*
X43677619Y-42320476D01*
X43677619Y-42939523D01*
X44725238Y-44082380D02*
X43439523Y-43225238D01*
X43725238Y-44368095D02*
X43677619Y-44510952D01*
X43677619Y-44749047D01*
X43725238Y-44844285D01*
X43772857Y-44891904D01*
X43868095Y-44939523D01*
X43963333Y-44939523D01*
X44058571Y-44891904D01*
X44106190Y-44844285D01*
X44153809Y-44749047D01*
X44201428Y-44558571D01*
X44249047Y-44463333D01*
X44296666Y-44415714D01*
X44391904Y-44368095D01*
X44487142Y-44368095D01*
X44582380Y-44415714D01*
X44630000Y-44463333D01*
X44677619Y-44558571D01*
X44677619Y-44796666D01*
X44630000Y-44939523D01*
X43677619Y-45891904D02*
X43677619Y-45320476D01*
X43677619Y-45606190D02*
X44677619Y-45606190D01*
X44534761Y-45510952D01*
X44439523Y-45415714D01*
X44391904Y-45320476D01*
X40359761Y-27977142D02*
X40312142Y-28024761D01*
X40169285Y-28072380D01*
X40074047Y-28072380D01*
X39931190Y-28024761D01*
X39835952Y-27929523D01*
X39788333Y-27834285D01*
X39740714Y-27643809D01*
X39740714Y-27500952D01*
X39788333Y-27310476D01*
X39835952Y-27215238D01*
X39931190Y-27120000D01*
X40074047Y-27072380D01*
X40169285Y-27072380D01*
X40312142Y-27120000D01*
X40359761Y-27167619D01*
X41264523Y-28072380D02*
X40788333Y-28072380D01*
X40788333Y-27072380D01*
X42169285Y-28072380D02*
X41835952Y-27596190D01*
X41597857Y-28072380D02*
X41597857Y-27072380D01*
X41978809Y-27072380D01*
X42074047Y-27120000D01*
X42121666Y-27167619D01*
X42169285Y-27262857D01*
X42169285Y-27405714D01*
X42121666Y-27500952D01*
X42074047Y-27548571D01*
X41978809Y-27596190D01*
X41597857Y-27596190D01*
X58981190Y-27072380D02*
X59171666Y-27072380D01*
X59266904Y-27120000D01*
X59362142Y-27215238D01*
X59409761Y-27405714D01*
X59409761Y-27739047D01*
X59362142Y-27929523D01*
X59266904Y-28024761D01*
X59171666Y-28072380D01*
X58981190Y-28072380D01*
X58885952Y-28024761D01*
X58790714Y-27929523D01*
X58743095Y-27739047D01*
X58743095Y-27405714D01*
X58790714Y-27215238D01*
X58885952Y-27120000D01*
X58981190Y-27072380D01*
X59838333Y-27548571D02*
X60171666Y-27548571D01*
X60314523Y-28072380D02*
X59838333Y-28072380D01*
X59838333Y-27072380D01*
X60314523Y-27072380D01*
X61266904Y-28072380D02*
X60695476Y-28072380D01*
X60981190Y-28072380D02*
X60981190Y-27072380D01*
X60885952Y-27215238D01*
X60790714Y-27310476D01*
X60695476Y-27358095D01*
D11*
X54290000Y-40955000D02*
X57465000Y-41590000D01*
X56830000Y-40955000D02*
X60005000Y-41590000D01*
X56830000Y-40320000D02*
X56830000Y-40955000D01*
X54290000Y-40320000D02*
X54290000Y-40955000D01*
X51750000Y-40955000D02*
X55560000Y-41590000D01*
X51750000Y-40320000D02*
X51750000Y-40955000D01*
X49210000Y-40955000D02*
X53655000Y-41590000D01*
X49210000Y-40320000D02*
X49210000Y-40955000D01*
D10*
X53869285Y-42368095D02*
X53202619Y-42368095D01*
X54250238Y-42130000D02*
X53535952Y-41891904D01*
X53535952Y-42510952D01*
X53869285Y-43320476D02*
X53202619Y-43320476D01*
X54250238Y-43082380D02*
X53535952Y-42844285D01*
X53535952Y-43463333D01*
X54250238Y-44558571D02*
X52964523Y-43701428D01*
X53250238Y-44844285D02*
X53202619Y-44987142D01*
X53202619Y-45225238D01*
X53250238Y-45320476D01*
X53297857Y-45368095D01*
X53393095Y-45415714D01*
X53488333Y-45415714D01*
X53583571Y-45368095D01*
X53631190Y-45320476D01*
X53678809Y-45225238D01*
X53726428Y-45034761D01*
X53774047Y-44939523D01*
X53821666Y-44891904D01*
X53916904Y-44844285D01*
X54012142Y-44844285D01*
X54107380Y-44891904D01*
X54155000Y-44939523D01*
X54202619Y-45034761D01*
X54202619Y-45272857D01*
X54155000Y-45415714D01*
X54202619Y-46034761D02*
X54202619Y-46130000D01*
X54155000Y-46225238D01*
X54107380Y-46272857D01*
X54012142Y-46320476D01*
X53821666Y-46368095D01*
X53583571Y-46368095D01*
X53393095Y-46320476D01*
X53297857Y-46272857D01*
X53250238Y-46225238D01*
X53202619Y-46130000D01*
X53202619Y-46034761D01*
X53250238Y-45939523D01*
X53297857Y-45891904D01*
X53393095Y-45844285D01*
X53583571Y-45796666D01*
X53821666Y-45796666D01*
X54012142Y-45844285D01*
X54107380Y-45891904D01*
X54155000Y-45939523D01*
X54202619Y-46034761D01*
X55774285Y-43209285D02*
X55107619Y-43209285D01*
X56155238Y-42971190D02*
X55440952Y-42733095D01*
X55440952Y-43352142D01*
X56107619Y-43637857D02*
X56107619Y-44256904D01*
X55726666Y-43923571D01*
X55726666Y-44066428D01*
X55679047Y-44161666D01*
X55631428Y-44209285D01*
X55536190Y-44256904D01*
X55298095Y-44256904D01*
X55202857Y-44209285D01*
X55155238Y-44161666D01*
X55107619Y-44066428D01*
X55107619Y-43780714D01*
X55155238Y-43685476D01*
X55202857Y-43637857D01*
X40193095Y-26119761D02*
X40335952Y-26167380D01*
X40574047Y-26167380D01*
X40669285Y-26119761D01*
X40716904Y-26072142D01*
X40764523Y-25976904D01*
X40764523Y-25881666D01*
X40716904Y-25786428D01*
X40669285Y-25738809D01*
X40574047Y-25691190D01*
X40383571Y-25643571D01*
X40288333Y-25595952D01*
X40240714Y-25548333D01*
X40193095Y-25453095D01*
X40193095Y-25357857D01*
X40240714Y-25262619D01*
X40288333Y-25215000D01*
X40383571Y-25167380D01*
X40621666Y-25167380D01*
X40764523Y-25215000D01*
X41716904Y-26167380D02*
X41145476Y-26167380D01*
X41431190Y-26167380D02*
X41431190Y-25167380D01*
X41335952Y-25310238D01*
X41240714Y-25405476D01*
X41145476Y-25453095D01*
X57679285Y-42344285D02*
X57012619Y-42344285D01*
X58060238Y-42106190D02*
X57345952Y-41868095D01*
X57345952Y-42487142D01*
X57012619Y-43391904D02*
X57012619Y-42820476D01*
X57012619Y-43106190D02*
X58012619Y-43106190D01*
X57869761Y-43010952D01*
X57774523Y-42915714D01*
X57726904Y-42820476D01*
X58060238Y-44534761D02*
X56774523Y-43677619D01*
X57012619Y-44868095D02*
X58012619Y-44868095D01*
X58012619Y-45106190D01*
X57965000Y-45249047D01*
X57869761Y-45344285D01*
X57774523Y-45391904D01*
X57584047Y-45439523D01*
X57441190Y-45439523D01*
X57250714Y-45391904D01*
X57155476Y-45344285D01*
X57060238Y-45249047D01*
X57012619Y-45106190D01*
X57012619Y-44868095D01*
X57012619Y-46391904D02*
X57012619Y-45820476D01*
X57012619Y-46106190D02*
X58012619Y-46106190D01*
X57869761Y-46010952D01*
X57774523Y-45915714D01*
X57726904Y-45820476D01*
X60219285Y-42344285D02*
X59552619Y-42344285D01*
X60600238Y-42106190D02*
X59885952Y-41868095D01*
X59885952Y-42487142D01*
X60552619Y-43058571D02*
X60552619Y-43153809D01*
X60505000Y-43249047D01*
X60457380Y-43296666D01*
X60362142Y-43344285D01*
X60171666Y-43391904D01*
X59933571Y-43391904D01*
X59743095Y-43344285D01*
X59647857Y-43296666D01*
X59600238Y-43249047D01*
X59552619Y-43153809D01*
X59552619Y-43058571D01*
X59600238Y-42963333D01*
X59647857Y-42915714D01*
X59743095Y-42868095D01*
X59933571Y-42820476D01*
X60171666Y-42820476D01*
X60362142Y-42868095D01*
X60457380Y-42915714D01*
X60505000Y-42963333D01*
X60552619Y-43058571D01*
X60600238Y-44534761D02*
X59314523Y-43677619D01*
X59552619Y-44868095D02*
X60552619Y-44868095D01*
X60552619Y-45106190D01*
X60505000Y-45249047D01*
X60409761Y-45344285D01*
X60314523Y-45391904D01*
X60124047Y-45439523D01*
X59981190Y-45439523D01*
X59790714Y-45391904D01*
X59695476Y-45344285D01*
X59600238Y-45249047D01*
X59552619Y-45106190D01*
X59552619Y-44868095D01*
X60552619Y-46058571D02*
X60552619Y-46153809D01*
X60505000Y-46249047D01*
X60457380Y-46296666D01*
X60362142Y-46344285D01*
X60171666Y-46391904D01*
X59933571Y-46391904D01*
X59743095Y-46344285D01*
X59647857Y-46296666D01*
X59600238Y-46249047D01*
X59552619Y-46153809D01*
X59552619Y-46058571D01*
X59600238Y-45963333D01*
X59647857Y-45915714D01*
X59743095Y-45868095D01*
X59933571Y-45820476D01*
X60171666Y-45820476D01*
X60362142Y-45868095D01*
X60457380Y-45915714D01*
X60505000Y-45963333D01*
X60552619Y-46058571D01*
X35470476Y-75697380D02*
X35470476Y-74697380D01*
X35851428Y-74697380D01*
X35946666Y-74745000D01*
X35994285Y-74792619D01*
X36041904Y-74887857D01*
X36041904Y-75030714D01*
X35994285Y-75125952D01*
X35946666Y-75173571D01*
X35851428Y-75221190D01*
X35470476Y-75221190D01*
X36660952Y-74697380D02*
X36851428Y-74697380D01*
X36946666Y-74745000D01*
X37041904Y-74840238D01*
X37089523Y-75030714D01*
X37089523Y-75364047D01*
X37041904Y-75554523D01*
X36946666Y-75649761D01*
X36851428Y-75697380D01*
X36660952Y-75697380D01*
X36565714Y-75649761D01*
X36470476Y-75554523D01*
X36422857Y-75364047D01*
X36422857Y-75030714D01*
X36470476Y-74840238D01*
X36565714Y-74745000D01*
X36660952Y-74697380D01*
X37422857Y-74697380D02*
X37660952Y-75697380D01*
X37851428Y-74983095D01*
X38041904Y-75697380D01*
X38280000Y-74697380D01*
X38660952Y-75173571D02*
X38994285Y-75173571D01*
X39137142Y-75697380D02*
X38660952Y-75697380D01*
X38660952Y-74697380D01*
X39137142Y-74697380D01*
X40137142Y-75697380D02*
X39803809Y-75221190D01*
X39565714Y-75697380D02*
X39565714Y-74697380D01*
X39946666Y-74697380D01*
X40041904Y-74745000D01*
X40089523Y-74792619D01*
X40137142Y-74887857D01*
X40137142Y-75030714D01*
X40089523Y-75125952D01*
X40041904Y-75173571D01*
X39946666Y-75221190D01*
X39565714Y-75221190D01*
X59243095Y-26119761D02*
X59385952Y-26167380D01*
X59624047Y-26167380D01*
X59719285Y-26119761D01*
X59766904Y-26072142D01*
X59814523Y-25976904D01*
X59814523Y-25881666D01*
X59766904Y-25786428D01*
X59719285Y-25738809D01*
X59624047Y-25691190D01*
X59433571Y-25643571D01*
X59338333Y-25595952D01*
X59290714Y-25548333D01*
X59243095Y-25453095D01*
X59243095Y-25357857D01*
X59290714Y-25262619D01*
X59338333Y-25215000D01*
X59433571Y-25167380D01*
X59671666Y-25167380D01*
X59814523Y-25215000D01*
X60433571Y-25167380D02*
X60528809Y-25167380D01*
X60624047Y-25215000D01*
X60671666Y-25262619D01*
X60719285Y-25357857D01*
X60766904Y-25548333D01*
X60766904Y-25786428D01*
X60719285Y-25976904D01*
X60671666Y-26072142D01*
X60624047Y-26119761D01*
X60528809Y-26167380D01*
X60433571Y-26167380D01*
X60338333Y-26119761D01*
X60290714Y-26072142D01*
X60243095Y-25976904D01*
X60195476Y-25786428D01*
X60195476Y-25548333D01*
X60243095Y-25357857D01*
X60290714Y-25262619D01*
X60338333Y-25215000D01*
X60433571Y-25167380D01*
X44114285Y-78491428D02*
X44876190Y-78491428D01*
X44495238Y-78872380D02*
X44495238Y-78110476D01*
X45828571Y-77872380D02*
X45352380Y-77872380D01*
X45304761Y-78348571D01*
X45352380Y-78300952D01*
X45447619Y-78253333D01*
X45685714Y-78253333D01*
X45780952Y-78300952D01*
X45828571Y-78348571D01*
X45876190Y-78443809D01*
X45876190Y-78681904D01*
X45828571Y-78777142D01*
X45780952Y-78824761D01*
X45685714Y-78872380D01*
X45447619Y-78872380D01*
X45352380Y-78824761D01*
X45304761Y-78777142D01*
X46161904Y-77872380D02*
X46495238Y-78872380D01*
X46828571Y-77872380D01*
X49718095Y-77920000D02*
X49622857Y-77872380D01*
X49480000Y-77872380D01*
X49337142Y-77920000D01*
X49241904Y-78015238D01*
X49194285Y-78110476D01*
X49146666Y-78300952D01*
X49146666Y-78443809D01*
X49194285Y-78634285D01*
X49241904Y-78729523D01*
X49337142Y-78824761D01*
X49480000Y-78872380D01*
X49575238Y-78872380D01*
X49718095Y-78824761D01*
X49765714Y-78777142D01*
X49765714Y-78443809D01*
X49575238Y-78443809D01*
X50194285Y-78872380D02*
X50194285Y-77872380D01*
X50765714Y-78872380D01*
X50765714Y-77872380D01*
X51241904Y-78872380D02*
X51241904Y-77872380D01*
X51480000Y-77872380D01*
X51622857Y-77920000D01*
X51718095Y-78015238D01*
X51765714Y-78110476D01*
X51813333Y-78300952D01*
X51813333Y-78443809D01*
X51765714Y-78634285D01*
X51718095Y-78729523D01*
X51622857Y-78824761D01*
X51480000Y-78872380D01*
X51241904Y-78872380D01*
X49718095Y-85540000D02*
X49622857Y-85492380D01*
X49480000Y-85492380D01*
X49337142Y-85540000D01*
X49241904Y-85635238D01*
X49194285Y-85730476D01*
X49146666Y-85920952D01*
X49146666Y-86063809D01*
X49194285Y-86254285D01*
X49241904Y-86349523D01*
X49337142Y-86444761D01*
X49480000Y-86492380D01*
X49575238Y-86492380D01*
X49718095Y-86444761D01*
X49765714Y-86397142D01*
X49765714Y-86063809D01*
X49575238Y-86063809D01*
X50194285Y-86492380D02*
X50194285Y-85492380D01*
X50765714Y-86492380D01*
X50765714Y-85492380D01*
X51241904Y-86492380D02*
X51241904Y-85492380D01*
X51480000Y-85492380D01*
X51622857Y-85540000D01*
X51718095Y-85635238D01*
X51765714Y-85730476D01*
X51813333Y-85920952D01*
X51813333Y-86063809D01*
X51765714Y-86254285D01*
X51718095Y-86349523D01*
X51622857Y-86444761D01*
X51480000Y-86492380D01*
X51241904Y-86492380D01*
X44114285Y-86111428D02*
X44876190Y-86111428D01*
X44495238Y-86492380D02*
X44495238Y-85730476D01*
X45828571Y-85492380D02*
X45352380Y-85492380D01*
X45304761Y-85968571D01*
X45352380Y-85920952D01*
X45447619Y-85873333D01*
X45685714Y-85873333D01*
X45780952Y-85920952D01*
X45828571Y-85968571D01*
X45876190Y-86063809D01*
X45876190Y-86301904D01*
X45828571Y-86397142D01*
X45780952Y-86444761D01*
X45685714Y-86492380D01*
X45447619Y-86492380D01*
X45352380Y-86444761D01*
X45304761Y-86397142D01*
X46161904Y-85492380D02*
X46495238Y-86492380D01*
X46828571Y-85492380D01*
X38169047Y-86492380D02*
X38169047Y-85492380D01*
X38407142Y-85492380D01*
X38550000Y-85540000D01*
X38645238Y-85635238D01*
X38692857Y-85730476D01*
X38740476Y-85920952D01*
X38740476Y-86063809D01*
X38692857Y-86254285D01*
X38645238Y-86349523D01*
X38550000Y-86444761D01*
X38407142Y-86492380D01*
X38169047Y-86492380D01*
X39169047Y-86111428D02*
X39930952Y-86111428D01*
X35629047Y-86492380D02*
X35629047Y-85492380D01*
X35867142Y-85492380D01*
X36010000Y-85540000D01*
X36105238Y-85635238D01*
X36152857Y-85730476D01*
X36200476Y-85920952D01*
X36200476Y-86063809D01*
X36152857Y-86254285D01*
X36105238Y-86349523D01*
X36010000Y-86444761D01*
X35867142Y-86492380D01*
X35629047Y-86492380D01*
X36629047Y-86111428D02*
X37390952Y-86111428D01*
X37010000Y-86492380D02*
X37010000Y-85730476D01*
X69490476Y-47392380D02*
X70061904Y-47392380D01*
X69776190Y-48392380D02*
X69776190Y-47392380D01*
X70395238Y-48392380D02*
X70395238Y-47392380D01*
X70633333Y-47392380D01*
X70776190Y-47440000D01*
X70871428Y-47535238D01*
X70919047Y-47630476D01*
X70966666Y-47820952D01*
X70966666Y-47963809D01*
X70919047Y-48154285D01*
X70871428Y-48249523D01*
X70776190Y-48344761D01*
X70633333Y-48392380D01*
X70395238Y-48392380D01*
X71585714Y-47392380D02*
X71776190Y-47392380D01*
X71871428Y-47440000D01*
X71966666Y-47535238D01*
X72014285Y-47725714D01*
X72014285Y-48059047D01*
X71966666Y-48249523D01*
X71871428Y-48344761D01*
X71776190Y-48392380D01*
X71585714Y-48392380D01*
X71490476Y-48344761D01*
X71395238Y-48249523D01*
X71347619Y-48059047D01*
X71347619Y-47725714D01*
X71395238Y-47535238D01*
X71490476Y-47440000D01*
X71585714Y-47392380D01*
X69514285Y-55631428D02*
X70276190Y-55631428D01*
X69895238Y-56012380D02*
X69895238Y-55250476D01*
X71228571Y-55012380D02*
X70752380Y-55012380D01*
X70704761Y-55488571D01*
X70752380Y-55440952D01*
X70847619Y-55393333D01*
X71085714Y-55393333D01*
X71180952Y-55440952D01*
X71228571Y-55488571D01*
X71276190Y-55583809D01*
X71276190Y-55821904D01*
X71228571Y-55917142D01*
X71180952Y-55964761D01*
X71085714Y-56012380D01*
X70847619Y-56012380D01*
X70752380Y-55964761D01*
X70704761Y-55917142D01*
X71561904Y-55012380D02*
X71895238Y-56012380D01*
X72228571Y-55012380D01*
X69514285Y-62632380D02*
X70085714Y-62632380D01*
X69800000Y-63632380D02*
X69800000Y-62632380D01*
X70990476Y-63537142D02*
X70942857Y-63584761D01*
X70800000Y-63632380D01*
X70704761Y-63632380D01*
X70561904Y-63584761D01*
X70466666Y-63489523D01*
X70419047Y-63394285D01*
X70371428Y-63203809D01*
X70371428Y-63060952D01*
X70419047Y-62870476D01*
X70466666Y-62775238D01*
X70561904Y-62680000D01*
X70704761Y-62632380D01*
X70800000Y-62632380D01*
X70942857Y-62680000D01*
X70990476Y-62727619D01*
X71419047Y-63632380D02*
X71419047Y-62632380D01*
X71990476Y-63632380D02*
X71561904Y-63060952D01*
X71990476Y-62632380D02*
X71419047Y-63203809D01*
X70038095Y-67760000D02*
X69942857Y-67712380D01*
X69800000Y-67712380D01*
X69657142Y-67760000D01*
X69561904Y-67855238D01*
X69514285Y-67950476D01*
X69466666Y-68140952D01*
X69466666Y-68283809D01*
X69514285Y-68474285D01*
X69561904Y-68569523D01*
X69657142Y-68664761D01*
X69800000Y-68712380D01*
X69895238Y-68712380D01*
X70038095Y-68664761D01*
X70085714Y-68617142D01*
X70085714Y-68283809D01*
X69895238Y-68283809D01*
X70514285Y-68712380D02*
X70514285Y-67712380D01*
X71085714Y-68712380D01*
X71085714Y-67712380D01*
X71561904Y-68712380D02*
X71561904Y-67712380D01*
X71800000Y-67712380D01*
X71942857Y-67760000D01*
X72038095Y-67855238D01*
X72085714Y-67950476D01*
X72133333Y-68140952D01*
X72133333Y-68283809D01*
X72085714Y-68474285D01*
X72038095Y-68569523D01*
X71942857Y-68664761D01*
X71800000Y-68712380D01*
X71561904Y-68712380D01*
X69514285Y-86111428D02*
X70276190Y-86111428D01*
X69895238Y-86492380D02*
X69895238Y-85730476D01*
X71228571Y-85492380D02*
X70752380Y-85492380D01*
X70704761Y-85968571D01*
X70752380Y-85920952D01*
X70847619Y-85873333D01*
X71085714Y-85873333D01*
X71180952Y-85920952D01*
X71228571Y-85968571D01*
X71276190Y-86063809D01*
X71276190Y-86301904D01*
X71228571Y-86397142D01*
X71180952Y-86444761D01*
X71085714Y-86492380D01*
X70847619Y-86492380D01*
X70752380Y-86444761D01*
X70704761Y-86397142D01*
X71561904Y-85492380D02*
X71895238Y-86492380D01*
X72228571Y-85492380D01*
X28374285Y-33152380D02*
X28374285Y-32152380D01*
X28612380Y-33247619D02*
X29374285Y-33247619D01*
X30183809Y-33057142D02*
X30136190Y-33104761D01*
X29993333Y-33152380D01*
X29898095Y-33152380D01*
X29755238Y-33104761D01*
X29660000Y-33009523D01*
X29612380Y-32914285D01*
X29564761Y-32723809D01*
X29564761Y-32580952D01*
X29612380Y-32390476D01*
X29660000Y-32295238D01*
X29755238Y-32200000D01*
X29898095Y-32152380D01*
X29993333Y-32152380D01*
X30136190Y-32200000D01*
X30183809Y-32247619D01*
X31088571Y-33152380D02*
X30612380Y-33152380D01*
X30612380Y-32152380D01*
X31993333Y-33152380D02*
X31660000Y-32676190D01*
X31421904Y-33152380D02*
X31421904Y-32152380D01*
X31802857Y-32152380D01*
X31898095Y-32200000D01*
X31945714Y-32247619D01*
X31993333Y-32342857D01*
X31993333Y-32485714D01*
X31945714Y-32580952D01*
X31898095Y-32628571D01*
X31802857Y-32676190D01*
X31421904Y-32676190D01*
X28501190Y-35327380D02*
X28691666Y-35327380D01*
X28786904Y-35375000D01*
X28882142Y-35470238D01*
X28929761Y-35660714D01*
X28929761Y-35994047D01*
X28882142Y-36184523D01*
X28786904Y-36279761D01*
X28691666Y-36327380D01*
X28501190Y-36327380D01*
X28405952Y-36279761D01*
X28310714Y-36184523D01*
X28263095Y-35994047D01*
X28263095Y-35660714D01*
X28310714Y-35470238D01*
X28405952Y-35375000D01*
X28501190Y-35327380D01*
X29358333Y-35803571D02*
X29691666Y-35803571D01*
X29834523Y-36327380D02*
X29358333Y-36327380D01*
X29358333Y-35327380D01*
X29834523Y-35327380D01*
X30215476Y-35422619D02*
X30263095Y-35375000D01*
X30358333Y-35327380D01*
X30596428Y-35327380D01*
X30691666Y-35375000D01*
X30739285Y-35422619D01*
X30786904Y-35517857D01*
X30786904Y-35613095D01*
X30739285Y-35755952D01*
X30167857Y-36327380D01*
X30786904Y-36327380D01*
X28302857Y-35057380D02*
X28302857Y-34057380D01*
X28540952Y-35152619D02*
X29302857Y-35152619D01*
X30112380Y-34962142D02*
X30064761Y-35009761D01*
X29921904Y-35057380D01*
X29826666Y-35057380D01*
X29683809Y-35009761D01*
X29588571Y-34914523D01*
X29540952Y-34819285D01*
X29493333Y-34628809D01*
X29493333Y-34485952D01*
X29540952Y-34295476D01*
X29588571Y-34200238D01*
X29683809Y-34105000D01*
X29826666Y-34057380D01*
X29921904Y-34057380D01*
X30064761Y-34105000D01*
X30112380Y-34152619D01*
X30540952Y-35057380D02*
X30540952Y-34057380D01*
X31112380Y-35057380D02*
X30683809Y-34485952D01*
X31112380Y-34057380D02*
X30540952Y-34628809D01*
X31493333Y-34152619D02*
X31540952Y-34105000D01*
X31636190Y-34057380D01*
X31874285Y-34057380D01*
X31969523Y-34105000D01*
X32017142Y-34152619D01*
X32064761Y-34247857D01*
X32064761Y-34343095D01*
X32017142Y-34485952D01*
X31445714Y-35057380D01*
X32064761Y-35057380D01*
X28239285Y-37851428D02*
X29001190Y-37851428D01*
X28620238Y-38232380D02*
X28620238Y-37470476D01*
X29953571Y-37232380D02*
X29477380Y-37232380D01*
X29429761Y-37708571D01*
X29477380Y-37660952D01*
X29572619Y-37613333D01*
X29810714Y-37613333D01*
X29905952Y-37660952D01*
X29953571Y-37708571D01*
X30001190Y-37803809D01*
X30001190Y-38041904D01*
X29953571Y-38137142D01*
X29905952Y-38184761D01*
X29810714Y-38232380D01*
X29572619Y-38232380D01*
X29477380Y-38184761D01*
X29429761Y-38137142D01*
X30286904Y-37232380D02*
X30620238Y-38232380D01*
X30953571Y-37232380D01*
X28501190Y-47392380D02*
X29072619Y-47392380D01*
X28786904Y-48392380D02*
X28786904Y-47392380D01*
X29405952Y-48392380D02*
X29405952Y-47392380D01*
X29644047Y-47392380D01*
X29786904Y-47440000D01*
X29882142Y-47535238D01*
X29929761Y-47630476D01*
X29977380Y-47820952D01*
X29977380Y-47963809D01*
X29929761Y-48154285D01*
X29882142Y-48249523D01*
X29786904Y-48344761D01*
X29644047Y-48392380D01*
X29405952Y-48392380D01*
X30405952Y-48392380D02*
X30405952Y-47392380D01*
X28763095Y-55060000D02*
X28667857Y-55012380D01*
X28525000Y-55012380D01*
X28382142Y-55060000D01*
X28286904Y-55155238D01*
X28239285Y-55250476D01*
X28191666Y-55440952D01*
X28191666Y-55583809D01*
X28239285Y-55774285D01*
X28286904Y-55869523D01*
X28382142Y-55964761D01*
X28525000Y-56012380D01*
X28620238Y-56012380D01*
X28763095Y-55964761D01*
X28810714Y-55917142D01*
X28810714Y-55583809D01*
X28620238Y-55583809D01*
X29239285Y-56012380D02*
X29239285Y-55012380D01*
X29810714Y-56012380D01*
X29810714Y-55012380D01*
X30286904Y-56012380D02*
X30286904Y-55012380D01*
X30525000Y-55012380D01*
X30667857Y-55060000D01*
X30763095Y-55155238D01*
X30810714Y-55250476D01*
X30858333Y-55440952D01*
X30858333Y-55583809D01*
X30810714Y-55774285D01*
X30763095Y-55869523D01*
X30667857Y-55964761D01*
X30525000Y-56012380D01*
X30286904Y-56012380D01*
X28525238Y-58552380D02*
X28525238Y-57552380D01*
X29715714Y-57504761D02*
X28858571Y-58790476D01*
X30239523Y-57552380D02*
X30430000Y-57552380D01*
X30525238Y-57600000D01*
X30620476Y-57695238D01*
X30668095Y-57885714D01*
X30668095Y-58219047D01*
X30620476Y-58409523D01*
X30525238Y-58504761D01*
X30430000Y-58552380D01*
X30239523Y-58552380D01*
X30144285Y-58504761D01*
X30049047Y-58409523D01*
X30001428Y-58219047D01*
X30001428Y-57885714D01*
X30049047Y-57695238D01*
X30144285Y-57600000D01*
X30239523Y-57552380D01*
X30858571Y-58647619D02*
X31620476Y-58647619D01*
X31858571Y-58552380D02*
X31858571Y-57552380D01*
X32239523Y-57552380D01*
X32334761Y-57600000D01*
X32382380Y-57647619D01*
X32430000Y-57742857D01*
X32430000Y-57885714D01*
X32382380Y-57980952D01*
X32334761Y-58028571D01*
X32239523Y-58076190D01*
X31858571Y-58076190D01*
X32858571Y-58552380D02*
X32858571Y-57552380D01*
X33096666Y-57552380D01*
X33239523Y-57600000D01*
X33334761Y-57695238D01*
X33382380Y-57790476D01*
X33430000Y-57980952D01*
X33430000Y-58123809D01*
X33382380Y-58314285D01*
X33334761Y-58409523D01*
X33239523Y-58504761D01*
X33096666Y-58552380D01*
X32858571Y-58552380D01*
X34382380Y-58552380D02*
X33810952Y-58552380D01*
X34096666Y-58552380D02*
X34096666Y-57552380D01*
X34001428Y-57695238D01*
X33906190Y-57790476D01*
X33810952Y-57838095D01*
X28191666Y-62632380D02*
X28763095Y-62632380D01*
X28477380Y-63632380D02*
X28477380Y-62632380D01*
X29096428Y-63632380D02*
X29096428Y-62632380D01*
X29429761Y-63346666D01*
X29763095Y-62632380D01*
X29763095Y-63632380D01*
X30191666Y-63584761D02*
X30334523Y-63632380D01*
X30572619Y-63632380D01*
X30667857Y-63584761D01*
X30715476Y-63537142D01*
X30763095Y-63441904D01*
X30763095Y-63346666D01*
X30715476Y-63251428D01*
X30667857Y-63203809D01*
X30572619Y-63156190D01*
X30382142Y-63108571D01*
X30286904Y-63060952D01*
X30239285Y-63013333D01*
X30191666Y-62918095D01*
X30191666Y-62822857D01*
X30239285Y-62727619D01*
X30286904Y-62680000D01*
X30382142Y-62632380D01*
X30620238Y-62632380D01*
X30763095Y-62680000D01*
X28239285Y-68331428D02*
X29001190Y-68331428D01*
X28620238Y-68712380D02*
X28620238Y-67950476D01*
X29953571Y-67712380D02*
X29477380Y-67712380D01*
X29429761Y-68188571D01*
X29477380Y-68140952D01*
X29572619Y-68093333D01*
X29810714Y-68093333D01*
X29905952Y-68140952D01*
X29953571Y-68188571D01*
X30001190Y-68283809D01*
X30001190Y-68521904D01*
X29953571Y-68617142D01*
X29905952Y-68664761D01*
X29810714Y-68712380D01*
X29572619Y-68712380D01*
X29477380Y-68664761D01*
X29429761Y-68617142D01*
X30286904Y-67712380D02*
X30620238Y-68712380D01*
X30953571Y-67712380D01*
X28763095Y-86175000D02*
X28667857Y-86127380D01*
X28525000Y-86127380D01*
X28382142Y-86175000D01*
X28286904Y-86270238D01*
X28239285Y-86365476D01*
X28191666Y-86555952D01*
X28191666Y-86698809D01*
X28239285Y-86889285D01*
X28286904Y-86984523D01*
X28382142Y-87079761D01*
X28525000Y-87127380D01*
X28620238Y-87127380D01*
X28763095Y-87079761D01*
X28810714Y-87032142D01*
X28810714Y-86698809D01*
X28620238Y-86698809D01*
X29239285Y-87127380D02*
X29239285Y-86127380D01*
X29810714Y-87127380D01*
X29810714Y-86127380D01*
X30286904Y-87127380D02*
X30286904Y-86127380D01*
X30525000Y-86127380D01*
X30667857Y-86175000D01*
X30763095Y-86270238D01*
X30810714Y-86365476D01*
X30858333Y-86555952D01*
X30858333Y-86698809D01*
X30810714Y-86889285D01*
X30763095Y-86984523D01*
X30667857Y-87079761D01*
X30525000Y-87127380D01*
X30286904Y-87127380D01*
X28477380Y-40772380D02*
X28477380Y-39772380D01*
X29667857Y-39724761D02*
X28810714Y-41010476D01*
X30191666Y-39772380D02*
X30382142Y-39772380D01*
X30477380Y-39820000D01*
X30572619Y-39915238D01*
X30620238Y-40105714D01*
X30620238Y-40439047D01*
X30572619Y-40629523D01*
X30477380Y-40724761D01*
X30382142Y-40772380D01*
X30191666Y-40772380D01*
X30096428Y-40724761D01*
X30001190Y-40629523D01*
X29953571Y-40439047D01*
X29953571Y-40105714D01*
X30001190Y-39915238D01*
X30096428Y-39820000D01*
X30191666Y-39772380D01*
X28477380Y-43312380D02*
X28477380Y-42312380D01*
X29667857Y-42264761D02*
X28810714Y-43550476D01*
X30191666Y-42312380D02*
X30382142Y-42312380D01*
X30477380Y-42360000D01*
X30572619Y-42455238D01*
X30620238Y-42645714D01*
X30620238Y-42979047D01*
X30572619Y-43169523D01*
X30477380Y-43264761D01*
X30382142Y-43312380D01*
X30191666Y-43312380D01*
X30096428Y-43264761D01*
X30001190Y-43169523D01*
X29953571Y-42979047D01*
X29953571Y-42645714D01*
X30001190Y-42455238D01*
X30096428Y-42360000D01*
X30191666Y-42312380D01*
X28477380Y-45852380D02*
X28477380Y-44852380D01*
X29667857Y-44804761D02*
X28810714Y-46090476D01*
X30191666Y-44852380D02*
X30382142Y-44852380D01*
X30477380Y-44900000D01*
X30572619Y-44995238D01*
X30620238Y-45185714D01*
X30620238Y-45519047D01*
X30572619Y-45709523D01*
X30477380Y-45804761D01*
X30382142Y-45852380D01*
X30191666Y-45852380D01*
X30096428Y-45804761D01*
X30001190Y-45709523D01*
X29953571Y-45519047D01*
X29953571Y-45185714D01*
X30001190Y-44995238D01*
X30096428Y-44900000D01*
X30191666Y-44852380D01*
X28477380Y-50932380D02*
X28477380Y-49932380D01*
X29667857Y-49884761D02*
X28810714Y-51170476D01*
X30191666Y-49932380D02*
X30382142Y-49932380D01*
X30477380Y-49980000D01*
X30572619Y-50075238D01*
X30620238Y-50265714D01*
X30620238Y-50599047D01*
X30572619Y-50789523D01*
X30477380Y-50884761D01*
X30382142Y-50932380D01*
X30191666Y-50932380D01*
X30096428Y-50884761D01*
X30001190Y-50789523D01*
X29953571Y-50599047D01*
X29953571Y-50265714D01*
X30001190Y-50075238D01*
X30096428Y-49980000D01*
X30191666Y-49932380D01*
X28477380Y-53472380D02*
X28477380Y-52472380D01*
X29667857Y-52424761D02*
X28810714Y-53710476D01*
X30191666Y-52472380D02*
X30382142Y-52472380D01*
X30477380Y-52520000D01*
X30572619Y-52615238D01*
X30620238Y-52805714D01*
X30620238Y-53139047D01*
X30572619Y-53329523D01*
X30477380Y-53424761D01*
X30382142Y-53472380D01*
X30191666Y-53472380D01*
X30096428Y-53424761D01*
X30001190Y-53329523D01*
X29953571Y-53139047D01*
X29953571Y-52805714D01*
X30001190Y-52615238D01*
X30096428Y-52520000D01*
X30191666Y-52472380D01*
X28477380Y-61092380D02*
X28477380Y-60092380D01*
X29667857Y-60044761D02*
X28810714Y-61330476D01*
X30191666Y-60092380D02*
X30382142Y-60092380D01*
X30477380Y-60140000D01*
X30572619Y-60235238D01*
X30620238Y-60425714D01*
X30620238Y-60759047D01*
X30572619Y-60949523D01*
X30477380Y-61044761D01*
X30382142Y-61092380D01*
X30191666Y-61092380D01*
X30096428Y-61044761D01*
X30001190Y-60949523D01*
X29953571Y-60759047D01*
X29953571Y-60425714D01*
X30001190Y-60235238D01*
X30096428Y-60140000D01*
X30191666Y-60092380D01*
X28477380Y-66172380D02*
X28477380Y-65172380D01*
X29667857Y-65124761D02*
X28810714Y-66410476D01*
X30191666Y-65172380D02*
X30382142Y-65172380D01*
X30477380Y-65220000D01*
X30572619Y-65315238D01*
X30620238Y-65505714D01*
X30620238Y-65839047D01*
X30572619Y-66029523D01*
X30477380Y-66124761D01*
X30382142Y-66172380D01*
X30191666Y-66172380D01*
X30096428Y-66124761D01*
X30001190Y-66029523D01*
X29953571Y-65839047D01*
X29953571Y-65505714D01*
X30001190Y-65315238D01*
X30096428Y-65220000D01*
X30191666Y-65172380D01*
X28477380Y-71252380D02*
X28477380Y-70252380D01*
X29667857Y-70204761D02*
X28810714Y-71490476D01*
X30191666Y-70252380D02*
X30382142Y-70252380D01*
X30477380Y-70300000D01*
X30572619Y-70395238D01*
X30620238Y-70585714D01*
X30620238Y-70919047D01*
X30572619Y-71109523D01*
X30477380Y-71204761D01*
X30382142Y-71252380D01*
X30191666Y-71252380D01*
X30096428Y-71204761D01*
X30001190Y-71109523D01*
X29953571Y-70919047D01*
X29953571Y-70585714D01*
X30001190Y-70395238D01*
X30096428Y-70300000D01*
X30191666Y-70252380D01*
X28477380Y-73792380D02*
X28477380Y-72792380D01*
X29667857Y-72744761D02*
X28810714Y-74030476D01*
X30191666Y-72792380D02*
X30382142Y-72792380D01*
X30477380Y-72840000D01*
X30572619Y-72935238D01*
X30620238Y-73125714D01*
X30620238Y-73459047D01*
X30572619Y-73649523D01*
X30477380Y-73744761D01*
X30382142Y-73792380D01*
X30191666Y-73792380D01*
X30096428Y-73744761D01*
X30001190Y-73649523D01*
X29953571Y-73459047D01*
X29953571Y-73125714D01*
X30001190Y-72935238D01*
X30096428Y-72840000D01*
X30191666Y-72792380D01*
X28477380Y-75697380D02*
X28477380Y-74697380D01*
X29667857Y-74649761D02*
X28810714Y-75935476D01*
X30191666Y-74697380D02*
X30382142Y-74697380D01*
X30477380Y-74745000D01*
X30572619Y-74840238D01*
X30620238Y-75030714D01*
X30620238Y-75364047D01*
X30572619Y-75554523D01*
X30477380Y-75649761D01*
X30382142Y-75697380D01*
X30191666Y-75697380D01*
X30096428Y-75649761D01*
X30001190Y-75554523D01*
X29953571Y-75364047D01*
X29953571Y-75030714D01*
X30001190Y-74840238D01*
X30096428Y-74745000D01*
X30191666Y-74697380D01*
X28477380Y-79507380D02*
X28477380Y-78507380D01*
X29667857Y-78459761D02*
X28810714Y-79745476D01*
X30191666Y-78507380D02*
X30382142Y-78507380D01*
X30477380Y-78555000D01*
X30572619Y-78650238D01*
X30620238Y-78840714D01*
X30620238Y-79174047D01*
X30572619Y-79364523D01*
X30477380Y-79459761D01*
X30382142Y-79507380D01*
X30191666Y-79507380D01*
X30096428Y-79459761D01*
X30001190Y-79364523D01*
X29953571Y-79174047D01*
X29953571Y-78840714D01*
X30001190Y-78650238D01*
X30096428Y-78555000D01*
X30191666Y-78507380D01*
X28477380Y-81412380D02*
X28477380Y-80412380D01*
X29667857Y-80364761D02*
X28810714Y-81650476D01*
X30191666Y-80412380D02*
X30382142Y-80412380D01*
X30477380Y-80460000D01*
X30572619Y-80555238D01*
X30620238Y-80745714D01*
X30620238Y-81079047D01*
X30572619Y-81269523D01*
X30477380Y-81364761D01*
X30382142Y-81412380D01*
X30191666Y-81412380D01*
X30096428Y-81364761D01*
X30001190Y-81269523D01*
X29953571Y-81079047D01*
X29953571Y-80745714D01*
X30001190Y-80555238D01*
X30096428Y-80460000D01*
X30191666Y-80412380D01*
X28477380Y-83317380D02*
X28477380Y-82317380D01*
X29667857Y-82269761D02*
X28810714Y-83555476D01*
X30191666Y-82317380D02*
X30382142Y-82317380D01*
X30477380Y-82365000D01*
X30572619Y-82460238D01*
X30620238Y-82650714D01*
X30620238Y-82984047D01*
X30572619Y-83174523D01*
X30477380Y-83269761D01*
X30382142Y-83317380D01*
X30191666Y-83317380D01*
X30096428Y-83269761D01*
X30001190Y-83174523D01*
X29953571Y-82984047D01*
X29953571Y-82650714D01*
X30001190Y-82460238D01*
X30096428Y-82365000D01*
X30191666Y-82317380D01*
X69752380Y-83952380D02*
X69752380Y-82952380D01*
X70942857Y-82904761D02*
X70085714Y-84190476D01*
X71466666Y-82952380D02*
X71657142Y-82952380D01*
X71752380Y-83000000D01*
X71847619Y-83095238D01*
X71895238Y-83285714D01*
X71895238Y-83619047D01*
X71847619Y-83809523D01*
X71752380Y-83904761D01*
X71657142Y-83952380D01*
X71466666Y-83952380D01*
X71371428Y-83904761D01*
X71276190Y-83809523D01*
X71228571Y-83619047D01*
X71228571Y-83285714D01*
X71276190Y-83095238D01*
X71371428Y-83000000D01*
X71466666Y-82952380D01*
X69752380Y-81412380D02*
X69752380Y-80412380D01*
X70942857Y-80364761D02*
X70085714Y-81650476D01*
X71466666Y-80412380D02*
X71657142Y-80412380D01*
X71752380Y-80460000D01*
X71847619Y-80555238D01*
X71895238Y-80745714D01*
X71895238Y-81079047D01*
X71847619Y-81269523D01*
X71752380Y-81364761D01*
X71657142Y-81412380D01*
X71466666Y-81412380D01*
X71371428Y-81364761D01*
X71276190Y-81269523D01*
X71228571Y-81079047D01*
X71228571Y-80745714D01*
X71276190Y-80555238D01*
X71371428Y-80460000D01*
X71466666Y-80412380D01*
X69752380Y-78872380D02*
X69752380Y-77872380D01*
X70942857Y-77824761D02*
X70085714Y-79110476D01*
X71466666Y-77872380D02*
X71657142Y-77872380D01*
X71752380Y-77920000D01*
X71847619Y-78015238D01*
X71895238Y-78205714D01*
X71895238Y-78539047D01*
X71847619Y-78729523D01*
X71752380Y-78824761D01*
X71657142Y-78872380D01*
X71466666Y-78872380D01*
X71371428Y-78824761D01*
X71276190Y-78729523D01*
X71228571Y-78539047D01*
X71228571Y-78205714D01*
X71276190Y-78015238D01*
X71371428Y-77920000D01*
X71466666Y-77872380D01*
X69752380Y-76332380D02*
X69752380Y-75332380D01*
X70942857Y-75284761D02*
X70085714Y-76570476D01*
X71466666Y-75332380D02*
X71657142Y-75332380D01*
X71752380Y-75380000D01*
X71847619Y-75475238D01*
X71895238Y-75665714D01*
X71895238Y-75999047D01*
X71847619Y-76189523D01*
X71752380Y-76284761D01*
X71657142Y-76332380D01*
X71466666Y-76332380D01*
X71371428Y-76284761D01*
X71276190Y-76189523D01*
X71228571Y-75999047D01*
X71228571Y-75665714D01*
X71276190Y-75475238D01*
X71371428Y-75380000D01*
X71466666Y-75332380D01*
X69752380Y-73792380D02*
X69752380Y-72792380D01*
X70942857Y-72744761D02*
X70085714Y-74030476D01*
X71466666Y-72792380D02*
X71657142Y-72792380D01*
X71752380Y-72840000D01*
X71847619Y-72935238D01*
X71895238Y-73125714D01*
X71895238Y-73459047D01*
X71847619Y-73649523D01*
X71752380Y-73744761D01*
X71657142Y-73792380D01*
X71466666Y-73792380D01*
X71371428Y-73744761D01*
X71276190Y-73649523D01*
X71228571Y-73459047D01*
X71228571Y-73125714D01*
X71276190Y-72935238D01*
X71371428Y-72840000D01*
X71466666Y-72792380D01*
X69752380Y-71252380D02*
X69752380Y-70252380D01*
X70942857Y-70204761D02*
X70085714Y-71490476D01*
X71466666Y-70252380D02*
X71657142Y-70252380D01*
X71752380Y-70300000D01*
X71847619Y-70395238D01*
X71895238Y-70585714D01*
X71895238Y-70919047D01*
X71847619Y-71109523D01*
X71752380Y-71204761D01*
X71657142Y-71252380D01*
X71466666Y-71252380D01*
X71371428Y-71204761D01*
X71276190Y-71109523D01*
X71228571Y-70919047D01*
X71228571Y-70585714D01*
X71276190Y-70395238D01*
X71371428Y-70300000D01*
X71466666Y-70252380D01*
X69752380Y-66172380D02*
X69752380Y-65172380D01*
X70942857Y-65124761D02*
X70085714Y-66410476D01*
X71466666Y-65172380D02*
X71657142Y-65172380D01*
X71752380Y-65220000D01*
X71847619Y-65315238D01*
X71895238Y-65505714D01*
X71895238Y-65839047D01*
X71847619Y-66029523D01*
X71752380Y-66124761D01*
X71657142Y-66172380D01*
X71466666Y-66172380D01*
X71371428Y-66124761D01*
X71276190Y-66029523D01*
X71228571Y-65839047D01*
X71228571Y-65505714D01*
X71276190Y-65315238D01*
X71371428Y-65220000D01*
X71466666Y-65172380D01*
X69752380Y-61092380D02*
X69752380Y-60092380D01*
X70942857Y-60044761D02*
X70085714Y-61330476D01*
X71466666Y-60092380D02*
X71657142Y-60092380D01*
X71752380Y-60140000D01*
X71847619Y-60235238D01*
X71895238Y-60425714D01*
X71895238Y-60759047D01*
X71847619Y-60949523D01*
X71752380Y-61044761D01*
X71657142Y-61092380D01*
X71466666Y-61092380D01*
X71371428Y-61044761D01*
X71276190Y-60949523D01*
X71228571Y-60759047D01*
X71228571Y-60425714D01*
X71276190Y-60235238D01*
X71371428Y-60140000D01*
X71466666Y-60092380D01*
X69752380Y-58552380D02*
X69752380Y-57552380D01*
X70942857Y-57504761D02*
X70085714Y-58790476D01*
X71466666Y-57552380D02*
X71657142Y-57552380D01*
X71752380Y-57600000D01*
X71847619Y-57695238D01*
X71895238Y-57885714D01*
X71895238Y-58219047D01*
X71847619Y-58409523D01*
X71752380Y-58504761D01*
X71657142Y-58552380D01*
X71466666Y-58552380D01*
X71371428Y-58504761D01*
X71276190Y-58409523D01*
X71228571Y-58219047D01*
X71228571Y-57885714D01*
X71276190Y-57695238D01*
X71371428Y-57600000D01*
X71466666Y-57552380D01*
X69752380Y-53472380D02*
X69752380Y-52472380D01*
X70942857Y-52424761D02*
X70085714Y-53710476D01*
X71466666Y-52472380D02*
X71657142Y-52472380D01*
X71752380Y-52520000D01*
X71847619Y-52615238D01*
X71895238Y-52805714D01*
X71895238Y-53139047D01*
X71847619Y-53329523D01*
X71752380Y-53424761D01*
X71657142Y-53472380D01*
X71466666Y-53472380D01*
X71371428Y-53424761D01*
X71276190Y-53329523D01*
X71228571Y-53139047D01*
X71228571Y-52805714D01*
X71276190Y-52615238D01*
X71371428Y-52520000D01*
X71466666Y-52472380D01*
X69752380Y-50932380D02*
X69752380Y-49932380D01*
X70942857Y-49884761D02*
X70085714Y-51170476D01*
X71466666Y-49932380D02*
X71657142Y-49932380D01*
X71752380Y-49980000D01*
X71847619Y-50075238D01*
X71895238Y-50265714D01*
X71895238Y-50599047D01*
X71847619Y-50789523D01*
X71752380Y-50884761D01*
X71657142Y-50932380D01*
X71466666Y-50932380D01*
X71371428Y-50884761D01*
X71276190Y-50789523D01*
X71228571Y-50599047D01*
X71228571Y-50265714D01*
X71276190Y-50075238D01*
X71371428Y-49980000D01*
X71466666Y-49932380D01*
X69752380Y-45852380D02*
X69752380Y-44852380D01*
X70942857Y-44804761D02*
X70085714Y-46090476D01*
X71466666Y-44852380D02*
X71657142Y-44852380D01*
X71752380Y-44900000D01*
X71847619Y-44995238D01*
X71895238Y-45185714D01*
X71895238Y-45519047D01*
X71847619Y-45709523D01*
X71752380Y-45804761D01*
X71657142Y-45852380D01*
X71466666Y-45852380D01*
X71371428Y-45804761D01*
X71276190Y-45709523D01*
X71228571Y-45519047D01*
X71228571Y-45185714D01*
X71276190Y-44995238D01*
X71371428Y-44900000D01*
X71466666Y-44852380D01*
X69752380Y-43312380D02*
X69752380Y-42312380D01*
X70942857Y-42264761D02*
X70085714Y-43550476D01*
X71466666Y-42312380D02*
X71657142Y-42312380D01*
X71752380Y-42360000D01*
X71847619Y-42455238D01*
X71895238Y-42645714D01*
X71895238Y-42979047D01*
X71847619Y-43169523D01*
X71752380Y-43264761D01*
X71657142Y-43312380D01*
X71466666Y-43312380D01*
X71371428Y-43264761D01*
X71276190Y-43169523D01*
X71228571Y-42979047D01*
X71228571Y-42645714D01*
X71276190Y-42455238D01*
X71371428Y-42360000D01*
X71466666Y-42312380D01*
X69466666Y-30882380D02*
X69800000Y-31882380D01*
X70133333Y-30882380D01*
X70466666Y-31882380D02*
X70466666Y-30882380D01*
X70847619Y-30882380D01*
X70942857Y-30930000D01*
X70990476Y-30977619D01*
X71038095Y-31072857D01*
X71038095Y-31215714D01*
X70990476Y-31310952D01*
X70942857Y-31358571D01*
X70847619Y-31406190D01*
X70466666Y-31406190D01*
X71466666Y-31882380D02*
X71466666Y-30882380D01*
X71847619Y-30882380D01*
X71942857Y-30930000D01*
X71990476Y-30977619D01*
X72038095Y-31072857D01*
X72038095Y-31215714D01*
X71990476Y-31310952D01*
X71942857Y-31358571D01*
X71847619Y-31406190D01*
X71466666Y-31406190D01*
X68419047Y-40772380D02*
X68419047Y-39772380D01*
X69085714Y-39772380D02*
X69276190Y-39772380D01*
X69371428Y-39820000D01*
X69466666Y-39915238D01*
X69514285Y-40105714D01*
X69514285Y-40439047D01*
X69466666Y-40629523D01*
X69371428Y-40724761D01*
X69276190Y-40772380D01*
X69085714Y-40772380D01*
X68990476Y-40724761D01*
X68895238Y-40629523D01*
X68847619Y-40439047D01*
X68847619Y-40105714D01*
X68895238Y-39915238D01*
X68990476Y-39820000D01*
X69085714Y-39772380D01*
X69704761Y-40867619D02*
X70466666Y-40867619D01*
X71276190Y-40677142D02*
X71228571Y-40724761D01*
X71085714Y-40772380D01*
X70990476Y-40772380D01*
X70847619Y-40724761D01*
X70752380Y-40629523D01*
X70704761Y-40534285D01*
X70657142Y-40343809D01*
X70657142Y-40200952D01*
X70704761Y-40010476D01*
X70752380Y-39915238D01*
X70847619Y-39820000D01*
X70990476Y-39772380D01*
X71085714Y-39772380D01*
X71228571Y-39820000D01*
X71276190Y-39867619D01*
X71704761Y-40772380D02*
X71704761Y-39772380D01*
X72276190Y-40772380D02*
X71847619Y-40200952D01*
X72276190Y-39772380D02*
X71704761Y-40343809D01*
X72609523Y-39772380D02*
X73228571Y-39772380D01*
X72895238Y-40153333D01*
X73038095Y-40153333D01*
X73133333Y-40200952D01*
X73180952Y-40248571D01*
X73228571Y-40343809D01*
X73228571Y-40581904D01*
X73180952Y-40677142D01*
X73133333Y-40724761D01*
X73038095Y-40772380D01*
X72752380Y-40772380D01*
X72657142Y-40724761D01*
X72609523Y-40677142D01*
X70038095Y-37280000D02*
X69942857Y-37232380D01*
X69800000Y-37232380D01*
X69657142Y-37280000D01*
X69561904Y-37375238D01*
X69514285Y-37470476D01*
X69466666Y-37660952D01*
X69466666Y-37803809D01*
X69514285Y-37994285D01*
X69561904Y-38089523D01*
X69657142Y-38184761D01*
X69800000Y-38232380D01*
X69895238Y-38232380D01*
X70038095Y-38184761D01*
X70085714Y-38137142D01*
X70085714Y-37803809D01*
X69895238Y-37803809D01*
X70514285Y-38232380D02*
X70514285Y-37232380D01*
X71085714Y-38232380D01*
X71085714Y-37232380D01*
X71561904Y-38232380D02*
X71561904Y-37232380D01*
X71800000Y-37232380D01*
X71942857Y-37280000D01*
X72038095Y-37375238D01*
X72085714Y-37470476D01*
X72133333Y-37660952D01*
X72133333Y-37803809D01*
X72085714Y-37994285D01*
X72038095Y-38089523D01*
X71942857Y-38184761D01*
X71800000Y-38232380D01*
X71561904Y-38232380D01*
X68942857Y-35692380D02*
X68942857Y-34692380D01*
X69180952Y-35787619D02*
X69942857Y-35787619D01*
X70752380Y-35597142D02*
X70704761Y-35644761D01*
X70561904Y-35692380D01*
X70466666Y-35692380D01*
X70323809Y-35644761D01*
X70228571Y-35549523D01*
X70180952Y-35454285D01*
X70133333Y-35263809D01*
X70133333Y-35120952D01*
X70180952Y-34930476D01*
X70228571Y-34835238D01*
X70323809Y-34740000D01*
X70466666Y-34692380D01*
X70561904Y-34692380D01*
X70704761Y-34740000D01*
X70752380Y-34787619D01*
X71180952Y-35692380D02*
X71180952Y-34692380D01*
X71752380Y-35692380D02*
X71323809Y-35120952D01*
X71752380Y-34692380D02*
X71180952Y-35263809D01*
X72704761Y-35692380D02*
X72133333Y-35692380D01*
X72419047Y-35692380D02*
X72419047Y-34692380D01*
X72323809Y-34835238D01*
X72228571Y-34930476D01*
X72133333Y-34978095D01*
X68966666Y-33152380D02*
X68966666Y-32152380D01*
X69204761Y-33247619D02*
X69966666Y-33247619D01*
X70395238Y-32152380D02*
X70585714Y-32152380D01*
X70680952Y-32200000D01*
X70776190Y-32295238D01*
X70823809Y-32485714D01*
X70823809Y-32819047D01*
X70776190Y-33009523D01*
X70680952Y-33104761D01*
X70585714Y-33152380D01*
X70395238Y-33152380D01*
X70300000Y-33104761D01*
X70204761Y-33009523D01*
X70157142Y-32819047D01*
X70157142Y-32485714D01*
X70204761Y-32295238D01*
X70300000Y-32200000D01*
X70395238Y-32152380D01*
X71252380Y-32628571D02*
X71585714Y-32628571D01*
X71728571Y-33152380D02*
X71252380Y-33152380D01*
X71252380Y-32152380D01*
X71728571Y-32152380D01*
X72680952Y-33152380D02*
X72109523Y-33152380D01*
X72395238Y-33152380D02*
X72395238Y-32152380D01*
X72300000Y-32295238D01*
X72204761Y-32390476D01*
X72109523Y-32438095D01*
X77499285Y-35025714D02*
X77499285Y-35692380D01*
X77261190Y-34644761D02*
X77023095Y-35359047D01*
X77642142Y-35359047D01*
X77927857Y-34692380D02*
X78546904Y-34692380D01*
X78213571Y-35073333D01*
X78356428Y-35073333D01*
X78451666Y-35120952D01*
X78499285Y-35168571D01*
X78546904Y-35263809D01*
X78546904Y-35501904D01*
X78499285Y-35597142D01*
X78451666Y-35644761D01*
X78356428Y-35692380D01*
X78070714Y-35692380D01*
X77975476Y-35644761D01*
X77927857Y-35597142D01*
X77499285Y-37565714D02*
X77499285Y-38232380D01*
X77261190Y-37184761D02*
X77023095Y-37899047D01*
X77642142Y-37899047D01*
X77975476Y-37327619D02*
X78023095Y-37280000D01*
X78118333Y-37232380D01*
X78356428Y-37232380D01*
X78451666Y-37280000D01*
X78499285Y-37327619D01*
X78546904Y-37422857D01*
X78546904Y-37518095D01*
X78499285Y-37660952D01*
X77927857Y-38232380D01*
X78546904Y-38232380D01*
X77499285Y-40105714D02*
X77499285Y-40772380D01*
X77261190Y-39724761D02*
X77023095Y-40439047D01*
X77642142Y-40439047D01*
X78546904Y-40772380D02*
X77975476Y-40772380D01*
X78261190Y-40772380D02*
X78261190Y-39772380D01*
X78165952Y-39915238D01*
X78070714Y-40010476D01*
X77975476Y-40058095D01*
X77499285Y-42645714D02*
X77499285Y-43312380D01*
X77261190Y-42264761D02*
X77023095Y-42979047D01*
X77642142Y-42979047D01*
X78213571Y-42312380D02*
X78308809Y-42312380D01*
X78404047Y-42360000D01*
X78451666Y-42407619D01*
X78499285Y-42502857D01*
X78546904Y-42693333D01*
X78546904Y-42931428D01*
X78499285Y-43121904D01*
X78451666Y-43217142D01*
X78404047Y-43264761D01*
X78308809Y-43312380D01*
X78213571Y-43312380D01*
X78118333Y-43264761D01*
X78070714Y-43217142D01*
X78023095Y-43121904D01*
X77975476Y-42931428D01*
X77975476Y-42693333D01*
X78023095Y-42502857D01*
X78070714Y-42407619D01*
X78118333Y-42360000D01*
X78213571Y-42312380D01*
X76975476Y-44852380D02*
X77594523Y-44852380D01*
X77261190Y-45233333D01*
X77404047Y-45233333D01*
X77499285Y-45280952D01*
X77546904Y-45328571D01*
X77594523Y-45423809D01*
X77594523Y-45661904D01*
X77546904Y-45757142D01*
X77499285Y-45804761D01*
X77404047Y-45852380D01*
X77118333Y-45852380D01*
X77023095Y-45804761D01*
X76975476Y-45757142D01*
X78070714Y-45852380D02*
X78261190Y-45852380D01*
X78356428Y-45804761D01*
X78404047Y-45757142D01*
X78499285Y-45614285D01*
X78546904Y-45423809D01*
X78546904Y-45042857D01*
X78499285Y-44947619D01*
X78451666Y-44900000D01*
X78356428Y-44852380D01*
X78165952Y-44852380D01*
X78070714Y-44900000D01*
X78023095Y-44947619D01*
X77975476Y-45042857D01*
X77975476Y-45280952D01*
X78023095Y-45376190D01*
X78070714Y-45423809D01*
X78165952Y-45471428D01*
X78356428Y-45471428D01*
X78451666Y-45423809D01*
X78499285Y-45376190D01*
X78546904Y-45280952D01*
X76975476Y-47392380D02*
X77594523Y-47392380D01*
X77261190Y-47773333D01*
X77404047Y-47773333D01*
X77499285Y-47820952D01*
X77546904Y-47868571D01*
X77594523Y-47963809D01*
X77594523Y-48201904D01*
X77546904Y-48297142D01*
X77499285Y-48344761D01*
X77404047Y-48392380D01*
X77118333Y-48392380D01*
X77023095Y-48344761D01*
X76975476Y-48297142D01*
X78165952Y-47820952D02*
X78070714Y-47773333D01*
X78023095Y-47725714D01*
X77975476Y-47630476D01*
X77975476Y-47582857D01*
X78023095Y-47487619D01*
X78070714Y-47440000D01*
X78165952Y-47392380D01*
X78356428Y-47392380D01*
X78451666Y-47440000D01*
X78499285Y-47487619D01*
X78546904Y-47582857D01*
X78546904Y-47630476D01*
X78499285Y-47725714D01*
X78451666Y-47773333D01*
X78356428Y-47820952D01*
X78165952Y-47820952D01*
X78070714Y-47868571D01*
X78023095Y-47916190D01*
X77975476Y-48011428D01*
X77975476Y-48201904D01*
X78023095Y-48297142D01*
X78070714Y-48344761D01*
X78165952Y-48392380D01*
X78356428Y-48392380D01*
X78451666Y-48344761D01*
X78499285Y-48297142D01*
X78546904Y-48201904D01*
X78546904Y-48011428D01*
X78499285Y-47916190D01*
X78451666Y-47868571D01*
X78356428Y-47820952D01*
X76975476Y-49932380D02*
X77594523Y-49932380D01*
X77261190Y-50313333D01*
X77404047Y-50313333D01*
X77499285Y-50360952D01*
X77546904Y-50408571D01*
X77594523Y-50503809D01*
X77594523Y-50741904D01*
X77546904Y-50837142D01*
X77499285Y-50884761D01*
X77404047Y-50932380D01*
X77118333Y-50932380D01*
X77023095Y-50884761D01*
X76975476Y-50837142D01*
X77927857Y-49932380D02*
X78594523Y-49932380D01*
X78165952Y-50932380D01*
X76975476Y-52472380D02*
X77594523Y-52472380D01*
X77261190Y-52853333D01*
X77404047Y-52853333D01*
X77499285Y-52900952D01*
X77546904Y-52948571D01*
X77594523Y-53043809D01*
X77594523Y-53281904D01*
X77546904Y-53377142D01*
X77499285Y-53424761D01*
X77404047Y-53472380D01*
X77118333Y-53472380D01*
X77023095Y-53424761D01*
X76975476Y-53377142D01*
X78451666Y-52472380D02*
X78261190Y-52472380D01*
X78165952Y-52520000D01*
X78118333Y-52567619D01*
X78023095Y-52710476D01*
X77975476Y-52900952D01*
X77975476Y-53281904D01*
X78023095Y-53377142D01*
X78070714Y-53424761D01*
X78165952Y-53472380D01*
X78356428Y-53472380D01*
X78451666Y-53424761D01*
X78499285Y-53377142D01*
X78546904Y-53281904D01*
X78546904Y-53043809D01*
X78499285Y-52948571D01*
X78451666Y-52900952D01*
X78356428Y-52853333D01*
X78165952Y-52853333D01*
X78070714Y-52900952D01*
X78023095Y-52948571D01*
X77975476Y-53043809D01*
X76975476Y-55012380D02*
X77594523Y-55012380D01*
X77261190Y-55393333D01*
X77404047Y-55393333D01*
X77499285Y-55440952D01*
X77546904Y-55488571D01*
X77594523Y-55583809D01*
X77594523Y-55821904D01*
X77546904Y-55917142D01*
X77499285Y-55964761D01*
X77404047Y-56012380D01*
X77118333Y-56012380D01*
X77023095Y-55964761D01*
X76975476Y-55917142D01*
X78499285Y-55012380D02*
X78023095Y-55012380D01*
X77975476Y-55488571D01*
X78023095Y-55440952D01*
X78118333Y-55393333D01*
X78356428Y-55393333D01*
X78451666Y-55440952D01*
X78499285Y-55488571D01*
X78546904Y-55583809D01*
X78546904Y-55821904D01*
X78499285Y-55917142D01*
X78451666Y-55964761D01*
X78356428Y-56012380D01*
X78118333Y-56012380D01*
X78023095Y-55964761D01*
X77975476Y-55917142D01*
X76975476Y-57552380D02*
X77594523Y-57552380D01*
X77261190Y-57933333D01*
X77404047Y-57933333D01*
X77499285Y-57980952D01*
X77546904Y-58028571D01*
X77594523Y-58123809D01*
X77594523Y-58361904D01*
X77546904Y-58457142D01*
X77499285Y-58504761D01*
X77404047Y-58552380D01*
X77118333Y-58552380D01*
X77023095Y-58504761D01*
X76975476Y-58457142D01*
X78451666Y-57885714D02*
X78451666Y-58552380D01*
X78213571Y-57504761D02*
X77975476Y-58219047D01*
X78594523Y-58219047D01*
X76975476Y-60092380D02*
X77594523Y-60092380D01*
X77261190Y-60473333D01*
X77404047Y-60473333D01*
X77499285Y-60520952D01*
X77546904Y-60568571D01*
X77594523Y-60663809D01*
X77594523Y-60901904D01*
X77546904Y-60997142D01*
X77499285Y-61044761D01*
X77404047Y-61092380D01*
X77118333Y-61092380D01*
X77023095Y-61044761D01*
X76975476Y-60997142D01*
X77927857Y-60092380D02*
X78546904Y-60092380D01*
X78213571Y-60473333D01*
X78356428Y-60473333D01*
X78451666Y-60520952D01*
X78499285Y-60568571D01*
X78546904Y-60663809D01*
X78546904Y-60901904D01*
X78499285Y-60997142D01*
X78451666Y-61044761D01*
X78356428Y-61092380D01*
X78070714Y-61092380D01*
X77975476Y-61044761D01*
X77927857Y-60997142D01*
X76975476Y-62632380D02*
X77594523Y-62632380D01*
X77261190Y-63013333D01*
X77404047Y-63013333D01*
X77499285Y-63060952D01*
X77546904Y-63108571D01*
X77594523Y-63203809D01*
X77594523Y-63441904D01*
X77546904Y-63537142D01*
X77499285Y-63584761D01*
X77404047Y-63632380D01*
X77118333Y-63632380D01*
X77023095Y-63584761D01*
X76975476Y-63537142D01*
X77975476Y-62727619D02*
X78023095Y-62680000D01*
X78118333Y-62632380D01*
X78356428Y-62632380D01*
X78451666Y-62680000D01*
X78499285Y-62727619D01*
X78546904Y-62822857D01*
X78546904Y-62918095D01*
X78499285Y-63060952D01*
X77927857Y-63632380D01*
X78546904Y-63632380D01*
X76975476Y-65172380D02*
X77594523Y-65172380D01*
X77261190Y-65553333D01*
X77404047Y-65553333D01*
X77499285Y-65600952D01*
X77546904Y-65648571D01*
X77594523Y-65743809D01*
X77594523Y-65981904D01*
X77546904Y-66077142D01*
X77499285Y-66124761D01*
X77404047Y-66172380D01*
X77118333Y-66172380D01*
X77023095Y-66124761D01*
X76975476Y-66077142D01*
X78546904Y-66172380D02*
X77975476Y-66172380D01*
X78261190Y-66172380D02*
X78261190Y-65172380D01*
X78165952Y-65315238D01*
X78070714Y-65410476D01*
X77975476Y-65458095D01*
X76975476Y-67712380D02*
X77594523Y-67712380D01*
X77261190Y-68093333D01*
X77404047Y-68093333D01*
X77499285Y-68140952D01*
X77546904Y-68188571D01*
X77594523Y-68283809D01*
X77594523Y-68521904D01*
X77546904Y-68617142D01*
X77499285Y-68664761D01*
X77404047Y-68712380D01*
X77118333Y-68712380D01*
X77023095Y-68664761D01*
X76975476Y-68617142D01*
X78213571Y-67712380D02*
X78308809Y-67712380D01*
X78404047Y-67760000D01*
X78451666Y-67807619D01*
X78499285Y-67902857D01*
X78546904Y-68093333D01*
X78546904Y-68331428D01*
X78499285Y-68521904D01*
X78451666Y-68617142D01*
X78404047Y-68664761D01*
X78308809Y-68712380D01*
X78213571Y-68712380D01*
X78118333Y-68664761D01*
X78070714Y-68617142D01*
X78023095Y-68521904D01*
X77975476Y-68331428D01*
X77975476Y-68093333D01*
X78023095Y-67902857D01*
X78070714Y-67807619D01*
X78118333Y-67760000D01*
X78213571Y-67712380D01*
X77023095Y-70347619D02*
X77070714Y-70300000D01*
X77165952Y-70252380D01*
X77404047Y-70252380D01*
X77499285Y-70300000D01*
X77546904Y-70347619D01*
X77594523Y-70442857D01*
X77594523Y-70538095D01*
X77546904Y-70680952D01*
X76975476Y-71252380D01*
X77594523Y-71252380D01*
X78070714Y-71252380D02*
X78261190Y-71252380D01*
X78356428Y-71204761D01*
X78404047Y-71157142D01*
X78499285Y-71014285D01*
X78546904Y-70823809D01*
X78546904Y-70442857D01*
X78499285Y-70347619D01*
X78451666Y-70300000D01*
X78356428Y-70252380D01*
X78165952Y-70252380D01*
X78070714Y-70300000D01*
X78023095Y-70347619D01*
X77975476Y-70442857D01*
X77975476Y-70680952D01*
X78023095Y-70776190D01*
X78070714Y-70823809D01*
X78165952Y-70871428D01*
X78356428Y-70871428D01*
X78451666Y-70823809D01*
X78499285Y-70776190D01*
X78546904Y-70680952D01*
X77023095Y-72887619D02*
X77070714Y-72840000D01*
X77165952Y-72792380D01*
X77404047Y-72792380D01*
X77499285Y-72840000D01*
X77546904Y-72887619D01*
X77594523Y-72982857D01*
X77594523Y-73078095D01*
X77546904Y-73220952D01*
X76975476Y-73792380D01*
X77594523Y-73792380D01*
X78165952Y-73220952D02*
X78070714Y-73173333D01*
X78023095Y-73125714D01*
X77975476Y-73030476D01*
X77975476Y-72982857D01*
X78023095Y-72887619D01*
X78070714Y-72840000D01*
X78165952Y-72792380D01*
X78356428Y-72792380D01*
X78451666Y-72840000D01*
X78499285Y-72887619D01*
X78546904Y-72982857D01*
X78546904Y-73030476D01*
X78499285Y-73125714D01*
X78451666Y-73173333D01*
X78356428Y-73220952D01*
X78165952Y-73220952D01*
X78070714Y-73268571D01*
X78023095Y-73316190D01*
X77975476Y-73411428D01*
X77975476Y-73601904D01*
X78023095Y-73697142D01*
X78070714Y-73744761D01*
X78165952Y-73792380D01*
X78356428Y-73792380D01*
X78451666Y-73744761D01*
X78499285Y-73697142D01*
X78546904Y-73601904D01*
X78546904Y-73411428D01*
X78499285Y-73316190D01*
X78451666Y-73268571D01*
X78356428Y-73220952D01*
X77023095Y-75427619D02*
X77070714Y-75380000D01*
X77165952Y-75332380D01*
X77404047Y-75332380D01*
X77499285Y-75380000D01*
X77546904Y-75427619D01*
X77594523Y-75522857D01*
X77594523Y-75618095D01*
X77546904Y-75760952D01*
X76975476Y-76332380D01*
X77594523Y-76332380D01*
X77927857Y-75332380D02*
X78594523Y-75332380D01*
X78165952Y-76332380D01*
X77023095Y-77967619D02*
X77070714Y-77920000D01*
X77165952Y-77872380D01*
X77404047Y-77872380D01*
X77499285Y-77920000D01*
X77546904Y-77967619D01*
X77594523Y-78062857D01*
X77594523Y-78158095D01*
X77546904Y-78300952D01*
X76975476Y-78872380D01*
X77594523Y-78872380D01*
X78451666Y-77872380D02*
X78261190Y-77872380D01*
X78165952Y-77920000D01*
X78118333Y-77967619D01*
X78023095Y-78110476D01*
X77975476Y-78300952D01*
X77975476Y-78681904D01*
X78023095Y-78777142D01*
X78070714Y-78824761D01*
X78165952Y-78872380D01*
X78356428Y-78872380D01*
X78451666Y-78824761D01*
X78499285Y-78777142D01*
X78546904Y-78681904D01*
X78546904Y-78443809D01*
X78499285Y-78348571D01*
X78451666Y-78300952D01*
X78356428Y-78253333D01*
X78165952Y-78253333D01*
X78070714Y-78300952D01*
X78023095Y-78348571D01*
X77975476Y-78443809D01*
X77023095Y-80507619D02*
X77070714Y-80460000D01*
X77165952Y-80412380D01*
X77404047Y-80412380D01*
X77499285Y-80460000D01*
X77546904Y-80507619D01*
X77594523Y-80602857D01*
X77594523Y-80698095D01*
X77546904Y-80840952D01*
X76975476Y-81412380D01*
X77594523Y-81412380D01*
X78499285Y-80412380D02*
X78023095Y-80412380D01*
X77975476Y-80888571D01*
X78023095Y-80840952D01*
X78118333Y-80793333D01*
X78356428Y-80793333D01*
X78451666Y-80840952D01*
X78499285Y-80888571D01*
X78546904Y-80983809D01*
X78546904Y-81221904D01*
X78499285Y-81317142D01*
X78451666Y-81364761D01*
X78356428Y-81412380D01*
X78118333Y-81412380D01*
X78023095Y-81364761D01*
X77975476Y-81317142D01*
X77023095Y-83047619D02*
X77070714Y-83000000D01*
X77165952Y-82952380D01*
X77404047Y-82952380D01*
X77499285Y-83000000D01*
X77546904Y-83047619D01*
X77594523Y-83142857D01*
X77594523Y-83238095D01*
X77546904Y-83380952D01*
X76975476Y-83952380D01*
X77594523Y-83952380D01*
X78451666Y-83285714D02*
X78451666Y-83952380D01*
X78213571Y-82904761D02*
X77975476Y-83619047D01*
X78594523Y-83619047D01*
X77023095Y-85587619D02*
X77070714Y-85540000D01*
X77165952Y-85492380D01*
X77404047Y-85492380D01*
X77499285Y-85540000D01*
X77546904Y-85587619D01*
X77594523Y-85682857D01*
X77594523Y-85778095D01*
X77546904Y-85920952D01*
X76975476Y-86492380D01*
X77594523Y-86492380D01*
X77927857Y-85492380D02*
X78546904Y-85492380D01*
X78213571Y-85873333D01*
X78356428Y-85873333D01*
X78451666Y-85920952D01*
X78499285Y-85968571D01*
X78546904Y-86063809D01*
X78546904Y-86301904D01*
X78499285Y-86397142D01*
X78451666Y-86444761D01*
X78356428Y-86492380D01*
X78070714Y-86492380D01*
X77975476Y-86444761D01*
X77927857Y-86397142D01*
X22413095Y-85587619D02*
X22460714Y-85540000D01*
X22555952Y-85492380D01*
X22794047Y-85492380D01*
X22889285Y-85540000D01*
X22936904Y-85587619D01*
X22984523Y-85682857D01*
X22984523Y-85778095D01*
X22936904Y-85920952D01*
X22365476Y-86492380D01*
X22984523Y-86492380D01*
X23365476Y-85587619D02*
X23413095Y-85540000D01*
X23508333Y-85492380D01*
X23746428Y-85492380D01*
X23841666Y-85540000D01*
X23889285Y-85587619D01*
X23936904Y-85682857D01*
X23936904Y-85778095D01*
X23889285Y-85920952D01*
X23317857Y-86492380D01*
X23936904Y-86492380D01*
X22413095Y-83047619D02*
X22460714Y-83000000D01*
X22555952Y-82952380D01*
X22794047Y-82952380D01*
X22889285Y-83000000D01*
X22936904Y-83047619D01*
X22984523Y-83142857D01*
X22984523Y-83238095D01*
X22936904Y-83380952D01*
X22365476Y-83952380D01*
X22984523Y-83952380D01*
X23936904Y-83952380D02*
X23365476Y-83952380D01*
X23651190Y-83952380D02*
X23651190Y-82952380D01*
X23555952Y-83095238D01*
X23460714Y-83190476D01*
X23365476Y-83238095D01*
X22413095Y-80507619D02*
X22460714Y-80460000D01*
X22555952Y-80412380D01*
X22794047Y-80412380D01*
X22889285Y-80460000D01*
X22936904Y-80507619D01*
X22984523Y-80602857D01*
X22984523Y-80698095D01*
X22936904Y-80840952D01*
X22365476Y-81412380D01*
X22984523Y-81412380D01*
X23603571Y-80412380D02*
X23698809Y-80412380D01*
X23794047Y-80460000D01*
X23841666Y-80507619D01*
X23889285Y-80602857D01*
X23936904Y-80793333D01*
X23936904Y-81031428D01*
X23889285Y-81221904D01*
X23841666Y-81317142D01*
X23794047Y-81364761D01*
X23698809Y-81412380D01*
X23603571Y-81412380D01*
X23508333Y-81364761D01*
X23460714Y-81317142D01*
X23413095Y-81221904D01*
X23365476Y-81031428D01*
X23365476Y-80793333D01*
X23413095Y-80602857D01*
X23460714Y-80507619D01*
X23508333Y-80460000D01*
X23603571Y-80412380D01*
X22984523Y-78872380D02*
X22413095Y-78872380D01*
X22698809Y-78872380D02*
X22698809Y-77872380D01*
X22603571Y-78015238D01*
X22508333Y-78110476D01*
X22413095Y-78158095D01*
X23460714Y-78872380D02*
X23651190Y-78872380D01*
X23746428Y-78824761D01*
X23794047Y-78777142D01*
X23889285Y-78634285D01*
X23936904Y-78443809D01*
X23936904Y-78062857D01*
X23889285Y-77967619D01*
X23841666Y-77920000D01*
X23746428Y-77872380D01*
X23555952Y-77872380D01*
X23460714Y-77920000D01*
X23413095Y-77967619D01*
X23365476Y-78062857D01*
X23365476Y-78300952D01*
X23413095Y-78396190D01*
X23460714Y-78443809D01*
X23555952Y-78491428D01*
X23746428Y-78491428D01*
X23841666Y-78443809D01*
X23889285Y-78396190D01*
X23936904Y-78300952D01*
X22984523Y-76332380D02*
X22413095Y-76332380D01*
X22698809Y-76332380D02*
X22698809Y-75332380D01*
X22603571Y-75475238D01*
X22508333Y-75570476D01*
X22413095Y-75618095D01*
X23555952Y-75760952D02*
X23460714Y-75713333D01*
X23413095Y-75665714D01*
X23365476Y-75570476D01*
X23365476Y-75522857D01*
X23413095Y-75427619D01*
X23460714Y-75380000D01*
X23555952Y-75332380D01*
X23746428Y-75332380D01*
X23841666Y-75380000D01*
X23889285Y-75427619D01*
X23936904Y-75522857D01*
X23936904Y-75570476D01*
X23889285Y-75665714D01*
X23841666Y-75713333D01*
X23746428Y-75760952D01*
X23555952Y-75760952D01*
X23460714Y-75808571D01*
X23413095Y-75856190D01*
X23365476Y-75951428D01*
X23365476Y-76141904D01*
X23413095Y-76237142D01*
X23460714Y-76284761D01*
X23555952Y-76332380D01*
X23746428Y-76332380D01*
X23841666Y-76284761D01*
X23889285Y-76237142D01*
X23936904Y-76141904D01*
X23936904Y-75951428D01*
X23889285Y-75856190D01*
X23841666Y-75808571D01*
X23746428Y-75760952D01*
X22984523Y-73792380D02*
X22413095Y-73792380D01*
X22698809Y-73792380D02*
X22698809Y-72792380D01*
X22603571Y-72935238D01*
X22508333Y-73030476D01*
X22413095Y-73078095D01*
X23317857Y-72792380D02*
X23984523Y-72792380D01*
X23555952Y-73792380D01*
X22984523Y-71252380D02*
X22413095Y-71252380D01*
X22698809Y-71252380D02*
X22698809Y-70252380D01*
X22603571Y-70395238D01*
X22508333Y-70490476D01*
X22413095Y-70538095D01*
X23841666Y-70252380D02*
X23651190Y-70252380D01*
X23555952Y-70300000D01*
X23508333Y-70347619D01*
X23413095Y-70490476D01*
X23365476Y-70680952D01*
X23365476Y-71061904D01*
X23413095Y-71157142D01*
X23460714Y-71204761D01*
X23555952Y-71252380D01*
X23746428Y-71252380D01*
X23841666Y-71204761D01*
X23889285Y-71157142D01*
X23936904Y-71061904D01*
X23936904Y-70823809D01*
X23889285Y-70728571D01*
X23841666Y-70680952D01*
X23746428Y-70633333D01*
X23555952Y-70633333D01*
X23460714Y-70680952D01*
X23413095Y-70728571D01*
X23365476Y-70823809D01*
X22984523Y-68712380D02*
X22413095Y-68712380D01*
X22698809Y-68712380D02*
X22698809Y-67712380D01*
X22603571Y-67855238D01*
X22508333Y-67950476D01*
X22413095Y-67998095D01*
X23889285Y-67712380D02*
X23413095Y-67712380D01*
X23365476Y-68188571D01*
X23413095Y-68140952D01*
X23508333Y-68093333D01*
X23746428Y-68093333D01*
X23841666Y-68140952D01*
X23889285Y-68188571D01*
X23936904Y-68283809D01*
X23936904Y-68521904D01*
X23889285Y-68617142D01*
X23841666Y-68664761D01*
X23746428Y-68712380D01*
X23508333Y-68712380D01*
X23413095Y-68664761D01*
X23365476Y-68617142D01*
X22984523Y-66172380D02*
X22413095Y-66172380D01*
X22698809Y-66172380D02*
X22698809Y-65172380D01*
X22603571Y-65315238D01*
X22508333Y-65410476D01*
X22413095Y-65458095D01*
X23841666Y-65505714D02*
X23841666Y-66172380D01*
X23603571Y-65124761D02*
X23365476Y-65839047D01*
X23984523Y-65839047D01*
X22984523Y-63632380D02*
X22413095Y-63632380D01*
X22698809Y-63632380D02*
X22698809Y-62632380D01*
X22603571Y-62775238D01*
X22508333Y-62870476D01*
X22413095Y-62918095D01*
X23317857Y-62632380D02*
X23936904Y-62632380D01*
X23603571Y-63013333D01*
X23746428Y-63013333D01*
X23841666Y-63060952D01*
X23889285Y-63108571D01*
X23936904Y-63203809D01*
X23936904Y-63441904D01*
X23889285Y-63537142D01*
X23841666Y-63584761D01*
X23746428Y-63632380D01*
X23460714Y-63632380D01*
X23365476Y-63584761D01*
X23317857Y-63537142D01*
X22984523Y-61092380D02*
X22413095Y-61092380D01*
X22698809Y-61092380D02*
X22698809Y-60092380D01*
X22603571Y-60235238D01*
X22508333Y-60330476D01*
X22413095Y-60378095D01*
X23365476Y-60187619D02*
X23413095Y-60140000D01*
X23508333Y-60092380D01*
X23746428Y-60092380D01*
X23841666Y-60140000D01*
X23889285Y-60187619D01*
X23936904Y-60282857D01*
X23936904Y-60378095D01*
X23889285Y-60520952D01*
X23317857Y-61092380D01*
X23936904Y-61092380D01*
X22984523Y-58552380D02*
X22413095Y-58552380D01*
X22698809Y-58552380D02*
X22698809Y-57552380D01*
X22603571Y-57695238D01*
X22508333Y-57790476D01*
X22413095Y-57838095D01*
X23936904Y-58552380D02*
X23365476Y-58552380D01*
X23651190Y-58552380D02*
X23651190Y-57552380D01*
X23555952Y-57695238D01*
X23460714Y-57790476D01*
X23365476Y-57838095D01*
X22984523Y-56012380D02*
X22413095Y-56012380D01*
X22698809Y-56012380D02*
X22698809Y-55012380D01*
X22603571Y-55155238D01*
X22508333Y-55250476D01*
X22413095Y-55298095D01*
X23603571Y-55012380D02*
X23698809Y-55012380D01*
X23794047Y-55060000D01*
X23841666Y-55107619D01*
X23889285Y-55202857D01*
X23936904Y-55393333D01*
X23936904Y-55631428D01*
X23889285Y-55821904D01*
X23841666Y-55917142D01*
X23794047Y-55964761D01*
X23698809Y-56012380D01*
X23603571Y-56012380D01*
X23508333Y-55964761D01*
X23460714Y-55917142D01*
X23413095Y-55821904D01*
X23365476Y-55631428D01*
X23365476Y-55393333D01*
X23413095Y-55202857D01*
X23460714Y-55107619D01*
X23508333Y-55060000D01*
X23603571Y-55012380D01*
X22984523Y-53472380D02*
X23175000Y-53472380D01*
X23270238Y-53424761D01*
X23317857Y-53377142D01*
X23413095Y-53234285D01*
X23460714Y-53043809D01*
X23460714Y-52662857D01*
X23413095Y-52567619D01*
X23365476Y-52520000D01*
X23270238Y-52472380D01*
X23079761Y-52472380D01*
X22984523Y-52520000D01*
X22936904Y-52567619D01*
X22889285Y-52662857D01*
X22889285Y-52900952D01*
X22936904Y-52996190D01*
X22984523Y-53043809D01*
X23079761Y-53091428D01*
X23270238Y-53091428D01*
X23365476Y-53043809D01*
X23413095Y-52996190D01*
X23460714Y-52900952D01*
X23079761Y-50360952D02*
X22984523Y-50313333D01*
X22936904Y-50265714D01*
X22889285Y-50170476D01*
X22889285Y-50122857D01*
X22936904Y-50027619D01*
X22984523Y-49980000D01*
X23079761Y-49932380D01*
X23270238Y-49932380D01*
X23365476Y-49980000D01*
X23413095Y-50027619D01*
X23460714Y-50122857D01*
X23460714Y-50170476D01*
X23413095Y-50265714D01*
X23365476Y-50313333D01*
X23270238Y-50360952D01*
X23079761Y-50360952D01*
X22984523Y-50408571D01*
X22936904Y-50456190D01*
X22889285Y-50551428D01*
X22889285Y-50741904D01*
X22936904Y-50837142D01*
X22984523Y-50884761D01*
X23079761Y-50932380D01*
X23270238Y-50932380D01*
X23365476Y-50884761D01*
X23413095Y-50837142D01*
X23460714Y-50741904D01*
X23460714Y-50551428D01*
X23413095Y-50456190D01*
X23365476Y-50408571D01*
X23270238Y-50360952D01*
X22841666Y-47392380D02*
X23508333Y-47392380D01*
X23079761Y-48392380D01*
X23365476Y-44852380D02*
X23175000Y-44852380D01*
X23079761Y-44900000D01*
X23032142Y-44947619D01*
X22936904Y-45090476D01*
X22889285Y-45280952D01*
X22889285Y-45661904D01*
X22936904Y-45757142D01*
X22984523Y-45804761D01*
X23079761Y-45852380D01*
X23270238Y-45852380D01*
X23365476Y-45804761D01*
X23413095Y-45757142D01*
X23460714Y-45661904D01*
X23460714Y-45423809D01*
X23413095Y-45328571D01*
X23365476Y-45280952D01*
X23270238Y-45233333D01*
X23079761Y-45233333D01*
X22984523Y-45280952D01*
X22936904Y-45328571D01*
X22889285Y-45423809D01*
X23413095Y-42312380D02*
X22936904Y-42312380D01*
X22889285Y-42788571D01*
X22936904Y-42740952D01*
X23032142Y-42693333D01*
X23270238Y-42693333D01*
X23365476Y-42740952D01*
X23413095Y-42788571D01*
X23460714Y-42883809D01*
X23460714Y-43121904D01*
X23413095Y-43217142D01*
X23365476Y-43264761D01*
X23270238Y-43312380D01*
X23032142Y-43312380D01*
X22936904Y-43264761D01*
X22889285Y-43217142D01*
X23365476Y-40105714D02*
X23365476Y-40772380D01*
X23127380Y-39724761D02*
X22889285Y-40439047D01*
X23508333Y-40439047D01*
X22841666Y-37232380D02*
X23460714Y-37232380D01*
X23127380Y-37613333D01*
X23270238Y-37613333D01*
X23365476Y-37660952D01*
X23413095Y-37708571D01*
X23460714Y-37803809D01*
X23460714Y-38041904D01*
X23413095Y-38137142D01*
X23365476Y-38184761D01*
X23270238Y-38232380D01*
X22984523Y-38232380D01*
X22889285Y-38184761D01*
X22841666Y-38137142D01*
X22889285Y-34787619D02*
X22936904Y-34740000D01*
X23032142Y-34692380D01*
X23270238Y-34692380D01*
X23365476Y-34740000D01*
X23413095Y-34787619D01*
X23460714Y-34882857D01*
X23460714Y-34978095D01*
X23413095Y-35120952D01*
X22841666Y-35692380D01*
X23460714Y-35692380D01*
X23460714Y-33152380D02*
X22889285Y-33152380D01*
X23175000Y-33152380D02*
X23175000Y-32152380D01*
X23079761Y-32295238D01*
X22984523Y-32390476D01*
X22889285Y-32438095D01*
X77499285Y-32485714D02*
X77499285Y-33152380D01*
X77261190Y-32104761D02*
X77023095Y-32819047D01*
X77642142Y-32819047D01*
X78451666Y-32485714D02*
X78451666Y-33152380D01*
X78213571Y-32104761D02*
X77975476Y-32819047D01*
X78594523Y-32819047D01*
D11*
X60640000Y-95565000D02*
X60640000Y-94930000D01*
X58100000Y-95565000D02*
X60640000Y-95565000D01*
X58100000Y-94930000D02*
X58100000Y-95565000D01*
%TO.C,J1*%
X39820000Y-87800000D02*
X40320000Y-88300000D01*
X40820000Y-87800000D02*
X39820000Y-87800000D01*
X40320000Y-88300000D02*
X40820000Y-87800000D01*
X45180000Y-88500000D02*
X45180000Y-92250000D01*
X32960000Y-88500000D02*
X32960000Y-92250000D01*
X32960000Y-88500000D02*
X45180000Y-88500000D01*
%TO.C,R14*%
X32800000Y-77690000D02*
X32470000Y-77690000D01*
X32800000Y-84230000D02*
X32800000Y-77690000D01*
X32470000Y-84230000D02*
X32800000Y-84230000D01*
X30060000Y-77690000D02*
X30390000Y-77690000D01*
X30060000Y-84230000D02*
X30060000Y-77690000D01*
X30390000Y-84230000D02*
X30060000Y-84230000D01*
%TO.C,D8*%
X36220000Y-79500000D02*
X36220000Y-79656000D01*
X36220000Y-77184000D02*
X36220000Y-77340000D01*
X38821130Y-79499837D02*
G75*
G02*
X36739039Y-79500000I-1041130J1079837D01*
G01*
X38821130Y-77340163D02*
G75*
G03*
X36739039Y-77340000I-1041130J-1079837D01*
G01*
X39452335Y-79498608D02*
G75*
G02*
X36220000Y-79655516I-1672335J1078608D01*
G01*
X39452335Y-77341392D02*
G75*
G03*
X36220000Y-77184484I-1672335J-1078608D01*
G01*
%TO.C,J6*%
X44070000Y-84830000D02*
X44070000Y-83500000D01*
X45400000Y-84830000D02*
X44070000Y-84830000D01*
X44070000Y-82230000D02*
X44070000Y-79630000D01*
X46670000Y-82230000D02*
X44070000Y-82230000D01*
X46670000Y-84830000D02*
X46670000Y-82230000D01*
X44070000Y-79630000D02*
X51810000Y-79630000D01*
X46670000Y-84830000D02*
X51810000Y-84830000D01*
X51810000Y-84830000D02*
X51810000Y-79630000D01*
%TO.C,SW1*%
X56195000Y-35916667D02*
X57465000Y-35916667D01*
X57395000Y-37270000D02*
X57395000Y-35916667D01*
X57275000Y-37270000D02*
X57275000Y-35916667D01*
X57155000Y-37270000D02*
X57155000Y-35916667D01*
X57035000Y-37270000D02*
X57035000Y-35916667D01*
X56915000Y-37270000D02*
X56915000Y-35916667D01*
X56795000Y-37270000D02*
X56795000Y-35916667D01*
X56675000Y-37270000D02*
X56675000Y-35916667D01*
X56555000Y-37270000D02*
X56555000Y-35916667D01*
X56435000Y-37270000D02*
X56435000Y-35916667D01*
X56315000Y-37270000D02*
X56315000Y-35916667D01*
X56195000Y-33210000D02*
X56195000Y-37270000D01*
X57465000Y-33210000D02*
X56195000Y-33210000D01*
X57465000Y-37270000D02*
X57465000Y-33210000D01*
X56195000Y-37270000D02*
X57465000Y-37270000D01*
X53655000Y-35916667D02*
X54925000Y-35916667D01*
X54855000Y-37270000D02*
X54855000Y-35916667D01*
X54735000Y-37270000D02*
X54735000Y-35916667D01*
X54615000Y-37270000D02*
X54615000Y-35916667D01*
X54495000Y-37270000D02*
X54495000Y-35916667D01*
X54375000Y-37270000D02*
X54375000Y-35916667D01*
X54255000Y-37270000D02*
X54255000Y-35916667D01*
X54135000Y-37270000D02*
X54135000Y-35916667D01*
X54015000Y-37270000D02*
X54015000Y-35916667D01*
X53895000Y-37270000D02*
X53895000Y-35916667D01*
X53775000Y-37270000D02*
X53775000Y-35916667D01*
X53655000Y-33210000D02*
X53655000Y-37270000D01*
X54925000Y-33210000D02*
X53655000Y-33210000D01*
X54925000Y-37270000D02*
X54925000Y-33210000D01*
X53655000Y-37270000D02*
X54925000Y-37270000D01*
X51115000Y-35916667D02*
X52385000Y-35916667D01*
X52315000Y-37270000D02*
X52315000Y-35916667D01*
X52195000Y-37270000D02*
X52195000Y-35916667D01*
X52075000Y-37270000D02*
X52075000Y-35916667D01*
X51955000Y-37270000D02*
X51955000Y-35916667D01*
X51835000Y-37270000D02*
X51835000Y-35916667D01*
X51715000Y-37270000D02*
X51715000Y-35916667D01*
X51595000Y-37270000D02*
X51595000Y-35916667D01*
X51475000Y-37270000D02*
X51475000Y-35916667D01*
X51355000Y-37270000D02*
X51355000Y-35916667D01*
X51235000Y-37270000D02*
X51235000Y-35916667D01*
X51115000Y-33210000D02*
X51115000Y-37270000D01*
X52385000Y-33210000D02*
X51115000Y-33210000D01*
X52385000Y-37270000D02*
X52385000Y-33210000D01*
X51115000Y-37270000D02*
X52385000Y-37270000D01*
X48575000Y-35916667D02*
X49845000Y-35916667D01*
X49775000Y-37270000D02*
X49775000Y-35916667D01*
X49655000Y-37270000D02*
X49655000Y-35916667D01*
X49535000Y-37270000D02*
X49535000Y-35916667D01*
X49415000Y-37270000D02*
X49415000Y-35916667D01*
X49295000Y-37270000D02*
X49295000Y-35916667D01*
X49175000Y-37270000D02*
X49175000Y-35916667D01*
X49055000Y-37270000D02*
X49055000Y-35916667D01*
X48935000Y-37270000D02*
X48935000Y-35916667D01*
X48815000Y-37270000D02*
X48815000Y-35916667D01*
X48695000Y-37270000D02*
X48695000Y-35916667D01*
X48575000Y-33210000D02*
X48575000Y-37270000D01*
X49845000Y-33210000D02*
X48575000Y-33210000D01*
X49845000Y-37270000D02*
X49845000Y-33210000D01*
X48575000Y-37270000D02*
X49845000Y-37270000D01*
X46035000Y-35916667D02*
X47305000Y-35916667D01*
X47235000Y-37270000D02*
X47235000Y-35916667D01*
X47115000Y-37270000D02*
X47115000Y-35916667D01*
X46995000Y-37270000D02*
X46995000Y-35916667D01*
X46875000Y-37270000D02*
X46875000Y-35916667D01*
X46755000Y-37270000D02*
X46755000Y-35916667D01*
X46635000Y-37270000D02*
X46635000Y-35916667D01*
X46515000Y-37270000D02*
X46515000Y-35916667D01*
X46395000Y-37270000D02*
X46395000Y-35916667D01*
X46275000Y-37270000D02*
X46275000Y-35916667D01*
X46155000Y-37270000D02*
X46155000Y-35916667D01*
X46035000Y-33210000D02*
X46035000Y-37270000D01*
X47305000Y-33210000D02*
X46035000Y-33210000D01*
X47305000Y-37270000D02*
X47305000Y-33210000D01*
X46035000Y-37270000D02*
X47305000Y-37270000D01*
X43495000Y-35916667D02*
X44765000Y-35916667D01*
X44695000Y-37270000D02*
X44695000Y-35916667D01*
X44575000Y-37270000D02*
X44575000Y-35916667D01*
X44455000Y-37270000D02*
X44455000Y-35916667D01*
X44335000Y-37270000D02*
X44335000Y-35916667D01*
X44215000Y-37270000D02*
X44215000Y-35916667D01*
X44095000Y-37270000D02*
X44095000Y-35916667D01*
X43975000Y-37270000D02*
X43975000Y-35916667D01*
X43855000Y-37270000D02*
X43855000Y-35916667D01*
X43735000Y-37270000D02*
X43735000Y-35916667D01*
X43615000Y-37270000D02*
X43615000Y-35916667D01*
X43495000Y-33210000D02*
X43495000Y-37270000D01*
X44765000Y-33210000D02*
X43495000Y-33210000D01*
X44765000Y-37270000D02*
X44765000Y-33210000D01*
X43495000Y-37270000D02*
X44765000Y-37270000D01*
X41470000Y-40430000D02*
X42853000Y-40430000D01*
X41470000Y-40430000D02*
X41470000Y-39046000D01*
X41710000Y-30290000D02*
X59250000Y-30290000D01*
X41710000Y-40190000D02*
X59250000Y-40190000D01*
X59250000Y-40190000D02*
X59250000Y-30290000D01*
X41710000Y-40190000D02*
X41710000Y-30290000D01*
%TO.C,SW5*%
X31030000Y-24620000D02*
X31030000Y-26120000D01*
X32280000Y-28620000D02*
X36780000Y-28620000D01*
X38030000Y-26120000D02*
X38030000Y-24620000D01*
X36780000Y-22120000D02*
X32280000Y-22120000D01*
%TO.C,SW4*%
X62780000Y-24620000D02*
X62780000Y-26120000D01*
X64030000Y-28620000D02*
X68530000Y-28620000D01*
X69780000Y-26120000D02*
X69780000Y-24620000D01*
X68530000Y-22120000D02*
X64030000Y-22120000D01*
%TO.C,R16*%
X39150000Y-31970000D02*
X38820000Y-31970000D01*
X39150000Y-38510000D02*
X39150000Y-31970000D01*
X38820000Y-38510000D02*
X39150000Y-38510000D01*
X36410000Y-31970000D02*
X36740000Y-31970000D01*
X36410000Y-38510000D02*
X36410000Y-31970000D01*
X36740000Y-38510000D02*
X36410000Y-38510000D01*
%TO.C,R15*%
X64550000Y-31970000D02*
X64220000Y-31970000D01*
X64550000Y-38510000D02*
X64550000Y-31970000D01*
X64220000Y-38510000D02*
X64550000Y-38510000D01*
X61810000Y-31970000D02*
X62140000Y-31970000D01*
X61810000Y-38510000D02*
X61810000Y-31970000D01*
X62140000Y-38510000D02*
X61810000Y-38510000D01*
%TO.C,R13*%
X65620000Y-38510000D02*
X65950000Y-38510000D01*
X65620000Y-31970000D02*
X65620000Y-38510000D01*
X65950000Y-31970000D02*
X65620000Y-31970000D01*
X68360000Y-38510000D02*
X68030000Y-38510000D01*
X68360000Y-31970000D02*
X68360000Y-38510000D01*
X68030000Y-31970000D02*
X68360000Y-31970000D01*
%TO.C,R12*%
X32600000Y-38510000D02*
X32930000Y-38510000D01*
X32600000Y-31970000D02*
X32600000Y-38510000D01*
X32930000Y-31970000D02*
X32600000Y-31970000D01*
X35340000Y-38510000D02*
X35010000Y-38510000D01*
X35340000Y-31970000D02*
X35340000Y-38510000D01*
X35010000Y-31970000D02*
X35340000Y-31970000D01*
%TO.C,R5*%
X48670000Y-23910000D02*
X48670000Y-23580000D01*
X42130000Y-23910000D02*
X48670000Y-23910000D01*
X42130000Y-23580000D02*
X42130000Y-23910000D01*
X48670000Y-21170000D02*
X48670000Y-21500000D01*
X42130000Y-21170000D02*
X48670000Y-21170000D01*
X42130000Y-21500000D02*
X42130000Y-21170000D01*
%TO.C,R4*%
X52290000Y-21170000D02*
X52290000Y-21500000D01*
X58830000Y-21170000D02*
X52290000Y-21170000D01*
X58830000Y-21500000D02*
X58830000Y-21170000D01*
X52290000Y-23910000D02*
X52290000Y-23580000D01*
X58830000Y-23910000D02*
X52290000Y-23910000D01*
X58830000Y-23580000D02*
X58830000Y-23910000D01*
%TO.C,R3*%
X56100000Y-77050000D02*
X56100000Y-77380000D01*
X62640000Y-77050000D02*
X56100000Y-77050000D01*
X62640000Y-77380000D02*
X62640000Y-77050000D01*
X56100000Y-79790000D02*
X56100000Y-79460000D01*
X62640000Y-79790000D02*
X56100000Y-79790000D01*
X62640000Y-79460000D02*
X62640000Y-79790000D01*
%TO.C,R2*%
X62640000Y-83600000D02*
X62640000Y-83270000D01*
X56100000Y-83600000D02*
X62640000Y-83600000D01*
X56100000Y-83270000D02*
X56100000Y-83600000D01*
X62640000Y-80860000D02*
X62640000Y-81190000D01*
X56100000Y-80860000D02*
X62640000Y-80860000D01*
X56100000Y-81190000D02*
X56100000Y-80860000D01*
%TO.C,R1*%
X62640000Y-87410000D02*
X62640000Y-87080000D01*
X56100000Y-87410000D02*
X62640000Y-87410000D01*
X56100000Y-87080000D02*
X56100000Y-87410000D01*
X62640000Y-84670000D02*
X62640000Y-85000000D01*
X56100000Y-84670000D02*
X62640000Y-84670000D01*
X56100000Y-85000000D02*
X56100000Y-84670000D01*
%TO.C,J4*%
X52960000Y-94990000D02*
X52960000Y-93660000D01*
X54290000Y-94990000D02*
X52960000Y-94990000D01*
X52960000Y-92390000D02*
X52960000Y-89790000D01*
X55560000Y-92390000D02*
X52960000Y-92390000D01*
X55560000Y-94990000D02*
X55560000Y-92390000D01*
X52960000Y-89790000D02*
X65780000Y-89790000D01*
X55560000Y-94990000D02*
X65780000Y-94990000D01*
X65780000Y-94990000D02*
X65780000Y-89790000D01*
%TO.C,J2*%
X35180000Y-84830000D02*
X35180000Y-83500000D01*
X36510000Y-84830000D02*
X35180000Y-84830000D01*
X37780000Y-84830000D02*
X37780000Y-82170000D01*
X37780000Y-82170000D02*
X40380000Y-82170000D01*
X37780000Y-84830000D02*
X40380000Y-84830000D01*
X40380000Y-84830000D02*
X40380000Y-82170000D01*
%TO.C,D1*%
X46860000Y-25425000D02*
X46704000Y-25425000D01*
X49176000Y-25425000D02*
X49020000Y-25425000D01*
X46860163Y-28026130D02*
G75*
G02*
X46860000Y-25944039I1079837J1041130D01*
G01*
X49019837Y-28026130D02*
G75*
G03*
X49020000Y-25944039I-1079837J1041130D01*
G01*
X46861392Y-28657335D02*
G75*
G02*
X46704484Y-25425000I1078608J1672335D01*
G01*
X49018608Y-28657335D02*
G75*
G03*
X49175516Y-25425000I-1078608J1672335D01*
G01*
%TO.C,D0*%
X51940000Y-25425000D02*
X51784000Y-25425000D01*
X54256000Y-25425000D02*
X54100000Y-25425000D01*
X51940163Y-28026130D02*
G75*
G02*
X51940000Y-25944039I1079837J1041130D01*
G01*
X54099837Y-28026130D02*
G75*
G03*
X54100000Y-25944039I-1079837J1041130D01*
G01*
X51941392Y-28657335D02*
G75*
G02*
X51784484Y-25425000I1078608J1672335D01*
G01*
X54098608Y-28657335D02*
G75*
G03*
X54255516Y-25425000I-1078608J1672335D01*
G01*
%TO.C,C4*%
X50935000Y-72035225D02*
X50435000Y-72035225D01*
X50685000Y-71785225D02*
X50685000Y-72285225D01*
X49494000Y-77191000D02*
X48926000Y-77191000D01*
X49728000Y-77151000D02*
X48692000Y-77151000D01*
X49887000Y-77111000D02*
X48533000Y-77111000D01*
X50015000Y-77071000D02*
X48405000Y-77071000D01*
X50125000Y-77031000D02*
X48295000Y-77031000D01*
X50221000Y-76991000D02*
X48199000Y-76991000D01*
X50308000Y-76951000D02*
X48112000Y-76951000D01*
X50388000Y-76911000D02*
X48032000Y-76911000D01*
X48170000Y-76871000D02*
X47959000Y-76871000D01*
X50461000Y-76871000D02*
X50250000Y-76871000D01*
X48170000Y-76831000D02*
X47891000Y-76831000D01*
X50529000Y-76831000D02*
X50250000Y-76831000D01*
X48170000Y-76791000D02*
X47827000Y-76791000D01*
X50593000Y-76791000D02*
X50250000Y-76791000D01*
X48170000Y-76751000D02*
X47767000Y-76751000D01*
X50653000Y-76751000D02*
X50250000Y-76751000D01*
X48170000Y-76711000D02*
X47710000Y-76711000D01*
X50710000Y-76711000D02*
X50250000Y-76711000D01*
X48170000Y-76671000D02*
X47656000Y-76671000D01*
X50764000Y-76671000D02*
X50250000Y-76671000D01*
X48170000Y-76631000D02*
X47605000Y-76631000D01*
X50815000Y-76631000D02*
X50250000Y-76631000D01*
X48170000Y-76591000D02*
X47557000Y-76591000D01*
X50863000Y-76591000D02*
X50250000Y-76591000D01*
X48170000Y-76551000D02*
X47511000Y-76551000D01*
X50909000Y-76551000D02*
X50250000Y-76551000D01*
X48170000Y-76511000D02*
X47467000Y-76511000D01*
X50953000Y-76511000D02*
X50250000Y-76511000D01*
X48170000Y-76471000D02*
X47425000Y-76471000D01*
X50995000Y-76471000D02*
X50250000Y-76471000D01*
X48170000Y-76431000D02*
X47384000Y-76431000D01*
X51036000Y-76431000D02*
X50250000Y-76431000D01*
X48170000Y-76391000D02*
X47346000Y-76391000D01*
X51074000Y-76391000D02*
X50250000Y-76391000D01*
X48170000Y-76351000D02*
X47309000Y-76351000D01*
X51111000Y-76351000D02*
X50250000Y-76351000D01*
X48170000Y-76311000D02*
X47273000Y-76311000D01*
X51147000Y-76311000D02*
X50250000Y-76311000D01*
X48170000Y-76271000D02*
X47239000Y-76271000D01*
X51181000Y-76271000D02*
X50250000Y-76271000D01*
X48170000Y-76231000D02*
X47206000Y-76231000D01*
X51214000Y-76231000D02*
X50250000Y-76231000D01*
X48170000Y-76191000D02*
X47175000Y-76191000D01*
X51245000Y-76191000D02*
X50250000Y-76191000D01*
X48170000Y-76151000D02*
X47145000Y-76151000D01*
X51275000Y-76151000D02*
X50250000Y-76151000D01*
X48170000Y-76111000D02*
X47115000Y-76111000D01*
X51305000Y-76111000D02*
X50250000Y-76111000D01*
X48170000Y-76071000D02*
X47088000Y-76071000D01*
X51332000Y-76071000D02*
X50250000Y-76071000D01*
X48170000Y-76031000D02*
X47061000Y-76031000D01*
X51359000Y-76031000D02*
X50250000Y-76031000D01*
X48170000Y-75991000D02*
X47035000Y-75991000D01*
X51385000Y-75991000D02*
X50250000Y-75991000D01*
X48170000Y-75951000D02*
X47010000Y-75951000D01*
X51410000Y-75951000D02*
X50250000Y-75951000D01*
X48170000Y-75911000D02*
X46986000Y-75911000D01*
X51434000Y-75911000D02*
X50250000Y-75911000D01*
X48170000Y-75871000D02*
X46963000Y-75871000D01*
X51457000Y-75871000D02*
X50250000Y-75871000D01*
X48170000Y-75831000D02*
X46942000Y-75831000D01*
X51478000Y-75831000D02*
X50250000Y-75831000D01*
X48170000Y-75791000D02*
X46920000Y-75791000D01*
X51500000Y-75791000D02*
X50250000Y-75791000D01*
X48170000Y-75751000D02*
X46900000Y-75751000D01*
X51520000Y-75751000D02*
X50250000Y-75751000D01*
X48170000Y-75711000D02*
X46881000Y-75711000D01*
X51539000Y-75711000D02*
X50250000Y-75711000D01*
X48170000Y-75671000D02*
X46862000Y-75671000D01*
X51558000Y-75671000D02*
X50250000Y-75671000D01*
X48170000Y-75631000D02*
X46845000Y-75631000D01*
X51575000Y-75631000D02*
X50250000Y-75631000D01*
X48170000Y-75591000D02*
X46828000Y-75591000D01*
X51592000Y-75591000D02*
X50250000Y-75591000D01*
X48170000Y-75551000D02*
X46812000Y-75551000D01*
X51608000Y-75551000D02*
X50250000Y-75551000D01*
X48170000Y-75511000D02*
X46796000Y-75511000D01*
X51624000Y-75511000D02*
X50250000Y-75511000D01*
X48170000Y-75471000D02*
X46782000Y-75471000D01*
X51638000Y-75471000D02*
X50250000Y-75471000D01*
X48170000Y-75431000D02*
X46768000Y-75431000D01*
X51652000Y-75431000D02*
X50250000Y-75431000D01*
X48170000Y-75391000D02*
X46755000Y-75391000D01*
X51665000Y-75391000D02*
X50250000Y-75391000D01*
X48170000Y-75351000D02*
X46742000Y-75351000D01*
X51678000Y-75351000D02*
X50250000Y-75351000D01*
X48170000Y-75311000D02*
X46730000Y-75311000D01*
X51690000Y-75311000D02*
X50250000Y-75311000D01*
X48170000Y-75270000D02*
X46719000Y-75270000D01*
X51701000Y-75270000D02*
X50250000Y-75270000D01*
X48170000Y-75230000D02*
X46709000Y-75230000D01*
X51711000Y-75230000D02*
X50250000Y-75230000D01*
X48170000Y-75190000D02*
X46699000Y-75190000D01*
X51721000Y-75190000D02*
X50250000Y-75190000D01*
X48170000Y-75150000D02*
X46690000Y-75150000D01*
X51730000Y-75150000D02*
X50250000Y-75150000D01*
X48170000Y-75110000D02*
X46682000Y-75110000D01*
X51738000Y-75110000D02*
X50250000Y-75110000D01*
X48170000Y-75070000D02*
X46674000Y-75070000D01*
X51746000Y-75070000D02*
X50250000Y-75070000D01*
X48170000Y-75030000D02*
X46667000Y-75030000D01*
X51753000Y-75030000D02*
X50250000Y-75030000D01*
X48170000Y-74990000D02*
X46660000Y-74990000D01*
X51760000Y-74990000D02*
X50250000Y-74990000D01*
X48170000Y-74950000D02*
X46654000Y-74950000D01*
X51766000Y-74950000D02*
X50250000Y-74950000D01*
X48170000Y-74910000D02*
X46649000Y-74910000D01*
X51771000Y-74910000D02*
X50250000Y-74910000D01*
X48170000Y-74870000D02*
X46645000Y-74870000D01*
X51775000Y-74870000D02*
X50250000Y-74870000D01*
X48170000Y-74830000D02*
X46641000Y-74830000D01*
X51779000Y-74830000D02*
X50250000Y-74830000D01*
X51783000Y-74790000D02*
X46637000Y-74790000D01*
X51786000Y-74750000D02*
X46634000Y-74750000D01*
X51788000Y-74710000D02*
X46632000Y-74710000D01*
X51789000Y-74670000D02*
X46631000Y-74670000D01*
X51790000Y-74630000D02*
X46630000Y-74630000D01*
X51790000Y-74590000D02*
X46630000Y-74590000D01*
X51830000Y-74590000D02*
G75*
G03*
X51830000Y-74590000I-2620000J0D01*
G01*
%TO.C,C3*%
X63145225Y-56375000D02*
X63145225Y-56875000D01*
X62895225Y-56625000D02*
X63395225Y-56625000D01*
X68301000Y-57816000D02*
X68301000Y-58384000D01*
X68261000Y-57582000D02*
X68261000Y-58618000D01*
X68221000Y-57423000D02*
X68221000Y-58777000D01*
X68181000Y-57295000D02*
X68181000Y-58905000D01*
X68141000Y-57185000D02*
X68141000Y-59015000D01*
X68101000Y-57089000D02*
X68101000Y-59111000D01*
X68061000Y-57002000D02*
X68061000Y-59198000D01*
X68021000Y-56922000D02*
X68021000Y-59278000D01*
X67981000Y-59140000D02*
X67981000Y-59351000D01*
X67981000Y-56849000D02*
X67981000Y-57060000D01*
X67941000Y-59140000D02*
X67941000Y-59419000D01*
X67941000Y-56781000D02*
X67941000Y-57060000D01*
X67901000Y-59140000D02*
X67901000Y-59483000D01*
X67901000Y-56717000D02*
X67901000Y-57060000D01*
X67861000Y-59140000D02*
X67861000Y-59543000D01*
X67861000Y-56657000D02*
X67861000Y-57060000D01*
X67821000Y-59140000D02*
X67821000Y-59600000D01*
X67821000Y-56600000D02*
X67821000Y-57060000D01*
X67781000Y-59140000D02*
X67781000Y-59654000D01*
X67781000Y-56546000D02*
X67781000Y-57060000D01*
X67741000Y-59140000D02*
X67741000Y-59705000D01*
X67741000Y-56495000D02*
X67741000Y-57060000D01*
X67701000Y-59140000D02*
X67701000Y-59753000D01*
X67701000Y-56447000D02*
X67701000Y-57060000D01*
X67661000Y-59140000D02*
X67661000Y-59799000D01*
X67661000Y-56401000D02*
X67661000Y-57060000D01*
X67621000Y-59140000D02*
X67621000Y-59843000D01*
X67621000Y-56357000D02*
X67621000Y-57060000D01*
X67581000Y-59140000D02*
X67581000Y-59885000D01*
X67581000Y-56315000D02*
X67581000Y-57060000D01*
X67541000Y-59140000D02*
X67541000Y-59926000D01*
X67541000Y-56274000D02*
X67541000Y-57060000D01*
X67501000Y-59140000D02*
X67501000Y-59964000D01*
X67501000Y-56236000D02*
X67501000Y-57060000D01*
X67461000Y-59140000D02*
X67461000Y-60001000D01*
X67461000Y-56199000D02*
X67461000Y-57060000D01*
X67421000Y-59140000D02*
X67421000Y-60037000D01*
X67421000Y-56163000D02*
X67421000Y-57060000D01*
X67381000Y-59140000D02*
X67381000Y-60071000D01*
X67381000Y-56129000D02*
X67381000Y-57060000D01*
X67341000Y-59140000D02*
X67341000Y-60104000D01*
X67341000Y-56096000D02*
X67341000Y-57060000D01*
X67301000Y-59140000D02*
X67301000Y-60135000D01*
X67301000Y-56065000D02*
X67301000Y-57060000D01*
X67261000Y-59140000D02*
X67261000Y-60165000D01*
X67261000Y-56035000D02*
X67261000Y-57060000D01*
X67221000Y-59140000D02*
X67221000Y-60195000D01*
X67221000Y-56005000D02*
X67221000Y-57060000D01*
X67181000Y-59140000D02*
X67181000Y-60222000D01*
X67181000Y-55978000D02*
X67181000Y-57060000D01*
X67141000Y-59140000D02*
X67141000Y-60249000D01*
X67141000Y-55951000D02*
X67141000Y-57060000D01*
X67101000Y-59140000D02*
X67101000Y-60275000D01*
X67101000Y-55925000D02*
X67101000Y-57060000D01*
X67061000Y-59140000D02*
X67061000Y-60300000D01*
X67061000Y-55900000D02*
X67061000Y-57060000D01*
X67021000Y-59140000D02*
X67021000Y-60324000D01*
X67021000Y-55876000D02*
X67021000Y-57060000D01*
X66981000Y-59140000D02*
X66981000Y-60347000D01*
X66981000Y-55853000D02*
X66981000Y-57060000D01*
X66941000Y-59140000D02*
X66941000Y-60368000D01*
X66941000Y-55832000D02*
X66941000Y-57060000D01*
X66901000Y-59140000D02*
X66901000Y-60390000D01*
X66901000Y-55810000D02*
X66901000Y-57060000D01*
X66861000Y-59140000D02*
X66861000Y-60410000D01*
X66861000Y-55790000D02*
X66861000Y-57060000D01*
X66821000Y-59140000D02*
X66821000Y-60429000D01*
X66821000Y-55771000D02*
X66821000Y-57060000D01*
X66781000Y-59140000D02*
X66781000Y-60448000D01*
X66781000Y-55752000D02*
X66781000Y-57060000D01*
X66741000Y-59140000D02*
X66741000Y-60465000D01*
X66741000Y-55735000D02*
X66741000Y-57060000D01*
X66701000Y-59140000D02*
X66701000Y-60482000D01*
X66701000Y-55718000D02*
X66701000Y-57060000D01*
X66661000Y-59140000D02*
X66661000Y-60498000D01*
X66661000Y-55702000D02*
X66661000Y-57060000D01*
X66621000Y-59140000D02*
X66621000Y-60514000D01*
X66621000Y-55686000D02*
X66621000Y-57060000D01*
X66581000Y-59140000D02*
X66581000Y-60528000D01*
X66581000Y-55672000D02*
X66581000Y-57060000D01*
X66541000Y-59140000D02*
X66541000Y-60542000D01*
X66541000Y-55658000D02*
X66541000Y-57060000D01*
X66501000Y-59140000D02*
X66501000Y-60555000D01*
X66501000Y-55645000D02*
X66501000Y-57060000D01*
X66461000Y-59140000D02*
X66461000Y-60568000D01*
X66461000Y-55632000D02*
X66461000Y-57060000D01*
X66421000Y-59140000D02*
X66421000Y-60580000D01*
X66421000Y-55620000D02*
X66421000Y-57060000D01*
X66380000Y-59140000D02*
X66380000Y-60591000D01*
X66380000Y-55609000D02*
X66380000Y-57060000D01*
X66340000Y-59140000D02*
X66340000Y-60601000D01*
X66340000Y-55599000D02*
X66340000Y-57060000D01*
X66300000Y-59140000D02*
X66300000Y-60611000D01*
X66300000Y-55589000D02*
X66300000Y-57060000D01*
X66260000Y-59140000D02*
X66260000Y-60620000D01*
X66260000Y-55580000D02*
X66260000Y-57060000D01*
X66220000Y-59140000D02*
X66220000Y-60628000D01*
X66220000Y-55572000D02*
X66220000Y-57060000D01*
X66180000Y-59140000D02*
X66180000Y-60636000D01*
X66180000Y-55564000D02*
X66180000Y-57060000D01*
X66140000Y-59140000D02*
X66140000Y-60643000D01*
X66140000Y-55557000D02*
X66140000Y-57060000D01*
X66100000Y-59140000D02*
X66100000Y-60650000D01*
X66100000Y-55550000D02*
X66100000Y-57060000D01*
X66060000Y-59140000D02*
X66060000Y-60656000D01*
X66060000Y-55544000D02*
X66060000Y-57060000D01*
X66020000Y-59140000D02*
X66020000Y-60661000D01*
X66020000Y-55539000D02*
X66020000Y-57060000D01*
X65980000Y-59140000D02*
X65980000Y-60665000D01*
X65980000Y-55535000D02*
X65980000Y-57060000D01*
X65940000Y-59140000D02*
X65940000Y-60669000D01*
X65940000Y-55531000D02*
X65940000Y-57060000D01*
X65900000Y-55527000D02*
X65900000Y-60673000D01*
X65860000Y-55524000D02*
X65860000Y-60676000D01*
X65820000Y-55522000D02*
X65820000Y-60678000D01*
X65780000Y-55521000D02*
X65780000Y-60679000D01*
X65740000Y-55520000D02*
X65740000Y-60680000D01*
X65700000Y-55520000D02*
X65700000Y-60680000D01*
X68320000Y-58100000D02*
G75*
G03*
X68320000Y-58100000I-2620000J0D01*
G01*
%TO.C,C2*%
X37814775Y-64905000D02*
X37814775Y-64405000D01*
X38064775Y-64655000D02*
X37564775Y-64655000D01*
X32659000Y-63464000D02*
X32659000Y-62896000D01*
X32699000Y-63698000D02*
X32699000Y-62662000D01*
X32739000Y-63857000D02*
X32739000Y-62503000D01*
X32779000Y-63985000D02*
X32779000Y-62375000D01*
X32819000Y-64095000D02*
X32819000Y-62265000D01*
X32859000Y-64191000D02*
X32859000Y-62169000D01*
X32899000Y-64278000D02*
X32899000Y-62082000D01*
X32939000Y-64358000D02*
X32939000Y-62002000D01*
X32979000Y-62140000D02*
X32979000Y-61929000D01*
X32979000Y-64431000D02*
X32979000Y-64220000D01*
X33019000Y-62140000D02*
X33019000Y-61861000D01*
X33019000Y-64499000D02*
X33019000Y-64220000D01*
X33059000Y-62140000D02*
X33059000Y-61797000D01*
X33059000Y-64563000D02*
X33059000Y-64220000D01*
X33099000Y-62140000D02*
X33099000Y-61737000D01*
X33099000Y-64623000D02*
X33099000Y-64220000D01*
X33139000Y-62140000D02*
X33139000Y-61680000D01*
X33139000Y-64680000D02*
X33139000Y-64220000D01*
X33179000Y-62140000D02*
X33179000Y-61626000D01*
X33179000Y-64734000D02*
X33179000Y-64220000D01*
X33219000Y-62140000D02*
X33219000Y-61575000D01*
X33219000Y-64785000D02*
X33219000Y-64220000D01*
X33259000Y-62140000D02*
X33259000Y-61527000D01*
X33259000Y-64833000D02*
X33259000Y-64220000D01*
X33299000Y-62140000D02*
X33299000Y-61481000D01*
X33299000Y-64879000D02*
X33299000Y-64220000D01*
X33339000Y-62140000D02*
X33339000Y-61437000D01*
X33339000Y-64923000D02*
X33339000Y-64220000D01*
X33379000Y-62140000D02*
X33379000Y-61395000D01*
X33379000Y-64965000D02*
X33379000Y-64220000D01*
X33419000Y-62140000D02*
X33419000Y-61354000D01*
X33419000Y-65006000D02*
X33419000Y-64220000D01*
X33459000Y-62140000D02*
X33459000Y-61316000D01*
X33459000Y-65044000D02*
X33459000Y-64220000D01*
X33499000Y-62140000D02*
X33499000Y-61279000D01*
X33499000Y-65081000D02*
X33499000Y-64220000D01*
X33539000Y-62140000D02*
X33539000Y-61243000D01*
X33539000Y-65117000D02*
X33539000Y-64220000D01*
X33579000Y-62140000D02*
X33579000Y-61209000D01*
X33579000Y-65151000D02*
X33579000Y-64220000D01*
X33619000Y-62140000D02*
X33619000Y-61176000D01*
X33619000Y-65184000D02*
X33619000Y-64220000D01*
X33659000Y-62140000D02*
X33659000Y-61145000D01*
X33659000Y-65215000D02*
X33659000Y-64220000D01*
X33699000Y-62140000D02*
X33699000Y-61115000D01*
X33699000Y-65245000D02*
X33699000Y-64220000D01*
X33739000Y-62140000D02*
X33739000Y-61085000D01*
X33739000Y-65275000D02*
X33739000Y-64220000D01*
X33779000Y-62140000D02*
X33779000Y-61058000D01*
X33779000Y-65302000D02*
X33779000Y-64220000D01*
X33819000Y-62140000D02*
X33819000Y-61031000D01*
X33819000Y-65329000D02*
X33819000Y-64220000D01*
X33859000Y-62140000D02*
X33859000Y-61005000D01*
X33859000Y-65355000D02*
X33859000Y-64220000D01*
X33899000Y-62140000D02*
X33899000Y-60980000D01*
X33899000Y-65380000D02*
X33899000Y-64220000D01*
X33939000Y-62140000D02*
X33939000Y-60956000D01*
X33939000Y-65404000D02*
X33939000Y-64220000D01*
X33979000Y-62140000D02*
X33979000Y-60933000D01*
X33979000Y-65427000D02*
X33979000Y-64220000D01*
X34019000Y-62140000D02*
X34019000Y-60912000D01*
X34019000Y-65448000D02*
X34019000Y-64220000D01*
X34059000Y-62140000D02*
X34059000Y-60890000D01*
X34059000Y-65470000D02*
X34059000Y-64220000D01*
X34099000Y-62140000D02*
X34099000Y-60870000D01*
X34099000Y-65490000D02*
X34099000Y-64220000D01*
X34139000Y-62140000D02*
X34139000Y-60851000D01*
X34139000Y-65509000D02*
X34139000Y-64220000D01*
X34179000Y-62140000D02*
X34179000Y-60832000D01*
X34179000Y-65528000D02*
X34179000Y-64220000D01*
X34219000Y-62140000D02*
X34219000Y-60815000D01*
X34219000Y-65545000D02*
X34219000Y-64220000D01*
X34259000Y-62140000D02*
X34259000Y-60798000D01*
X34259000Y-65562000D02*
X34259000Y-64220000D01*
X34299000Y-62140000D02*
X34299000Y-60782000D01*
X34299000Y-65578000D02*
X34299000Y-64220000D01*
X34339000Y-62140000D02*
X34339000Y-60766000D01*
X34339000Y-65594000D02*
X34339000Y-64220000D01*
X34379000Y-62140000D02*
X34379000Y-60752000D01*
X34379000Y-65608000D02*
X34379000Y-64220000D01*
X34419000Y-62140000D02*
X34419000Y-60738000D01*
X34419000Y-65622000D02*
X34419000Y-64220000D01*
X34459000Y-62140000D02*
X34459000Y-60725000D01*
X34459000Y-65635000D02*
X34459000Y-64220000D01*
X34499000Y-62140000D02*
X34499000Y-60712000D01*
X34499000Y-65648000D02*
X34499000Y-64220000D01*
X34539000Y-62140000D02*
X34539000Y-60700000D01*
X34539000Y-65660000D02*
X34539000Y-64220000D01*
X34580000Y-62140000D02*
X34580000Y-60689000D01*
X34580000Y-65671000D02*
X34580000Y-64220000D01*
X34620000Y-62140000D02*
X34620000Y-60679000D01*
X34620000Y-65681000D02*
X34620000Y-64220000D01*
X34660000Y-62140000D02*
X34660000Y-60669000D01*
X34660000Y-65691000D02*
X34660000Y-64220000D01*
X34700000Y-62140000D02*
X34700000Y-60660000D01*
X34700000Y-65700000D02*
X34700000Y-64220000D01*
X34740000Y-62140000D02*
X34740000Y-60652000D01*
X34740000Y-65708000D02*
X34740000Y-64220000D01*
X34780000Y-62140000D02*
X34780000Y-60644000D01*
X34780000Y-65716000D02*
X34780000Y-64220000D01*
X34820000Y-62140000D02*
X34820000Y-60637000D01*
X34820000Y-65723000D02*
X34820000Y-64220000D01*
X34860000Y-62140000D02*
X34860000Y-60630000D01*
X34860000Y-65730000D02*
X34860000Y-64220000D01*
X34900000Y-62140000D02*
X34900000Y-60624000D01*
X34900000Y-65736000D02*
X34900000Y-64220000D01*
X34940000Y-62140000D02*
X34940000Y-60619000D01*
X34940000Y-65741000D02*
X34940000Y-64220000D01*
X34980000Y-62140000D02*
X34980000Y-60615000D01*
X34980000Y-65745000D02*
X34980000Y-64220000D01*
X35020000Y-62140000D02*
X35020000Y-60611000D01*
X35020000Y-65749000D02*
X35020000Y-64220000D01*
X35060000Y-65753000D02*
X35060000Y-60607000D01*
X35100000Y-65756000D02*
X35100000Y-60604000D01*
X35140000Y-65758000D02*
X35140000Y-60602000D01*
X35180000Y-65759000D02*
X35180000Y-60601000D01*
X35220000Y-65760000D02*
X35220000Y-60600000D01*
X35260000Y-65760000D02*
X35260000Y-60600000D01*
X37880000Y-63180000D02*
G75*
G03*
X37880000Y-63180000I-2620000J0D01*
G01*
%TO.C,C1*%
X47485000Y-46704775D02*
X47985000Y-46704775D01*
X47735000Y-46954775D02*
X47735000Y-46454775D01*
X48926000Y-41549000D02*
X49494000Y-41549000D01*
X48692000Y-41589000D02*
X49728000Y-41589000D01*
X48533000Y-41629000D02*
X49887000Y-41629000D01*
X48405000Y-41669000D02*
X50015000Y-41669000D01*
X48295000Y-41709000D02*
X50125000Y-41709000D01*
X48199000Y-41749000D02*
X50221000Y-41749000D01*
X48112000Y-41789000D02*
X50308000Y-41789000D01*
X48032000Y-41829000D02*
X50388000Y-41829000D01*
X50250000Y-41869000D02*
X50461000Y-41869000D01*
X47959000Y-41869000D02*
X48170000Y-41869000D01*
X50250000Y-41909000D02*
X50529000Y-41909000D01*
X47891000Y-41909000D02*
X48170000Y-41909000D01*
X50250000Y-41949000D02*
X50593000Y-41949000D01*
X47827000Y-41949000D02*
X48170000Y-41949000D01*
X50250000Y-41989000D02*
X50653000Y-41989000D01*
X47767000Y-41989000D02*
X48170000Y-41989000D01*
X50250000Y-42029000D02*
X50710000Y-42029000D01*
X47710000Y-42029000D02*
X48170000Y-42029000D01*
X50250000Y-42069000D02*
X50764000Y-42069000D01*
X47656000Y-42069000D02*
X48170000Y-42069000D01*
X50250000Y-42109000D02*
X50815000Y-42109000D01*
X47605000Y-42109000D02*
X48170000Y-42109000D01*
X50250000Y-42149000D02*
X50863000Y-42149000D01*
X47557000Y-42149000D02*
X48170000Y-42149000D01*
X50250000Y-42189000D02*
X50909000Y-42189000D01*
X47511000Y-42189000D02*
X48170000Y-42189000D01*
X50250000Y-42229000D02*
X50953000Y-42229000D01*
X47467000Y-42229000D02*
X48170000Y-42229000D01*
X50250000Y-42269000D02*
X50995000Y-42269000D01*
X47425000Y-42269000D02*
X48170000Y-42269000D01*
X50250000Y-42309000D02*
X51036000Y-42309000D01*
X47384000Y-42309000D02*
X48170000Y-42309000D01*
X50250000Y-42349000D02*
X51074000Y-42349000D01*
X47346000Y-42349000D02*
X48170000Y-42349000D01*
X50250000Y-42389000D02*
X51111000Y-42389000D01*
X47309000Y-42389000D02*
X48170000Y-42389000D01*
X50250000Y-42429000D02*
X51147000Y-42429000D01*
X47273000Y-42429000D02*
X48170000Y-42429000D01*
X50250000Y-42469000D02*
X51181000Y-42469000D01*
X47239000Y-42469000D02*
X48170000Y-42469000D01*
X50250000Y-42509000D02*
X51214000Y-42509000D01*
X47206000Y-42509000D02*
X48170000Y-42509000D01*
X50250000Y-42549000D02*
X51245000Y-42549000D01*
X47175000Y-42549000D02*
X48170000Y-42549000D01*
X50250000Y-42589000D02*
X51275000Y-42589000D01*
X47145000Y-42589000D02*
X48170000Y-42589000D01*
X50250000Y-42629000D02*
X51305000Y-42629000D01*
X47115000Y-42629000D02*
X48170000Y-42629000D01*
X50250000Y-42669000D02*
X51332000Y-42669000D01*
X47088000Y-42669000D02*
X48170000Y-42669000D01*
X50250000Y-42709000D02*
X51359000Y-42709000D01*
X47061000Y-42709000D02*
X48170000Y-42709000D01*
X50250000Y-42749000D02*
X51385000Y-42749000D01*
X47035000Y-42749000D02*
X48170000Y-42749000D01*
X50250000Y-42789000D02*
X51410000Y-42789000D01*
X47010000Y-42789000D02*
X48170000Y-42789000D01*
X50250000Y-42829000D02*
X51434000Y-42829000D01*
X46986000Y-42829000D02*
X48170000Y-42829000D01*
X50250000Y-42869000D02*
X51457000Y-42869000D01*
X46963000Y-42869000D02*
X48170000Y-42869000D01*
X50250000Y-42909000D02*
X51478000Y-42909000D01*
X46942000Y-42909000D02*
X48170000Y-42909000D01*
X50250000Y-42949000D02*
X51500000Y-42949000D01*
X46920000Y-42949000D02*
X48170000Y-42949000D01*
X50250000Y-42989000D02*
X51520000Y-42989000D01*
X46900000Y-42989000D02*
X48170000Y-42989000D01*
X50250000Y-43029000D02*
X51539000Y-43029000D01*
X46881000Y-43029000D02*
X48170000Y-43029000D01*
X50250000Y-43069000D02*
X51558000Y-43069000D01*
X46862000Y-43069000D02*
X48170000Y-43069000D01*
X50250000Y-43109000D02*
X51575000Y-43109000D01*
X46845000Y-43109000D02*
X48170000Y-43109000D01*
X50250000Y-43149000D02*
X51592000Y-43149000D01*
X46828000Y-43149000D02*
X48170000Y-43149000D01*
X50250000Y-43189000D02*
X51608000Y-43189000D01*
X46812000Y-43189000D02*
X48170000Y-43189000D01*
X50250000Y-43229000D02*
X51624000Y-43229000D01*
X46796000Y-43229000D02*
X48170000Y-43229000D01*
X50250000Y-43269000D02*
X51638000Y-43269000D01*
X46782000Y-43269000D02*
X48170000Y-43269000D01*
X50250000Y-43309000D02*
X51652000Y-43309000D01*
X46768000Y-43309000D02*
X48170000Y-43309000D01*
X50250000Y-43349000D02*
X51665000Y-43349000D01*
X46755000Y-43349000D02*
X48170000Y-43349000D01*
X50250000Y-43389000D02*
X51678000Y-43389000D01*
X46742000Y-43389000D02*
X48170000Y-43389000D01*
X50250000Y-43429000D02*
X51690000Y-43429000D01*
X46730000Y-43429000D02*
X48170000Y-43429000D01*
X50250000Y-43470000D02*
X51701000Y-43470000D01*
X46719000Y-43470000D02*
X48170000Y-43470000D01*
X50250000Y-43510000D02*
X51711000Y-43510000D01*
X46709000Y-43510000D02*
X48170000Y-43510000D01*
X50250000Y-43550000D02*
X51721000Y-43550000D01*
X46699000Y-43550000D02*
X48170000Y-43550000D01*
X50250000Y-43590000D02*
X51730000Y-43590000D01*
X46690000Y-43590000D02*
X48170000Y-43590000D01*
X50250000Y-43630000D02*
X51738000Y-43630000D01*
X46682000Y-43630000D02*
X48170000Y-43630000D01*
X50250000Y-43670000D02*
X51746000Y-43670000D01*
X46674000Y-43670000D02*
X48170000Y-43670000D01*
X50250000Y-43710000D02*
X51753000Y-43710000D01*
X46667000Y-43710000D02*
X48170000Y-43710000D01*
X50250000Y-43750000D02*
X51760000Y-43750000D01*
X46660000Y-43750000D02*
X48170000Y-43750000D01*
X50250000Y-43790000D02*
X51766000Y-43790000D01*
X46654000Y-43790000D02*
X48170000Y-43790000D01*
X50250000Y-43830000D02*
X51771000Y-43830000D01*
X46649000Y-43830000D02*
X48170000Y-43830000D01*
X50250000Y-43870000D02*
X51775000Y-43870000D01*
X46645000Y-43870000D02*
X48170000Y-43870000D01*
X50250000Y-43910000D02*
X51779000Y-43910000D01*
X46641000Y-43910000D02*
X48170000Y-43910000D01*
X46637000Y-43950000D02*
X51783000Y-43950000D01*
X46634000Y-43990000D02*
X51786000Y-43990000D01*
X46632000Y-44030000D02*
X51788000Y-44030000D01*
X46631000Y-44070000D02*
X51789000Y-44070000D01*
X46630000Y-44110000D02*
X51790000Y-44110000D01*
X46630000Y-44150000D02*
X51790000Y-44150000D01*
X51830000Y-44150000D02*
G75*
G03*
X51830000Y-44150000I-2620000J0D01*
G01*
%TO.C,U1*%
X62330000Y-47520000D02*
X51480000Y-47520000D01*
X62330000Y-71220000D02*
X62330000Y-47520000D01*
X38630000Y-71220000D02*
X62330000Y-71220000D01*
X38630000Y-48520000D02*
X38630000Y-71220000D01*
X39630000Y-47520000D02*
X38630000Y-48520000D01*
X49480000Y-47520000D02*
X39630000Y-47520000D01*
%TO.C,J5*%
X75940000Y-87370000D02*
X74610000Y-87370000D01*
X75940000Y-86040000D02*
X75940000Y-87370000D01*
X75940000Y-84770000D02*
X73280000Y-84770000D01*
X73280000Y-84770000D02*
X73280000Y-31370000D01*
X75940000Y-84770000D02*
X75940000Y-31370000D01*
X75940000Y-31370000D02*
X73280000Y-31370000D01*
%TO.C,J3*%
X25020000Y-31370000D02*
X26350000Y-31370000D01*
X25020000Y-32700000D02*
X25020000Y-31370000D01*
X25020000Y-33970000D02*
X27680000Y-33970000D01*
X27680000Y-33970000D02*
X27680000Y-87370000D01*
X25020000Y-33970000D02*
X25020000Y-87370000D01*
X25020000Y-87370000D02*
X27680000Y-87370000D01*
%TO.C,R14*%
D10*
X32692142Y-75697380D02*
X32358809Y-75221190D01*
X32120714Y-75697380D02*
X32120714Y-74697380D01*
X32501666Y-74697380D01*
X32596904Y-74745000D01*
X32644523Y-74792619D01*
X32692142Y-74887857D01*
X32692142Y-75030714D01*
X32644523Y-75125952D01*
X32596904Y-75173571D01*
X32501666Y-75221190D01*
X32120714Y-75221190D01*
X33644523Y-75697380D02*
X33073095Y-75697380D01*
X33358809Y-75697380D02*
X33358809Y-74697380D01*
X33263571Y-74840238D01*
X33168333Y-74935476D01*
X33073095Y-74983095D01*
X34501666Y-75030714D02*
X34501666Y-75697380D01*
X34263571Y-74649761D02*
X34025476Y-75364047D01*
X34644523Y-75364047D01*
X31882380Y-81650476D02*
X31882380Y-82221904D01*
X31882380Y-81936190D02*
X30882380Y-81936190D01*
X31025238Y-82031428D01*
X31120476Y-82126666D01*
X31168095Y-82221904D01*
X30882380Y-81031428D02*
X30882380Y-80936190D01*
X30930000Y-80840952D01*
X30977619Y-80793333D01*
X31072857Y-80745714D01*
X31263333Y-80698095D01*
X31501428Y-80698095D01*
X31691904Y-80745714D01*
X31787142Y-80793333D01*
X31834761Y-80840952D01*
X31882380Y-80936190D01*
X31882380Y-81031428D01*
X31834761Y-81126666D01*
X31787142Y-81174285D01*
X31691904Y-81221904D01*
X31501428Y-81269523D01*
X31263333Y-81269523D01*
X31072857Y-81221904D01*
X30977619Y-81174285D01*
X30930000Y-81126666D01*
X30882380Y-81031428D01*
X31882380Y-80269523D02*
X30882380Y-80269523D01*
X31882380Y-79698095D02*
X31310952Y-80126666D01*
X30882380Y-79698095D02*
X31453809Y-80269523D01*
%TO.C,J6*%
X42522380Y-82563333D02*
X43236666Y-82563333D01*
X43379523Y-82610952D01*
X43474761Y-82706190D01*
X43522380Y-82849047D01*
X43522380Y-82944285D01*
X42522380Y-81658571D02*
X42522380Y-81849047D01*
X42570000Y-81944285D01*
X42617619Y-81991904D01*
X42760476Y-82087142D01*
X42950952Y-82134761D01*
X43331904Y-82134761D01*
X43427142Y-82087142D01*
X43474761Y-82039523D01*
X43522380Y-81944285D01*
X43522380Y-81753809D01*
X43474761Y-81658571D01*
X43427142Y-81610952D01*
X43331904Y-81563333D01*
X43093809Y-81563333D01*
X42998571Y-81610952D01*
X42950952Y-81658571D01*
X42903333Y-81753809D01*
X42903333Y-81944285D01*
X42950952Y-82039523D01*
X42998571Y-82087142D01*
X43093809Y-82134761D01*
%TO.C,R16*%
X38232380Y-42867857D02*
X37756190Y-43201190D01*
X38232380Y-43439285D02*
X37232380Y-43439285D01*
X37232380Y-43058333D01*
X37280000Y-42963095D01*
X37327619Y-42915476D01*
X37422857Y-42867857D01*
X37565714Y-42867857D01*
X37660952Y-42915476D01*
X37708571Y-42963095D01*
X37756190Y-43058333D01*
X37756190Y-43439285D01*
X38232380Y-41915476D02*
X38232380Y-42486904D01*
X38232380Y-42201190D02*
X37232380Y-42201190D01*
X37375238Y-42296428D01*
X37470476Y-42391666D01*
X37518095Y-42486904D01*
X37232380Y-41058333D02*
X37232380Y-41248809D01*
X37280000Y-41344047D01*
X37327619Y-41391666D01*
X37470476Y-41486904D01*
X37660952Y-41534523D01*
X38041904Y-41534523D01*
X38137142Y-41486904D01*
X38184761Y-41439285D01*
X38232380Y-41344047D01*
X38232380Y-41153571D01*
X38184761Y-41058333D01*
X38137142Y-41010714D01*
X38041904Y-40963095D01*
X37803809Y-40963095D01*
X37708571Y-41010714D01*
X37660952Y-41058333D01*
X37613333Y-41153571D01*
X37613333Y-41344047D01*
X37660952Y-41439285D01*
X37708571Y-41486904D01*
X37803809Y-41534523D01*
X38232380Y-35930476D02*
X38232380Y-36501904D01*
X38232380Y-36216190D02*
X37232380Y-36216190D01*
X37375238Y-36311428D01*
X37470476Y-36406666D01*
X37518095Y-36501904D01*
X37232380Y-35311428D02*
X37232380Y-35216190D01*
X37280000Y-35120952D01*
X37327619Y-35073333D01*
X37422857Y-35025714D01*
X37613333Y-34978095D01*
X37851428Y-34978095D01*
X38041904Y-35025714D01*
X38137142Y-35073333D01*
X38184761Y-35120952D01*
X38232380Y-35216190D01*
X38232380Y-35311428D01*
X38184761Y-35406666D01*
X38137142Y-35454285D01*
X38041904Y-35501904D01*
X37851428Y-35549523D01*
X37613333Y-35549523D01*
X37422857Y-35501904D01*
X37327619Y-35454285D01*
X37280000Y-35406666D01*
X37232380Y-35311428D01*
X38232380Y-34549523D02*
X37232380Y-34549523D01*
X38232380Y-33978095D02*
X37660952Y-34406666D01*
X37232380Y-33978095D02*
X37803809Y-34549523D01*
%TO.C,R15*%
X63632380Y-42867857D02*
X63156190Y-43201190D01*
X63632380Y-43439285D02*
X62632380Y-43439285D01*
X62632380Y-43058333D01*
X62680000Y-42963095D01*
X62727619Y-42915476D01*
X62822857Y-42867857D01*
X62965714Y-42867857D01*
X63060952Y-42915476D01*
X63108571Y-42963095D01*
X63156190Y-43058333D01*
X63156190Y-43439285D01*
X63632380Y-41915476D02*
X63632380Y-42486904D01*
X63632380Y-42201190D02*
X62632380Y-42201190D01*
X62775238Y-42296428D01*
X62870476Y-42391666D01*
X62918095Y-42486904D01*
X62632380Y-41010714D02*
X62632380Y-41486904D01*
X63108571Y-41534523D01*
X63060952Y-41486904D01*
X63013333Y-41391666D01*
X63013333Y-41153571D01*
X63060952Y-41058333D01*
X63108571Y-41010714D01*
X63203809Y-40963095D01*
X63441904Y-40963095D01*
X63537142Y-41010714D01*
X63584761Y-41058333D01*
X63632380Y-41153571D01*
X63632380Y-41391666D01*
X63584761Y-41486904D01*
X63537142Y-41534523D01*
X63632380Y-35930476D02*
X63632380Y-36501904D01*
X63632380Y-36216190D02*
X62632380Y-36216190D01*
X62775238Y-36311428D01*
X62870476Y-36406666D01*
X62918095Y-36501904D01*
X62632380Y-35311428D02*
X62632380Y-35216190D01*
X62680000Y-35120952D01*
X62727619Y-35073333D01*
X62822857Y-35025714D01*
X63013333Y-34978095D01*
X63251428Y-34978095D01*
X63441904Y-35025714D01*
X63537142Y-35073333D01*
X63584761Y-35120952D01*
X63632380Y-35216190D01*
X63632380Y-35311428D01*
X63584761Y-35406666D01*
X63537142Y-35454285D01*
X63441904Y-35501904D01*
X63251428Y-35549523D01*
X63013333Y-35549523D01*
X62822857Y-35501904D01*
X62727619Y-35454285D01*
X62680000Y-35406666D01*
X62632380Y-35311428D01*
X63632380Y-34549523D02*
X62632380Y-34549523D01*
X63632380Y-33978095D02*
X63060952Y-34406666D01*
X62632380Y-33978095D02*
X63203809Y-34549523D01*
%TO.C,R13*%
X67442380Y-42867857D02*
X66966190Y-43201190D01*
X67442380Y-43439285D02*
X66442380Y-43439285D01*
X66442380Y-43058333D01*
X66490000Y-42963095D01*
X66537619Y-42915476D01*
X66632857Y-42867857D01*
X66775714Y-42867857D01*
X66870952Y-42915476D01*
X66918571Y-42963095D01*
X66966190Y-43058333D01*
X66966190Y-43439285D01*
X67442380Y-41915476D02*
X67442380Y-42486904D01*
X67442380Y-42201190D02*
X66442380Y-42201190D01*
X66585238Y-42296428D01*
X66680476Y-42391666D01*
X66728095Y-42486904D01*
X66442380Y-41582142D02*
X66442380Y-40963095D01*
X66823333Y-41296428D01*
X66823333Y-41153571D01*
X66870952Y-41058333D01*
X66918571Y-41010714D01*
X67013809Y-40963095D01*
X67251904Y-40963095D01*
X67347142Y-41010714D01*
X67394761Y-41058333D01*
X67442380Y-41153571D01*
X67442380Y-41439285D01*
X67394761Y-41534523D01*
X67347142Y-41582142D01*
X67442380Y-35930476D02*
X67442380Y-36501904D01*
X67442380Y-36216190D02*
X66442380Y-36216190D01*
X66585238Y-36311428D01*
X66680476Y-36406666D01*
X66728095Y-36501904D01*
X66442380Y-35311428D02*
X66442380Y-35216190D01*
X66490000Y-35120952D01*
X66537619Y-35073333D01*
X66632857Y-35025714D01*
X66823333Y-34978095D01*
X67061428Y-34978095D01*
X67251904Y-35025714D01*
X67347142Y-35073333D01*
X67394761Y-35120952D01*
X67442380Y-35216190D01*
X67442380Y-35311428D01*
X67394761Y-35406666D01*
X67347142Y-35454285D01*
X67251904Y-35501904D01*
X67061428Y-35549523D01*
X66823333Y-35549523D01*
X66632857Y-35501904D01*
X66537619Y-35454285D01*
X66490000Y-35406666D01*
X66442380Y-35311428D01*
X67442380Y-34549523D02*
X66442380Y-34549523D01*
X67442380Y-33978095D02*
X66870952Y-34406666D01*
X66442380Y-33978095D02*
X67013809Y-34549523D01*
%TO.C,R12*%
X34422380Y-42867857D02*
X33946190Y-43201190D01*
X34422380Y-43439285D02*
X33422380Y-43439285D01*
X33422380Y-43058333D01*
X33470000Y-42963095D01*
X33517619Y-42915476D01*
X33612857Y-42867857D01*
X33755714Y-42867857D01*
X33850952Y-42915476D01*
X33898571Y-42963095D01*
X33946190Y-43058333D01*
X33946190Y-43439285D01*
X34422380Y-41915476D02*
X34422380Y-42486904D01*
X34422380Y-42201190D02*
X33422380Y-42201190D01*
X33565238Y-42296428D01*
X33660476Y-42391666D01*
X33708095Y-42486904D01*
X33517619Y-41534523D02*
X33470000Y-41486904D01*
X33422380Y-41391666D01*
X33422380Y-41153571D01*
X33470000Y-41058333D01*
X33517619Y-41010714D01*
X33612857Y-40963095D01*
X33708095Y-40963095D01*
X33850952Y-41010714D01*
X34422380Y-41582142D01*
X34422380Y-40963095D01*
X34422380Y-35930476D02*
X34422380Y-36501904D01*
X34422380Y-36216190D02*
X33422380Y-36216190D01*
X33565238Y-36311428D01*
X33660476Y-36406666D01*
X33708095Y-36501904D01*
X33422380Y-35311428D02*
X33422380Y-35216190D01*
X33470000Y-35120952D01*
X33517619Y-35073333D01*
X33612857Y-35025714D01*
X33803333Y-34978095D01*
X34041428Y-34978095D01*
X34231904Y-35025714D01*
X34327142Y-35073333D01*
X34374761Y-35120952D01*
X34422380Y-35216190D01*
X34422380Y-35311428D01*
X34374761Y-35406666D01*
X34327142Y-35454285D01*
X34231904Y-35501904D01*
X34041428Y-35549523D01*
X33803333Y-35549523D01*
X33612857Y-35501904D01*
X33517619Y-35454285D01*
X33470000Y-35406666D01*
X33422380Y-35311428D01*
X34422380Y-34549523D02*
X33422380Y-34549523D01*
X34422380Y-33978095D02*
X33850952Y-34406666D01*
X33422380Y-33978095D02*
X33993809Y-34549523D01*
%TO.C,R5*%
X39518333Y-21722380D02*
X39185000Y-21246190D01*
X38946904Y-21722380D02*
X38946904Y-20722380D01*
X39327857Y-20722380D01*
X39423095Y-20770000D01*
X39470714Y-20817619D01*
X39518333Y-20912857D01*
X39518333Y-21055714D01*
X39470714Y-21150952D01*
X39423095Y-21198571D01*
X39327857Y-21246190D01*
X38946904Y-21246190D01*
X40423095Y-20722380D02*
X39946904Y-20722380D01*
X39899285Y-21198571D01*
X39946904Y-21150952D01*
X40042142Y-21103333D01*
X40280238Y-21103333D01*
X40375476Y-21150952D01*
X40423095Y-21198571D01*
X40470714Y-21293809D01*
X40470714Y-21531904D01*
X40423095Y-21627142D01*
X40375476Y-21674761D01*
X40280238Y-21722380D01*
X40042142Y-21722380D01*
X39946904Y-21674761D01*
X39899285Y-21627142D01*
X44709523Y-22992380D02*
X44138095Y-22992380D01*
X44423809Y-22992380D02*
X44423809Y-21992380D01*
X44328571Y-22135238D01*
X44233333Y-22230476D01*
X44138095Y-22278095D01*
X45328571Y-21992380D02*
X45423809Y-21992380D01*
X45519047Y-22040000D01*
X45566666Y-22087619D01*
X45614285Y-22182857D01*
X45661904Y-22373333D01*
X45661904Y-22611428D01*
X45614285Y-22801904D01*
X45566666Y-22897142D01*
X45519047Y-22944761D01*
X45423809Y-22992380D01*
X45328571Y-22992380D01*
X45233333Y-22944761D01*
X45185714Y-22897142D01*
X45138095Y-22801904D01*
X45090476Y-22611428D01*
X45090476Y-22373333D01*
X45138095Y-22182857D01*
X45185714Y-22087619D01*
X45233333Y-22040000D01*
X45328571Y-21992380D01*
X46090476Y-22992380D02*
X46090476Y-21992380D01*
X46661904Y-22992380D02*
X46233333Y-22420952D01*
X46661904Y-21992380D02*
X46090476Y-22563809D01*
%TO.C,R4*%
X61108333Y-21722380D02*
X60775000Y-21246190D01*
X60536904Y-21722380D02*
X60536904Y-20722380D01*
X60917857Y-20722380D01*
X61013095Y-20770000D01*
X61060714Y-20817619D01*
X61108333Y-20912857D01*
X61108333Y-21055714D01*
X61060714Y-21150952D01*
X61013095Y-21198571D01*
X60917857Y-21246190D01*
X60536904Y-21246190D01*
X61965476Y-21055714D02*
X61965476Y-21722380D01*
X61727380Y-20674761D02*
X61489285Y-21389047D01*
X62108333Y-21389047D01*
X54869523Y-22992380D02*
X54298095Y-22992380D01*
X54583809Y-22992380D02*
X54583809Y-21992380D01*
X54488571Y-22135238D01*
X54393333Y-22230476D01*
X54298095Y-22278095D01*
X55488571Y-21992380D02*
X55583809Y-21992380D01*
X55679047Y-22040000D01*
X55726666Y-22087619D01*
X55774285Y-22182857D01*
X55821904Y-22373333D01*
X55821904Y-22611428D01*
X55774285Y-22801904D01*
X55726666Y-22897142D01*
X55679047Y-22944761D01*
X55583809Y-22992380D01*
X55488571Y-22992380D01*
X55393333Y-22944761D01*
X55345714Y-22897142D01*
X55298095Y-22801904D01*
X55250476Y-22611428D01*
X55250476Y-22373333D01*
X55298095Y-22182857D01*
X55345714Y-22087619D01*
X55393333Y-22040000D01*
X55488571Y-21992380D01*
X56250476Y-22992380D02*
X56250476Y-21992380D01*
X56821904Y-22992380D02*
X56393333Y-22420952D01*
X56821904Y-21992380D02*
X56250476Y-22563809D01*
%TO.C,R3*%
X65553333Y-78872380D02*
X65220000Y-78396190D01*
X64981904Y-78872380D02*
X64981904Y-77872380D01*
X65362857Y-77872380D01*
X65458095Y-77920000D01*
X65505714Y-77967619D01*
X65553333Y-78062857D01*
X65553333Y-78205714D01*
X65505714Y-78300952D01*
X65458095Y-78348571D01*
X65362857Y-78396190D01*
X64981904Y-78396190D01*
X65886666Y-77872380D02*
X66505714Y-77872380D01*
X66172380Y-78253333D01*
X66315238Y-78253333D01*
X66410476Y-78300952D01*
X66458095Y-78348571D01*
X66505714Y-78443809D01*
X66505714Y-78681904D01*
X66458095Y-78777142D01*
X66410476Y-78824761D01*
X66315238Y-78872380D01*
X66029523Y-78872380D01*
X65934285Y-78824761D01*
X65886666Y-78777142D01*
X58679523Y-78872380D02*
X58108095Y-78872380D01*
X58393809Y-78872380D02*
X58393809Y-77872380D01*
X58298571Y-78015238D01*
X58203333Y-78110476D01*
X58108095Y-78158095D01*
X59298571Y-77872380D02*
X59393809Y-77872380D01*
X59489047Y-77920000D01*
X59536666Y-77967619D01*
X59584285Y-78062857D01*
X59631904Y-78253333D01*
X59631904Y-78491428D01*
X59584285Y-78681904D01*
X59536666Y-78777142D01*
X59489047Y-78824761D01*
X59393809Y-78872380D01*
X59298571Y-78872380D01*
X59203333Y-78824761D01*
X59155714Y-78777142D01*
X59108095Y-78681904D01*
X59060476Y-78491428D01*
X59060476Y-78253333D01*
X59108095Y-78062857D01*
X59155714Y-77967619D01*
X59203333Y-77920000D01*
X59298571Y-77872380D01*
X60060476Y-78872380D02*
X60060476Y-77872380D01*
X60631904Y-78872380D02*
X60203333Y-78300952D01*
X60631904Y-77872380D02*
X60060476Y-78443809D01*
%TO.C,R2*%
X65553333Y-82682380D02*
X65220000Y-82206190D01*
X64981904Y-82682380D02*
X64981904Y-81682380D01*
X65362857Y-81682380D01*
X65458095Y-81730000D01*
X65505714Y-81777619D01*
X65553333Y-81872857D01*
X65553333Y-82015714D01*
X65505714Y-82110952D01*
X65458095Y-82158571D01*
X65362857Y-82206190D01*
X64981904Y-82206190D01*
X65934285Y-81777619D02*
X65981904Y-81730000D01*
X66077142Y-81682380D01*
X66315238Y-81682380D01*
X66410476Y-81730000D01*
X66458095Y-81777619D01*
X66505714Y-81872857D01*
X66505714Y-81968095D01*
X66458095Y-82110952D01*
X65886666Y-82682380D01*
X66505714Y-82682380D01*
X58679523Y-82682380D02*
X58108095Y-82682380D01*
X58393809Y-82682380D02*
X58393809Y-81682380D01*
X58298571Y-81825238D01*
X58203333Y-81920476D01*
X58108095Y-81968095D01*
X59298571Y-81682380D02*
X59393809Y-81682380D01*
X59489047Y-81730000D01*
X59536666Y-81777619D01*
X59584285Y-81872857D01*
X59631904Y-82063333D01*
X59631904Y-82301428D01*
X59584285Y-82491904D01*
X59536666Y-82587142D01*
X59489047Y-82634761D01*
X59393809Y-82682380D01*
X59298571Y-82682380D01*
X59203333Y-82634761D01*
X59155714Y-82587142D01*
X59108095Y-82491904D01*
X59060476Y-82301428D01*
X59060476Y-82063333D01*
X59108095Y-81872857D01*
X59155714Y-81777619D01*
X59203333Y-81730000D01*
X59298571Y-81682380D01*
X60060476Y-82682380D02*
X60060476Y-81682380D01*
X60631904Y-82682380D02*
X60203333Y-82110952D01*
X60631904Y-81682380D02*
X60060476Y-82253809D01*
%TO.C,R1*%
X65553333Y-86492380D02*
X65220000Y-86016190D01*
X64981904Y-86492380D02*
X64981904Y-85492380D01*
X65362857Y-85492380D01*
X65458095Y-85540000D01*
X65505714Y-85587619D01*
X65553333Y-85682857D01*
X65553333Y-85825714D01*
X65505714Y-85920952D01*
X65458095Y-85968571D01*
X65362857Y-86016190D01*
X64981904Y-86016190D01*
X66505714Y-86492380D02*
X65934285Y-86492380D01*
X66220000Y-86492380D02*
X66220000Y-85492380D01*
X66124761Y-85635238D01*
X66029523Y-85730476D01*
X65934285Y-85778095D01*
X58679523Y-86492380D02*
X58108095Y-86492380D01*
X58393809Y-86492380D02*
X58393809Y-85492380D01*
X58298571Y-85635238D01*
X58203333Y-85730476D01*
X58108095Y-85778095D01*
X59298571Y-85492380D02*
X59393809Y-85492380D01*
X59489047Y-85540000D01*
X59536666Y-85587619D01*
X59584285Y-85682857D01*
X59631904Y-85873333D01*
X59631904Y-86111428D01*
X59584285Y-86301904D01*
X59536666Y-86397142D01*
X59489047Y-86444761D01*
X59393809Y-86492380D01*
X59298571Y-86492380D01*
X59203333Y-86444761D01*
X59155714Y-86397142D01*
X59108095Y-86301904D01*
X59060476Y-86111428D01*
X59060476Y-85873333D01*
X59108095Y-85682857D01*
X59155714Y-85587619D01*
X59203333Y-85540000D01*
X59298571Y-85492380D01*
X60060476Y-86492380D02*
X60060476Y-85492380D01*
X60631904Y-86492380D02*
X60203333Y-85920952D01*
X60631904Y-85492380D02*
X60060476Y-86063809D01*
%TO.C,J2*%
X33632380Y-83833333D02*
X34346666Y-83833333D01*
X34489523Y-83880952D01*
X34584761Y-83976190D01*
X34632380Y-84119047D01*
X34632380Y-84214285D01*
X33727619Y-83404761D02*
X33680000Y-83357142D01*
X33632380Y-83261904D01*
X33632380Y-83023809D01*
X33680000Y-82928571D01*
X33727619Y-82880952D01*
X33822857Y-82833333D01*
X33918095Y-82833333D01*
X34060952Y-82880952D01*
X34632380Y-83452380D01*
X34632380Y-82833333D01*
%TO.C,D1*%
X44026904Y-27437380D02*
X44026904Y-26437380D01*
X44265000Y-26437380D01*
X44407857Y-26485000D01*
X44503095Y-26580238D01*
X44550714Y-26675476D01*
X44598333Y-26865952D01*
X44598333Y-27008809D01*
X44550714Y-27199285D01*
X44503095Y-27294523D01*
X44407857Y-27389761D01*
X44265000Y-27437380D01*
X44026904Y-27437380D01*
X45550714Y-27437380D02*
X44979285Y-27437380D01*
X45265000Y-27437380D02*
X45265000Y-26437380D01*
X45169761Y-26580238D01*
X45074523Y-26675476D01*
X44979285Y-26723095D01*
%TO.C,D0*%
X55456904Y-27437380D02*
X55456904Y-26437380D01*
X55695000Y-26437380D01*
X55837857Y-26485000D01*
X55933095Y-26580238D01*
X55980714Y-26675476D01*
X56028333Y-26865952D01*
X56028333Y-27008809D01*
X55980714Y-27199285D01*
X55933095Y-27294523D01*
X55837857Y-27389761D01*
X55695000Y-27437380D01*
X55456904Y-27437380D01*
X56647380Y-26437380D02*
X56742619Y-26437380D01*
X56837857Y-26485000D01*
X56885476Y-26532619D01*
X56933095Y-26627857D01*
X56980714Y-26818333D01*
X56980714Y-27056428D01*
X56933095Y-27246904D01*
X56885476Y-27342142D01*
X56837857Y-27389761D01*
X56742619Y-27437380D01*
X56647380Y-27437380D01*
X56552142Y-27389761D01*
X56504523Y-27342142D01*
X56456904Y-27246904D01*
X56409285Y-27056428D01*
X56409285Y-26818333D01*
X56456904Y-26627857D01*
X56504523Y-26532619D01*
X56552142Y-26485000D01*
X56647380Y-26437380D01*
%TO.C,C4*%
X53488333Y-74947142D02*
X53440714Y-74994761D01*
X53297857Y-75042380D01*
X53202619Y-75042380D01*
X53059761Y-74994761D01*
X52964523Y-74899523D01*
X52916904Y-74804285D01*
X52869285Y-74613809D01*
X52869285Y-74470952D01*
X52916904Y-74280476D01*
X52964523Y-74185238D01*
X53059761Y-74090000D01*
X53202619Y-74042380D01*
X53297857Y-74042380D01*
X53440714Y-74090000D01*
X53488333Y-74137619D01*
X54345476Y-74375714D02*
X54345476Y-75042380D01*
X54107380Y-73994761D02*
X53869285Y-74709047D01*
X54488333Y-74709047D01*
%TO.C,C3*%
X65533333Y-54707142D02*
X65485714Y-54754761D01*
X65342857Y-54802380D01*
X65247619Y-54802380D01*
X65104761Y-54754761D01*
X65009523Y-54659523D01*
X64961904Y-54564285D01*
X64914285Y-54373809D01*
X64914285Y-54230952D01*
X64961904Y-54040476D01*
X65009523Y-53945238D01*
X65104761Y-53850000D01*
X65247619Y-53802380D01*
X65342857Y-53802380D01*
X65485714Y-53850000D01*
X65533333Y-53897619D01*
X65866666Y-53802380D02*
X66485714Y-53802380D01*
X66152380Y-54183333D01*
X66295238Y-54183333D01*
X66390476Y-54230952D01*
X66438095Y-54278571D01*
X66485714Y-54373809D01*
X66485714Y-54611904D01*
X66438095Y-54707142D01*
X66390476Y-54754761D01*
X66295238Y-54802380D01*
X66009523Y-54802380D01*
X65914285Y-54754761D01*
X65866666Y-54707142D01*
%TO.C,C2*%
X35093333Y-67287142D02*
X35045714Y-67334761D01*
X34902857Y-67382380D01*
X34807619Y-67382380D01*
X34664761Y-67334761D01*
X34569523Y-67239523D01*
X34521904Y-67144285D01*
X34474285Y-66953809D01*
X34474285Y-66810952D01*
X34521904Y-66620476D01*
X34569523Y-66525238D01*
X34664761Y-66430000D01*
X34807619Y-66382380D01*
X34902857Y-66382380D01*
X35045714Y-66430000D01*
X35093333Y-66477619D01*
X35474285Y-66477619D02*
X35521904Y-66430000D01*
X35617142Y-66382380D01*
X35855238Y-66382380D01*
X35950476Y-66430000D01*
X35998095Y-66477619D01*
X36045714Y-66572857D01*
X36045714Y-66668095D01*
X35998095Y-66810952D01*
X35426666Y-67382380D01*
X36045714Y-67382380D01*
%TO.C,C1*%
X45868333Y-46392142D02*
X45820714Y-46439761D01*
X45677857Y-46487380D01*
X45582619Y-46487380D01*
X45439761Y-46439761D01*
X45344523Y-46344523D01*
X45296904Y-46249285D01*
X45249285Y-46058809D01*
X45249285Y-45915952D01*
X45296904Y-45725476D01*
X45344523Y-45630238D01*
X45439761Y-45535000D01*
X45582619Y-45487380D01*
X45677857Y-45487380D01*
X45820714Y-45535000D01*
X45868333Y-45582619D01*
X46820714Y-46487380D02*
X46249285Y-46487380D01*
X46535000Y-46487380D02*
X46535000Y-45487380D01*
X46439761Y-45630238D01*
X46344523Y-45725476D01*
X46249285Y-45773095D01*
%TD*%
M02*
