%TF.GenerationSoftware,KiCad,Pcbnew,(5.1.7)-1*%
%TF.CreationDate,2022-07-04T22:41:30-03:00*%
%TF.ProjectId,ATF1502BR,41544631-3530-4324-9252-2e6b69636164,rev?*%
%TF.SameCoordinates,Original*%
%TF.FileFunction,Soldermask,Bot*%
%TF.FilePolarity,Negative*%
%FSLAX46Y46*%
G04 Gerber Fmt 4.6, Leading zero omitted, Abs format (unit mm)*
G04 Created by KiCad (PCBNEW (5.1.7)-1) date 2022-07-04 22:41:30*
%MOMM*%
%LPD*%
G01*
G04 APERTURE LIST*
%ADD10C,6.000000*%
%ADD11C,4.400000*%
%ADD12C,2.000000*%
%ADD13O,2.000000X2.000000*%
%ADD14C,2.200000*%
%ADD15O,2.100000X2.100000*%
%ADD16C,2.400000*%
%ADD17C,1.822400*%
%ADD18C,0.100000*%
G04 APERTURE END LIST*
D10*
%TO.C,REF\u002A\u002A*%
X24500000Y-95500000D03*
%TD*%
%TO.C,REF\u002A\u002A*%
X75500000Y-95500000D03*
%TD*%
%TO.C,REF\u002A\u002A*%
X75500000Y-24500000D03*
%TD*%
%TO.C,REF\u002A\u002A*%
X24500000Y-24500000D03*
%TD*%
D11*
%TO.C,J1*%
X45070000Y-94710000D03*
X33070000Y-94710000D03*
D12*
X40320000Y-91850000D03*
X37820000Y-91850000D03*
X37820000Y-89850000D03*
G36*
G01*
X39320000Y-90650000D02*
X39320000Y-89050000D01*
G75*
G02*
X39520000Y-88850000I200000J0D01*
G01*
X41120000Y-88850000D01*
G75*
G02*
X41320000Y-89050000I0J-200000D01*
G01*
X41320000Y-90650000D01*
G75*
G02*
X41120000Y-90850000I-200000J0D01*
G01*
X39520000Y-90850000D01*
G75*
G02*
X39320000Y-90650000I0J200000D01*
G01*
G37*
%TD*%
D13*
%TO.C,R14*%
X31430000Y-77150000D03*
D12*
X31430000Y-84770000D03*
%TD*%
D14*
%TO.C,D8*%
X39050000Y-78420000D03*
G36*
G01*
X35410000Y-79320000D02*
X35410000Y-77520000D01*
G75*
G02*
X35610000Y-77320000I200000J0D01*
G01*
X37410000Y-77320000D01*
G75*
G02*
X37610000Y-77520000I0J-200000D01*
G01*
X37610000Y-79320000D01*
G75*
G02*
X37410000Y-79520000I-200000J0D01*
G01*
X35610000Y-79520000D01*
G75*
G02*
X35410000Y-79320000I0J200000D01*
G01*
G37*
%TD*%
D15*
%TO.C,J6*%
X50480000Y-80960000D03*
X50480000Y-83500000D03*
X47940000Y-80960000D03*
X47940000Y-83500000D03*
X45400000Y-80960000D03*
G36*
G01*
X46250000Y-84550000D02*
X44550000Y-84550000D01*
G75*
G02*
X44350000Y-84350000I0J200000D01*
G01*
X44350000Y-82650000D01*
G75*
G02*
X44550000Y-82450000I200000J0D01*
G01*
X46250000Y-82450000D01*
G75*
G02*
X46450000Y-82650000I0J-200000D01*
G01*
X46450000Y-84350000D01*
G75*
G02*
X46250000Y-84550000I-200000J0D01*
G01*
G37*
%TD*%
D13*
%TO.C,SW1*%
X44130000Y-31430000D03*
X56830000Y-39050000D03*
X46670000Y-31430000D03*
X54290000Y-39050000D03*
X49210000Y-31430000D03*
X51750000Y-39050000D03*
X51750000Y-31430000D03*
X49210000Y-39050000D03*
X54290000Y-31430000D03*
X46670000Y-39050000D03*
X56830000Y-31430000D03*
G36*
G01*
X44930000Y-40050000D02*
X43330000Y-40050000D01*
G75*
G02*
X43130000Y-39850000I0J200000D01*
G01*
X43130000Y-38250000D01*
G75*
G02*
X43330000Y-38050000I200000J0D01*
G01*
X44930000Y-38050000D01*
G75*
G02*
X45130000Y-38250000I0J-200000D01*
G01*
X45130000Y-39850000D01*
G75*
G02*
X44930000Y-40050000I-200000J0D01*
G01*
G37*
%TD*%
D16*
%TO.C,SW5*%
X31280000Y-27620000D03*
X31280000Y-23120000D03*
X37780000Y-27620000D03*
X37780000Y-23120000D03*
%TD*%
%TO.C,SW4*%
X63030000Y-27620000D03*
X63030000Y-23120000D03*
X69530000Y-27620000D03*
X69530000Y-23120000D03*
%TD*%
D13*
%TO.C,R16*%
X37780000Y-31430000D03*
D12*
X37780000Y-39050000D03*
%TD*%
D13*
%TO.C,R15*%
X63180000Y-31430000D03*
D12*
X63180000Y-39050000D03*
%TD*%
D13*
%TO.C,R13*%
X66990000Y-39050000D03*
D12*
X66990000Y-31430000D03*
%TD*%
D13*
%TO.C,R12*%
X33970000Y-39050000D03*
D12*
X33970000Y-31430000D03*
%TD*%
D13*
%TO.C,R5*%
X49210000Y-22540000D03*
D12*
X41590000Y-22540000D03*
%TD*%
D13*
%TO.C,R4*%
X51750000Y-22540000D03*
D12*
X59370000Y-22540000D03*
%TD*%
D13*
%TO.C,R3*%
X55560000Y-78420000D03*
D12*
X63180000Y-78420000D03*
%TD*%
D13*
%TO.C,R2*%
X63180000Y-82230000D03*
D12*
X55560000Y-82230000D03*
%TD*%
D13*
%TO.C,R1*%
X63180000Y-86040000D03*
D12*
X55560000Y-86040000D03*
%TD*%
D15*
%TO.C,J4*%
X64450000Y-91120000D03*
X64450000Y-93660000D03*
X61910000Y-91120000D03*
X61910000Y-93660000D03*
X59370000Y-91120000D03*
X59370000Y-93660000D03*
X56830000Y-91120000D03*
X56830000Y-93660000D03*
X54290000Y-91120000D03*
G36*
G01*
X55140000Y-94710000D02*
X53440000Y-94710000D01*
G75*
G02*
X53240000Y-94510000I0J200000D01*
G01*
X53240000Y-92810000D01*
G75*
G02*
X53440000Y-92610000I200000J0D01*
G01*
X55140000Y-92610000D01*
G75*
G02*
X55340000Y-92810000I0J-200000D01*
G01*
X55340000Y-94510000D01*
G75*
G02*
X55140000Y-94710000I-200000J0D01*
G01*
G37*
%TD*%
%TO.C,J2*%
X39050000Y-83500000D03*
G36*
G01*
X37360000Y-84550000D02*
X35660000Y-84550000D01*
G75*
G02*
X35460000Y-84350000I0J200000D01*
G01*
X35460000Y-82650000D01*
G75*
G02*
X35660000Y-82450000I200000J0D01*
G01*
X37360000Y-82450000D01*
G75*
G02*
X37560000Y-82650000I0J-200000D01*
G01*
X37560000Y-84350000D01*
G75*
G02*
X37360000Y-84550000I-200000J0D01*
G01*
G37*
%TD*%
D14*
%TO.C,D1*%
X47940000Y-28255000D03*
G36*
G01*
X47040000Y-24615000D02*
X48840000Y-24615000D01*
G75*
G02*
X49040000Y-24815000I0J-200000D01*
G01*
X49040000Y-26615000D01*
G75*
G02*
X48840000Y-26815000I-200000J0D01*
G01*
X47040000Y-26815000D01*
G75*
G02*
X46840000Y-26615000I0J200000D01*
G01*
X46840000Y-24815000D01*
G75*
G02*
X47040000Y-24615000I200000J0D01*
G01*
G37*
%TD*%
%TO.C,D0*%
X53020000Y-28255000D03*
G36*
G01*
X52120000Y-24615000D02*
X53920000Y-24615000D01*
G75*
G02*
X54120000Y-24815000I0J-200000D01*
G01*
X54120000Y-26615000D01*
G75*
G02*
X53920000Y-26815000I-200000J0D01*
G01*
X52120000Y-26815000D01*
G75*
G02*
X51920000Y-26615000I0J200000D01*
G01*
X51920000Y-24815000D01*
G75*
G02*
X52120000Y-24615000I200000J0D01*
G01*
G37*
%TD*%
D12*
%TO.C,C4*%
X49210000Y-75840000D03*
G36*
G01*
X48410000Y-72340000D02*
X50010000Y-72340000D01*
G75*
G02*
X50210000Y-72540000I0J-200000D01*
G01*
X50210000Y-74140000D01*
G75*
G02*
X50010000Y-74340000I-200000J0D01*
G01*
X48410000Y-74340000D01*
G75*
G02*
X48210000Y-74140000I0J200000D01*
G01*
X48210000Y-72540000D01*
G75*
G02*
X48410000Y-72340000I200000J0D01*
G01*
G37*
%TD*%
%TO.C,C3*%
X66950000Y-58100000D03*
G36*
G01*
X63450000Y-58900000D02*
X63450000Y-57300000D01*
G75*
G02*
X63650000Y-57100000I200000J0D01*
G01*
X65250000Y-57100000D01*
G75*
G02*
X65450000Y-57300000I0J-200000D01*
G01*
X65450000Y-58900000D01*
G75*
G02*
X65250000Y-59100000I-200000J0D01*
G01*
X63650000Y-59100000D01*
G75*
G02*
X63450000Y-58900000I0J200000D01*
G01*
G37*
%TD*%
%TO.C,C2*%
X34010000Y-63180000D03*
G36*
G01*
X37510000Y-62380000D02*
X37510000Y-63980000D01*
G75*
G02*
X37310000Y-64180000I-200000J0D01*
G01*
X35710000Y-64180000D01*
G75*
G02*
X35510000Y-63980000I0J200000D01*
G01*
X35510000Y-62380000D01*
G75*
G02*
X35710000Y-62180000I200000J0D01*
G01*
X37310000Y-62180000D01*
G75*
G02*
X37510000Y-62380000I0J-200000D01*
G01*
G37*
%TD*%
%TO.C,C1*%
X49210000Y-42900000D03*
G36*
G01*
X50010000Y-46400000D02*
X48410000Y-46400000D01*
G75*
G02*
X48210000Y-46200000I0J200000D01*
G01*
X48210000Y-44600000D01*
G75*
G02*
X48410000Y-44400000I200000J0D01*
G01*
X50010000Y-44400000D01*
G75*
G02*
X50210000Y-44600000I0J-200000D01*
G01*
X50210000Y-46200000D01*
G75*
G02*
X50010000Y-46400000I-200000J0D01*
G01*
G37*
%TD*%
D17*
%TO.C,U1*%
X59370000Y-53020000D03*
X59370000Y-55560000D03*
X59370000Y-58100000D03*
X59370000Y-60640000D03*
X59370000Y-63180000D03*
X56830000Y-50480000D03*
X56830000Y-55560000D03*
X56830000Y-58100000D03*
X56830000Y-60640000D03*
X56830000Y-63180000D03*
X56830000Y-65720000D03*
X56830000Y-68260000D03*
X54290000Y-68260000D03*
X51750000Y-68260000D03*
X49210000Y-68260000D03*
X46670000Y-68260000D03*
X44130000Y-68260000D03*
X59370000Y-65720000D03*
X54290000Y-65720000D03*
X51750000Y-65720000D03*
X49210000Y-65720000D03*
X46670000Y-65720000D03*
X44130000Y-65720000D03*
X41590000Y-65720000D03*
X41590000Y-63180000D03*
X41590000Y-60640000D03*
X41590000Y-58100000D03*
X41590000Y-55560000D03*
X41590000Y-53020000D03*
X44130000Y-63180000D03*
X44130000Y-60640000D03*
X44130000Y-58100000D03*
X44130000Y-55560000D03*
X44130000Y-53020000D03*
X54290000Y-50480000D03*
X51750000Y-50480000D03*
X44130000Y-50480000D03*
X46670000Y-50480000D03*
X49210000Y-50480000D03*
X56830000Y-53020000D03*
X54290000Y-53020000D03*
X46670000Y-53020000D03*
X49210000Y-53020000D03*
G36*
G01*
X50838800Y-53731200D02*
X50838800Y-52308800D01*
G75*
G02*
X51038800Y-52108800I200000J0D01*
G01*
X52461200Y-52108800D01*
G75*
G02*
X52661200Y-52308800I0J-200000D01*
G01*
X52661200Y-53731200D01*
G75*
G02*
X52461200Y-53931200I-200000J0D01*
G01*
X51038800Y-53931200D01*
G75*
G02*
X50838800Y-53731200I0J200000D01*
G01*
G37*
%TD*%
D15*
%TO.C,J5*%
X74610000Y-32700000D03*
X74610000Y-35240000D03*
X74610000Y-37780000D03*
X74610000Y-40320000D03*
X74610000Y-42860000D03*
X74610000Y-45400000D03*
X74610000Y-47940000D03*
X74610000Y-50480000D03*
X74610000Y-53020000D03*
X74610000Y-55560000D03*
X74610000Y-58100000D03*
X74610000Y-60640000D03*
X74610000Y-63180000D03*
X74610000Y-65720000D03*
X74610000Y-68260000D03*
X74610000Y-70800000D03*
X74610000Y-73340000D03*
X74610000Y-75880000D03*
X74610000Y-78420000D03*
X74610000Y-80960000D03*
X74610000Y-83500000D03*
G36*
G01*
X75660000Y-85190000D02*
X75660000Y-86890000D01*
G75*
G02*
X75460000Y-87090000I-200000J0D01*
G01*
X73760000Y-87090000D01*
G75*
G02*
X73560000Y-86890000I0J200000D01*
G01*
X73560000Y-85190000D01*
G75*
G02*
X73760000Y-84990000I200000J0D01*
G01*
X75460000Y-84990000D01*
G75*
G02*
X75660000Y-85190000I0J-200000D01*
G01*
G37*
%TD*%
%TO.C,J3*%
X26350000Y-86040000D03*
X26350000Y-83500000D03*
X26350000Y-80960000D03*
X26350000Y-78420000D03*
X26350000Y-75880000D03*
X26350000Y-73340000D03*
X26350000Y-70800000D03*
X26350000Y-68260000D03*
X26350000Y-65720000D03*
X26350000Y-63180000D03*
X26350000Y-60640000D03*
X26350000Y-58100000D03*
X26350000Y-55560000D03*
X26350000Y-53020000D03*
X26350000Y-50480000D03*
X26350000Y-47940000D03*
X26350000Y-45400000D03*
X26350000Y-42860000D03*
X26350000Y-40320000D03*
X26350000Y-37780000D03*
X26350000Y-35240000D03*
G36*
G01*
X25300000Y-33550000D02*
X25300000Y-31850000D01*
G75*
G02*
X25500000Y-31650000I200000J0D01*
G01*
X27200000Y-31650000D01*
G75*
G02*
X27400000Y-31850000I0J-200000D01*
G01*
X27400000Y-33550000D01*
G75*
G02*
X27200000Y-33750000I-200000J0D01*
G01*
X25500000Y-33750000D01*
G75*
G02*
X25300000Y-33550000I0J200000D01*
G01*
G37*
%TD*%
D18*
G36*
X41027395Y-90849000D02*
G01*
X41027395Y-90851000D01*
X41025859Y-90851990D01*
X41001672Y-90854372D01*
X40978597Y-90861372D01*
X40957333Y-90872737D01*
X40938696Y-90888032D01*
X40923401Y-90906669D01*
X40912036Y-90927933D01*
X40905036Y-90951008D01*
X40902673Y-90974999D01*
X40905036Y-90998990D01*
X40912036Y-91022065D01*
X40923401Y-91043329D01*
X40938696Y-91061966D01*
X40952744Y-91073494D01*
X40953448Y-91075366D01*
X40952180Y-91076912D01*
X40950364Y-91076703D01*
X40790450Y-90969852D01*
X40609703Y-90894984D01*
X40417818Y-90856815D01*
X40222182Y-90856815D01*
X40030297Y-90894984D01*
X39849550Y-90969852D01*
X39689635Y-91076704D01*
X39687639Y-91076835D01*
X39686528Y-91075172D01*
X39687255Y-91073495D01*
X39701305Y-91061964D01*
X39716600Y-91043327D01*
X39727965Y-91022063D01*
X39734965Y-90998988D01*
X39737327Y-90974997D01*
X39734964Y-90951006D01*
X39727963Y-90927931D01*
X39716598Y-90906668D01*
X39701302Y-90888031D01*
X39682665Y-90872736D01*
X39661401Y-90861371D01*
X39638326Y-90854371D01*
X39614141Y-90851990D01*
X39612515Y-90850825D01*
X39612711Y-90848835D01*
X39614337Y-90848000D01*
X41025663Y-90848000D01*
X41027395Y-90849000D01*
G37*
G36*
X38279369Y-90735821D02*
G01*
X38280134Y-90737669D01*
X38279094Y-90739172D01*
X38263066Y-90747738D01*
X38244429Y-90763033D01*
X38229134Y-90781670D01*
X38217769Y-90802934D01*
X38210769Y-90826009D01*
X38208406Y-90850000D01*
X38210769Y-90873991D01*
X38217769Y-90897066D01*
X38229134Y-90918330D01*
X38244429Y-90936967D01*
X38263066Y-90952262D01*
X38279094Y-90960828D01*
X38280150Y-90962527D01*
X38279207Y-90964290D01*
X38277386Y-90964440D01*
X38109703Y-90894984D01*
X37917818Y-90856815D01*
X37722182Y-90856815D01*
X37530297Y-90894984D01*
X37362614Y-90964440D01*
X37360631Y-90964179D01*
X37359866Y-90962331D01*
X37360906Y-90960828D01*
X37376934Y-90952262D01*
X37395571Y-90936967D01*
X37410866Y-90918330D01*
X37422231Y-90897066D01*
X37429231Y-90873991D01*
X37431594Y-90850000D01*
X37429231Y-90826009D01*
X37422231Y-90802934D01*
X37410866Y-90781670D01*
X37395571Y-90763033D01*
X37376934Y-90747738D01*
X37360906Y-90739172D01*
X37359850Y-90737473D01*
X37360793Y-90735710D01*
X37362614Y-90735560D01*
X37530297Y-90805016D01*
X37722182Y-90843185D01*
X37917818Y-90843185D01*
X38109703Y-90805016D01*
X38277386Y-90735560D01*
X38279369Y-90735821D01*
G37*
M02*
