%TF.GenerationSoftware,KiCad,Pcbnew,(5.1.7)-1*%
%TF.CreationDate,2022-03-21T18:16:10-03:00*%
%TF.ProjectId,ROMAdaptor,524f4d41-6461-4707-946f-722e6b696361,rev?*%
%TF.SameCoordinates,Original*%
%TF.FileFunction,Copper,L2,Bot*%
%TF.FilePolarity,Positive*%
%FSLAX46Y46*%
G04 Gerber Fmt 4.6, Leading zero omitted, Abs format (unit mm)*
G04 Created by KiCad (PCBNEW (5.1.7)-1) date 2022-03-21 18:16:10*
%MOMM*%
%LPD*%
G01*
G04 APERTURE LIST*
%TA.AperFunction,ComponentPad*%
%ADD10C,1.600000*%
%TD*%
%TA.AperFunction,ComponentPad*%
%ADD11O,2.400000X1.600000*%
%TD*%
%TA.AperFunction,ComponentPad*%
%ADD12R,2.400000X1.600000*%
%TD*%
%TA.AperFunction,ComponentPad*%
%ADD13O,1.700000X1.700000*%
%TD*%
%TA.AperFunction,ComponentPad*%
%ADD14R,1.700000X1.700000*%
%TD*%
%TA.AperFunction,ViaPad*%
%ADD15C,0.800000*%
%TD*%
%TA.AperFunction,Conductor*%
%ADD16C,0.254000*%
%TD*%
%TA.AperFunction,Conductor*%
%ADD17C,0.100000*%
%TD*%
G04 APERTURE END LIST*
D10*
%TO.P,C1,2*%
%TO.N,GND*%
X46990000Y-38060000D03*
%TO.P,C1,1*%
%TO.N,+5V*%
X46990000Y-35560000D03*
%TD*%
D11*
%TO.P,U1,32*%
%TO.N,+5V*%
X43180000Y-35560000D03*
%TO.P,U1,16*%
%TO.N,GND*%
X27940000Y-73660000D03*
%TO.P,U1,31*%
%TO.N,/WR_N*%
X43180000Y-38100000D03*
%TO.P,U1,15*%
%TO.N,/D2*%
X27940000Y-71120000D03*
%TO.P,U1,30*%
%TO.N,/A17*%
X43180000Y-40640000D03*
%TO.P,U1,14*%
%TO.N,/D1*%
X27940000Y-68580000D03*
%TO.P,U1,29*%
%TO.N,/A14*%
X43180000Y-43180000D03*
%TO.P,U1,13*%
%TO.N,/D0*%
X27940000Y-66040000D03*
%TO.P,U1,28*%
%TO.N,/A13*%
X43180000Y-45720000D03*
%TO.P,U1,12*%
%TO.N,/A0*%
X27940000Y-63500000D03*
%TO.P,U1,27*%
%TO.N,/A8*%
X43180000Y-48260000D03*
%TO.P,U1,11*%
%TO.N,/A1*%
X27940000Y-60960000D03*
%TO.P,U1,26*%
%TO.N,/A9*%
X43180000Y-50800000D03*
%TO.P,U1,10*%
%TO.N,/A2*%
X27940000Y-58420000D03*
%TO.P,U1,25*%
%TO.N,/A11*%
X43180000Y-53340000D03*
%TO.P,U1,9*%
%TO.N,/A3*%
X27940000Y-55880000D03*
%TO.P,U1,24*%
%TO.N,/RD_N*%
X43180000Y-55880000D03*
%TO.P,U1,8*%
%TO.N,/A4*%
X27940000Y-53340000D03*
%TO.P,U1,23*%
%TO.N,/A10*%
X43180000Y-58420000D03*
%TO.P,U1,7*%
%TO.N,/A5*%
X27940000Y-50800000D03*
%TO.P,U1,22*%
%TO.N,/ROMCS_N*%
X43180000Y-60960000D03*
%TO.P,U1,6*%
%TO.N,/A6*%
X27940000Y-48260000D03*
%TO.P,U1,21*%
%TO.N,/D7*%
X43180000Y-63500000D03*
%TO.P,U1,5*%
%TO.N,/A7*%
X27940000Y-45720000D03*
%TO.P,U1,20*%
%TO.N,/D6*%
X43180000Y-66040000D03*
%TO.P,U1,4*%
%TO.N,/A12*%
X27940000Y-43180000D03*
%TO.P,U1,19*%
%TO.N,/D5*%
X43180000Y-68580000D03*
%TO.P,U1,3*%
%TO.N,/A15*%
X27940000Y-40640000D03*
%TO.P,U1,18*%
%TO.N,/D4*%
X43180000Y-71120000D03*
%TO.P,U1,2*%
%TO.N,/A16*%
X27940000Y-38100000D03*
%TO.P,U1,17*%
%TO.N,/D3*%
X43180000Y-73660000D03*
D12*
%TO.P,U1,1*%
%TO.N,/A18*%
X27940000Y-35560000D03*
%TD*%
D13*
%TO.P,J2,16*%
%TO.N,+5V*%
X52070000Y-35560000D03*
%TO.P,J2,15*%
%TO.N,/WR_N*%
X52070000Y-38100000D03*
%TO.P,J2,14*%
%TO.N,/A17*%
X52070000Y-40640000D03*
%TO.P,J2,13*%
%TO.N,/A14*%
X52070000Y-43180000D03*
%TO.P,J2,12*%
%TO.N,/A13*%
X52070000Y-45720000D03*
%TO.P,J2,11*%
%TO.N,/A8*%
X52070000Y-48260000D03*
%TO.P,J2,10*%
%TO.N,/A9*%
X52070000Y-50800000D03*
%TO.P,J2,9*%
%TO.N,/A11*%
X52070000Y-53340000D03*
%TO.P,J2,8*%
%TO.N,/RD_N*%
X52070000Y-55880000D03*
%TO.P,J2,7*%
%TO.N,/A10*%
X52070000Y-58420000D03*
%TO.P,J2,6*%
%TO.N,/ROMCS_N*%
X52070000Y-60960000D03*
%TO.P,J2,5*%
%TO.N,/D7*%
X52070000Y-63500000D03*
%TO.P,J2,4*%
%TO.N,/D6*%
X52070000Y-66040000D03*
%TO.P,J2,3*%
%TO.N,/D5*%
X52070000Y-68580000D03*
%TO.P,J2,2*%
%TO.N,/D4*%
X52070000Y-71120000D03*
D14*
%TO.P,J2,1*%
%TO.N,/D3*%
X52070000Y-73660000D03*
%TD*%
D13*
%TO.P,J1,16*%
%TO.N,GND*%
X33020000Y-73660000D03*
%TO.P,J1,15*%
%TO.N,/D2*%
X33020000Y-71120000D03*
%TO.P,J1,14*%
%TO.N,/D1*%
X33020000Y-68580000D03*
%TO.P,J1,13*%
%TO.N,/D0*%
X33020000Y-66040000D03*
%TO.P,J1,12*%
%TO.N,/A0*%
X33020000Y-63500000D03*
%TO.P,J1,11*%
%TO.N,/A1*%
X33020000Y-60960000D03*
%TO.P,J1,10*%
%TO.N,/A2*%
X33020000Y-58420000D03*
%TO.P,J1,9*%
%TO.N,/A3*%
X33020000Y-55880000D03*
%TO.P,J1,8*%
%TO.N,/A4*%
X33020000Y-53340000D03*
%TO.P,J1,7*%
%TO.N,/A5*%
X33020000Y-50800000D03*
%TO.P,J1,6*%
%TO.N,/A6*%
X33020000Y-48260000D03*
%TO.P,J1,5*%
%TO.N,/A7*%
X33020000Y-45720000D03*
%TO.P,J1,4*%
%TO.N,/A12*%
X33020000Y-43180000D03*
%TO.P,J1,3*%
%TO.N,/A15*%
X33020000Y-40640000D03*
%TO.P,J1,2*%
%TO.N,/A16*%
X33020000Y-38100000D03*
D14*
%TO.P,J1,1*%
%TO.N,/A18*%
X33020000Y-35560000D03*
%TD*%
D15*
%TO.N,GND*%
X36830000Y-36830000D03*
X39370000Y-36830000D03*
X36830000Y-72390000D03*
X39370000Y-72390000D03*
X36830000Y-54610000D03*
X39370000Y-54610000D03*
X36830000Y-45720000D03*
X39370000Y-45720000D03*
X36830000Y-63500000D03*
X39370000Y-63500000D03*
%TD*%
D16*
%TO.N,GND*%
X53457869Y-33694722D02*
X53571246Y-33728953D01*
X53675819Y-33784555D01*
X53767596Y-33859407D01*
X53843091Y-33950664D01*
X53899419Y-34054844D01*
X53934440Y-34167976D01*
X53950000Y-34316022D01*
X53950001Y-74897711D01*
X53935278Y-75047869D01*
X53901047Y-75161246D01*
X53845446Y-75265817D01*
X53770594Y-75357595D01*
X53679335Y-75433091D01*
X53575160Y-75489419D01*
X53462024Y-75524440D01*
X53313979Y-75540000D01*
X26702279Y-75540000D01*
X26552131Y-75525278D01*
X26438754Y-75491047D01*
X26334183Y-75435446D01*
X26242405Y-75360594D01*
X26166909Y-75269335D01*
X26110581Y-75165160D01*
X26075560Y-75052024D01*
X26060000Y-74903979D01*
X26060000Y-74009039D01*
X26148096Y-74009039D01*
X26165633Y-74091818D01*
X26276285Y-74351646D01*
X26435500Y-74584895D01*
X26637161Y-74782601D01*
X26873517Y-74937166D01*
X27135486Y-75042650D01*
X27413000Y-75095000D01*
X27813000Y-75095000D01*
X27813000Y-73787000D01*
X28067000Y-73787000D01*
X28067000Y-75095000D01*
X28467000Y-75095000D01*
X28744514Y-75042650D01*
X29006483Y-74937166D01*
X29242839Y-74782601D01*
X29444500Y-74584895D01*
X29603715Y-74351646D01*
X29714367Y-74091818D01*
X29730240Y-74016890D01*
X31578524Y-74016890D01*
X31623175Y-74164099D01*
X31748359Y-74426920D01*
X31922412Y-74660269D01*
X32138645Y-74855178D01*
X32388748Y-75004157D01*
X32663109Y-75101481D01*
X32893000Y-74980814D01*
X32893000Y-73787000D01*
X33147000Y-73787000D01*
X33147000Y-74980814D01*
X33376891Y-75101481D01*
X33651252Y-75004157D01*
X33901355Y-74855178D01*
X34117588Y-74660269D01*
X34291641Y-74426920D01*
X34416825Y-74164099D01*
X34461476Y-74016890D01*
X34340155Y-73787000D01*
X33147000Y-73787000D01*
X32893000Y-73787000D01*
X31699845Y-73787000D01*
X31578524Y-74016890D01*
X29730240Y-74016890D01*
X29731904Y-74009039D01*
X29609915Y-73787000D01*
X28067000Y-73787000D01*
X27813000Y-73787000D01*
X26270085Y-73787000D01*
X26148096Y-74009039D01*
X26060000Y-74009039D01*
X26060000Y-38100000D01*
X26098057Y-38100000D01*
X26125764Y-38381309D01*
X26207818Y-38651808D01*
X26341068Y-38901101D01*
X26520392Y-39119608D01*
X26738899Y-39298932D01*
X26871858Y-39370000D01*
X26738899Y-39441068D01*
X26520392Y-39620392D01*
X26341068Y-39838899D01*
X26207818Y-40088192D01*
X26125764Y-40358691D01*
X26098057Y-40640000D01*
X26125764Y-40921309D01*
X26207818Y-41191808D01*
X26341068Y-41441101D01*
X26520392Y-41659608D01*
X26738899Y-41838932D01*
X26871858Y-41910000D01*
X26738899Y-41981068D01*
X26520392Y-42160392D01*
X26341068Y-42378899D01*
X26207818Y-42628192D01*
X26125764Y-42898691D01*
X26098057Y-43180000D01*
X26125764Y-43461309D01*
X26207818Y-43731808D01*
X26341068Y-43981101D01*
X26520392Y-44199608D01*
X26738899Y-44378932D01*
X26871858Y-44450000D01*
X26738899Y-44521068D01*
X26520392Y-44700392D01*
X26341068Y-44918899D01*
X26207818Y-45168192D01*
X26125764Y-45438691D01*
X26098057Y-45720000D01*
X26125764Y-46001309D01*
X26207818Y-46271808D01*
X26341068Y-46521101D01*
X26520392Y-46739608D01*
X26738899Y-46918932D01*
X26871858Y-46990000D01*
X26738899Y-47061068D01*
X26520392Y-47240392D01*
X26341068Y-47458899D01*
X26207818Y-47708192D01*
X26125764Y-47978691D01*
X26098057Y-48260000D01*
X26125764Y-48541309D01*
X26207818Y-48811808D01*
X26341068Y-49061101D01*
X26520392Y-49279608D01*
X26738899Y-49458932D01*
X26871858Y-49530000D01*
X26738899Y-49601068D01*
X26520392Y-49780392D01*
X26341068Y-49998899D01*
X26207818Y-50248192D01*
X26125764Y-50518691D01*
X26098057Y-50800000D01*
X26125764Y-51081309D01*
X26207818Y-51351808D01*
X26341068Y-51601101D01*
X26520392Y-51819608D01*
X26738899Y-51998932D01*
X26871858Y-52070000D01*
X26738899Y-52141068D01*
X26520392Y-52320392D01*
X26341068Y-52538899D01*
X26207818Y-52788192D01*
X26125764Y-53058691D01*
X26098057Y-53340000D01*
X26125764Y-53621309D01*
X26207818Y-53891808D01*
X26341068Y-54141101D01*
X26520392Y-54359608D01*
X26738899Y-54538932D01*
X26871858Y-54610000D01*
X26738899Y-54681068D01*
X26520392Y-54860392D01*
X26341068Y-55078899D01*
X26207818Y-55328192D01*
X26125764Y-55598691D01*
X26098057Y-55880000D01*
X26125764Y-56161309D01*
X26207818Y-56431808D01*
X26341068Y-56681101D01*
X26520392Y-56899608D01*
X26738899Y-57078932D01*
X26871858Y-57150000D01*
X26738899Y-57221068D01*
X26520392Y-57400392D01*
X26341068Y-57618899D01*
X26207818Y-57868192D01*
X26125764Y-58138691D01*
X26098057Y-58420000D01*
X26125764Y-58701309D01*
X26207818Y-58971808D01*
X26341068Y-59221101D01*
X26520392Y-59439608D01*
X26738899Y-59618932D01*
X26871858Y-59690000D01*
X26738899Y-59761068D01*
X26520392Y-59940392D01*
X26341068Y-60158899D01*
X26207818Y-60408192D01*
X26125764Y-60678691D01*
X26098057Y-60960000D01*
X26125764Y-61241309D01*
X26207818Y-61511808D01*
X26341068Y-61761101D01*
X26520392Y-61979608D01*
X26738899Y-62158932D01*
X26871858Y-62230000D01*
X26738899Y-62301068D01*
X26520392Y-62480392D01*
X26341068Y-62698899D01*
X26207818Y-62948192D01*
X26125764Y-63218691D01*
X26098057Y-63500000D01*
X26125764Y-63781309D01*
X26207818Y-64051808D01*
X26341068Y-64301101D01*
X26520392Y-64519608D01*
X26738899Y-64698932D01*
X26871858Y-64770000D01*
X26738899Y-64841068D01*
X26520392Y-65020392D01*
X26341068Y-65238899D01*
X26207818Y-65488192D01*
X26125764Y-65758691D01*
X26098057Y-66040000D01*
X26125764Y-66321309D01*
X26207818Y-66591808D01*
X26341068Y-66841101D01*
X26520392Y-67059608D01*
X26738899Y-67238932D01*
X26871858Y-67310000D01*
X26738899Y-67381068D01*
X26520392Y-67560392D01*
X26341068Y-67778899D01*
X26207818Y-68028192D01*
X26125764Y-68298691D01*
X26098057Y-68580000D01*
X26125764Y-68861309D01*
X26207818Y-69131808D01*
X26341068Y-69381101D01*
X26520392Y-69599608D01*
X26738899Y-69778932D01*
X26871858Y-69850000D01*
X26738899Y-69921068D01*
X26520392Y-70100392D01*
X26341068Y-70318899D01*
X26207818Y-70568192D01*
X26125764Y-70838691D01*
X26098057Y-71120000D01*
X26125764Y-71401309D01*
X26207818Y-71671808D01*
X26341068Y-71921101D01*
X26520392Y-72139608D01*
X26738899Y-72318932D01*
X26866741Y-72387265D01*
X26637161Y-72537399D01*
X26435500Y-72735105D01*
X26276285Y-72968354D01*
X26165633Y-73228182D01*
X26148096Y-73310961D01*
X26270085Y-73533000D01*
X27813000Y-73533000D01*
X27813000Y-73513000D01*
X28067000Y-73513000D01*
X28067000Y-73533000D01*
X29609915Y-73533000D01*
X29731904Y-73310961D01*
X29714367Y-73228182D01*
X29603715Y-72968354D01*
X29444500Y-72735105D01*
X29242839Y-72537399D01*
X29013259Y-72387265D01*
X29141101Y-72318932D01*
X29359608Y-72139608D01*
X29538932Y-71921101D01*
X29672182Y-71671808D01*
X29754236Y-71401309D01*
X29781943Y-71120000D01*
X29754236Y-70838691D01*
X29672182Y-70568192D01*
X29538932Y-70318899D01*
X29359608Y-70100392D01*
X29141101Y-69921068D01*
X29008142Y-69850000D01*
X29141101Y-69778932D01*
X29359608Y-69599608D01*
X29538932Y-69381101D01*
X29672182Y-69131808D01*
X29754236Y-68861309D01*
X29781943Y-68580000D01*
X29754236Y-68298691D01*
X29672182Y-68028192D01*
X29538932Y-67778899D01*
X29359608Y-67560392D01*
X29141101Y-67381068D01*
X29008142Y-67310000D01*
X29141101Y-67238932D01*
X29359608Y-67059608D01*
X29538932Y-66841101D01*
X29672182Y-66591808D01*
X29754236Y-66321309D01*
X29781943Y-66040000D01*
X29754236Y-65758691D01*
X29672182Y-65488192D01*
X29538932Y-65238899D01*
X29359608Y-65020392D01*
X29141101Y-64841068D01*
X29008142Y-64770000D01*
X29141101Y-64698932D01*
X29359608Y-64519608D01*
X29538932Y-64301101D01*
X29672182Y-64051808D01*
X29754236Y-63781309D01*
X29781943Y-63500000D01*
X29754236Y-63218691D01*
X29672182Y-62948192D01*
X29538932Y-62698899D01*
X29359608Y-62480392D01*
X29141101Y-62301068D01*
X29008142Y-62230000D01*
X29141101Y-62158932D01*
X29359608Y-61979608D01*
X29538932Y-61761101D01*
X29672182Y-61511808D01*
X29754236Y-61241309D01*
X29781943Y-60960000D01*
X29754236Y-60678691D01*
X29672182Y-60408192D01*
X29538932Y-60158899D01*
X29359608Y-59940392D01*
X29141101Y-59761068D01*
X29008142Y-59690000D01*
X29141101Y-59618932D01*
X29359608Y-59439608D01*
X29538932Y-59221101D01*
X29672182Y-58971808D01*
X29754236Y-58701309D01*
X29781943Y-58420000D01*
X29754236Y-58138691D01*
X29672182Y-57868192D01*
X29538932Y-57618899D01*
X29359608Y-57400392D01*
X29141101Y-57221068D01*
X29008142Y-57150000D01*
X29141101Y-57078932D01*
X29359608Y-56899608D01*
X29538932Y-56681101D01*
X29672182Y-56431808D01*
X29754236Y-56161309D01*
X29781943Y-55880000D01*
X29754236Y-55598691D01*
X29672182Y-55328192D01*
X29538932Y-55078899D01*
X29359608Y-54860392D01*
X29141101Y-54681068D01*
X29008142Y-54610000D01*
X29141101Y-54538932D01*
X29359608Y-54359608D01*
X29538932Y-54141101D01*
X29672182Y-53891808D01*
X29754236Y-53621309D01*
X29781943Y-53340000D01*
X29754236Y-53058691D01*
X29672182Y-52788192D01*
X29538932Y-52538899D01*
X29359608Y-52320392D01*
X29141101Y-52141068D01*
X29008142Y-52070000D01*
X29141101Y-51998932D01*
X29359608Y-51819608D01*
X29538932Y-51601101D01*
X29672182Y-51351808D01*
X29754236Y-51081309D01*
X29781943Y-50800000D01*
X29754236Y-50518691D01*
X29672182Y-50248192D01*
X29538932Y-49998899D01*
X29359608Y-49780392D01*
X29141101Y-49601068D01*
X29008142Y-49530000D01*
X29141101Y-49458932D01*
X29359608Y-49279608D01*
X29538932Y-49061101D01*
X29672182Y-48811808D01*
X29754236Y-48541309D01*
X29781943Y-48260000D01*
X29754236Y-47978691D01*
X29672182Y-47708192D01*
X29538932Y-47458899D01*
X29359608Y-47240392D01*
X29141101Y-47061068D01*
X29008142Y-46990000D01*
X29141101Y-46918932D01*
X29359608Y-46739608D01*
X29538932Y-46521101D01*
X29672182Y-46271808D01*
X29754236Y-46001309D01*
X29781943Y-45720000D01*
X29754236Y-45438691D01*
X29672182Y-45168192D01*
X29538932Y-44918899D01*
X29359608Y-44700392D01*
X29141101Y-44521068D01*
X29008142Y-44450000D01*
X29141101Y-44378932D01*
X29359608Y-44199608D01*
X29538932Y-43981101D01*
X29672182Y-43731808D01*
X29754236Y-43461309D01*
X29781943Y-43180000D01*
X29754236Y-42898691D01*
X29672182Y-42628192D01*
X29538932Y-42378899D01*
X29359608Y-42160392D01*
X29141101Y-41981068D01*
X29008142Y-41910000D01*
X29141101Y-41838932D01*
X29359608Y-41659608D01*
X29538932Y-41441101D01*
X29672182Y-41191808D01*
X29754236Y-40921309D01*
X29781943Y-40640000D01*
X29754236Y-40358691D01*
X29672182Y-40088192D01*
X29538932Y-39838899D01*
X29359608Y-39620392D01*
X29141101Y-39441068D01*
X29008142Y-39370000D01*
X29141101Y-39298932D01*
X29359608Y-39119608D01*
X29538932Y-38901101D01*
X29672182Y-38651808D01*
X29754236Y-38381309D01*
X29781943Y-38100000D01*
X29754236Y-37818691D01*
X29672182Y-37548192D01*
X29538932Y-37298899D01*
X29359608Y-37080392D01*
X29246518Y-36987581D01*
X29264482Y-36985812D01*
X29384180Y-36949502D01*
X29494494Y-36890537D01*
X29591185Y-36811185D01*
X29670537Y-36714494D01*
X29729502Y-36604180D01*
X29765812Y-36484482D01*
X29778072Y-36360000D01*
X29778072Y-34760000D01*
X29773148Y-34710000D01*
X31531928Y-34710000D01*
X31531928Y-36410000D01*
X31544188Y-36534482D01*
X31580498Y-36654180D01*
X31639463Y-36764494D01*
X31718815Y-36861185D01*
X31815506Y-36940537D01*
X31925820Y-36999502D01*
X31998380Y-37021513D01*
X31866525Y-37153368D01*
X31704010Y-37396589D01*
X31592068Y-37666842D01*
X31535000Y-37953740D01*
X31535000Y-38246260D01*
X31592068Y-38533158D01*
X31704010Y-38803411D01*
X31866525Y-39046632D01*
X32073368Y-39253475D01*
X32247760Y-39370000D01*
X32073368Y-39486525D01*
X31866525Y-39693368D01*
X31704010Y-39936589D01*
X31592068Y-40206842D01*
X31535000Y-40493740D01*
X31535000Y-40786260D01*
X31592068Y-41073158D01*
X31704010Y-41343411D01*
X31866525Y-41586632D01*
X32073368Y-41793475D01*
X32247760Y-41910000D01*
X32073368Y-42026525D01*
X31866525Y-42233368D01*
X31704010Y-42476589D01*
X31592068Y-42746842D01*
X31535000Y-43033740D01*
X31535000Y-43326260D01*
X31592068Y-43613158D01*
X31704010Y-43883411D01*
X31866525Y-44126632D01*
X32073368Y-44333475D01*
X32247760Y-44450000D01*
X32073368Y-44566525D01*
X31866525Y-44773368D01*
X31704010Y-45016589D01*
X31592068Y-45286842D01*
X31535000Y-45573740D01*
X31535000Y-45866260D01*
X31592068Y-46153158D01*
X31704010Y-46423411D01*
X31866525Y-46666632D01*
X32073368Y-46873475D01*
X32247760Y-46990000D01*
X32073368Y-47106525D01*
X31866525Y-47313368D01*
X31704010Y-47556589D01*
X31592068Y-47826842D01*
X31535000Y-48113740D01*
X31535000Y-48406260D01*
X31592068Y-48693158D01*
X31704010Y-48963411D01*
X31866525Y-49206632D01*
X32073368Y-49413475D01*
X32247760Y-49530000D01*
X32073368Y-49646525D01*
X31866525Y-49853368D01*
X31704010Y-50096589D01*
X31592068Y-50366842D01*
X31535000Y-50653740D01*
X31535000Y-50946260D01*
X31592068Y-51233158D01*
X31704010Y-51503411D01*
X31866525Y-51746632D01*
X32073368Y-51953475D01*
X32247760Y-52070000D01*
X32073368Y-52186525D01*
X31866525Y-52393368D01*
X31704010Y-52636589D01*
X31592068Y-52906842D01*
X31535000Y-53193740D01*
X31535000Y-53486260D01*
X31592068Y-53773158D01*
X31704010Y-54043411D01*
X31866525Y-54286632D01*
X32073368Y-54493475D01*
X32247760Y-54610000D01*
X32073368Y-54726525D01*
X31866525Y-54933368D01*
X31704010Y-55176589D01*
X31592068Y-55446842D01*
X31535000Y-55733740D01*
X31535000Y-56026260D01*
X31592068Y-56313158D01*
X31704010Y-56583411D01*
X31866525Y-56826632D01*
X32073368Y-57033475D01*
X32247760Y-57150000D01*
X32073368Y-57266525D01*
X31866525Y-57473368D01*
X31704010Y-57716589D01*
X31592068Y-57986842D01*
X31535000Y-58273740D01*
X31535000Y-58566260D01*
X31592068Y-58853158D01*
X31704010Y-59123411D01*
X31866525Y-59366632D01*
X32073368Y-59573475D01*
X32247760Y-59690000D01*
X32073368Y-59806525D01*
X31866525Y-60013368D01*
X31704010Y-60256589D01*
X31592068Y-60526842D01*
X31535000Y-60813740D01*
X31535000Y-61106260D01*
X31592068Y-61393158D01*
X31704010Y-61663411D01*
X31866525Y-61906632D01*
X32073368Y-62113475D01*
X32247760Y-62230000D01*
X32073368Y-62346525D01*
X31866525Y-62553368D01*
X31704010Y-62796589D01*
X31592068Y-63066842D01*
X31535000Y-63353740D01*
X31535000Y-63646260D01*
X31592068Y-63933158D01*
X31704010Y-64203411D01*
X31866525Y-64446632D01*
X32073368Y-64653475D01*
X32247760Y-64770000D01*
X32073368Y-64886525D01*
X31866525Y-65093368D01*
X31704010Y-65336589D01*
X31592068Y-65606842D01*
X31535000Y-65893740D01*
X31535000Y-66186260D01*
X31592068Y-66473158D01*
X31704010Y-66743411D01*
X31866525Y-66986632D01*
X32073368Y-67193475D01*
X32247760Y-67310000D01*
X32073368Y-67426525D01*
X31866525Y-67633368D01*
X31704010Y-67876589D01*
X31592068Y-68146842D01*
X31535000Y-68433740D01*
X31535000Y-68726260D01*
X31592068Y-69013158D01*
X31704010Y-69283411D01*
X31866525Y-69526632D01*
X32073368Y-69733475D01*
X32247760Y-69850000D01*
X32073368Y-69966525D01*
X31866525Y-70173368D01*
X31704010Y-70416589D01*
X31592068Y-70686842D01*
X31535000Y-70973740D01*
X31535000Y-71266260D01*
X31592068Y-71553158D01*
X31704010Y-71823411D01*
X31866525Y-72066632D01*
X32073368Y-72273475D01*
X32255534Y-72395195D01*
X32138645Y-72464822D01*
X31922412Y-72659731D01*
X31748359Y-72893080D01*
X31623175Y-73155901D01*
X31578524Y-73303110D01*
X31699845Y-73533000D01*
X32893000Y-73533000D01*
X32893000Y-73513000D01*
X33147000Y-73513000D01*
X33147000Y-73533000D01*
X34340155Y-73533000D01*
X34461476Y-73303110D01*
X34416825Y-73155901D01*
X34291641Y-72893080D01*
X34117588Y-72659731D01*
X33901355Y-72464822D01*
X33784466Y-72395195D01*
X33966632Y-72273475D01*
X34173475Y-72066632D01*
X34335990Y-71823411D01*
X34447932Y-71553158D01*
X34505000Y-71266260D01*
X34505000Y-70973740D01*
X34447932Y-70686842D01*
X34335990Y-70416589D01*
X34173475Y-70173368D01*
X33966632Y-69966525D01*
X33792240Y-69850000D01*
X33966632Y-69733475D01*
X34173475Y-69526632D01*
X34335990Y-69283411D01*
X34447932Y-69013158D01*
X34505000Y-68726260D01*
X34505000Y-68433740D01*
X34447932Y-68146842D01*
X34335990Y-67876589D01*
X34173475Y-67633368D01*
X33966632Y-67426525D01*
X33792240Y-67310000D01*
X33966632Y-67193475D01*
X34173475Y-66986632D01*
X34335990Y-66743411D01*
X34447932Y-66473158D01*
X34505000Y-66186260D01*
X34505000Y-65893740D01*
X34447932Y-65606842D01*
X34335990Y-65336589D01*
X34173475Y-65093368D01*
X33966632Y-64886525D01*
X33792240Y-64770000D01*
X33966632Y-64653475D01*
X34173475Y-64446632D01*
X34335990Y-64203411D01*
X34447932Y-63933158D01*
X34505000Y-63646260D01*
X34505000Y-63353740D01*
X34447932Y-63066842D01*
X34335990Y-62796589D01*
X34173475Y-62553368D01*
X33966632Y-62346525D01*
X33792240Y-62230000D01*
X33966632Y-62113475D01*
X34173475Y-61906632D01*
X34335990Y-61663411D01*
X34447932Y-61393158D01*
X34505000Y-61106260D01*
X34505000Y-60813740D01*
X34447932Y-60526842D01*
X34335990Y-60256589D01*
X34173475Y-60013368D01*
X33966632Y-59806525D01*
X33792240Y-59690000D01*
X33966632Y-59573475D01*
X34173475Y-59366632D01*
X34335990Y-59123411D01*
X34447932Y-58853158D01*
X34505000Y-58566260D01*
X34505000Y-58273740D01*
X34447932Y-57986842D01*
X34335990Y-57716589D01*
X34173475Y-57473368D01*
X33966632Y-57266525D01*
X33792240Y-57150000D01*
X33966632Y-57033475D01*
X34173475Y-56826632D01*
X34335990Y-56583411D01*
X34447932Y-56313158D01*
X34505000Y-56026260D01*
X34505000Y-55733740D01*
X34447932Y-55446842D01*
X34335990Y-55176589D01*
X34173475Y-54933368D01*
X33966632Y-54726525D01*
X33792240Y-54610000D01*
X33966632Y-54493475D01*
X34173475Y-54286632D01*
X34335990Y-54043411D01*
X34447932Y-53773158D01*
X34505000Y-53486260D01*
X34505000Y-53193740D01*
X34447932Y-52906842D01*
X34335990Y-52636589D01*
X34173475Y-52393368D01*
X33966632Y-52186525D01*
X33792240Y-52070000D01*
X33966632Y-51953475D01*
X34173475Y-51746632D01*
X34335990Y-51503411D01*
X34447932Y-51233158D01*
X34505000Y-50946260D01*
X34505000Y-50653740D01*
X34447932Y-50366842D01*
X34335990Y-50096589D01*
X34173475Y-49853368D01*
X33966632Y-49646525D01*
X33792240Y-49530000D01*
X33966632Y-49413475D01*
X34173475Y-49206632D01*
X34335990Y-48963411D01*
X34447932Y-48693158D01*
X34505000Y-48406260D01*
X34505000Y-48113740D01*
X34447932Y-47826842D01*
X34335990Y-47556589D01*
X34173475Y-47313368D01*
X33966632Y-47106525D01*
X33792240Y-46990000D01*
X33966632Y-46873475D01*
X34173475Y-46666632D01*
X34335990Y-46423411D01*
X34447932Y-46153158D01*
X34505000Y-45866260D01*
X34505000Y-45573740D01*
X34447932Y-45286842D01*
X34335990Y-45016589D01*
X34173475Y-44773368D01*
X33966632Y-44566525D01*
X33792240Y-44450000D01*
X33966632Y-44333475D01*
X34173475Y-44126632D01*
X34335990Y-43883411D01*
X34447932Y-43613158D01*
X34505000Y-43326260D01*
X34505000Y-43033740D01*
X34447932Y-42746842D01*
X34335990Y-42476589D01*
X34173475Y-42233368D01*
X33966632Y-42026525D01*
X33792240Y-41910000D01*
X33966632Y-41793475D01*
X34173475Y-41586632D01*
X34335990Y-41343411D01*
X34447932Y-41073158D01*
X34505000Y-40786260D01*
X34505000Y-40493740D01*
X34447932Y-40206842D01*
X34335990Y-39936589D01*
X34173475Y-39693368D01*
X33966632Y-39486525D01*
X33792240Y-39370000D01*
X33966632Y-39253475D01*
X34173475Y-39046632D01*
X34335990Y-38803411D01*
X34447932Y-38533158D01*
X34505000Y-38246260D01*
X34505000Y-37953740D01*
X34447932Y-37666842D01*
X34335990Y-37396589D01*
X34173475Y-37153368D01*
X34041620Y-37021513D01*
X34114180Y-36999502D01*
X34224494Y-36940537D01*
X34321185Y-36861185D01*
X34400537Y-36764494D01*
X34459502Y-36654180D01*
X34495812Y-36534482D01*
X34508072Y-36410000D01*
X34508072Y-35560000D01*
X41338057Y-35560000D01*
X41365764Y-35841309D01*
X41447818Y-36111808D01*
X41581068Y-36361101D01*
X41760392Y-36579608D01*
X41978899Y-36758932D01*
X42111858Y-36830000D01*
X41978899Y-36901068D01*
X41760392Y-37080392D01*
X41581068Y-37298899D01*
X41447818Y-37548192D01*
X41365764Y-37818691D01*
X41338057Y-38100000D01*
X41365764Y-38381309D01*
X41447818Y-38651808D01*
X41581068Y-38901101D01*
X41760392Y-39119608D01*
X41978899Y-39298932D01*
X42111858Y-39370000D01*
X41978899Y-39441068D01*
X41760392Y-39620392D01*
X41581068Y-39838899D01*
X41447818Y-40088192D01*
X41365764Y-40358691D01*
X41338057Y-40640000D01*
X41365764Y-40921309D01*
X41447818Y-41191808D01*
X41581068Y-41441101D01*
X41760392Y-41659608D01*
X41978899Y-41838932D01*
X42111858Y-41910000D01*
X41978899Y-41981068D01*
X41760392Y-42160392D01*
X41581068Y-42378899D01*
X41447818Y-42628192D01*
X41365764Y-42898691D01*
X41338057Y-43180000D01*
X41365764Y-43461309D01*
X41447818Y-43731808D01*
X41581068Y-43981101D01*
X41760392Y-44199608D01*
X41978899Y-44378932D01*
X42111858Y-44450000D01*
X41978899Y-44521068D01*
X41760392Y-44700392D01*
X41581068Y-44918899D01*
X41447818Y-45168192D01*
X41365764Y-45438691D01*
X41338057Y-45720000D01*
X41365764Y-46001309D01*
X41447818Y-46271808D01*
X41581068Y-46521101D01*
X41760392Y-46739608D01*
X41978899Y-46918932D01*
X42111858Y-46990000D01*
X41978899Y-47061068D01*
X41760392Y-47240392D01*
X41581068Y-47458899D01*
X41447818Y-47708192D01*
X41365764Y-47978691D01*
X41338057Y-48260000D01*
X41365764Y-48541309D01*
X41447818Y-48811808D01*
X41581068Y-49061101D01*
X41760392Y-49279608D01*
X41978899Y-49458932D01*
X42111858Y-49530000D01*
X41978899Y-49601068D01*
X41760392Y-49780392D01*
X41581068Y-49998899D01*
X41447818Y-50248192D01*
X41365764Y-50518691D01*
X41338057Y-50800000D01*
X41365764Y-51081309D01*
X41447818Y-51351808D01*
X41581068Y-51601101D01*
X41760392Y-51819608D01*
X41978899Y-51998932D01*
X42111858Y-52070000D01*
X41978899Y-52141068D01*
X41760392Y-52320392D01*
X41581068Y-52538899D01*
X41447818Y-52788192D01*
X41365764Y-53058691D01*
X41338057Y-53340000D01*
X41365764Y-53621309D01*
X41447818Y-53891808D01*
X41581068Y-54141101D01*
X41760392Y-54359608D01*
X41978899Y-54538932D01*
X42111858Y-54610000D01*
X41978899Y-54681068D01*
X41760392Y-54860392D01*
X41581068Y-55078899D01*
X41447818Y-55328192D01*
X41365764Y-55598691D01*
X41338057Y-55880000D01*
X41365764Y-56161309D01*
X41447818Y-56431808D01*
X41581068Y-56681101D01*
X41760392Y-56899608D01*
X41978899Y-57078932D01*
X42111858Y-57150000D01*
X41978899Y-57221068D01*
X41760392Y-57400392D01*
X41581068Y-57618899D01*
X41447818Y-57868192D01*
X41365764Y-58138691D01*
X41338057Y-58420000D01*
X41365764Y-58701309D01*
X41447818Y-58971808D01*
X41581068Y-59221101D01*
X41760392Y-59439608D01*
X41978899Y-59618932D01*
X42111858Y-59690000D01*
X41978899Y-59761068D01*
X41760392Y-59940392D01*
X41581068Y-60158899D01*
X41447818Y-60408192D01*
X41365764Y-60678691D01*
X41338057Y-60960000D01*
X41365764Y-61241309D01*
X41447818Y-61511808D01*
X41581068Y-61761101D01*
X41760392Y-61979608D01*
X41978899Y-62158932D01*
X42111858Y-62230000D01*
X41978899Y-62301068D01*
X41760392Y-62480392D01*
X41581068Y-62698899D01*
X41447818Y-62948192D01*
X41365764Y-63218691D01*
X41338057Y-63500000D01*
X41365764Y-63781309D01*
X41447818Y-64051808D01*
X41581068Y-64301101D01*
X41760392Y-64519608D01*
X41978899Y-64698932D01*
X42111858Y-64770000D01*
X41978899Y-64841068D01*
X41760392Y-65020392D01*
X41581068Y-65238899D01*
X41447818Y-65488192D01*
X41365764Y-65758691D01*
X41338057Y-66040000D01*
X41365764Y-66321309D01*
X41447818Y-66591808D01*
X41581068Y-66841101D01*
X41760392Y-67059608D01*
X41978899Y-67238932D01*
X42111858Y-67310000D01*
X41978899Y-67381068D01*
X41760392Y-67560392D01*
X41581068Y-67778899D01*
X41447818Y-68028192D01*
X41365764Y-68298691D01*
X41338057Y-68580000D01*
X41365764Y-68861309D01*
X41447818Y-69131808D01*
X41581068Y-69381101D01*
X41760392Y-69599608D01*
X41978899Y-69778932D01*
X42111858Y-69850000D01*
X41978899Y-69921068D01*
X41760392Y-70100392D01*
X41581068Y-70318899D01*
X41447818Y-70568192D01*
X41365764Y-70838691D01*
X41338057Y-71120000D01*
X41365764Y-71401309D01*
X41447818Y-71671808D01*
X41581068Y-71921101D01*
X41760392Y-72139608D01*
X41978899Y-72318932D01*
X42111858Y-72390000D01*
X41978899Y-72461068D01*
X41760392Y-72640392D01*
X41581068Y-72858899D01*
X41447818Y-73108192D01*
X41365764Y-73378691D01*
X41338057Y-73660000D01*
X41365764Y-73941309D01*
X41447818Y-74211808D01*
X41581068Y-74461101D01*
X41760392Y-74679608D01*
X41978899Y-74858932D01*
X42228192Y-74992182D01*
X42498691Y-75074236D01*
X42709508Y-75095000D01*
X43650492Y-75095000D01*
X43861309Y-75074236D01*
X44131808Y-74992182D01*
X44381101Y-74858932D01*
X44599608Y-74679608D01*
X44778932Y-74461101D01*
X44912182Y-74211808D01*
X44994236Y-73941309D01*
X45021943Y-73660000D01*
X44994236Y-73378691D01*
X44912182Y-73108192D01*
X44778932Y-72858899D01*
X44738802Y-72810000D01*
X50581928Y-72810000D01*
X50581928Y-74510000D01*
X50594188Y-74634482D01*
X50630498Y-74754180D01*
X50689463Y-74864494D01*
X50768815Y-74961185D01*
X50865506Y-75040537D01*
X50975820Y-75099502D01*
X51095518Y-75135812D01*
X51220000Y-75148072D01*
X52920000Y-75148072D01*
X53044482Y-75135812D01*
X53164180Y-75099502D01*
X53274494Y-75040537D01*
X53371185Y-74961185D01*
X53450537Y-74864494D01*
X53509502Y-74754180D01*
X53545812Y-74634482D01*
X53558072Y-74510000D01*
X53558072Y-72810000D01*
X53545812Y-72685518D01*
X53509502Y-72565820D01*
X53450537Y-72455506D01*
X53371185Y-72358815D01*
X53274494Y-72279463D01*
X53164180Y-72220498D01*
X53091620Y-72198487D01*
X53223475Y-72066632D01*
X53385990Y-71823411D01*
X53497932Y-71553158D01*
X53555000Y-71266260D01*
X53555000Y-70973740D01*
X53497932Y-70686842D01*
X53385990Y-70416589D01*
X53223475Y-70173368D01*
X53016632Y-69966525D01*
X52842240Y-69850000D01*
X53016632Y-69733475D01*
X53223475Y-69526632D01*
X53385990Y-69283411D01*
X53497932Y-69013158D01*
X53555000Y-68726260D01*
X53555000Y-68433740D01*
X53497932Y-68146842D01*
X53385990Y-67876589D01*
X53223475Y-67633368D01*
X53016632Y-67426525D01*
X52842240Y-67310000D01*
X53016632Y-67193475D01*
X53223475Y-66986632D01*
X53385990Y-66743411D01*
X53497932Y-66473158D01*
X53555000Y-66186260D01*
X53555000Y-65893740D01*
X53497932Y-65606842D01*
X53385990Y-65336589D01*
X53223475Y-65093368D01*
X53016632Y-64886525D01*
X52842240Y-64770000D01*
X53016632Y-64653475D01*
X53223475Y-64446632D01*
X53385990Y-64203411D01*
X53497932Y-63933158D01*
X53555000Y-63646260D01*
X53555000Y-63353740D01*
X53497932Y-63066842D01*
X53385990Y-62796589D01*
X53223475Y-62553368D01*
X53016632Y-62346525D01*
X52842240Y-62230000D01*
X53016632Y-62113475D01*
X53223475Y-61906632D01*
X53385990Y-61663411D01*
X53497932Y-61393158D01*
X53555000Y-61106260D01*
X53555000Y-60813740D01*
X53497932Y-60526842D01*
X53385990Y-60256589D01*
X53223475Y-60013368D01*
X53016632Y-59806525D01*
X52842240Y-59690000D01*
X53016632Y-59573475D01*
X53223475Y-59366632D01*
X53385990Y-59123411D01*
X53497932Y-58853158D01*
X53555000Y-58566260D01*
X53555000Y-58273740D01*
X53497932Y-57986842D01*
X53385990Y-57716589D01*
X53223475Y-57473368D01*
X53016632Y-57266525D01*
X52842240Y-57150000D01*
X53016632Y-57033475D01*
X53223475Y-56826632D01*
X53385990Y-56583411D01*
X53497932Y-56313158D01*
X53555000Y-56026260D01*
X53555000Y-55733740D01*
X53497932Y-55446842D01*
X53385990Y-55176589D01*
X53223475Y-54933368D01*
X53016632Y-54726525D01*
X52842240Y-54610000D01*
X53016632Y-54493475D01*
X53223475Y-54286632D01*
X53385990Y-54043411D01*
X53497932Y-53773158D01*
X53555000Y-53486260D01*
X53555000Y-53193740D01*
X53497932Y-52906842D01*
X53385990Y-52636589D01*
X53223475Y-52393368D01*
X53016632Y-52186525D01*
X52842240Y-52070000D01*
X53016632Y-51953475D01*
X53223475Y-51746632D01*
X53385990Y-51503411D01*
X53497932Y-51233158D01*
X53555000Y-50946260D01*
X53555000Y-50653740D01*
X53497932Y-50366842D01*
X53385990Y-50096589D01*
X53223475Y-49853368D01*
X53016632Y-49646525D01*
X52842240Y-49530000D01*
X53016632Y-49413475D01*
X53223475Y-49206632D01*
X53385990Y-48963411D01*
X53497932Y-48693158D01*
X53555000Y-48406260D01*
X53555000Y-48113740D01*
X53497932Y-47826842D01*
X53385990Y-47556589D01*
X53223475Y-47313368D01*
X53016632Y-47106525D01*
X52842240Y-46990000D01*
X53016632Y-46873475D01*
X53223475Y-46666632D01*
X53385990Y-46423411D01*
X53497932Y-46153158D01*
X53555000Y-45866260D01*
X53555000Y-45573740D01*
X53497932Y-45286842D01*
X53385990Y-45016589D01*
X53223475Y-44773368D01*
X53016632Y-44566525D01*
X52842240Y-44450000D01*
X53016632Y-44333475D01*
X53223475Y-44126632D01*
X53385990Y-43883411D01*
X53497932Y-43613158D01*
X53555000Y-43326260D01*
X53555000Y-43033740D01*
X53497932Y-42746842D01*
X53385990Y-42476589D01*
X53223475Y-42233368D01*
X53016632Y-42026525D01*
X52842240Y-41910000D01*
X53016632Y-41793475D01*
X53223475Y-41586632D01*
X53385990Y-41343411D01*
X53497932Y-41073158D01*
X53555000Y-40786260D01*
X53555000Y-40493740D01*
X53497932Y-40206842D01*
X53385990Y-39936589D01*
X53223475Y-39693368D01*
X53016632Y-39486525D01*
X52842240Y-39370000D01*
X53016632Y-39253475D01*
X53223475Y-39046632D01*
X53385990Y-38803411D01*
X53497932Y-38533158D01*
X53555000Y-38246260D01*
X53555000Y-37953740D01*
X53497932Y-37666842D01*
X53385990Y-37396589D01*
X53223475Y-37153368D01*
X53016632Y-36946525D01*
X52842240Y-36830000D01*
X53016632Y-36713475D01*
X53223475Y-36506632D01*
X53385990Y-36263411D01*
X53497932Y-35993158D01*
X53555000Y-35706260D01*
X53555000Y-35413740D01*
X53497932Y-35126842D01*
X53385990Y-34856589D01*
X53223475Y-34613368D01*
X53016632Y-34406525D01*
X52773411Y-34244010D01*
X52503158Y-34132068D01*
X52216260Y-34075000D01*
X51923740Y-34075000D01*
X51636842Y-34132068D01*
X51366589Y-34244010D01*
X51123368Y-34406525D01*
X50916525Y-34613368D01*
X50754010Y-34856589D01*
X50642068Y-35126842D01*
X50585000Y-35413740D01*
X50585000Y-35706260D01*
X50642068Y-35993158D01*
X50754010Y-36263411D01*
X50916525Y-36506632D01*
X51123368Y-36713475D01*
X51297760Y-36830000D01*
X51123368Y-36946525D01*
X50916525Y-37153368D01*
X50754010Y-37396589D01*
X50642068Y-37666842D01*
X50585000Y-37953740D01*
X50585000Y-38246260D01*
X50642068Y-38533158D01*
X50754010Y-38803411D01*
X50916525Y-39046632D01*
X51123368Y-39253475D01*
X51297760Y-39370000D01*
X51123368Y-39486525D01*
X50916525Y-39693368D01*
X50754010Y-39936589D01*
X50642068Y-40206842D01*
X50585000Y-40493740D01*
X50585000Y-40786260D01*
X50642068Y-41073158D01*
X50754010Y-41343411D01*
X50916525Y-41586632D01*
X51123368Y-41793475D01*
X51297760Y-41910000D01*
X51123368Y-42026525D01*
X50916525Y-42233368D01*
X50754010Y-42476589D01*
X50642068Y-42746842D01*
X50585000Y-43033740D01*
X50585000Y-43326260D01*
X50642068Y-43613158D01*
X50754010Y-43883411D01*
X50916525Y-44126632D01*
X51123368Y-44333475D01*
X51297760Y-44450000D01*
X51123368Y-44566525D01*
X50916525Y-44773368D01*
X50754010Y-45016589D01*
X50642068Y-45286842D01*
X50585000Y-45573740D01*
X50585000Y-45866260D01*
X50642068Y-46153158D01*
X50754010Y-46423411D01*
X50916525Y-46666632D01*
X51123368Y-46873475D01*
X51297760Y-46990000D01*
X51123368Y-47106525D01*
X50916525Y-47313368D01*
X50754010Y-47556589D01*
X50642068Y-47826842D01*
X50585000Y-48113740D01*
X50585000Y-48406260D01*
X50642068Y-48693158D01*
X50754010Y-48963411D01*
X50916525Y-49206632D01*
X51123368Y-49413475D01*
X51297760Y-49530000D01*
X51123368Y-49646525D01*
X50916525Y-49853368D01*
X50754010Y-50096589D01*
X50642068Y-50366842D01*
X50585000Y-50653740D01*
X50585000Y-50946260D01*
X50642068Y-51233158D01*
X50754010Y-51503411D01*
X50916525Y-51746632D01*
X51123368Y-51953475D01*
X51297760Y-52070000D01*
X51123368Y-52186525D01*
X50916525Y-52393368D01*
X50754010Y-52636589D01*
X50642068Y-52906842D01*
X50585000Y-53193740D01*
X50585000Y-53486260D01*
X50642068Y-53773158D01*
X50754010Y-54043411D01*
X50916525Y-54286632D01*
X51123368Y-54493475D01*
X51297760Y-54610000D01*
X51123368Y-54726525D01*
X50916525Y-54933368D01*
X50754010Y-55176589D01*
X50642068Y-55446842D01*
X50585000Y-55733740D01*
X50585000Y-56026260D01*
X50642068Y-56313158D01*
X50754010Y-56583411D01*
X50916525Y-56826632D01*
X51123368Y-57033475D01*
X51297760Y-57150000D01*
X51123368Y-57266525D01*
X50916525Y-57473368D01*
X50754010Y-57716589D01*
X50642068Y-57986842D01*
X50585000Y-58273740D01*
X50585000Y-58566260D01*
X50642068Y-58853158D01*
X50754010Y-59123411D01*
X50916525Y-59366632D01*
X51123368Y-59573475D01*
X51297760Y-59690000D01*
X51123368Y-59806525D01*
X50916525Y-60013368D01*
X50754010Y-60256589D01*
X50642068Y-60526842D01*
X50585000Y-60813740D01*
X50585000Y-61106260D01*
X50642068Y-61393158D01*
X50754010Y-61663411D01*
X50916525Y-61906632D01*
X51123368Y-62113475D01*
X51297760Y-62230000D01*
X51123368Y-62346525D01*
X50916525Y-62553368D01*
X50754010Y-62796589D01*
X50642068Y-63066842D01*
X50585000Y-63353740D01*
X50585000Y-63646260D01*
X50642068Y-63933158D01*
X50754010Y-64203411D01*
X50916525Y-64446632D01*
X51123368Y-64653475D01*
X51297760Y-64770000D01*
X51123368Y-64886525D01*
X50916525Y-65093368D01*
X50754010Y-65336589D01*
X50642068Y-65606842D01*
X50585000Y-65893740D01*
X50585000Y-66186260D01*
X50642068Y-66473158D01*
X50754010Y-66743411D01*
X50916525Y-66986632D01*
X51123368Y-67193475D01*
X51297760Y-67310000D01*
X51123368Y-67426525D01*
X50916525Y-67633368D01*
X50754010Y-67876589D01*
X50642068Y-68146842D01*
X50585000Y-68433740D01*
X50585000Y-68726260D01*
X50642068Y-69013158D01*
X50754010Y-69283411D01*
X50916525Y-69526632D01*
X51123368Y-69733475D01*
X51297760Y-69850000D01*
X51123368Y-69966525D01*
X50916525Y-70173368D01*
X50754010Y-70416589D01*
X50642068Y-70686842D01*
X50585000Y-70973740D01*
X50585000Y-71266260D01*
X50642068Y-71553158D01*
X50754010Y-71823411D01*
X50916525Y-72066632D01*
X51048380Y-72198487D01*
X50975820Y-72220498D01*
X50865506Y-72279463D01*
X50768815Y-72358815D01*
X50689463Y-72455506D01*
X50630498Y-72565820D01*
X50594188Y-72685518D01*
X50581928Y-72810000D01*
X44738802Y-72810000D01*
X44599608Y-72640392D01*
X44381101Y-72461068D01*
X44248142Y-72390000D01*
X44381101Y-72318932D01*
X44599608Y-72139608D01*
X44778932Y-71921101D01*
X44912182Y-71671808D01*
X44994236Y-71401309D01*
X45021943Y-71120000D01*
X44994236Y-70838691D01*
X44912182Y-70568192D01*
X44778932Y-70318899D01*
X44599608Y-70100392D01*
X44381101Y-69921068D01*
X44248142Y-69850000D01*
X44381101Y-69778932D01*
X44599608Y-69599608D01*
X44778932Y-69381101D01*
X44912182Y-69131808D01*
X44994236Y-68861309D01*
X45021943Y-68580000D01*
X44994236Y-68298691D01*
X44912182Y-68028192D01*
X44778932Y-67778899D01*
X44599608Y-67560392D01*
X44381101Y-67381068D01*
X44248142Y-67310000D01*
X44381101Y-67238932D01*
X44599608Y-67059608D01*
X44778932Y-66841101D01*
X44912182Y-66591808D01*
X44994236Y-66321309D01*
X45021943Y-66040000D01*
X44994236Y-65758691D01*
X44912182Y-65488192D01*
X44778932Y-65238899D01*
X44599608Y-65020392D01*
X44381101Y-64841068D01*
X44248142Y-64770000D01*
X44381101Y-64698932D01*
X44599608Y-64519608D01*
X44778932Y-64301101D01*
X44912182Y-64051808D01*
X44994236Y-63781309D01*
X45021943Y-63500000D01*
X44994236Y-63218691D01*
X44912182Y-62948192D01*
X44778932Y-62698899D01*
X44599608Y-62480392D01*
X44381101Y-62301068D01*
X44248142Y-62230000D01*
X44381101Y-62158932D01*
X44599608Y-61979608D01*
X44778932Y-61761101D01*
X44912182Y-61511808D01*
X44994236Y-61241309D01*
X45021943Y-60960000D01*
X44994236Y-60678691D01*
X44912182Y-60408192D01*
X44778932Y-60158899D01*
X44599608Y-59940392D01*
X44381101Y-59761068D01*
X44248142Y-59690000D01*
X44381101Y-59618932D01*
X44599608Y-59439608D01*
X44778932Y-59221101D01*
X44912182Y-58971808D01*
X44994236Y-58701309D01*
X45021943Y-58420000D01*
X44994236Y-58138691D01*
X44912182Y-57868192D01*
X44778932Y-57618899D01*
X44599608Y-57400392D01*
X44381101Y-57221068D01*
X44248142Y-57150000D01*
X44381101Y-57078932D01*
X44599608Y-56899608D01*
X44778932Y-56681101D01*
X44912182Y-56431808D01*
X44994236Y-56161309D01*
X45021943Y-55880000D01*
X44994236Y-55598691D01*
X44912182Y-55328192D01*
X44778932Y-55078899D01*
X44599608Y-54860392D01*
X44381101Y-54681068D01*
X44248142Y-54610000D01*
X44381101Y-54538932D01*
X44599608Y-54359608D01*
X44778932Y-54141101D01*
X44912182Y-53891808D01*
X44994236Y-53621309D01*
X45021943Y-53340000D01*
X44994236Y-53058691D01*
X44912182Y-52788192D01*
X44778932Y-52538899D01*
X44599608Y-52320392D01*
X44381101Y-52141068D01*
X44248142Y-52070000D01*
X44381101Y-51998932D01*
X44599608Y-51819608D01*
X44778932Y-51601101D01*
X44912182Y-51351808D01*
X44994236Y-51081309D01*
X45021943Y-50800000D01*
X44994236Y-50518691D01*
X44912182Y-50248192D01*
X44778932Y-49998899D01*
X44599608Y-49780392D01*
X44381101Y-49601068D01*
X44248142Y-49530000D01*
X44381101Y-49458932D01*
X44599608Y-49279608D01*
X44778932Y-49061101D01*
X44912182Y-48811808D01*
X44994236Y-48541309D01*
X45021943Y-48260000D01*
X44994236Y-47978691D01*
X44912182Y-47708192D01*
X44778932Y-47458899D01*
X44599608Y-47240392D01*
X44381101Y-47061068D01*
X44248142Y-46990000D01*
X44381101Y-46918932D01*
X44599608Y-46739608D01*
X44778932Y-46521101D01*
X44912182Y-46271808D01*
X44994236Y-46001309D01*
X45021943Y-45720000D01*
X44994236Y-45438691D01*
X44912182Y-45168192D01*
X44778932Y-44918899D01*
X44599608Y-44700392D01*
X44381101Y-44521068D01*
X44248142Y-44450000D01*
X44381101Y-44378932D01*
X44599608Y-44199608D01*
X44778932Y-43981101D01*
X44912182Y-43731808D01*
X44994236Y-43461309D01*
X45021943Y-43180000D01*
X44994236Y-42898691D01*
X44912182Y-42628192D01*
X44778932Y-42378899D01*
X44599608Y-42160392D01*
X44381101Y-41981068D01*
X44248142Y-41910000D01*
X44381101Y-41838932D01*
X44599608Y-41659608D01*
X44778932Y-41441101D01*
X44912182Y-41191808D01*
X44994236Y-40921309D01*
X45021943Y-40640000D01*
X44994236Y-40358691D01*
X44912182Y-40088192D01*
X44778932Y-39838899D01*
X44599608Y-39620392D01*
X44381101Y-39441068D01*
X44248142Y-39370000D01*
X44381101Y-39298932D01*
X44599608Y-39119608D01*
X44654516Y-39052702D01*
X46176903Y-39052702D01*
X46248486Y-39296671D01*
X46503996Y-39417571D01*
X46778184Y-39486300D01*
X47060512Y-39500217D01*
X47340130Y-39458787D01*
X47606292Y-39363603D01*
X47731514Y-39296671D01*
X47803097Y-39052702D01*
X46990000Y-38239605D01*
X46176903Y-39052702D01*
X44654516Y-39052702D01*
X44778932Y-38901101D01*
X44912182Y-38651808D01*
X44994236Y-38381309D01*
X45018937Y-38130512D01*
X45549783Y-38130512D01*
X45591213Y-38410130D01*
X45686397Y-38676292D01*
X45753329Y-38801514D01*
X45997298Y-38873097D01*
X46810395Y-38060000D01*
X47169605Y-38060000D01*
X47982702Y-38873097D01*
X48226671Y-38801514D01*
X48347571Y-38546004D01*
X48416300Y-38271816D01*
X48430217Y-37989488D01*
X48388787Y-37709870D01*
X48293603Y-37443708D01*
X48226671Y-37318486D01*
X47982702Y-37246903D01*
X47169605Y-38060000D01*
X46810395Y-38060000D01*
X45997298Y-37246903D01*
X45753329Y-37318486D01*
X45632429Y-37573996D01*
X45563700Y-37848184D01*
X45549783Y-38130512D01*
X45018937Y-38130512D01*
X45021943Y-38100000D01*
X44994236Y-37818691D01*
X44912182Y-37548192D01*
X44778932Y-37298899D01*
X44599608Y-37080392D01*
X44381101Y-36901068D01*
X44248142Y-36830000D01*
X44381101Y-36758932D01*
X44599608Y-36579608D01*
X44778932Y-36361101D01*
X44912182Y-36111808D01*
X44994236Y-35841309D01*
X45021943Y-35560000D01*
X45008023Y-35418665D01*
X45555000Y-35418665D01*
X45555000Y-35701335D01*
X45610147Y-35978574D01*
X45718320Y-36239727D01*
X45875363Y-36474759D01*
X46075241Y-36674637D01*
X46275869Y-36808692D01*
X46248486Y-36823329D01*
X46176903Y-37067298D01*
X46990000Y-37880395D01*
X47803097Y-37067298D01*
X47731514Y-36823329D01*
X47702659Y-36809676D01*
X47904759Y-36674637D01*
X48104637Y-36474759D01*
X48261680Y-36239727D01*
X48369853Y-35978574D01*
X48425000Y-35701335D01*
X48425000Y-35418665D01*
X48369853Y-35141426D01*
X48261680Y-34880273D01*
X48104637Y-34645241D01*
X47904759Y-34445363D01*
X47669727Y-34288320D01*
X47408574Y-34180147D01*
X47131335Y-34125000D01*
X46848665Y-34125000D01*
X46571426Y-34180147D01*
X46310273Y-34288320D01*
X46075241Y-34445363D01*
X45875363Y-34645241D01*
X45718320Y-34880273D01*
X45610147Y-35141426D01*
X45555000Y-35418665D01*
X45008023Y-35418665D01*
X44994236Y-35278691D01*
X44912182Y-35008192D01*
X44778932Y-34758899D01*
X44599608Y-34540392D01*
X44381101Y-34361068D01*
X44131808Y-34227818D01*
X43861309Y-34145764D01*
X43650492Y-34125000D01*
X42709508Y-34125000D01*
X42498691Y-34145764D01*
X42228192Y-34227818D01*
X41978899Y-34361068D01*
X41760392Y-34540392D01*
X41581068Y-34758899D01*
X41447818Y-35008192D01*
X41365764Y-35278691D01*
X41338057Y-35560000D01*
X34508072Y-35560000D01*
X34508072Y-34710000D01*
X34495812Y-34585518D01*
X34459502Y-34465820D01*
X34400537Y-34355506D01*
X34321185Y-34258815D01*
X34224494Y-34179463D01*
X34114180Y-34120498D01*
X33994482Y-34084188D01*
X33870000Y-34071928D01*
X32170000Y-34071928D01*
X32045518Y-34084188D01*
X31925820Y-34120498D01*
X31815506Y-34179463D01*
X31718815Y-34258815D01*
X31639463Y-34355506D01*
X31580498Y-34465820D01*
X31544188Y-34585518D01*
X31531928Y-34710000D01*
X29773148Y-34710000D01*
X29765812Y-34635518D01*
X29729502Y-34515820D01*
X29670537Y-34405506D01*
X29591185Y-34308815D01*
X29494494Y-34229463D01*
X29384180Y-34170498D01*
X29264482Y-34134188D01*
X29140000Y-34121928D01*
X26740000Y-34121928D01*
X26615518Y-34134188D01*
X26495820Y-34170498D01*
X26385506Y-34229463D01*
X26288815Y-34308815D01*
X26209463Y-34405506D01*
X26150498Y-34515820D01*
X26114188Y-34635518D01*
X26101928Y-34760000D01*
X26101928Y-36360000D01*
X26114188Y-36484482D01*
X26150498Y-36604180D01*
X26209463Y-36714494D01*
X26288815Y-36811185D01*
X26385506Y-36890537D01*
X26495820Y-36949502D01*
X26615518Y-36985812D01*
X26633482Y-36987581D01*
X26520392Y-37080392D01*
X26341068Y-37298899D01*
X26207818Y-37548192D01*
X26125764Y-37818691D01*
X26098057Y-38100000D01*
X26060000Y-38100000D01*
X26060000Y-34322279D01*
X26074722Y-34172131D01*
X26108953Y-34058754D01*
X26164555Y-33954181D01*
X26239407Y-33862404D01*
X26330664Y-33786909D01*
X26434844Y-33730581D01*
X26547976Y-33695560D01*
X26696022Y-33680000D01*
X53307721Y-33680000D01*
X53457869Y-33694722D01*
%TA.AperFunction,Conductor*%
D17*
G36*
X53457869Y-33694722D02*
G01*
X53571246Y-33728953D01*
X53675819Y-33784555D01*
X53767596Y-33859407D01*
X53843091Y-33950664D01*
X53899419Y-34054844D01*
X53934440Y-34167976D01*
X53950000Y-34316022D01*
X53950001Y-74897711D01*
X53935278Y-75047869D01*
X53901047Y-75161246D01*
X53845446Y-75265817D01*
X53770594Y-75357595D01*
X53679335Y-75433091D01*
X53575160Y-75489419D01*
X53462024Y-75524440D01*
X53313979Y-75540000D01*
X26702279Y-75540000D01*
X26552131Y-75525278D01*
X26438754Y-75491047D01*
X26334183Y-75435446D01*
X26242405Y-75360594D01*
X26166909Y-75269335D01*
X26110581Y-75165160D01*
X26075560Y-75052024D01*
X26060000Y-74903979D01*
X26060000Y-74009039D01*
X26148096Y-74009039D01*
X26165633Y-74091818D01*
X26276285Y-74351646D01*
X26435500Y-74584895D01*
X26637161Y-74782601D01*
X26873517Y-74937166D01*
X27135486Y-75042650D01*
X27413000Y-75095000D01*
X27813000Y-75095000D01*
X27813000Y-73787000D01*
X28067000Y-73787000D01*
X28067000Y-75095000D01*
X28467000Y-75095000D01*
X28744514Y-75042650D01*
X29006483Y-74937166D01*
X29242839Y-74782601D01*
X29444500Y-74584895D01*
X29603715Y-74351646D01*
X29714367Y-74091818D01*
X29730240Y-74016890D01*
X31578524Y-74016890D01*
X31623175Y-74164099D01*
X31748359Y-74426920D01*
X31922412Y-74660269D01*
X32138645Y-74855178D01*
X32388748Y-75004157D01*
X32663109Y-75101481D01*
X32893000Y-74980814D01*
X32893000Y-73787000D01*
X33147000Y-73787000D01*
X33147000Y-74980814D01*
X33376891Y-75101481D01*
X33651252Y-75004157D01*
X33901355Y-74855178D01*
X34117588Y-74660269D01*
X34291641Y-74426920D01*
X34416825Y-74164099D01*
X34461476Y-74016890D01*
X34340155Y-73787000D01*
X33147000Y-73787000D01*
X32893000Y-73787000D01*
X31699845Y-73787000D01*
X31578524Y-74016890D01*
X29730240Y-74016890D01*
X29731904Y-74009039D01*
X29609915Y-73787000D01*
X28067000Y-73787000D01*
X27813000Y-73787000D01*
X26270085Y-73787000D01*
X26148096Y-74009039D01*
X26060000Y-74009039D01*
X26060000Y-38100000D01*
X26098057Y-38100000D01*
X26125764Y-38381309D01*
X26207818Y-38651808D01*
X26341068Y-38901101D01*
X26520392Y-39119608D01*
X26738899Y-39298932D01*
X26871858Y-39370000D01*
X26738899Y-39441068D01*
X26520392Y-39620392D01*
X26341068Y-39838899D01*
X26207818Y-40088192D01*
X26125764Y-40358691D01*
X26098057Y-40640000D01*
X26125764Y-40921309D01*
X26207818Y-41191808D01*
X26341068Y-41441101D01*
X26520392Y-41659608D01*
X26738899Y-41838932D01*
X26871858Y-41910000D01*
X26738899Y-41981068D01*
X26520392Y-42160392D01*
X26341068Y-42378899D01*
X26207818Y-42628192D01*
X26125764Y-42898691D01*
X26098057Y-43180000D01*
X26125764Y-43461309D01*
X26207818Y-43731808D01*
X26341068Y-43981101D01*
X26520392Y-44199608D01*
X26738899Y-44378932D01*
X26871858Y-44450000D01*
X26738899Y-44521068D01*
X26520392Y-44700392D01*
X26341068Y-44918899D01*
X26207818Y-45168192D01*
X26125764Y-45438691D01*
X26098057Y-45720000D01*
X26125764Y-46001309D01*
X26207818Y-46271808D01*
X26341068Y-46521101D01*
X26520392Y-46739608D01*
X26738899Y-46918932D01*
X26871858Y-46990000D01*
X26738899Y-47061068D01*
X26520392Y-47240392D01*
X26341068Y-47458899D01*
X26207818Y-47708192D01*
X26125764Y-47978691D01*
X26098057Y-48260000D01*
X26125764Y-48541309D01*
X26207818Y-48811808D01*
X26341068Y-49061101D01*
X26520392Y-49279608D01*
X26738899Y-49458932D01*
X26871858Y-49530000D01*
X26738899Y-49601068D01*
X26520392Y-49780392D01*
X26341068Y-49998899D01*
X26207818Y-50248192D01*
X26125764Y-50518691D01*
X26098057Y-50800000D01*
X26125764Y-51081309D01*
X26207818Y-51351808D01*
X26341068Y-51601101D01*
X26520392Y-51819608D01*
X26738899Y-51998932D01*
X26871858Y-52070000D01*
X26738899Y-52141068D01*
X26520392Y-52320392D01*
X26341068Y-52538899D01*
X26207818Y-52788192D01*
X26125764Y-53058691D01*
X26098057Y-53340000D01*
X26125764Y-53621309D01*
X26207818Y-53891808D01*
X26341068Y-54141101D01*
X26520392Y-54359608D01*
X26738899Y-54538932D01*
X26871858Y-54610000D01*
X26738899Y-54681068D01*
X26520392Y-54860392D01*
X26341068Y-55078899D01*
X26207818Y-55328192D01*
X26125764Y-55598691D01*
X26098057Y-55880000D01*
X26125764Y-56161309D01*
X26207818Y-56431808D01*
X26341068Y-56681101D01*
X26520392Y-56899608D01*
X26738899Y-57078932D01*
X26871858Y-57150000D01*
X26738899Y-57221068D01*
X26520392Y-57400392D01*
X26341068Y-57618899D01*
X26207818Y-57868192D01*
X26125764Y-58138691D01*
X26098057Y-58420000D01*
X26125764Y-58701309D01*
X26207818Y-58971808D01*
X26341068Y-59221101D01*
X26520392Y-59439608D01*
X26738899Y-59618932D01*
X26871858Y-59690000D01*
X26738899Y-59761068D01*
X26520392Y-59940392D01*
X26341068Y-60158899D01*
X26207818Y-60408192D01*
X26125764Y-60678691D01*
X26098057Y-60960000D01*
X26125764Y-61241309D01*
X26207818Y-61511808D01*
X26341068Y-61761101D01*
X26520392Y-61979608D01*
X26738899Y-62158932D01*
X26871858Y-62230000D01*
X26738899Y-62301068D01*
X26520392Y-62480392D01*
X26341068Y-62698899D01*
X26207818Y-62948192D01*
X26125764Y-63218691D01*
X26098057Y-63500000D01*
X26125764Y-63781309D01*
X26207818Y-64051808D01*
X26341068Y-64301101D01*
X26520392Y-64519608D01*
X26738899Y-64698932D01*
X26871858Y-64770000D01*
X26738899Y-64841068D01*
X26520392Y-65020392D01*
X26341068Y-65238899D01*
X26207818Y-65488192D01*
X26125764Y-65758691D01*
X26098057Y-66040000D01*
X26125764Y-66321309D01*
X26207818Y-66591808D01*
X26341068Y-66841101D01*
X26520392Y-67059608D01*
X26738899Y-67238932D01*
X26871858Y-67310000D01*
X26738899Y-67381068D01*
X26520392Y-67560392D01*
X26341068Y-67778899D01*
X26207818Y-68028192D01*
X26125764Y-68298691D01*
X26098057Y-68580000D01*
X26125764Y-68861309D01*
X26207818Y-69131808D01*
X26341068Y-69381101D01*
X26520392Y-69599608D01*
X26738899Y-69778932D01*
X26871858Y-69850000D01*
X26738899Y-69921068D01*
X26520392Y-70100392D01*
X26341068Y-70318899D01*
X26207818Y-70568192D01*
X26125764Y-70838691D01*
X26098057Y-71120000D01*
X26125764Y-71401309D01*
X26207818Y-71671808D01*
X26341068Y-71921101D01*
X26520392Y-72139608D01*
X26738899Y-72318932D01*
X26866741Y-72387265D01*
X26637161Y-72537399D01*
X26435500Y-72735105D01*
X26276285Y-72968354D01*
X26165633Y-73228182D01*
X26148096Y-73310961D01*
X26270085Y-73533000D01*
X27813000Y-73533000D01*
X27813000Y-73513000D01*
X28067000Y-73513000D01*
X28067000Y-73533000D01*
X29609915Y-73533000D01*
X29731904Y-73310961D01*
X29714367Y-73228182D01*
X29603715Y-72968354D01*
X29444500Y-72735105D01*
X29242839Y-72537399D01*
X29013259Y-72387265D01*
X29141101Y-72318932D01*
X29359608Y-72139608D01*
X29538932Y-71921101D01*
X29672182Y-71671808D01*
X29754236Y-71401309D01*
X29781943Y-71120000D01*
X29754236Y-70838691D01*
X29672182Y-70568192D01*
X29538932Y-70318899D01*
X29359608Y-70100392D01*
X29141101Y-69921068D01*
X29008142Y-69850000D01*
X29141101Y-69778932D01*
X29359608Y-69599608D01*
X29538932Y-69381101D01*
X29672182Y-69131808D01*
X29754236Y-68861309D01*
X29781943Y-68580000D01*
X29754236Y-68298691D01*
X29672182Y-68028192D01*
X29538932Y-67778899D01*
X29359608Y-67560392D01*
X29141101Y-67381068D01*
X29008142Y-67310000D01*
X29141101Y-67238932D01*
X29359608Y-67059608D01*
X29538932Y-66841101D01*
X29672182Y-66591808D01*
X29754236Y-66321309D01*
X29781943Y-66040000D01*
X29754236Y-65758691D01*
X29672182Y-65488192D01*
X29538932Y-65238899D01*
X29359608Y-65020392D01*
X29141101Y-64841068D01*
X29008142Y-64770000D01*
X29141101Y-64698932D01*
X29359608Y-64519608D01*
X29538932Y-64301101D01*
X29672182Y-64051808D01*
X29754236Y-63781309D01*
X29781943Y-63500000D01*
X29754236Y-63218691D01*
X29672182Y-62948192D01*
X29538932Y-62698899D01*
X29359608Y-62480392D01*
X29141101Y-62301068D01*
X29008142Y-62230000D01*
X29141101Y-62158932D01*
X29359608Y-61979608D01*
X29538932Y-61761101D01*
X29672182Y-61511808D01*
X29754236Y-61241309D01*
X29781943Y-60960000D01*
X29754236Y-60678691D01*
X29672182Y-60408192D01*
X29538932Y-60158899D01*
X29359608Y-59940392D01*
X29141101Y-59761068D01*
X29008142Y-59690000D01*
X29141101Y-59618932D01*
X29359608Y-59439608D01*
X29538932Y-59221101D01*
X29672182Y-58971808D01*
X29754236Y-58701309D01*
X29781943Y-58420000D01*
X29754236Y-58138691D01*
X29672182Y-57868192D01*
X29538932Y-57618899D01*
X29359608Y-57400392D01*
X29141101Y-57221068D01*
X29008142Y-57150000D01*
X29141101Y-57078932D01*
X29359608Y-56899608D01*
X29538932Y-56681101D01*
X29672182Y-56431808D01*
X29754236Y-56161309D01*
X29781943Y-55880000D01*
X29754236Y-55598691D01*
X29672182Y-55328192D01*
X29538932Y-55078899D01*
X29359608Y-54860392D01*
X29141101Y-54681068D01*
X29008142Y-54610000D01*
X29141101Y-54538932D01*
X29359608Y-54359608D01*
X29538932Y-54141101D01*
X29672182Y-53891808D01*
X29754236Y-53621309D01*
X29781943Y-53340000D01*
X29754236Y-53058691D01*
X29672182Y-52788192D01*
X29538932Y-52538899D01*
X29359608Y-52320392D01*
X29141101Y-52141068D01*
X29008142Y-52070000D01*
X29141101Y-51998932D01*
X29359608Y-51819608D01*
X29538932Y-51601101D01*
X29672182Y-51351808D01*
X29754236Y-51081309D01*
X29781943Y-50800000D01*
X29754236Y-50518691D01*
X29672182Y-50248192D01*
X29538932Y-49998899D01*
X29359608Y-49780392D01*
X29141101Y-49601068D01*
X29008142Y-49530000D01*
X29141101Y-49458932D01*
X29359608Y-49279608D01*
X29538932Y-49061101D01*
X29672182Y-48811808D01*
X29754236Y-48541309D01*
X29781943Y-48260000D01*
X29754236Y-47978691D01*
X29672182Y-47708192D01*
X29538932Y-47458899D01*
X29359608Y-47240392D01*
X29141101Y-47061068D01*
X29008142Y-46990000D01*
X29141101Y-46918932D01*
X29359608Y-46739608D01*
X29538932Y-46521101D01*
X29672182Y-46271808D01*
X29754236Y-46001309D01*
X29781943Y-45720000D01*
X29754236Y-45438691D01*
X29672182Y-45168192D01*
X29538932Y-44918899D01*
X29359608Y-44700392D01*
X29141101Y-44521068D01*
X29008142Y-44450000D01*
X29141101Y-44378932D01*
X29359608Y-44199608D01*
X29538932Y-43981101D01*
X29672182Y-43731808D01*
X29754236Y-43461309D01*
X29781943Y-43180000D01*
X29754236Y-42898691D01*
X29672182Y-42628192D01*
X29538932Y-42378899D01*
X29359608Y-42160392D01*
X29141101Y-41981068D01*
X29008142Y-41910000D01*
X29141101Y-41838932D01*
X29359608Y-41659608D01*
X29538932Y-41441101D01*
X29672182Y-41191808D01*
X29754236Y-40921309D01*
X29781943Y-40640000D01*
X29754236Y-40358691D01*
X29672182Y-40088192D01*
X29538932Y-39838899D01*
X29359608Y-39620392D01*
X29141101Y-39441068D01*
X29008142Y-39370000D01*
X29141101Y-39298932D01*
X29359608Y-39119608D01*
X29538932Y-38901101D01*
X29672182Y-38651808D01*
X29754236Y-38381309D01*
X29781943Y-38100000D01*
X29754236Y-37818691D01*
X29672182Y-37548192D01*
X29538932Y-37298899D01*
X29359608Y-37080392D01*
X29246518Y-36987581D01*
X29264482Y-36985812D01*
X29384180Y-36949502D01*
X29494494Y-36890537D01*
X29591185Y-36811185D01*
X29670537Y-36714494D01*
X29729502Y-36604180D01*
X29765812Y-36484482D01*
X29778072Y-36360000D01*
X29778072Y-34760000D01*
X29773148Y-34710000D01*
X31531928Y-34710000D01*
X31531928Y-36410000D01*
X31544188Y-36534482D01*
X31580498Y-36654180D01*
X31639463Y-36764494D01*
X31718815Y-36861185D01*
X31815506Y-36940537D01*
X31925820Y-36999502D01*
X31998380Y-37021513D01*
X31866525Y-37153368D01*
X31704010Y-37396589D01*
X31592068Y-37666842D01*
X31535000Y-37953740D01*
X31535000Y-38246260D01*
X31592068Y-38533158D01*
X31704010Y-38803411D01*
X31866525Y-39046632D01*
X32073368Y-39253475D01*
X32247760Y-39370000D01*
X32073368Y-39486525D01*
X31866525Y-39693368D01*
X31704010Y-39936589D01*
X31592068Y-40206842D01*
X31535000Y-40493740D01*
X31535000Y-40786260D01*
X31592068Y-41073158D01*
X31704010Y-41343411D01*
X31866525Y-41586632D01*
X32073368Y-41793475D01*
X32247760Y-41910000D01*
X32073368Y-42026525D01*
X31866525Y-42233368D01*
X31704010Y-42476589D01*
X31592068Y-42746842D01*
X31535000Y-43033740D01*
X31535000Y-43326260D01*
X31592068Y-43613158D01*
X31704010Y-43883411D01*
X31866525Y-44126632D01*
X32073368Y-44333475D01*
X32247760Y-44450000D01*
X32073368Y-44566525D01*
X31866525Y-44773368D01*
X31704010Y-45016589D01*
X31592068Y-45286842D01*
X31535000Y-45573740D01*
X31535000Y-45866260D01*
X31592068Y-46153158D01*
X31704010Y-46423411D01*
X31866525Y-46666632D01*
X32073368Y-46873475D01*
X32247760Y-46990000D01*
X32073368Y-47106525D01*
X31866525Y-47313368D01*
X31704010Y-47556589D01*
X31592068Y-47826842D01*
X31535000Y-48113740D01*
X31535000Y-48406260D01*
X31592068Y-48693158D01*
X31704010Y-48963411D01*
X31866525Y-49206632D01*
X32073368Y-49413475D01*
X32247760Y-49530000D01*
X32073368Y-49646525D01*
X31866525Y-49853368D01*
X31704010Y-50096589D01*
X31592068Y-50366842D01*
X31535000Y-50653740D01*
X31535000Y-50946260D01*
X31592068Y-51233158D01*
X31704010Y-51503411D01*
X31866525Y-51746632D01*
X32073368Y-51953475D01*
X32247760Y-52070000D01*
X32073368Y-52186525D01*
X31866525Y-52393368D01*
X31704010Y-52636589D01*
X31592068Y-52906842D01*
X31535000Y-53193740D01*
X31535000Y-53486260D01*
X31592068Y-53773158D01*
X31704010Y-54043411D01*
X31866525Y-54286632D01*
X32073368Y-54493475D01*
X32247760Y-54610000D01*
X32073368Y-54726525D01*
X31866525Y-54933368D01*
X31704010Y-55176589D01*
X31592068Y-55446842D01*
X31535000Y-55733740D01*
X31535000Y-56026260D01*
X31592068Y-56313158D01*
X31704010Y-56583411D01*
X31866525Y-56826632D01*
X32073368Y-57033475D01*
X32247760Y-57150000D01*
X32073368Y-57266525D01*
X31866525Y-57473368D01*
X31704010Y-57716589D01*
X31592068Y-57986842D01*
X31535000Y-58273740D01*
X31535000Y-58566260D01*
X31592068Y-58853158D01*
X31704010Y-59123411D01*
X31866525Y-59366632D01*
X32073368Y-59573475D01*
X32247760Y-59690000D01*
X32073368Y-59806525D01*
X31866525Y-60013368D01*
X31704010Y-60256589D01*
X31592068Y-60526842D01*
X31535000Y-60813740D01*
X31535000Y-61106260D01*
X31592068Y-61393158D01*
X31704010Y-61663411D01*
X31866525Y-61906632D01*
X32073368Y-62113475D01*
X32247760Y-62230000D01*
X32073368Y-62346525D01*
X31866525Y-62553368D01*
X31704010Y-62796589D01*
X31592068Y-63066842D01*
X31535000Y-63353740D01*
X31535000Y-63646260D01*
X31592068Y-63933158D01*
X31704010Y-64203411D01*
X31866525Y-64446632D01*
X32073368Y-64653475D01*
X32247760Y-64770000D01*
X32073368Y-64886525D01*
X31866525Y-65093368D01*
X31704010Y-65336589D01*
X31592068Y-65606842D01*
X31535000Y-65893740D01*
X31535000Y-66186260D01*
X31592068Y-66473158D01*
X31704010Y-66743411D01*
X31866525Y-66986632D01*
X32073368Y-67193475D01*
X32247760Y-67310000D01*
X32073368Y-67426525D01*
X31866525Y-67633368D01*
X31704010Y-67876589D01*
X31592068Y-68146842D01*
X31535000Y-68433740D01*
X31535000Y-68726260D01*
X31592068Y-69013158D01*
X31704010Y-69283411D01*
X31866525Y-69526632D01*
X32073368Y-69733475D01*
X32247760Y-69850000D01*
X32073368Y-69966525D01*
X31866525Y-70173368D01*
X31704010Y-70416589D01*
X31592068Y-70686842D01*
X31535000Y-70973740D01*
X31535000Y-71266260D01*
X31592068Y-71553158D01*
X31704010Y-71823411D01*
X31866525Y-72066632D01*
X32073368Y-72273475D01*
X32255534Y-72395195D01*
X32138645Y-72464822D01*
X31922412Y-72659731D01*
X31748359Y-72893080D01*
X31623175Y-73155901D01*
X31578524Y-73303110D01*
X31699845Y-73533000D01*
X32893000Y-73533000D01*
X32893000Y-73513000D01*
X33147000Y-73513000D01*
X33147000Y-73533000D01*
X34340155Y-73533000D01*
X34461476Y-73303110D01*
X34416825Y-73155901D01*
X34291641Y-72893080D01*
X34117588Y-72659731D01*
X33901355Y-72464822D01*
X33784466Y-72395195D01*
X33966632Y-72273475D01*
X34173475Y-72066632D01*
X34335990Y-71823411D01*
X34447932Y-71553158D01*
X34505000Y-71266260D01*
X34505000Y-70973740D01*
X34447932Y-70686842D01*
X34335990Y-70416589D01*
X34173475Y-70173368D01*
X33966632Y-69966525D01*
X33792240Y-69850000D01*
X33966632Y-69733475D01*
X34173475Y-69526632D01*
X34335990Y-69283411D01*
X34447932Y-69013158D01*
X34505000Y-68726260D01*
X34505000Y-68433740D01*
X34447932Y-68146842D01*
X34335990Y-67876589D01*
X34173475Y-67633368D01*
X33966632Y-67426525D01*
X33792240Y-67310000D01*
X33966632Y-67193475D01*
X34173475Y-66986632D01*
X34335990Y-66743411D01*
X34447932Y-66473158D01*
X34505000Y-66186260D01*
X34505000Y-65893740D01*
X34447932Y-65606842D01*
X34335990Y-65336589D01*
X34173475Y-65093368D01*
X33966632Y-64886525D01*
X33792240Y-64770000D01*
X33966632Y-64653475D01*
X34173475Y-64446632D01*
X34335990Y-64203411D01*
X34447932Y-63933158D01*
X34505000Y-63646260D01*
X34505000Y-63353740D01*
X34447932Y-63066842D01*
X34335990Y-62796589D01*
X34173475Y-62553368D01*
X33966632Y-62346525D01*
X33792240Y-62230000D01*
X33966632Y-62113475D01*
X34173475Y-61906632D01*
X34335990Y-61663411D01*
X34447932Y-61393158D01*
X34505000Y-61106260D01*
X34505000Y-60813740D01*
X34447932Y-60526842D01*
X34335990Y-60256589D01*
X34173475Y-60013368D01*
X33966632Y-59806525D01*
X33792240Y-59690000D01*
X33966632Y-59573475D01*
X34173475Y-59366632D01*
X34335990Y-59123411D01*
X34447932Y-58853158D01*
X34505000Y-58566260D01*
X34505000Y-58273740D01*
X34447932Y-57986842D01*
X34335990Y-57716589D01*
X34173475Y-57473368D01*
X33966632Y-57266525D01*
X33792240Y-57150000D01*
X33966632Y-57033475D01*
X34173475Y-56826632D01*
X34335990Y-56583411D01*
X34447932Y-56313158D01*
X34505000Y-56026260D01*
X34505000Y-55733740D01*
X34447932Y-55446842D01*
X34335990Y-55176589D01*
X34173475Y-54933368D01*
X33966632Y-54726525D01*
X33792240Y-54610000D01*
X33966632Y-54493475D01*
X34173475Y-54286632D01*
X34335990Y-54043411D01*
X34447932Y-53773158D01*
X34505000Y-53486260D01*
X34505000Y-53193740D01*
X34447932Y-52906842D01*
X34335990Y-52636589D01*
X34173475Y-52393368D01*
X33966632Y-52186525D01*
X33792240Y-52070000D01*
X33966632Y-51953475D01*
X34173475Y-51746632D01*
X34335990Y-51503411D01*
X34447932Y-51233158D01*
X34505000Y-50946260D01*
X34505000Y-50653740D01*
X34447932Y-50366842D01*
X34335990Y-50096589D01*
X34173475Y-49853368D01*
X33966632Y-49646525D01*
X33792240Y-49530000D01*
X33966632Y-49413475D01*
X34173475Y-49206632D01*
X34335990Y-48963411D01*
X34447932Y-48693158D01*
X34505000Y-48406260D01*
X34505000Y-48113740D01*
X34447932Y-47826842D01*
X34335990Y-47556589D01*
X34173475Y-47313368D01*
X33966632Y-47106525D01*
X33792240Y-46990000D01*
X33966632Y-46873475D01*
X34173475Y-46666632D01*
X34335990Y-46423411D01*
X34447932Y-46153158D01*
X34505000Y-45866260D01*
X34505000Y-45573740D01*
X34447932Y-45286842D01*
X34335990Y-45016589D01*
X34173475Y-44773368D01*
X33966632Y-44566525D01*
X33792240Y-44450000D01*
X33966632Y-44333475D01*
X34173475Y-44126632D01*
X34335990Y-43883411D01*
X34447932Y-43613158D01*
X34505000Y-43326260D01*
X34505000Y-43033740D01*
X34447932Y-42746842D01*
X34335990Y-42476589D01*
X34173475Y-42233368D01*
X33966632Y-42026525D01*
X33792240Y-41910000D01*
X33966632Y-41793475D01*
X34173475Y-41586632D01*
X34335990Y-41343411D01*
X34447932Y-41073158D01*
X34505000Y-40786260D01*
X34505000Y-40493740D01*
X34447932Y-40206842D01*
X34335990Y-39936589D01*
X34173475Y-39693368D01*
X33966632Y-39486525D01*
X33792240Y-39370000D01*
X33966632Y-39253475D01*
X34173475Y-39046632D01*
X34335990Y-38803411D01*
X34447932Y-38533158D01*
X34505000Y-38246260D01*
X34505000Y-37953740D01*
X34447932Y-37666842D01*
X34335990Y-37396589D01*
X34173475Y-37153368D01*
X34041620Y-37021513D01*
X34114180Y-36999502D01*
X34224494Y-36940537D01*
X34321185Y-36861185D01*
X34400537Y-36764494D01*
X34459502Y-36654180D01*
X34495812Y-36534482D01*
X34508072Y-36410000D01*
X34508072Y-35560000D01*
X41338057Y-35560000D01*
X41365764Y-35841309D01*
X41447818Y-36111808D01*
X41581068Y-36361101D01*
X41760392Y-36579608D01*
X41978899Y-36758932D01*
X42111858Y-36830000D01*
X41978899Y-36901068D01*
X41760392Y-37080392D01*
X41581068Y-37298899D01*
X41447818Y-37548192D01*
X41365764Y-37818691D01*
X41338057Y-38100000D01*
X41365764Y-38381309D01*
X41447818Y-38651808D01*
X41581068Y-38901101D01*
X41760392Y-39119608D01*
X41978899Y-39298932D01*
X42111858Y-39370000D01*
X41978899Y-39441068D01*
X41760392Y-39620392D01*
X41581068Y-39838899D01*
X41447818Y-40088192D01*
X41365764Y-40358691D01*
X41338057Y-40640000D01*
X41365764Y-40921309D01*
X41447818Y-41191808D01*
X41581068Y-41441101D01*
X41760392Y-41659608D01*
X41978899Y-41838932D01*
X42111858Y-41910000D01*
X41978899Y-41981068D01*
X41760392Y-42160392D01*
X41581068Y-42378899D01*
X41447818Y-42628192D01*
X41365764Y-42898691D01*
X41338057Y-43180000D01*
X41365764Y-43461309D01*
X41447818Y-43731808D01*
X41581068Y-43981101D01*
X41760392Y-44199608D01*
X41978899Y-44378932D01*
X42111858Y-44450000D01*
X41978899Y-44521068D01*
X41760392Y-44700392D01*
X41581068Y-44918899D01*
X41447818Y-45168192D01*
X41365764Y-45438691D01*
X41338057Y-45720000D01*
X41365764Y-46001309D01*
X41447818Y-46271808D01*
X41581068Y-46521101D01*
X41760392Y-46739608D01*
X41978899Y-46918932D01*
X42111858Y-46990000D01*
X41978899Y-47061068D01*
X41760392Y-47240392D01*
X41581068Y-47458899D01*
X41447818Y-47708192D01*
X41365764Y-47978691D01*
X41338057Y-48260000D01*
X41365764Y-48541309D01*
X41447818Y-48811808D01*
X41581068Y-49061101D01*
X41760392Y-49279608D01*
X41978899Y-49458932D01*
X42111858Y-49530000D01*
X41978899Y-49601068D01*
X41760392Y-49780392D01*
X41581068Y-49998899D01*
X41447818Y-50248192D01*
X41365764Y-50518691D01*
X41338057Y-50800000D01*
X41365764Y-51081309D01*
X41447818Y-51351808D01*
X41581068Y-51601101D01*
X41760392Y-51819608D01*
X41978899Y-51998932D01*
X42111858Y-52070000D01*
X41978899Y-52141068D01*
X41760392Y-52320392D01*
X41581068Y-52538899D01*
X41447818Y-52788192D01*
X41365764Y-53058691D01*
X41338057Y-53340000D01*
X41365764Y-53621309D01*
X41447818Y-53891808D01*
X41581068Y-54141101D01*
X41760392Y-54359608D01*
X41978899Y-54538932D01*
X42111858Y-54610000D01*
X41978899Y-54681068D01*
X41760392Y-54860392D01*
X41581068Y-55078899D01*
X41447818Y-55328192D01*
X41365764Y-55598691D01*
X41338057Y-55880000D01*
X41365764Y-56161309D01*
X41447818Y-56431808D01*
X41581068Y-56681101D01*
X41760392Y-56899608D01*
X41978899Y-57078932D01*
X42111858Y-57150000D01*
X41978899Y-57221068D01*
X41760392Y-57400392D01*
X41581068Y-57618899D01*
X41447818Y-57868192D01*
X41365764Y-58138691D01*
X41338057Y-58420000D01*
X41365764Y-58701309D01*
X41447818Y-58971808D01*
X41581068Y-59221101D01*
X41760392Y-59439608D01*
X41978899Y-59618932D01*
X42111858Y-59690000D01*
X41978899Y-59761068D01*
X41760392Y-59940392D01*
X41581068Y-60158899D01*
X41447818Y-60408192D01*
X41365764Y-60678691D01*
X41338057Y-60960000D01*
X41365764Y-61241309D01*
X41447818Y-61511808D01*
X41581068Y-61761101D01*
X41760392Y-61979608D01*
X41978899Y-62158932D01*
X42111858Y-62230000D01*
X41978899Y-62301068D01*
X41760392Y-62480392D01*
X41581068Y-62698899D01*
X41447818Y-62948192D01*
X41365764Y-63218691D01*
X41338057Y-63500000D01*
X41365764Y-63781309D01*
X41447818Y-64051808D01*
X41581068Y-64301101D01*
X41760392Y-64519608D01*
X41978899Y-64698932D01*
X42111858Y-64770000D01*
X41978899Y-64841068D01*
X41760392Y-65020392D01*
X41581068Y-65238899D01*
X41447818Y-65488192D01*
X41365764Y-65758691D01*
X41338057Y-66040000D01*
X41365764Y-66321309D01*
X41447818Y-66591808D01*
X41581068Y-66841101D01*
X41760392Y-67059608D01*
X41978899Y-67238932D01*
X42111858Y-67310000D01*
X41978899Y-67381068D01*
X41760392Y-67560392D01*
X41581068Y-67778899D01*
X41447818Y-68028192D01*
X41365764Y-68298691D01*
X41338057Y-68580000D01*
X41365764Y-68861309D01*
X41447818Y-69131808D01*
X41581068Y-69381101D01*
X41760392Y-69599608D01*
X41978899Y-69778932D01*
X42111858Y-69850000D01*
X41978899Y-69921068D01*
X41760392Y-70100392D01*
X41581068Y-70318899D01*
X41447818Y-70568192D01*
X41365764Y-70838691D01*
X41338057Y-71120000D01*
X41365764Y-71401309D01*
X41447818Y-71671808D01*
X41581068Y-71921101D01*
X41760392Y-72139608D01*
X41978899Y-72318932D01*
X42111858Y-72390000D01*
X41978899Y-72461068D01*
X41760392Y-72640392D01*
X41581068Y-72858899D01*
X41447818Y-73108192D01*
X41365764Y-73378691D01*
X41338057Y-73660000D01*
X41365764Y-73941309D01*
X41447818Y-74211808D01*
X41581068Y-74461101D01*
X41760392Y-74679608D01*
X41978899Y-74858932D01*
X42228192Y-74992182D01*
X42498691Y-75074236D01*
X42709508Y-75095000D01*
X43650492Y-75095000D01*
X43861309Y-75074236D01*
X44131808Y-74992182D01*
X44381101Y-74858932D01*
X44599608Y-74679608D01*
X44778932Y-74461101D01*
X44912182Y-74211808D01*
X44994236Y-73941309D01*
X45021943Y-73660000D01*
X44994236Y-73378691D01*
X44912182Y-73108192D01*
X44778932Y-72858899D01*
X44738802Y-72810000D01*
X50581928Y-72810000D01*
X50581928Y-74510000D01*
X50594188Y-74634482D01*
X50630498Y-74754180D01*
X50689463Y-74864494D01*
X50768815Y-74961185D01*
X50865506Y-75040537D01*
X50975820Y-75099502D01*
X51095518Y-75135812D01*
X51220000Y-75148072D01*
X52920000Y-75148072D01*
X53044482Y-75135812D01*
X53164180Y-75099502D01*
X53274494Y-75040537D01*
X53371185Y-74961185D01*
X53450537Y-74864494D01*
X53509502Y-74754180D01*
X53545812Y-74634482D01*
X53558072Y-74510000D01*
X53558072Y-72810000D01*
X53545812Y-72685518D01*
X53509502Y-72565820D01*
X53450537Y-72455506D01*
X53371185Y-72358815D01*
X53274494Y-72279463D01*
X53164180Y-72220498D01*
X53091620Y-72198487D01*
X53223475Y-72066632D01*
X53385990Y-71823411D01*
X53497932Y-71553158D01*
X53555000Y-71266260D01*
X53555000Y-70973740D01*
X53497932Y-70686842D01*
X53385990Y-70416589D01*
X53223475Y-70173368D01*
X53016632Y-69966525D01*
X52842240Y-69850000D01*
X53016632Y-69733475D01*
X53223475Y-69526632D01*
X53385990Y-69283411D01*
X53497932Y-69013158D01*
X53555000Y-68726260D01*
X53555000Y-68433740D01*
X53497932Y-68146842D01*
X53385990Y-67876589D01*
X53223475Y-67633368D01*
X53016632Y-67426525D01*
X52842240Y-67310000D01*
X53016632Y-67193475D01*
X53223475Y-66986632D01*
X53385990Y-66743411D01*
X53497932Y-66473158D01*
X53555000Y-66186260D01*
X53555000Y-65893740D01*
X53497932Y-65606842D01*
X53385990Y-65336589D01*
X53223475Y-65093368D01*
X53016632Y-64886525D01*
X52842240Y-64770000D01*
X53016632Y-64653475D01*
X53223475Y-64446632D01*
X53385990Y-64203411D01*
X53497932Y-63933158D01*
X53555000Y-63646260D01*
X53555000Y-63353740D01*
X53497932Y-63066842D01*
X53385990Y-62796589D01*
X53223475Y-62553368D01*
X53016632Y-62346525D01*
X52842240Y-62230000D01*
X53016632Y-62113475D01*
X53223475Y-61906632D01*
X53385990Y-61663411D01*
X53497932Y-61393158D01*
X53555000Y-61106260D01*
X53555000Y-60813740D01*
X53497932Y-60526842D01*
X53385990Y-60256589D01*
X53223475Y-60013368D01*
X53016632Y-59806525D01*
X52842240Y-59690000D01*
X53016632Y-59573475D01*
X53223475Y-59366632D01*
X53385990Y-59123411D01*
X53497932Y-58853158D01*
X53555000Y-58566260D01*
X53555000Y-58273740D01*
X53497932Y-57986842D01*
X53385990Y-57716589D01*
X53223475Y-57473368D01*
X53016632Y-57266525D01*
X52842240Y-57150000D01*
X53016632Y-57033475D01*
X53223475Y-56826632D01*
X53385990Y-56583411D01*
X53497932Y-56313158D01*
X53555000Y-56026260D01*
X53555000Y-55733740D01*
X53497932Y-55446842D01*
X53385990Y-55176589D01*
X53223475Y-54933368D01*
X53016632Y-54726525D01*
X52842240Y-54610000D01*
X53016632Y-54493475D01*
X53223475Y-54286632D01*
X53385990Y-54043411D01*
X53497932Y-53773158D01*
X53555000Y-53486260D01*
X53555000Y-53193740D01*
X53497932Y-52906842D01*
X53385990Y-52636589D01*
X53223475Y-52393368D01*
X53016632Y-52186525D01*
X52842240Y-52070000D01*
X53016632Y-51953475D01*
X53223475Y-51746632D01*
X53385990Y-51503411D01*
X53497932Y-51233158D01*
X53555000Y-50946260D01*
X53555000Y-50653740D01*
X53497932Y-50366842D01*
X53385990Y-50096589D01*
X53223475Y-49853368D01*
X53016632Y-49646525D01*
X52842240Y-49530000D01*
X53016632Y-49413475D01*
X53223475Y-49206632D01*
X53385990Y-48963411D01*
X53497932Y-48693158D01*
X53555000Y-48406260D01*
X53555000Y-48113740D01*
X53497932Y-47826842D01*
X53385990Y-47556589D01*
X53223475Y-47313368D01*
X53016632Y-47106525D01*
X52842240Y-46990000D01*
X53016632Y-46873475D01*
X53223475Y-46666632D01*
X53385990Y-46423411D01*
X53497932Y-46153158D01*
X53555000Y-45866260D01*
X53555000Y-45573740D01*
X53497932Y-45286842D01*
X53385990Y-45016589D01*
X53223475Y-44773368D01*
X53016632Y-44566525D01*
X52842240Y-44450000D01*
X53016632Y-44333475D01*
X53223475Y-44126632D01*
X53385990Y-43883411D01*
X53497932Y-43613158D01*
X53555000Y-43326260D01*
X53555000Y-43033740D01*
X53497932Y-42746842D01*
X53385990Y-42476589D01*
X53223475Y-42233368D01*
X53016632Y-42026525D01*
X52842240Y-41910000D01*
X53016632Y-41793475D01*
X53223475Y-41586632D01*
X53385990Y-41343411D01*
X53497932Y-41073158D01*
X53555000Y-40786260D01*
X53555000Y-40493740D01*
X53497932Y-40206842D01*
X53385990Y-39936589D01*
X53223475Y-39693368D01*
X53016632Y-39486525D01*
X52842240Y-39370000D01*
X53016632Y-39253475D01*
X53223475Y-39046632D01*
X53385990Y-38803411D01*
X53497932Y-38533158D01*
X53555000Y-38246260D01*
X53555000Y-37953740D01*
X53497932Y-37666842D01*
X53385990Y-37396589D01*
X53223475Y-37153368D01*
X53016632Y-36946525D01*
X52842240Y-36830000D01*
X53016632Y-36713475D01*
X53223475Y-36506632D01*
X53385990Y-36263411D01*
X53497932Y-35993158D01*
X53555000Y-35706260D01*
X53555000Y-35413740D01*
X53497932Y-35126842D01*
X53385990Y-34856589D01*
X53223475Y-34613368D01*
X53016632Y-34406525D01*
X52773411Y-34244010D01*
X52503158Y-34132068D01*
X52216260Y-34075000D01*
X51923740Y-34075000D01*
X51636842Y-34132068D01*
X51366589Y-34244010D01*
X51123368Y-34406525D01*
X50916525Y-34613368D01*
X50754010Y-34856589D01*
X50642068Y-35126842D01*
X50585000Y-35413740D01*
X50585000Y-35706260D01*
X50642068Y-35993158D01*
X50754010Y-36263411D01*
X50916525Y-36506632D01*
X51123368Y-36713475D01*
X51297760Y-36830000D01*
X51123368Y-36946525D01*
X50916525Y-37153368D01*
X50754010Y-37396589D01*
X50642068Y-37666842D01*
X50585000Y-37953740D01*
X50585000Y-38246260D01*
X50642068Y-38533158D01*
X50754010Y-38803411D01*
X50916525Y-39046632D01*
X51123368Y-39253475D01*
X51297760Y-39370000D01*
X51123368Y-39486525D01*
X50916525Y-39693368D01*
X50754010Y-39936589D01*
X50642068Y-40206842D01*
X50585000Y-40493740D01*
X50585000Y-40786260D01*
X50642068Y-41073158D01*
X50754010Y-41343411D01*
X50916525Y-41586632D01*
X51123368Y-41793475D01*
X51297760Y-41910000D01*
X51123368Y-42026525D01*
X50916525Y-42233368D01*
X50754010Y-42476589D01*
X50642068Y-42746842D01*
X50585000Y-43033740D01*
X50585000Y-43326260D01*
X50642068Y-43613158D01*
X50754010Y-43883411D01*
X50916525Y-44126632D01*
X51123368Y-44333475D01*
X51297760Y-44450000D01*
X51123368Y-44566525D01*
X50916525Y-44773368D01*
X50754010Y-45016589D01*
X50642068Y-45286842D01*
X50585000Y-45573740D01*
X50585000Y-45866260D01*
X50642068Y-46153158D01*
X50754010Y-46423411D01*
X50916525Y-46666632D01*
X51123368Y-46873475D01*
X51297760Y-46990000D01*
X51123368Y-47106525D01*
X50916525Y-47313368D01*
X50754010Y-47556589D01*
X50642068Y-47826842D01*
X50585000Y-48113740D01*
X50585000Y-48406260D01*
X50642068Y-48693158D01*
X50754010Y-48963411D01*
X50916525Y-49206632D01*
X51123368Y-49413475D01*
X51297760Y-49530000D01*
X51123368Y-49646525D01*
X50916525Y-49853368D01*
X50754010Y-50096589D01*
X50642068Y-50366842D01*
X50585000Y-50653740D01*
X50585000Y-50946260D01*
X50642068Y-51233158D01*
X50754010Y-51503411D01*
X50916525Y-51746632D01*
X51123368Y-51953475D01*
X51297760Y-52070000D01*
X51123368Y-52186525D01*
X50916525Y-52393368D01*
X50754010Y-52636589D01*
X50642068Y-52906842D01*
X50585000Y-53193740D01*
X50585000Y-53486260D01*
X50642068Y-53773158D01*
X50754010Y-54043411D01*
X50916525Y-54286632D01*
X51123368Y-54493475D01*
X51297760Y-54610000D01*
X51123368Y-54726525D01*
X50916525Y-54933368D01*
X50754010Y-55176589D01*
X50642068Y-55446842D01*
X50585000Y-55733740D01*
X50585000Y-56026260D01*
X50642068Y-56313158D01*
X50754010Y-56583411D01*
X50916525Y-56826632D01*
X51123368Y-57033475D01*
X51297760Y-57150000D01*
X51123368Y-57266525D01*
X50916525Y-57473368D01*
X50754010Y-57716589D01*
X50642068Y-57986842D01*
X50585000Y-58273740D01*
X50585000Y-58566260D01*
X50642068Y-58853158D01*
X50754010Y-59123411D01*
X50916525Y-59366632D01*
X51123368Y-59573475D01*
X51297760Y-59690000D01*
X51123368Y-59806525D01*
X50916525Y-60013368D01*
X50754010Y-60256589D01*
X50642068Y-60526842D01*
X50585000Y-60813740D01*
X50585000Y-61106260D01*
X50642068Y-61393158D01*
X50754010Y-61663411D01*
X50916525Y-61906632D01*
X51123368Y-62113475D01*
X51297760Y-62230000D01*
X51123368Y-62346525D01*
X50916525Y-62553368D01*
X50754010Y-62796589D01*
X50642068Y-63066842D01*
X50585000Y-63353740D01*
X50585000Y-63646260D01*
X50642068Y-63933158D01*
X50754010Y-64203411D01*
X50916525Y-64446632D01*
X51123368Y-64653475D01*
X51297760Y-64770000D01*
X51123368Y-64886525D01*
X50916525Y-65093368D01*
X50754010Y-65336589D01*
X50642068Y-65606842D01*
X50585000Y-65893740D01*
X50585000Y-66186260D01*
X50642068Y-66473158D01*
X50754010Y-66743411D01*
X50916525Y-66986632D01*
X51123368Y-67193475D01*
X51297760Y-67310000D01*
X51123368Y-67426525D01*
X50916525Y-67633368D01*
X50754010Y-67876589D01*
X50642068Y-68146842D01*
X50585000Y-68433740D01*
X50585000Y-68726260D01*
X50642068Y-69013158D01*
X50754010Y-69283411D01*
X50916525Y-69526632D01*
X51123368Y-69733475D01*
X51297760Y-69850000D01*
X51123368Y-69966525D01*
X50916525Y-70173368D01*
X50754010Y-70416589D01*
X50642068Y-70686842D01*
X50585000Y-70973740D01*
X50585000Y-71266260D01*
X50642068Y-71553158D01*
X50754010Y-71823411D01*
X50916525Y-72066632D01*
X51048380Y-72198487D01*
X50975820Y-72220498D01*
X50865506Y-72279463D01*
X50768815Y-72358815D01*
X50689463Y-72455506D01*
X50630498Y-72565820D01*
X50594188Y-72685518D01*
X50581928Y-72810000D01*
X44738802Y-72810000D01*
X44599608Y-72640392D01*
X44381101Y-72461068D01*
X44248142Y-72390000D01*
X44381101Y-72318932D01*
X44599608Y-72139608D01*
X44778932Y-71921101D01*
X44912182Y-71671808D01*
X44994236Y-71401309D01*
X45021943Y-71120000D01*
X44994236Y-70838691D01*
X44912182Y-70568192D01*
X44778932Y-70318899D01*
X44599608Y-70100392D01*
X44381101Y-69921068D01*
X44248142Y-69850000D01*
X44381101Y-69778932D01*
X44599608Y-69599608D01*
X44778932Y-69381101D01*
X44912182Y-69131808D01*
X44994236Y-68861309D01*
X45021943Y-68580000D01*
X44994236Y-68298691D01*
X44912182Y-68028192D01*
X44778932Y-67778899D01*
X44599608Y-67560392D01*
X44381101Y-67381068D01*
X44248142Y-67310000D01*
X44381101Y-67238932D01*
X44599608Y-67059608D01*
X44778932Y-66841101D01*
X44912182Y-66591808D01*
X44994236Y-66321309D01*
X45021943Y-66040000D01*
X44994236Y-65758691D01*
X44912182Y-65488192D01*
X44778932Y-65238899D01*
X44599608Y-65020392D01*
X44381101Y-64841068D01*
X44248142Y-64770000D01*
X44381101Y-64698932D01*
X44599608Y-64519608D01*
X44778932Y-64301101D01*
X44912182Y-64051808D01*
X44994236Y-63781309D01*
X45021943Y-63500000D01*
X44994236Y-63218691D01*
X44912182Y-62948192D01*
X44778932Y-62698899D01*
X44599608Y-62480392D01*
X44381101Y-62301068D01*
X44248142Y-62230000D01*
X44381101Y-62158932D01*
X44599608Y-61979608D01*
X44778932Y-61761101D01*
X44912182Y-61511808D01*
X44994236Y-61241309D01*
X45021943Y-60960000D01*
X44994236Y-60678691D01*
X44912182Y-60408192D01*
X44778932Y-60158899D01*
X44599608Y-59940392D01*
X44381101Y-59761068D01*
X44248142Y-59690000D01*
X44381101Y-59618932D01*
X44599608Y-59439608D01*
X44778932Y-59221101D01*
X44912182Y-58971808D01*
X44994236Y-58701309D01*
X45021943Y-58420000D01*
X44994236Y-58138691D01*
X44912182Y-57868192D01*
X44778932Y-57618899D01*
X44599608Y-57400392D01*
X44381101Y-57221068D01*
X44248142Y-57150000D01*
X44381101Y-57078932D01*
X44599608Y-56899608D01*
X44778932Y-56681101D01*
X44912182Y-56431808D01*
X44994236Y-56161309D01*
X45021943Y-55880000D01*
X44994236Y-55598691D01*
X44912182Y-55328192D01*
X44778932Y-55078899D01*
X44599608Y-54860392D01*
X44381101Y-54681068D01*
X44248142Y-54610000D01*
X44381101Y-54538932D01*
X44599608Y-54359608D01*
X44778932Y-54141101D01*
X44912182Y-53891808D01*
X44994236Y-53621309D01*
X45021943Y-53340000D01*
X44994236Y-53058691D01*
X44912182Y-52788192D01*
X44778932Y-52538899D01*
X44599608Y-52320392D01*
X44381101Y-52141068D01*
X44248142Y-52070000D01*
X44381101Y-51998932D01*
X44599608Y-51819608D01*
X44778932Y-51601101D01*
X44912182Y-51351808D01*
X44994236Y-51081309D01*
X45021943Y-50800000D01*
X44994236Y-50518691D01*
X44912182Y-50248192D01*
X44778932Y-49998899D01*
X44599608Y-49780392D01*
X44381101Y-49601068D01*
X44248142Y-49530000D01*
X44381101Y-49458932D01*
X44599608Y-49279608D01*
X44778932Y-49061101D01*
X44912182Y-48811808D01*
X44994236Y-48541309D01*
X45021943Y-48260000D01*
X44994236Y-47978691D01*
X44912182Y-47708192D01*
X44778932Y-47458899D01*
X44599608Y-47240392D01*
X44381101Y-47061068D01*
X44248142Y-46990000D01*
X44381101Y-46918932D01*
X44599608Y-46739608D01*
X44778932Y-46521101D01*
X44912182Y-46271808D01*
X44994236Y-46001309D01*
X45021943Y-45720000D01*
X44994236Y-45438691D01*
X44912182Y-45168192D01*
X44778932Y-44918899D01*
X44599608Y-44700392D01*
X44381101Y-44521068D01*
X44248142Y-44450000D01*
X44381101Y-44378932D01*
X44599608Y-44199608D01*
X44778932Y-43981101D01*
X44912182Y-43731808D01*
X44994236Y-43461309D01*
X45021943Y-43180000D01*
X44994236Y-42898691D01*
X44912182Y-42628192D01*
X44778932Y-42378899D01*
X44599608Y-42160392D01*
X44381101Y-41981068D01*
X44248142Y-41910000D01*
X44381101Y-41838932D01*
X44599608Y-41659608D01*
X44778932Y-41441101D01*
X44912182Y-41191808D01*
X44994236Y-40921309D01*
X45021943Y-40640000D01*
X44994236Y-40358691D01*
X44912182Y-40088192D01*
X44778932Y-39838899D01*
X44599608Y-39620392D01*
X44381101Y-39441068D01*
X44248142Y-39370000D01*
X44381101Y-39298932D01*
X44599608Y-39119608D01*
X44654516Y-39052702D01*
X46176903Y-39052702D01*
X46248486Y-39296671D01*
X46503996Y-39417571D01*
X46778184Y-39486300D01*
X47060512Y-39500217D01*
X47340130Y-39458787D01*
X47606292Y-39363603D01*
X47731514Y-39296671D01*
X47803097Y-39052702D01*
X46990000Y-38239605D01*
X46176903Y-39052702D01*
X44654516Y-39052702D01*
X44778932Y-38901101D01*
X44912182Y-38651808D01*
X44994236Y-38381309D01*
X45018937Y-38130512D01*
X45549783Y-38130512D01*
X45591213Y-38410130D01*
X45686397Y-38676292D01*
X45753329Y-38801514D01*
X45997298Y-38873097D01*
X46810395Y-38060000D01*
X47169605Y-38060000D01*
X47982702Y-38873097D01*
X48226671Y-38801514D01*
X48347571Y-38546004D01*
X48416300Y-38271816D01*
X48430217Y-37989488D01*
X48388787Y-37709870D01*
X48293603Y-37443708D01*
X48226671Y-37318486D01*
X47982702Y-37246903D01*
X47169605Y-38060000D01*
X46810395Y-38060000D01*
X45997298Y-37246903D01*
X45753329Y-37318486D01*
X45632429Y-37573996D01*
X45563700Y-37848184D01*
X45549783Y-38130512D01*
X45018937Y-38130512D01*
X45021943Y-38100000D01*
X44994236Y-37818691D01*
X44912182Y-37548192D01*
X44778932Y-37298899D01*
X44599608Y-37080392D01*
X44381101Y-36901068D01*
X44248142Y-36830000D01*
X44381101Y-36758932D01*
X44599608Y-36579608D01*
X44778932Y-36361101D01*
X44912182Y-36111808D01*
X44994236Y-35841309D01*
X45021943Y-35560000D01*
X45008023Y-35418665D01*
X45555000Y-35418665D01*
X45555000Y-35701335D01*
X45610147Y-35978574D01*
X45718320Y-36239727D01*
X45875363Y-36474759D01*
X46075241Y-36674637D01*
X46275869Y-36808692D01*
X46248486Y-36823329D01*
X46176903Y-37067298D01*
X46990000Y-37880395D01*
X47803097Y-37067298D01*
X47731514Y-36823329D01*
X47702659Y-36809676D01*
X47904759Y-36674637D01*
X48104637Y-36474759D01*
X48261680Y-36239727D01*
X48369853Y-35978574D01*
X48425000Y-35701335D01*
X48425000Y-35418665D01*
X48369853Y-35141426D01*
X48261680Y-34880273D01*
X48104637Y-34645241D01*
X47904759Y-34445363D01*
X47669727Y-34288320D01*
X47408574Y-34180147D01*
X47131335Y-34125000D01*
X46848665Y-34125000D01*
X46571426Y-34180147D01*
X46310273Y-34288320D01*
X46075241Y-34445363D01*
X45875363Y-34645241D01*
X45718320Y-34880273D01*
X45610147Y-35141426D01*
X45555000Y-35418665D01*
X45008023Y-35418665D01*
X44994236Y-35278691D01*
X44912182Y-35008192D01*
X44778932Y-34758899D01*
X44599608Y-34540392D01*
X44381101Y-34361068D01*
X44131808Y-34227818D01*
X43861309Y-34145764D01*
X43650492Y-34125000D01*
X42709508Y-34125000D01*
X42498691Y-34145764D01*
X42228192Y-34227818D01*
X41978899Y-34361068D01*
X41760392Y-34540392D01*
X41581068Y-34758899D01*
X41447818Y-35008192D01*
X41365764Y-35278691D01*
X41338057Y-35560000D01*
X34508072Y-35560000D01*
X34508072Y-34710000D01*
X34495812Y-34585518D01*
X34459502Y-34465820D01*
X34400537Y-34355506D01*
X34321185Y-34258815D01*
X34224494Y-34179463D01*
X34114180Y-34120498D01*
X33994482Y-34084188D01*
X33870000Y-34071928D01*
X32170000Y-34071928D01*
X32045518Y-34084188D01*
X31925820Y-34120498D01*
X31815506Y-34179463D01*
X31718815Y-34258815D01*
X31639463Y-34355506D01*
X31580498Y-34465820D01*
X31544188Y-34585518D01*
X31531928Y-34710000D01*
X29773148Y-34710000D01*
X29765812Y-34635518D01*
X29729502Y-34515820D01*
X29670537Y-34405506D01*
X29591185Y-34308815D01*
X29494494Y-34229463D01*
X29384180Y-34170498D01*
X29264482Y-34134188D01*
X29140000Y-34121928D01*
X26740000Y-34121928D01*
X26615518Y-34134188D01*
X26495820Y-34170498D01*
X26385506Y-34229463D01*
X26288815Y-34308815D01*
X26209463Y-34405506D01*
X26150498Y-34515820D01*
X26114188Y-34635518D01*
X26101928Y-34760000D01*
X26101928Y-36360000D01*
X26114188Y-36484482D01*
X26150498Y-36604180D01*
X26209463Y-36714494D01*
X26288815Y-36811185D01*
X26385506Y-36890537D01*
X26495820Y-36949502D01*
X26615518Y-36985812D01*
X26633482Y-36987581D01*
X26520392Y-37080392D01*
X26341068Y-37298899D01*
X26207818Y-37548192D01*
X26125764Y-37818691D01*
X26098057Y-38100000D01*
X26060000Y-38100000D01*
X26060000Y-34322279D01*
X26074722Y-34172131D01*
X26108953Y-34058754D01*
X26164555Y-33954181D01*
X26239407Y-33862404D01*
X26330664Y-33786909D01*
X26434844Y-33730581D01*
X26547976Y-33695560D01*
X26696022Y-33680000D01*
X53307721Y-33680000D01*
X53457869Y-33694722D01*
G37*
%TD.AperFunction*%
%TD*%
M02*
