%TF.GenerationSoftware,KiCad,Pcbnew,(5.1.7)-1*%
%TF.CreationDate,2022-03-21T18:16:10-03:00*%
%TF.ProjectId,ROMAdaptor,524f4d41-6461-4707-946f-722e6b696361,rev?*%
%TF.SameCoordinates,Original*%
%TF.FileFunction,Copper,L1,Top*%
%TF.FilePolarity,Positive*%
%FSLAX46Y46*%
G04 Gerber Fmt 4.6, Leading zero omitted, Abs format (unit mm)*
G04 Created by KiCad (PCBNEW (5.1.7)-1) date 2022-03-21 18:16:10*
%MOMM*%
%LPD*%
G01*
G04 APERTURE LIST*
%TA.AperFunction,ComponentPad*%
%ADD10C,1.600000*%
%TD*%
%TA.AperFunction,ComponentPad*%
%ADD11O,2.400000X1.600000*%
%TD*%
%TA.AperFunction,ComponentPad*%
%ADD12R,2.400000X1.600000*%
%TD*%
%TA.AperFunction,ComponentPad*%
%ADD13O,1.700000X1.700000*%
%TD*%
%TA.AperFunction,ComponentPad*%
%ADD14R,1.700000X1.700000*%
%TD*%
%TA.AperFunction,ViaPad*%
%ADD15C,0.800000*%
%TD*%
%TA.AperFunction,Conductor*%
%ADD16C,0.500000*%
%TD*%
%TA.AperFunction,Conductor*%
%ADD17C,0.250000*%
%TD*%
%TA.AperFunction,Conductor*%
%ADD18C,0.254000*%
%TD*%
%TA.AperFunction,Conductor*%
%ADD19C,0.100000*%
%TD*%
G04 APERTURE END LIST*
D10*
%TO.P,C1,2*%
%TO.N,GND*%
X46990000Y-38060000D03*
%TO.P,C1,1*%
%TO.N,+5V*%
X46990000Y-35560000D03*
%TD*%
D11*
%TO.P,U1,32*%
%TO.N,+5V*%
X43180000Y-35560000D03*
%TO.P,U1,16*%
%TO.N,GND*%
X27940000Y-73660000D03*
%TO.P,U1,31*%
%TO.N,/WR_N*%
X43180000Y-38100000D03*
%TO.P,U1,15*%
%TO.N,/D2*%
X27940000Y-71120000D03*
%TO.P,U1,30*%
%TO.N,/A17*%
X43180000Y-40640000D03*
%TO.P,U1,14*%
%TO.N,/D1*%
X27940000Y-68580000D03*
%TO.P,U1,29*%
%TO.N,/A14*%
X43180000Y-43180000D03*
%TO.P,U1,13*%
%TO.N,/D0*%
X27940000Y-66040000D03*
%TO.P,U1,28*%
%TO.N,/A13*%
X43180000Y-45720000D03*
%TO.P,U1,12*%
%TO.N,/A0*%
X27940000Y-63500000D03*
%TO.P,U1,27*%
%TO.N,/A8*%
X43180000Y-48260000D03*
%TO.P,U1,11*%
%TO.N,/A1*%
X27940000Y-60960000D03*
%TO.P,U1,26*%
%TO.N,/A9*%
X43180000Y-50800000D03*
%TO.P,U1,10*%
%TO.N,/A2*%
X27940000Y-58420000D03*
%TO.P,U1,25*%
%TO.N,/A11*%
X43180000Y-53340000D03*
%TO.P,U1,9*%
%TO.N,/A3*%
X27940000Y-55880000D03*
%TO.P,U1,24*%
%TO.N,/RD_N*%
X43180000Y-55880000D03*
%TO.P,U1,8*%
%TO.N,/A4*%
X27940000Y-53340000D03*
%TO.P,U1,23*%
%TO.N,/A10*%
X43180000Y-58420000D03*
%TO.P,U1,7*%
%TO.N,/A5*%
X27940000Y-50800000D03*
%TO.P,U1,22*%
%TO.N,/ROMCS_N*%
X43180000Y-60960000D03*
%TO.P,U1,6*%
%TO.N,/A6*%
X27940000Y-48260000D03*
%TO.P,U1,21*%
%TO.N,/D7*%
X43180000Y-63500000D03*
%TO.P,U1,5*%
%TO.N,/A7*%
X27940000Y-45720000D03*
%TO.P,U1,20*%
%TO.N,/D6*%
X43180000Y-66040000D03*
%TO.P,U1,4*%
%TO.N,/A12*%
X27940000Y-43180000D03*
%TO.P,U1,19*%
%TO.N,/D5*%
X43180000Y-68580000D03*
%TO.P,U1,3*%
%TO.N,/A15*%
X27940000Y-40640000D03*
%TO.P,U1,18*%
%TO.N,/D4*%
X43180000Y-71120000D03*
%TO.P,U1,2*%
%TO.N,/A16*%
X27940000Y-38100000D03*
%TO.P,U1,17*%
%TO.N,/D3*%
X43180000Y-73660000D03*
D12*
%TO.P,U1,1*%
%TO.N,/A18*%
X27940000Y-35560000D03*
%TD*%
D13*
%TO.P,J2,16*%
%TO.N,+5V*%
X52070000Y-35560000D03*
%TO.P,J2,15*%
%TO.N,/WR_N*%
X52070000Y-38100000D03*
%TO.P,J2,14*%
%TO.N,/A17*%
X52070000Y-40640000D03*
%TO.P,J2,13*%
%TO.N,/A14*%
X52070000Y-43180000D03*
%TO.P,J2,12*%
%TO.N,/A13*%
X52070000Y-45720000D03*
%TO.P,J2,11*%
%TO.N,/A8*%
X52070000Y-48260000D03*
%TO.P,J2,10*%
%TO.N,/A9*%
X52070000Y-50800000D03*
%TO.P,J2,9*%
%TO.N,/A11*%
X52070000Y-53340000D03*
%TO.P,J2,8*%
%TO.N,/RD_N*%
X52070000Y-55880000D03*
%TO.P,J2,7*%
%TO.N,/A10*%
X52070000Y-58420000D03*
%TO.P,J2,6*%
%TO.N,/ROMCS_N*%
X52070000Y-60960000D03*
%TO.P,J2,5*%
%TO.N,/D7*%
X52070000Y-63500000D03*
%TO.P,J2,4*%
%TO.N,/D6*%
X52070000Y-66040000D03*
%TO.P,J2,3*%
%TO.N,/D5*%
X52070000Y-68580000D03*
%TO.P,J2,2*%
%TO.N,/D4*%
X52070000Y-71120000D03*
D14*
%TO.P,J2,1*%
%TO.N,/D3*%
X52070000Y-73660000D03*
%TD*%
D13*
%TO.P,J1,16*%
%TO.N,GND*%
X33020000Y-73660000D03*
%TO.P,J1,15*%
%TO.N,/D2*%
X33020000Y-71120000D03*
%TO.P,J1,14*%
%TO.N,/D1*%
X33020000Y-68580000D03*
%TO.P,J1,13*%
%TO.N,/D0*%
X33020000Y-66040000D03*
%TO.P,J1,12*%
%TO.N,/A0*%
X33020000Y-63500000D03*
%TO.P,J1,11*%
%TO.N,/A1*%
X33020000Y-60960000D03*
%TO.P,J1,10*%
%TO.N,/A2*%
X33020000Y-58420000D03*
%TO.P,J1,9*%
%TO.N,/A3*%
X33020000Y-55880000D03*
%TO.P,J1,8*%
%TO.N,/A4*%
X33020000Y-53340000D03*
%TO.P,J1,7*%
%TO.N,/A5*%
X33020000Y-50800000D03*
%TO.P,J1,6*%
%TO.N,/A6*%
X33020000Y-48260000D03*
%TO.P,J1,5*%
%TO.N,/A7*%
X33020000Y-45720000D03*
%TO.P,J1,4*%
%TO.N,/A12*%
X33020000Y-43180000D03*
%TO.P,J1,3*%
%TO.N,/A15*%
X33020000Y-40640000D03*
%TO.P,J1,2*%
%TO.N,/A16*%
X33020000Y-38100000D03*
D14*
%TO.P,J1,1*%
%TO.N,/A18*%
X33020000Y-35560000D03*
%TD*%
D15*
%TO.N,GND*%
X36830000Y-36830000D03*
X39370000Y-36830000D03*
X36830000Y-72390000D03*
X39370000Y-72390000D03*
X36830000Y-54610000D03*
X39370000Y-54610000D03*
X36830000Y-45720000D03*
X39370000Y-45720000D03*
X36830000Y-63500000D03*
X39370000Y-63500000D03*
%TD*%
D16*
%TO.N,GND*%
X33020000Y-73660000D02*
X27940000Y-73660000D01*
%TO.N,+5V*%
X43180000Y-35560000D02*
X46990000Y-35560000D01*
X46990000Y-35560000D02*
X52070000Y-35560000D01*
D17*
%TO.N,/D2*%
X33020000Y-71120000D02*
X27940000Y-71120000D01*
%TO.N,/D1*%
X27940000Y-68580000D02*
X33020000Y-68580000D01*
%TO.N,/D0*%
X33020000Y-66040000D02*
X27940000Y-66040000D01*
%TO.N,/A0*%
X27940000Y-63500000D02*
X33020000Y-63500000D01*
%TO.N,/A1*%
X33020000Y-60960000D02*
X27940000Y-60960000D01*
%TO.N,/A2*%
X27940000Y-58420000D02*
X33020000Y-58420000D01*
%TO.N,/A3*%
X33020000Y-55880000D02*
X27940000Y-55880000D01*
%TO.N,/A4*%
X27940000Y-53340000D02*
X33020000Y-53340000D01*
%TO.N,/A5*%
X33020000Y-50800000D02*
X27940000Y-50800000D01*
%TO.N,/A6*%
X27940000Y-48260000D02*
X33020000Y-48260000D01*
%TO.N,/A7*%
X33020000Y-45720000D02*
X27940000Y-45720000D01*
%TO.N,/A12*%
X27940000Y-43180000D02*
X33020000Y-43180000D01*
%TO.N,/A15*%
X33020000Y-40640000D02*
X27940000Y-40640000D01*
%TO.N,/A16*%
X27940000Y-38100000D02*
X33020000Y-38100000D01*
%TO.N,/A18*%
X33020000Y-35560000D02*
X27940000Y-35560000D01*
%TO.N,/WR_N*%
X43180000Y-38100000D02*
X44450000Y-39370000D01*
X50800000Y-39370000D02*
X52070000Y-38100000D01*
X44450000Y-39370000D02*
X50800000Y-39370000D01*
%TO.N,/A17*%
X43180000Y-40640000D02*
X52070000Y-40640000D01*
%TO.N,/A14*%
X43180000Y-43180000D02*
X52070000Y-43180000D01*
%TO.N,/A13*%
X43180000Y-45720000D02*
X52070000Y-45720000D01*
%TO.N,/A8*%
X43180000Y-48260000D02*
X52070000Y-48260000D01*
%TO.N,/A9*%
X43180000Y-50800000D02*
X52070000Y-50800000D01*
%TO.N,/A11*%
X43180000Y-53340000D02*
X52070000Y-53340000D01*
%TO.N,/RD_N*%
X43180000Y-55880000D02*
X52070000Y-55880000D01*
%TO.N,/A10*%
X43180000Y-58420000D02*
X52070000Y-58420000D01*
%TO.N,/ROMCS_N*%
X43180000Y-60960000D02*
X52070000Y-60960000D01*
%TO.N,/D7*%
X43180000Y-63500000D02*
X52070000Y-63500000D01*
%TO.N,/D6*%
X43180000Y-66040000D02*
X52070000Y-66040000D01*
%TO.N,/D5*%
X43180000Y-68580000D02*
X52070000Y-68580000D01*
%TO.N,/D4*%
X43180000Y-71120000D02*
X52070000Y-71120000D01*
%TO.N,/D3*%
X43180000Y-73660000D02*
X52070000Y-73660000D01*
%TD*%
D18*
%TO.N,GND*%
X39810189Y-35704376D02*
X39973850Y-35754022D01*
X40124672Y-35834638D01*
X40256870Y-35943130D01*
X40365362Y-36075328D01*
X40445978Y-36226150D01*
X40495624Y-36389811D01*
X40513000Y-36566234D01*
X40513000Y-72653766D01*
X40495624Y-72830189D01*
X40445978Y-72993850D01*
X40365362Y-73144672D01*
X40256870Y-73276870D01*
X40124672Y-73385362D01*
X39973850Y-73465978D01*
X39810189Y-73515624D01*
X39633766Y-73533000D01*
X36566234Y-73533000D01*
X36389811Y-73515624D01*
X36226150Y-73465978D01*
X36075328Y-73385362D01*
X35943130Y-73276870D01*
X35834638Y-73144672D01*
X35754022Y-72993850D01*
X35704376Y-72830189D01*
X35687000Y-72653766D01*
X35687000Y-36566234D01*
X35704376Y-36389811D01*
X35754022Y-36226150D01*
X35834638Y-36075328D01*
X35943130Y-35943130D01*
X36075328Y-35834638D01*
X36226150Y-35754022D01*
X36389811Y-35704376D01*
X36566234Y-35687000D01*
X39633766Y-35687000D01*
X39810189Y-35704376D01*
%TA.AperFunction,Conductor*%
D19*
G36*
X39810189Y-35704376D02*
G01*
X39973850Y-35754022D01*
X40124672Y-35834638D01*
X40256870Y-35943130D01*
X40365362Y-36075328D01*
X40445978Y-36226150D01*
X40495624Y-36389811D01*
X40513000Y-36566234D01*
X40513000Y-72653766D01*
X40495624Y-72830189D01*
X40445978Y-72993850D01*
X40365362Y-73144672D01*
X40256870Y-73276870D01*
X40124672Y-73385362D01*
X39973850Y-73465978D01*
X39810189Y-73515624D01*
X39633766Y-73533000D01*
X36566234Y-73533000D01*
X36389811Y-73515624D01*
X36226150Y-73465978D01*
X36075328Y-73385362D01*
X35943130Y-73276870D01*
X35834638Y-73144672D01*
X35754022Y-72993850D01*
X35704376Y-72830189D01*
X35687000Y-72653766D01*
X35687000Y-36566234D01*
X35704376Y-36389811D01*
X35754022Y-36226150D01*
X35834638Y-36075328D01*
X35943130Y-35943130D01*
X36075328Y-35834638D01*
X36226150Y-35754022D01*
X36389811Y-35704376D01*
X36566234Y-35687000D01*
X39633766Y-35687000D01*
X39810189Y-35704376D01*
G37*
%TD.AperFunction*%
%TD*%
M02*
