%TF.GenerationSoftware,KiCad,Pcbnew,(5.1.7)-1*%
%TF.CreationDate,2022-03-21T18:16:10-03:00*%
%TF.ProjectId,ROMAdaptor,524f4d41-6461-4707-946f-722e6b696361,rev?*%
%TF.SameCoordinates,Original*%
%TF.FileFunction,Legend,Bot*%
%TF.FilePolarity,Positive*%
%FSLAX46Y46*%
G04 Gerber Fmt 4.6, Leading zero omitted, Abs format (unit mm)*
G04 Created by KiCad (PCBNEW (5.1.7)-1) date 2022-03-21 18:16:10*
%MOMM*%
%LPD*%
G01*
G04 APERTURE LIST*
%ADD10C,0.150000*%
G04 APERTURE END LIST*
D10*
X30194285Y-36012380D02*
X30765714Y-36012380D01*
X30480000Y-36012380D02*
X30480000Y-35012380D01*
X30575238Y-35155238D01*
X30670476Y-35250476D01*
X30765714Y-35298095D01*
X50339523Y-35012380D02*
X49720476Y-35012380D01*
X50053809Y-35393333D01*
X49910952Y-35393333D01*
X49815714Y-35440952D01*
X49768095Y-35488571D01*
X49720476Y-35583809D01*
X49720476Y-35821904D01*
X49768095Y-35917142D01*
X49815714Y-35964761D01*
X49910952Y-36012380D01*
X50196666Y-36012380D01*
X50291904Y-35964761D01*
X50339523Y-35917142D01*
X49339523Y-35107619D02*
X49291904Y-35060000D01*
X49196666Y-35012380D01*
X48958571Y-35012380D01*
X48863333Y-35060000D01*
X48815714Y-35107619D01*
X48768095Y-35202857D01*
X48768095Y-35298095D01*
X48815714Y-35440952D01*
X49387142Y-36012380D01*
X48768095Y-36012380D01*
X49720476Y-74112380D02*
X50291904Y-74112380D01*
X50006190Y-74112380D02*
X50006190Y-73112380D01*
X50101428Y-73255238D01*
X50196666Y-73350476D01*
X50291904Y-73398095D01*
X49387142Y-73112380D02*
X48720476Y-73112380D01*
X49149047Y-74112380D01*
X30670476Y-74112380D02*
X31241904Y-74112380D01*
X30956190Y-74112380D02*
X30956190Y-73112380D01*
X31051428Y-73255238D01*
X31146666Y-73350476D01*
X31241904Y-73398095D01*
X29813333Y-73112380D02*
X30003809Y-73112380D01*
X30099047Y-73160000D01*
X30146666Y-73207619D01*
X30241904Y-73350476D01*
X30289523Y-73540952D01*
X30289523Y-73921904D01*
X30241904Y-74017142D01*
X30194285Y-74064761D01*
X30099047Y-74112380D01*
X29908571Y-74112380D01*
X29813333Y-74064761D01*
X29765714Y-74017142D01*
X29718095Y-73921904D01*
X29718095Y-73683809D01*
X29765714Y-73588571D01*
X29813333Y-73540952D01*
X29908571Y-73493333D01*
X30099047Y-73493333D01*
X30194285Y-73540952D01*
X30241904Y-73588571D01*
X30289523Y-73683809D01*
X48426666Y-48911428D02*
X48426666Y-49387619D01*
X48712380Y-48816190D02*
X47712380Y-49149523D01*
X48712380Y-49482857D01*
X48712380Y-50292380D02*
X48712380Y-49816190D01*
X47712380Y-49816190D01*
X47712380Y-50530476D02*
X48712380Y-51197142D01*
X47712380Y-51197142D02*
X48712380Y-50530476D01*
X48617142Y-52149523D02*
X48664761Y-52101904D01*
X48712380Y-51959047D01*
X48712380Y-51863809D01*
X48664761Y-51720952D01*
X48569523Y-51625714D01*
X48474285Y-51578095D01*
X48283809Y-51530476D01*
X48140952Y-51530476D01*
X47950476Y-51578095D01*
X47855238Y-51625714D01*
X47760000Y-51720952D01*
X47712380Y-51863809D01*
X47712380Y-51959047D01*
X47760000Y-52101904D01*
X47807619Y-52149523D01*
X47712380Y-52768571D02*
X47712380Y-52959047D01*
X47760000Y-53054285D01*
X47855238Y-53149523D01*
X48045714Y-53197142D01*
X48379047Y-53197142D01*
X48569523Y-53149523D01*
X48664761Y-53054285D01*
X48712380Y-52959047D01*
X48712380Y-52768571D01*
X48664761Y-52673333D01*
X48569523Y-52578095D01*
X48379047Y-52530476D01*
X48045714Y-52530476D01*
X47855238Y-52578095D01*
X47760000Y-52673333D01*
X47712380Y-52768571D01*
X47807619Y-54340000D02*
X47760000Y-54387619D01*
X47712380Y-54482857D01*
X47712380Y-54720952D01*
X47760000Y-54816190D01*
X47807619Y-54863809D01*
X47902857Y-54911428D01*
X47998095Y-54911428D01*
X48140952Y-54863809D01*
X48712380Y-54292380D01*
X48712380Y-54911428D01*
X47712380Y-55530476D02*
X47712380Y-55625714D01*
X47760000Y-55720952D01*
X47807619Y-55768571D01*
X47902857Y-55816190D01*
X48093333Y-55863809D01*
X48331428Y-55863809D01*
X48521904Y-55816190D01*
X48617142Y-55768571D01*
X48664761Y-55720952D01*
X48712380Y-55625714D01*
X48712380Y-55530476D01*
X48664761Y-55435238D01*
X48617142Y-55387619D01*
X48521904Y-55340000D01*
X48331428Y-55292380D01*
X48093333Y-55292380D01*
X47902857Y-55340000D01*
X47807619Y-55387619D01*
X47760000Y-55435238D01*
X47712380Y-55530476D01*
X47807619Y-56244761D02*
X47760000Y-56292380D01*
X47712380Y-56387619D01*
X47712380Y-56625714D01*
X47760000Y-56720952D01*
X47807619Y-56768571D01*
X47902857Y-56816190D01*
X47998095Y-56816190D01*
X48140952Y-56768571D01*
X48712380Y-56197142D01*
X48712380Y-56816190D01*
X47807619Y-57197142D02*
X47760000Y-57244761D01*
X47712380Y-57340000D01*
X47712380Y-57578095D01*
X47760000Y-57673333D01*
X47807619Y-57720952D01*
X47902857Y-57768571D01*
X47998095Y-57768571D01*
X48140952Y-57720952D01*
X48712380Y-57149523D01*
X48712380Y-57768571D01*
M02*
