M48
; DRILL file {KiCad (5.1.7)-1} date 07/04/22 22:41:40
; FORMAT={-:-/ absolute / metric / decimal}
; #@! TF.CreationDate,2022-07-04T22:41:40-03:00
; #@! TF.GenerationSoftware,Kicad,Pcbnew,(5.1.7)-1
FMAT,2
METRIC
T1C0.400
T2C0.800
T3C0.900
T4C0.950
T5C1.000
T6C1.100
T7C2.300
T8C3.200
%
G90
G05
T1
X62.545Y-44.765
T2
X49.21Y-42.9
X49.21Y-45.4
X37.78Y-31.43
X37.78Y-39.05
X31.43Y-77.15
X31.43Y-84.77
X66.99Y-31.43
X66.99Y-39.05
X41.59Y-22.54
X49.21Y-22.54
X55.56Y-82.23
X63.18Y-82.23
X44.13Y-31.43
X44.13Y-39.05
X46.67Y-31.43
X46.67Y-39.05
X49.21Y-31.43
X49.21Y-39.05
X51.75Y-31.43
X51.75Y-39.05
X54.29Y-31.43
X54.29Y-39.05
X56.83Y-31.43
X56.83Y-39.05
X64.45Y-58.1
X66.95Y-58.1
X33.97Y-31.43
X33.97Y-39.05
X55.56Y-86.04
X63.18Y-86.04
X55.56Y-78.42
X63.18Y-78.42
X34.01Y-63.18
X36.51Y-63.18
X51.75Y-22.54
X59.37Y-22.54
X41.59Y-53.02
X41.59Y-55.56
X41.59Y-58.1
X41.59Y-60.64
X41.59Y-63.18
X41.59Y-65.72
X44.13Y-50.48
X44.13Y-53.02
X44.13Y-55.56
X44.13Y-58.1
X44.13Y-60.64
X44.13Y-63.18
X44.13Y-65.72
X44.13Y-68.26
X46.67Y-50.48
X46.67Y-53.02
X46.67Y-65.72
X46.67Y-68.26
X49.21Y-50.48
X49.21Y-53.02
X49.21Y-65.72
X49.21Y-68.26
X51.75Y-50.48
X51.75Y-53.02
X51.75Y-65.72
X51.75Y-68.26
X54.29Y-50.48
X54.29Y-53.02
X54.29Y-65.72
X54.29Y-68.26
X56.83Y-50.48
X56.83Y-53.02
X56.83Y-55.56
X56.83Y-58.1
X56.83Y-60.64
X56.83Y-63.18
X56.83Y-65.72
X56.83Y-68.26
X59.37Y-53.02
X59.37Y-55.56
X59.37Y-58.1
X59.37Y-60.64
X59.37Y-63.18
X59.37Y-65.72
X49.21Y-73.34
X49.21Y-75.84
X63.18Y-31.43
X63.18Y-39.05
T3
X36.51Y-78.42
X39.05Y-78.42
X47.94Y-25.715
X47.94Y-28.255
X53.02Y-25.715
X53.02Y-28.255
T4
X37.82Y-89.85
X37.82Y-91.85
X40.32Y-89.85
X40.32Y-91.85
T5
X36.51Y-83.5
X39.05Y-83.5
X26.35Y-32.7
X26.35Y-35.24
X26.35Y-37.78
X26.35Y-40.32
X26.35Y-42.86
X26.35Y-45.4
X26.35Y-47.94
X26.35Y-50.48
X26.35Y-53.02
X26.35Y-55.56
X26.35Y-58.1
X26.35Y-60.64
X26.35Y-63.18
X26.35Y-65.72
X26.35Y-68.26
X26.35Y-70.8
X26.35Y-73.34
X26.35Y-75.88
X26.35Y-78.42
X26.35Y-80.96
X26.35Y-83.5
X26.35Y-86.04
X45.4Y-80.96
X45.4Y-83.5
X47.94Y-80.96
X47.94Y-83.5
X50.48Y-80.96
X50.48Y-83.5
X74.61Y-32.7
X74.61Y-35.24
X74.61Y-37.78
X74.61Y-40.32
X74.61Y-42.86
X74.61Y-45.4
X74.61Y-47.94
X74.61Y-50.48
X74.61Y-53.02
X74.61Y-55.56
X74.61Y-58.1
X74.61Y-60.64
X74.61Y-63.18
X74.61Y-65.72
X74.61Y-68.26
X74.61Y-70.8
X74.61Y-73.34
X74.61Y-75.88
X74.61Y-78.42
X74.61Y-80.96
X74.61Y-83.5
X74.61Y-86.04
X54.29Y-91.12
X54.29Y-93.66
X56.83Y-91.12
X56.83Y-93.66
X59.37Y-91.12
X59.37Y-93.66
X61.91Y-91.12
X61.91Y-93.66
X64.45Y-91.12
X64.45Y-93.66
T6
X31.28Y-23.12
X31.28Y-27.62
X37.78Y-23.12
X37.78Y-27.62
X63.03Y-23.12
X63.03Y-27.62
X69.53Y-23.12
X69.53Y-27.62
T7
X33.07Y-94.71
X45.07Y-94.71
T8
X24.5Y-95.5
X75.5Y-95.5
X75.5Y-24.5
X24.5Y-24.5
T0
M30
