G04 #@! TF.GenerationSoftware,KiCad,Pcbnew,(5.1.7)-1*
G04 #@! TF.CreationDate,2022-07-11T22:43:42-03:00*
G04 #@! TF.ProjectId,Squareboi2,53717561-7265-4626-9f69-322e6b696361,1*
G04 #@! TF.SameCoordinates,Original*
G04 #@! TF.FileFunction,Legend,Top*
G04 #@! TF.FilePolarity,Positive*
%FSLAX46Y46*%
G04 Gerber Fmt 4.6, Leading zero omitted, Abs format (unit mm)*
G04 Created by KiCad (PCBNEW (5.1.7)-1) date 2022-07-11 22:43:42*
%MOMM*%
%LPD*%
G01*
G04 APERTURE LIST*
%ADD10C,0.150000*%
%ADD11C,0.100000*%
%ADD12C,0.300000*%
%ADD13C,0.120000*%
%ADD14C,0.010000*%
G04 APERTURE END LIST*
D10*
X27154285Y-76652380D02*
X27154285Y-75652380D01*
X27725714Y-76652380D01*
X27725714Y-75652380D01*
X28773333Y-76557142D02*
X28725714Y-76604761D01*
X28582857Y-76652380D01*
X28487619Y-76652380D01*
X28344761Y-76604761D01*
X28249523Y-76509523D01*
X28201904Y-76414285D01*
X28154285Y-76223809D01*
X28154285Y-76080952D01*
X28201904Y-75890476D01*
X28249523Y-75795238D01*
X28344761Y-75700000D01*
X28487619Y-75652380D01*
X28582857Y-75652380D01*
X28725714Y-75700000D01*
X28773333Y-75747619D01*
X26511428Y-37282380D02*
X26178095Y-36806190D01*
X25940000Y-37282380D02*
X25940000Y-36282380D01*
X26320952Y-36282380D01*
X26416190Y-36330000D01*
X26463809Y-36377619D01*
X26511428Y-36472857D01*
X26511428Y-36615714D01*
X26463809Y-36710952D01*
X26416190Y-36758571D01*
X26320952Y-36806190D01*
X25940000Y-36806190D01*
X26701904Y-37377619D02*
X27463809Y-37377619D01*
X28178095Y-37282380D02*
X27701904Y-37282380D01*
X27701904Y-36282380D01*
X28511428Y-36758571D02*
X28844761Y-36758571D01*
X28987619Y-37282380D02*
X28511428Y-37282380D01*
X28511428Y-36282380D01*
X28987619Y-36282380D01*
X29416190Y-37282380D02*
X29416190Y-36282380D01*
X29654285Y-36282380D01*
X29797142Y-36330000D01*
X29892380Y-36425238D01*
X29940000Y-36520476D01*
X29987619Y-36710952D01*
X29987619Y-36853809D01*
X29940000Y-37044285D01*
X29892380Y-37139523D01*
X29797142Y-37234761D01*
X29654285Y-37282380D01*
X29416190Y-37282380D01*
X23725476Y-48077380D02*
X23725476Y-47077380D01*
X24106428Y-47077380D01*
X24201666Y-47125000D01*
X24249285Y-47172619D01*
X24296904Y-47267857D01*
X24296904Y-47410714D01*
X24249285Y-47505952D01*
X24201666Y-47553571D01*
X24106428Y-47601190D01*
X23725476Y-47601190D01*
X24915952Y-47077380D02*
X25106428Y-47077380D01*
X25201666Y-47125000D01*
X25296904Y-47220238D01*
X25344523Y-47410714D01*
X25344523Y-47744047D01*
X25296904Y-47934523D01*
X25201666Y-48029761D01*
X25106428Y-48077380D01*
X24915952Y-48077380D01*
X24820714Y-48029761D01*
X24725476Y-47934523D01*
X24677857Y-47744047D01*
X24677857Y-47410714D01*
X24725476Y-47220238D01*
X24820714Y-47125000D01*
X24915952Y-47077380D01*
X25677857Y-47077380D02*
X25915952Y-48077380D01*
X26106428Y-47363095D01*
X26296904Y-48077380D01*
X26535000Y-47077380D01*
X26915952Y-47553571D02*
X27249285Y-47553571D01*
X27392142Y-48077380D02*
X26915952Y-48077380D01*
X26915952Y-47077380D01*
X27392142Y-47077380D01*
X28392142Y-48077380D02*
X28058809Y-47601190D01*
X27820714Y-48077380D02*
X27820714Y-47077380D01*
X28201666Y-47077380D01*
X28296904Y-47125000D01*
X28344523Y-47172619D01*
X28392142Y-47267857D01*
X28392142Y-47410714D01*
X28344523Y-47505952D01*
X28296904Y-47553571D01*
X28201666Y-47601190D01*
X27820714Y-47601190D01*
X20368095Y-29282380D02*
X20368095Y-28282380D01*
X20701428Y-28996666D01*
X21034761Y-28282380D01*
X21034761Y-29282380D01*
X21844285Y-28758571D02*
X21987142Y-28806190D01*
X22034761Y-28853809D01*
X22082380Y-28949047D01*
X22082380Y-29091904D01*
X22034761Y-29187142D01*
X21987142Y-29234761D01*
X21891904Y-29282380D01*
X21510952Y-29282380D01*
X21510952Y-28282380D01*
X21844285Y-28282380D01*
X21939523Y-28330000D01*
X21987142Y-28377619D01*
X22034761Y-28472857D01*
X22034761Y-28568095D01*
X21987142Y-28663333D01*
X21939523Y-28710952D01*
X21844285Y-28758571D01*
X21510952Y-28758571D01*
X23082380Y-29187142D02*
X23034761Y-29234761D01*
X22891904Y-29282380D01*
X22796666Y-29282380D01*
X22653809Y-29234761D01*
X22558571Y-29139523D01*
X22510952Y-29044285D01*
X22463333Y-28853809D01*
X22463333Y-28710952D01*
X22510952Y-28520476D01*
X22558571Y-28425238D01*
X22653809Y-28330000D01*
X22796666Y-28282380D01*
X22891904Y-28282380D01*
X23034761Y-28330000D01*
X23082380Y-28377619D01*
X24272857Y-29282380D02*
X24272857Y-28282380D01*
X24606190Y-28996666D01*
X24939523Y-28282380D01*
X24939523Y-29282380D01*
X25606190Y-28282380D02*
X25796666Y-28282380D01*
X25891904Y-28330000D01*
X25987142Y-28425238D01*
X26034761Y-28615714D01*
X26034761Y-28949047D01*
X25987142Y-29139523D01*
X25891904Y-29234761D01*
X25796666Y-29282380D01*
X25606190Y-29282380D01*
X25510952Y-29234761D01*
X25415714Y-29139523D01*
X25368095Y-28949047D01*
X25368095Y-28615714D01*
X25415714Y-28425238D01*
X25510952Y-28330000D01*
X25606190Y-28282380D01*
X26463333Y-29282380D02*
X26463333Y-28282380D01*
X26701428Y-28282380D01*
X26844285Y-28330000D01*
X26939523Y-28425238D01*
X26987142Y-28520476D01*
X27034761Y-28710952D01*
X27034761Y-28853809D01*
X26987142Y-29044285D01*
X26939523Y-29139523D01*
X26844285Y-29234761D01*
X26701428Y-29282380D01*
X26463333Y-29282380D01*
X27463333Y-28758571D02*
X27796666Y-28758571D01*
X27939523Y-29282380D02*
X27463333Y-29282380D01*
X27463333Y-28282380D01*
X27939523Y-28282380D01*
X21653809Y-29932380D02*
X21844285Y-29932380D01*
X21939523Y-29980000D01*
X22034761Y-30075238D01*
X22082380Y-30265714D01*
X22082380Y-30599047D01*
X22034761Y-30789523D01*
X21939523Y-30884761D01*
X21844285Y-30932380D01*
X21653809Y-30932380D01*
X21558571Y-30884761D01*
X21463333Y-30789523D01*
X21415714Y-30599047D01*
X21415714Y-30265714D01*
X21463333Y-30075238D01*
X21558571Y-29980000D01*
X21653809Y-29932380D01*
X22510952Y-30932380D02*
X22510952Y-29932380D01*
X23082380Y-30932380D01*
X23082380Y-29932380D01*
X24320476Y-30551428D02*
X25082380Y-30551428D01*
X26796666Y-29932380D02*
X26320476Y-29932380D01*
X26272857Y-30408571D01*
X26320476Y-30360952D01*
X26415714Y-30313333D01*
X26653809Y-30313333D01*
X26749047Y-30360952D01*
X26796666Y-30408571D01*
X26844285Y-30503809D01*
X26844285Y-30741904D01*
X26796666Y-30837142D01*
X26749047Y-30884761D01*
X26653809Y-30932380D01*
X26415714Y-30932380D01*
X26320476Y-30884761D01*
X26272857Y-30837142D01*
X21320476Y-31582380D02*
X21510952Y-31582380D01*
X21606190Y-31630000D01*
X21701428Y-31725238D01*
X21749047Y-31915714D01*
X21749047Y-32249047D01*
X21701428Y-32439523D01*
X21606190Y-32534761D01*
X21510952Y-32582380D01*
X21320476Y-32582380D01*
X21225238Y-32534761D01*
X21130000Y-32439523D01*
X21082380Y-32249047D01*
X21082380Y-31915714D01*
X21130000Y-31725238D01*
X21225238Y-31630000D01*
X21320476Y-31582380D01*
X22510952Y-32058571D02*
X22177619Y-32058571D01*
X22177619Y-32582380D02*
X22177619Y-31582380D01*
X22653809Y-31582380D01*
X23368095Y-32058571D02*
X23034761Y-32058571D01*
X23034761Y-32582380D02*
X23034761Y-31582380D01*
X23510952Y-31582380D01*
X24653809Y-32201428D02*
X25415714Y-32201428D01*
X27177619Y-32582380D02*
X26606190Y-32582380D01*
X26891904Y-32582380D02*
X26891904Y-31582380D01*
X26796666Y-31725238D01*
X26701428Y-31820476D01*
X26606190Y-31868095D01*
X41212142Y-21677380D02*
X41450238Y-22677380D01*
X41640714Y-21963095D01*
X41831190Y-22677380D01*
X42069285Y-21677380D01*
X43021666Y-22677380D02*
X42688333Y-22201190D01*
X42450238Y-22677380D02*
X42450238Y-21677380D01*
X42831190Y-21677380D01*
X42926428Y-21725000D01*
X42974047Y-21772619D01*
X43021666Y-21867857D01*
X43021666Y-22010714D01*
X42974047Y-22105952D01*
X42926428Y-22153571D01*
X42831190Y-22201190D01*
X42450238Y-22201190D01*
X43450238Y-22677380D02*
X43450238Y-21677380D01*
X43783571Y-21677380D02*
X44355000Y-21677380D01*
X44069285Y-22677380D02*
X44069285Y-21677380D01*
X44688333Y-22153571D02*
X45021666Y-22153571D01*
X45164523Y-22677380D02*
X44688333Y-22677380D01*
X44688333Y-21677380D01*
X45164523Y-21677380D01*
X46355000Y-22153571D02*
X46688333Y-22153571D01*
X46831190Y-22677380D02*
X46355000Y-22677380D01*
X46355000Y-21677380D01*
X46831190Y-21677380D01*
X47259761Y-22677380D02*
X47259761Y-21677380D01*
X47831190Y-22677380D01*
X47831190Y-21677380D01*
X48259761Y-22391666D02*
X48735952Y-22391666D01*
X48164523Y-22677380D02*
X48497857Y-21677380D01*
X48831190Y-22677380D01*
X49497857Y-22153571D02*
X49640714Y-22201190D01*
X49688333Y-22248809D01*
X49735952Y-22344047D01*
X49735952Y-22486904D01*
X49688333Y-22582142D01*
X49640714Y-22629761D01*
X49545476Y-22677380D01*
X49164523Y-22677380D01*
X49164523Y-21677380D01*
X49497857Y-21677380D01*
X49593095Y-21725000D01*
X49640714Y-21772619D01*
X49688333Y-21867857D01*
X49688333Y-21963095D01*
X49640714Y-22058333D01*
X49593095Y-22105952D01*
X49497857Y-22153571D01*
X49164523Y-22153571D01*
X50640714Y-22677380D02*
X50164523Y-22677380D01*
X50164523Y-21677380D01*
X50974047Y-22153571D02*
X51307380Y-22153571D01*
X51450238Y-22677380D02*
X50974047Y-22677380D01*
X50974047Y-21677380D01*
X51450238Y-21677380D01*
X27178095Y-78240000D02*
X27082857Y-78192380D01*
X26940000Y-78192380D01*
X26797142Y-78240000D01*
X26701904Y-78335238D01*
X26654285Y-78430476D01*
X26606666Y-78620952D01*
X26606666Y-78763809D01*
X26654285Y-78954285D01*
X26701904Y-79049523D01*
X26797142Y-79144761D01*
X26940000Y-79192380D01*
X27035238Y-79192380D01*
X27178095Y-79144761D01*
X27225714Y-79097142D01*
X27225714Y-78763809D01*
X27035238Y-78763809D01*
X27654285Y-79192380D02*
X27654285Y-78192380D01*
X28225714Y-79192380D01*
X28225714Y-78192380D01*
X28701904Y-79192380D02*
X28701904Y-78192380D01*
X28940000Y-78192380D01*
X29082857Y-78240000D01*
X29178095Y-78335238D01*
X29225714Y-78430476D01*
X29273333Y-78620952D01*
X29273333Y-78763809D01*
X29225714Y-78954285D01*
X29178095Y-79049523D01*
X29082857Y-79144761D01*
X28940000Y-79192380D01*
X28701904Y-79192380D01*
X26654285Y-73731428D02*
X27416190Y-73731428D01*
X27035238Y-74112380D02*
X27035238Y-73350476D01*
X28368571Y-73112380D02*
X27892380Y-73112380D01*
X27844761Y-73588571D01*
X27892380Y-73540952D01*
X27987619Y-73493333D01*
X28225714Y-73493333D01*
X28320952Y-73540952D01*
X28368571Y-73588571D01*
X28416190Y-73683809D01*
X28416190Y-73921904D01*
X28368571Y-74017142D01*
X28320952Y-74064761D01*
X28225714Y-74112380D01*
X27987619Y-74112380D01*
X27892380Y-74064761D01*
X27844761Y-74017142D01*
X28701904Y-73112380D02*
X29035238Y-74112380D01*
X29368571Y-73112380D01*
X20915714Y-82081666D02*
X21391904Y-82081666D01*
X20820476Y-82367380D02*
X21153809Y-81367380D01*
X21487142Y-82367380D01*
X21820476Y-81367380D02*
X21820476Y-82176904D01*
X21868095Y-82272142D01*
X21915714Y-82319761D01*
X22010952Y-82367380D01*
X22201428Y-82367380D01*
X22296666Y-82319761D01*
X22344285Y-82272142D01*
X22391904Y-82176904D01*
X22391904Y-81367380D01*
X22772857Y-81367380D02*
X23439523Y-82367380D01*
X23439523Y-81367380D02*
X22772857Y-82367380D01*
X23582380Y-82462619D02*
X24344285Y-82462619D01*
X24582380Y-82367380D02*
X24582380Y-81367380D01*
X24963333Y-81367380D01*
X25058571Y-81415000D01*
X25106190Y-81462619D01*
X25153809Y-81557857D01*
X25153809Y-81700714D01*
X25106190Y-81795952D01*
X25058571Y-81843571D01*
X24963333Y-81891190D01*
X24582380Y-81891190D01*
X25772857Y-81367380D02*
X25963333Y-81367380D01*
X26058571Y-81415000D01*
X26153809Y-81510238D01*
X26201428Y-81700714D01*
X26201428Y-82034047D01*
X26153809Y-82224523D01*
X26058571Y-82319761D01*
X25963333Y-82367380D01*
X25772857Y-82367380D01*
X25677619Y-82319761D01*
X25582380Y-82224523D01*
X25534761Y-82034047D01*
X25534761Y-81700714D01*
X25582380Y-81510238D01*
X25677619Y-81415000D01*
X25772857Y-81367380D01*
X26534761Y-81367380D02*
X26772857Y-82367380D01*
X26963333Y-81653095D01*
X27153809Y-82367380D01*
X27391904Y-81367380D01*
X75350952Y-22312380D02*
X75922380Y-22312380D01*
X75636666Y-23312380D02*
X75636666Y-22312380D01*
X76255714Y-23312380D02*
X76255714Y-22312380D01*
X76636666Y-22312380D01*
X76731904Y-22360000D01*
X76779523Y-22407619D01*
X76827142Y-22502857D01*
X76827142Y-22645714D01*
X76779523Y-22740952D01*
X76731904Y-22788571D01*
X76636666Y-22836190D01*
X76255714Y-22836190D01*
X77017619Y-23407619D02*
X77779523Y-23407619D01*
X78446190Y-22645714D02*
X78446190Y-23312380D01*
X78208095Y-22264761D02*
X77970000Y-22979047D01*
X78589047Y-22979047D01*
X79160476Y-22312380D02*
X79255714Y-22312380D01*
X79350952Y-22360000D01*
X79398571Y-22407619D01*
X79446190Y-22502857D01*
X79493809Y-22693333D01*
X79493809Y-22931428D01*
X79446190Y-23121904D01*
X79398571Y-23217142D01*
X79350952Y-23264761D01*
X79255714Y-23312380D01*
X79160476Y-23312380D01*
X79065238Y-23264761D01*
X79017619Y-23217142D01*
X78970000Y-23121904D01*
X78922380Y-22931428D01*
X78922380Y-22693333D01*
X78970000Y-22502857D01*
X79017619Y-22407619D01*
X79065238Y-22360000D01*
X79160476Y-22312380D01*
X25368571Y-52792380D02*
X25940000Y-52792380D01*
X25654285Y-53792380D02*
X25654285Y-52792380D01*
X26273333Y-53792380D02*
X26273333Y-52792380D01*
X26654285Y-52792380D01*
X26749523Y-52840000D01*
X26797142Y-52887619D01*
X26844761Y-52982857D01*
X26844761Y-53125714D01*
X26797142Y-53220952D01*
X26749523Y-53268571D01*
X26654285Y-53316190D01*
X26273333Y-53316190D01*
X27035238Y-53887619D02*
X27797142Y-53887619D01*
X28606666Y-53697142D02*
X28559047Y-53744761D01*
X28416190Y-53792380D01*
X28320952Y-53792380D01*
X28178095Y-53744761D01*
X28082857Y-53649523D01*
X28035238Y-53554285D01*
X27987619Y-53363809D01*
X27987619Y-53220952D01*
X28035238Y-53030476D01*
X28082857Y-52935238D01*
X28178095Y-52840000D01*
X28320952Y-52792380D01*
X28416190Y-52792380D01*
X28559047Y-52840000D01*
X28606666Y-52887619D01*
X29511428Y-53792380D02*
X29035238Y-53792380D01*
X29035238Y-52792380D01*
X29844761Y-53792380D02*
X29844761Y-52792380D01*
X30416190Y-53792380D02*
X29987619Y-53220952D01*
X30416190Y-52792380D02*
X29844761Y-53363809D01*
X36290476Y-39187380D02*
X35957142Y-38711190D01*
X35719047Y-39187380D02*
X35719047Y-38187380D01*
X36100000Y-38187380D01*
X36195238Y-38235000D01*
X36242857Y-38282619D01*
X36290476Y-38377857D01*
X36290476Y-38520714D01*
X36242857Y-38615952D01*
X36195238Y-38663571D01*
X36100000Y-38711190D01*
X35719047Y-38711190D01*
X36671428Y-38901666D02*
X37147619Y-38901666D01*
X36576190Y-39187380D02*
X36909523Y-38187380D01*
X37242857Y-39187380D01*
X37338095Y-39282619D02*
X38100000Y-39282619D01*
X38338095Y-38663571D02*
X38671428Y-38663571D01*
X38814285Y-39187380D02*
X38338095Y-39187380D01*
X38338095Y-38187380D01*
X38814285Y-38187380D01*
X39147619Y-38187380D02*
X39814285Y-39187380D01*
X39814285Y-38187380D02*
X39147619Y-39187380D01*
X40052380Y-38187380D02*
X40623809Y-38187380D01*
X40338095Y-39187380D02*
X40338095Y-38187380D01*
X29718095Y-42727619D02*
X29765714Y-42680000D01*
X29860952Y-42632380D01*
X30099047Y-42632380D01*
X30194285Y-42680000D01*
X30241904Y-42727619D01*
X30289523Y-42822857D01*
X30289523Y-42918095D01*
X30241904Y-43060952D01*
X29670476Y-43632380D01*
X30289523Y-43632380D01*
X30670476Y-42727619D02*
X30718095Y-42680000D01*
X30813333Y-42632380D01*
X31051428Y-42632380D01*
X31146666Y-42680000D01*
X31194285Y-42727619D01*
X31241904Y-42822857D01*
X31241904Y-42918095D01*
X31194285Y-43060952D01*
X30622857Y-43632380D01*
X31241904Y-43632380D01*
X34798095Y-40187619D02*
X34845714Y-40140000D01*
X34940952Y-40092380D01*
X35179047Y-40092380D01*
X35274285Y-40140000D01*
X35321904Y-40187619D01*
X35369523Y-40282857D01*
X35369523Y-40378095D01*
X35321904Y-40520952D01*
X34750476Y-41092380D01*
X35369523Y-41092380D01*
X36321904Y-41092380D02*
X35750476Y-41092380D01*
X36036190Y-41092380D02*
X36036190Y-40092380D01*
X35940952Y-40235238D01*
X35845714Y-40330476D01*
X35750476Y-40378095D01*
X37338095Y-40187619D02*
X37385714Y-40140000D01*
X37480952Y-40092380D01*
X37719047Y-40092380D01*
X37814285Y-40140000D01*
X37861904Y-40187619D01*
X37909523Y-40282857D01*
X37909523Y-40378095D01*
X37861904Y-40520952D01*
X37290476Y-41092380D01*
X37909523Y-41092380D01*
X38528571Y-40092380D02*
X38623809Y-40092380D01*
X38719047Y-40140000D01*
X38766666Y-40187619D01*
X38814285Y-40282857D01*
X38861904Y-40473333D01*
X38861904Y-40711428D01*
X38814285Y-40901904D01*
X38766666Y-40997142D01*
X38719047Y-41044761D01*
X38623809Y-41092380D01*
X38528571Y-41092380D01*
X38433333Y-41044761D01*
X38385714Y-40997142D01*
X38338095Y-40901904D01*
X38290476Y-40711428D01*
X38290476Y-40473333D01*
X38338095Y-40282857D01*
X38385714Y-40187619D01*
X38433333Y-40140000D01*
X38528571Y-40092380D01*
X40449523Y-41092380D02*
X39878095Y-41092380D01*
X40163809Y-41092380D02*
X40163809Y-40092380D01*
X40068571Y-40235238D01*
X39973333Y-40330476D01*
X39878095Y-40378095D01*
X40925714Y-41092380D02*
X41116190Y-41092380D01*
X41211428Y-41044761D01*
X41259047Y-40997142D01*
X41354285Y-40854285D01*
X41401904Y-40663809D01*
X41401904Y-40282857D01*
X41354285Y-40187619D01*
X41306666Y-40140000D01*
X41211428Y-40092380D01*
X41020952Y-40092380D01*
X40925714Y-40140000D01*
X40878095Y-40187619D01*
X40830476Y-40282857D01*
X40830476Y-40520952D01*
X40878095Y-40616190D01*
X40925714Y-40663809D01*
X41020952Y-40711428D01*
X41211428Y-40711428D01*
X41306666Y-40663809D01*
X41354285Y-40616190D01*
X41401904Y-40520952D01*
X65349523Y-58047380D02*
X65016190Y-57571190D01*
X64778095Y-58047380D02*
X64778095Y-57047380D01*
X65159047Y-57047380D01*
X65254285Y-57095000D01*
X65301904Y-57142619D01*
X65349523Y-57237857D01*
X65349523Y-57380714D01*
X65301904Y-57475952D01*
X65254285Y-57523571D01*
X65159047Y-57571190D01*
X64778095Y-57571190D01*
X65730476Y-57761666D02*
X66206666Y-57761666D01*
X65635238Y-58047380D02*
X65968571Y-57047380D01*
X66301904Y-58047380D01*
X66635238Y-58047380D02*
X66635238Y-57047380D01*
X66968571Y-57761666D01*
X67301904Y-57047380D01*
X67301904Y-58047380D01*
X64230476Y-58697380D02*
X64849523Y-58697380D01*
X64516190Y-59078333D01*
X64659047Y-59078333D01*
X64754285Y-59125952D01*
X64801904Y-59173571D01*
X64849523Y-59268809D01*
X64849523Y-59506904D01*
X64801904Y-59602142D01*
X64754285Y-59649761D01*
X64659047Y-59697380D01*
X64373333Y-59697380D01*
X64278095Y-59649761D01*
X64230476Y-59602142D01*
X65230476Y-58792619D02*
X65278095Y-58745000D01*
X65373333Y-58697380D01*
X65611428Y-58697380D01*
X65706666Y-58745000D01*
X65754285Y-58792619D01*
X65801904Y-58887857D01*
X65801904Y-58983095D01*
X65754285Y-59125952D01*
X65182857Y-59697380D01*
X65801904Y-59697380D01*
X66230476Y-59697380D02*
X66230476Y-58697380D01*
X66801904Y-59697380D02*
X66373333Y-59125952D01*
X66801904Y-58697380D02*
X66230476Y-59268809D01*
X67563809Y-59173571D02*
X67706666Y-59221190D01*
X67754285Y-59268809D01*
X67801904Y-59364047D01*
X67801904Y-59506904D01*
X67754285Y-59602142D01*
X67706666Y-59649761D01*
X67611428Y-59697380D01*
X67230476Y-59697380D01*
X67230476Y-58697380D01*
X67563809Y-58697380D01*
X67659047Y-58745000D01*
X67706666Y-58792619D01*
X67754285Y-58887857D01*
X67754285Y-58983095D01*
X67706666Y-59078333D01*
X67659047Y-59125952D01*
X67563809Y-59173571D01*
X67230476Y-59173571D01*
X43664285Y-56777380D02*
X43330952Y-56301190D01*
X43092857Y-56777380D02*
X43092857Y-55777380D01*
X43473809Y-55777380D01*
X43569047Y-55825000D01*
X43616666Y-55872619D01*
X43664285Y-55967857D01*
X43664285Y-56110714D01*
X43616666Y-56205952D01*
X43569047Y-56253571D01*
X43473809Y-56301190D01*
X43092857Y-56301190D01*
X44283333Y-55777380D02*
X44473809Y-55777380D01*
X44569047Y-55825000D01*
X44664285Y-55920238D01*
X44711904Y-56110714D01*
X44711904Y-56444047D01*
X44664285Y-56634523D01*
X44569047Y-56729761D01*
X44473809Y-56777380D01*
X44283333Y-56777380D01*
X44188095Y-56729761D01*
X44092857Y-56634523D01*
X44045238Y-56444047D01*
X44045238Y-56110714D01*
X44092857Y-55920238D01*
X44188095Y-55825000D01*
X44283333Y-55777380D01*
X45140476Y-56777380D02*
X45140476Y-55777380D01*
X45473809Y-56491666D01*
X45807142Y-55777380D01*
X45807142Y-56777380D01*
X39854761Y-58427380D02*
X39283333Y-58427380D01*
X39569047Y-58427380D02*
X39569047Y-57427380D01*
X39473809Y-57570238D01*
X39378571Y-57665476D01*
X39283333Y-57713095D01*
X40235714Y-57522619D02*
X40283333Y-57475000D01*
X40378571Y-57427380D01*
X40616666Y-57427380D01*
X40711904Y-57475000D01*
X40759523Y-57522619D01*
X40807142Y-57617857D01*
X40807142Y-57713095D01*
X40759523Y-57855952D01*
X40188095Y-58427380D01*
X40807142Y-58427380D01*
X41378571Y-57855952D02*
X41283333Y-57808333D01*
X41235714Y-57760714D01*
X41188095Y-57665476D01*
X41188095Y-57617857D01*
X41235714Y-57522619D01*
X41283333Y-57475000D01*
X41378571Y-57427380D01*
X41569047Y-57427380D01*
X41664285Y-57475000D01*
X41711904Y-57522619D01*
X41759523Y-57617857D01*
X41759523Y-57665476D01*
X41711904Y-57760714D01*
X41664285Y-57808333D01*
X41569047Y-57855952D01*
X41378571Y-57855952D01*
X41283333Y-57903571D01*
X41235714Y-57951190D01*
X41188095Y-58046428D01*
X41188095Y-58236904D01*
X41235714Y-58332142D01*
X41283333Y-58379761D01*
X41378571Y-58427380D01*
X41569047Y-58427380D01*
X41664285Y-58379761D01*
X41711904Y-58332142D01*
X41759523Y-58236904D01*
X41759523Y-58046428D01*
X41711904Y-57951190D01*
X41664285Y-57903571D01*
X41569047Y-57855952D01*
X42188095Y-58427380D02*
X42188095Y-57427380D01*
X42759523Y-58427380D02*
X42330952Y-57855952D01*
X42759523Y-57427380D02*
X42188095Y-57998809D01*
X43521428Y-57903571D02*
X43664285Y-57951190D01*
X43711904Y-57998809D01*
X43759523Y-58094047D01*
X43759523Y-58236904D01*
X43711904Y-58332142D01*
X43664285Y-58379761D01*
X43569047Y-58427380D01*
X43188095Y-58427380D01*
X43188095Y-57427380D01*
X43521428Y-57427380D01*
X43616666Y-57475000D01*
X43664285Y-57522619D01*
X43711904Y-57617857D01*
X43711904Y-57713095D01*
X43664285Y-57808333D01*
X43616666Y-57855952D01*
X43521428Y-57903571D01*
X43188095Y-57903571D01*
X44950000Y-58046428D02*
X45711904Y-58046428D01*
X47092857Y-57855952D02*
X46997619Y-57808333D01*
X46950000Y-57760714D01*
X46902380Y-57665476D01*
X46902380Y-57617857D01*
X46950000Y-57522619D01*
X46997619Y-57475000D01*
X47092857Y-57427380D01*
X47283333Y-57427380D01*
X47378571Y-57475000D01*
X47426190Y-57522619D01*
X47473809Y-57617857D01*
X47473809Y-57665476D01*
X47426190Y-57760714D01*
X47378571Y-57808333D01*
X47283333Y-57855952D01*
X47092857Y-57855952D01*
X46997619Y-57903571D01*
X46950000Y-57951190D01*
X46902380Y-58046428D01*
X46902380Y-58236904D01*
X46950000Y-58332142D01*
X46997619Y-58379761D01*
X47092857Y-58427380D01*
X47283333Y-58427380D01*
X47378571Y-58379761D01*
X47426190Y-58332142D01*
X47473809Y-58236904D01*
X47473809Y-58046428D01*
X47426190Y-57951190D01*
X47378571Y-57903571D01*
X47283333Y-57855952D01*
X47902380Y-58427380D02*
X47902380Y-57427380D01*
X48235714Y-58141666D01*
X48569047Y-57427380D01*
X48569047Y-58427380D01*
X49378571Y-57903571D02*
X49521428Y-57951190D01*
X49569047Y-57998809D01*
X49616666Y-58094047D01*
X49616666Y-58236904D01*
X49569047Y-58332142D01*
X49521428Y-58379761D01*
X49426190Y-58427380D01*
X49045238Y-58427380D01*
X49045238Y-57427380D01*
X49378571Y-57427380D01*
X49473809Y-57475000D01*
X49521428Y-57522619D01*
X49569047Y-57617857D01*
X49569047Y-57713095D01*
X49521428Y-57808333D01*
X49473809Y-57855952D01*
X49378571Y-57903571D01*
X49045238Y-57903571D01*
X87098333Y-33742380D02*
X87098333Y-34456666D01*
X87050714Y-34599523D01*
X86955476Y-34694761D01*
X86812619Y-34742380D01*
X86717380Y-34742380D01*
X87431666Y-33742380D02*
X88003095Y-33742380D01*
X87717380Y-34742380D02*
X87717380Y-33742380D01*
X88288809Y-34456666D02*
X88765000Y-34456666D01*
X88193571Y-34742380D02*
X88526904Y-33742380D01*
X88860238Y-34742380D01*
X89717380Y-33790000D02*
X89622142Y-33742380D01*
X89479285Y-33742380D01*
X89336428Y-33790000D01*
X89241190Y-33885238D01*
X89193571Y-33980476D01*
X89145952Y-34170952D01*
X89145952Y-34313809D01*
X89193571Y-34504285D01*
X89241190Y-34599523D01*
X89336428Y-34694761D01*
X89479285Y-34742380D01*
X89574523Y-34742380D01*
X89717380Y-34694761D01*
X89765000Y-34647142D01*
X89765000Y-34313809D01*
X89574523Y-34313809D01*
X32829523Y-89352380D02*
X32258095Y-89352380D01*
X32543809Y-89352380D02*
X32543809Y-88352380D01*
X32448571Y-88495238D01*
X32353333Y-88590476D01*
X32258095Y-88638095D01*
X33686666Y-88352380D02*
X33496190Y-88352380D01*
X33400952Y-88400000D01*
X33353333Y-88447619D01*
X33258095Y-88590476D01*
X33210476Y-88780952D01*
X33210476Y-89161904D01*
X33258095Y-89257142D01*
X33305714Y-89304761D01*
X33400952Y-89352380D01*
X33591428Y-89352380D01*
X33686666Y-89304761D01*
X33734285Y-89257142D01*
X33781904Y-89161904D01*
X33781904Y-88923809D01*
X33734285Y-88828571D01*
X33686666Y-88780952D01*
X33591428Y-88733333D01*
X33400952Y-88733333D01*
X33305714Y-88780952D01*
X33258095Y-88828571D01*
X33210476Y-88923809D01*
X33305714Y-46172380D02*
X32734285Y-46172380D01*
X33020000Y-46172380D02*
X33020000Y-45172380D01*
X32924761Y-45315238D01*
X32829523Y-45410476D01*
X32734285Y-45458095D01*
X73025000Y-95250000D02*
X71755000Y-96520000D01*
X67310000Y-95250000D02*
X68580000Y-96520000D01*
X66040000Y-95250000D02*
X64770000Y-96520000D01*
X36639523Y-89352380D02*
X36068095Y-89352380D01*
X36353809Y-89352380D02*
X36353809Y-88352380D01*
X36258571Y-88495238D01*
X36163333Y-88590476D01*
X36068095Y-88638095D01*
X37496666Y-88352380D02*
X37306190Y-88352380D01*
X37210952Y-88400000D01*
X37163333Y-88447619D01*
X37068095Y-88590476D01*
X37020476Y-88780952D01*
X37020476Y-89161904D01*
X37068095Y-89257142D01*
X37115714Y-89304761D01*
X37210952Y-89352380D01*
X37401428Y-89352380D01*
X37496666Y-89304761D01*
X37544285Y-89257142D01*
X37591904Y-89161904D01*
X37591904Y-88923809D01*
X37544285Y-88828571D01*
X37496666Y-88780952D01*
X37401428Y-88733333D01*
X37210952Y-88733333D01*
X37115714Y-88780952D01*
X37068095Y-88828571D01*
X37020476Y-88923809D01*
X53700000Y-111000000D02*
X53800000Y-111100000D01*
X31785714Y-146452380D02*
X31214285Y-146452380D01*
X31500000Y-146452380D02*
X31500000Y-145452380D01*
X31404761Y-145595238D01*
X31309523Y-145690476D01*
X31214285Y-145738095D01*
X67310000Y-26035000D02*
X68310000Y-24345000D01*
X66310000Y-24345000D02*
X67310000Y-26035000D01*
D11*
X30842261Y-150266666D02*
X31792261Y-149950000D01*
X30842261Y-149633333D01*
X31701785Y-148773809D02*
X31747023Y-148819047D01*
X31792261Y-148954761D01*
X31792261Y-149045238D01*
X31747023Y-149180952D01*
X31656547Y-149271428D01*
X31566071Y-149316666D01*
X31385119Y-149361904D01*
X31249404Y-149361904D01*
X31068452Y-149316666D01*
X30977976Y-149271428D01*
X30887500Y-149180952D01*
X30842261Y-149045238D01*
X30842261Y-148954761D01*
X30887500Y-148819047D01*
X30932738Y-148773809D01*
X31701785Y-147823809D02*
X31747023Y-147869047D01*
X31792261Y-148004761D01*
X31792261Y-148095238D01*
X31747023Y-148230952D01*
X31656547Y-148321428D01*
X31566071Y-148366666D01*
X31385119Y-148411904D01*
X31249404Y-148411904D01*
X31068452Y-148366666D01*
X30977976Y-148321428D01*
X30887500Y-148230952D01*
X30842261Y-148095238D01*
X30842261Y-148004761D01*
X30887500Y-147869047D01*
X30932738Y-147823809D01*
X33226785Y-149565476D02*
X33272023Y-149610714D01*
X33317261Y-149746428D01*
X33317261Y-149836904D01*
X33272023Y-149972619D01*
X33181547Y-150063095D01*
X33091071Y-150108333D01*
X32910119Y-150153571D01*
X32774404Y-150153571D01*
X32593452Y-150108333D01*
X32502976Y-150063095D01*
X32412500Y-149972619D01*
X32367261Y-149836904D01*
X32367261Y-149746428D01*
X32412500Y-149610714D01*
X32457738Y-149565476D01*
X33317261Y-148705952D02*
X33317261Y-149158333D01*
X32367261Y-149158333D01*
X33317261Y-148389285D02*
X32367261Y-148389285D01*
X33317261Y-147846428D02*
X32774404Y-148253571D01*
X32367261Y-147846428D02*
X32910119Y-148389285D01*
X33892261Y-149882142D02*
X34842261Y-149655952D01*
X34163690Y-149475000D01*
X34842261Y-149294047D01*
X33892261Y-149067857D01*
X34842261Y-148163095D02*
X34389880Y-148479761D01*
X34842261Y-148705952D02*
X33892261Y-148705952D01*
X33892261Y-148344047D01*
X33937500Y-148253571D01*
X33982738Y-148208333D01*
X34073214Y-148163095D01*
X34208928Y-148163095D01*
X34299404Y-148208333D01*
X34344642Y-148253571D01*
X34389880Y-148344047D01*
X34389880Y-148705952D01*
X36367261Y-149180952D02*
X35914880Y-149497619D01*
X36367261Y-149723809D02*
X35417261Y-149723809D01*
X35417261Y-149361904D01*
X35462500Y-149271428D01*
X35507738Y-149226190D01*
X35598214Y-149180952D01*
X35733928Y-149180952D01*
X35824404Y-149226190D01*
X35869642Y-149271428D01*
X35914880Y-149361904D01*
X35914880Y-149723809D01*
X36367261Y-148773809D02*
X35417261Y-148773809D01*
X35417261Y-148547619D01*
X35462500Y-148411904D01*
X35552976Y-148321428D01*
X35643452Y-148276190D01*
X35824404Y-148230952D01*
X35960119Y-148230952D01*
X36141071Y-148276190D01*
X36231547Y-148321428D01*
X36322023Y-148411904D01*
X36367261Y-148547619D01*
X36367261Y-148773809D01*
X37801785Y-149158333D02*
X37847023Y-149203571D01*
X37892261Y-149339285D01*
X37892261Y-149429761D01*
X37847023Y-149565476D01*
X37756547Y-149655952D01*
X37666071Y-149701190D01*
X37485119Y-149746428D01*
X37349404Y-149746428D01*
X37168452Y-149701190D01*
X37077976Y-149655952D01*
X36987500Y-149565476D01*
X36942261Y-149429761D01*
X36942261Y-149339285D01*
X36987500Y-149203571D01*
X37032738Y-149158333D01*
X37847023Y-148796428D02*
X37892261Y-148660714D01*
X37892261Y-148434523D01*
X37847023Y-148344047D01*
X37801785Y-148298809D01*
X37711309Y-148253571D01*
X37620833Y-148253571D01*
X37530357Y-148298809D01*
X37485119Y-148344047D01*
X37439880Y-148434523D01*
X37394642Y-148615476D01*
X37349404Y-148705952D01*
X37304166Y-148751190D01*
X37213690Y-148796428D01*
X37123214Y-148796428D01*
X37032738Y-148751190D01*
X36987500Y-148705952D01*
X36942261Y-148615476D01*
X36942261Y-148389285D01*
X36987500Y-148253571D01*
X39145833Y-149678571D02*
X39145833Y-149226190D01*
X39417261Y-149769047D02*
X38467261Y-149452380D01*
X39417261Y-149135714D01*
X38467261Y-148638095D02*
X38467261Y-148547619D01*
X38512500Y-148457142D01*
X38557738Y-148411904D01*
X38648214Y-148366666D01*
X38829166Y-148321428D01*
X39055357Y-148321428D01*
X39236309Y-148366666D01*
X39326785Y-148411904D01*
X39372023Y-148457142D01*
X39417261Y-148547619D01*
X39417261Y-148638095D01*
X39372023Y-148728571D01*
X39326785Y-148773809D01*
X39236309Y-148819047D01*
X39055357Y-148864285D01*
X38829166Y-148864285D01*
X38648214Y-148819047D01*
X38557738Y-148773809D01*
X38512500Y-148728571D01*
X38467261Y-148638095D01*
X40670833Y-149678571D02*
X40670833Y-149226190D01*
X40942261Y-149769047D02*
X39992261Y-149452380D01*
X40942261Y-149135714D01*
X40942261Y-148321428D02*
X40942261Y-148864285D01*
X40942261Y-148592857D02*
X39992261Y-148592857D01*
X40127976Y-148683333D01*
X40218452Y-148773809D01*
X40263690Y-148864285D01*
X42195833Y-149678571D02*
X42195833Y-149226190D01*
X42467261Y-149769047D02*
X41517261Y-149452380D01*
X42467261Y-149135714D01*
X41607738Y-148864285D02*
X41562500Y-148819047D01*
X41517261Y-148728571D01*
X41517261Y-148502380D01*
X41562500Y-148411904D01*
X41607738Y-148366666D01*
X41698214Y-148321428D01*
X41788690Y-148321428D01*
X41924404Y-148366666D01*
X42467261Y-148909523D01*
X42467261Y-148321428D01*
X43720833Y-149678571D02*
X43720833Y-149226190D01*
X43992261Y-149769047D02*
X43042261Y-149452380D01*
X43992261Y-149135714D01*
X43042261Y-148909523D02*
X43042261Y-148321428D01*
X43404166Y-148638095D01*
X43404166Y-148502380D01*
X43449404Y-148411904D01*
X43494642Y-148366666D01*
X43585119Y-148321428D01*
X43811309Y-148321428D01*
X43901785Y-148366666D01*
X43947023Y-148411904D01*
X43992261Y-148502380D01*
X43992261Y-148773809D01*
X43947023Y-148864285D01*
X43901785Y-148909523D01*
X45245833Y-149678571D02*
X45245833Y-149226190D01*
X45517261Y-149769047D02*
X44567261Y-149452380D01*
X45517261Y-149135714D01*
X44883928Y-148411904D02*
X45517261Y-148411904D01*
X44522023Y-148638095D02*
X45200595Y-148864285D01*
X45200595Y-148276190D01*
X46770833Y-149678571D02*
X46770833Y-149226190D01*
X47042261Y-149769047D02*
X46092261Y-149452380D01*
X47042261Y-149135714D01*
X46092261Y-148366666D02*
X46092261Y-148819047D01*
X46544642Y-148864285D01*
X46499404Y-148819047D01*
X46454166Y-148728571D01*
X46454166Y-148502380D01*
X46499404Y-148411904D01*
X46544642Y-148366666D01*
X46635119Y-148321428D01*
X46861309Y-148321428D01*
X46951785Y-148366666D01*
X46997023Y-148411904D01*
X47042261Y-148502380D01*
X47042261Y-148728571D01*
X46997023Y-148819047D01*
X46951785Y-148864285D01*
X48295833Y-149678571D02*
X48295833Y-149226190D01*
X48567261Y-149769047D02*
X47617261Y-149452380D01*
X48567261Y-149135714D01*
X47617261Y-148411904D02*
X47617261Y-148592857D01*
X47662500Y-148683333D01*
X47707738Y-148728571D01*
X47843452Y-148819047D01*
X48024404Y-148864285D01*
X48386309Y-148864285D01*
X48476785Y-148819047D01*
X48522023Y-148773809D01*
X48567261Y-148683333D01*
X48567261Y-148502380D01*
X48522023Y-148411904D01*
X48476785Y-148366666D01*
X48386309Y-148321428D01*
X48160119Y-148321428D01*
X48069642Y-148366666D01*
X48024404Y-148411904D01*
X47979166Y-148502380D01*
X47979166Y-148683333D01*
X48024404Y-148773809D01*
X48069642Y-148819047D01*
X48160119Y-148864285D01*
X49820833Y-149678571D02*
X49820833Y-149226190D01*
X50092261Y-149769047D02*
X49142261Y-149452380D01*
X50092261Y-149135714D01*
X49142261Y-148909523D02*
X49142261Y-148276190D01*
X50092261Y-148683333D01*
X51345833Y-149678571D02*
X51345833Y-149226190D01*
X51617261Y-149769047D02*
X50667261Y-149452380D01*
X51617261Y-149135714D01*
X51074404Y-148683333D02*
X51029166Y-148773809D01*
X50983928Y-148819047D01*
X50893452Y-148864285D01*
X50848214Y-148864285D01*
X50757738Y-148819047D01*
X50712500Y-148773809D01*
X50667261Y-148683333D01*
X50667261Y-148502380D01*
X50712500Y-148411904D01*
X50757738Y-148366666D01*
X50848214Y-148321428D01*
X50893452Y-148321428D01*
X50983928Y-148366666D01*
X51029166Y-148411904D01*
X51074404Y-148502380D01*
X51074404Y-148683333D01*
X51119642Y-148773809D01*
X51164880Y-148819047D01*
X51255357Y-148864285D01*
X51436309Y-148864285D01*
X51526785Y-148819047D01*
X51572023Y-148773809D01*
X51617261Y-148683333D01*
X51617261Y-148502380D01*
X51572023Y-148411904D01*
X51526785Y-148366666D01*
X51436309Y-148321428D01*
X51255357Y-148321428D01*
X51164880Y-148366666D01*
X51119642Y-148411904D01*
X51074404Y-148502380D01*
X52870833Y-149678571D02*
X52870833Y-149226190D01*
X53142261Y-149769047D02*
X52192261Y-149452380D01*
X53142261Y-149135714D01*
X53142261Y-148773809D02*
X53142261Y-148592857D01*
X53097023Y-148502380D01*
X53051785Y-148457142D01*
X52916071Y-148366666D01*
X52735119Y-148321428D01*
X52373214Y-148321428D01*
X52282738Y-148366666D01*
X52237500Y-148411904D01*
X52192261Y-148502380D01*
X52192261Y-148683333D01*
X52237500Y-148773809D01*
X52282738Y-148819047D01*
X52373214Y-148864285D01*
X52599404Y-148864285D01*
X52689880Y-148819047D01*
X52735119Y-148773809D01*
X52780357Y-148683333D01*
X52780357Y-148502380D01*
X52735119Y-148411904D01*
X52689880Y-148366666D01*
X52599404Y-148321428D01*
X54395833Y-149633333D02*
X54395833Y-149180952D01*
X54667261Y-149723809D02*
X53717261Y-149407142D01*
X54667261Y-149090476D01*
X54395833Y-148819047D02*
X54395833Y-148366666D01*
X54667261Y-148909523D02*
X53717261Y-148592857D01*
X54667261Y-148276190D01*
X55920833Y-149701190D02*
X55920833Y-149248809D01*
X56192261Y-149791666D02*
X55242261Y-149475000D01*
X56192261Y-149158333D01*
X55694642Y-148525000D02*
X55739880Y-148389285D01*
X55785119Y-148344047D01*
X55875595Y-148298809D01*
X56011309Y-148298809D01*
X56101785Y-148344047D01*
X56147023Y-148389285D01*
X56192261Y-148479761D01*
X56192261Y-148841666D01*
X55242261Y-148841666D01*
X55242261Y-148525000D01*
X55287500Y-148434523D01*
X55332738Y-148389285D01*
X55423214Y-148344047D01*
X55513690Y-148344047D01*
X55604166Y-148389285D01*
X55649404Y-148434523D01*
X55694642Y-148525000D01*
X55694642Y-148841666D01*
X57445833Y-149701190D02*
X57445833Y-149248809D01*
X57717261Y-149791666D02*
X56767261Y-149475000D01*
X57717261Y-149158333D01*
X57626785Y-148298809D02*
X57672023Y-148344047D01*
X57717261Y-148479761D01*
X57717261Y-148570238D01*
X57672023Y-148705952D01*
X57581547Y-148796428D01*
X57491071Y-148841666D01*
X57310119Y-148886904D01*
X57174404Y-148886904D01*
X56993452Y-148841666D01*
X56902976Y-148796428D01*
X56812500Y-148705952D01*
X56767261Y-148570238D01*
X56767261Y-148479761D01*
X56812500Y-148344047D01*
X56857738Y-148298809D01*
X58970833Y-149701190D02*
X58970833Y-149248809D01*
X59242261Y-149791666D02*
X58292261Y-149475000D01*
X59242261Y-149158333D01*
X59242261Y-148841666D02*
X58292261Y-148841666D01*
X58292261Y-148615476D01*
X58337500Y-148479761D01*
X58427976Y-148389285D01*
X58518452Y-148344047D01*
X58699404Y-148298809D01*
X58835119Y-148298809D01*
X59016071Y-148344047D01*
X59106547Y-148389285D01*
X59197023Y-148479761D01*
X59242261Y-148615476D01*
X59242261Y-148841666D01*
X60495833Y-149655952D02*
X60495833Y-149203571D01*
X60767261Y-149746428D02*
X59817261Y-149429761D01*
X60767261Y-149113095D01*
X60269642Y-148796428D02*
X60269642Y-148479761D01*
X60767261Y-148344047D02*
X60767261Y-148796428D01*
X59817261Y-148796428D01*
X59817261Y-148344047D01*
X62020833Y-149633333D02*
X62020833Y-149180952D01*
X62292261Y-149723809D02*
X61342261Y-149407142D01*
X62292261Y-149090476D01*
X61794642Y-148457142D02*
X61794642Y-148773809D01*
X62292261Y-148773809D02*
X61342261Y-148773809D01*
X61342261Y-148321428D01*
X63817261Y-149701190D02*
X62867261Y-149701190D01*
X62867261Y-149475000D01*
X62912500Y-149339285D01*
X63002976Y-149248809D01*
X63093452Y-149203571D01*
X63274404Y-149158333D01*
X63410119Y-149158333D01*
X63591071Y-149203571D01*
X63681547Y-149248809D01*
X63772023Y-149339285D01*
X63817261Y-149475000D01*
X63817261Y-149701190D01*
X62867261Y-148570238D02*
X62867261Y-148479761D01*
X62912500Y-148389285D01*
X62957738Y-148344047D01*
X63048214Y-148298809D01*
X63229166Y-148253571D01*
X63455357Y-148253571D01*
X63636309Y-148298809D01*
X63726785Y-148344047D01*
X63772023Y-148389285D01*
X63817261Y-148479761D01*
X63817261Y-148570238D01*
X63772023Y-148660714D01*
X63726785Y-148705952D01*
X63636309Y-148751190D01*
X63455357Y-148796428D01*
X63229166Y-148796428D01*
X63048214Y-148751190D01*
X62957738Y-148705952D01*
X62912500Y-148660714D01*
X62867261Y-148570238D01*
X65342261Y-149701190D02*
X64392261Y-149701190D01*
X64392261Y-149475000D01*
X64437500Y-149339285D01*
X64527976Y-149248809D01*
X64618452Y-149203571D01*
X64799404Y-149158333D01*
X64935119Y-149158333D01*
X65116071Y-149203571D01*
X65206547Y-149248809D01*
X65297023Y-149339285D01*
X65342261Y-149475000D01*
X65342261Y-149701190D01*
X65342261Y-148253571D02*
X65342261Y-148796428D01*
X65342261Y-148525000D02*
X64392261Y-148525000D01*
X64527976Y-148615476D01*
X64618452Y-148705952D01*
X64663690Y-148796428D01*
X66867261Y-149701190D02*
X65917261Y-149701190D01*
X65917261Y-149475000D01*
X65962500Y-149339285D01*
X66052976Y-149248809D01*
X66143452Y-149203571D01*
X66324404Y-149158333D01*
X66460119Y-149158333D01*
X66641071Y-149203571D01*
X66731547Y-149248809D01*
X66822023Y-149339285D01*
X66867261Y-149475000D01*
X66867261Y-149701190D01*
X66007738Y-148796428D02*
X65962500Y-148751190D01*
X65917261Y-148660714D01*
X65917261Y-148434523D01*
X65962500Y-148344047D01*
X66007738Y-148298809D01*
X66098214Y-148253571D01*
X66188690Y-148253571D01*
X66324404Y-148298809D01*
X66867261Y-148841666D01*
X66867261Y-148253571D01*
X68392261Y-149701190D02*
X67442261Y-149701190D01*
X67442261Y-149475000D01*
X67487500Y-149339285D01*
X67577976Y-149248809D01*
X67668452Y-149203571D01*
X67849404Y-149158333D01*
X67985119Y-149158333D01*
X68166071Y-149203571D01*
X68256547Y-149248809D01*
X68347023Y-149339285D01*
X68392261Y-149475000D01*
X68392261Y-149701190D01*
X67442261Y-148841666D02*
X67442261Y-148253571D01*
X67804166Y-148570238D01*
X67804166Y-148434523D01*
X67849404Y-148344047D01*
X67894642Y-148298809D01*
X67985119Y-148253571D01*
X68211309Y-148253571D01*
X68301785Y-148298809D01*
X68347023Y-148344047D01*
X68392261Y-148434523D01*
X68392261Y-148705952D01*
X68347023Y-148796428D01*
X68301785Y-148841666D01*
X69917261Y-149701190D02*
X68967261Y-149701190D01*
X68967261Y-149475000D01*
X69012500Y-149339285D01*
X69102976Y-149248809D01*
X69193452Y-149203571D01*
X69374404Y-149158333D01*
X69510119Y-149158333D01*
X69691071Y-149203571D01*
X69781547Y-149248809D01*
X69872023Y-149339285D01*
X69917261Y-149475000D01*
X69917261Y-149701190D01*
X69283928Y-148344047D02*
X69917261Y-148344047D01*
X68922023Y-148570238D02*
X69600595Y-148796428D01*
X69600595Y-148208333D01*
X71442261Y-149701190D02*
X70492261Y-149701190D01*
X70492261Y-149475000D01*
X70537500Y-149339285D01*
X70627976Y-149248809D01*
X70718452Y-149203571D01*
X70899404Y-149158333D01*
X71035119Y-149158333D01*
X71216071Y-149203571D01*
X71306547Y-149248809D01*
X71397023Y-149339285D01*
X71442261Y-149475000D01*
X71442261Y-149701190D01*
X70492261Y-148298809D02*
X70492261Y-148751190D01*
X70944642Y-148796428D01*
X70899404Y-148751190D01*
X70854166Y-148660714D01*
X70854166Y-148434523D01*
X70899404Y-148344047D01*
X70944642Y-148298809D01*
X71035119Y-148253571D01*
X71261309Y-148253571D01*
X71351785Y-148298809D01*
X71397023Y-148344047D01*
X71442261Y-148434523D01*
X71442261Y-148660714D01*
X71397023Y-148751190D01*
X71351785Y-148796428D01*
X72967261Y-149701190D02*
X72017261Y-149701190D01*
X72017261Y-149475000D01*
X72062500Y-149339285D01*
X72152976Y-149248809D01*
X72243452Y-149203571D01*
X72424404Y-149158333D01*
X72560119Y-149158333D01*
X72741071Y-149203571D01*
X72831547Y-149248809D01*
X72922023Y-149339285D01*
X72967261Y-149475000D01*
X72967261Y-149701190D01*
X72017261Y-148344047D02*
X72017261Y-148525000D01*
X72062500Y-148615476D01*
X72107738Y-148660714D01*
X72243452Y-148751190D01*
X72424404Y-148796428D01*
X72786309Y-148796428D01*
X72876785Y-148751190D01*
X72922023Y-148705952D01*
X72967261Y-148615476D01*
X72967261Y-148434523D01*
X72922023Y-148344047D01*
X72876785Y-148298809D01*
X72786309Y-148253571D01*
X72560119Y-148253571D01*
X72469642Y-148298809D01*
X72424404Y-148344047D01*
X72379166Y-148434523D01*
X72379166Y-148615476D01*
X72424404Y-148705952D01*
X72469642Y-148751190D01*
X72560119Y-148796428D01*
X74492261Y-149701190D02*
X73542261Y-149701190D01*
X73542261Y-149475000D01*
X73587500Y-149339285D01*
X73677976Y-149248809D01*
X73768452Y-149203571D01*
X73949404Y-149158333D01*
X74085119Y-149158333D01*
X74266071Y-149203571D01*
X74356547Y-149248809D01*
X74447023Y-149339285D01*
X74492261Y-149475000D01*
X74492261Y-149701190D01*
X73542261Y-148841666D02*
X73542261Y-148208333D01*
X74492261Y-148615476D01*
X76017261Y-149520238D02*
X75564880Y-149836904D01*
X76017261Y-150063095D02*
X75067261Y-150063095D01*
X75067261Y-149701190D01*
X75112500Y-149610714D01*
X75157738Y-149565476D01*
X75248214Y-149520238D01*
X75383928Y-149520238D01*
X75474404Y-149565476D01*
X75519642Y-149610714D01*
X75564880Y-149701190D01*
X75564880Y-150063095D01*
X75972023Y-149158333D02*
X76017261Y-149022619D01*
X76017261Y-148796428D01*
X75972023Y-148705952D01*
X75926785Y-148660714D01*
X75836309Y-148615476D01*
X75745833Y-148615476D01*
X75655357Y-148660714D01*
X75610119Y-148705952D01*
X75564880Y-148796428D01*
X75519642Y-148977380D01*
X75474404Y-149067857D01*
X75429166Y-149113095D01*
X75338690Y-149158333D01*
X75248214Y-149158333D01*
X75157738Y-149113095D01*
X75112500Y-149067857D01*
X75067261Y-148977380D01*
X75067261Y-148751190D01*
X75112500Y-148615476D01*
X75067261Y-148344047D02*
X75067261Y-147801190D01*
X76017261Y-148072619D02*
X75067261Y-148072619D01*
X76592261Y-150040476D02*
X77542261Y-149723809D01*
X76592261Y-149407142D01*
X77542261Y-149090476D02*
X76592261Y-149090476D01*
X77542261Y-148638095D02*
X76592261Y-148638095D01*
X77542261Y-148095238D01*
X76592261Y-148095238D01*
X78162500Y-149723809D02*
X78117261Y-149814285D01*
X78117261Y-149950000D01*
X78162500Y-150085714D01*
X78252976Y-150176190D01*
X78343452Y-150221428D01*
X78524404Y-150266666D01*
X78660119Y-150266666D01*
X78841071Y-150221428D01*
X78931547Y-150176190D01*
X79022023Y-150085714D01*
X79067261Y-149950000D01*
X79067261Y-149859523D01*
X79022023Y-149723809D01*
X78976785Y-149678571D01*
X78660119Y-149678571D01*
X78660119Y-149859523D01*
X79067261Y-149271428D02*
X78117261Y-149271428D01*
X79067261Y-148728571D01*
X78117261Y-148728571D01*
X79067261Y-148276190D02*
X78117261Y-148276190D01*
X78117261Y-148050000D01*
X78162500Y-147914285D01*
X78252976Y-147823809D01*
X78343452Y-147778571D01*
X78524404Y-147733333D01*
X78660119Y-147733333D01*
X78841071Y-147778571D01*
X78931547Y-147823809D01*
X79022023Y-147914285D01*
X79067261Y-148050000D01*
X79067261Y-148276190D01*
D10*
X70358095Y-40187619D02*
X70405714Y-40140000D01*
X70500952Y-40092380D01*
X70739047Y-40092380D01*
X70834285Y-40140000D01*
X70881904Y-40187619D01*
X70929523Y-40282857D01*
X70929523Y-40378095D01*
X70881904Y-40520952D01*
X70310476Y-41092380D01*
X70929523Y-41092380D01*
X71262857Y-40092380D02*
X71929523Y-40092380D01*
X71500952Y-41092380D01*
X67818095Y-40187619D02*
X67865714Y-40140000D01*
X67960952Y-40092380D01*
X68199047Y-40092380D01*
X68294285Y-40140000D01*
X68341904Y-40187619D01*
X68389523Y-40282857D01*
X68389523Y-40378095D01*
X68341904Y-40520952D01*
X67770476Y-41092380D01*
X68389523Y-41092380D01*
X69294285Y-40092380D02*
X68818095Y-40092380D01*
X68770476Y-40568571D01*
X68818095Y-40520952D01*
X68913333Y-40473333D01*
X69151428Y-40473333D01*
X69246666Y-40520952D01*
X69294285Y-40568571D01*
X69341904Y-40663809D01*
X69341904Y-40901904D01*
X69294285Y-40997142D01*
X69246666Y-41044761D01*
X69151428Y-41092380D01*
X68913333Y-41092380D01*
X68818095Y-41044761D01*
X68770476Y-40997142D01*
X65278095Y-40187619D02*
X65325714Y-40140000D01*
X65420952Y-40092380D01*
X65659047Y-40092380D01*
X65754285Y-40140000D01*
X65801904Y-40187619D01*
X65849523Y-40282857D01*
X65849523Y-40378095D01*
X65801904Y-40520952D01*
X65230476Y-41092380D01*
X65849523Y-41092380D01*
X66182857Y-40092380D02*
X66801904Y-40092380D01*
X66468571Y-40473333D01*
X66611428Y-40473333D01*
X66706666Y-40520952D01*
X66754285Y-40568571D01*
X66801904Y-40663809D01*
X66801904Y-40901904D01*
X66754285Y-40997142D01*
X66706666Y-41044761D01*
X66611428Y-41092380D01*
X66325714Y-41092380D01*
X66230476Y-41044761D01*
X66182857Y-40997142D01*
X62738095Y-40187619D02*
X62785714Y-40140000D01*
X62880952Y-40092380D01*
X63119047Y-40092380D01*
X63214285Y-40140000D01*
X63261904Y-40187619D01*
X63309523Y-40282857D01*
X63309523Y-40378095D01*
X63261904Y-40520952D01*
X62690476Y-41092380D01*
X63309523Y-41092380D01*
X64261904Y-41092380D02*
X63690476Y-41092380D01*
X63976190Y-41092380D02*
X63976190Y-40092380D01*
X63880952Y-40235238D01*
X63785714Y-40330476D01*
X63690476Y-40378095D01*
X70834285Y-31535714D02*
X70834285Y-32202380D01*
X70596190Y-31154761D02*
X70358095Y-31869047D01*
X70977142Y-31869047D01*
X71262857Y-31202380D02*
X71881904Y-31202380D01*
X71548571Y-31583333D01*
X71691428Y-31583333D01*
X71786666Y-31630952D01*
X71834285Y-31678571D01*
X71881904Y-31773809D01*
X71881904Y-32011904D01*
X71834285Y-32107142D01*
X71786666Y-32154761D01*
X71691428Y-32202380D01*
X71405714Y-32202380D01*
X71310476Y-32154761D01*
X71262857Y-32107142D01*
X63738095Y-31202380D02*
X63261904Y-31202380D01*
X63214285Y-31678571D01*
X63261904Y-31630952D01*
X63357142Y-31583333D01*
X63595238Y-31583333D01*
X63690476Y-31630952D01*
X63738095Y-31678571D01*
X63785714Y-31773809D01*
X63785714Y-32011904D01*
X63738095Y-32107142D01*
X63690476Y-32154761D01*
X63595238Y-32202380D01*
X63357142Y-32202380D01*
X63261904Y-32154761D01*
X63214285Y-32107142D01*
X65706666Y-31202380D02*
X66325714Y-31202380D01*
X65992380Y-31583333D01*
X66135238Y-31583333D01*
X66230476Y-31630952D01*
X66278095Y-31678571D01*
X66325714Y-31773809D01*
X66325714Y-32011904D01*
X66278095Y-32107142D01*
X66230476Y-32154761D01*
X66135238Y-32202380D01*
X65849523Y-32202380D01*
X65754285Y-32154761D01*
X65706666Y-32107142D01*
X34290000Y-104965000D02*
X33655000Y-104330000D01*
X34290000Y-104965000D02*
X34925000Y-104330000D01*
X34290000Y-96075000D02*
X34925000Y-96710000D01*
X34290000Y-96075000D02*
X33655000Y-96710000D01*
X32424761Y-98402142D02*
X32377142Y-98449761D01*
X32234285Y-98497380D01*
X32139047Y-98497380D01*
X31996190Y-98449761D01*
X31900952Y-98354523D01*
X31853333Y-98259285D01*
X31805714Y-98068809D01*
X31805714Y-97925952D01*
X31853333Y-97735476D01*
X31900952Y-97640238D01*
X31996190Y-97545000D01*
X32139047Y-97497380D01*
X32234285Y-97497380D01*
X32377142Y-97545000D01*
X32424761Y-97592619D01*
X33329523Y-98497380D02*
X32853333Y-98497380D01*
X32853333Y-97497380D01*
X33662857Y-98497380D02*
X33662857Y-97497380D01*
X34234285Y-98497380D02*
X33805714Y-97925952D01*
X34234285Y-97497380D02*
X33662857Y-98068809D01*
X32853333Y-99147380D02*
X33091428Y-100147380D01*
X33281904Y-99433095D01*
X33472380Y-100147380D01*
X33710476Y-99147380D01*
X34662857Y-100147380D02*
X34329523Y-99671190D01*
X34091428Y-100147380D02*
X34091428Y-99147380D01*
X34472380Y-99147380D01*
X34567619Y-99195000D01*
X34615238Y-99242619D01*
X34662857Y-99337857D01*
X34662857Y-99480714D01*
X34615238Y-99575952D01*
X34567619Y-99623571D01*
X34472380Y-99671190D01*
X34091428Y-99671190D01*
X34353333Y-101797380D02*
X34020000Y-101321190D01*
X33781904Y-101797380D02*
X33781904Y-100797380D01*
X34162857Y-100797380D01*
X34258095Y-100845000D01*
X34305714Y-100892619D01*
X34353333Y-100987857D01*
X34353333Y-101130714D01*
X34305714Y-101225952D01*
X34258095Y-101273571D01*
X34162857Y-101321190D01*
X33781904Y-101321190D01*
X34781904Y-101797380D02*
X34781904Y-100797380D01*
X35020000Y-100797380D01*
X35162857Y-100845000D01*
X35258095Y-100940238D01*
X35305714Y-101035476D01*
X35353333Y-101225952D01*
X35353333Y-101368809D01*
X35305714Y-101559285D01*
X35258095Y-101654523D01*
X35162857Y-101749761D01*
X35020000Y-101797380D01*
X34781904Y-101797380D01*
X35139047Y-103352142D02*
X35091428Y-103399761D01*
X34948571Y-103447380D01*
X34853333Y-103447380D01*
X34710476Y-103399761D01*
X34615238Y-103304523D01*
X34567619Y-103209285D01*
X34520000Y-103018809D01*
X34520000Y-102875952D01*
X34567619Y-102685476D01*
X34615238Y-102590238D01*
X34710476Y-102495000D01*
X34853333Y-102447380D01*
X34948571Y-102447380D01*
X35091428Y-102495000D01*
X35139047Y-102542619D01*
X35520000Y-103399761D02*
X35662857Y-103447380D01*
X35900952Y-103447380D01*
X35996190Y-103399761D01*
X36043809Y-103352142D01*
X36091428Y-103256904D01*
X36091428Y-103161666D01*
X36043809Y-103066428D01*
X35996190Y-103018809D01*
X35900952Y-102971190D01*
X35710476Y-102923571D01*
X35615238Y-102875952D01*
X35567619Y-102828333D01*
X35520000Y-102733095D01*
X35520000Y-102637857D01*
X35567619Y-102542619D01*
X35615238Y-102495000D01*
X35710476Y-102447380D01*
X35948571Y-102447380D01*
X36091428Y-102495000D01*
X76835000Y-113030000D02*
X76200000Y-112395000D01*
X77470000Y-112395000D02*
X76835000Y-113030000D01*
X76835000Y-108140000D02*
X76200000Y-108775000D01*
X76835000Y-108140000D02*
X77470000Y-108775000D01*
X76287380Y-110307380D02*
X75954047Y-109831190D01*
X75715952Y-110307380D02*
X75715952Y-109307380D01*
X76096904Y-109307380D01*
X76192142Y-109355000D01*
X76239761Y-109402619D01*
X76287380Y-109497857D01*
X76287380Y-109640714D01*
X76239761Y-109735952D01*
X76192142Y-109783571D01*
X76096904Y-109831190D01*
X75715952Y-109831190D01*
X76668333Y-110259761D02*
X76811190Y-110307380D01*
X77049285Y-110307380D01*
X77144523Y-110259761D01*
X77192142Y-110212142D01*
X77239761Y-110116904D01*
X77239761Y-110021666D01*
X77192142Y-109926428D01*
X77144523Y-109878809D01*
X77049285Y-109831190D01*
X76858809Y-109783571D01*
X76763571Y-109735952D01*
X76715952Y-109688333D01*
X76668333Y-109593095D01*
X76668333Y-109497857D01*
X76715952Y-109402619D01*
X76763571Y-109355000D01*
X76858809Y-109307380D01*
X77096904Y-109307380D01*
X77239761Y-109355000D01*
X77525476Y-109307380D02*
X78096904Y-109307380D01*
X77811190Y-110307380D02*
X77811190Y-109307380D01*
X76501666Y-110957380D02*
X76835000Y-111957380D01*
X77168333Y-110957380D01*
X77501666Y-111957380D02*
X77501666Y-110957380D01*
X77977857Y-111957380D02*
X77977857Y-110957380D01*
X78549285Y-111957380D01*
X78549285Y-110957380D01*
X68865714Y-32202380D02*
X68294285Y-32202380D01*
X68580000Y-32202380D02*
X68580000Y-31202380D01*
X68484761Y-31345238D01*
X68389523Y-31440476D01*
X68294285Y-31488095D01*
X65278095Y-53427380D02*
X65278095Y-54236904D01*
X65325714Y-54332142D01*
X65373333Y-54379761D01*
X65468571Y-54427380D01*
X65659047Y-54427380D01*
X65754285Y-54379761D01*
X65801904Y-54332142D01*
X65849523Y-54236904D01*
X65849523Y-53427380D01*
X66230476Y-53427380D02*
X66849523Y-53427380D01*
X66516190Y-53808333D01*
X66659047Y-53808333D01*
X66754285Y-53855952D01*
X66801904Y-53903571D01*
X66849523Y-53998809D01*
X66849523Y-54236904D01*
X66801904Y-54332142D01*
X66754285Y-54379761D01*
X66659047Y-54427380D01*
X66373333Y-54427380D01*
X66278095Y-54379761D01*
X66230476Y-54332142D01*
X67310000Y-54610000D02*
G75*
G02*
X64770000Y-54610000I-1270000J0D01*
G01*
X73660000Y-86360000D02*
X58420000Y-86360000D01*
X58480000Y-54610000D02*
X73660000Y-54610000D01*
X51260476Y-45172380D02*
X51879523Y-45172380D01*
X51546190Y-45553333D01*
X51689047Y-45553333D01*
X51784285Y-45600952D01*
X51831904Y-45648571D01*
X51879523Y-45743809D01*
X51879523Y-45981904D01*
X51831904Y-46077142D01*
X51784285Y-46124761D01*
X51689047Y-46172380D01*
X51403333Y-46172380D01*
X51308095Y-46124761D01*
X51260476Y-46077142D01*
X52260476Y-45267619D02*
X52308095Y-45220000D01*
X52403333Y-45172380D01*
X52641428Y-45172380D01*
X52736666Y-45220000D01*
X52784285Y-45267619D01*
X52831904Y-45362857D01*
X52831904Y-45458095D01*
X52784285Y-45600952D01*
X52212857Y-46172380D01*
X52831904Y-46172380D01*
X57435714Y-51252380D02*
X56864285Y-51252380D01*
X57150000Y-51252380D02*
X57150000Y-50252380D01*
X57054761Y-50395238D01*
X56959523Y-50490476D01*
X56864285Y-50538095D01*
X74168095Y-50347619D02*
X74215714Y-50300000D01*
X74310952Y-50252380D01*
X74549047Y-50252380D01*
X74644285Y-50300000D01*
X74691904Y-50347619D01*
X74739523Y-50442857D01*
X74739523Y-50538095D01*
X74691904Y-50680952D01*
X74120476Y-51252380D01*
X74739523Y-51252380D01*
X75310952Y-50680952D02*
X75215714Y-50633333D01*
X75168095Y-50585714D01*
X75120476Y-50490476D01*
X75120476Y-50442857D01*
X75168095Y-50347619D01*
X75215714Y-50300000D01*
X75310952Y-50252380D01*
X75501428Y-50252380D01*
X75596666Y-50300000D01*
X75644285Y-50347619D01*
X75691904Y-50442857D01*
X75691904Y-50490476D01*
X75644285Y-50585714D01*
X75596666Y-50633333D01*
X75501428Y-50680952D01*
X75310952Y-50680952D01*
X75215714Y-50728571D01*
X75168095Y-50776190D01*
X75120476Y-50871428D01*
X75120476Y-51061904D01*
X75168095Y-51157142D01*
X75215714Y-51204761D01*
X75310952Y-51252380D01*
X75501428Y-51252380D01*
X75596666Y-51204761D01*
X75644285Y-51157142D01*
X75691904Y-51061904D01*
X75691904Y-50871428D01*
X75644285Y-50776190D01*
X75596666Y-50728571D01*
X75501428Y-50680952D01*
X74739523Y-89352380D02*
X74168095Y-89352380D01*
X74453809Y-89352380D02*
X74453809Y-88352380D01*
X74358571Y-88495238D01*
X74263333Y-88590476D01*
X74168095Y-88638095D01*
X75644285Y-88352380D02*
X75168095Y-88352380D01*
X75120476Y-88828571D01*
X75168095Y-88780952D01*
X75263333Y-88733333D01*
X75501428Y-88733333D01*
X75596666Y-88780952D01*
X75644285Y-88828571D01*
X75691904Y-88923809D01*
X75691904Y-89161904D01*
X75644285Y-89257142D01*
X75596666Y-89304761D01*
X75501428Y-89352380D01*
X75263333Y-89352380D01*
X75168095Y-89304761D01*
X75120476Y-89257142D01*
X56959523Y-89352380D02*
X56388095Y-89352380D01*
X56673809Y-89352380D02*
X56673809Y-88352380D01*
X56578571Y-88495238D01*
X56483333Y-88590476D01*
X56388095Y-88638095D01*
X57816666Y-88685714D02*
X57816666Y-89352380D01*
X57578571Y-88304761D02*
X57340476Y-89019047D01*
X57959523Y-89019047D01*
X51879523Y-89352380D02*
X51308095Y-89352380D01*
X51593809Y-89352380D02*
X51593809Y-88352380D01*
X51498571Y-88495238D01*
X51403333Y-88590476D01*
X51308095Y-88638095D01*
X52212857Y-88352380D02*
X52879523Y-88352380D01*
X52450952Y-89352380D01*
X37115714Y-46172380D02*
X36544285Y-46172380D01*
X36830000Y-46172380D02*
X36830000Y-45172380D01*
X36734761Y-45315238D01*
X36639523Y-45410476D01*
X36544285Y-45458095D01*
X67516666Y-98877380D02*
X67516666Y-97877380D01*
X67754761Y-97877380D01*
X67897619Y-97925000D01*
X67992857Y-98020238D01*
X68040476Y-98115476D01*
X68088095Y-98305952D01*
X68088095Y-98448809D01*
X68040476Y-98639285D01*
X67992857Y-98734523D01*
X67897619Y-98829761D01*
X67754761Y-98877380D01*
X67516666Y-98877380D01*
X68707142Y-97877380D02*
X68802380Y-97877380D01*
X68897619Y-97925000D01*
X68945238Y-97972619D01*
X68992857Y-98067857D01*
X69040476Y-98258333D01*
X69040476Y-98496428D01*
X68992857Y-98686904D01*
X68945238Y-98782142D01*
X68897619Y-98829761D01*
X68802380Y-98877380D01*
X68707142Y-98877380D01*
X68611904Y-98829761D01*
X68564285Y-98782142D01*
X68516666Y-98686904D01*
X68469047Y-98496428D01*
X68469047Y-98258333D01*
X68516666Y-98067857D01*
X68564285Y-97972619D01*
X68611904Y-97925000D01*
X68707142Y-97877380D01*
X69469047Y-98496428D02*
X70230952Y-98496428D01*
X70707142Y-98877380D02*
X70707142Y-97877380D01*
X70945238Y-97877380D01*
X71088095Y-97925000D01*
X71183333Y-98020238D01*
X71230952Y-98115476D01*
X71278571Y-98305952D01*
X71278571Y-98448809D01*
X71230952Y-98639285D01*
X71183333Y-98734523D01*
X71088095Y-98829761D01*
X70945238Y-98877380D01*
X70707142Y-98877380D01*
X71611904Y-97877380D02*
X72278571Y-97877380D01*
X71850000Y-98877380D01*
X49879523Y-98591666D02*
X50355714Y-98591666D01*
X49784285Y-98877380D02*
X50117619Y-97877380D01*
X50450952Y-98877380D01*
X50974761Y-97877380D02*
X51070000Y-97877380D01*
X51165238Y-97925000D01*
X51212857Y-97972619D01*
X51260476Y-98067857D01*
X51308095Y-98258333D01*
X51308095Y-98496428D01*
X51260476Y-98686904D01*
X51212857Y-98782142D01*
X51165238Y-98829761D01*
X51070000Y-98877380D01*
X50974761Y-98877380D01*
X50879523Y-98829761D01*
X50831904Y-98782142D01*
X50784285Y-98686904D01*
X50736666Y-98496428D01*
X50736666Y-98258333D01*
X50784285Y-98067857D01*
X50831904Y-97972619D01*
X50879523Y-97925000D01*
X50974761Y-97877380D01*
X51736666Y-98496428D02*
X52498571Y-98496428D01*
X52927142Y-98591666D02*
X53403333Y-98591666D01*
X52831904Y-98877380D02*
X53165238Y-97877380D01*
X53498571Y-98877380D01*
X54165238Y-98353571D02*
X53831904Y-98353571D01*
X53831904Y-98877380D02*
X53831904Y-97877380D01*
X54308095Y-97877380D01*
X73025000Y-95250000D02*
X71755000Y-93980000D01*
X67310000Y-95250000D02*
X73025000Y-95250000D01*
X67310000Y-95250000D02*
X68580000Y-93980000D01*
X66040000Y-95250000D02*
X64770000Y-93980000D01*
X38735000Y-95250000D02*
X40005000Y-96520000D01*
X40005000Y-93980000D02*
X38735000Y-95250000D01*
X38735000Y-95250000D02*
X66040000Y-95250000D01*
D12*
X42654761Y-129509523D02*
X42940476Y-129604761D01*
X43416666Y-129604761D01*
X43607142Y-129509523D01*
X43702380Y-129414285D01*
X43797619Y-129223809D01*
X43797619Y-129033333D01*
X43702380Y-128842857D01*
X43607142Y-128747619D01*
X43416666Y-128652380D01*
X43035714Y-128557142D01*
X42845238Y-128461904D01*
X42750000Y-128366666D01*
X42654761Y-128176190D01*
X42654761Y-127985714D01*
X42750000Y-127795238D01*
X42845238Y-127700000D01*
X43035714Y-127604761D01*
X43511904Y-127604761D01*
X43797619Y-127700000D01*
X45511904Y-128271428D02*
X45511904Y-130271428D01*
X45511904Y-129509523D02*
X45321428Y-129604761D01*
X44940476Y-129604761D01*
X44750000Y-129509523D01*
X44654761Y-129414285D01*
X44559523Y-129223809D01*
X44559523Y-128652380D01*
X44654761Y-128461904D01*
X44750000Y-128366666D01*
X44940476Y-128271428D01*
X45321428Y-128271428D01*
X45511904Y-128366666D01*
X47321428Y-128271428D02*
X47321428Y-129604761D01*
X46464285Y-128271428D02*
X46464285Y-129319047D01*
X46559523Y-129509523D01*
X46750000Y-129604761D01*
X47035714Y-129604761D01*
X47226190Y-129509523D01*
X47321428Y-129414285D01*
X49130952Y-129604761D02*
X49130952Y-128557142D01*
X49035714Y-128366666D01*
X48845238Y-128271428D01*
X48464285Y-128271428D01*
X48273809Y-128366666D01*
X49130952Y-129509523D02*
X48940476Y-129604761D01*
X48464285Y-129604761D01*
X48273809Y-129509523D01*
X48178571Y-129319047D01*
X48178571Y-129128571D01*
X48273809Y-128938095D01*
X48464285Y-128842857D01*
X48940476Y-128842857D01*
X49130952Y-128747619D01*
X50083333Y-129604761D02*
X50083333Y-128271428D01*
X50083333Y-128652380D02*
X50178571Y-128461904D01*
X50273809Y-128366666D01*
X50464285Y-128271428D01*
X50654761Y-128271428D01*
X52083333Y-129509523D02*
X51892857Y-129604761D01*
X51511904Y-129604761D01*
X51321428Y-129509523D01*
X51226190Y-129319047D01*
X51226190Y-128557142D01*
X51321428Y-128366666D01*
X51511904Y-128271428D01*
X51892857Y-128271428D01*
X52083333Y-128366666D01*
X52178571Y-128557142D01*
X52178571Y-128747619D01*
X51226190Y-128938095D01*
X53702380Y-128557142D02*
X53988095Y-128652380D01*
X54083333Y-128747619D01*
X54178571Y-128938095D01*
X54178571Y-129223809D01*
X54083333Y-129414285D01*
X53988095Y-129509523D01*
X53797619Y-129604761D01*
X53035714Y-129604761D01*
X53035714Y-127604761D01*
X53702380Y-127604761D01*
X53892857Y-127700000D01*
X53988095Y-127795238D01*
X54083333Y-127985714D01*
X54083333Y-128176190D01*
X53988095Y-128366666D01*
X53892857Y-128461904D01*
X53702380Y-128557142D01*
X53035714Y-128557142D01*
X55321428Y-129604761D02*
X55130952Y-129509523D01*
X55035714Y-129414285D01*
X54940476Y-129223809D01*
X54940476Y-128652380D01*
X55035714Y-128461904D01*
X55130952Y-128366666D01*
X55321428Y-128271428D01*
X55607142Y-128271428D01*
X55797619Y-128366666D01*
X55892857Y-128461904D01*
X55988095Y-128652380D01*
X55988095Y-129223809D01*
X55892857Y-129414285D01*
X55797619Y-129509523D01*
X55607142Y-129604761D01*
X55321428Y-129604761D01*
X56845238Y-129604761D02*
X56845238Y-128271428D01*
X56845238Y-127604761D02*
X56750000Y-127700000D01*
X56845238Y-127795238D01*
X56940476Y-127700000D01*
X56845238Y-127604761D01*
X56845238Y-127795238D01*
X59035714Y-127604761D02*
X59702380Y-129604761D01*
X60369047Y-127604761D01*
X60940476Y-127795238D02*
X61035714Y-127700000D01*
X61226190Y-127604761D01*
X61702380Y-127604761D01*
X61892857Y-127700000D01*
X61988095Y-127795238D01*
X62083333Y-127985714D01*
X62083333Y-128176190D01*
X61988095Y-128461904D01*
X60845238Y-129604761D01*
X62083333Y-129604761D01*
X62940476Y-129414285D02*
X63035714Y-129509523D01*
X62940476Y-129604761D01*
X62845238Y-129509523D01*
X62940476Y-129414285D01*
X62940476Y-129604761D01*
X64273809Y-127604761D02*
X64464285Y-127604761D01*
X64654761Y-127700000D01*
X64749999Y-127795238D01*
X64845238Y-127985714D01*
X64940476Y-128366666D01*
X64940476Y-128842857D01*
X64845238Y-129223809D01*
X64749999Y-129414285D01*
X64654761Y-129509523D01*
X64464285Y-129604761D01*
X64273809Y-129604761D01*
X64083333Y-129509523D01*
X63988095Y-129414285D01*
X63892857Y-129223809D01*
X63797619Y-128842857D01*
X63797619Y-128366666D01*
X63892857Y-127985714D01*
X63988095Y-127795238D01*
X64083333Y-127700000D01*
X64273809Y-127604761D01*
X66845238Y-129604761D02*
X65702380Y-129604761D01*
X66273809Y-129604761D02*
X66273809Y-127604761D01*
X66083333Y-127890476D01*
X65892857Y-128080952D01*
X65702380Y-128176190D01*
X46654761Y-132904761D02*
X46654761Y-130904761D01*
X47321428Y-132333333D01*
X47988095Y-130904761D01*
X47988095Y-132904761D01*
X49607142Y-131857142D02*
X49892857Y-131952380D01*
X49988095Y-132047619D01*
X50083333Y-132238095D01*
X50083333Y-132523809D01*
X49988095Y-132714285D01*
X49892857Y-132809523D01*
X49702380Y-132904761D01*
X48940476Y-132904761D01*
X48940476Y-130904761D01*
X49607142Y-130904761D01*
X49797619Y-131000000D01*
X49892857Y-131095238D01*
X49988095Y-131285714D01*
X49988095Y-131476190D01*
X49892857Y-131666666D01*
X49797619Y-131761904D01*
X49607142Y-131857142D01*
X48940476Y-131857142D01*
X52083333Y-132714285D02*
X51988095Y-132809523D01*
X51702380Y-132904761D01*
X51511904Y-132904761D01*
X51226190Y-132809523D01*
X51035714Y-132619047D01*
X50940476Y-132428571D01*
X50845238Y-132047619D01*
X50845238Y-131761904D01*
X50940476Y-131380952D01*
X51035714Y-131190476D01*
X51226190Y-131000000D01*
X51511904Y-130904761D01*
X51702380Y-130904761D01*
X51988095Y-131000000D01*
X52083333Y-131095238D01*
X55416666Y-130904761D02*
X54464285Y-130904761D01*
X54369047Y-131857142D01*
X54464285Y-131761904D01*
X54654761Y-131666666D01*
X55130952Y-131666666D01*
X55321428Y-131761904D01*
X55416666Y-131857142D01*
X55511904Y-132047619D01*
X55511904Y-132523809D01*
X55416666Y-132714285D01*
X55321428Y-132809523D01*
X55130952Y-132904761D01*
X54654761Y-132904761D01*
X54464285Y-132809523D01*
X54369047Y-132714285D01*
X57892857Y-132142857D02*
X59416666Y-132142857D01*
X58654761Y-132904761D02*
X58654761Y-131380952D01*
X62940476Y-132904761D02*
X61797619Y-132904761D01*
X62369047Y-132904761D02*
X62369047Y-130904761D01*
X62178571Y-131190476D01*
X61988095Y-131380952D01*
X61797619Y-131476190D01*
X45892857Y-135633333D02*
X46845238Y-135633333D01*
X45702380Y-136204761D02*
X46369047Y-134204761D01*
X47035714Y-136204761D01*
X48654761Y-136204761D02*
X47702380Y-136204761D01*
X47702380Y-134204761D01*
X49130952Y-134204761D02*
X50464285Y-136204761D01*
X50464285Y-134204761D02*
X49130952Y-136204761D01*
X52369047Y-136014285D02*
X52273809Y-136109523D01*
X51988095Y-136204761D01*
X51797619Y-136204761D01*
X51511904Y-136109523D01*
X51321428Y-135919047D01*
X51226190Y-135728571D01*
X51130952Y-135347619D01*
X51130952Y-135061904D01*
X51226190Y-134680952D01*
X51321428Y-134490476D01*
X51511904Y-134300000D01*
X51797619Y-134204761D01*
X51988095Y-134204761D01*
X52273809Y-134300000D01*
X52369047Y-134395238D01*
X53607142Y-134204761D02*
X53988095Y-134204761D01*
X54178571Y-134300000D01*
X54369047Y-134490476D01*
X54464285Y-134871428D01*
X54464285Y-135538095D01*
X54369047Y-135919047D01*
X54178571Y-136109523D01*
X53988095Y-136204761D01*
X53607142Y-136204761D01*
X53416666Y-136109523D01*
X53226190Y-135919047D01*
X53130952Y-135538095D01*
X53130952Y-134871428D01*
X53226190Y-134490476D01*
X53416666Y-134300000D01*
X53607142Y-134204761D01*
X56750000Y-134395238D02*
X56845238Y-134300000D01*
X57035714Y-134204761D01*
X57511904Y-134204761D01*
X57702380Y-134300000D01*
X57797619Y-134395238D01*
X57892857Y-134585714D01*
X57892857Y-134776190D01*
X57797619Y-135061904D01*
X56654761Y-136204761D01*
X57892857Y-136204761D01*
X59130952Y-134204761D02*
X59321428Y-134204761D01*
X59511904Y-134300000D01*
X59607142Y-134395238D01*
X59702380Y-134585714D01*
X59797619Y-134966666D01*
X59797619Y-135442857D01*
X59702380Y-135823809D01*
X59607142Y-136014285D01*
X59511904Y-136109523D01*
X59321428Y-136204761D01*
X59130952Y-136204761D01*
X58940476Y-136109523D01*
X58845238Y-136014285D01*
X58750000Y-135823809D01*
X58654761Y-135442857D01*
X58654761Y-134966666D01*
X58750000Y-134585714D01*
X58845238Y-134395238D01*
X58940476Y-134300000D01*
X59130952Y-134204761D01*
X60559523Y-134395238D02*
X60654761Y-134300000D01*
X60845238Y-134204761D01*
X61321428Y-134204761D01*
X61511904Y-134300000D01*
X61607142Y-134395238D01*
X61702380Y-134585714D01*
X61702380Y-134776190D01*
X61607142Y-135061904D01*
X60464285Y-136204761D01*
X61702380Y-136204761D01*
X62464285Y-134395238D02*
X62559523Y-134300000D01*
X62750000Y-134204761D01*
X63226190Y-134204761D01*
X63416666Y-134300000D01*
X63511904Y-134395238D01*
X63607142Y-134585714D01*
X63607142Y-134776190D01*
X63511904Y-135061904D01*
X62369047Y-136204761D01*
X63607142Y-136204761D01*
D13*
X25890000Y-72280000D02*
X19870000Y-72280000D01*
X19870000Y-72280000D02*
X19870000Y-80120000D01*
X19870000Y-80120000D02*
X25890000Y-80120000D01*
X25890000Y-80120000D02*
X25890000Y-72280000D01*
X24860000Y-71990000D02*
X20860000Y-71990000D01*
X19870000Y-73660000D02*
X20870000Y-73660000D01*
X20870000Y-73660000D02*
X20870000Y-78740000D01*
X20870000Y-78740000D02*
X19870000Y-78740000D01*
X20870000Y-73660000D02*
X21400000Y-73910000D01*
X21400000Y-73910000D02*
X21400000Y-78490000D01*
X21400000Y-78490000D02*
X20870000Y-78740000D01*
X19870000Y-73910000D02*
X20870000Y-73910000D01*
X19870000Y-78490000D02*
X20870000Y-78490000D01*
X25890000Y-72860000D02*
X25290000Y-72860000D01*
X25290000Y-72860000D02*
X25290000Y-74460000D01*
X25290000Y-74460000D02*
X25890000Y-74460000D01*
X25890000Y-75400000D02*
X25290000Y-75400000D01*
X25290000Y-75400000D02*
X25290000Y-77000000D01*
X25290000Y-77000000D02*
X25890000Y-77000000D01*
X25890000Y-77940000D02*
X25290000Y-77940000D01*
X25290000Y-77940000D02*
X25290000Y-79540000D01*
X25290000Y-79540000D02*
X25890000Y-79540000D01*
X24955000Y-45085000D02*
X24955000Y-45085000D01*
X24825000Y-45085000D02*
X24955000Y-45085000D01*
X24825000Y-45085000D02*
X24825000Y-45085000D01*
X24955000Y-45085000D02*
X24825000Y-45085000D01*
X24955000Y-42545000D02*
X24955000Y-42545000D01*
X24825000Y-42545000D02*
X24955000Y-42545000D01*
X24825000Y-42545000D02*
X24825000Y-42545000D01*
X24955000Y-42545000D02*
X24825000Y-42545000D01*
X24825000Y-45375000D02*
X24825000Y-45775000D01*
X23705000Y-45375000D02*
X24825000Y-45375000D01*
X23705000Y-45775000D02*
X23705000Y-45375000D01*
X24825000Y-45775000D02*
X23705000Y-45775000D01*
X24825000Y-42255000D02*
X24825000Y-45375000D01*
X24825000Y-45375000D02*
X20965000Y-45375000D01*
X24825000Y-42255000D02*
X20965000Y-42255000D01*
X20965000Y-45375000D02*
G75*
G02*
X20965000Y-42255000I0J1560000D01*
G01*
X31980000Y-39370000D02*
X31210000Y-39370000D01*
X23900000Y-39370000D02*
X24670000Y-39370000D01*
X31210000Y-38000000D02*
X24670000Y-38000000D01*
X31210000Y-40740000D02*
X31210000Y-38000000D01*
X24670000Y-40740000D02*
X31210000Y-40740000D01*
X24670000Y-38000000D02*
X24670000Y-40740000D01*
X79780000Y-77470000D02*
X80550000Y-77470000D01*
X87860000Y-77470000D02*
X87090000Y-77470000D01*
X80550000Y-78840000D02*
X87090000Y-78840000D01*
X80550000Y-76100000D02*
X80550000Y-78840000D01*
X87090000Y-76100000D02*
X80550000Y-76100000D01*
X87090000Y-78840000D02*
X87090000Y-76100000D01*
X87860000Y-62230000D02*
X87090000Y-62230000D01*
X79780000Y-62230000D02*
X80550000Y-62230000D01*
X87090000Y-60860000D02*
X80550000Y-60860000D01*
X87090000Y-63600000D02*
X87090000Y-60860000D01*
X80550000Y-63600000D02*
X87090000Y-63600000D01*
X80550000Y-60860000D02*
X80550000Y-63600000D01*
X79780000Y-66040000D02*
X80550000Y-66040000D01*
X87860000Y-66040000D02*
X87090000Y-66040000D01*
X80550000Y-67410000D02*
X87090000Y-67410000D01*
X80550000Y-64670000D02*
X80550000Y-67410000D01*
X87090000Y-64670000D02*
X80550000Y-64670000D01*
X87090000Y-67410000D02*
X87090000Y-64670000D01*
X79780000Y-73660000D02*
X80550000Y-73660000D01*
X87860000Y-73660000D02*
X87090000Y-73660000D01*
X80550000Y-75030000D02*
X87090000Y-75030000D01*
X80550000Y-72290000D02*
X80550000Y-75030000D01*
X87090000Y-72290000D02*
X80550000Y-72290000D01*
X87090000Y-75030000D02*
X87090000Y-72290000D01*
X79780000Y-69850000D02*
X80550000Y-69850000D01*
X87860000Y-69850000D02*
X87090000Y-69850000D01*
X80550000Y-71220000D02*
X87090000Y-71220000D01*
X80550000Y-68480000D02*
X80550000Y-71220000D01*
X87090000Y-68480000D02*
X80550000Y-68480000D01*
X87090000Y-71220000D02*
X87090000Y-68480000D01*
X79780000Y-58420000D02*
X80550000Y-58420000D01*
X87860000Y-58420000D02*
X87090000Y-58420000D01*
X80550000Y-59790000D02*
X87090000Y-59790000D01*
X80550000Y-57050000D02*
X80550000Y-59790000D01*
X87090000Y-57050000D02*
X80550000Y-57050000D01*
X87090000Y-59790000D02*
X87090000Y-57050000D01*
X30480000Y-25170000D02*
X30480000Y-25940000D01*
X30480000Y-33250000D02*
X30480000Y-32480000D01*
X29110000Y-25940000D02*
X29110000Y-32480000D01*
X31850000Y-25940000D02*
X29110000Y-25940000D01*
X31850000Y-32480000D02*
X31850000Y-25940000D01*
X29110000Y-32480000D02*
X31850000Y-32480000D01*
X43180000Y-33250000D02*
X43180000Y-32480000D01*
X43180000Y-25170000D02*
X43180000Y-25940000D01*
X44550000Y-32480000D02*
X44550000Y-25940000D01*
X41810000Y-32480000D02*
X44550000Y-32480000D01*
X41810000Y-25940000D02*
X41810000Y-32480000D01*
X44550000Y-25940000D02*
X41810000Y-25940000D01*
X36370000Y-23750000D02*
X34750000Y-23750000D01*
X36370000Y-21890000D02*
X34750000Y-21890000D01*
X34750000Y-21890000D02*
X34750000Y-23750000D01*
X36370000Y-21890000D02*
X36370000Y-23750000D01*
X38910000Y-23750000D02*
X37290000Y-23750000D01*
X38910000Y-21890000D02*
X37290000Y-21890000D01*
X37290000Y-21890000D02*
X37290000Y-23750000D01*
X38910000Y-21890000D02*
X38910000Y-23750000D01*
X40450000Y-23510000D02*
X39067000Y-23510000D01*
X40450000Y-23510000D02*
X40450000Y-24893000D01*
X40210000Y-34670000D02*
X33450000Y-34670000D01*
X40210000Y-23750000D02*
X33450000Y-23750000D01*
X33450000Y-23750000D02*
X33450000Y-34670000D01*
X40210000Y-23750000D02*
X40210000Y-34670000D01*
X91040000Y-50300000D02*
X90040000Y-50800000D01*
X91040000Y-51300000D02*
X91040000Y-50300000D01*
X90040000Y-50800000D02*
X91040000Y-51300000D01*
X88340000Y-43670000D02*
X89650000Y-43670000D01*
X88340000Y-43670000D02*
X88340000Y-43670000D01*
X88340000Y-36730000D02*
X88340000Y-43670000D01*
X81840000Y-36730000D02*
X88340000Y-36730000D01*
X81840000Y-54710000D02*
X81840000Y-36730000D01*
X88340000Y-54710000D02*
X81840000Y-54710000D01*
X88340000Y-47770000D02*
X88340000Y-54710000D01*
X89650000Y-47770000D02*
X88340000Y-47770000D01*
X89650000Y-35430000D02*
X89650000Y-56010000D01*
X80530000Y-35430000D02*
X89650000Y-35430000D01*
X80530000Y-56010000D02*
X80530000Y-35430000D01*
X89650000Y-56010000D02*
X80530000Y-56010000D01*
X74930000Y-87690000D02*
X73600000Y-87690000D01*
X73600000Y-87690000D02*
X73600000Y-86360000D01*
X73600000Y-85090000D02*
X73600000Y-52010000D01*
X76260000Y-52010000D02*
X73600000Y-52010000D01*
X76260000Y-85090000D02*
X76260000Y-52010000D01*
X76260000Y-85090000D02*
X73600000Y-85090000D01*
X57150000Y-52010000D02*
X58480000Y-52010000D01*
X58480000Y-52010000D02*
X58480000Y-53340000D01*
X58480000Y-54610000D02*
X58480000Y-87690000D01*
X55820000Y-87690000D02*
X58480000Y-87690000D01*
X55820000Y-54610000D02*
X55820000Y-87690000D01*
X55820000Y-54610000D02*
X58480000Y-54610000D01*
X41970000Y-43180000D02*
X41970000Y-44510000D01*
X41970000Y-44510000D02*
X40640000Y-44510000D01*
X39370000Y-44510000D02*
X31690000Y-44510000D01*
X31690000Y-41850000D02*
X31690000Y-44510000D01*
X39370000Y-41850000D02*
X31690000Y-41850000D01*
X39370000Y-41850000D02*
X39370000Y-44510000D01*
X33020000Y-46930000D02*
X34350000Y-46930000D01*
X34350000Y-46930000D02*
X34350000Y-48260000D01*
X34350000Y-49530000D02*
X34350000Y-87690000D01*
X31690000Y-87690000D02*
X34350000Y-87690000D01*
X31690000Y-49530000D02*
X31690000Y-87690000D01*
X31690000Y-49530000D02*
X34350000Y-49530000D01*
D14*
G36*
X58064658Y-99977964D02*
G01*
X58363344Y-99997068D01*
X58769448Y-100039045D01*
X59163975Y-100103705D01*
X59470319Y-100178135D01*
X59504025Y-100189377D01*
X59754162Y-100292218D01*
X59892679Y-100413957D01*
X59977665Y-100618392D01*
X60012183Y-100747477D01*
X60163644Y-101546333D01*
X60254544Y-102505756D01*
X60284917Y-103627022D01*
X60254795Y-104911409D01*
X60164213Y-106360192D01*
X60160170Y-106411111D01*
X60106148Y-107075391D01*
X60060578Y-107597468D01*
X60019221Y-108011069D01*
X59977841Y-108349922D01*
X59932200Y-108647756D01*
X59878061Y-108938298D01*
X59811187Y-109255278D01*
X59791768Y-109343576D01*
X59692346Y-109709935D01*
X59594336Y-109905185D01*
X59534945Y-109938889D01*
X59468698Y-109898228D01*
X59428894Y-109756840D01*
X59410066Y-109485615D01*
X59406594Y-109255382D01*
X59395348Y-108790804D01*
X59367387Y-108211058D01*
X59325966Y-107556022D01*
X59274344Y-106865571D01*
X59215779Y-106179584D01*
X59153527Y-105537936D01*
X59090846Y-104980504D01*
X59030993Y-104547166D01*
X59013641Y-104444916D01*
X58923649Y-103969337D01*
X58845209Y-103637711D01*
X58762781Y-103419691D01*
X58660822Y-103284934D01*
X58523792Y-103203096D01*
X58349037Y-103147283D01*
X57986163Y-103049572D01*
X58046905Y-102273099D01*
X58055337Y-101673722D01*
X57995877Y-101073685D01*
X57877441Y-100530947D01*
X57714718Y-100114196D01*
X57681501Y-100033495D01*
X57708462Y-99987553D01*
X57826036Y-99970875D01*
X58064658Y-99977964D01*
G37*
X58064658Y-99977964D02*
X58363344Y-99997068D01*
X58769448Y-100039045D01*
X59163975Y-100103705D01*
X59470319Y-100178135D01*
X59504025Y-100189377D01*
X59754162Y-100292218D01*
X59892679Y-100413957D01*
X59977665Y-100618392D01*
X60012183Y-100747477D01*
X60163644Y-101546333D01*
X60254544Y-102505756D01*
X60284917Y-103627022D01*
X60254795Y-104911409D01*
X60164213Y-106360192D01*
X60160170Y-106411111D01*
X60106148Y-107075391D01*
X60060578Y-107597468D01*
X60019221Y-108011069D01*
X59977841Y-108349922D01*
X59932200Y-108647756D01*
X59878061Y-108938298D01*
X59811187Y-109255278D01*
X59791768Y-109343576D01*
X59692346Y-109709935D01*
X59594336Y-109905185D01*
X59534945Y-109938889D01*
X59468698Y-109898228D01*
X59428894Y-109756840D01*
X59410066Y-109485615D01*
X59406594Y-109255382D01*
X59395348Y-108790804D01*
X59367387Y-108211058D01*
X59325966Y-107556022D01*
X59274344Y-106865571D01*
X59215779Y-106179584D01*
X59153527Y-105537936D01*
X59090846Y-104980504D01*
X59030993Y-104547166D01*
X59013641Y-104444916D01*
X58923649Y-103969337D01*
X58845209Y-103637711D01*
X58762781Y-103419691D01*
X58660822Y-103284934D01*
X58523792Y-103203096D01*
X58349037Y-103147283D01*
X57986163Y-103049572D01*
X58046905Y-102273099D01*
X58055337Y-101673722D01*
X57995877Y-101073685D01*
X57877441Y-100530947D01*
X57714718Y-100114196D01*
X57681501Y-100033495D01*
X57708462Y-99987553D01*
X57826036Y-99970875D01*
X58064658Y-99977964D01*
G36*
X52142041Y-100480035D02*
G01*
X52057110Y-100747540D01*
X52003371Y-101020931D01*
X51975324Y-101349415D01*
X51967471Y-101782206D01*
X51969101Y-102027690D01*
X51980911Y-103068228D01*
X51732744Y-103117861D01*
X51488461Y-103203706D01*
X51304212Y-103367363D01*
X51164122Y-103635773D01*
X51052319Y-104035875D01*
X50986436Y-104384441D01*
X50926281Y-104806748D01*
X50862561Y-105363574D01*
X50798643Y-106013185D01*
X50737893Y-106713846D01*
X50683680Y-107423826D01*
X50639371Y-108101388D01*
X50608333Y-108704800D01*
X50593934Y-109192329D01*
X50593406Y-109255382D01*
X50582308Y-109577346D01*
X50555689Y-109817722D01*
X50518774Y-109934113D01*
X50509171Y-109938889D01*
X50437747Y-109862549D01*
X50344866Y-109667620D01*
X50291501Y-109519965D01*
X50235094Y-109280808D01*
X50169898Y-108895461D01*
X50099254Y-108393703D01*
X50026506Y-107805316D01*
X49954994Y-107160080D01*
X49888063Y-106487775D01*
X49829053Y-105818183D01*
X49781307Y-105181083D01*
X49754531Y-104735417D01*
X49740422Y-104191409D01*
X49747059Y-103563257D01*
X49771819Y-102895802D01*
X49812076Y-102233883D01*
X49865207Y-101622342D01*
X49928586Y-101106018D01*
X49985513Y-100788927D01*
X50089560Y-100323995D01*
X50657889Y-100148456D01*
X51062391Y-100051797D01*
X51504720Y-99988040D01*
X51776504Y-99972917D01*
X52326790Y-99972917D01*
X52142041Y-100480035D01*
G37*
X52142041Y-100480035D02*
X52057110Y-100747540D01*
X52003371Y-101020931D01*
X51975324Y-101349415D01*
X51967471Y-101782206D01*
X51969101Y-102027690D01*
X51980911Y-103068228D01*
X51732744Y-103117861D01*
X51488461Y-103203706D01*
X51304212Y-103367363D01*
X51164122Y-103635773D01*
X51052319Y-104035875D01*
X50986436Y-104384441D01*
X50926281Y-104806748D01*
X50862561Y-105363574D01*
X50798643Y-106013185D01*
X50737893Y-106713846D01*
X50683680Y-107423826D01*
X50639371Y-108101388D01*
X50608333Y-108704800D01*
X50593934Y-109192329D01*
X50593406Y-109255382D01*
X50582308Y-109577346D01*
X50555689Y-109817722D01*
X50518774Y-109934113D01*
X50509171Y-109938889D01*
X50437747Y-109862549D01*
X50344866Y-109667620D01*
X50291501Y-109519965D01*
X50235094Y-109280808D01*
X50169898Y-108895461D01*
X50099254Y-108393703D01*
X50026506Y-107805316D01*
X49954994Y-107160080D01*
X49888063Y-106487775D01*
X49829053Y-105818183D01*
X49781307Y-105181083D01*
X49754531Y-104735417D01*
X49740422Y-104191409D01*
X49747059Y-103563257D01*
X49771819Y-102895802D01*
X49812076Y-102233883D01*
X49865207Y-101622342D01*
X49928586Y-101106018D01*
X49985513Y-100788927D01*
X50089560Y-100323995D01*
X50657889Y-100148456D01*
X51062391Y-100051797D01*
X51504720Y-99988040D01*
X51776504Y-99972917D01*
X52326790Y-99972917D01*
X52142041Y-100480035D01*
G36*
X58261910Y-107778125D02*
G01*
X58232877Y-107937441D01*
X58160980Y-108195357D01*
X58067152Y-108486028D01*
X57972325Y-108743607D01*
X57912965Y-108875793D01*
X57852280Y-109028954D01*
X57885607Y-109069908D01*
X57989606Y-109018138D01*
X58140939Y-108893128D01*
X58316267Y-108714360D01*
X58492251Y-108501317D01*
X58645554Y-108273482D01*
X58655917Y-108255588D01*
X58878431Y-107866319D01*
X58879493Y-108263777D01*
X58859734Y-108590699D01*
X58809416Y-108902762D01*
X58793869Y-108963491D01*
X58738011Y-109206436D01*
X58749707Y-109293115D01*
X58820747Y-109226549D01*
X58942920Y-109009759D01*
X59001807Y-108886975D01*
X59145956Y-108624193D01*
X59249043Y-108531725D01*
X59301903Y-108606828D01*
X59295372Y-108846762D01*
X59277322Y-108969390D01*
X59121199Y-109412828D01*
X58822084Y-109754952D01*
X58384105Y-109991758D01*
X58152951Y-110060484D01*
X57979302Y-110087332D01*
X57910417Y-110069929D01*
X57947188Y-109970515D01*
X58041911Y-109765895D01*
X58130903Y-109586111D01*
X58252803Y-109334576D01*
X58332876Y-109148300D01*
X58351389Y-109085611D01*
X58294741Y-109105685D01*
X58147477Y-109223762D01*
X57976562Y-109381059D01*
X57671256Y-109651813D01*
X57414751Y-109836224D01*
X57225229Y-109927224D01*
X57120873Y-109917743D01*
X57119866Y-109800714D01*
X57165517Y-109696354D01*
X57272078Y-109431413D01*
X57347188Y-109145139D01*
X57446340Y-108872400D01*
X57617804Y-108605764D01*
X57647563Y-108571875D01*
X57865921Y-108306525D01*
X58065340Y-108018943D01*
X58077693Y-107998611D01*
X58190270Y-107828806D01*
X58255400Y-107765822D01*
X58261910Y-107778125D01*
G37*
X58261910Y-107778125D02*
X58232877Y-107937441D01*
X58160980Y-108195357D01*
X58067152Y-108486028D01*
X57972325Y-108743607D01*
X57912965Y-108875793D01*
X57852280Y-109028954D01*
X57885607Y-109069908D01*
X57989606Y-109018138D01*
X58140939Y-108893128D01*
X58316267Y-108714360D01*
X58492251Y-108501317D01*
X58645554Y-108273482D01*
X58655917Y-108255588D01*
X58878431Y-107866319D01*
X58879493Y-108263777D01*
X58859734Y-108590699D01*
X58809416Y-108902762D01*
X58793869Y-108963491D01*
X58738011Y-109206436D01*
X58749707Y-109293115D01*
X58820747Y-109226549D01*
X58942920Y-109009759D01*
X59001807Y-108886975D01*
X59145956Y-108624193D01*
X59249043Y-108531725D01*
X59301903Y-108606828D01*
X59295372Y-108846762D01*
X59277322Y-108969390D01*
X59121199Y-109412828D01*
X58822084Y-109754952D01*
X58384105Y-109991758D01*
X58152951Y-110060484D01*
X57979302Y-110087332D01*
X57910417Y-110069929D01*
X57947188Y-109970515D01*
X58041911Y-109765895D01*
X58130903Y-109586111D01*
X58252803Y-109334576D01*
X58332876Y-109148300D01*
X58351389Y-109085611D01*
X58294741Y-109105685D01*
X58147477Y-109223762D01*
X57976562Y-109381059D01*
X57671256Y-109651813D01*
X57414751Y-109836224D01*
X57225229Y-109927224D01*
X57120873Y-109917743D01*
X57119866Y-109800714D01*
X57165517Y-109696354D01*
X57272078Y-109431413D01*
X57347188Y-109145139D01*
X57446340Y-108872400D01*
X57617804Y-108605764D01*
X57647563Y-108571875D01*
X57865921Y-108306525D01*
X58065340Y-108018943D01*
X58077693Y-107998611D01*
X58190270Y-107828806D01*
X58255400Y-107765822D01*
X58261910Y-107778125D01*
G36*
X51194252Y-107822793D02*
G01*
X51287023Y-108051335D01*
X51415352Y-108319092D01*
X51432566Y-108351960D01*
X51596042Y-108660069D01*
X51655989Y-108395486D01*
X51699174Y-108245018D01*
X51725139Y-108228472D01*
X51726371Y-108237229D01*
X51779365Y-108371075D01*
X51900120Y-108581133D01*
X51957292Y-108668460D01*
X52092722Y-108862010D01*
X52156921Y-108919860D01*
X52176451Y-108853107D01*
X52177778Y-108760571D01*
X52206508Y-108589028D01*
X52265972Y-108527778D01*
X52332176Y-108603279D01*
X52354167Y-108749127D01*
X52419330Y-108976394D01*
X52530556Y-109121505D01*
X52663737Y-109266641D01*
X52707488Y-109363177D01*
X52745780Y-109500384D01*
X52834549Y-109696354D01*
X52906946Y-109873952D01*
X52872270Y-109937380D01*
X52856054Y-109938559D01*
X52679712Y-109882744D01*
X52433130Y-109740683D01*
X52172331Y-109549297D01*
X51953339Y-109345508D01*
X51949177Y-109340900D01*
X51733641Y-109101042D01*
X51791698Y-109365625D01*
X51879079Y-109652776D01*
X51971934Y-109872743D01*
X52045946Y-110040831D01*
X52024967Y-110103074D01*
X51937508Y-110108315D01*
X51742637Y-110074752D01*
X51516319Y-110009117D01*
X51265482Y-109882134D01*
X51019941Y-109700762D01*
X51009201Y-109690899D01*
X50888165Y-109565630D01*
X50816714Y-109436746D01*
X50782803Y-109255775D01*
X50774386Y-108974245D01*
X50776330Y-108753812D01*
X50782454Y-108414788D01*
X50791948Y-108237307D01*
X50808804Y-108206525D01*
X50837017Y-108307596D01*
X50862597Y-108433187D01*
X50923393Y-108679738D01*
X50987083Y-108844677D01*
X51009715Y-108874160D01*
X51098560Y-108984532D01*
X51190758Y-109145139D01*
X51252350Y-109248909D01*
X51253711Y-109205144D01*
X51250313Y-109193254D01*
X51217333Y-109023635D01*
X51189459Y-108777903D01*
X51168315Y-108495795D01*
X51155527Y-108217050D01*
X51152720Y-107981405D01*
X51161521Y-107828600D01*
X51183554Y-107798372D01*
X51194252Y-107822793D01*
G37*
X51194252Y-107822793D02*
X51287023Y-108051335D01*
X51415352Y-108319092D01*
X51432566Y-108351960D01*
X51596042Y-108660069D01*
X51655989Y-108395486D01*
X51699174Y-108245018D01*
X51725139Y-108228472D01*
X51726371Y-108237229D01*
X51779365Y-108371075D01*
X51900120Y-108581133D01*
X51957292Y-108668460D01*
X52092722Y-108862010D01*
X52156921Y-108919860D01*
X52176451Y-108853107D01*
X52177778Y-108760571D01*
X52206508Y-108589028D01*
X52265972Y-108527778D01*
X52332176Y-108603279D01*
X52354167Y-108749127D01*
X52419330Y-108976394D01*
X52530556Y-109121505D01*
X52663737Y-109266641D01*
X52707488Y-109363177D01*
X52745780Y-109500384D01*
X52834549Y-109696354D01*
X52906946Y-109873952D01*
X52872270Y-109937380D01*
X52856054Y-109938559D01*
X52679712Y-109882744D01*
X52433130Y-109740683D01*
X52172331Y-109549297D01*
X51953339Y-109345508D01*
X51949177Y-109340900D01*
X51733641Y-109101042D01*
X51791698Y-109365625D01*
X51879079Y-109652776D01*
X51971934Y-109872743D01*
X52045946Y-110040831D01*
X52024967Y-110103074D01*
X51937508Y-110108315D01*
X51742637Y-110074752D01*
X51516319Y-110009117D01*
X51265482Y-109882134D01*
X51019941Y-109700762D01*
X51009201Y-109690899D01*
X50888165Y-109565630D01*
X50816714Y-109436746D01*
X50782803Y-109255775D01*
X50774386Y-108974245D01*
X50776330Y-108753812D01*
X50782454Y-108414788D01*
X50791948Y-108237307D01*
X50808804Y-108206525D01*
X50837017Y-108307596D01*
X50862597Y-108433187D01*
X50923393Y-108679738D01*
X50987083Y-108844677D01*
X51009715Y-108874160D01*
X51098560Y-108984532D01*
X51190758Y-109145139D01*
X51252350Y-109248909D01*
X51253711Y-109205144D01*
X51250313Y-109193254D01*
X51217333Y-109023635D01*
X51189459Y-108777903D01*
X51168315Y-108495795D01*
X51155527Y-108217050D01*
X51152720Y-107981405D01*
X51161521Y-107828600D01*
X51183554Y-107798372D01*
X51194252Y-107822793D01*
G36*
X56770043Y-99860590D02*
G01*
X57019083Y-99910950D01*
X57228444Y-100016656D01*
X57284766Y-100055208D01*
X57578427Y-100363253D01*
X57799895Y-100795257D01*
X57938554Y-101309884D01*
X57983787Y-101865803D01*
X57924978Y-102421679D01*
X57909844Y-102488846D01*
X57837141Y-102740892D01*
X57768075Y-102896949D01*
X57729376Y-102924555D01*
X57742671Y-102972276D01*
X57835908Y-103135056D01*
X57990712Y-103381507D01*
X58051585Y-103474948D01*
X58274068Y-103844012D01*
X58381234Y-104101743D01*
X58386407Y-104246476D01*
X58283608Y-104516662D01*
X58134265Y-104744743D01*
X57909363Y-104958245D01*
X57579885Y-105184691D01*
X57116816Y-105451608D01*
X57114842Y-105452692D01*
X56727267Y-105665502D01*
X56374445Y-105859231D01*
X56097729Y-106011173D01*
X55948090Y-106093339D01*
X55749604Y-106274292D01*
X55717590Y-106499251D01*
X55851393Y-106755816D01*
X55990809Y-106901729D01*
X56126358Y-107016768D01*
X56158760Y-107025619D01*
X56123100Y-106977430D01*
X55985383Y-106684921D01*
X56007902Y-106357379D01*
X56064984Y-106222296D01*
X56159674Y-106108241D01*
X56312177Y-106079451D01*
X56494762Y-106101663D01*
X56897838Y-106096175D01*
X57271538Y-105960743D01*
X57559757Y-105719182D01*
X57625783Y-105621584D01*
X57745424Y-105442478D01*
X57838591Y-105355021D01*
X57847113Y-105353335D01*
X57928046Y-105280865D01*
X57992823Y-105154340D01*
X58069546Y-104955903D01*
X58160780Y-105176389D01*
X58218476Y-105300517D01*
X58246012Y-105288906D01*
X58256086Y-105123886D01*
X58257604Y-105041672D01*
X58298002Y-104763016D01*
X58393265Y-104510080D01*
X58517397Y-104337770D01*
X58611397Y-104294444D01*
X58697431Y-104374807D01*
X58800611Y-104590131D01*
X58906885Y-104901767D01*
X59002206Y-105271069D01*
X59045589Y-105488807D01*
X59101660Y-105864079D01*
X59144156Y-106260632D01*
X59171167Y-106640085D01*
X59180781Y-106964054D01*
X59171087Y-107194157D01*
X59140175Y-107292013D01*
X59135414Y-107293055D01*
X59046453Y-107228848D01*
X58887043Y-107061128D01*
X58706217Y-106844164D01*
X58504751Y-106569994D01*
X58395414Y-106348113D01*
X58348872Y-106102908D01*
X58338422Y-105896073D01*
X58325456Y-105396875D01*
X58269555Y-105881944D01*
X58219596Y-106205882D01*
X58138138Y-106467179D01*
X57999256Y-106715516D01*
X57777026Y-107000575D01*
X57554306Y-107252639D01*
X57328032Y-107494428D01*
X57185649Y-107618272D01*
X57098511Y-107642050D01*
X57037972Y-107583643D01*
X57034186Y-107577274D01*
X56971951Y-107481037D01*
X56950915Y-107485771D01*
X56973837Y-107609988D01*
X57043473Y-107872198D01*
X57116667Y-108130903D01*
X57205294Y-108472977D01*
X57268624Y-108778785D01*
X57293054Y-108982560D01*
X57293055Y-108983662D01*
X57217276Y-109273199D01*
X57017363Y-109585143D01*
X56734450Y-109880266D01*
X56409672Y-110119341D01*
X56084166Y-110263138D01*
X55926042Y-110287293D01*
X55858029Y-110266518D01*
X55950253Y-110194256D01*
X56058074Y-110137189D01*
X56271220Y-109994244D01*
X56386853Y-109845957D01*
X56390301Y-109727655D01*
X56266891Y-109674666D01*
X56250325Y-109674306D01*
X56090460Y-109737251D01*
X55889064Y-109896131D01*
X55804265Y-109984484D01*
X55568934Y-110203267D01*
X55316652Y-110307509D01*
X55155719Y-110331457D01*
X54879736Y-110344130D01*
X54656584Y-110330307D01*
X54615097Y-110321552D01*
X54457640Y-110228745D01*
X54258569Y-110051527D01*
X54187038Y-109974579D01*
X53989588Y-109791169D01*
X53804739Y-109684932D01*
X53749675Y-109674306D01*
X53614968Y-109720217D01*
X53608348Y-109834402D01*
X53715143Y-109981532D01*
X53920680Y-110126281D01*
X53941926Y-110137189D01*
X54116024Y-110237020D01*
X54127826Y-110283023D01*
X54073958Y-110287293D01*
X53764653Y-110209601D01*
X53434365Y-110015927D01*
X53124230Y-109745498D01*
X52875382Y-109437544D01*
X52728957Y-109131292D01*
X52706944Y-108983662D01*
X52730994Y-108780497D01*
X52794023Y-108475290D01*
X52881761Y-108136400D01*
X52961990Y-107832508D01*
X53010579Y-107601069D01*
X53018100Y-107487816D01*
X53016129Y-107484647D01*
X52956594Y-107516685D01*
X52921109Y-107586408D01*
X52866357Y-107634482D01*
X52762970Y-107573215D01*
X52589871Y-107387216D01*
X52500109Y-107279009D01*
X52334893Y-107072569D01*
X53765278Y-107072569D01*
X53809375Y-107116667D01*
X53853472Y-107072569D01*
X53809375Y-107028472D01*
X53765278Y-107072569D01*
X52334893Y-107072569D01*
X52181789Y-106881265D01*
X51962937Y-106586489D01*
X51825833Y-106365816D01*
X51752756Y-106190379D01*
X51725989Y-106031314D01*
X51725242Y-106016725D01*
X51710212Y-105953146D01*
X51682044Y-106045052D01*
X51647674Y-106266496D01*
X51580052Y-106620430D01*
X51468008Y-106867420D01*
X51328509Y-107032867D01*
X51135633Y-107199732D01*
X50974686Y-107300738D01*
X50947459Y-107309774D01*
X50870819Y-107251238D01*
X50835367Y-107055178D01*
X50836374Y-106754377D01*
X50869110Y-106381617D01*
X50928844Y-105969682D01*
X51010848Y-105551355D01*
X51110391Y-105159418D01*
X51222743Y-104826655D01*
X51339702Y-104591096D01*
X51487610Y-104365360D01*
X51623484Y-104559347D01*
X51706505Y-104728317D01*
X51701936Y-104922930D01*
X51659887Y-105085337D01*
X51593680Y-105340977D01*
X51569486Y-105505809D01*
X51585301Y-105556654D01*
X51639126Y-105470335D01*
X51683445Y-105358102D01*
X51785894Y-105147533D01*
X51893388Y-105027474D01*
X51975137Y-105020925D01*
X52001389Y-105120560D01*
X52067126Y-105284814D01*
X52113749Y-105326347D01*
X52237469Y-105446781D01*
X52380956Y-105640157D01*
X52385192Y-105646776D01*
X52642457Y-105904432D01*
X52994070Y-106072030D01*
X53368290Y-106118900D01*
X53462185Y-106107201D01*
X53758988Y-106113714D01*
X53946317Y-106254510D01*
X54011009Y-106516098D01*
X53998712Y-106657086D01*
X53972003Y-106854070D01*
X53996884Y-106902845D01*
X54094742Y-106828982D01*
X54121955Y-106804457D01*
X54275762Y-106572381D01*
X54270091Y-106332098D01*
X54109449Y-106129373D01*
X54051910Y-106093339D01*
X53878844Y-105998309D01*
X53592516Y-105841090D01*
X53234280Y-105644388D01*
X52885158Y-105452692D01*
X52421547Y-105185577D01*
X52091634Y-104959032D01*
X51866402Y-104745534D01*
X51716836Y-104517556D01*
X51613919Y-104247574D01*
X51613593Y-104246476D01*
X51627068Y-104071823D01*
X51749937Y-103799486D01*
X51948415Y-103474948D01*
X52118930Y-103208292D01*
X52233363Y-103015318D01*
X52266443Y-102942822D01*
X54364736Y-102942822D01*
X54423842Y-102966696D01*
X54581076Y-102999332D01*
X54834039Y-103057107D01*
X54957622Y-103128390D01*
X54997349Y-103249530D01*
X55000000Y-103333846D01*
X54961830Y-103534520D01*
X54845660Y-103599120D01*
X54736965Y-103611438D01*
X54799594Y-103637472D01*
X54845660Y-103649684D01*
X54944613Y-103746761D01*
X54997947Y-103928845D01*
X55000959Y-104126445D01*
X54948948Y-104270071D01*
X54889757Y-104301407D01*
X54824765Y-104319135D01*
X54889757Y-104352854D01*
X54957570Y-104471351D01*
X55001332Y-104758640D01*
X55017524Y-105073495D01*
X55035048Y-105749653D01*
X55065878Y-105090768D01*
X55095750Y-104738885D01*
X55144130Y-104483214D01*
X55202694Y-104364515D01*
X55261117Y-104306945D01*
X55198437Y-104295795D01*
X55119565Y-104214480D01*
X55088264Y-103998714D01*
X55088194Y-103985764D01*
X55113167Y-103763736D01*
X55200577Y-103673877D01*
X55242535Y-103666853D01*
X55351229Y-103654534D01*
X55288600Y-103628500D01*
X55242535Y-103616289D01*
X55116049Y-103498819D01*
X55088194Y-103332620D01*
X55106051Y-103181904D01*
X55189815Y-103093815D01*
X55384782Y-103033293D01*
X55507118Y-103008358D01*
X55677832Y-102972187D01*
X55732120Y-102948371D01*
X55655015Y-102934169D01*
X55431548Y-102926844D01*
X55046750Y-102923657D01*
X55044097Y-102923645D01*
X54660473Y-102923649D01*
X54438816Y-102929257D01*
X54364736Y-102942822D01*
X52266443Y-102942822D01*
X52273547Y-102927254D01*
X52267464Y-102926509D01*
X52207597Y-102876182D01*
X52134419Y-102699820D01*
X52099777Y-102578600D01*
X52009908Y-101962179D01*
X52037397Y-101344041D01*
X52174483Y-100770222D01*
X52340452Y-100434382D01*
X54892464Y-100434382D01*
X54895067Y-100457986D01*
X54938620Y-100662031D01*
X54999042Y-100764007D01*
X55009649Y-100766667D01*
X55061574Y-100689107D01*
X55087519Y-100498402D01*
X55088194Y-100457986D01*
X55058088Y-100231094D01*
X54974078Y-100149307D01*
X54973612Y-100149306D01*
X54896900Y-100218207D01*
X54892464Y-100434382D01*
X52340452Y-100434382D01*
X52413405Y-100286761D01*
X52507179Y-100162141D01*
X52586401Y-100066589D01*
X52659563Y-99992803D01*
X52749029Y-99938011D01*
X52877160Y-99899439D01*
X53066319Y-99874314D01*
X53338868Y-99859862D01*
X53717168Y-99853312D01*
X54223584Y-99851889D01*
X54880476Y-99852820D01*
X55000000Y-99853001D01*
X55453989Y-99853027D01*
X55921928Y-99852054D01*
X56320931Y-99850279D01*
X56413753Y-99849628D01*
X56770043Y-99860590D01*
G37*
X56770043Y-99860590D02*
X57019083Y-99910950D01*
X57228444Y-100016656D01*
X57284766Y-100055208D01*
X57578427Y-100363253D01*
X57799895Y-100795257D01*
X57938554Y-101309884D01*
X57983787Y-101865803D01*
X57924978Y-102421679D01*
X57909844Y-102488846D01*
X57837141Y-102740892D01*
X57768075Y-102896949D01*
X57729376Y-102924555D01*
X57742671Y-102972276D01*
X57835908Y-103135056D01*
X57990712Y-103381507D01*
X58051585Y-103474948D01*
X58274068Y-103844012D01*
X58381234Y-104101743D01*
X58386407Y-104246476D01*
X58283608Y-104516662D01*
X58134265Y-104744743D01*
X57909363Y-104958245D01*
X57579885Y-105184691D01*
X57116816Y-105451608D01*
X57114842Y-105452692D01*
X56727267Y-105665502D01*
X56374445Y-105859231D01*
X56097729Y-106011173D01*
X55948090Y-106093339D01*
X55749604Y-106274292D01*
X55717590Y-106499251D01*
X55851393Y-106755816D01*
X55990809Y-106901729D01*
X56126358Y-107016768D01*
X56158760Y-107025619D01*
X56123100Y-106977430D01*
X55985383Y-106684921D01*
X56007902Y-106357379D01*
X56064984Y-106222296D01*
X56159674Y-106108241D01*
X56312177Y-106079451D01*
X56494762Y-106101663D01*
X56897838Y-106096175D01*
X57271538Y-105960743D01*
X57559757Y-105719182D01*
X57625783Y-105621584D01*
X57745424Y-105442478D01*
X57838591Y-105355021D01*
X57847113Y-105353335D01*
X57928046Y-105280865D01*
X57992823Y-105154340D01*
X58069546Y-104955903D01*
X58160780Y-105176389D01*
X58218476Y-105300517D01*
X58246012Y-105288906D01*
X58256086Y-105123886D01*
X58257604Y-105041672D01*
X58298002Y-104763016D01*
X58393265Y-104510080D01*
X58517397Y-104337770D01*
X58611397Y-104294444D01*
X58697431Y-104374807D01*
X58800611Y-104590131D01*
X58906885Y-104901767D01*
X59002206Y-105271069D01*
X59045589Y-105488807D01*
X59101660Y-105864079D01*
X59144156Y-106260632D01*
X59171167Y-106640085D01*
X59180781Y-106964054D01*
X59171087Y-107194157D01*
X59140175Y-107292013D01*
X59135414Y-107293055D01*
X59046453Y-107228848D01*
X58887043Y-107061128D01*
X58706217Y-106844164D01*
X58504751Y-106569994D01*
X58395414Y-106348113D01*
X58348872Y-106102908D01*
X58338422Y-105896073D01*
X58325456Y-105396875D01*
X58269555Y-105881944D01*
X58219596Y-106205882D01*
X58138138Y-106467179D01*
X57999256Y-106715516D01*
X57777026Y-107000575D01*
X57554306Y-107252639D01*
X57328032Y-107494428D01*
X57185649Y-107618272D01*
X57098511Y-107642050D01*
X57037972Y-107583643D01*
X57034186Y-107577274D01*
X56971951Y-107481037D01*
X56950915Y-107485771D01*
X56973837Y-107609988D01*
X57043473Y-107872198D01*
X57116667Y-108130903D01*
X57205294Y-108472977D01*
X57268624Y-108778785D01*
X57293054Y-108982560D01*
X57293055Y-108983662D01*
X57217276Y-109273199D01*
X57017363Y-109585143D01*
X56734450Y-109880266D01*
X56409672Y-110119341D01*
X56084166Y-110263138D01*
X55926042Y-110287293D01*
X55858029Y-110266518D01*
X55950253Y-110194256D01*
X56058074Y-110137189D01*
X56271220Y-109994244D01*
X56386853Y-109845957D01*
X56390301Y-109727655D01*
X56266891Y-109674666D01*
X56250325Y-109674306D01*
X56090460Y-109737251D01*
X55889064Y-109896131D01*
X55804265Y-109984484D01*
X55568934Y-110203267D01*
X55316652Y-110307509D01*
X55155719Y-110331457D01*
X54879736Y-110344130D01*
X54656584Y-110330307D01*
X54615097Y-110321552D01*
X54457640Y-110228745D01*
X54258569Y-110051527D01*
X54187038Y-109974579D01*
X53989588Y-109791169D01*
X53804739Y-109684932D01*
X53749675Y-109674306D01*
X53614968Y-109720217D01*
X53608348Y-109834402D01*
X53715143Y-109981532D01*
X53920680Y-110126281D01*
X53941926Y-110137189D01*
X54116024Y-110237020D01*
X54127826Y-110283023D01*
X54073958Y-110287293D01*
X53764653Y-110209601D01*
X53434365Y-110015927D01*
X53124230Y-109745498D01*
X52875382Y-109437544D01*
X52728957Y-109131292D01*
X52706944Y-108983662D01*
X52730994Y-108780497D01*
X52794023Y-108475290D01*
X52881761Y-108136400D01*
X52961990Y-107832508D01*
X53010579Y-107601069D01*
X53018100Y-107487816D01*
X53016129Y-107484647D01*
X52956594Y-107516685D01*
X52921109Y-107586408D01*
X52866357Y-107634482D01*
X52762970Y-107573215D01*
X52589871Y-107387216D01*
X52500109Y-107279009D01*
X52334893Y-107072569D01*
X53765278Y-107072569D01*
X53809375Y-107116667D01*
X53853472Y-107072569D01*
X53809375Y-107028472D01*
X53765278Y-107072569D01*
X52334893Y-107072569D01*
X52181789Y-106881265D01*
X51962937Y-106586489D01*
X51825833Y-106365816D01*
X51752756Y-106190379D01*
X51725989Y-106031314D01*
X51725242Y-106016725D01*
X51710212Y-105953146D01*
X51682044Y-106045052D01*
X51647674Y-106266496D01*
X51580052Y-106620430D01*
X51468008Y-106867420D01*
X51328509Y-107032867D01*
X51135633Y-107199732D01*
X50974686Y-107300738D01*
X50947459Y-107309774D01*
X50870819Y-107251238D01*
X50835367Y-107055178D01*
X50836374Y-106754377D01*
X50869110Y-106381617D01*
X50928844Y-105969682D01*
X51010848Y-105551355D01*
X51110391Y-105159418D01*
X51222743Y-104826655D01*
X51339702Y-104591096D01*
X51487610Y-104365360D01*
X51623484Y-104559347D01*
X51706505Y-104728317D01*
X51701936Y-104922930D01*
X51659887Y-105085337D01*
X51593680Y-105340977D01*
X51569486Y-105505809D01*
X51585301Y-105556654D01*
X51639126Y-105470335D01*
X51683445Y-105358102D01*
X51785894Y-105147533D01*
X51893388Y-105027474D01*
X51975137Y-105020925D01*
X52001389Y-105120560D01*
X52067126Y-105284814D01*
X52113749Y-105326347D01*
X52237469Y-105446781D01*
X52380956Y-105640157D01*
X52385192Y-105646776D01*
X52642457Y-105904432D01*
X52994070Y-106072030D01*
X53368290Y-106118900D01*
X53462185Y-106107201D01*
X53758988Y-106113714D01*
X53946317Y-106254510D01*
X54011009Y-106516098D01*
X53998712Y-106657086D01*
X53972003Y-106854070D01*
X53996884Y-106902845D01*
X54094742Y-106828982D01*
X54121955Y-106804457D01*
X54275762Y-106572381D01*
X54270091Y-106332098D01*
X54109449Y-106129373D01*
X54051910Y-106093339D01*
X53878844Y-105998309D01*
X53592516Y-105841090D01*
X53234280Y-105644388D01*
X52885158Y-105452692D01*
X52421547Y-105185577D01*
X52091634Y-104959032D01*
X51866402Y-104745534D01*
X51716836Y-104517556D01*
X51613919Y-104247574D01*
X51613593Y-104246476D01*
X51627068Y-104071823D01*
X51749937Y-103799486D01*
X51948415Y-103474948D01*
X52118930Y-103208292D01*
X52233363Y-103015318D01*
X52266443Y-102942822D01*
X54364736Y-102942822D01*
X54423842Y-102966696D01*
X54581076Y-102999332D01*
X54834039Y-103057107D01*
X54957622Y-103128390D01*
X54997349Y-103249530D01*
X55000000Y-103333846D01*
X54961830Y-103534520D01*
X54845660Y-103599120D01*
X54736965Y-103611438D01*
X54799594Y-103637472D01*
X54845660Y-103649684D01*
X54944613Y-103746761D01*
X54997947Y-103928845D01*
X55000959Y-104126445D01*
X54948948Y-104270071D01*
X54889757Y-104301407D01*
X54824765Y-104319135D01*
X54889757Y-104352854D01*
X54957570Y-104471351D01*
X55001332Y-104758640D01*
X55017524Y-105073495D01*
X55035048Y-105749653D01*
X55065878Y-105090768D01*
X55095750Y-104738885D01*
X55144130Y-104483214D01*
X55202694Y-104364515D01*
X55261117Y-104306945D01*
X55198437Y-104295795D01*
X55119565Y-104214480D01*
X55088264Y-103998714D01*
X55088194Y-103985764D01*
X55113167Y-103763736D01*
X55200577Y-103673877D01*
X55242535Y-103666853D01*
X55351229Y-103654534D01*
X55288600Y-103628500D01*
X55242535Y-103616289D01*
X55116049Y-103498819D01*
X55088194Y-103332620D01*
X55106051Y-103181904D01*
X55189815Y-103093815D01*
X55384782Y-103033293D01*
X55507118Y-103008358D01*
X55677832Y-102972187D01*
X55732120Y-102948371D01*
X55655015Y-102934169D01*
X55431548Y-102926844D01*
X55046750Y-102923657D01*
X55044097Y-102923645D01*
X54660473Y-102923649D01*
X54438816Y-102929257D01*
X54364736Y-102942822D01*
X52266443Y-102942822D01*
X52273547Y-102927254D01*
X52267464Y-102926509D01*
X52207597Y-102876182D01*
X52134419Y-102699820D01*
X52099777Y-102578600D01*
X52009908Y-101962179D01*
X52037397Y-101344041D01*
X52174483Y-100770222D01*
X52340452Y-100434382D01*
X54892464Y-100434382D01*
X54895067Y-100457986D01*
X54938620Y-100662031D01*
X54999042Y-100764007D01*
X55009649Y-100766667D01*
X55061574Y-100689107D01*
X55087519Y-100498402D01*
X55088194Y-100457986D01*
X55058088Y-100231094D01*
X54974078Y-100149307D01*
X54973612Y-100149306D01*
X54896900Y-100218207D01*
X54892464Y-100434382D01*
X52340452Y-100434382D01*
X52413405Y-100286761D01*
X52507179Y-100162141D01*
X52586401Y-100066589D01*
X52659563Y-99992803D01*
X52749029Y-99938011D01*
X52877160Y-99899439D01*
X53066319Y-99874314D01*
X53338868Y-99859862D01*
X53717168Y-99853312D01*
X54223584Y-99851889D01*
X54880476Y-99852820D01*
X55000000Y-99853001D01*
X55453989Y-99853027D01*
X55921928Y-99852054D01*
X56320931Y-99850279D01*
X56413753Y-99849628D01*
X56770043Y-99860590D01*
D13*
X27940000Y-49470000D02*
X29270000Y-49470000D01*
X29270000Y-49470000D02*
X29270000Y-50800000D01*
X29270000Y-52010000D02*
X29270000Y-52130000D01*
X26610000Y-52010000D02*
X26610000Y-52130000D01*
X26610000Y-52130000D02*
X29270000Y-52130000D01*
X81245225Y-30025000D02*
X81245225Y-30525000D01*
X80995225Y-30275000D02*
X81495225Y-30275000D01*
X86401000Y-31466000D02*
X86401000Y-32034000D01*
X86361000Y-31232000D02*
X86361000Y-32268000D01*
X86321000Y-31073000D02*
X86321000Y-32427000D01*
X86281000Y-30945000D02*
X86281000Y-32555000D01*
X86241000Y-30835000D02*
X86241000Y-32665000D01*
X86201000Y-30739000D02*
X86201000Y-32761000D01*
X86161000Y-30652000D02*
X86161000Y-32848000D01*
X86121000Y-30572000D02*
X86121000Y-32928000D01*
X86081000Y-32790000D02*
X86081000Y-33001000D01*
X86081000Y-30499000D02*
X86081000Y-30710000D01*
X86041000Y-32790000D02*
X86041000Y-33069000D01*
X86041000Y-30431000D02*
X86041000Y-30710000D01*
X86001000Y-32790000D02*
X86001000Y-33133000D01*
X86001000Y-30367000D02*
X86001000Y-30710000D01*
X85961000Y-32790000D02*
X85961000Y-33193000D01*
X85961000Y-30307000D02*
X85961000Y-30710000D01*
X85921000Y-32790000D02*
X85921000Y-33250000D01*
X85921000Y-30250000D02*
X85921000Y-30710000D01*
X85881000Y-32790000D02*
X85881000Y-33304000D01*
X85881000Y-30196000D02*
X85881000Y-30710000D01*
X85841000Y-32790000D02*
X85841000Y-33355000D01*
X85841000Y-30145000D02*
X85841000Y-30710000D01*
X85801000Y-32790000D02*
X85801000Y-33403000D01*
X85801000Y-30097000D02*
X85801000Y-30710000D01*
X85761000Y-32790000D02*
X85761000Y-33449000D01*
X85761000Y-30051000D02*
X85761000Y-30710000D01*
X85721000Y-32790000D02*
X85721000Y-33493000D01*
X85721000Y-30007000D02*
X85721000Y-30710000D01*
X85681000Y-32790000D02*
X85681000Y-33535000D01*
X85681000Y-29965000D02*
X85681000Y-30710000D01*
X85641000Y-32790000D02*
X85641000Y-33576000D01*
X85641000Y-29924000D02*
X85641000Y-30710000D01*
X85601000Y-32790000D02*
X85601000Y-33614000D01*
X85601000Y-29886000D02*
X85601000Y-30710000D01*
X85561000Y-32790000D02*
X85561000Y-33651000D01*
X85561000Y-29849000D02*
X85561000Y-30710000D01*
X85521000Y-32790000D02*
X85521000Y-33687000D01*
X85521000Y-29813000D02*
X85521000Y-30710000D01*
X85481000Y-32790000D02*
X85481000Y-33721000D01*
X85481000Y-29779000D02*
X85481000Y-30710000D01*
X85441000Y-32790000D02*
X85441000Y-33754000D01*
X85441000Y-29746000D02*
X85441000Y-30710000D01*
X85401000Y-32790000D02*
X85401000Y-33785000D01*
X85401000Y-29715000D02*
X85401000Y-30710000D01*
X85361000Y-32790000D02*
X85361000Y-33815000D01*
X85361000Y-29685000D02*
X85361000Y-30710000D01*
X85321000Y-32790000D02*
X85321000Y-33845000D01*
X85321000Y-29655000D02*
X85321000Y-30710000D01*
X85281000Y-32790000D02*
X85281000Y-33872000D01*
X85281000Y-29628000D02*
X85281000Y-30710000D01*
X85241000Y-32790000D02*
X85241000Y-33899000D01*
X85241000Y-29601000D02*
X85241000Y-30710000D01*
X85201000Y-32790000D02*
X85201000Y-33925000D01*
X85201000Y-29575000D02*
X85201000Y-30710000D01*
X85161000Y-32790000D02*
X85161000Y-33950000D01*
X85161000Y-29550000D02*
X85161000Y-30710000D01*
X85121000Y-32790000D02*
X85121000Y-33974000D01*
X85121000Y-29526000D02*
X85121000Y-30710000D01*
X85081000Y-32790000D02*
X85081000Y-33997000D01*
X85081000Y-29503000D02*
X85081000Y-30710000D01*
X85041000Y-32790000D02*
X85041000Y-34018000D01*
X85041000Y-29482000D02*
X85041000Y-30710000D01*
X85001000Y-32790000D02*
X85001000Y-34040000D01*
X85001000Y-29460000D02*
X85001000Y-30710000D01*
X84961000Y-32790000D02*
X84961000Y-34060000D01*
X84961000Y-29440000D02*
X84961000Y-30710000D01*
X84921000Y-32790000D02*
X84921000Y-34079000D01*
X84921000Y-29421000D02*
X84921000Y-30710000D01*
X84881000Y-32790000D02*
X84881000Y-34098000D01*
X84881000Y-29402000D02*
X84881000Y-30710000D01*
X84841000Y-32790000D02*
X84841000Y-34115000D01*
X84841000Y-29385000D02*
X84841000Y-30710000D01*
X84801000Y-32790000D02*
X84801000Y-34132000D01*
X84801000Y-29368000D02*
X84801000Y-30710000D01*
X84761000Y-32790000D02*
X84761000Y-34148000D01*
X84761000Y-29352000D02*
X84761000Y-30710000D01*
X84721000Y-32790000D02*
X84721000Y-34164000D01*
X84721000Y-29336000D02*
X84721000Y-30710000D01*
X84681000Y-32790000D02*
X84681000Y-34178000D01*
X84681000Y-29322000D02*
X84681000Y-30710000D01*
X84641000Y-32790000D02*
X84641000Y-34192000D01*
X84641000Y-29308000D02*
X84641000Y-30710000D01*
X84601000Y-32790000D02*
X84601000Y-34205000D01*
X84601000Y-29295000D02*
X84601000Y-30710000D01*
X84561000Y-32790000D02*
X84561000Y-34218000D01*
X84561000Y-29282000D02*
X84561000Y-30710000D01*
X84521000Y-32790000D02*
X84521000Y-34230000D01*
X84521000Y-29270000D02*
X84521000Y-30710000D01*
X84480000Y-32790000D02*
X84480000Y-34241000D01*
X84480000Y-29259000D02*
X84480000Y-30710000D01*
X84440000Y-32790000D02*
X84440000Y-34251000D01*
X84440000Y-29249000D02*
X84440000Y-30710000D01*
X84400000Y-32790000D02*
X84400000Y-34261000D01*
X84400000Y-29239000D02*
X84400000Y-30710000D01*
X84360000Y-32790000D02*
X84360000Y-34270000D01*
X84360000Y-29230000D02*
X84360000Y-30710000D01*
X84320000Y-32790000D02*
X84320000Y-34278000D01*
X84320000Y-29222000D02*
X84320000Y-30710000D01*
X84280000Y-32790000D02*
X84280000Y-34286000D01*
X84280000Y-29214000D02*
X84280000Y-30710000D01*
X84240000Y-32790000D02*
X84240000Y-34293000D01*
X84240000Y-29207000D02*
X84240000Y-30710000D01*
X84200000Y-32790000D02*
X84200000Y-34300000D01*
X84200000Y-29200000D02*
X84200000Y-30710000D01*
X84160000Y-32790000D02*
X84160000Y-34306000D01*
X84160000Y-29194000D02*
X84160000Y-30710000D01*
X84120000Y-32790000D02*
X84120000Y-34311000D01*
X84120000Y-29189000D02*
X84120000Y-30710000D01*
X84080000Y-32790000D02*
X84080000Y-34315000D01*
X84080000Y-29185000D02*
X84080000Y-30710000D01*
X84040000Y-32790000D02*
X84040000Y-34319000D01*
X84040000Y-29181000D02*
X84040000Y-30710000D01*
X84000000Y-29177000D02*
X84000000Y-34323000D01*
X83960000Y-29174000D02*
X83960000Y-34326000D01*
X83920000Y-29172000D02*
X83920000Y-34328000D01*
X83880000Y-29171000D02*
X83880000Y-34329000D01*
X83840000Y-29170000D02*
X83840000Y-34330000D01*
X83800000Y-29170000D02*
X83800000Y-34330000D01*
X86420000Y-31750000D02*
G75*
G03*
X86420000Y-31750000I-2620000J0D01*
G01*
X81661000Y-21911000D02*
X82991000Y-21911000D01*
X82991000Y-21911000D02*
X82991000Y-23241000D01*
X82991000Y-24451000D02*
X82991000Y-24571000D01*
X80331000Y-24451000D02*
X80331000Y-24571000D01*
X80331000Y-24571000D02*
X82991000Y-24571000D01*
X53510000Y-46870000D02*
X35390000Y-46870000D01*
X53510000Y-87750000D02*
X53510000Y-46870000D01*
X35390000Y-87750000D02*
X53510000Y-87750000D01*
X35390000Y-46870000D02*
X35390000Y-87750000D01*
X50510000Y-46930000D02*
X45450000Y-46930000D01*
X50510000Y-87690000D02*
X50510000Y-46930000D01*
X38390000Y-87690000D02*
X50510000Y-87690000D01*
X38390000Y-46930000D02*
X38390000Y-87690000D01*
X43450000Y-46930000D02*
X38390000Y-46930000D01*
X45450000Y-46930000D02*
G75*
G02*
X43450000Y-46930000I-1000000J0D01*
G01*
X66310000Y-24345000D02*
X56460000Y-24345000D01*
X56460000Y-24345000D02*
X55460000Y-25345000D01*
X55460000Y-25345000D02*
X55460000Y-48045000D01*
X55460000Y-48045000D02*
X79160000Y-48045000D01*
X79160000Y-48045000D02*
X79160000Y-24345000D01*
X79160000Y-24345000D02*
X68310000Y-24345000D01*
X53374775Y-43635000D02*
X53374775Y-43135000D01*
X53624775Y-43385000D02*
X53124775Y-43385000D01*
X48219000Y-42194000D02*
X48219000Y-41626000D01*
X48259000Y-42428000D02*
X48259000Y-41392000D01*
X48299000Y-42587000D02*
X48299000Y-41233000D01*
X48339000Y-42715000D02*
X48339000Y-41105000D01*
X48379000Y-42825000D02*
X48379000Y-40995000D01*
X48419000Y-42921000D02*
X48419000Y-40899000D01*
X48459000Y-43008000D02*
X48459000Y-40812000D01*
X48499000Y-43088000D02*
X48499000Y-40732000D01*
X48539000Y-40870000D02*
X48539000Y-40659000D01*
X48539000Y-43161000D02*
X48539000Y-42950000D01*
X48579000Y-40870000D02*
X48579000Y-40591000D01*
X48579000Y-43229000D02*
X48579000Y-42950000D01*
X48619000Y-40870000D02*
X48619000Y-40527000D01*
X48619000Y-43293000D02*
X48619000Y-42950000D01*
X48659000Y-40870000D02*
X48659000Y-40467000D01*
X48659000Y-43353000D02*
X48659000Y-42950000D01*
X48699000Y-40870000D02*
X48699000Y-40410000D01*
X48699000Y-43410000D02*
X48699000Y-42950000D01*
X48739000Y-40870000D02*
X48739000Y-40356000D01*
X48739000Y-43464000D02*
X48739000Y-42950000D01*
X48779000Y-40870000D02*
X48779000Y-40305000D01*
X48779000Y-43515000D02*
X48779000Y-42950000D01*
X48819000Y-40870000D02*
X48819000Y-40257000D01*
X48819000Y-43563000D02*
X48819000Y-42950000D01*
X48859000Y-40870000D02*
X48859000Y-40211000D01*
X48859000Y-43609000D02*
X48859000Y-42950000D01*
X48899000Y-40870000D02*
X48899000Y-40167000D01*
X48899000Y-43653000D02*
X48899000Y-42950000D01*
X48939000Y-40870000D02*
X48939000Y-40125000D01*
X48939000Y-43695000D02*
X48939000Y-42950000D01*
X48979000Y-40870000D02*
X48979000Y-40084000D01*
X48979000Y-43736000D02*
X48979000Y-42950000D01*
X49019000Y-40870000D02*
X49019000Y-40046000D01*
X49019000Y-43774000D02*
X49019000Y-42950000D01*
X49059000Y-40870000D02*
X49059000Y-40009000D01*
X49059000Y-43811000D02*
X49059000Y-42950000D01*
X49099000Y-40870000D02*
X49099000Y-39973000D01*
X49099000Y-43847000D02*
X49099000Y-42950000D01*
X49139000Y-40870000D02*
X49139000Y-39939000D01*
X49139000Y-43881000D02*
X49139000Y-42950000D01*
X49179000Y-40870000D02*
X49179000Y-39906000D01*
X49179000Y-43914000D02*
X49179000Y-42950000D01*
X49219000Y-40870000D02*
X49219000Y-39875000D01*
X49219000Y-43945000D02*
X49219000Y-42950000D01*
X49259000Y-40870000D02*
X49259000Y-39845000D01*
X49259000Y-43975000D02*
X49259000Y-42950000D01*
X49299000Y-40870000D02*
X49299000Y-39815000D01*
X49299000Y-44005000D02*
X49299000Y-42950000D01*
X49339000Y-40870000D02*
X49339000Y-39788000D01*
X49339000Y-44032000D02*
X49339000Y-42950000D01*
X49379000Y-40870000D02*
X49379000Y-39761000D01*
X49379000Y-44059000D02*
X49379000Y-42950000D01*
X49419000Y-40870000D02*
X49419000Y-39735000D01*
X49419000Y-44085000D02*
X49419000Y-42950000D01*
X49459000Y-40870000D02*
X49459000Y-39710000D01*
X49459000Y-44110000D02*
X49459000Y-42950000D01*
X49499000Y-40870000D02*
X49499000Y-39686000D01*
X49499000Y-44134000D02*
X49499000Y-42950000D01*
X49539000Y-40870000D02*
X49539000Y-39663000D01*
X49539000Y-44157000D02*
X49539000Y-42950000D01*
X49579000Y-40870000D02*
X49579000Y-39642000D01*
X49579000Y-44178000D02*
X49579000Y-42950000D01*
X49619000Y-40870000D02*
X49619000Y-39620000D01*
X49619000Y-44200000D02*
X49619000Y-42950000D01*
X49659000Y-40870000D02*
X49659000Y-39600000D01*
X49659000Y-44220000D02*
X49659000Y-42950000D01*
X49699000Y-40870000D02*
X49699000Y-39581000D01*
X49699000Y-44239000D02*
X49699000Y-42950000D01*
X49739000Y-40870000D02*
X49739000Y-39562000D01*
X49739000Y-44258000D02*
X49739000Y-42950000D01*
X49779000Y-40870000D02*
X49779000Y-39545000D01*
X49779000Y-44275000D02*
X49779000Y-42950000D01*
X49819000Y-40870000D02*
X49819000Y-39528000D01*
X49819000Y-44292000D02*
X49819000Y-42950000D01*
X49859000Y-40870000D02*
X49859000Y-39512000D01*
X49859000Y-44308000D02*
X49859000Y-42950000D01*
X49899000Y-40870000D02*
X49899000Y-39496000D01*
X49899000Y-44324000D02*
X49899000Y-42950000D01*
X49939000Y-40870000D02*
X49939000Y-39482000D01*
X49939000Y-44338000D02*
X49939000Y-42950000D01*
X49979000Y-40870000D02*
X49979000Y-39468000D01*
X49979000Y-44352000D02*
X49979000Y-42950000D01*
X50019000Y-40870000D02*
X50019000Y-39455000D01*
X50019000Y-44365000D02*
X50019000Y-42950000D01*
X50059000Y-40870000D02*
X50059000Y-39442000D01*
X50059000Y-44378000D02*
X50059000Y-42950000D01*
X50099000Y-40870000D02*
X50099000Y-39430000D01*
X50099000Y-44390000D02*
X50099000Y-42950000D01*
X50140000Y-40870000D02*
X50140000Y-39419000D01*
X50140000Y-44401000D02*
X50140000Y-42950000D01*
X50180000Y-40870000D02*
X50180000Y-39409000D01*
X50180000Y-44411000D02*
X50180000Y-42950000D01*
X50220000Y-40870000D02*
X50220000Y-39399000D01*
X50220000Y-44421000D02*
X50220000Y-42950000D01*
X50260000Y-40870000D02*
X50260000Y-39390000D01*
X50260000Y-44430000D02*
X50260000Y-42950000D01*
X50300000Y-40870000D02*
X50300000Y-39382000D01*
X50300000Y-44438000D02*
X50300000Y-42950000D01*
X50340000Y-40870000D02*
X50340000Y-39374000D01*
X50340000Y-44446000D02*
X50340000Y-42950000D01*
X50380000Y-40870000D02*
X50380000Y-39367000D01*
X50380000Y-44453000D02*
X50380000Y-42950000D01*
X50420000Y-40870000D02*
X50420000Y-39360000D01*
X50420000Y-44460000D02*
X50420000Y-42950000D01*
X50460000Y-40870000D02*
X50460000Y-39354000D01*
X50460000Y-44466000D02*
X50460000Y-42950000D01*
X50500000Y-40870000D02*
X50500000Y-39349000D01*
X50500000Y-44471000D02*
X50500000Y-42950000D01*
X50540000Y-40870000D02*
X50540000Y-39345000D01*
X50540000Y-44475000D02*
X50540000Y-42950000D01*
X50580000Y-40870000D02*
X50580000Y-39341000D01*
X50580000Y-44479000D02*
X50580000Y-42950000D01*
X50620000Y-44483000D02*
X50620000Y-39337000D01*
X50660000Y-44486000D02*
X50660000Y-39334000D01*
X50700000Y-44488000D02*
X50700000Y-39332000D01*
X50740000Y-44489000D02*
X50740000Y-39331000D01*
X50780000Y-44490000D02*
X50780000Y-39330000D01*
X50820000Y-44490000D02*
X50820000Y-39330000D01*
X53440000Y-41910000D02*
G75*
G03*
X53440000Y-41910000I-2620000J0D01*
G01*
X53374775Y-28395000D02*
X53374775Y-27895000D01*
X53624775Y-28145000D02*
X53124775Y-28145000D01*
X48219000Y-26954000D02*
X48219000Y-26386000D01*
X48259000Y-27188000D02*
X48259000Y-26152000D01*
X48299000Y-27347000D02*
X48299000Y-25993000D01*
X48339000Y-27475000D02*
X48339000Y-25865000D01*
X48379000Y-27585000D02*
X48379000Y-25755000D01*
X48419000Y-27681000D02*
X48419000Y-25659000D01*
X48459000Y-27768000D02*
X48459000Y-25572000D01*
X48499000Y-27848000D02*
X48499000Y-25492000D01*
X48539000Y-25630000D02*
X48539000Y-25419000D01*
X48539000Y-27921000D02*
X48539000Y-27710000D01*
X48579000Y-25630000D02*
X48579000Y-25351000D01*
X48579000Y-27989000D02*
X48579000Y-27710000D01*
X48619000Y-25630000D02*
X48619000Y-25287000D01*
X48619000Y-28053000D02*
X48619000Y-27710000D01*
X48659000Y-25630000D02*
X48659000Y-25227000D01*
X48659000Y-28113000D02*
X48659000Y-27710000D01*
X48699000Y-25630000D02*
X48699000Y-25170000D01*
X48699000Y-28170000D02*
X48699000Y-27710000D01*
X48739000Y-25630000D02*
X48739000Y-25116000D01*
X48739000Y-28224000D02*
X48739000Y-27710000D01*
X48779000Y-25630000D02*
X48779000Y-25065000D01*
X48779000Y-28275000D02*
X48779000Y-27710000D01*
X48819000Y-25630000D02*
X48819000Y-25017000D01*
X48819000Y-28323000D02*
X48819000Y-27710000D01*
X48859000Y-25630000D02*
X48859000Y-24971000D01*
X48859000Y-28369000D02*
X48859000Y-27710000D01*
X48899000Y-25630000D02*
X48899000Y-24927000D01*
X48899000Y-28413000D02*
X48899000Y-27710000D01*
X48939000Y-25630000D02*
X48939000Y-24885000D01*
X48939000Y-28455000D02*
X48939000Y-27710000D01*
X48979000Y-25630000D02*
X48979000Y-24844000D01*
X48979000Y-28496000D02*
X48979000Y-27710000D01*
X49019000Y-25630000D02*
X49019000Y-24806000D01*
X49019000Y-28534000D02*
X49019000Y-27710000D01*
X49059000Y-25630000D02*
X49059000Y-24769000D01*
X49059000Y-28571000D02*
X49059000Y-27710000D01*
X49099000Y-25630000D02*
X49099000Y-24733000D01*
X49099000Y-28607000D02*
X49099000Y-27710000D01*
X49139000Y-25630000D02*
X49139000Y-24699000D01*
X49139000Y-28641000D02*
X49139000Y-27710000D01*
X49179000Y-25630000D02*
X49179000Y-24666000D01*
X49179000Y-28674000D02*
X49179000Y-27710000D01*
X49219000Y-25630000D02*
X49219000Y-24635000D01*
X49219000Y-28705000D02*
X49219000Y-27710000D01*
X49259000Y-25630000D02*
X49259000Y-24605000D01*
X49259000Y-28735000D02*
X49259000Y-27710000D01*
X49299000Y-25630000D02*
X49299000Y-24575000D01*
X49299000Y-28765000D02*
X49299000Y-27710000D01*
X49339000Y-25630000D02*
X49339000Y-24548000D01*
X49339000Y-28792000D02*
X49339000Y-27710000D01*
X49379000Y-25630000D02*
X49379000Y-24521000D01*
X49379000Y-28819000D02*
X49379000Y-27710000D01*
X49419000Y-25630000D02*
X49419000Y-24495000D01*
X49419000Y-28845000D02*
X49419000Y-27710000D01*
X49459000Y-25630000D02*
X49459000Y-24470000D01*
X49459000Y-28870000D02*
X49459000Y-27710000D01*
X49499000Y-25630000D02*
X49499000Y-24446000D01*
X49499000Y-28894000D02*
X49499000Y-27710000D01*
X49539000Y-25630000D02*
X49539000Y-24423000D01*
X49539000Y-28917000D02*
X49539000Y-27710000D01*
X49579000Y-25630000D02*
X49579000Y-24402000D01*
X49579000Y-28938000D02*
X49579000Y-27710000D01*
X49619000Y-25630000D02*
X49619000Y-24380000D01*
X49619000Y-28960000D02*
X49619000Y-27710000D01*
X49659000Y-25630000D02*
X49659000Y-24360000D01*
X49659000Y-28980000D02*
X49659000Y-27710000D01*
X49699000Y-25630000D02*
X49699000Y-24341000D01*
X49699000Y-28999000D02*
X49699000Y-27710000D01*
X49739000Y-25630000D02*
X49739000Y-24322000D01*
X49739000Y-29018000D02*
X49739000Y-27710000D01*
X49779000Y-25630000D02*
X49779000Y-24305000D01*
X49779000Y-29035000D02*
X49779000Y-27710000D01*
X49819000Y-25630000D02*
X49819000Y-24288000D01*
X49819000Y-29052000D02*
X49819000Y-27710000D01*
X49859000Y-25630000D02*
X49859000Y-24272000D01*
X49859000Y-29068000D02*
X49859000Y-27710000D01*
X49899000Y-25630000D02*
X49899000Y-24256000D01*
X49899000Y-29084000D02*
X49899000Y-27710000D01*
X49939000Y-25630000D02*
X49939000Y-24242000D01*
X49939000Y-29098000D02*
X49939000Y-27710000D01*
X49979000Y-25630000D02*
X49979000Y-24228000D01*
X49979000Y-29112000D02*
X49979000Y-27710000D01*
X50019000Y-25630000D02*
X50019000Y-24215000D01*
X50019000Y-29125000D02*
X50019000Y-27710000D01*
X50059000Y-25630000D02*
X50059000Y-24202000D01*
X50059000Y-29138000D02*
X50059000Y-27710000D01*
X50099000Y-25630000D02*
X50099000Y-24190000D01*
X50099000Y-29150000D02*
X50099000Y-27710000D01*
X50140000Y-25630000D02*
X50140000Y-24179000D01*
X50140000Y-29161000D02*
X50140000Y-27710000D01*
X50180000Y-25630000D02*
X50180000Y-24169000D01*
X50180000Y-29171000D02*
X50180000Y-27710000D01*
X50220000Y-25630000D02*
X50220000Y-24159000D01*
X50220000Y-29181000D02*
X50220000Y-27710000D01*
X50260000Y-25630000D02*
X50260000Y-24150000D01*
X50260000Y-29190000D02*
X50260000Y-27710000D01*
X50300000Y-25630000D02*
X50300000Y-24142000D01*
X50300000Y-29198000D02*
X50300000Y-27710000D01*
X50340000Y-25630000D02*
X50340000Y-24134000D01*
X50340000Y-29206000D02*
X50340000Y-27710000D01*
X50380000Y-25630000D02*
X50380000Y-24127000D01*
X50380000Y-29213000D02*
X50380000Y-27710000D01*
X50420000Y-25630000D02*
X50420000Y-24120000D01*
X50420000Y-29220000D02*
X50420000Y-27710000D01*
X50460000Y-25630000D02*
X50460000Y-24114000D01*
X50460000Y-29226000D02*
X50460000Y-27710000D01*
X50500000Y-25630000D02*
X50500000Y-24109000D01*
X50500000Y-29231000D02*
X50500000Y-27710000D01*
X50540000Y-25630000D02*
X50540000Y-24105000D01*
X50540000Y-29235000D02*
X50540000Y-27710000D01*
X50580000Y-25630000D02*
X50580000Y-24101000D01*
X50580000Y-29239000D02*
X50580000Y-27710000D01*
X50620000Y-29243000D02*
X50620000Y-24097000D01*
X50660000Y-29246000D02*
X50660000Y-24094000D01*
X50700000Y-29248000D02*
X50700000Y-24092000D01*
X50740000Y-29249000D02*
X50740000Y-24091000D01*
X50780000Y-29250000D02*
X50780000Y-24090000D01*
X50820000Y-29250000D02*
X50820000Y-24090000D01*
X53440000Y-26670000D02*
G75*
G03*
X53440000Y-26670000I-2620000J0D01*
G01*
D10*
X28447380Y-44553095D02*
X27447380Y-44553095D01*
X27447380Y-44315000D01*
X27495000Y-44172142D01*
X27590238Y-44076904D01*
X27685476Y-44029285D01*
X27875952Y-43981666D01*
X28018809Y-43981666D01*
X28209285Y-44029285D01*
X28304523Y-44076904D01*
X28399761Y-44172142D01*
X28447380Y-44315000D01*
X28447380Y-44553095D01*
X28447380Y-43029285D02*
X28447380Y-43600714D01*
X28447380Y-43315000D02*
X27447380Y-43315000D01*
X27590238Y-43410238D01*
X27685476Y-43505476D01*
X27733095Y-43600714D01*
X27773333Y-39822380D02*
X27440000Y-39346190D01*
X27201904Y-39822380D02*
X27201904Y-38822380D01*
X27582857Y-38822380D01*
X27678095Y-38870000D01*
X27725714Y-38917619D01*
X27773333Y-39012857D01*
X27773333Y-39155714D01*
X27725714Y-39250952D01*
X27678095Y-39298571D01*
X27582857Y-39346190D01*
X27201904Y-39346190D01*
X28249523Y-39822380D02*
X28440000Y-39822380D01*
X28535238Y-39774761D01*
X28582857Y-39727142D01*
X28678095Y-39584285D01*
X28725714Y-39393809D01*
X28725714Y-39012857D01*
X28678095Y-38917619D01*
X28630476Y-38870000D01*
X28535238Y-38822380D01*
X28344761Y-38822380D01*
X28249523Y-38870000D01*
X28201904Y-38917619D01*
X28154285Y-39012857D01*
X28154285Y-39250952D01*
X28201904Y-39346190D01*
X28249523Y-39393809D01*
X28344761Y-39441428D01*
X28535238Y-39441428D01*
X28630476Y-39393809D01*
X28678095Y-39346190D01*
X28725714Y-39250952D01*
X83653333Y-77922380D02*
X83320000Y-77446190D01*
X83081904Y-77922380D02*
X83081904Y-76922380D01*
X83462857Y-76922380D01*
X83558095Y-76970000D01*
X83605714Y-77017619D01*
X83653333Y-77112857D01*
X83653333Y-77255714D01*
X83605714Y-77350952D01*
X83558095Y-77398571D01*
X83462857Y-77446190D01*
X83081904Y-77446190D01*
X84224761Y-77350952D02*
X84129523Y-77303333D01*
X84081904Y-77255714D01*
X84034285Y-77160476D01*
X84034285Y-77112857D01*
X84081904Y-77017619D01*
X84129523Y-76970000D01*
X84224761Y-76922380D01*
X84415238Y-76922380D01*
X84510476Y-76970000D01*
X84558095Y-77017619D01*
X84605714Y-77112857D01*
X84605714Y-77160476D01*
X84558095Y-77255714D01*
X84510476Y-77303333D01*
X84415238Y-77350952D01*
X84224761Y-77350952D01*
X84129523Y-77398571D01*
X84081904Y-77446190D01*
X84034285Y-77541428D01*
X84034285Y-77731904D01*
X84081904Y-77827142D01*
X84129523Y-77874761D01*
X84224761Y-77922380D01*
X84415238Y-77922380D01*
X84510476Y-77874761D01*
X84558095Y-77827142D01*
X84605714Y-77731904D01*
X84605714Y-77541428D01*
X84558095Y-77446190D01*
X84510476Y-77398571D01*
X84415238Y-77350952D01*
X82383333Y-62682380D02*
X82050000Y-62206190D01*
X81811904Y-62682380D02*
X81811904Y-61682380D01*
X82192857Y-61682380D01*
X82288095Y-61730000D01*
X82335714Y-61777619D01*
X82383333Y-61872857D01*
X82383333Y-62015714D01*
X82335714Y-62110952D01*
X82288095Y-62158571D01*
X82192857Y-62206190D01*
X81811904Y-62206190D01*
X82716666Y-61682380D02*
X83383333Y-61682380D01*
X82954761Y-62682380D01*
X82383333Y-66492380D02*
X82050000Y-66016190D01*
X81811904Y-66492380D02*
X81811904Y-65492380D01*
X82192857Y-65492380D01*
X82288095Y-65540000D01*
X82335714Y-65587619D01*
X82383333Y-65682857D01*
X82383333Y-65825714D01*
X82335714Y-65920952D01*
X82288095Y-65968571D01*
X82192857Y-66016190D01*
X81811904Y-66016190D01*
X83240476Y-65492380D02*
X83050000Y-65492380D01*
X82954761Y-65540000D01*
X82907142Y-65587619D01*
X82811904Y-65730476D01*
X82764285Y-65920952D01*
X82764285Y-66301904D01*
X82811904Y-66397142D01*
X82859523Y-66444761D01*
X82954761Y-66492380D01*
X83145238Y-66492380D01*
X83240476Y-66444761D01*
X83288095Y-66397142D01*
X83335714Y-66301904D01*
X83335714Y-66063809D01*
X83288095Y-65968571D01*
X83240476Y-65920952D01*
X83145238Y-65873333D01*
X82954761Y-65873333D01*
X82859523Y-65920952D01*
X82811904Y-65968571D01*
X82764285Y-66063809D01*
X83653333Y-74112380D02*
X83320000Y-73636190D01*
X83081904Y-74112380D02*
X83081904Y-73112380D01*
X83462857Y-73112380D01*
X83558095Y-73160000D01*
X83605714Y-73207619D01*
X83653333Y-73302857D01*
X83653333Y-73445714D01*
X83605714Y-73540952D01*
X83558095Y-73588571D01*
X83462857Y-73636190D01*
X83081904Y-73636190D01*
X84558095Y-73112380D02*
X84081904Y-73112380D01*
X84034285Y-73588571D01*
X84081904Y-73540952D01*
X84177142Y-73493333D01*
X84415238Y-73493333D01*
X84510476Y-73540952D01*
X84558095Y-73588571D01*
X84605714Y-73683809D01*
X84605714Y-73921904D01*
X84558095Y-74017142D01*
X84510476Y-74064761D01*
X84415238Y-74112380D01*
X84177142Y-74112380D01*
X84081904Y-74064761D01*
X84034285Y-74017142D01*
X83653333Y-70302380D02*
X83320000Y-69826190D01*
X83081904Y-70302380D02*
X83081904Y-69302380D01*
X83462857Y-69302380D01*
X83558095Y-69350000D01*
X83605714Y-69397619D01*
X83653333Y-69492857D01*
X83653333Y-69635714D01*
X83605714Y-69730952D01*
X83558095Y-69778571D01*
X83462857Y-69826190D01*
X83081904Y-69826190D01*
X84510476Y-69635714D02*
X84510476Y-70302380D01*
X84272380Y-69254761D02*
X84034285Y-69969047D01*
X84653333Y-69969047D01*
X83653333Y-58872380D02*
X83320000Y-58396190D01*
X83081904Y-58872380D02*
X83081904Y-57872380D01*
X83462857Y-57872380D01*
X83558095Y-57920000D01*
X83605714Y-57967619D01*
X83653333Y-58062857D01*
X83653333Y-58205714D01*
X83605714Y-58300952D01*
X83558095Y-58348571D01*
X83462857Y-58396190D01*
X83081904Y-58396190D01*
X83986666Y-57872380D02*
X84605714Y-57872380D01*
X84272380Y-58253333D01*
X84415238Y-58253333D01*
X84510476Y-58300952D01*
X84558095Y-58348571D01*
X84605714Y-58443809D01*
X84605714Y-58681904D01*
X84558095Y-58777142D01*
X84510476Y-58824761D01*
X84415238Y-58872380D01*
X84129523Y-58872380D01*
X84034285Y-58824761D01*
X83986666Y-58777142D01*
X30932380Y-29376666D02*
X30456190Y-29710000D01*
X30932380Y-29948095D02*
X29932380Y-29948095D01*
X29932380Y-29567142D01*
X29980000Y-29471904D01*
X30027619Y-29424285D01*
X30122857Y-29376666D01*
X30265714Y-29376666D01*
X30360952Y-29424285D01*
X30408571Y-29471904D01*
X30456190Y-29567142D01*
X30456190Y-29948095D01*
X30027619Y-28995714D02*
X29980000Y-28948095D01*
X29932380Y-28852857D01*
X29932380Y-28614761D01*
X29980000Y-28519523D01*
X30027619Y-28471904D01*
X30122857Y-28424285D01*
X30218095Y-28424285D01*
X30360952Y-28471904D01*
X30932380Y-29043333D01*
X30932380Y-28424285D01*
X43632380Y-29376666D02*
X43156190Y-29710000D01*
X43632380Y-29948095D02*
X42632380Y-29948095D01*
X42632380Y-29567142D01*
X42680000Y-29471904D01*
X42727619Y-29424285D01*
X42822857Y-29376666D01*
X42965714Y-29376666D01*
X43060952Y-29424285D01*
X43108571Y-29471904D01*
X43156190Y-29567142D01*
X43156190Y-29948095D01*
X43632380Y-28424285D02*
X43632380Y-28995714D01*
X43632380Y-28710000D02*
X42632380Y-28710000D01*
X42775238Y-28805238D01*
X42870476Y-28900476D01*
X42918095Y-28995714D01*
X35666666Y-36404761D02*
X35809523Y-36452380D01*
X36047619Y-36452380D01*
X36142857Y-36404761D01*
X36190476Y-36357142D01*
X36238095Y-36261904D01*
X36238095Y-36166666D01*
X36190476Y-36071428D01*
X36142857Y-36023809D01*
X36047619Y-35976190D01*
X35857142Y-35928571D01*
X35761904Y-35880952D01*
X35714285Y-35833333D01*
X35666666Y-35738095D01*
X35666666Y-35642857D01*
X35714285Y-35547619D01*
X35761904Y-35500000D01*
X35857142Y-35452380D01*
X36095238Y-35452380D01*
X36238095Y-35500000D01*
X36571428Y-35452380D02*
X36809523Y-36452380D01*
X37000000Y-35738095D01*
X37190476Y-36452380D01*
X37428571Y-35452380D01*
X38333333Y-36452380D02*
X37761904Y-36452380D01*
X38047619Y-36452380D02*
X38047619Y-35452380D01*
X37952380Y-35595238D01*
X37857142Y-35690476D01*
X37761904Y-35738095D01*
X84756666Y-53427380D02*
X84756666Y-54141666D01*
X84709047Y-54284523D01*
X84613809Y-54379761D01*
X84470952Y-54427380D01*
X84375714Y-54427380D01*
X85137619Y-53427380D02*
X85804285Y-53427380D01*
X85375714Y-54427380D01*
X88098333Y-32107142D02*
X88050714Y-32154761D01*
X87907857Y-32202380D01*
X87812619Y-32202380D01*
X87669761Y-32154761D01*
X87574523Y-32059523D01*
X87526904Y-31964285D01*
X87479285Y-31773809D01*
X87479285Y-31630952D01*
X87526904Y-31440476D01*
X87574523Y-31345238D01*
X87669761Y-31250000D01*
X87812619Y-31202380D01*
X87907857Y-31202380D01*
X88050714Y-31250000D01*
X88098333Y-31297619D01*
X88431666Y-31202380D02*
X89050714Y-31202380D01*
X88717380Y-31583333D01*
X88860238Y-31583333D01*
X88955476Y-31630952D01*
X89003095Y-31678571D01*
X89050714Y-31773809D01*
X89050714Y-32011904D01*
X89003095Y-32107142D01*
X88955476Y-32154761D01*
X88860238Y-32202380D01*
X88574523Y-32202380D01*
X88479285Y-32154761D01*
X88431666Y-32107142D01*
X43688095Y-45382380D02*
X43688095Y-46191904D01*
X43735714Y-46287142D01*
X43783333Y-46334761D01*
X43878571Y-46382380D01*
X44069047Y-46382380D01*
X44164285Y-46334761D01*
X44211904Y-46287142D01*
X44259523Y-46191904D01*
X44259523Y-45382380D01*
X45259523Y-46382380D02*
X44688095Y-46382380D01*
X44973809Y-46382380D02*
X44973809Y-45382380D01*
X44878571Y-45525238D01*
X44783333Y-45620476D01*
X44688095Y-45668095D01*
X66548095Y-22897380D02*
X66548095Y-23706904D01*
X66595714Y-23802142D01*
X66643333Y-23849761D01*
X66738571Y-23897380D01*
X66929047Y-23897380D01*
X67024285Y-23849761D01*
X67071904Y-23802142D01*
X67119523Y-23706904D01*
X67119523Y-22897380D01*
X67500476Y-22897380D02*
X68119523Y-22897380D01*
X67786190Y-23278333D01*
X67929047Y-23278333D01*
X68024285Y-23325952D01*
X68071904Y-23373571D01*
X68119523Y-23468809D01*
X68119523Y-23706904D01*
X68071904Y-23802142D01*
X68024285Y-23849761D01*
X67929047Y-23897380D01*
X67643333Y-23897380D01*
X67548095Y-23849761D01*
X67500476Y-23802142D01*
X46823333Y-42267142D02*
X46775714Y-42314761D01*
X46632857Y-42362380D01*
X46537619Y-42362380D01*
X46394761Y-42314761D01*
X46299523Y-42219523D01*
X46251904Y-42124285D01*
X46204285Y-41933809D01*
X46204285Y-41790952D01*
X46251904Y-41600476D01*
X46299523Y-41505238D01*
X46394761Y-41410000D01*
X46537619Y-41362380D01*
X46632857Y-41362380D01*
X46775714Y-41410000D01*
X46823333Y-41457619D01*
X47204285Y-41457619D02*
X47251904Y-41410000D01*
X47347142Y-41362380D01*
X47585238Y-41362380D01*
X47680476Y-41410000D01*
X47728095Y-41457619D01*
X47775714Y-41552857D01*
X47775714Y-41648095D01*
X47728095Y-41790952D01*
X47156666Y-42362380D01*
X47775714Y-42362380D01*
X50633333Y-31472142D02*
X50585714Y-31519761D01*
X50442857Y-31567380D01*
X50347619Y-31567380D01*
X50204761Y-31519761D01*
X50109523Y-31424523D01*
X50061904Y-31329285D01*
X50014285Y-31138809D01*
X50014285Y-30995952D01*
X50061904Y-30805476D01*
X50109523Y-30710238D01*
X50204761Y-30615000D01*
X50347619Y-30567380D01*
X50442857Y-30567380D01*
X50585714Y-30615000D01*
X50633333Y-30662619D01*
X51585714Y-31567380D02*
X51014285Y-31567380D01*
X51300000Y-31567380D02*
X51300000Y-30567380D01*
X51204761Y-30710238D01*
X51109523Y-30805476D01*
X51014285Y-30853095D01*
M02*
