G04 #@! TF.GenerationSoftware,KiCad,Pcbnew,(5.1.7)-1*
G04 #@! TF.CreationDate,2022-08-23T14:15:26-03:00*
G04 #@! TF.ProjectId,Squareboi2,53717561-7265-4626-9f69-322e6b696361,1*
G04 #@! TF.SameCoordinates,Original*
G04 #@! TF.FileFunction,Legend,Bot*
G04 #@! TF.FilePolarity,Positive*
%FSLAX46Y46*%
G04 Gerber Fmt 4.6, Leading zero omitted, Abs format (unit mm)*
G04 Created by KiCad (PCBNEW (5.1.7)-1) date 2022-08-23 14:15:26*
%MOMM*%
%LPD*%
G01*
G04 APERTURE LIST*
%ADD10C,0.150000*%
G04 APERTURE END LIST*
D10*
X37449047Y-21677380D02*
X37258571Y-21677380D01*
X37163333Y-21725000D01*
X37068095Y-21820238D01*
X37020476Y-22010714D01*
X37020476Y-22344047D01*
X37068095Y-22534523D01*
X37163333Y-22629761D01*
X37258571Y-22677380D01*
X37449047Y-22677380D01*
X37544285Y-22629761D01*
X37639523Y-22534523D01*
X37687142Y-22344047D01*
X37687142Y-22010714D01*
X37639523Y-21820238D01*
X37544285Y-21725000D01*
X37449047Y-21677380D01*
X36591904Y-22677380D02*
X36591904Y-21677380D01*
X36020476Y-22677380D01*
X36020476Y-21677380D01*
X27891904Y-29282380D02*
X27891904Y-28282380D01*
X27558571Y-28996666D01*
X27225238Y-28282380D01*
X27225238Y-29282380D01*
X26415714Y-28758571D02*
X26272857Y-28806190D01*
X26225238Y-28853809D01*
X26177619Y-28949047D01*
X26177619Y-29091904D01*
X26225238Y-29187142D01*
X26272857Y-29234761D01*
X26368095Y-29282380D01*
X26749047Y-29282380D01*
X26749047Y-28282380D01*
X26415714Y-28282380D01*
X26320476Y-28330000D01*
X26272857Y-28377619D01*
X26225238Y-28472857D01*
X26225238Y-28568095D01*
X26272857Y-28663333D01*
X26320476Y-28710952D01*
X26415714Y-28758571D01*
X26749047Y-28758571D01*
X25177619Y-29187142D02*
X25225238Y-29234761D01*
X25368095Y-29282380D01*
X25463333Y-29282380D01*
X25606190Y-29234761D01*
X25701428Y-29139523D01*
X25749047Y-29044285D01*
X25796666Y-28853809D01*
X25796666Y-28710952D01*
X25749047Y-28520476D01*
X25701428Y-28425238D01*
X25606190Y-28330000D01*
X25463333Y-28282380D01*
X25368095Y-28282380D01*
X25225238Y-28330000D01*
X25177619Y-28377619D01*
X23987142Y-29282380D02*
X23987142Y-28282380D01*
X23653809Y-28996666D01*
X23320476Y-28282380D01*
X23320476Y-29282380D01*
X22653809Y-28282380D02*
X22463333Y-28282380D01*
X22368095Y-28330000D01*
X22272857Y-28425238D01*
X22225238Y-28615714D01*
X22225238Y-28949047D01*
X22272857Y-29139523D01*
X22368095Y-29234761D01*
X22463333Y-29282380D01*
X22653809Y-29282380D01*
X22749047Y-29234761D01*
X22844285Y-29139523D01*
X22891904Y-28949047D01*
X22891904Y-28615714D01*
X22844285Y-28425238D01*
X22749047Y-28330000D01*
X22653809Y-28282380D01*
X21796666Y-29282380D02*
X21796666Y-28282380D01*
X21558571Y-28282380D01*
X21415714Y-28330000D01*
X21320476Y-28425238D01*
X21272857Y-28520476D01*
X21225238Y-28710952D01*
X21225238Y-28853809D01*
X21272857Y-29044285D01*
X21320476Y-29139523D01*
X21415714Y-29234761D01*
X21558571Y-29282380D01*
X21796666Y-29282380D01*
X20796666Y-28758571D02*
X20463333Y-28758571D01*
X20320476Y-29282380D02*
X20796666Y-29282380D01*
X20796666Y-28282380D01*
X20320476Y-28282380D01*
X26606190Y-29932380D02*
X26415714Y-29932380D01*
X26320476Y-29980000D01*
X26225238Y-30075238D01*
X26177619Y-30265714D01*
X26177619Y-30599047D01*
X26225238Y-30789523D01*
X26320476Y-30884761D01*
X26415714Y-30932380D01*
X26606190Y-30932380D01*
X26701428Y-30884761D01*
X26796666Y-30789523D01*
X26844285Y-30599047D01*
X26844285Y-30265714D01*
X26796666Y-30075238D01*
X26701428Y-29980000D01*
X26606190Y-29932380D01*
X25749047Y-30932380D02*
X25749047Y-29932380D01*
X25177619Y-30932380D01*
X25177619Y-29932380D01*
X23939523Y-30551428D02*
X23177619Y-30551428D01*
X21463333Y-29932380D02*
X21939523Y-29932380D01*
X21987142Y-30408571D01*
X21939523Y-30360952D01*
X21844285Y-30313333D01*
X21606190Y-30313333D01*
X21510952Y-30360952D01*
X21463333Y-30408571D01*
X21415714Y-30503809D01*
X21415714Y-30741904D01*
X21463333Y-30837142D01*
X21510952Y-30884761D01*
X21606190Y-30932380D01*
X21844285Y-30932380D01*
X21939523Y-30884761D01*
X21987142Y-30837142D01*
X26939523Y-31582380D02*
X26749047Y-31582380D01*
X26653809Y-31630000D01*
X26558571Y-31725238D01*
X26510952Y-31915714D01*
X26510952Y-32249047D01*
X26558571Y-32439523D01*
X26653809Y-32534761D01*
X26749047Y-32582380D01*
X26939523Y-32582380D01*
X27034761Y-32534761D01*
X27130000Y-32439523D01*
X27177619Y-32249047D01*
X27177619Y-31915714D01*
X27130000Y-31725238D01*
X27034761Y-31630000D01*
X26939523Y-31582380D01*
X25749047Y-32058571D02*
X26082380Y-32058571D01*
X26082380Y-32582380D02*
X26082380Y-31582380D01*
X25606190Y-31582380D01*
X24891904Y-32058571D02*
X25225238Y-32058571D01*
X25225238Y-32582380D02*
X25225238Y-31582380D01*
X24749047Y-31582380D01*
X23606190Y-32201428D02*
X22844285Y-32201428D01*
X21082380Y-32582380D02*
X21653809Y-32582380D01*
X21368095Y-32582380D02*
X21368095Y-31582380D01*
X21463333Y-31725238D01*
X21558571Y-31820476D01*
X21653809Y-31868095D01*
X51497857Y-21677380D02*
X51259761Y-22677380D01*
X51069285Y-21963095D01*
X50878809Y-22677380D01*
X50640714Y-21677380D01*
X49688333Y-22677380D02*
X50021666Y-22201190D01*
X50259761Y-22677380D02*
X50259761Y-21677380D01*
X49878809Y-21677380D01*
X49783571Y-21725000D01*
X49735952Y-21772619D01*
X49688333Y-21867857D01*
X49688333Y-22010714D01*
X49735952Y-22105952D01*
X49783571Y-22153571D01*
X49878809Y-22201190D01*
X50259761Y-22201190D01*
X49259761Y-22677380D02*
X49259761Y-21677380D01*
X48926428Y-21677380D02*
X48355000Y-21677380D01*
X48640714Y-22677380D02*
X48640714Y-21677380D01*
X48021666Y-22153571D02*
X47688333Y-22153571D01*
X47545476Y-22677380D02*
X48021666Y-22677380D01*
X48021666Y-21677380D01*
X47545476Y-21677380D01*
X46355000Y-22153571D02*
X46021666Y-22153571D01*
X45878809Y-22677380D02*
X46355000Y-22677380D01*
X46355000Y-21677380D01*
X45878809Y-21677380D01*
X45450238Y-22677380D02*
X45450238Y-21677380D01*
X44878809Y-22677380D01*
X44878809Y-21677380D01*
X44450238Y-22391666D02*
X43974047Y-22391666D01*
X44545476Y-22677380D02*
X44212142Y-21677380D01*
X43878809Y-22677380D01*
X43212142Y-22153571D02*
X43069285Y-22201190D01*
X43021666Y-22248809D01*
X42974047Y-22344047D01*
X42974047Y-22486904D01*
X43021666Y-22582142D01*
X43069285Y-22629761D01*
X43164523Y-22677380D01*
X43545476Y-22677380D01*
X43545476Y-21677380D01*
X43212142Y-21677380D01*
X43116904Y-21725000D01*
X43069285Y-21772619D01*
X43021666Y-21867857D01*
X43021666Y-21963095D01*
X43069285Y-22058333D01*
X43116904Y-22105952D01*
X43212142Y-22153571D01*
X43545476Y-22153571D01*
X42069285Y-22677380D02*
X42545476Y-22677380D01*
X42545476Y-21677380D01*
X41735952Y-22153571D02*
X41402619Y-22153571D01*
X41259761Y-22677380D02*
X41735952Y-22677380D01*
X41735952Y-21677380D01*
X41259761Y-21677380D01*
X39909523Y-39187380D02*
X40242857Y-38711190D01*
X40480952Y-39187380D02*
X40480952Y-38187380D01*
X40100000Y-38187380D01*
X40004761Y-38235000D01*
X39957142Y-38282619D01*
X39909523Y-38377857D01*
X39909523Y-38520714D01*
X39957142Y-38615952D01*
X40004761Y-38663571D01*
X40100000Y-38711190D01*
X40480952Y-38711190D01*
X39528571Y-38901666D02*
X39052380Y-38901666D01*
X39623809Y-39187380D02*
X39290476Y-38187380D01*
X38957142Y-39187380D01*
X38861904Y-39282619D02*
X38100000Y-39282619D01*
X37861904Y-38663571D02*
X37528571Y-38663571D01*
X37385714Y-39187380D02*
X37861904Y-39187380D01*
X37861904Y-38187380D01*
X37385714Y-38187380D01*
X37052380Y-38187380D02*
X36385714Y-39187380D01*
X36385714Y-38187380D02*
X37052380Y-39187380D01*
X36147619Y-38187380D02*
X35576190Y-38187380D01*
X35861904Y-39187380D02*
X35861904Y-38187380D01*
X36321904Y-40187619D02*
X36274285Y-40140000D01*
X36179047Y-40092380D01*
X35940952Y-40092380D01*
X35845714Y-40140000D01*
X35798095Y-40187619D01*
X35750476Y-40282857D01*
X35750476Y-40378095D01*
X35798095Y-40520952D01*
X36369523Y-41092380D01*
X35750476Y-41092380D01*
X34798095Y-41092380D02*
X35369523Y-41092380D01*
X35083809Y-41092380D02*
X35083809Y-40092380D01*
X35179047Y-40235238D01*
X35274285Y-40330476D01*
X35369523Y-40378095D01*
X31241904Y-42727619D02*
X31194285Y-42680000D01*
X31099047Y-42632380D01*
X30860952Y-42632380D01*
X30765714Y-42680000D01*
X30718095Y-42727619D01*
X30670476Y-42822857D01*
X30670476Y-42918095D01*
X30718095Y-43060952D01*
X31289523Y-43632380D01*
X30670476Y-43632380D01*
X30289523Y-42727619D02*
X30241904Y-42680000D01*
X30146666Y-42632380D01*
X29908571Y-42632380D01*
X29813333Y-42680000D01*
X29765714Y-42727619D01*
X29718095Y-42822857D01*
X29718095Y-42918095D01*
X29765714Y-43060952D01*
X30337142Y-43632380D01*
X29718095Y-43632380D01*
X38861904Y-40187619D02*
X38814285Y-40140000D01*
X38719047Y-40092380D01*
X38480952Y-40092380D01*
X38385714Y-40140000D01*
X38338095Y-40187619D01*
X38290476Y-40282857D01*
X38290476Y-40378095D01*
X38338095Y-40520952D01*
X38909523Y-41092380D01*
X38290476Y-41092380D01*
X37671428Y-40092380D02*
X37576190Y-40092380D01*
X37480952Y-40140000D01*
X37433333Y-40187619D01*
X37385714Y-40282857D01*
X37338095Y-40473333D01*
X37338095Y-40711428D01*
X37385714Y-40901904D01*
X37433333Y-40997142D01*
X37480952Y-41044761D01*
X37576190Y-41092380D01*
X37671428Y-41092380D01*
X37766666Y-41044761D01*
X37814285Y-40997142D01*
X37861904Y-40901904D01*
X37909523Y-40711428D01*
X37909523Y-40473333D01*
X37861904Y-40282857D01*
X37814285Y-40187619D01*
X37766666Y-40140000D01*
X37671428Y-40092380D01*
X40830476Y-41092380D02*
X41401904Y-41092380D01*
X41116190Y-41092380D02*
X41116190Y-40092380D01*
X41211428Y-40235238D01*
X41306666Y-40330476D01*
X41401904Y-40378095D01*
X40354285Y-41092380D02*
X40163809Y-41092380D01*
X40068571Y-41044761D01*
X40020952Y-40997142D01*
X39925714Y-40854285D01*
X39878095Y-40663809D01*
X39878095Y-40282857D01*
X39925714Y-40187619D01*
X39973333Y-40140000D01*
X40068571Y-40092380D01*
X40259047Y-40092380D01*
X40354285Y-40140000D01*
X40401904Y-40187619D01*
X40449523Y-40282857D01*
X40449523Y-40520952D01*
X40401904Y-40616190D01*
X40354285Y-40663809D01*
X40259047Y-40711428D01*
X40068571Y-40711428D01*
X39973333Y-40663809D01*
X39925714Y-40616190D01*
X39878095Y-40520952D01*
X81406904Y-40140000D02*
X81502142Y-40092380D01*
X81645000Y-40092380D01*
X81787857Y-40140000D01*
X81883095Y-40235238D01*
X81930714Y-40330476D01*
X81978333Y-40520952D01*
X81978333Y-40663809D01*
X81930714Y-40854285D01*
X81883095Y-40949523D01*
X81787857Y-41044761D01*
X81645000Y-41092380D01*
X81549761Y-41092380D01*
X81406904Y-41044761D01*
X81359285Y-40997142D01*
X81359285Y-40663809D01*
X81549761Y-40663809D01*
X80930714Y-41092380D02*
X80930714Y-40092380D01*
X80359285Y-41092380D01*
X80359285Y-40092380D01*
X79883095Y-41092380D02*
X79883095Y-40092380D01*
X79645000Y-40092380D01*
X79502142Y-40140000D01*
X79406904Y-40235238D01*
X79359285Y-40330476D01*
X79311666Y-40520952D01*
X79311666Y-40663809D01*
X79359285Y-40854285D01*
X79406904Y-40949523D01*
X79502142Y-41044761D01*
X79645000Y-41092380D01*
X79883095Y-41092380D01*
X81406904Y-50300000D02*
X81502142Y-50252380D01*
X81645000Y-50252380D01*
X81787857Y-50300000D01*
X81883095Y-50395238D01*
X81930714Y-50490476D01*
X81978333Y-50680952D01*
X81978333Y-50823809D01*
X81930714Y-51014285D01*
X81883095Y-51109523D01*
X81787857Y-51204761D01*
X81645000Y-51252380D01*
X81549761Y-51252380D01*
X81406904Y-51204761D01*
X81359285Y-51157142D01*
X81359285Y-50823809D01*
X81549761Y-50823809D01*
X80930714Y-51252380D02*
X80930714Y-50252380D01*
X80359285Y-51252380D01*
X80359285Y-50252380D01*
X79883095Y-51252380D02*
X79883095Y-50252380D01*
X79645000Y-50252380D01*
X79502142Y-50300000D01*
X79406904Y-50395238D01*
X79359285Y-50490476D01*
X79311666Y-50680952D01*
X79311666Y-50823809D01*
X79359285Y-51014285D01*
X79406904Y-51109523D01*
X79502142Y-51204761D01*
X79645000Y-51252380D01*
X79883095Y-51252380D01*
X81930714Y-48331428D02*
X81168809Y-48331428D01*
X81549761Y-48712380D02*
X81549761Y-47950476D01*
X80216428Y-47712380D02*
X80692619Y-47712380D01*
X80740238Y-48188571D01*
X80692619Y-48140952D01*
X80597380Y-48093333D01*
X80359285Y-48093333D01*
X80264047Y-48140952D01*
X80216428Y-48188571D01*
X80168809Y-48283809D01*
X80168809Y-48521904D01*
X80216428Y-48617142D01*
X80264047Y-48664761D01*
X80359285Y-48712380D01*
X80597380Y-48712380D01*
X80692619Y-48664761D01*
X80740238Y-48617142D01*
X79883095Y-47712380D02*
X79549761Y-48712380D01*
X79216428Y-47712380D01*
X90185714Y-50252380D02*
X89614285Y-50252380D01*
X89900000Y-51252380D02*
X89900000Y-50252380D01*
X88709523Y-51157142D02*
X88757142Y-51204761D01*
X88900000Y-51252380D01*
X88995238Y-51252380D01*
X89138095Y-51204761D01*
X89233333Y-51109523D01*
X89280952Y-51014285D01*
X89328571Y-50823809D01*
X89328571Y-50680952D01*
X89280952Y-50490476D01*
X89233333Y-50395238D01*
X89138095Y-50300000D01*
X88995238Y-50252380D01*
X88900000Y-50252380D01*
X88757142Y-50300000D01*
X88709523Y-50347619D01*
X88280952Y-51252380D02*
X88280952Y-50252380D01*
X87709523Y-51252380D02*
X88138095Y-50680952D01*
X87709523Y-50252380D02*
X88280952Y-50823809D01*
X90209523Y-47712380D02*
X89638095Y-47712380D01*
X89923809Y-48712380D02*
X89923809Y-47712380D01*
X89304761Y-48712380D02*
X89304761Y-47712380D01*
X89066666Y-47712380D01*
X88923809Y-47760000D01*
X88828571Y-47855238D01*
X88780952Y-47950476D01*
X88733333Y-48140952D01*
X88733333Y-48283809D01*
X88780952Y-48474285D01*
X88828571Y-48569523D01*
X88923809Y-48664761D01*
X89066666Y-48712380D01*
X89304761Y-48712380D01*
X88114285Y-47712380D02*
X87923809Y-47712380D01*
X87828571Y-47760000D01*
X87733333Y-47855238D01*
X87685714Y-48045714D01*
X87685714Y-48379047D01*
X87733333Y-48569523D01*
X87828571Y-48664761D01*
X87923809Y-48712380D01*
X88114285Y-48712380D01*
X88209523Y-48664761D01*
X88304761Y-48569523D01*
X88352380Y-48379047D01*
X88352380Y-48045714D01*
X88304761Y-47855238D01*
X88209523Y-47760000D01*
X88114285Y-47712380D01*
X90233333Y-45172380D02*
X89661904Y-45172380D01*
X89947619Y-46172380D02*
X89947619Y-45172380D01*
X89328571Y-46172380D02*
X89328571Y-45172380D01*
X88995238Y-45886666D01*
X88661904Y-45172380D01*
X88661904Y-46172380D01*
X88233333Y-46124761D02*
X88090476Y-46172380D01*
X87852380Y-46172380D01*
X87757142Y-46124761D01*
X87709523Y-46077142D01*
X87661904Y-45981904D01*
X87661904Y-45886666D01*
X87709523Y-45791428D01*
X87757142Y-45743809D01*
X87852380Y-45696190D01*
X88042857Y-45648571D01*
X88138095Y-45600952D01*
X88185714Y-45553333D01*
X88233333Y-45458095D01*
X88233333Y-45362857D01*
X88185714Y-45267619D01*
X88138095Y-45220000D01*
X88042857Y-45172380D01*
X87804761Y-45172380D01*
X87661904Y-45220000D01*
X89923809Y-40092380D02*
X89352380Y-40092380D01*
X89638095Y-41092380D02*
X89638095Y-40092380D01*
X89019047Y-41092380D02*
X89019047Y-40092380D01*
X88780952Y-40092380D01*
X88638095Y-40140000D01*
X88542857Y-40235238D01*
X88495238Y-40330476D01*
X88447619Y-40520952D01*
X88447619Y-40663809D01*
X88495238Y-40854285D01*
X88542857Y-40949523D01*
X88638095Y-41044761D01*
X88780952Y-41092380D01*
X89019047Y-41092380D01*
X88019047Y-41092380D02*
X88019047Y-40092380D01*
X73642857Y-115285714D02*
X73642857Y-115952380D01*
X73880952Y-114904761D02*
X74119047Y-115619047D01*
X73500000Y-115619047D01*
X73119047Y-115952380D02*
X73119047Y-115285714D01*
X73119047Y-115380952D02*
X73071428Y-115333333D01*
X72976190Y-115285714D01*
X72833333Y-115285714D01*
X72738095Y-115333333D01*
X72690476Y-115428571D01*
X72690476Y-115952380D01*
X72690476Y-115428571D02*
X72642857Y-115333333D01*
X72547619Y-115285714D01*
X72404761Y-115285714D01*
X72309523Y-115333333D01*
X72261904Y-115428571D01*
X72261904Y-115952380D01*
X71785714Y-115952380D02*
X71785714Y-115285714D01*
X71785714Y-115380952D02*
X71738095Y-115333333D01*
X71642857Y-115285714D01*
X71500000Y-115285714D01*
X71404761Y-115333333D01*
X71357142Y-115428571D01*
X71357142Y-115952380D01*
X71357142Y-115428571D02*
X71309523Y-115333333D01*
X71214285Y-115285714D01*
X71071428Y-115285714D01*
X70976190Y-115333333D01*
X70928571Y-115428571D01*
X70928571Y-115952380D01*
X69500000Y-116000000D02*
X69500000Y-114500000D01*
X69000000Y-116000000D02*
X70000000Y-116000000D01*
X69000000Y-114500000D02*
X70000000Y-114500000D01*
X67619047Y-111285714D02*
X67619047Y-111952380D01*
X67857142Y-110904761D02*
X68095238Y-111619047D01*
X67476190Y-111619047D01*
X67047619Y-111952380D02*
X66857142Y-111952380D01*
X66761904Y-111904761D01*
X66714285Y-111857142D01*
X66619047Y-111714285D01*
X66571428Y-111523809D01*
X66571428Y-111142857D01*
X66619047Y-111047619D01*
X66666666Y-111000000D01*
X66761904Y-110952380D01*
X66952380Y-110952380D01*
X67047619Y-111000000D01*
X67095238Y-111047619D01*
X67142857Y-111142857D01*
X67142857Y-111380952D01*
X67095238Y-111476190D01*
X67047619Y-111523809D01*
X66952380Y-111571428D01*
X66761904Y-111571428D01*
X66666666Y-111523809D01*
X66619047Y-111476190D01*
X66571428Y-111380952D01*
X66142857Y-111952380D02*
X66142857Y-111285714D01*
X66142857Y-111380952D02*
X66095238Y-111333333D01*
X66000000Y-111285714D01*
X65857142Y-111285714D01*
X65761904Y-111333333D01*
X65714285Y-111428571D01*
X65714285Y-111952380D01*
X65714285Y-111428571D02*
X65666666Y-111333333D01*
X65571428Y-111285714D01*
X65428571Y-111285714D01*
X65333333Y-111333333D01*
X65285714Y-111428571D01*
X65285714Y-111952380D01*
X64809523Y-111952380D02*
X64809523Y-111285714D01*
X64809523Y-111380952D02*
X64761904Y-111333333D01*
X64666666Y-111285714D01*
X64523809Y-111285714D01*
X64428571Y-111333333D01*
X64380952Y-111428571D01*
X64380952Y-111952380D01*
X64380952Y-111428571D02*
X64333333Y-111333333D01*
X64238095Y-111285714D01*
X64095238Y-111285714D01*
X64000000Y-111333333D01*
X63952380Y-111428571D01*
X63952380Y-111952380D01*
X64000000Y-113000000D02*
X68000000Y-113000000D01*
X68000000Y-113500000D02*
X68000000Y-112500000D01*
X64000000Y-113500000D02*
X64000000Y-112500000D01*
X64000000Y-116000000D02*
X64000000Y-114500000D01*
X68000000Y-116000000D02*
X64000000Y-116000000D01*
X68000000Y-114500000D02*
X68000000Y-116000000D01*
X64000000Y-114500000D02*
X68000000Y-114500000D01*
X66380952Y-109071428D02*
X65619047Y-109071428D01*
X66000000Y-109452380D02*
X66000000Y-108690476D01*
X29500000Y-88500000D02*
X30500000Y-87500000D01*
X30500000Y-88500000D02*
X31500000Y-87500000D01*
X79500000Y-87500000D02*
X78500000Y-88500000D01*
X80500000Y-87500000D02*
X79500000Y-88500000D01*
X33210476Y-89352380D02*
X33781904Y-89352380D01*
X33496190Y-89352380D02*
X33496190Y-88352380D01*
X33591428Y-88495238D01*
X33686666Y-88590476D01*
X33781904Y-88638095D01*
X32353333Y-88352380D02*
X32543809Y-88352380D01*
X32639047Y-88400000D01*
X32686666Y-88447619D01*
X32781904Y-88590476D01*
X32829523Y-88780952D01*
X32829523Y-89161904D01*
X32781904Y-89257142D01*
X32734285Y-89304761D01*
X32639047Y-89352380D01*
X32448571Y-89352380D01*
X32353333Y-89304761D01*
X32305714Y-89257142D01*
X32258095Y-89161904D01*
X32258095Y-88923809D01*
X32305714Y-88828571D01*
X32353333Y-88780952D01*
X32448571Y-88733333D01*
X32639047Y-88733333D01*
X32734285Y-88780952D01*
X32781904Y-88828571D01*
X32829523Y-88923809D01*
X32734285Y-46172380D02*
X33305714Y-46172380D01*
X33020000Y-46172380D02*
X33020000Y-45172380D01*
X33115238Y-45315238D01*
X33210476Y-45410476D01*
X33305714Y-45458095D01*
X37020476Y-89352380D02*
X37591904Y-89352380D01*
X37306190Y-89352380D02*
X37306190Y-88352380D01*
X37401428Y-88495238D01*
X37496666Y-88590476D01*
X37591904Y-88638095D01*
X36163333Y-88352380D02*
X36353809Y-88352380D01*
X36449047Y-88400000D01*
X36496666Y-88447619D01*
X36591904Y-88590476D01*
X36639523Y-88780952D01*
X36639523Y-89161904D01*
X36591904Y-89257142D01*
X36544285Y-89304761D01*
X36449047Y-89352380D01*
X36258571Y-89352380D01*
X36163333Y-89304761D01*
X36115714Y-89257142D01*
X36068095Y-89161904D01*
X36068095Y-88923809D01*
X36115714Y-88828571D01*
X36163333Y-88780952D01*
X36258571Y-88733333D01*
X36449047Y-88733333D01*
X36544285Y-88780952D01*
X36591904Y-88828571D01*
X36639523Y-88923809D01*
X46547619Y-128404761D02*
X46500000Y-128452380D01*
X46452380Y-128547619D01*
X46452380Y-128785714D01*
X46500000Y-128880952D01*
X46547619Y-128928571D01*
X46642857Y-128976190D01*
X46738095Y-128976190D01*
X46880952Y-128928571D01*
X47452380Y-128357142D01*
X47452380Y-128976190D01*
X47452380Y-129928571D02*
X47452380Y-129357142D01*
X47452380Y-129642857D02*
X46452380Y-129642857D01*
X46595238Y-129547619D01*
X46690476Y-129452380D01*
X46738095Y-129357142D01*
X47452380Y-130357142D02*
X46785714Y-130357142D01*
X46880952Y-130357142D02*
X46833333Y-130404761D01*
X46785714Y-130500000D01*
X46785714Y-130642857D01*
X46833333Y-130738095D01*
X46928571Y-130785714D01*
X47452380Y-130785714D01*
X46928571Y-130785714D02*
X46833333Y-130833333D01*
X46785714Y-130928571D01*
X46785714Y-131071428D01*
X46833333Y-131166666D01*
X46928571Y-131214285D01*
X47452380Y-131214285D01*
X47452380Y-131690476D02*
X46785714Y-131690476D01*
X46880952Y-131690476D02*
X46833333Y-131738095D01*
X46785714Y-131833333D01*
X46785714Y-131976190D01*
X46833333Y-132071428D01*
X46928571Y-132119047D01*
X47452380Y-132119047D01*
X46928571Y-132119047D02*
X46833333Y-132166666D01*
X46785714Y-132261904D01*
X46785714Y-132404761D01*
X46833333Y-132500000D01*
X46928571Y-132547619D01*
X47452380Y-132547619D01*
X46452380Y-144761904D02*
X46452380Y-144190476D01*
X46452380Y-144476190D02*
X45452380Y-144476190D01*
X45595238Y-144380952D01*
X45690476Y-144285714D01*
X45738095Y-144190476D01*
X45452380Y-145666666D02*
X45452380Y-145190476D01*
X45928571Y-145142857D01*
X45880952Y-145190476D01*
X45833333Y-145285714D01*
X45833333Y-145523809D01*
X45880952Y-145619047D01*
X45928571Y-145666666D01*
X46023809Y-145714285D01*
X46261904Y-145714285D01*
X46357142Y-145666666D01*
X46404761Y-145619047D01*
X46452380Y-145523809D01*
X46452380Y-145285714D01*
X46404761Y-145190476D01*
X46357142Y-145142857D01*
X46357142Y-146142857D02*
X46404761Y-146190476D01*
X46452380Y-146142857D01*
X46404761Y-146095238D01*
X46357142Y-146142857D01*
X46452380Y-146142857D01*
X45452380Y-147047619D02*
X45452380Y-146857142D01*
X45500000Y-146761904D01*
X45547619Y-146714285D01*
X45690476Y-146619047D01*
X45880952Y-146571428D01*
X46261904Y-146571428D01*
X46357142Y-146619047D01*
X46404761Y-146666666D01*
X46452380Y-146761904D01*
X46452380Y-146952380D01*
X46404761Y-147047619D01*
X46357142Y-147095238D01*
X46261904Y-147142857D01*
X46023809Y-147142857D01*
X45928571Y-147095238D01*
X45880952Y-147047619D01*
X45833333Y-146952380D01*
X45833333Y-146761904D01*
X45880952Y-146666666D01*
X45928571Y-146619047D01*
X46023809Y-146571428D01*
X46452380Y-147571428D02*
X45785714Y-147571428D01*
X45880952Y-147571428D02*
X45833333Y-147619047D01*
X45785714Y-147714285D01*
X45785714Y-147857142D01*
X45833333Y-147952380D01*
X45928571Y-148000000D01*
X46452380Y-148000000D01*
X45928571Y-148000000D02*
X45833333Y-148047619D01*
X45785714Y-148142857D01*
X45785714Y-148285714D01*
X45833333Y-148380952D01*
X45928571Y-148428571D01*
X46452380Y-148428571D01*
X46452380Y-148904761D02*
X45785714Y-148904761D01*
X45880952Y-148904761D02*
X45833333Y-148952380D01*
X45785714Y-149047619D01*
X45785714Y-149190476D01*
X45833333Y-149285714D01*
X45928571Y-149333333D01*
X46452380Y-149333333D01*
X45928571Y-149333333D02*
X45833333Y-149380952D01*
X45785714Y-149476190D01*
X45785714Y-149619047D01*
X45833333Y-149714285D01*
X45928571Y-149761904D01*
X46452380Y-149761904D01*
X45095238Y-111047619D02*
X45047619Y-111000000D01*
X44952380Y-110952380D01*
X44714285Y-110952380D01*
X44619047Y-111000000D01*
X44571428Y-111047619D01*
X44523809Y-111142857D01*
X44523809Y-111238095D01*
X44571428Y-111380952D01*
X45142857Y-111952380D01*
X44523809Y-111952380D01*
X43619047Y-110952380D02*
X44095238Y-110952380D01*
X44142857Y-111428571D01*
X44095238Y-111380952D01*
X44000000Y-111333333D01*
X43761904Y-111333333D01*
X43666666Y-111380952D01*
X43619047Y-111428571D01*
X43571428Y-111523809D01*
X43571428Y-111761904D01*
X43619047Y-111857142D01*
X43666666Y-111904761D01*
X43761904Y-111952380D01*
X44000000Y-111952380D01*
X44095238Y-111904761D01*
X44142857Y-111857142D01*
X43142857Y-111952380D02*
X43142857Y-111285714D01*
X43142857Y-111380952D02*
X43095238Y-111333333D01*
X43000000Y-111285714D01*
X42857142Y-111285714D01*
X42761904Y-111333333D01*
X42714285Y-111428571D01*
X42714285Y-111952380D01*
X42714285Y-111428571D02*
X42666666Y-111333333D01*
X42571428Y-111285714D01*
X42428571Y-111285714D01*
X42333333Y-111333333D01*
X42285714Y-111428571D01*
X42285714Y-111952380D01*
X41809523Y-111952380D02*
X41809523Y-111285714D01*
X41809523Y-111380952D02*
X41761904Y-111333333D01*
X41666666Y-111285714D01*
X41523809Y-111285714D01*
X41428571Y-111333333D01*
X41380952Y-111428571D01*
X41380952Y-111952380D01*
X41380952Y-111428571D02*
X41333333Y-111333333D01*
X41238095Y-111285714D01*
X41095238Y-111285714D01*
X41000000Y-111333333D01*
X40952380Y-111428571D01*
X40952380Y-111952380D01*
X31000000Y-112500000D02*
X31500000Y-113000000D01*
X31000000Y-112500000D02*
X31500000Y-112000000D01*
X55000000Y-112500000D02*
X31000000Y-112500000D01*
X55000000Y-112000000D02*
X55000000Y-113000000D01*
X57380952Y-136952380D02*
X56714285Y-136952380D01*
X57142857Y-137952380D01*
X56333333Y-137857142D02*
X56285714Y-137904761D01*
X56333333Y-137952380D01*
X56380952Y-137904761D01*
X56333333Y-137857142D01*
X56333333Y-137952380D01*
X55380952Y-136952380D02*
X55857142Y-136952380D01*
X55904761Y-137428571D01*
X55857142Y-137380952D01*
X55761904Y-137333333D01*
X55523809Y-137333333D01*
X55428571Y-137380952D01*
X55380952Y-137428571D01*
X55333333Y-137523809D01*
X55333333Y-137761904D01*
X55380952Y-137857142D01*
X55428571Y-137904761D01*
X55523809Y-137952380D01*
X55761904Y-137952380D01*
X55857142Y-137904761D01*
X55904761Y-137857142D01*
X54904761Y-137952380D02*
X54904761Y-137285714D01*
X54904761Y-137380952D02*
X54857142Y-137333333D01*
X54761904Y-137285714D01*
X54619047Y-137285714D01*
X54523809Y-137333333D01*
X54476190Y-137428571D01*
X54476190Y-137952380D01*
X54476190Y-137428571D02*
X54428571Y-137333333D01*
X54333333Y-137285714D01*
X54190476Y-137285714D01*
X54095238Y-137333333D01*
X54047619Y-137428571D01*
X54047619Y-137952380D01*
X53571428Y-137952380D02*
X53571428Y-137285714D01*
X53571428Y-137380952D02*
X53523809Y-137333333D01*
X53428571Y-137285714D01*
X53285714Y-137285714D01*
X53190476Y-137333333D01*
X53142857Y-137428571D01*
X53142857Y-137952380D01*
X53142857Y-137428571D02*
X53095238Y-137333333D01*
X53000000Y-137285714D01*
X52857142Y-137285714D01*
X52761904Y-137333333D01*
X52714285Y-137428571D01*
X52714285Y-137952380D01*
X48000000Y-149000000D02*
X49000000Y-148000000D01*
X48000000Y-148000000D02*
X49000000Y-147000000D01*
X48500000Y-147000000D02*
X48500000Y-122500000D01*
X49000000Y-122500000D02*
X48000000Y-122500000D01*
X49000000Y-143400000D02*
X48000000Y-143400000D01*
X51500000Y-138500000D02*
X59000000Y-138500000D01*
X51500000Y-139000000D02*
X51500000Y-138000000D01*
X59000000Y-139000000D02*
X59000000Y-138000000D01*
X67746428Y-132357380D02*
X68222619Y-132357380D01*
X68270238Y-132833571D01*
X68222619Y-132785952D01*
X68127380Y-132738333D01*
X67889285Y-132738333D01*
X67794047Y-132785952D01*
X67746428Y-132833571D01*
X67698809Y-132928809D01*
X67698809Y-133166904D01*
X67746428Y-133262142D01*
X67794047Y-133309761D01*
X67889285Y-133357380D01*
X68127380Y-133357380D01*
X68222619Y-133309761D01*
X68270238Y-133262142D01*
X67079761Y-132357380D02*
X66984523Y-132357380D01*
X66889285Y-132405000D01*
X66841666Y-132452619D01*
X66794047Y-132547857D01*
X66746428Y-132738333D01*
X66746428Y-132976428D01*
X66794047Y-133166904D01*
X66841666Y-133262142D01*
X66889285Y-133309761D01*
X66984523Y-133357380D01*
X67079761Y-133357380D01*
X67175000Y-133309761D01*
X67222619Y-133262142D01*
X67270238Y-133166904D01*
X67317857Y-132976428D01*
X67317857Y-132738333D01*
X67270238Y-132547857D01*
X67222619Y-132452619D01*
X67175000Y-132405000D01*
X67079761Y-132357380D01*
X66317857Y-133357380D02*
X66317857Y-132690714D01*
X66317857Y-132785952D02*
X66270238Y-132738333D01*
X66175000Y-132690714D01*
X66032142Y-132690714D01*
X65936904Y-132738333D01*
X65889285Y-132833571D01*
X65889285Y-133357380D01*
X65889285Y-132833571D02*
X65841666Y-132738333D01*
X65746428Y-132690714D01*
X65603571Y-132690714D01*
X65508333Y-132738333D01*
X65460714Y-132833571D01*
X65460714Y-133357380D01*
X64984523Y-133357380D02*
X64984523Y-132690714D01*
X64984523Y-132785952D02*
X64936904Y-132738333D01*
X64841666Y-132690714D01*
X64698809Y-132690714D01*
X64603571Y-132738333D01*
X64555952Y-132833571D01*
X64555952Y-133357380D01*
X64555952Y-132833571D02*
X64508333Y-132738333D01*
X64413095Y-132690714D01*
X64270238Y-132690714D01*
X64175000Y-132738333D01*
X64127380Y-132833571D01*
X64127380Y-133357380D01*
X67794047Y-119355714D02*
X67794047Y-120022380D01*
X68032142Y-118974761D02*
X68270238Y-119689047D01*
X67651190Y-119689047D01*
X66794047Y-119022380D02*
X67270238Y-119022380D01*
X67317857Y-119498571D01*
X67270238Y-119450952D01*
X67175000Y-119403333D01*
X66936904Y-119403333D01*
X66841666Y-119450952D01*
X66794047Y-119498571D01*
X66746428Y-119593809D01*
X66746428Y-119831904D01*
X66794047Y-119927142D01*
X66841666Y-119974761D01*
X66936904Y-120022380D01*
X67175000Y-120022380D01*
X67270238Y-119974761D01*
X67317857Y-119927142D01*
X66317857Y-120022380D02*
X66317857Y-119355714D01*
X66317857Y-119450952D02*
X66270238Y-119403333D01*
X66175000Y-119355714D01*
X66032142Y-119355714D01*
X65936904Y-119403333D01*
X65889285Y-119498571D01*
X65889285Y-120022380D01*
X65889285Y-119498571D02*
X65841666Y-119403333D01*
X65746428Y-119355714D01*
X65603571Y-119355714D01*
X65508333Y-119403333D01*
X65460714Y-119498571D01*
X65460714Y-120022380D01*
X64984523Y-120022380D02*
X64984523Y-119355714D01*
X64984523Y-119450952D02*
X64936904Y-119403333D01*
X64841666Y-119355714D01*
X64698809Y-119355714D01*
X64603571Y-119403333D01*
X64555952Y-119498571D01*
X64555952Y-120022380D01*
X64555952Y-119498571D02*
X64508333Y-119403333D01*
X64413095Y-119355714D01*
X64270238Y-119355714D01*
X64175000Y-119403333D01*
X64127380Y-119498571D01*
X64127380Y-120022380D01*
X71977380Y-124983571D02*
X71977380Y-124507380D01*
X72453571Y-124459761D01*
X72405952Y-124507380D01*
X72358333Y-124602619D01*
X72358333Y-124840714D01*
X72405952Y-124935952D01*
X72453571Y-124983571D01*
X72548809Y-125031190D01*
X72786904Y-125031190D01*
X72882142Y-124983571D01*
X72929761Y-124935952D01*
X72977380Y-124840714D01*
X72977380Y-124602619D01*
X72929761Y-124507380D01*
X72882142Y-124459761D01*
X71977380Y-125935952D02*
X71977380Y-125459761D01*
X72453571Y-125412142D01*
X72405952Y-125459761D01*
X72358333Y-125555000D01*
X72358333Y-125793095D01*
X72405952Y-125888333D01*
X72453571Y-125935952D01*
X72548809Y-125983571D01*
X72786904Y-125983571D01*
X72882142Y-125935952D01*
X72929761Y-125888333D01*
X72977380Y-125793095D01*
X72977380Y-125555000D01*
X72929761Y-125459761D01*
X72882142Y-125412142D01*
X72977380Y-126412142D02*
X72310714Y-126412142D01*
X72405952Y-126412142D02*
X72358333Y-126459761D01*
X72310714Y-126555000D01*
X72310714Y-126697857D01*
X72358333Y-126793095D01*
X72453571Y-126840714D01*
X72977380Y-126840714D01*
X72453571Y-126840714D02*
X72358333Y-126888333D01*
X72310714Y-126983571D01*
X72310714Y-127126428D01*
X72358333Y-127221666D01*
X72453571Y-127269285D01*
X72977380Y-127269285D01*
X72977380Y-127745476D02*
X72310714Y-127745476D01*
X72405952Y-127745476D02*
X72358333Y-127793095D01*
X72310714Y-127888333D01*
X72310714Y-128031190D01*
X72358333Y-128126428D01*
X72453571Y-128174047D01*
X72977380Y-128174047D01*
X72453571Y-128174047D02*
X72358333Y-128221666D01*
X72310714Y-128316904D01*
X72310714Y-128459761D01*
X72358333Y-128555000D01*
X72453571Y-128602619D01*
X72977380Y-128602619D01*
X59912380Y-124300952D02*
X59912380Y-124110476D01*
X59960000Y-124015238D01*
X60007619Y-123967619D01*
X60150476Y-123872380D01*
X60340952Y-123824761D01*
X60721904Y-123824761D01*
X60817142Y-123872380D01*
X60864761Y-123920000D01*
X60912380Y-124015238D01*
X60912380Y-124205714D01*
X60864761Y-124300952D01*
X60817142Y-124348571D01*
X60721904Y-124396190D01*
X60483809Y-124396190D01*
X60388571Y-124348571D01*
X60340952Y-124300952D01*
X60293333Y-124205714D01*
X60293333Y-124015238D01*
X60340952Y-123920000D01*
X60388571Y-123872380D01*
X60483809Y-123824761D01*
X59912380Y-124729523D02*
X59912380Y-125348571D01*
X60293333Y-125015238D01*
X60293333Y-125158095D01*
X60340952Y-125253333D01*
X60388571Y-125300952D01*
X60483809Y-125348571D01*
X60721904Y-125348571D01*
X60817142Y-125300952D01*
X60864761Y-125253333D01*
X60912380Y-125158095D01*
X60912380Y-124872380D01*
X60864761Y-124777142D01*
X60817142Y-124729523D01*
X60912380Y-125777142D02*
X60245714Y-125777142D01*
X60340952Y-125777142D02*
X60293333Y-125824761D01*
X60245714Y-125920000D01*
X60245714Y-126062857D01*
X60293333Y-126158095D01*
X60388571Y-126205714D01*
X60912380Y-126205714D01*
X60388571Y-126205714D02*
X60293333Y-126253333D01*
X60245714Y-126348571D01*
X60245714Y-126491428D01*
X60293333Y-126586666D01*
X60388571Y-126634285D01*
X60912380Y-126634285D01*
X60912380Y-127110476D02*
X60245714Y-127110476D01*
X60340952Y-127110476D02*
X60293333Y-127158095D01*
X60245714Y-127253333D01*
X60245714Y-127396190D01*
X60293333Y-127491428D01*
X60388571Y-127539047D01*
X60912380Y-127539047D01*
X60388571Y-127539047D02*
X60293333Y-127586666D01*
X60245714Y-127681904D01*
X60245714Y-127824761D01*
X60293333Y-127920000D01*
X60388571Y-127967619D01*
X60912380Y-127967619D01*
X68715000Y-130365000D02*
X68715000Y-131635000D01*
X64270000Y-131000000D02*
X68715000Y-131000000D01*
X64270000Y-130365000D02*
X64270000Y-131635000D01*
X61730000Y-129095000D02*
X63000000Y-129095000D01*
X61730000Y-123380000D02*
X63000000Y-123380000D01*
X62365000Y-129095000D02*
X62365000Y-123380000D01*
X67445000Y-122110000D02*
X67445000Y-120840000D01*
X64270000Y-121475000D02*
X67445000Y-121475000D01*
X64270000Y-122110000D02*
X64270000Y-120840000D01*
X69985000Y-129095000D02*
X71255000Y-129095000D01*
X70620000Y-124650000D02*
X70620000Y-129095000D01*
X69985000Y-124650000D02*
X71255000Y-124650000D01*
X66555952Y-117736428D02*
X65794047Y-117736428D01*
X66175000Y-118117380D02*
X66175000Y-117355476D01*
X64905000Y-128460000D02*
X64905000Y-129095000D01*
X65540000Y-128460000D02*
X65540000Y-129095000D01*
X66175000Y-129095000D02*
X66175000Y-128460000D01*
X68080000Y-129095000D02*
X68080000Y-128460000D01*
X66810000Y-129095000D02*
X66810000Y-128460000D01*
X67445000Y-129095000D02*
X67445000Y-128460000D01*
X64270000Y-123380000D02*
X67445000Y-123380000D01*
X64270000Y-129095000D02*
X64270000Y-123380000D01*
X68715000Y-129095000D02*
X64270000Y-129095000D01*
X68715000Y-124650000D02*
X68715000Y-129095000D01*
X67445000Y-124650000D02*
X68715000Y-124650000D01*
X67445000Y-123380000D02*
X67445000Y-124650000D01*
X64261904Y-40187619D02*
X64214285Y-40140000D01*
X64119047Y-40092380D01*
X63880952Y-40092380D01*
X63785714Y-40140000D01*
X63738095Y-40187619D01*
X63690476Y-40282857D01*
X63690476Y-40378095D01*
X63738095Y-40520952D01*
X64309523Y-41092380D01*
X63690476Y-41092380D01*
X62738095Y-41092380D02*
X63309523Y-41092380D01*
X63023809Y-41092380D02*
X63023809Y-40092380D01*
X63119047Y-40235238D01*
X63214285Y-40330476D01*
X63309523Y-40378095D01*
X66801904Y-40187619D02*
X66754285Y-40140000D01*
X66659047Y-40092380D01*
X66420952Y-40092380D01*
X66325714Y-40140000D01*
X66278095Y-40187619D01*
X66230476Y-40282857D01*
X66230476Y-40378095D01*
X66278095Y-40520952D01*
X66849523Y-41092380D01*
X66230476Y-41092380D01*
X65897142Y-40092380D02*
X65278095Y-40092380D01*
X65611428Y-40473333D01*
X65468571Y-40473333D01*
X65373333Y-40520952D01*
X65325714Y-40568571D01*
X65278095Y-40663809D01*
X65278095Y-40901904D01*
X65325714Y-40997142D01*
X65373333Y-41044761D01*
X65468571Y-41092380D01*
X65754285Y-41092380D01*
X65849523Y-41044761D01*
X65897142Y-40997142D01*
X69341904Y-40187619D02*
X69294285Y-40140000D01*
X69199047Y-40092380D01*
X68960952Y-40092380D01*
X68865714Y-40140000D01*
X68818095Y-40187619D01*
X68770476Y-40282857D01*
X68770476Y-40378095D01*
X68818095Y-40520952D01*
X69389523Y-41092380D01*
X68770476Y-41092380D01*
X67865714Y-40092380D02*
X68341904Y-40092380D01*
X68389523Y-40568571D01*
X68341904Y-40520952D01*
X68246666Y-40473333D01*
X68008571Y-40473333D01*
X67913333Y-40520952D01*
X67865714Y-40568571D01*
X67818095Y-40663809D01*
X67818095Y-40901904D01*
X67865714Y-40997142D01*
X67913333Y-41044761D01*
X68008571Y-41092380D01*
X68246666Y-41092380D01*
X68341904Y-41044761D01*
X68389523Y-40997142D01*
X71881904Y-40187619D02*
X71834285Y-40140000D01*
X71739047Y-40092380D01*
X71500952Y-40092380D01*
X71405714Y-40140000D01*
X71358095Y-40187619D01*
X71310476Y-40282857D01*
X71310476Y-40378095D01*
X71358095Y-40520952D01*
X71929523Y-41092380D01*
X71310476Y-41092380D01*
X70977142Y-40092380D02*
X70310476Y-40092380D01*
X70739047Y-41092380D01*
X71405714Y-31535714D02*
X71405714Y-32202380D01*
X71643809Y-31154761D02*
X71881904Y-31869047D01*
X71262857Y-31869047D01*
X70977142Y-31202380D02*
X70358095Y-31202380D01*
X70691428Y-31583333D01*
X70548571Y-31583333D01*
X70453333Y-31630952D01*
X70405714Y-31678571D01*
X70358095Y-31773809D01*
X70358095Y-32011904D01*
X70405714Y-32107142D01*
X70453333Y-32154761D01*
X70548571Y-32202380D01*
X70834285Y-32202380D01*
X70929523Y-32154761D01*
X70977142Y-32107142D01*
X24809523Y-84952380D02*
X24809523Y-83952380D01*
X24476190Y-84666666D01*
X24142857Y-83952380D01*
X24142857Y-84952380D01*
X23761904Y-83952380D02*
X23142857Y-83952380D01*
X23476190Y-84333333D01*
X23333333Y-84333333D01*
X23238095Y-84380952D01*
X23190476Y-84428571D01*
X23142857Y-84523809D01*
X23142857Y-84761904D01*
X23190476Y-84857142D01*
X23238095Y-84904761D01*
X23333333Y-84952380D01*
X23619047Y-84952380D01*
X23714285Y-84904761D01*
X23761904Y-84857142D01*
X52879523Y-45172380D02*
X52260476Y-45172380D01*
X52593809Y-45553333D01*
X52450952Y-45553333D01*
X52355714Y-45600952D01*
X52308095Y-45648571D01*
X52260476Y-45743809D01*
X52260476Y-45981904D01*
X52308095Y-46077142D01*
X52355714Y-46124761D01*
X52450952Y-46172380D01*
X52736666Y-46172380D01*
X52831904Y-46124761D01*
X52879523Y-46077142D01*
X51879523Y-45267619D02*
X51831904Y-45220000D01*
X51736666Y-45172380D01*
X51498571Y-45172380D01*
X51403333Y-45220000D01*
X51355714Y-45267619D01*
X51308095Y-45362857D01*
X51308095Y-45458095D01*
X51355714Y-45600952D01*
X51927142Y-46172380D01*
X51308095Y-46172380D01*
X36544285Y-46172380D02*
X37115714Y-46172380D01*
X36830000Y-46172380D02*
X36830000Y-45172380D01*
X36925238Y-45315238D01*
X37020476Y-45410476D01*
X37115714Y-45458095D01*
X56864285Y-51252380D02*
X57435714Y-51252380D01*
X57150000Y-51252380D02*
X57150000Y-50252380D01*
X57245238Y-50395238D01*
X57340476Y-50490476D01*
X57435714Y-50538095D01*
X75691904Y-50347619D02*
X75644285Y-50300000D01*
X75549047Y-50252380D01*
X75310952Y-50252380D01*
X75215714Y-50300000D01*
X75168095Y-50347619D01*
X75120476Y-50442857D01*
X75120476Y-50538095D01*
X75168095Y-50680952D01*
X75739523Y-51252380D01*
X75120476Y-51252380D01*
X74549047Y-50680952D02*
X74644285Y-50633333D01*
X74691904Y-50585714D01*
X74739523Y-50490476D01*
X74739523Y-50442857D01*
X74691904Y-50347619D01*
X74644285Y-50300000D01*
X74549047Y-50252380D01*
X74358571Y-50252380D01*
X74263333Y-50300000D01*
X74215714Y-50347619D01*
X74168095Y-50442857D01*
X74168095Y-50490476D01*
X74215714Y-50585714D01*
X74263333Y-50633333D01*
X74358571Y-50680952D01*
X74549047Y-50680952D01*
X74644285Y-50728571D01*
X74691904Y-50776190D01*
X74739523Y-50871428D01*
X74739523Y-51061904D01*
X74691904Y-51157142D01*
X74644285Y-51204761D01*
X74549047Y-51252380D01*
X74358571Y-51252380D01*
X74263333Y-51204761D01*
X74215714Y-51157142D01*
X74168095Y-51061904D01*
X74168095Y-50871428D01*
X74215714Y-50776190D01*
X74263333Y-50728571D01*
X74358571Y-50680952D01*
X75120476Y-89352380D02*
X75691904Y-89352380D01*
X75406190Y-89352380D02*
X75406190Y-88352380D01*
X75501428Y-88495238D01*
X75596666Y-88590476D01*
X75691904Y-88638095D01*
X74215714Y-88352380D02*
X74691904Y-88352380D01*
X74739523Y-88828571D01*
X74691904Y-88780952D01*
X74596666Y-88733333D01*
X74358571Y-88733333D01*
X74263333Y-88780952D01*
X74215714Y-88828571D01*
X74168095Y-88923809D01*
X74168095Y-89161904D01*
X74215714Y-89257142D01*
X74263333Y-89304761D01*
X74358571Y-89352380D01*
X74596666Y-89352380D01*
X74691904Y-89304761D01*
X74739523Y-89257142D01*
X57340476Y-89352380D02*
X57911904Y-89352380D01*
X57626190Y-89352380D02*
X57626190Y-88352380D01*
X57721428Y-88495238D01*
X57816666Y-88590476D01*
X57911904Y-88638095D01*
X56483333Y-88685714D02*
X56483333Y-89352380D01*
X56721428Y-88304761D02*
X56959523Y-89019047D01*
X56340476Y-89019047D01*
X52260476Y-89352380D02*
X52831904Y-89352380D01*
X52546190Y-89352380D02*
X52546190Y-88352380D01*
X52641428Y-88495238D01*
X52736666Y-88590476D01*
X52831904Y-88638095D01*
X51927142Y-88352380D02*
X51260476Y-88352380D01*
X51689047Y-89352380D01*
X63261904Y-31202380D02*
X63738095Y-31202380D01*
X63785714Y-31678571D01*
X63738095Y-31630952D01*
X63642857Y-31583333D01*
X63404761Y-31583333D01*
X63309523Y-31630952D01*
X63261904Y-31678571D01*
X63214285Y-31773809D01*
X63214285Y-32011904D01*
X63261904Y-32107142D01*
X63309523Y-32154761D01*
X63404761Y-32202380D01*
X63642857Y-32202380D01*
X63738095Y-32154761D01*
X63785714Y-32107142D01*
X66373333Y-31202380D02*
X65754285Y-31202380D01*
X66087619Y-31583333D01*
X65944761Y-31583333D01*
X65849523Y-31630952D01*
X65801904Y-31678571D01*
X65754285Y-31773809D01*
X65754285Y-32011904D01*
X65801904Y-32107142D01*
X65849523Y-32154761D01*
X65944761Y-32202380D01*
X66230476Y-32202380D01*
X66325714Y-32154761D01*
X66373333Y-32107142D01*
X68294285Y-32202380D02*
X68865714Y-32202380D01*
X68580000Y-32202380D02*
X68580000Y-31202380D01*
X68675238Y-31345238D01*
X68770476Y-31440476D01*
X68865714Y-31488095D01*
X70452380Y-103857142D02*
X70452380Y-104523809D01*
X71452380Y-104095238D01*
X70547619Y-104857142D02*
X70500000Y-104904761D01*
X70452380Y-105000000D01*
X70452380Y-105238095D01*
X70500000Y-105333333D01*
X70547619Y-105380952D01*
X70642857Y-105428571D01*
X70738095Y-105428571D01*
X70880952Y-105380952D01*
X71452380Y-104809523D01*
X71452380Y-105428571D01*
X71452380Y-105857142D02*
X70785714Y-105857142D01*
X70880952Y-105857142D02*
X70833333Y-105904761D01*
X70785714Y-106000000D01*
X70785714Y-106142857D01*
X70833333Y-106238095D01*
X70928571Y-106285714D01*
X71452380Y-106285714D01*
X70928571Y-106285714D02*
X70833333Y-106333333D01*
X70785714Y-106428571D01*
X70785714Y-106571428D01*
X70833333Y-106666666D01*
X70928571Y-106714285D01*
X71452380Y-106714285D01*
X71452380Y-107190476D02*
X70785714Y-107190476D01*
X70880952Y-107190476D02*
X70833333Y-107238095D01*
X70785714Y-107333333D01*
X70785714Y-107476190D01*
X70833333Y-107571428D01*
X70928571Y-107619047D01*
X71452380Y-107619047D01*
X70928571Y-107619047D02*
X70833333Y-107666666D01*
X70785714Y-107761904D01*
X70785714Y-107904761D01*
X70833333Y-108000000D01*
X70928571Y-108047619D01*
X71452380Y-108047619D01*
X68142857Y-100452380D02*
X67476190Y-100452380D01*
X67904761Y-101452380D01*
X67142857Y-100547619D02*
X67095238Y-100500000D01*
X67000000Y-100452380D01*
X66761904Y-100452380D01*
X66666666Y-100500000D01*
X66619047Y-100547619D01*
X66571428Y-100642857D01*
X66571428Y-100738095D01*
X66619047Y-100880952D01*
X67190476Y-101452380D01*
X66571428Y-101452380D01*
X66142857Y-101452380D02*
X66142857Y-100785714D01*
X66142857Y-100880952D02*
X66095238Y-100833333D01*
X66000000Y-100785714D01*
X65857142Y-100785714D01*
X65761904Y-100833333D01*
X65714285Y-100928571D01*
X65714285Y-101452380D01*
X65714285Y-100928571D02*
X65666666Y-100833333D01*
X65571428Y-100785714D01*
X65428571Y-100785714D01*
X65333333Y-100833333D01*
X65285714Y-100928571D01*
X65285714Y-101452380D01*
X64809523Y-101452380D02*
X64809523Y-100785714D01*
X64809523Y-100880952D02*
X64761904Y-100833333D01*
X64666666Y-100785714D01*
X64523809Y-100785714D01*
X64428571Y-100833333D01*
X64380952Y-100928571D01*
X64380952Y-101452380D01*
X64380952Y-100928571D02*
X64333333Y-100833333D01*
X64238095Y-100785714D01*
X64095238Y-100785714D01*
X64000000Y-100833333D01*
X63952380Y-100928571D01*
X63952380Y-101452380D01*
X64000000Y-102500000D02*
X68000000Y-102500000D01*
X68000000Y-103000000D02*
X68000000Y-102000000D01*
X64000000Y-103000000D02*
X64000000Y-102000000D01*
X69500000Y-108000000D02*
X69500000Y-104000000D01*
X69000000Y-108000000D02*
X70000000Y-108000000D01*
X69000000Y-104000000D02*
X70000000Y-104000000D01*
X64000000Y-104000000D02*
X64000000Y-108000000D01*
X68000000Y-104000000D02*
X64000000Y-104000000D01*
X68000000Y-108000000D02*
X68000000Y-104000000D01*
X64000000Y-108000000D02*
X68000000Y-108000000D01*
X81159047Y-85952380D02*
X81349523Y-85952380D01*
X81444761Y-86000000D01*
X81492380Y-86047619D01*
X81587619Y-86190476D01*
X81635238Y-86380952D01*
X81635238Y-86761904D01*
X81587619Y-86857142D01*
X81540000Y-86904761D01*
X81444761Y-86952380D01*
X81254285Y-86952380D01*
X81159047Y-86904761D01*
X81111428Y-86857142D01*
X81063809Y-86761904D01*
X81063809Y-86523809D01*
X81111428Y-86428571D01*
X81159047Y-86380952D01*
X81254285Y-86333333D01*
X81444761Y-86333333D01*
X81540000Y-86380952D01*
X81587619Y-86428571D01*
X81635238Y-86523809D01*
X80206666Y-86285714D02*
X80206666Y-86952380D01*
X80444761Y-85904761D02*
X80682857Y-86619047D01*
X80063809Y-86619047D01*
X79682857Y-86952380D02*
X79682857Y-86285714D01*
X79682857Y-86380952D02*
X79635238Y-86333333D01*
X79540000Y-86285714D01*
X79397142Y-86285714D01*
X79301904Y-86333333D01*
X79254285Y-86428571D01*
X79254285Y-86952380D01*
X79254285Y-86428571D02*
X79206666Y-86333333D01*
X79111428Y-86285714D01*
X78968571Y-86285714D01*
X78873333Y-86333333D01*
X78825714Y-86428571D01*
X78825714Y-86952380D01*
X78349523Y-86952380D02*
X78349523Y-86285714D01*
X78349523Y-86380952D02*
X78301904Y-86333333D01*
X78206666Y-86285714D01*
X78063809Y-86285714D01*
X77968571Y-86333333D01*
X77920952Y-86428571D01*
X77920952Y-86952380D01*
X77920952Y-86428571D02*
X77873333Y-86333333D01*
X77778095Y-86285714D01*
X77635238Y-86285714D01*
X77540000Y-86333333D01*
X77492380Y-86428571D01*
X77492380Y-86952380D01*
X83540000Y-88000000D02*
X80540000Y-88000000D01*
X83540000Y-88000000D02*
X82540000Y-89000000D01*
X83540000Y-88000000D02*
X82540000Y-87000000D01*
X26500000Y-88000000D02*
X27500000Y-89000000D01*
X26500000Y-88000000D02*
X27500000Y-87000000D01*
X26500000Y-88000000D02*
X29500000Y-88000000D01*
M02*
