G04 #@! TF.GenerationSoftware,KiCad,Pcbnew,(5.1.7)-1*
G04 #@! TF.CreationDate,2022-07-11T22:43:42-03:00*
G04 #@! TF.ProjectId,Squareboi2,53717561-7265-4626-9f69-322e6b696361,1*
G04 #@! TF.SameCoordinates,Original*
G04 #@! TF.FileFunction,Soldermask,Bot*
G04 #@! TF.FilePolarity,Negative*
%FSLAX46Y46*%
G04 Gerber Fmt 4.6, Leading zero omitted, Abs format (unit mm)*
G04 Created by KiCad (PCBNEW (5.1.7)-1) date 2022-07-11 22:43:42*
%MOMM*%
%LPD*%
G01*
G04 APERTURE LIST*
%ADD10C,7.900000*%
%ADD11O,2.590000X2.140000*%
%ADD12C,2.200000*%
%ADD13O,2.000000X2.000000*%
%ADD14C,2.000000*%
%ADD15C,2.100000*%
%ADD16O,2.100000X2.100000*%
%ADD17O,2.800000X2.000000*%
%ADD18C,1.822400*%
%ADD19C,3.600000*%
%ADD20C,0.100000*%
G04 APERTURE END LIST*
D10*
X55000000Y-143400000D03*
X55000000Y-122400000D03*
D11*
X22860000Y-78740000D03*
X22860000Y-76200000D03*
G36*
G01*
X21872470Y-72590000D02*
X23847530Y-72590000D01*
G75*
G02*
X24155000Y-72897470I0J-307470D01*
G01*
X24155000Y-74422530D01*
G75*
G02*
X23847530Y-74730000I-307470J0D01*
G01*
X21872470Y-74730000D01*
G75*
G02*
X21565000Y-74422530I0J307470D01*
G01*
X21565000Y-72897470D01*
G75*
G02*
X21872470Y-72590000I307470J0D01*
G01*
G37*
D12*
X26035000Y-45085000D03*
G36*
G01*
X25135000Y-41445000D02*
X26935000Y-41445000D01*
G75*
G02*
X27135000Y-41645000I0J-200000D01*
G01*
X27135000Y-43445000D01*
G75*
G02*
X26935000Y-43645000I-200000J0D01*
G01*
X25135000Y-43645000D01*
G75*
G02*
X24935000Y-43445000I0J200000D01*
G01*
X24935000Y-41645000D01*
G75*
G02*
X25135000Y-41445000I200000J0D01*
G01*
G37*
D13*
X33020000Y-39370000D03*
D14*
X22860000Y-39370000D03*
D13*
X78740000Y-77470000D03*
D14*
X88900000Y-77470000D03*
D13*
X88900000Y-62230000D03*
D14*
X78740000Y-62230000D03*
D13*
X78740000Y-66040000D03*
D14*
X88900000Y-66040000D03*
D13*
X78740000Y-73660000D03*
D14*
X88900000Y-73660000D03*
D13*
X78740000Y-69850000D03*
D14*
X88900000Y-69850000D03*
D13*
X78740000Y-58420000D03*
D14*
X88900000Y-58420000D03*
D13*
X30480000Y-24130000D03*
D14*
X30480000Y-34290000D03*
D13*
X43180000Y-34290000D03*
D14*
X43180000Y-24130000D03*
D13*
X38100000Y-33020000D03*
X35560000Y-25400000D03*
X35560000Y-33020000D03*
G36*
G01*
X37300000Y-24400000D02*
X38900000Y-24400000D01*
G75*
G02*
X39100000Y-24600000I0J-200000D01*
G01*
X39100000Y-26200000D01*
G75*
G02*
X38900000Y-26400000I-200000J0D01*
G01*
X37300000Y-26400000D01*
G75*
G02*
X37100000Y-26200000I0J200000D01*
G01*
X37100000Y-24600000D01*
G75*
G02*
X37300000Y-24400000I200000J0D01*
G01*
G37*
D15*
X83820000Y-40640000D03*
X83820000Y-43180000D03*
X83820000Y-45720000D03*
X83820000Y-48260000D03*
X83820000Y-50800000D03*
X86360000Y-40640000D03*
X86360000Y-43180000D03*
X86360000Y-45720000D03*
X86360000Y-48260000D03*
G36*
G01*
X87410000Y-50058823D02*
X87410000Y-51541177D01*
G75*
G02*
X87101177Y-51850000I-308823J0D01*
G01*
X85618823Y-51850000D01*
G75*
G02*
X85310000Y-51541177I0J308823D01*
G01*
X85310000Y-50058823D01*
G75*
G02*
X85618823Y-49750000I308823J0D01*
G01*
X87101177Y-49750000D01*
G75*
G02*
X87410000Y-50058823I0J-308823D01*
G01*
G37*
D16*
X74930000Y-53340000D03*
X74930000Y-55880000D03*
X74930000Y-58420000D03*
X74930000Y-60960000D03*
X74930000Y-63500000D03*
X74930000Y-66040000D03*
X74930000Y-68580000D03*
X74930000Y-71120000D03*
X74930000Y-73660000D03*
X74930000Y-76200000D03*
X74930000Y-78740000D03*
X74930000Y-81280000D03*
X74930000Y-83820000D03*
G36*
G01*
X75980000Y-85510000D02*
X75980000Y-87210000D01*
G75*
G02*
X75780000Y-87410000I-200000J0D01*
G01*
X74080000Y-87410000D01*
G75*
G02*
X73880000Y-87210000I0J200000D01*
G01*
X73880000Y-85510000D01*
G75*
G02*
X74080000Y-85310000I200000J0D01*
G01*
X75780000Y-85310000D01*
G75*
G02*
X75980000Y-85510000I0J-200000D01*
G01*
G37*
X57150000Y-86360000D03*
X57150000Y-83820000D03*
X57150000Y-81280000D03*
X57150000Y-78740000D03*
X57150000Y-76200000D03*
X57150000Y-73660000D03*
X57150000Y-71120000D03*
X57150000Y-68580000D03*
X57150000Y-66040000D03*
X57150000Y-63500000D03*
X57150000Y-60960000D03*
X57150000Y-58420000D03*
X57150000Y-55880000D03*
G36*
G01*
X56100000Y-54190000D02*
X56100000Y-52490000D01*
G75*
G02*
X56300000Y-52290000I200000J0D01*
G01*
X58000000Y-52290000D01*
G75*
G02*
X58200000Y-52490000I0J-200000D01*
G01*
X58200000Y-54190000D01*
G75*
G02*
X58000000Y-54390000I-200000J0D01*
G01*
X56300000Y-54390000D01*
G75*
G02*
X56100000Y-54190000I0J200000D01*
G01*
G37*
X33020000Y-43180000D03*
X35560000Y-43180000D03*
X38100000Y-43180000D03*
G36*
G01*
X39790000Y-42130000D02*
X41490000Y-42130000D01*
G75*
G02*
X41690000Y-42330000I0J-200000D01*
G01*
X41690000Y-44030000D01*
G75*
G02*
X41490000Y-44230000I-200000J0D01*
G01*
X39790000Y-44230000D01*
G75*
G02*
X39590000Y-44030000I0J200000D01*
G01*
X39590000Y-42330000D01*
G75*
G02*
X39790000Y-42130000I200000J0D01*
G01*
G37*
D17*
X33020000Y-86360000D03*
X33020000Y-83820000D03*
X33020000Y-81280000D03*
X33020000Y-78740000D03*
X33020000Y-76200000D03*
X33020000Y-73660000D03*
X33020000Y-71120000D03*
X33020000Y-68580000D03*
X33020000Y-66040000D03*
X33020000Y-63500000D03*
X33020000Y-60960000D03*
X33020000Y-58420000D03*
X33020000Y-55880000D03*
X33020000Y-53340000D03*
X33020000Y-50800000D03*
G36*
G01*
X31620000Y-49060000D02*
X31620000Y-47460000D01*
G75*
G02*
X31820000Y-47260000I200000J0D01*
G01*
X34220000Y-47260000D01*
G75*
G02*
X34420000Y-47460000I0J-200000D01*
G01*
X34420000Y-49060000D01*
G75*
G02*
X34220000Y-49260000I-200000J0D01*
G01*
X31820000Y-49260000D01*
G75*
G02*
X31620000Y-49060000I0J200000D01*
G01*
G37*
G36*
G01*
X26890000Y-51650000D02*
X26890000Y-49950000D01*
G75*
G02*
X27090000Y-49750000I200000J0D01*
G01*
X28790000Y-49750000D01*
G75*
G02*
X28990000Y-49950000I0J-200000D01*
G01*
X28990000Y-51650000D01*
G75*
G02*
X28790000Y-51850000I-200000J0D01*
G01*
X27090000Y-51850000D01*
G75*
G02*
X26890000Y-51650000I0J200000D01*
G01*
G37*
D14*
X85050000Y-31750000D03*
G36*
G01*
X81550000Y-32550000D02*
X81550000Y-30950000D01*
G75*
G02*
X81750000Y-30750000I200000J0D01*
G01*
X83350000Y-30750000D01*
G75*
G02*
X83550000Y-30950000I0J-200000D01*
G01*
X83550000Y-32550000D01*
G75*
G02*
X83350000Y-32750000I-200000J0D01*
G01*
X81750000Y-32750000D01*
G75*
G02*
X81550000Y-32550000I0J200000D01*
G01*
G37*
D15*
X81661000Y-23241000D03*
D17*
X52070000Y-48260000D03*
X36830000Y-86360000D03*
X52070000Y-50800000D03*
X36830000Y-83820000D03*
X52070000Y-53340000D03*
X36830000Y-81280000D03*
X52070000Y-55880000D03*
X36830000Y-78740000D03*
X52070000Y-58420000D03*
X36830000Y-76200000D03*
X52070000Y-60960000D03*
X36830000Y-73660000D03*
X52070000Y-63500000D03*
X36830000Y-71120000D03*
X52070000Y-66040000D03*
X36830000Y-68580000D03*
X52070000Y-68580000D03*
X36830000Y-66040000D03*
X52070000Y-71120000D03*
X36830000Y-63500000D03*
X52070000Y-73660000D03*
X36830000Y-60960000D03*
X52070000Y-76200000D03*
X36830000Y-58420000D03*
X52070000Y-78740000D03*
X36830000Y-55880000D03*
X52070000Y-81280000D03*
X36830000Y-53340000D03*
X52070000Y-83820000D03*
X36830000Y-50800000D03*
X52070000Y-86360000D03*
G36*
G01*
X35430000Y-49060000D02*
X35430000Y-47460000D01*
G75*
G02*
X35630000Y-47260000I200000J0D01*
G01*
X38030000Y-47260000D01*
G75*
G02*
X38230000Y-47460000I0J-200000D01*
G01*
X38230000Y-49060000D01*
G75*
G02*
X38030000Y-49260000I-200000J0D01*
G01*
X35630000Y-49260000D01*
G75*
G02*
X35430000Y-49060000I0J200000D01*
G01*
G37*
D18*
X76200000Y-29845000D03*
X76200000Y-32385000D03*
X76200000Y-34925000D03*
X76200000Y-37465000D03*
X76200000Y-40005000D03*
X73660000Y-27305000D03*
X73660000Y-32385000D03*
X73660000Y-34925000D03*
X73660000Y-37465000D03*
X73660000Y-40005000D03*
X73660000Y-42545000D03*
X73660000Y-45085000D03*
X71120000Y-45085000D03*
X68580000Y-45085000D03*
X66040000Y-45085000D03*
X63500000Y-45085000D03*
X60960000Y-45085000D03*
X76200000Y-42545000D03*
X71120000Y-42545000D03*
X68580000Y-42545000D03*
X66040000Y-42545000D03*
X63500000Y-42545000D03*
X60960000Y-42545000D03*
X58420000Y-42545000D03*
X58420000Y-40005000D03*
X58420000Y-37465000D03*
X58420000Y-34925000D03*
X58420000Y-32385000D03*
X58420000Y-29845000D03*
X60960000Y-40005000D03*
X60960000Y-37465000D03*
X60960000Y-34925000D03*
X60960000Y-32385000D03*
X60960000Y-29845000D03*
X71120000Y-27305000D03*
X68580000Y-27305000D03*
X60960000Y-27305000D03*
X63500000Y-27305000D03*
X66040000Y-27305000D03*
X73660000Y-29845000D03*
X71120000Y-29845000D03*
X63500000Y-29845000D03*
X66040000Y-29845000D03*
G36*
G01*
X67668800Y-30556200D02*
X67668800Y-29133800D01*
G75*
G02*
X67868800Y-28933800I200000J0D01*
G01*
X69291200Y-28933800D01*
G75*
G02*
X69491200Y-29133800I0J-200000D01*
G01*
X69491200Y-30556200D01*
G75*
G02*
X69291200Y-30756200I-200000J0D01*
G01*
X67868800Y-30756200D01*
G75*
G02*
X67668800Y-30556200I0J200000D01*
G01*
G37*
D19*
X87000000Y-24000000D03*
X23000000Y-24000000D03*
X23000000Y-88000000D03*
X87000000Y-88000000D03*
D14*
X49570000Y-41910000D03*
G36*
G01*
X53070000Y-41110000D02*
X53070000Y-42710000D01*
G75*
G02*
X52870000Y-42910000I-200000J0D01*
G01*
X51270000Y-42910000D01*
G75*
G02*
X51070000Y-42710000I0J200000D01*
G01*
X51070000Y-41110000D01*
G75*
G02*
X51270000Y-40910000I200000J0D01*
G01*
X52870000Y-40910000D01*
G75*
G02*
X53070000Y-41110000I0J-200000D01*
G01*
G37*
X49570000Y-26670000D03*
G36*
G01*
X53070000Y-25870000D02*
X53070000Y-27470000D01*
G75*
G02*
X52870000Y-27670000I-200000J0D01*
G01*
X51270000Y-27670000D01*
G75*
G02*
X51070000Y-27470000I0J200000D01*
G01*
X51070000Y-25870000D01*
G75*
G02*
X51270000Y-25670000I200000J0D01*
G01*
X52870000Y-25670000D01*
G75*
G02*
X53070000Y-25870000I0J-200000D01*
G01*
G37*
D20*
G36*
X21566990Y-74422334D02*
G01*
X21572878Y-74482119D01*
X21590262Y-74539425D01*
X21618489Y-74592235D01*
X21656477Y-74638523D01*
X21702765Y-74676511D01*
X21755575Y-74704738D01*
X21812881Y-74722122D01*
X21872666Y-74728010D01*
X21874292Y-74729175D01*
X21874096Y-74731165D01*
X21872470Y-74732000D01*
X21789530Y-74732000D01*
X21789334Y-74731990D01*
X21740705Y-74727201D01*
X21740320Y-74727125D01*
X21699468Y-74714732D01*
X21699106Y-74714582D01*
X21661450Y-74694455D01*
X21661124Y-74694237D01*
X21628123Y-74667154D01*
X21627846Y-74666877D01*
X21600763Y-74633876D01*
X21600545Y-74633550D01*
X21580418Y-74595894D01*
X21580268Y-74595532D01*
X21567875Y-74554680D01*
X21567799Y-74554295D01*
X21563010Y-74505666D01*
X21563000Y-74505470D01*
X21563000Y-74422530D01*
X21564000Y-74420798D01*
X21566000Y-74420798D01*
X21566990Y-74422334D01*
G37*
G36*
X24156165Y-74420904D02*
G01*
X24157000Y-74422530D01*
X24157000Y-74505470D01*
X24156990Y-74505666D01*
X24152201Y-74554295D01*
X24152125Y-74554680D01*
X24139732Y-74595532D01*
X24139582Y-74595894D01*
X24119455Y-74633550D01*
X24119237Y-74633876D01*
X24092154Y-74666877D01*
X24091877Y-74667154D01*
X24058876Y-74694237D01*
X24058550Y-74694455D01*
X24020894Y-74714582D01*
X24020532Y-74714732D01*
X23979680Y-74727125D01*
X23979295Y-74727201D01*
X23930666Y-74731990D01*
X23930470Y-74732000D01*
X23847530Y-74732000D01*
X23845798Y-74731000D01*
X23845798Y-74729000D01*
X23847334Y-74728010D01*
X23907119Y-74722122D01*
X23964425Y-74704738D01*
X24017235Y-74676511D01*
X24063523Y-74638523D01*
X24101511Y-74592235D01*
X24129738Y-74539425D01*
X24147122Y-74482119D01*
X24153010Y-74422334D01*
X24154175Y-74420708D01*
X24156165Y-74420904D01*
G37*
G36*
X21874202Y-72589000D02*
G01*
X21874202Y-72591000D01*
X21872666Y-72591990D01*
X21812881Y-72597878D01*
X21755575Y-72615262D01*
X21702765Y-72643489D01*
X21656477Y-72681477D01*
X21618489Y-72727765D01*
X21590262Y-72780575D01*
X21572878Y-72837881D01*
X21566990Y-72897666D01*
X21565825Y-72899292D01*
X21563835Y-72899096D01*
X21563000Y-72897470D01*
X21563000Y-72814530D01*
X21563010Y-72814334D01*
X21567799Y-72765705D01*
X21567875Y-72765320D01*
X21580268Y-72724468D01*
X21580418Y-72724106D01*
X21600545Y-72686450D01*
X21600763Y-72686124D01*
X21627846Y-72653123D01*
X21628123Y-72652846D01*
X21661124Y-72625763D01*
X21661450Y-72625545D01*
X21699106Y-72605418D01*
X21699468Y-72605268D01*
X21740320Y-72592875D01*
X21740705Y-72592799D01*
X21789334Y-72588010D01*
X21789530Y-72588000D01*
X21872470Y-72588000D01*
X21874202Y-72589000D01*
G37*
G36*
X23930666Y-72588010D02*
G01*
X23979295Y-72592799D01*
X23979680Y-72592875D01*
X24020532Y-72605268D01*
X24020894Y-72605418D01*
X24058550Y-72625545D01*
X24058876Y-72625763D01*
X24091877Y-72652846D01*
X24092154Y-72653123D01*
X24119237Y-72686124D01*
X24119455Y-72686450D01*
X24139582Y-72724106D01*
X24139732Y-72724468D01*
X24152125Y-72765320D01*
X24152201Y-72765705D01*
X24156990Y-72814334D01*
X24157000Y-72814530D01*
X24157000Y-72897470D01*
X24156000Y-72899202D01*
X24154000Y-72899202D01*
X24153010Y-72897666D01*
X24147122Y-72837881D01*
X24129738Y-72780575D01*
X24101511Y-72727765D01*
X24063523Y-72681477D01*
X24017235Y-72643489D01*
X23964425Y-72615262D01*
X23907119Y-72597878D01*
X23847334Y-72591990D01*
X23845708Y-72590825D01*
X23845904Y-72588835D01*
X23847530Y-72588000D01*
X23930470Y-72588000D01*
X23930666Y-72588010D01*
G37*
G36*
X85311990Y-51540981D02*
G01*
X85317904Y-51601030D01*
X85335365Y-51658589D01*
X85363717Y-51711634D01*
X85401873Y-51758127D01*
X85448366Y-51796283D01*
X85501411Y-51824635D01*
X85558970Y-51842096D01*
X85619019Y-51848010D01*
X85620645Y-51849175D01*
X85620449Y-51851165D01*
X85618823Y-51852000D01*
X85536726Y-51852000D01*
X85536530Y-51851990D01*
X85487474Y-51847159D01*
X85487089Y-51847083D01*
X85445824Y-51834565D01*
X85445462Y-51834415D01*
X85407430Y-51814086D01*
X85407104Y-51813868D01*
X85373767Y-51786510D01*
X85373490Y-51786233D01*
X85346132Y-51752896D01*
X85345914Y-51752570D01*
X85325585Y-51714538D01*
X85325435Y-51714176D01*
X85312917Y-51672911D01*
X85312841Y-51672526D01*
X85308010Y-51623470D01*
X85308000Y-51623274D01*
X85308000Y-51541177D01*
X85309000Y-51539445D01*
X85311000Y-51539445D01*
X85311990Y-51540981D01*
G37*
G36*
X87411165Y-51539551D02*
G01*
X87412000Y-51541177D01*
X87412000Y-51623274D01*
X87411990Y-51623470D01*
X87407159Y-51672526D01*
X87407083Y-51672911D01*
X87394565Y-51714176D01*
X87394415Y-51714538D01*
X87374086Y-51752570D01*
X87373868Y-51752896D01*
X87346510Y-51786233D01*
X87346233Y-51786510D01*
X87312896Y-51813868D01*
X87312570Y-51814086D01*
X87274538Y-51834415D01*
X87274176Y-51834565D01*
X87232911Y-51847083D01*
X87232526Y-51847159D01*
X87183470Y-51851990D01*
X87183274Y-51852000D01*
X87101177Y-51852000D01*
X87099445Y-51851000D01*
X87099445Y-51849000D01*
X87100981Y-51848010D01*
X87161030Y-51842096D01*
X87218589Y-51824635D01*
X87271634Y-51796283D01*
X87318127Y-51758127D01*
X87356283Y-51711634D01*
X87384635Y-51658589D01*
X87402096Y-51601030D01*
X87408010Y-51540981D01*
X87409175Y-51539355D01*
X87411165Y-51539551D01*
G37*
G36*
X85620555Y-49749000D02*
G01*
X85620555Y-49751000D01*
X85619019Y-49751990D01*
X85558970Y-49757904D01*
X85501411Y-49775365D01*
X85448366Y-49803717D01*
X85401873Y-49841873D01*
X85363717Y-49888366D01*
X85335365Y-49941411D01*
X85317904Y-49998970D01*
X85311990Y-50059019D01*
X85310825Y-50060645D01*
X85308835Y-50060449D01*
X85308000Y-50058823D01*
X85308000Y-49976726D01*
X85308010Y-49976530D01*
X85312841Y-49927474D01*
X85312917Y-49927089D01*
X85325435Y-49885824D01*
X85325585Y-49885462D01*
X85345914Y-49847430D01*
X85346132Y-49847104D01*
X85373490Y-49813767D01*
X85373767Y-49813490D01*
X85407104Y-49786132D01*
X85407430Y-49785914D01*
X85445462Y-49765585D01*
X85445824Y-49765435D01*
X85487089Y-49752917D01*
X85487474Y-49752841D01*
X85536530Y-49748010D01*
X85536726Y-49748000D01*
X85618823Y-49748000D01*
X85620555Y-49749000D01*
G37*
G36*
X87183470Y-49748010D02*
G01*
X87232526Y-49752841D01*
X87232911Y-49752917D01*
X87274176Y-49765435D01*
X87274538Y-49765585D01*
X87312570Y-49785914D01*
X87312896Y-49786132D01*
X87346233Y-49813490D01*
X87346510Y-49813767D01*
X87373868Y-49847104D01*
X87374086Y-49847430D01*
X87394415Y-49885462D01*
X87394565Y-49885824D01*
X87407083Y-49927089D01*
X87407159Y-49927474D01*
X87411990Y-49976530D01*
X87412000Y-49976726D01*
X87412000Y-50058823D01*
X87411000Y-50060555D01*
X87409000Y-50060555D01*
X87408010Y-50059019D01*
X87402096Y-49998970D01*
X87384635Y-49941411D01*
X87356283Y-49888366D01*
X87318127Y-49841873D01*
X87271634Y-49803717D01*
X87218589Y-49775365D01*
X87161030Y-49757904D01*
X87100981Y-49751990D01*
X87099355Y-49750825D01*
X87099551Y-49748835D01*
X87101177Y-49748000D01*
X87183274Y-49748000D01*
X87183470Y-49748010D01*
G37*
M02*
