M48
; DRILL file {KiCad (5.1.7)-1} date 07/11/22 22:43:50
; FORMAT={-:-/ absolute / metric / decimal}
; #@! TF.CreationDate,2022-07-11T22:43:50-03:00
; #@! TF.GenerationSoftware,Kicad,Pcbnew,(5.1.7)-1
FMAT,2
METRIC
T1C0.300
T2C0.400
T3C0.800
T4C0.900
T5C1.000
T6C1.190
T7C3.200
T8C7.500
%
G90
G05
T1
X24.765Y-68.58
X29.845Y-68.58
X39.37Y-77.47
X39.37Y-88.9
X40.64Y-74.93
X40.64Y-87.63
X41.91Y-72.39
X41.91Y-88.9
X43.18Y-69.85
X43.18Y-87.63
X44.45Y-67.31
X44.45Y-88.9
X45.72Y-64.77
X45.72Y-87.63
X46.355Y-44.45
X46.99Y-62.23
X46.99Y-88.92
X48.26Y-59.69
X48.26Y-87.63
X49.53Y-60.96
X49.53Y-88.9
X54.61Y-63.5
X54.61Y-88.9
X55.88Y-49.53
X57.15Y-27.94
X59.69Y-67.31
X59.69Y-69.85
X59.69Y-88.9
X60.96Y-50.8
X60.96Y-64.77
X60.96Y-87.63
X62.23Y-55.88
X62.23Y-88.9
X63.5Y-33.02
X63.5Y-50.8
X63.5Y-57.15
X63.5Y-87.63
X64.77Y-52.07
X64.77Y-88.9
X66.04Y-50.8
X66.04Y-72.39
X66.04Y-87.63
X67.31Y-52.07
X67.31Y-78.74
X67.31Y-88.9
X68.58Y-50.8
X68.58Y-81.28
X68.58Y-87.63
X69.215Y-34.925
X69.215Y-36.195
X69.85Y-52.07
X69.85Y-83.82
X69.85Y-88.9
X71.12Y-50.8
X71.12Y-85.09
X71.755Y-33.655
X72.39Y-52.07
X72.39Y-82.55
X72.39Y-88.9
X76.0Y-135.0
X76.0Y-137.0
X76.0Y-139.0
X76.0Y-141.0
X76.0Y-143.0
X76.2Y-27.305
X77.0Y-136.0
X77.0Y-138.0
X77.0Y-140.0
X77.0Y-142.0
X78.0Y-135.0
X78.0Y-137.0
X78.0Y-139.0
X78.0Y-141.0
X78.0Y-143.0
X78.105Y-37.465
X80.645Y-34.925
X81.28Y-76.835
X82.55Y-75.565
X84.455Y-62.23
X85.09Y-66.04
T2
X64.77Y-24.13
T3
X58.42Y-29.845
X58.42Y-32.385
X58.42Y-34.925
X58.42Y-37.465
X58.42Y-40.005
X58.42Y-42.545
X60.96Y-27.305
X60.96Y-29.845
X60.96Y-32.385
X60.96Y-34.925
X60.96Y-37.465
X60.96Y-40.005
X60.96Y-42.545
X60.96Y-45.085
X63.5Y-27.305
X63.5Y-29.845
X63.5Y-42.545
X63.5Y-45.085
X66.04Y-27.305
X66.04Y-29.845
X66.04Y-42.545
X66.04Y-45.085
X68.58Y-27.305
X68.58Y-29.845
X68.58Y-42.545
X68.58Y-45.085
X71.12Y-27.305
X71.12Y-29.845
X71.12Y-42.545
X71.12Y-45.085
X73.66Y-27.305
X73.66Y-29.845
X73.66Y-32.385
X73.66Y-34.925
X73.66Y-37.465
X73.66Y-40.005
X73.66Y-42.545
X73.66Y-45.085
X76.2Y-29.845
X76.2Y-32.385
X76.2Y-34.925
X76.2Y-37.465
X76.2Y-40.005
X76.2Y-42.545
X78.74Y-73.66
X88.9Y-73.66
X82.55Y-31.75
X85.05Y-31.75
X35.56Y-25.4
X35.56Y-33.02
X38.1Y-25.4
X38.1Y-33.02
X30.48Y-24.13
X30.48Y-34.29
X43.18Y-24.13
X43.18Y-34.29
X78.74Y-77.47
X88.9Y-77.47
X78.74Y-66.04
X88.9Y-66.04
X49.57Y-26.67
X52.07Y-26.67
X78.74Y-58.42
X88.9Y-58.42
X22.86Y-39.37
X33.02Y-39.37
X78.74Y-62.23
X88.9Y-62.23
X49.57Y-41.91
X52.07Y-41.91
X78.74Y-69.85
X88.9Y-69.85
T4
X26.035Y-42.545
X26.035Y-45.085
T5
X57.15Y-53.34
X57.15Y-55.88
X57.15Y-58.42
X57.15Y-60.96
X57.15Y-63.5
X57.15Y-66.04
X57.15Y-68.58
X57.15Y-71.12
X57.15Y-73.66
X57.15Y-76.2
X57.15Y-78.74
X57.15Y-81.28
X57.15Y-83.82
X57.15Y-86.36
X83.82Y-40.64
X83.82Y-43.18
X83.82Y-45.72
X83.82Y-48.26
X83.82Y-50.8
X86.36Y-40.64
X86.36Y-43.18
X86.36Y-45.72
X86.36Y-48.26
X86.36Y-50.8
X74.93Y-53.34
X74.93Y-55.88
X74.93Y-58.42
X74.93Y-60.96
X74.93Y-63.5
X74.93Y-66.04
X74.93Y-68.58
X74.93Y-71.12
X74.93Y-73.66
X74.93Y-76.2
X74.93Y-78.74
X74.93Y-81.28
X74.93Y-83.82
X74.93Y-86.36
X33.02Y-48.26
X33.02Y-50.8
X33.02Y-53.34
X33.02Y-55.88
X33.02Y-58.42
X33.02Y-60.96
X33.02Y-63.5
X33.02Y-66.04
X33.02Y-68.58
X33.02Y-71.12
X33.02Y-73.66
X33.02Y-76.2
X33.02Y-78.74
X33.02Y-81.28
X33.02Y-83.82
X33.02Y-86.36
X36.83Y-48.26
X36.83Y-50.8
X36.83Y-53.34
X36.83Y-55.88
X36.83Y-58.42
X36.83Y-60.96
X36.83Y-63.5
X36.83Y-66.04
X36.83Y-68.58
X36.83Y-71.12
X36.83Y-73.66
X36.83Y-76.2
X36.83Y-78.74
X36.83Y-81.28
X36.83Y-83.82
X36.83Y-86.36
X52.07Y-48.26
X52.07Y-50.8
X52.07Y-53.34
X52.07Y-55.88
X52.07Y-58.42
X52.07Y-60.96
X52.07Y-63.5
X52.07Y-66.04
X52.07Y-68.58
X52.07Y-71.12
X52.07Y-73.66
X52.07Y-76.2
X52.07Y-78.74
X52.07Y-81.28
X52.07Y-83.82
X52.07Y-86.36
X33.02Y-43.18
X35.56Y-43.18
X38.1Y-43.18
X40.64Y-43.18
X81.661Y-23.241
X27.94Y-50.8
T6
X22.86Y-73.66
X22.86Y-76.2
X22.86Y-78.74
T7
X87.0Y-88.0
X23.0Y-24.0
X87.0Y-24.0
X23.0Y-88.0
T8
X55.0Y-143.4
X55.0Y-122.4
T0
M30
