G04 #@! TF.GenerationSoftware,KiCad,Pcbnew,(5.1.7)-1*
G04 #@! TF.CreationDate,2022-08-23T14:15:26-03:00*
G04 #@! TF.ProjectId,Squareboi2,53717561-7265-4626-9f69-322e6b696361,1*
G04 #@! TF.SameCoordinates,Original*
G04 #@! TF.FileFunction,Profile,NP*
%FSLAX46Y46*%
G04 Gerber Fmt 4.6, Leading zero omitted, Abs format (unit mm)*
G04 Created by KiCad (PCBNEW (5.1.7)-1) date 2022-08-23 14:15:26*
%MOMM*%
%LPD*%
G01*
G04 APERTURE LIST*
G04 #@! TA.AperFunction,Profile*
%ADD10C,0.150000*%
G04 #@! TD*
G04 APERTURE END LIST*
D10*
X28000000Y-93000000D02*
X28000000Y-95000000D01*
X27000000Y-92000000D02*
G75*
G02*
X28000000Y-93000000I0J-1000000D01*
G01*
X77000000Y-93000000D02*
G75*
G02*
X78000000Y-92000000I1000000J0D01*
G01*
X77000000Y-95000000D02*
X77000000Y-93000000D01*
X29000000Y-96000000D02*
G75*
G02*
X28000000Y-95000000I0J1000000D01*
G01*
X77000000Y-95000000D02*
G75*
G02*
X76000000Y-96000000I-1000000J0D01*
G01*
X20000000Y-92000000D02*
G75*
G02*
X19000000Y-91000000I0J1000000D01*
G01*
X27000000Y-92000000D02*
X20000000Y-92000000D01*
X19000000Y-91000000D02*
X19000000Y-21000000D01*
X90000000Y-92000000D02*
X79000000Y-92000000D01*
X29000000Y-96000000D02*
G75*
G02*
X30000000Y-97000000I0J-1000000D01*
G01*
X90000000Y-20000000D02*
X20000000Y-20000000D01*
X90000000Y-20000000D02*
G75*
G02*
X91000000Y-21000000I0J-1000000D01*
G01*
X91000000Y-91000000D02*
X91000000Y-21000000D01*
X19000000Y-21000000D02*
G75*
G02*
X20000000Y-20000000I1000000J0D01*
G01*
X91000000Y-91000000D02*
G75*
G02*
X90000000Y-92000000I-1000000J0D01*
G01*
X78000000Y-92000000D02*
X79000000Y-92000000D01*
X75000000Y-97000000D02*
G75*
G02*
X76000000Y-96000000I1000000J0D01*
G01*
X75000000Y-103000000D02*
X75000000Y-97000000D01*
X76000000Y-104000000D02*
G75*
G02*
X75000000Y-103000000I0J1000000D01*
G01*
X79000000Y-104000000D02*
G75*
G02*
X80000000Y-105000000I0J-1000000D01*
G01*
X76000000Y-104000000D02*
X79000000Y-104000000D01*
X79750000Y-150000000D02*
X80000000Y-150000000D01*
X30250000Y-150000000D02*
X30000000Y-150000000D01*
X79750000Y-158500000D02*
G75*
G02*
X79250000Y-159000000I-500000J0D01*
G01*
X30750000Y-159000000D02*
G75*
G02*
X30250000Y-158500000I0J500000D01*
G01*
X30250000Y-150000000D02*
X30250000Y-158500000D01*
X79750000Y-150000000D02*
X79750000Y-158500000D01*
X30000000Y-150000000D02*
X30000000Y-97000000D01*
X80000000Y-150000000D02*
X80000000Y-105000000D01*
X30750000Y-159000000D02*
X79250000Y-159000000D01*
M02*
