%TF.GenerationSoftware,KiCad,Pcbnew,(5.1.7)-1*%
%TF.CreationDate,2022-07-11T22:21:29-03:00*%
%TF.ProjectId,ROMboard,524f4d62-6f61-4726-942e-6b696361645f,rev?*%
%TF.SameCoordinates,Original*%
%TF.FileFunction,Legend,Top*%
%TF.FilePolarity,Positive*%
%FSLAX46Y46*%
G04 Gerber Fmt 4.6, Leading zero omitted, Abs format (unit mm)*
G04 Created by KiCad (PCBNEW (5.1.7)-1) date 2022-07-11 22:21:29*
%MOMM*%
%LPD*%
G01*
G04 APERTURE LIST*
%ADD10C,0.150000*%
%ADD11C,0.120000*%
%ADD12C,0.100000*%
G04 APERTURE END LIST*
D10*
X38385714Y-44267380D02*
X37814285Y-44267380D01*
X38100000Y-44267380D02*
X38100000Y-43267380D01*
X38004761Y-43410238D01*
X37909523Y-43505476D01*
X37814285Y-43553095D01*
X38718095Y-54157619D02*
X38765714Y-54110000D01*
X38860952Y-54062380D01*
X39099047Y-54062380D01*
X39194285Y-54110000D01*
X39241904Y-54157619D01*
X39289523Y-54252857D01*
X39289523Y-54348095D01*
X39241904Y-54490952D01*
X38670476Y-55062380D01*
X39289523Y-55062380D01*
X39908571Y-54062380D02*
X40003809Y-54062380D01*
X40099047Y-54110000D01*
X40146666Y-54157619D01*
X40194285Y-54252857D01*
X40241904Y-54443333D01*
X40241904Y-54681428D01*
X40194285Y-54871904D01*
X40146666Y-54967142D01*
X40099047Y-55014761D01*
X40003809Y-55062380D01*
X39908571Y-55062380D01*
X39813333Y-55014761D01*
X39765714Y-54967142D01*
X39718095Y-54871904D01*
X39670476Y-54681428D01*
X39670476Y-54443333D01*
X39718095Y-54252857D01*
X39765714Y-54157619D01*
X39813333Y-54110000D01*
X39908571Y-54062380D01*
X40670476Y-55062380D02*
X40670476Y-54062380D01*
X41241904Y-55062380D02*
X40813333Y-54490952D01*
X41241904Y-54062380D02*
X40670476Y-54633809D01*
X35576428Y-95416666D02*
X36052619Y-95416666D01*
X35481190Y-95702380D02*
X35814523Y-94702380D01*
X36147857Y-95702380D01*
X36957380Y-95702380D02*
X36481190Y-95702380D01*
X36481190Y-94702380D01*
X37195476Y-94702380D02*
X37862142Y-95702380D01*
X37862142Y-94702380D02*
X37195476Y-95702380D01*
X38814523Y-95607142D02*
X38766904Y-95654761D01*
X38624047Y-95702380D01*
X38528809Y-95702380D01*
X38385952Y-95654761D01*
X38290714Y-95559523D01*
X38243095Y-95464285D01*
X38195476Y-95273809D01*
X38195476Y-95130952D01*
X38243095Y-94940476D01*
X38290714Y-94845238D01*
X38385952Y-94750000D01*
X38528809Y-94702380D01*
X38624047Y-94702380D01*
X38766904Y-94750000D01*
X38814523Y-94797619D01*
X39433571Y-94702380D02*
X39624047Y-94702380D01*
X39719285Y-94750000D01*
X39814523Y-94845238D01*
X39862142Y-95035714D01*
X39862142Y-95369047D01*
X39814523Y-95559523D01*
X39719285Y-95654761D01*
X39624047Y-95702380D01*
X39433571Y-95702380D01*
X39338333Y-95654761D01*
X39243095Y-95559523D01*
X39195476Y-95369047D01*
X39195476Y-95035714D01*
X39243095Y-94845238D01*
X39338333Y-94750000D01*
X39433571Y-94702380D01*
X41005000Y-94797619D02*
X41052619Y-94750000D01*
X41147857Y-94702380D01*
X41385952Y-94702380D01*
X41481190Y-94750000D01*
X41528809Y-94797619D01*
X41576428Y-94892857D01*
X41576428Y-94988095D01*
X41528809Y-95130952D01*
X40957380Y-95702380D01*
X41576428Y-95702380D01*
X42195476Y-94702380D02*
X42290714Y-94702380D01*
X42385952Y-94750000D01*
X42433571Y-94797619D01*
X42481190Y-94892857D01*
X42528809Y-95083333D01*
X42528809Y-95321428D01*
X42481190Y-95511904D01*
X42433571Y-95607142D01*
X42385952Y-95654761D01*
X42290714Y-95702380D01*
X42195476Y-95702380D01*
X42100238Y-95654761D01*
X42052619Y-95607142D01*
X42005000Y-95511904D01*
X41957380Y-95321428D01*
X41957380Y-95083333D01*
X42005000Y-94892857D01*
X42052619Y-94797619D01*
X42100238Y-94750000D01*
X42195476Y-94702380D01*
X42909761Y-94797619D02*
X42957380Y-94750000D01*
X43052619Y-94702380D01*
X43290714Y-94702380D01*
X43385952Y-94750000D01*
X43433571Y-94797619D01*
X43481190Y-94892857D01*
X43481190Y-94988095D01*
X43433571Y-95130952D01*
X42862142Y-95702380D01*
X43481190Y-95702380D01*
X43862142Y-94797619D02*
X43909761Y-94750000D01*
X44005000Y-94702380D01*
X44243095Y-94702380D01*
X44338333Y-94750000D01*
X44385952Y-94797619D01*
X44433571Y-94892857D01*
X44433571Y-94988095D01*
X44385952Y-95130952D01*
X43814523Y-95702380D01*
X44433571Y-95702380D01*
X31020000Y-46672380D02*
X31353333Y-47672380D01*
X31686666Y-46672380D01*
X32543809Y-47672380D02*
X31972380Y-47672380D01*
X32258095Y-47672380D02*
X32258095Y-46672380D01*
X32162857Y-46815238D01*
X32067619Y-46910476D01*
X31972380Y-46958095D01*
X32972380Y-47577142D02*
X33019999Y-47624761D01*
X32972380Y-47672380D01*
X32924761Y-47624761D01*
X32972380Y-47577142D01*
X32972380Y-47672380D01*
X33639047Y-46672380D02*
X33734285Y-46672380D01*
X33829523Y-46720000D01*
X33877142Y-46767619D01*
X33924761Y-46862857D01*
X33972380Y-47053333D01*
X33972380Y-47291428D01*
X33924761Y-47481904D01*
X33877142Y-47577142D01*
X33829523Y-47624761D01*
X33734285Y-47672380D01*
X33639047Y-47672380D01*
X33543809Y-47624761D01*
X33496190Y-47577142D01*
X33448571Y-47481904D01*
X33400952Y-47291428D01*
X33400952Y-47053333D01*
X33448571Y-46862857D01*
X33496190Y-46767619D01*
X33543809Y-46720000D01*
X33639047Y-46672380D01*
X34924761Y-47672380D02*
X34353333Y-47672380D01*
X34639047Y-47672380D02*
X34639047Y-46672380D01*
X34543809Y-46815238D01*
X34448571Y-46910476D01*
X34353333Y-46958095D01*
X36647857Y-92797380D02*
X37219285Y-92797380D01*
X36933571Y-93797380D02*
X36933571Y-92797380D01*
X37505000Y-93749761D02*
X37647857Y-93797380D01*
X37885952Y-93797380D01*
X37981190Y-93749761D01*
X38028809Y-93702142D01*
X38076428Y-93606904D01*
X38076428Y-93511666D01*
X38028809Y-93416428D01*
X37981190Y-93368809D01*
X37885952Y-93321190D01*
X37695476Y-93273571D01*
X37600238Y-93225952D01*
X37552619Y-93178333D01*
X37505000Y-93083095D01*
X37505000Y-92987857D01*
X37552619Y-92892619D01*
X37600238Y-92845000D01*
X37695476Y-92797380D01*
X37933571Y-92797380D01*
X38076428Y-92845000D01*
X38695476Y-92797380D02*
X38885952Y-92797380D01*
X38981190Y-92845000D01*
X39076428Y-92940238D01*
X39124047Y-93130714D01*
X39124047Y-93464047D01*
X39076428Y-93654523D01*
X38981190Y-93749761D01*
X38885952Y-93797380D01*
X38695476Y-93797380D01*
X38600238Y-93749761D01*
X38505000Y-93654523D01*
X38457380Y-93464047D01*
X38457380Y-93130714D01*
X38505000Y-92940238D01*
X38600238Y-92845000D01*
X38695476Y-92797380D01*
X39552619Y-93797380D02*
X39552619Y-92797380D01*
X39933571Y-92797380D01*
X40028809Y-92845000D01*
X40076428Y-92892619D01*
X40124047Y-92987857D01*
X40124047Y-93130714D01*
X40076428Y-93225952D01*
X40028809Y-93273571D01*
X39933571Y-93321190D01*
X39552619Y-93321190D01*
X40552619Y-93416428D02*
X41314523Y-93416428D01*
X42219285Y-93130714D02*
X42219285Y-93797380D01*
X41981190Y-92749761D02*
X41743095Y-93464047D01*
X42362142Y-93464047D01*
X42885952Y-93225952D02*
X42790714Y-93178333D01*
X42743095Y-93130714D01*
X42695476Y-93035476D01*
X42695476Y-92987857D01*
X42743095Y-92892619D01*
X42790714Y-92845000D01*
X42885952Y-92797380D01*
X43076428Y-92797380D01*
X43171666Y-92845000D01*
X43219285Y-92892619D01*
X43266904Y-92987857D01*
X43266904Y-93035476D01*
X43219285Y-93130714D01*
X43171666Y-93178333D01*
X43076428Y-93225952D01*
X42885952Y-93225952D01*
X42790714Y-93273571D01*
X42743095Y-93321190D01*
X42695476Y-93416428D01*
X42695476Y-93606904D01*
X42743095Y-93702142D01*
X42790714Y-93749761D01*
X42885952Y-93797380D01*
X43076428Y-93797380D01*
X43171666Y-93749761D01*
X43219285Y-93702142D01*
X43266904Y-93606904D01*
X43266904Y-93416428D01*
X43219285Y-93321190D01*
X43171666Y-93273571D01*
X43076428Y-93225952D01*
X40520952Y-51252380D02*
X40187619Y-50776190D01*
X39949523Y-51252380D02*
X39949523Y-50252380D01*
X40330476Y-50252380D01*
X40425714Y-50300000D01*
X40473333Y-50347619D01*
X40520952Y-50442857D01*
X40520952Y-50585714D01*
X40473333Y-50680952D01*
X40425714Y-50728571D01*
X40330476Y-50776190D01*
X39949523Y-50776190D01*
X40901904Y-50966666D02*
X41378095Y-50966666D01*
X40806666Y-51252380D02*
X41140000Y-50252380D01*
X41473333Y-51252380D01*
X29718095Y-52887619D02*
X29765714Y-52840000D01*
X29860952Y-52792380D01*
X30099047Y-52792380D01*
X30194285Y-52840000D01*
X30241904Y-52887619D01*
X30289523Y-52982857D01*
X30289523Y-53078095D01*
X30241904Y-53220952D01*
X29670476Y-53792380D01*
X30289523Y-53792380D01*
X30670476Y-52887619D02*
X30718095Y-52840000D01*
X30813333Y-52792380D01*
X31051428Y-52792380D01*
X31146666Y-52840000D01*
X31194285Y-52887619D01*
X31241904Y-52982857D01*
X31241904Y-53078095D01*
X31194285Y-53220952D01*
X30622857Y-53792380D01*
X31241904Y-53792380D01*
X46005714Y-62047380D02*
X45434285Y-62047380D01*
X45720000Y-62047380D02*
X45720000Y-61047380D01*
X45624761Y-61190238D01*
X45529523Y-61285476D01*
X45434285Y-61333095D01*
X46799523Y-95702380D02*
X46228095Y-95702380D01*
X46513809Y-95702380D02*
X46513809Y-94702380D01*
X46418571Y-94845238D01*
X46323333Y-94940476D01*
X46228095Y-94988095D01*
X47132857Y-94702380D02*
X47799523Y-94702380D01*
X47370952Y-95702380D01*
X32829523Y-95702380D02*
X32258095Y-95702380D01*
X32543809Y-95702380D02*
X32543809Y-94702380D01*
X32448571Y-94845238D01*
X32353333Y-94940476D01*
X32258095Y-94988095D01*
X33686666Y-94702380D02*
X33496190Y-94702380D01*
X33400952Y-94750000D01*
X33353333Y-94797619D01*
X33258095Y-94940476D01*
X33210476Y-95130952D01*
X33210476Y-95511904D01*
X33258095Y-95607142D01*
X33305714Y-95654761D01*
X33400952Y-95702380D01*
X33591428Y-95702380D01*
X33686666Y-95654761D01*
X33734285Y-95607142D01*
X33781904Y-95511904D01*
X33781904Y-95273809D01*
X33734285Y-95178571D01*
X33686666Y-95130952D01*
X33591428Y-95083333D01*
X33400952Y-95083333D01*
X33305714Y-95130952D01*
X33258095Y-95178571D01*
X33210476Y-95273809D01*
X46180476Y-55332380D02*
X46799523Y-55332380D01*
X46466190Y-55713333D01*
X46609047Y-55713333D01*
X46704285Y-55760952D01*
X46751904Y-55808571D01*
X46799523Y-55903809D01*
X46799523Y-56141904D01*
X46751904Y-56237142D01*
X46704285Y-56284761D01*
X46609047Y-56332380D01*
X46323333Y-56332380D01*
X46228095Y-56284761D01*
X46180476Y-56237142D01*
X47180476Y-55427619D02*
X47228095Y-55380000D01*
X47323333Y-55332380D01*
X47561428Y-55332380D01*
X47656666Y-55380000D01*
X47704285Y-55427619D01*
X47751904Y-55522857D01*
X47751904Y-55618095D01*
X47704285Y-55760952D01*
X47132857Y-56332380D01*
X47751904Y-56332380D01*
X33305714Y-56332380D02*
X32734285Y-56332380D01*
X33020000Y-56332380D02*
X33020000Y-55332380D01*
X32924761Y-55475238D01*
X32829523Y-55570476D01*
X32734285Y-55618095D01*
X29686666Y-44283761D02*
X29829523Y-44331380D01*
X30067619Y-44331380D01*
X30162857Y-44283761D01*
X30210476Y-44236142D01*
X30258095Y-44140904D01*
X30258095Y-44045666D01*
X30210476Y-43950428D01*
X30162857Y-43902809D01*
X30067619Y-43855190D01*
X29877142Y-43807571D01*
X29781904Y-43759952D01*
X29734285Y-43712333D01*
X29686666Y-43617095D01*
X29686666Y-43521857D01*
X29734285Y-43426619D01*
X29781904Y-43379000D01*
X29877142Y-43331380D01*
X30115238Y-43331380D01*
X30258095Y-43379000D01*
X30686666Y-44331380D02*
X30686666Y-43331380D01*
X31020000Y-44045666D01*
X31353333Y-43331380D01*
X31353333Y-44331380D01*
X31829523Y-44331380D02*
X31829523Y-43331380D01*
X32067619Y-43331380D01*
X32210476Y-43379000D01*
X32305714Y-43474238D01*
X32353333Y-43569476D01*
X32400952Y-43759952D01*
X32400952Y-43902809D01*
X32353333Y-44093285D01*
X32305714Y-44188523D01*
X32210476Y-44283761D01*
X32067619Y-44331380D01*
X31829523Y-44331380D01*
X34162857Y-44331380D02*
X33829523Y-43855190D01*
X33591428Y-44331380D02*
X33591428Y-43331380D01*
X33972380Y-43331380D01*
X34067619Y-43379000D01*
X34115238Y-43426619D01*
X34162857Y-43521857D01*
X34162857Y-43664714D01*
X34115238Y-43759952D01*
X34067619Y-43807571D01*
X33972380Y-43855190D01*
X33591428Y-43855190D01*
X34781904Y-43331380D02*
X34972380Y-43331380D01*
X35067619Y-43379000D01*
X35162857Y-43474238D01*
X35210476Y-43664714D01*
X35210476Y-43998047D01*
X35162857Y-44188523D01*
X35067619Y-44283761D01*
X34972380Y-44331380D01*
X34781904Y-44331380D01*
X34686666Y-44283761D01*
X34591428Y-44188523D01*
X34543809Y-43998047D01*
X34543809Y-43664714D01*
X34591428Y-43474238D01*
X34686666Y-43379000D01*
X34781904Y-43331380D01*
X35639047Y-44331380D02*
X35639047Y-43331380D01*
X35972380Y-44045666D01*
X36305714Y-43331380D01*
X36305714Y-44331380D01*
X30567619Y-45076619D02*
X30615238Y-45029000D01*
X30710476Y-44981380D01*
X30948571Y-44981380D01*
X31043809Y-45029000D01*
X31091428Y-45076619D01*
X31139047Y-45171857D01*
X31139047Y-45267095D01*
X31091428Y-45409952D01*
X30520000Y-45981380D01*
X31139047Y-45981380D01*
X31567619Y-45981380D02*
X31567619Y-44981380D01*
X31900952Y-45695666D01*
X32234285Y-44981380D01*
X32234285Y-45981380D01*
X33043809Y-45457571D02*
X33186666Y-45505190D01*
X33234285Y-45552809D01*
X33281904Y-45648047D01*
X33281904Y-45790904D01*
X33234285Y-45886142D01*
X33186666Y-45933761D01*
X33091428Y-45981380D01*
X32710476Y-45981380D01*
X32710476Y-44981380D01*
X33043809Y-44981380D01*
X33139047Y-45029000D01*
X33186666Y-45076619D01*
X33234285Y-45171857D01*
X33234285Y-45267095D01*
X33186666Y-45362333D01*
X33139047Y-45409952D01*
X33043809Y-45457571D01*
X32710476Y-45457571D01*
X33710476Y-45600428D02*
X34472380Y-45600428D01*
X34900952Y-45933761D02*
X35043809Y-45981380D01*
X35281904Y-45981380D01*
X35377142Y-45933761D01*
X35424761Y-45886142D01*
X35472380Y-45790904D01*
X35472380Y-45695666D01*
X35424761Y-45600428D01*
X35377142Y-45552809D01*
X35281904Y-45505190D01*
X35091428Y-45457571D01*
X34996190Y-45409952D01*
X34948571Y-45362333D01*
X34900952Y-45267095D01*
X34900952Y-45171857D01*
X34948571Y-45076619D01*
X34996190Y-45029000D01*
X35091428Y-44981380D01*
X35329523Y-44981380D01*
X35472380Y-45029000D01*
D11*
%TO.C,C2*%
X43780225Y-44630000D02*
X43780225Y-45130000D01*
X43530225Y-44880000D02*
X44030225Y-44880000D01*
X48936000Y-46071000D02*
X48936000Y-46639000D01*
X48896000Y-45837000D02*
X48896000Y-46873000D01*
X48856000Y-45678000D02*
X48856000Y-47032000D01*
X48816000Y-45550000D02*
X48816000Y-47160000D01*
X48776000Y-45440000D02*
X48776000Y-47270000D01*
X48736000Y-45344000D02*
X48736000Y-47366000D01*
X48696000Y-45257000D02*
X48696000Y-47453000D01*
X48656000Y-45177000D02*
X48656000Y-47533000D01*
X48616000Y-47395000D02*
X48616000Y-47606000D01*
X48616000Y-45104000D02*
X48616000Y-45315000D01*
X48576000Y-47395000D02*
X48576000Y-47674000D01*
X48576000Y-45036000D02*
X48576000Y-45315000D01*
X48536000Y-47395000D02*
X48536000Y-47738000D01*
X48536000Y-44972000D02*
X48536000Y-45315000D01*
X48496000Y-47395000D02*
X48496000Y-47798000D01*
X48496000Y-44912000D02*
X48496000Y-45315000D01*
X48456000Y-47395000D02*
X48456000Y-47855000D01*
X48456000Y-44855000D02*
X48456000Y-45315000D01*
X48416000Y-47395000D02*
X48416000Y-47909000D01*
X48416000Y-44801000D02*
X48416000Y-45315000D01*
X48376000Y-47395000D02*
X48376000Y-47960000D01*
X48376000Y-44750000D02*
X48376000Y-45315000D01*
X48336000Y-47395000D02*
X48336000Y-48008000D01*
X48336000Y-44702000D02*
X48336000Y-45315000D01*
X48296000Y-47395000D02*
X48296000Y-48054000D01*
X48296000Y-44656000D02*
X48296000Y-45315000D01*
X48256000Y-47395000D02*
X48256000Y-48098000D01*
X48256000Y-44612000D02*
X48256000Y-45315000D01*
X48216000Y-47395000D02*
X48216000Y-48140000D01*
X48216000Y-44570000D02*
X48216000Y-45315000D01*
X48176000Y-47395000D02*
X48176000Y-48181000D01*
X48176000Y-44529000D02*
X48176000Y-45315000D01*
X48136000Y-47395000D02*
X48136000Y-48219000D01*
X48136000Y-44491000D02*
X48136000Y-45315000D01*
X48096000Y-47395000D02*
X48096000Y-48256000D01*
X48096000Y-44454000D02*
X48096000Y-45315000D01*
X48056000Y-47395000D02*
X48056000Y-48292000D01*
X48056000Y-44418000D02*
X48056000Y-45315000D01*
X48016000Y-47395000D02*
X48016000Y-48326000D01*
X48016000Y-44384000D02*
X48016000Y-45315000D01*
X47976000Y-47395000D02*
X47976000Y-48359000D01*
X47976000Y-44351000D02*
X47976000Y-45315000D01*
X47936000Y-47395000D02*
X47936000Y-48390000D01*
X47936000Y-44320000D02*
X47936000Y-45315000D01*
X47896000Y-47395000D02*
X47896000Y-48420000D01*
X47896000Y-44290000D02*
X47896000Y-45315000D01*
X47856000Y-47395000D02*
X47856000Y-48450000D01*
X47856000Y-44260000D02*
X47856000Y-45315000D01*
X47816000Y-47395000D02*
X47816000Y-48477000D01*
X47816000Y-44233000D02*
X47816000Y-45315000D01*
X47776000Y-47395000D02*
X47776000Y-48504000D01*
X47776000Y-44206000D02*
X47776000Y-45315000D01*
X47736000Y-47395000D02*
X47736000Y-48530000D01*
X47736000Y-44180000D02*
X47736000Y-45315000D01*
X47696000Y-47395000D02*
X47696000Y-48555000D01*
X47696000Y-44155000D02*
X47696000Y-45315000D01*
X47656000Y-47395000D02*
X47656000Y-48579000D01*
X47656000Y-44131000D02*
X47656000Y-45315000D01*
X47616000Y-47395000D02*
X47616000Y-48602000D01*
X47616000Y-44108000D02*
X47616000Y-45315000D01*
X47576000Y-47395000D02*
X47576000Y-48623000D01*
X47576000Y-44087000D02*
X47576000Y-45315000D01*
X47536000Y-47395000D02*
X47536000Y-48645000D01*
X47536000Y-44065000D02*
X47536000Y-45315000D01*
X47496000Y-47395000D02*
X47496000Y-48665000D01*
X47496000Y-44045000D02*
X47496000Y-45315000D01*
X47456000Y-47395000D02*
X47456000Y-48684000D01*
X47456000Y-44026000D02*
X47456000Y-45315000D01*
X47416000Y-47395000D02*
X47416000Y-48703000D01*
X47416000Y-44007000D02*
X47416000Y-45315000D01*
X47376000Y-47395000D02*
X47376000Y-48720000D01*
X47376000Y-43990000D02*
X47376000Y-45315000D01*
X47336000Y-47395000D02*
X47336000Y-48737000D01*
X47336000Y-43973000D02*
X47336000Y-45315000D01*
X47296000Y-47395000D02*
X47296000Y-48753000D01*
X47296000Y-43957000D02*
X47296000Y-45315000D01*
X47256000Y-47395000D02*
X47256000Y-48769000D01*
X47256000Y-43941000D02*
X47256000Y-45315000D01*
X47216000Y-47395000D02*
X47216000Y-48783000D01*
X47216000Y-43927000D02*
X47216000Y-45315000D01*
X47176000Y-47395000D02*
X47176000Y-48797000D01*
X47176000Y-43913000D02*
X47176000Y-45315000D01*
X47136000Y-47395000D02*
X47136000Y-48810000D01*
X47136000Y-43900000D02*
X47136000Y-45315000D01*
X47096000Y-47395000D02*
X47096000Y-48823000D01*
X47096000Y-43887000D02*
X47096000Y-45315000D01*
X47056000Y-47395000D02*
X47056000Y-48835000D01*
X47056000Y-43875000D02*
X47056000Y-45315000D01*
X47015000Y-47395000D02*
X47015000Y-48846000D01*
X47015000Y-43864000D02*
X47015000Y-45315000D01*
X46975000Y-47395000D02*
X46975000Y-48856000D01*
X46975000Y-43854000D02*
X46975000Y-45315000D01*
X46935000Y-47395000D02*
X46935000Y-48866000D01*
X46935000Y-43844000D02*
X46935000Y-45315000D01*
X46895000Y-47395000D02*
X46895000Y-48875000D01*
X46895000Y-43835000D02*
X46895000Y-45315000D01*
X46855000Y-47395000D02*
X46855000Y-48883000D01*
X46855000Y-43827000D02*
X46855000Y-45315000D01*
X46815000Y-47395000D02*
X46815000Y-48891000D01*
X46815000Y-43819000D02*
X46815000Y-45315000D01*
X46775000Y-47395000D02*
X46775000Y-48898000D01*
X46775000Y-43812000D02*
X46775000Y-45315000D01*
X46735000Y-47395000D02*
X46735000Y-48905000D01*
X46735000Y-43805000D02*
X46735000Y-45315000D01*
X46695000Y-47395000D02*
X46695000Y-48911000D01*
X46695000Y-43799000D02*
X46695000Y-45315000D01*
X46655000Y-47395000D02*
X46655000Y-48916000D01*
X46655000Y-43794000D02*
X46655000Y-45315000D01*
X46615000Y-47395000D02*
X46615000Y-48920000D01*
X46615000Y-43790000D02*
X46615000Y-45315000D01*
X46575000Y-47395000D02*
X46575000Y-48924000D01*
X46575000Y-43786000D02*
X46575000Y-45315000D01*
X46535000Y-43782000D02*
X46535000Y-48928000D01*
X46495000Y-43779000D02*
X46495000Y-48931000D01*
X46455000Y-43777000D02*
X46455000Y-48933000D01*
X46415000Y-43776000D02*
X46415000Y-48934000D01*
X46375000Y-43775000D02*
X46375000Y-48935000D01*
X46335000Y-43775000D02*
X46335000Y-48935000D01*
X48955000Y-46355000D02*
G75*
G03*
X48955000Y-46355000I-2620000J0D01*
G01*
%TO.C,U2*%
X40885000Y-44845000D02*
X38455000Y-44845000D01*
X39125000Y-47915000D02*
X40885000Y-47915000D01*
%TO.C,JP1*%
X45450000Y-49400000D02*
X45450000Y-52200000D01*
X45450000Y-52200000D02*
X43450000Y-52200000D01*
X43450000Y-52200000D02*
X43450000Y-49400000D01*
X43450000Y-49400000D02*
X45450000Y-49400000D01*
%TO.C,JP0*%
X49895000Y-49385000D02*
X49895000Y-52185000D01*
X49895000Y-52185000D02*
X47895000Y-52185000D01*
X47895000Y-52185000D02*
X47895000Y-49385000D01*
X47895000Y-49385000D02*
X49895000Y-49385000D01*
%TO.C,C1*%
X41095000Y-87000225D02*
X40595000Y-87000225D01*
X40845000Y-86750225D02*
X40845000Y-87250225D01*
X39654000Y-92156000D02*
X39086000Y-92156000D01*
X39888000Y-92116000D02*
X38852000Y-92116000D01*
X40047000Y-92076000D02*
X38693000Y-92076000D01*
X40175000Y-92036000D02*
X38565000Y-92036000D01*
X40285000Y-91996000D02*
X38455000Y-91996000D01*
X40381000Y-91956000D02*
X38359000Y-91956000D01*
X40468000Y-91916000D02*
X38272000Y-91916000D01*
X40548000Y-91876000D02*
X38192000Y-91876000D01*
X38330000Y-91836000D02*
X38119000Y-91836000D01*
X40621000Y-91836000D02*
X40410000Y-91836000D01*
X38330000Y-91796000D02*
X38051000Y-91796000D01*
X40689000Y-91796000D02*
X40410000Y-91796000D01*
X38330000Y-91756000D02*
X37987000Y-91756000D01*
X40753000Y-91756000D02*
X40410000Y-91756000D01*
X38330000Y-91716000D02*
X37927000Y-91716000D01*
X40813000Y-91716000D02*
X40410000Y-91716000D01*
X38330000Y-91676000D02*
X37870000Y-91676000D01*
X40870000Y-91676000D02*
X40410000Y-91676000D01*
X38330000Y-91636000D02*
X37816000Y-91636000D01*
X40924000Y-91636000D02*
X40410000Y-91636000D01*
X38330000Y-91596000D02*
X37765000Y-91596000D01*
X40975000Y-91596000D02*
X40410000Y-91596000D01*
X38330000Y-91556000D02*
X37717000Y-91556000D01*
X41023000Y-91556000D02*
X40410000Y-91556000D01*
X38330000Y-91516000D02*
X37671000Y-91516000D01*
X41069000Y-91516000D02*
X40410000Y-91516000D01*
X38330000Y-91476000D02*
X37627000Y-91476000D01*
X41113000Y-91476000D02*
X40410000Y-91476000D01*
X38330000Y-91436000D02*
X37585000Y-91436000D01*
X41155000Y-91436000D02*
X40410000Y-91436000D01*
X38330000Y-91396000D02*
X37544000Y-91396000D01*
X41196000Y-91396000D02*
X40410000Y-91396000D01*
X38330000Y-91356000D02*
X37506000Y-91356000D01*
X41234000Y-91356000D02*
X40410000Y-91356000D01*
X38330000Y-91316000D02*
X37469000Y-91316000D01*
X41271000Y-91316000D02*
X40410000Y-91316000D01*
X38330000Y-91276000D02*
X37433000Y-91276000D01*
X41307000Y-91276000D02*
X40410000Y-91276000D01*
X38330000Y-91236000D02*
X37399000Y-91236000D01*
X41341000Y-91236000D02*
X40410000Y-91236000D01*
X38330000Y-91196000D02*
X37366000Y-91196000D01*
X41374000Y-91196000D02*
X40410000Y-91196000D01*
X38330000Y-91156000D02*
X37335000Y-91156000D01*
X41405000Y-91156000D02*
X40410000Y-91156000D01*
X38330000Y-91116000D02*
X37305000Y-91116000D01*
X41435000Y-91116000D02*
X40410000Y-91116000D01*
X38330000Y-91076000D02*
X37275000Y-91076000D01*
X41465000Y-91076000D02*
X40410000Y-91076000D01*
X38330000Y-91036000D02*
X37248000Y-91036000D01*
X41492000Y-91036000D02*
X40410000Y-91036000D01*
X38330000Y-90996000D02*
X37221000Y-90996000D01*
X41519000Y-90996000D02*
X40410000Y-90996000D01*
X38330000Y-90956000D02*
X37195000Y-90956000D01*
X41545000Y-90956000D02*
X40410000Y-90956000D01*
X38330000Y-90916000D02*
X37170000Y-90916000D01*
X41570000Y-90916000D02*
X40410000Y-90916000D01*
X38330000Y-90876000D02*
X37146000Y-90876000D01*
X41594000Y-90876000D02*
X40410000Y-90876000D01*
X38330000Y-90836000D02*
X37123000Y-90836000D01*
X41617000Y-90836000D02*
X40410000Y-90836000D01*
X38330000Y-90796000D02*
X37102000Y-90796000D01*
X41638000Y-90796000D02*
X40410000Y-90796000D01*
X38330000Y-90756000D02*
X37080000Y-90756000D01*
X41660000Y-90756000D02*
X40410000Y-90756000D01*
X38330000Y-90716000D02*
X37060000Y-90716000D01*
X41680000Y-90716000D02*
X40410000Y-90716000D01*
X38330000Y-90676000D02*
X37041000Y-90676000D01*
X41699000Y-90676000D02*
X40410000Y-90676000D01*
X38330000Y-90636000D02*
X37022000Y-90636000D01*
X41718000Y-90636000D02*
X40410000Y-90636000D01*
X38330000Y-90596000D02*
X37005000Y-90596000D01*
X41735000Y-90596000D02*
X40410000Y-90596000D01*
X38330000Y-90556000D02*
X36988000Y-90556000D01*
X41752000Y-90556000D02*
X40410000Y-90556000D01*
X38330000Y-90516000D02*
X36972000Y-90516000D01*
X41768000Y-90516000D02*
X40410000Y-90516000D01*
X38330000Y-90476000D02*
X36956000Y-90476000D01*
X41784000Y-90476000D02*
X40410000Y-90476000D01*
X38330000Y-90436000D02*
X36942000Y-90436000D01*
X41798000Y-90436000D02*
X40410000Y-90436000D01*
X38330000Y-90396000D02*
X36928000Y-90396000D01*
X41812000Y-90396000D02*
X40410000Y-90396000D01*
X38330000Y-90356000D02*
X36915000Y-90356000D01*
X41825000Y-90356000D02*
X40410000Y-90356000D01*
X38330000Y-90316000D02*
X36902000Y-90316000D01*
X41838000Y-90316000D02*
X40410000Y-90316000D01*
X38330000Y-90276000D02*
X36890000Y-90276000D01*
X41850000Y-90276000D02*
X40410000Y-90276000D01*
X38330000Y-90235000D02*
X36879000Y-90235000D01*
X41861000Y-90235000D02*
X40410000Y-90235000D01*
X38330000Y-90195000D02*
X36869000Y-90195000D01*
X41871000Y-90195000D02*
X40410000Y-90195000D01*
X38330000Y-90155000D02*
X36859000Y-90155000D01*
X41881000Y-90155000D02*
X40410000Y-90155000D01*
X38330000Y-90115000D02*
X36850000Y-90115000D01*
X41890000Y-90115000D02*
X40410000Y-90115000D01*
X38330000Y-90075000D02*
X36842000Y-90075000D01*
X41898000Y-90075000D02*
X40410000Y-90075000D01*
X38330000Y-90035000D02*
X36834000Y-90035000D01*
X41906000Y-90035000D02*
X40410000Y-90035000D01*
X38330000Y-89995000D02*
X36827000Y-89995000D01*
X41913000Y-89995000D02*
X40410000Y-89995000D01*
X38330000Y-89955000D02*
X36820000Y-89955000D01*
X41920000Y-89955000D02*
X40410000Y-89955000D01*
X38330000Y-89915000D02*
X36814000Y-89915000D01*
X41926000Y-89915000D02*
X40410000Y-89915000D01*
X38330000Y-89875000D02*
X36809000Y-89875000D01*
X41931000Y-89875000D02*
X40410000Y-89875000D01*
X38330000Y-89835000D02*
X36805000Y-89835000D01*
X41935000Y-89835000D02*
X40410000Y-89835000D01*
X38330000Y-89795000D02*
X36801000Y-89795000D01*
X41939000Y-89795000D02*
X40410000Y-89795000D01*
X41943000Y-89755000D02*
X36797000Y-89755000D01*
X41946000Y-89715000D02*
X36794000Y-89715000D01*
X41948000Y-89675000D02*
X36792000Y-89675000D01*
X41949000Y-89635000D02*
X36791000Y-89635000D01*
X41950000Y-89595000D02*
X36790000Y-89595000D01*
X41950000Y-89555000D02*
X36790000Y-89555000D01*
X41990000Y-89555000D02*
G75*
G03*
X41990000Y-89555000I-2620000J0D01*
G01*
D12*
%TO.C,U1*%
X45850000Y-83420000D02*
X45850000Y-64020000D01*
D11*
X33610000Y-65020000D02*
X33610000Y-83420000D01*
%TO.C,R1*%
X35330000Y-54610000D02*
X36100000Y-54610000D01*
X43410000Y-54610000D02*
X42640000Y-54610000D01*
X36100000Y-55980000D02*
X42640000Y-55980000D01*
X36100000Y-53240000D02*
X36100000Y-55980000D01*
X42640000Y-53240000D02*
X36100000Y-53240000D01*
X42640000Y-55980000D02*
X42640000Y-53240000D01*
%TO.C,J2*%
X39430000Y-49470000D02*
X39430000Y-50800000D01*
X38100000Y-49470000D02*
X39430000Y-49470000D01*
X36830000Y-49470000D02*
X36830000Y-52130000D01*
X36830000Y-52130000D02*
X29150000Y-52130000D01*
X36830000Y-49470000D02*
X29150000Y-49470000D01*
X29150000Y-49470000D02*
X29150000Y-52130000D01*
%TO.C,J1*%
X50860000Y-95310000D02*
X49530000Y-95310000D01*
X50860000Y-93980000D02*
X50860000Y-95310000D01*
X50860000Y-92710000D02*
X48200000Y-92710000D01*
X48200000Y-92710000D02*
X48200000Y-54550000D01*
X50860000Y-92710000D02*
X50860000Y-54550000D01*
X50860000Y-54550000D02*
X48200000Y-54550000D01*
%TO.C,J0*%
X29150000Y-54550000D02*
X30480000Y-54550000D01*
X29150000Y-55880000D02*
X29150000Y-54550000D01*
X29150000Y-57150000D02*
X31810000Y-57150000D01*
X31810000Y-57150000D02*
X31810000Y-95310000D01*
X29150000Y-57150000D02*
X29150000Y-95310000D01*
X29150000Y-95310000D02*
X31810000Y-95310000D01*
%TO.C,C2*%
D10*
X43013333Y-49252142D02*
X42965714Y-49299761D01*
X42822857Y-49347380D01*
X42727619Y-49347380D01*
X42584761Y-49299761D01*
X42489523Y-49204523D01*
X42441904Y-49109285D01*
X42394285Y-48918809D01*
X42394285Y-48775952D01*
X42441904Y-48585476D01*
X42489523Y-48490238D01*
X42584761Y-48395000D01*
X42727619Y-48347380D01*
X42822857Y-48347380D01*
X42965714Y-48395000D01*
X43013333Y-48442619D01*
X43394285Y-48442619D02*
X43441904Y-48395000D01*
X43537142Y-48347380D01*
X43775238Y-48347380D01*
X43870476Y-48395000D01*
X43918095Y-48442619D01*
X43965714Y-48537857D01*
X43965714Y-48633095D01*
X43918095Y-48775952D01*
X43346666Y-49347380D01*
X43965714Y-49347380D01*
%TO.C,U2*%
X39878095Y-43267380D02*
X39878095Y-44076904D01*
X39925714Y-44172142D01*
X39973333Y-44219761D01*
X40068571Y-44267380D01*
X40259047Y-44267380D01*
X40354285Y-44219761D01*
X40401904Y-44172142D01*
X40449523Y-44076904D01*
X40449523Y-43267380D01*
X40878095Y-43362619D02*
X40925714Y-43315000D01*
X41020952Y-43267380D01*
X41259047Y-43267380D01*
X41354285Y-43315000D01*
X41401904Y-43362619D01*
X41449523Y-43457857D01*
X41449523Y-43553095D01*
X41401904Y-43695952D01*
X40830476Y-44267380D01*
X41449523Y-44267380D01*
%TO.C,JP1*%
X45807380Y-51633333D02*
X46521666Y-51633333D01*
X46664523Y-51680952D01*
X46759761Y-51776190D01*
X46807380Y-51919047D01*
X46807380Y-52014285D01*
X46807380Y-51157142D02*
X45807380Y-51157142D01*
X45807380Y-50776190D01*
X45855000Y-50680952D01*
X45902619Y-50633333D01*
X45997857Y-50585714D01*
X46140714Y-50585714D01*
X46235952Y-50633333D01*
X46283571Y-50680952D01*
X46331190Y-50776190D01*
X46331190Y-51157142D01*
X46807380Y-49633333D02*
X46807380Y-50204761D01*
X46807380Y-49919047D02*
X45807380Y-49919047D01*
X45950238Y-50014285D01*
X46045476Y-50109523D01*
X46093095Y-50204761D01*
%TO.C,JP0*%
X48061666Y-52792380D02*
X48061666Y-53506666D01*
X48014047Y-53649523D01*
X47918809Y-53744761D01*
X47775952Y-53792380D01*
X47680714Y-53792380D01*
X48537857Y-53792380D02*
X48537857Y-52792380D01*
X48918809Y-52792380D01*
X49014047Y-52840000D01*
X49061666Y-52887619D01*
X49109285Y-52982857D01*
X49109285Y-53125714D01*
X49061666Y-53220952D01*
X49014047Y-53268571D01*
X48918809Y-53316190D01*
X48537857Y-53316190D01*
X49728333Y-52792380D02*
X49823571Y-52792380D01*
X49918809Y-52840000D01*
X49966428Y-52887619D01*
X50014047Y-52982857D01*
X50061666Y-53173333D01*
X50061666Y-53411428D01*
X50014047Y-53601904D01*
X49966428Y-53697142D01*
X49918809Y-53744761D01*
X49823571Y-53792380D01*
X49728333Y-53792380D01*
X49633095Y-53744761D01*
X49585476Y-53697142D01*
X49537857Y-53601904D01*
X49490238Y-53411428D01*
X49490238Y-53173333D01*
X49537857Y-52982857D01*
X49585476Y-52887619D01*
X49633095Y-52840000D01*
X49728333Y-52792380D01*
%TO.C,C1*%
X35393333Y-88027142D02*
X35345714Y-88074761D01*
X35202857Y-88122380D01*
X35107619Y-88122380D01*
X34964761Y-88074761D01*
X34869523Y-87979523D01*
X34821904Y-87884285D01*
X34774285Y-87693809D01*
X34774285Y-87550952D01*
X34821904Y-87360476D01*
X34869523Y-87265238D01*
X34964761Y-87170000D01*
X35107619Y-87122380D01*
X35202857Y-87122380D01*
X35345714Y-87170000D01*
X35393333Y-87217619D01*
X36345714Y-88122380D02*
X35774285Y-88122380D01*
X36060000Y-88122380D02*
X36060000Y-87122380D01*
X35964761Y-87265238D01*
X35869523Y-87360476D01*
X35774285Y-87408095D01*
%TO.C,U1*%
X46182380Y-74981904D02*
X46991904Y-74981904D01*
X47087142Y-74934285D01*
X47134761Y-74886666D01*
X47182380Y-74791428D01*
X47182380Y-74600952D01*
X47134761Y-74505714D01*
X47087142Y-74458095D01*
X46991904Y-74410476D01*
X46182380Y-74410476D01*
X47182380Y-73410476D02*
X47182380Y-73981904D01*
X47182380Y-73696190D02*
X46182380Y-73696190D01*
X46325238Y-73791428D01*
X46420476Y-73886666D01*
X46468095Y-73981904D01*
%TD*%
M02*
