%TF.GenerationSoftware,KiCad,Pcbnew,(5.1.7)-1*%
%TF.CreationDate,2022-07-07T01:38:01-03:00*%
%TF.ProjectId,RAMboard,52414d62-6f61-4726-942e-6b696361645f,rev?*%
%TF.SameCoordinates,Original*%
%TF.FileFunction,Legend,Bot*%
%TF.FilePolarity,Positive*%
%FSLAX46Y46*%
G04 Gerber Fmt 4.6, Leading zero omitted, Abs format (unit mm)*
G04 Created by KiCad (PCBNEW (5.1.7)-1) date 2022-07-07 01:38:01*
%MOMM*%
%LPD*%
G01*
G04 APERTURE LIST*
%ADD10C,0.150000*%
G04 APERTURE END LIST*
D10*
X43941904Y-24947619D02*
X43894285Y-24900000D01*
X43799047Y-24852380D01*
X43560952Y-24852380D01*
X43465714Y-24900000D01*
X43418095Y-24947619D01*
X43370476Y-25042857D01*
X43370476Y-25138095D01*
X43418095Y-25280952D01*
X43989523Y-25852380D01*
X43370476Y-25852380D01*
X42799047Y-25280952D02*
X42894285Y-25233333D01*
X42941904Y-25185714D01*
X42989523Y-25090476D01*
X42989523Y-25042857D01*
X42941904Y-24947619D01*
X42894285Y-24900000D01*
X42799047Y-24852380D01*
X42608571Y-24852380D01*
X42513333Y-24900000D01*
X42465714Y-24947619D01*
X42418095Y-25042857D01*
X42418095Y-25090476D01*
X42465714Y-25185714D01*
X42513333Y-25233333D01*
X42608571Y-25280952D01*
X42799047Y-25280952D01*
X42894285Y-25328571D01*
X42941904Y-25376190D01*
X42989523Y-25471428D01*
X42989523Y-25661904D01*
X42941904Y-25757142D01*
X42894285Y-25804761D01*
X42799047Y-25852380D01*
X42608571Y-25852380D01*
X42513333Y-25804761D01*
X42465714Y-25757142D01*
X42418095Y-25661904D01*
X42418095Y-25471428D01*
X42465714Y-25376190D01*
X42513333Y-25328571D01*
X42608571Y-25280952D01*
X30194285Y-25852380D02*
X30765714Y-25852380D01*
X30480000Y-25852380D02*
X30480000Y-24852380D01*
X30575238Y-24995238D01*
X30670476Y-25090476D01*
X30765714Y-25138095D01*
X30670476Y-58872380D02*
X31241904Y-58872380D01*
X30956190Y-58872380D02*
X30956190Y-57872380D01*
X31051428Y-58015238D01*
X31146666Y-58110476D01*
X31241904Y-58158095D01*
X29813333Y-58205714D02*
X29813333Y-58872380D01*
X30051428Y-57824761D02*
X30289523Y-58539047D01*
X29670476Y-58539047D01*
X43370476Y-58872380D02*
X43941904Y-58872380D01*
X43656190Y-58872380D02*
X43656190Y-57872380D01*
X43751428Y-58015238D01*
X43846666Y-58110476D01*
X43941904Y-58158095D01*
X42465714Y-57872380D02*
X42941904Y-57872380D01*
X42989523Y-58348571D01*
X42941904Y-58300952D01*
X42846666Y-58253333D01*
X42608571Y-58253333D01*
X42513333Y-58300952D01*
X42465714Y-58348571D01*
X42418095Y-58443809D01*
X42418095Y-58681904D01*
X42465714Y-58777142D01*
X42513333Y-58824761D01*
X42608571Y-58872380D01*
X42846666Y-58872380D01*
X42941904Y-58824761D01*
X42989523Y-58777142D01*
M02*
