%TF.GenerationSoftware,KiCad,Pcbnew,(5.1.7)-1*%
%TF.CreationDate,2022-07-07T01:38:01-03:00*%
%TF.ProjectId,RAMboard,52414d62-6f61-4726-942e-6b696361645f,rev?*%
%TF.SameCoordinates,Original*%
%TF.FileFunction,Soldermask,Top*%
%TF.FilePolarity,Negative*%
%FSLAX46Y46*%
G04 Gerber Fmt 4.6, Leading zero omitted, Abs format (unit mm)*
G04 Created by KiCad (PCBNEW (5.1.7)-1) date 2022-07-07 01:38:01*
%MOMM*%
%LPD*%
G01*
G04 APERTURE LIST*
%ADD10O,1.700000X1.700000*%
%ADD11R,1.700000X1.700000*%
%ADD12C,1.600000*%
%ADD13R,1.600000X1.600000*%
G04 APERTURE END LIST*
%TO.C,U1*%
G36*
G01*
X39980000Y-33220000D02*
X39980000Y-32820000D01*
G75*
G02*
X40180000Y-32620000I200000J0D01*
G01*
X42780000Y-32620000D01*
G75*
G02*
X42980000Y-32820000I0J-200000D01*
G01*
X42980000Y-33220000D01*
G75*
G02*
X42780000Y-33420000I-200000J0D01*
G01*
X40180000Y-33420000D01*
G75*
G02*
X39980000Y-33220000I0J200000D01*
G01*
G37*
G36*
G01*
X39980000Y-34490000D02*
X39980000Y-34090000D01*
G75*
G02*
X40180000Y-33890000I200000J0D01*
G01*
X42780000Y-33890000D01*
G75*
G02*
X42980000Y-34090000I0J-200000D01*
G01*
X42980000Y-34490000D01*
G75*
G02*
X42780000Y-34690000I-200000J0D01*
G01*
X40180000Y-34690000D01*
G75*
G02*
X39980000Y-34490000I0J200000D01*
G01*
G37*
G36*
G01*
X39980000Y-35760000D02*
X39980000Y-35360000D01*
G75*
G02*
X40180000Y-35160000I200000J0D01*
G01*
X42780000Y-35160000D01*
G75*
G02*
X42980000Y-35360000I0J-200000D01*
G01*
X42980000Y-35760000D01*
G75*
G02*
X42780000Y-35960000I-200000J0D01*
G01*
X40180000Y-35960000D01*
G75*
G02*
X39980000Y-35760000I0J200000D01*
G01*
G37*
G36*
G01*
X39980000Y-37030000D02*
X39980000Y-36630000D01*
G75*
G02*
X40180000Y-36430000I200000J0D01*
G01*
X42780000Y-36430000D01*
G75*
G02*
X42980000Y-36630000I0J-200000D01*
G01*
X42980000Y-37030000D01*
G75*
G02*
X42780000Y-37230000I-200000J0D01*
G01*
X40180000Y-37230000D01*
G75*
G02*
X39980000Y-37030000I0J200000D01*
G01*
G37*
G36*
G01*
X39980000Y-38300000D02*
X39980000Y-37900000D01*
G75*
G02*
X40180000Y-37700000I200000J0D01*
G01*
X42780000Y-37700000D01*
G75*
G02*
X42980000Y-37900000I0J-200000D01*
G01*
X42980000Y-38300000D01*
G75*
G02*
X42780000Y-38500000I-200000J0D01*
G01*
X40180000Y-38500000D01*
G75*
G02*
X39980000Y-38300000I0J200000D01*
G01*
G37*
G36*
G01*
X39980000Y-39570000D02*
X39980000Y-39170000D01*
G75*
G02*
X40180000Y-38970000I200000J0D01*
G01*
X42780000Y-38970000D01*
G75*
G02*
X42980000Y-39170000I0J-200000D01*
G01*
X42980000Y-39570000D01*
G75*
G02*
X42780000Y-39770000I-200000J0D01*
G01*
X40180000Y-39770000D01*
G75*
G02*
X39980000Y-39570000I0J200000D01*
G01*
G37*
G36*
G01*
X39980000Y-40840000D02*
X39980000Y-40440000D01*
G75*
G02*
X40180000Y-40240000I200000J0D01*
G01*
X42780000Y-40240000D01*
G75*
G02*
X42980000Y-40440000I0J-200000D01*
G01*
X42980000Y-40840000D01*
G75*
G02*
X42780000Y-41040000I-200000J0D01*
G01*
X40180000Y-41040000D01*
G75*
G02*
X39980000Y-40840000I0J200000D01*
G01*
G37*
G36*
G01*
X39980000Y-42110000D02*
X39980000Y-41710000D01*
G75*
G02*
X40180000Y-41510000I200000J0D01*
G01*
X42780000Y-41510000D01*
G75*
G02*
X42980000Y-41710000I0J-200000D01*
G01*
X42980000Y-42110000D01*
G75*
G02*
X42780000Y-42310000I-200000J0D01*
G01*
X40180000Y-42310000D01*
G75*
G02*
X39980000Y-42110000I0J200000D01*
G01*
G37*
G36*
G01*
X39980000Y-43380000D02*
X39980000Y-42980000D01*
G75*
G02*
X40180000Y-42780000I200000J0D01*
G01*
X42780000Y-42780000D01*
G75*
G02*
X42980000Y-42980000I0J-200000D01*
G01*
X42980000Y-43380000D01*
G75*
G02*
X42780000Y-43580000I-200000J0D01*
G01*
X40180000Y-43580000D01*
G75*
G02*
X39980000Y-43380000I0J200000D01*
G01*
G37*
G36*
G01*
X39980000Y-44650000D02*
X39980000Y-44250000D01*
G75*
G02*
X40180000Y-44050000I200000J0D01*
G01*
X42780000Y-44050000D01*
G75*
G02*
X42980000Y-44250000I0J-200000D01*
G01*
X42980000Y-44650000D01*
G75*
G02*
X42780000Y-44850000I-200000J0D01*
G01*
X40180000Y-44850000D01*
G75*
G02*
X39980000Y-44650000I0J200000D01*
G01*
G37*
G36*
G01*
X39980000Y-45920000D02*
X39980000Y-45520000D01*
G75*
G02*
X40180000Y-45320000I200000J0D01*
G01*
X42780000Y-45320000D01*
G75*
G02*
X42980000Y-45520000I0J-200000D01*
G01*
X42980000Y-45920000D01*
G75*
G02*
X42780000Y-46120000I-200000J0D01*
G01*
X40180000Y-46120000D01*
G75*
G02*
X39980000Y-45920000I0J200000D01*
G01*
G37*
G36*
G01*
X39980000Y-47190000D02*
X39980000Y-46790000D01*
G75*
G02*
X40180000Y-46590000I200000J0D01*
G01*
X42780000Y-46590000D01*
G75*
G02*
X42980000Y-46790000I0J-200000D01*
G01*
X42980000Y-47190000D01*
G75*
G02*
X42780000Y-47390000I-200000J0D01*
G01*
X40180000Y-47390000D01*
G75*
G02*
X39980000Y-47190000I0J200000D01*
G01*
G37*
G36*
G01*
X39980000Y-48460000D02*
X39980000Y-48060000D01*
G75*
G02*
X40180000Y-47860000I200000J0D01*
G01*
X42780000Y-47860000D01*
G75*
G02*
X42980000Y-48060000I0J-200000D01*
G01*
X42980000Y-48460000D01*
G75*
G02*
X42780000Y-48660000I-200000J0D01*
G01*
X40180000Y-48660000D01*
G75*
G02*
X39980000Y-48460000I0J200000D01*
G01*
G37*
G36*
G01*
X39980000Y-49730000D02*
X39980000Y-49330000D01*
G75*
G02*
X40180000Y-49130000I200000J0D01*
G01*
X42780000Y-49130000D01*
G75*
G02*
X42980000Y-49330000I0J-200000D01*
G01*
X42980000Y-49730000D01*
G75*
G02*
X42780000Y-49930000I-200000J0D01*
G01*
X40180000Y-49930000D01*
G75*
G02*
X39980000Y-49730000I0J200000D01*
G01*
G37*
G36*
G01*
X30680000Y-49730000D02*
X30680000Y-49330000D01*
G75*
G02*
X30880000Y-49130000I200000J0D01*
G01*
X33480000Y-49130000D01*
G75*
G02*
X33680000Y-49330000I0J-200000D01*
G01*
X33680000Y-49730000D01*
G75*
G02*
X33480000Y-49930000I-200000J0D01*
G01*
X30880000Y-49930000D01*
G75*
G02*
X30680000Y-49730000I0J200000D01*
G01*
G37*
G36*
G01*
X30680000Y-48460000D02*
X30680000Y-48060000D01*
G75*
G02*
X30880000Y-47860000I200000J0D01*
G01*
X33480000Y-47860000D01*
G75*
G02*
X33680000Y-48060000I0J-200000D01*
G01*
X33680000Y-48460000D01*
G75*
G02*
X33480000Y-48660000I-200000J0D01*
G01*
X30880000Y-48660000D01*
G75*
G02*
X30680000Y-48460000I0J200000D01*
G01*
G37*
G36*
G01*
X30680000Y-47190000D02*
X30680000Y-46790000D01*
G75*
G02*
X30880000Y-46590000I200000J0D01*
G01*
X33480000Y-46590000D01*
G75*
G02*
X33680000Y-46790000I0J-200000D01*
G01*
X33680000Y-47190000D01*
G75*
G02*
X33480000Y-47390000I-200000J0D01*
G01*
X30880000Y-47390000D01*
G75*
G02*
X30680000Y-47190000I0J200000D01*
G01*
G37*
G36*
G01*
X30680000Y-45920000D02*
X30680000Y-45520000D01*
G75*
G02*
X30880000Y-45320000I200000J0D01*
G01*
X33480000Y-45320000D01*
G75*
G02*
X33680000Y-45520000I0J-200000D01*
G01*
X33680000Y-45920000D01*
G75*
G02*
X33480000Y-46120000I-200000J0D01*
G01*
X30880000Y-46120000D01*
G75*
G02*
X30680000Y-45920000I0J200000D01*
G01*
G37*
G36*
G01*
X30680000Y-44650000D02*
X30680000Y-44250000D01*
G75*
G02*
X30880000Y-44050000I200000J0D01*
G01*
X33480000Y-44050000D01*
G75*
G02*
X33680000Y-44250000I0J-200000D01*
G01*
X33680000Y-44650000D01*
G75*
G02*
X33480000Y-44850000I-200000J0D01*
G01*
X30880000Y-44850000D01*
G75*
G02*
X30680000Y-44650000I0J200000D01*
G01*
G37*
G36*
G01*
X30680000Y-43380000D02*
X30680000Y-42980000D01*
G75*
G02*
X30880000Y-42780000I200000J0D01*
G01*
X33480000Y-42780000D01*
G75*
G02*
X33680000Y-42980000I0J-200000D01*
G01*
X33680000Y-43380000D01*
G75*
G02*
X33480000Y-43580000I-200000J0D01*
G01*
X30880000Y-43580000D01*
G75*
G02*
X30680000Y-43380000I0J200000D01*
G01*
G37*
G36*
G01*
X30680000Y-42110000D02*
X30680000Y-41710000D01*
G75*
G02*
X30880000Y-41510000I200000J0D01*
G01*
X33480000Y-41510000D01*
G75*
G02*
X33680000Y-41710000I0J-200000D01*
G01*
X33680000Y-42110000D01*
G75*
G02*
X33480000Y-42310000I-200000J0D01*
G01*
X30880000Y-42310000D01*
G75*
G02*
X30680000Y-42110000I0J200000D01*
G01*
G37*
G36*
G01*
X30680000Y-40840000D02*
X30680000Y-40440000D01*
G75*
G02*
X30880000Y-40240000I200000J0D01*
G01*
X33480000Y-40240000D01*
G75*
G02*
X33680000Y-40440000I0J-200000D01*
G01*
X33680000Y-40840000D01*
G75*
G02*
X33480000Y-41040000I-200000J0D01*
G01*
X30880000Y-41040000D01*
G75*
G02*
X30680000Y-40840000I0J200000D01*
G01*
G37*
G36*
G01*
X30680000Y-39570000D02*
X30680000Y-39170000D01*
G75*
G02*
X30880000Y-38970000I200000J0D01*
G01*
X33480000Y-38970000D01*
G75*
G02*
X33680000Y-39170000I0J-200000D01*
G01*
X33680000Y-39570000D01*
G75*
G02*
X33480000Y-39770000I-200000J0D01*
G01*
X30880000Y-39770000D01*
G75*
G02*
X30680000Y-39570000I0J200000D01*
G01*
G37*
G36*
G01*
X30680000Y-38300000D02*
X30680000Y-37900000D01*
G75*
G02*
X30880000Y-37700000I200000J0D01*
G01*
X33480000Y-37700000D01*
G75*
G02*
X33680000Y-37900000I0J-200000D01*
G01*
X33680000Y-38300000D01*
G75*
G02*
X33480000Y-38500000I-200000J0D01*
G01*
X30880000Y-38500000D01*
G75*
G02*
X30680000Y-38300000I0J200000D01*
G01*
G37*
G36*
G01*
X30680000Y-37030000D02*
X30680000Y-36630000D01*
G75*
G02*
X30880000Y-36430000I200000J0D01*
G01*
X33480000Y-36430000D01*
G75*
G02*
X33680000Y-36630000I0J-200000D01*
G01*
X33680000Y-37030000D01*
G75*
G02*
X33480000Y-37230000I-200000J0D01*
G01*
X30880000Y-37230000D01*
G75*
G02*
X30680000Y-37030000I0J200000D01*
G01*
G37*
G36*
G01*
X30680000Y-35760000D02*
X30680000Y-35360000D01*
G75*
G02*
X30880000Y-35160000I200000J0D01*
G01*
X33480000Y-35160000D01*
G75*
G02*
X33680000Y-35360000I0J-200000D01*
G01*
X33680000Y-35760000D01*
G75*
G02*
X33480000Y-35960000I-200000J0D01*
G01*
X30880000Y-35960000D01*
G75*
G02*
X30680000Y-35760000I0J200000D01*
G01*
G37*
G36*
G01*
X30680000Y-34490000D02*
X30680000Y-34090000D01*
G75*
G02*
X30880000Y-33890000I200000J0D01*
G01*
X33480000Y-33890000D01*
G75*
G02*
X33680000Y-34090000I0J-200000D01*
G01*
X33680000Y-34490000D01*
G75*
G02*
X33480000Y-34690000I-200000J0D01*
G01*
X30880000Y-34690000D01*
G75*
G02*
X30680000Y-34490000I0J200000D01*
G01*
G37*
G36*
G01*
X30680000Y-33220000D02*
X30680000Y-32820000D01*
G75*
G02*
X30880000Y-32620000I200000J0D01*
G01*
X33480000Y-32620000D01*
G75*
G02*
X33680000Y-32820000I0J-200000D01*
G01*
X33680000Y-33220000D01*
G75*
G02*
X33480000Y-33420000I-200000J0D01*
G01*
X30880000Y-33420000D01*
G75*
G02*
X30680000Y-33220000I0J200000D01*
G01*
G37*
%TD*%
D10*
%TO.C,J2*%
X45720000Y-25400000D03*
X45720000Y-27940000D03*
X45720000Y-30480000D03*
X45720000Y-33020000D03*
X45720000Y-35560000D03*
X45720000Y-38100000D03*
X45720000Y-40640000D03*
X45720000Y-43180000D03*
X45720000Y-45720000D03*
X45720000Y-48260000D03*
X45720000Y-50800000D03*
X45720000Y-53340000D03*
X45720000Y-55880000D03*
D11*
X45720000Y-58420000D03*
%TD*%
D10*
%TO.C,J1*%
X27940000Y-58420000D03*
X27940000Y-55880000D03*
X27940000Y-53340000D03*
X27940000Y-50800000D03*
X27940000Y-48260000D03*
X27940000Y-45720000D03*
X27940000Y-43180000D03*
X27940000Y-40640000D03*
X27940000Y-38100000D03*
X27940000Y-35560000D03*
X27940000Y-33020000D03*
X27940000Y-30480000D03*
X27940000Y-27940000D03*
D11*
X27940000Y-25400000D03*
%TD*%
D12*
%TO.C,C1*%
X39410000Y-28575000D03*
D13*
X41910000Y-28575000D03*
%TD*%
M02*
