%TF.GenerationSoftware,KiCad,Pcbnew,(5.1.7)-1*%
%TF.CreationDate,2022-07-02T23:21:54-03:00*%
%TF.ProjectId,ROMboard,524f4d62-6f61-4726-942e-6b696361645f,rev?*%
%TF.SameCoordinates,Original*%
%TF.FileFunction,Soldermask,Bot*%
%TF.FilePolarity,Negative*%
%FSLAX46Y46*%
G04 Gerber Fmt 4.6, Leading zero omitted, Abs format (unit mm)*
G04 Created by KiCad (PCBNEW (5.1.7)-1) date 2022-07-02 23:21:54*
%MOMM*%
%LPD*%
G01*
G04 APERTURE LIST*
%ADD10C,1.600000*%
%ADD11R,1.600000X1.600000*%
%ADD12O,1.600000X1.600000*%
%ADD13O,1.700000X1.700000*%
%ADD14R,1.700000X1.700000*%
G04 APERTURE END LIST*
D10*
%TO.C,C1*%
X39370000Y-87670000D03*
D11*
X39370000Y-90170000D03*
%TD*%
D12*
%TO.C,R1*%
X34290000Y-54610000D03*
D10*
X44450000Y-54610000D03*
%TD*%
D13*
%TO.C,J2*%
X30480000Y-50800000D03*
X33020000Y-50800000D03*
X35560000Y-50800000D03*
D14*
X38100000Y-50800000D03*
%TD*%
D13*
%TO.C,J1*%
X49530000Y-55880000D03*
X49530000Y-58420000D03*
X49530000Y-60960000D03*
X49530000Y-63500000D03*
X49530000Y-66040000D03*
X49530000Y-68580000D03*
X49530000Y-71120000D03*
X49530000Y-73660000D03*
X49530000Y-76200000D03*
X49530000Y-78740000D03*
X49530000Y-81280000D03*
X49530000Y-83820000D03*
X49530000Y-86360000D03*
X49530000Y-88900000D03*
X49530000Y-91440000D03*
D14*
X49530000Y-93980000D03*
%TD*%
D13*
%TO.C,J0*%
X30480000Y-93980000D03*
X30480000Y-91440000D03*
X30480000Y-88900000D03*
X30480000Y-86360000D03*
X30480000Y-83820000D03*
X30480000Y-81280000D03*
X30480000Y-78740000D03*
X30480000Y-76200000D03*
X30480000Y-73660000D03*
X30480000Y-71120000D03*
X30480000Y-68580000D03*
X30480000Y-66040000D03*
X30480000Y-63500000D03*
X30480000Y-60960000D03*
X30480000Y-58420000D03*
D14*
X30480000Y-55880000D03*
%TD*%
M02*
